<?xml version="1.0" encoding="UTF-8" standalone="no"?>
<!DOCTYPE svg PUBLIC "-//W3C//DTD SVG 1.1//EN"
 "http://www.w3.org/Graphics/SVG/1.1/DTD/svg11.dtd">
<!-- Generated by graphviz version 2.40.1 (20161225.0304)
 -->
<!-- Title: application_state_diagram Pages: 1 -->
<svg width="1198pt" height="840pt"
 viewBox="0.00 0.00 1198.00 839.80" xmlns="http://www.w3.org/2000/svg" xmlns:xlink="http://www.w3.org/1999/xlink">
<g id="graph0" class="graph" transform="scale(1 1) rotate(0) translate(4 835.8)">
<title>application_state_diagram</title>
<g id="a_graph0"><a xlink:href="index.html" xlink:title="大規模マルチベンダーEコマースALPSプラットフォーム" target="_parent">
<polygon fill="#ffffff" stroke="transparent" points="-4,4 -4,-835.8 1194,-835.8 1194,4 -4,4"/>
<text text-anchor="middle" x="595" y="-815.2" font-family="Helvetica,sans-Serif" font-size="14.00" fill="#000000">大規模マルチベンダーEコマースALPSプラットフォーム</text>
</a>
</g>
<!-- LoginPage -->
<g id="node1" class="node">
<title>LoginPage</title>
<g id="a_node1"><a xlink:href="#LoginPage" xlink:title="LoginPage" target="_parent">
<polygon fill="#d3d3d3" stroke="#000000" stroke-width="2" points="594.1556,-807 489.8444,-807 489.8444,-771 594.1556,-771 594.1556,-807"/>
<text text-anchor="middle" x="542" y="-784.8" font-family="Times,serif" font-size="14.00" fill="#000000">LoginPage</text>
</a>
</g>
</g>
<!-- RegisterPage -->
<g id="node2" class="node">
<title>RegisterPage</title>
<g id="a_node2"><a xlink:href="#RegisterPage" xlink:title="RegisterPage" target="_parent">
<polygon fill="#d3d3d3" stroke="#000000" stroke-width="2" points="550.8641,-720 433.1359,-720 433.1359,-684 550.8641,-684 550.8641,-720"/>
<text text-anchor="middle" x="492" y="-697.8" font-family="Times,serif" font-size="14.00" fill="#000000">RegisterPage</text>
</a>
</g>
</g>
<!-- LoginPage&#45;&gt;RegisterPage -->
<g id="edge1" class="edge goToRegister">
<title>LoginPage&#45;&gt;RegisterPage</title>
<g id="a_edge1"><a xlink:href="#goToRegister" xlink:title="&lt;TABLE&gt;" target="_parent">
<path fill="none" stroke="#000000" stroke-width="1.5" d="M489.7083,-783.7838C449.8713,-778.6028 399.7586,-769.0615 387,-753 371.598,-733.6108 394.8187,-721.112 423.302,-713.3431"/>
<polygon fill="#000000" stroke="#000000" stroke-width="1.5" points="424.2643,-716.7103 433.1151,-710.8867 422.5644,-709.9198 424.2643,-716.7103"/>
</a>
</g>
<g id="a_edge1&#45;label"><a xlink:href="#goToRegister" xlink:title="&lt;TABLE&gt;" target="_parent">
<g id="a_edge1_0"><a xlink:href="#goToRegister" xlink:title="登録ページへ移動 (safe)" target="_parent">
<text text-anchor="start" x="386.9554" y="-741.8" font-family="Times,serif" font-size="13.00" fill="#00a86b">■</text>
<text text-anchor="start" x="396.7054" y="-741.8" font-family="Times,serif" font-size="13.00" fill="#000000"> goToRegister</text>
</a>
</g>
</a>
</g>
</g>
<!-- UserHomePage -->
<g id="node3" class="node">
<title>UserHomePage</title>
<g id="a_node3"><a xlink:href="#UserHomePage" xlink:title="UserHomePage" target="_parent">
<polygon fill="#d3d3d3" stroke="#000000" stroke-width="2" points="652.8501,-633 521.1499,-633 521.1499,-597 652.8501,-597 652.8501,-633"/>
<text text-anchor="middle" x="587" y="-610.8" font-family="Times,serif" font-size="14.00" fill="#000000">UserHomePage</text>
</a>
</g>
</g>
<!-- LoginPage&#45;&gt;UserHomePage -->
<g id="edge2" class="edge doLogin">
<title>LoginPage&#45;&gt;UserHomePage</title>
<g id="a_edge2"><a xlink:href="#doLogin" xlink:title="&lt;TABLE&gt;" target="_parent">
<path fill="none" stroke="#000000" stroke-width="1.5" d="M561.4718,-770.7041C565.9855,-765.429 570.2637,-759.365 573,-753 588.2644,-717.4924 589.8918,-672.2659 588.9817,-643.4631"/>
<polygon fill="#000000" stroke="#000000" stroke-width="1.5" points="592.47,-643.1184 588.5318,-633.2827 585.4768,-643.4276 592.47,-643.1184"/>
</a>
</g>
<g id="a_edge2&#45;label"><a xlink:href="#doLogin" xlink:title="&lt;TABLE&gt;" target="_parent">
<g id="a_edge2_1"><a xlink:href="#doLogin" xlink:title="ログイン (unsafe)" target="_parent">
<text text-anchor="start" x="589.309" y="-698.3" font-family="Times,serif" font-size="13.00" fill="#ff4136">■</text>
<text text-anchor="start" x="599.059" y="-698.3" font-family="Times,serif" font-size="13.00" fill="#000000"> doLogin</text>
</a>
</g>
</a>
</g>
</g>
<!-- RegisterPage&#45;&gt;LoginPage -->
<g id="edge3" class="edge goToLogin">
<title>RegisterPage&#45;&gt;LoginPage</title>
<g id="a_edge3"><a xlink:href="#goToLogin" xlink:title="&lt;TABLE&gt;" target="_parent">
<path fill="none" stroke="#000000" stroke-width="1.5" d="M490.8957,-720.4758C491.066,-730.6392 492.6038,-743.1478 498,-753 500.0802,-756.798 502.7399,-760.3517 505.7192,-763.6331"/>
<polygon fill="#000000" stroke="#000000" stroke-width="1.5" points="503.5023,-766.3577 513.1288,-770.7826 508.3628,-761.3203 503.5023,-766.3577"/>
</a>
</g>
<g id="a_edge3&#45;label"><a xlink:href="#goToLogin" xlink:title="&lt;TABLE&gt;" target="_parent">
<g id="a_edge3_2"><a xlink:href="#goToLogin" xlink:title="ログインページへ移動 (safe)" target="_parent">
<text text-anchor="start" x="498.0881" y="-741.8" font-family="Times,serif" font-size="13.00" fill="#00a86b">■</text>
<text text-anchor="start" x="507.8381" y="-741.8" font-family="Times,serif" font-size="13.00" fill="#000000"> goToLogin</text>
</a>
</g>
</a>
</g>
</g>
<!-- RegisterPage&#45;&gt;UserHomePage -->
<g id="edge4" class="edge doRegister">
<title>RegisterPage&#45;&gt;UserHomePage</title>
<g id="a_edge4"><a xlink:href="#doRegister" xlink:title="&lt;TABLE&gt;" target="_parent">
<path fill="none" stroke="#000000" stroke-width="1.5" d="M490.6679,-683.7502C490.8416,-673.1624 492.792,-660.1539 500,-651 503.6927,-646.3104 508.102,-642.2262 512.9484,-638.6701"/>
<polygon fill="#000000" stroke="#000000" stroke-width="1.5" points="514.9647,-641.5345 521.4679,-633.1704 511.1681,-635.6535 514.9647,-641.5345"/>
</a>
</g>
<g id="a_edge4&#45;label"><a xlink:href="#doRegister" xlink:title="&lt;TABLE&gt;" target="_parent">
<g id="a_edge4_3"><a xlink:href="#doRegister" xlink:title="ユーザー登録 (unsafe)" target="_parent">
<text text-anchor="start" x="500.1762" y="-654.8" font-family="Times,serif" font-size="13.00" fill="#ff4136">■</text>
<text text-anchor="start" x="509.9262" y="-654.8" font-family="Times,serif" font-size="13.00" fill="#000000"> doRegister</text>
</a>
</g>
</a>
</g>
</g>
<!-- UserHomePage&#45;&gt;LoginPage -->
<g id="edge11" class="edge doLogout">
<title>UserHomePage&#45;&gt;LoginPage</title>
<g id="a_edge11"><a xlink:href="#doLogout" xlink:title="&lt;TABLE&gt;" target="_parent">
<path fill="none" stroke="#000000" stroke-width="1.5" d="M612.51,-633.1874C638.1348,-653.8146 671.5024,-688.66 654,-720 642.5538,-740.4957 622.2429,-755.6566 602.0314,-766.4624"/>
<polygon fill="#000000" stroke="#000000" stroke-width="1.5" points="600.4421,-763.344 593.0941,-770.9767 603.5981,-769.5922 600.4421,-763.344"/>
</a>
</g>
<g id="a_edge11&#45;label"><a xlink:href="#doLogout" xlink:title="&lt;TABLE&gt;" target="_parent">
<g id="a_edge11_4"><a xlink:href="#doLogout" xlink:title="ログアウト (safe)" target="_parent">
<text text-anchor="start" x="659.059" y="-698.3" font-family="Times,serif" font-size="13.00" fill="#00a86b">■</text>
<text text-anchor="start" x="668.809" y="-698.3" font-family="Times,serif" font-size="13.00" fill="#000000"> doLogout</text>
</a>
</g>
</a>
</g>
</g>
<!-- UserCartPage -->
<g id="node4" class="node">
<title>UserCartPage</title>
<g id="a_node4"><a xlink:href="#UserCartPage" xlink:title="UserCartPage" target="_parent">
<polygon fill="#d3d3d3" stroke="#000000" stroke-width="2" points="645.7409,-327 524.2591,-327 524.2591,-291 645.7409,-291 645.7409,-327"/>
<text text-anchor="middle" x="585" y="-304.8" font-family="Times,serif" font-size="14.00" fill="#000000">UserCartPage</text>
</a>
</g>
</g>
<!-- UserHomePage&#45;&gt;UserCartPage -->
<g id="edge12" class="edge goToUserCart">
<title>UserHomePage&#45;&gt;UserCartPage</title>
<g id="a_edge12"><a xlink:href="#goToUserCart" xlink:title="&lt;TABLE&gt;" target="_parent">
<path fill="none" stroke="#000000" stroke-width="1.5" d="M653.0115,-607.7658C693.9165,-602.0319 741.5143,-592.684 757,-579 787.6493,-551.9167 780.2404,-532.3385 787,-492 799.7064,-416.1736 695.4796,-349.0262 690,-345 679.7069,-337.437 667.7051,-331.377 655.5694,-326.5487"/>
<polygon fill="#000000" stroke="#000000" stroke-width="1.5" points="656.4312,-323.1352 645.8382,-322.9354 653.9945,-329.6975 656.4312,-323.1352"/>
</a>
</g>
<g id="a_edge12&#45;label"><a xlink:href="#goToUserCart" xlink:title="&lt;TABLE&gt;" target="_parent">
<g id="a_edge12_5"><a xlink:href="#goToUserCart" xlink:title="ユーザーカートへ移動 (safe)" target="_parent">
<text text-anchor="start" x="788.1555" y="-480.8" font-family="Times,serif" font-size="13.00" fill="#00a86b">■</text>
<text text-anchor="start" x="797.9055" y="-480.8" font-family="Times,serif" font-size="13.00" fill="#000000"> goToUserCart</text>
</a>
</g>
</a>
</g>
</g>
<!-- UserOrderHistoryPage -->
<g id="node7" class="node">
<title>UserOrderHistoryPage</title>
<g id="a_node7"><a xlink:href="#UserOrderHistoryPage" xlink:title="UserOrderHistoryPage" target="_parent">
<polygon fill="#d3d3d3" stroke="#000000" stroke-width="2" points="924.2738,-36 751.7262,-36 751.7262,0 924.2738,0 924.2738,-36"/>
<text text-anchor="middle" x="838" y="-13.8" font-family="Times,serif" font-size="14.00" fill="#000000">UserOrderHistoryPage</text>
</a>
</g>
</g>
<!-- UserHomePage&#45;&gt;UserOrderHistoryPage -->
<g id="edge13" class="edge goToUserOrderHistory">
<title>UserHomePage&#45;&gt;UserOrderHistoryPage</title>
<g id="a_edge13"><a xlink:href="#goToUserOrderHistory" xlink:title="&lt;TABLE&gt;" target="_parent">
<path fill="none" stroke="#000000" stroke-width="1.5" d="M653.2049,-610.3072C737.5476,-603.9339 878.4429,-591.8538 929,-579 986.3549,-564.418 1052,-587.1796 1052,-528 1052,-528 1052,-528 1052,-135 1052,-77.1605 991.0715,-47.7342 934.2356,-32.867"/>
<polygon fill="#000000" stroke="#000000" stroke-width="1.5" points="934.974,-29.4441 924.4251,-30.4302 933.2865,-36.2377 934.974,-29.4441"/>
</a>
</g>
<g id="a_edge13&#45;label"><a xlink:href="#goToUserOrderHistory" xlink:title="&lt;TABLE&gt;" target="_parent">
<g id="a_edge13_6"><a xlink:href="#goToUserOrderHistory" xlink:title="ユーザー注文履歴へ移動 (safe)" target="_parent">
<text text-anchor="start" x="1051.6938" y="-305.3" font-family="Times,serif" font-size="13.00" fill="#00a86b">■</text>
<text text-anchor="start" x="1061.4438" y="-305.3" font-family="Times,serif" font-size="13.00" fill="#000000"> goToUserOrderHistory</text>
</a>
</g>
</a>
</g>
</g>
<!-- UserProductListPage -->
<g id="node8" class="node">
<title>UserProductListPage</title>
<g id="a_node8"><a xlink:href="#UserProductListPage" xlink:title="UserProductListPage" target="_parent">
<polygon fill="#d3d3d3" stroke="#000000" stroke-width="2" points="306.465,-546 143.535,-546 143.535,-510 306.465,-510 306.465,-546"/>
<text text-anchor="middle" x="225" y="-523.8" font-family="Times,serif" font-size="14.00" fill="#000000">UserProductListPage</text>
</a>
</g>
</g>
<!-- UserHomePage&#45;&gt;UserProductListPage -->
<g id="edge14" class="edge goToUserProductList">
<title>UserHomePage&#45;&gt;UserProductListPage</title>
<g id="a_edge14"><a xlink:href="#goToUserProductList" xlink:title="&lt;TABLE&gt;" target="_parent">
<path fill="none" stroke="#000000" stroke-width="1.5" d="M520.9871,-611.9337C426.9135,-606.9926 263.2486,-596.0605 242,-579 234.9384,-573.3302 230.7877,-564.6317 228.3556,-556.0149"/>
<polygon fill="#000000" stroke="#000000" stroke-width="1.5" points="231.7515,-555.1588 226.2187,-546.1234 224.9094,-556.637 231.7515,-555.1588"/>
</a>
</g>
<g id="a_edge14&#45;label"><a xlink:href="#goToUserProductList" xlink:title="&lt;TABLE&gt;" target="_parent">
<g id="a_edge14_7"><a xlink:href="#goToUserProductList" xlink:title="ユーザー製品リストへ移動 (safe)" target="_parent">
<text text-anchor="start" x="242.0156" y="-567.8" font-family="Times,serif" font-size="13.00" fill="#00a86b">■</text>
<text text-anchor="start" x="251.7656" y="-567.8" font-family="Times,serif" font-size="13.00" fill="#000000"> goToUserProductList</text>
</a>
</g>
</a>
</g>
</g>
<!-- UserProfilePage -->
<g id="node9" class="node">
<title>UserProfilePage</title>
<g id="a_node9"><a xlink:href="#UserProfilePage" xlink:title="UserProfilePage" target="_parent">
<polygon fill="#d3d3d3" stroke="#000000" stroke-width="2" points="597.7381,-546 462.2619,-546 462.2619,-510 597.7381,-510 597.7381,-546"/>
<text text-anchor="middle" x="530" y="-523.8" font-family="Times,serif" font-size="14.00" fill="#000000">UserProfilePage</text>
</a>
</g>
</g>
<!-- UserHomePage&#45;&gt;UserProfilePage -->
<g id="edge15" class="edge goToUserProfile">
<title>UserHomePage&#45;&gt;UserProfilePage</title>
<g id="a_edge15"><a xlink:href="#goToUserProfile" xlink:title="&lt;TABLE&gt;" target="_parent">
<path fill="none" stroke="#000000" stroke-width="1.5" d="M542.3211,-596.9248C535.3904,-592.1374 529.1608,-586.2273 525,-579 521.0495,-572.1379 520.4501,-563.883 521.3493,-556.0332"/>
<polygon fill="#000000" stroke="#000000" stroke-width="1.5" points="524.8087,-556.5761 523.2388,-546.0982 517.932,-555.2682 524.8087,-556.5761"/>
</a>
</g>
<g id="a_edge15&#45;label"><a xlink:href="#goToUserProfile" xlink:title="&lt;TABLE&gt;" target="_parent">
<g id="a_edge15_8"><a xlink:href="#goToUserProfile" xlink:title="ユーザープロフィールへ移動 (safe)" target="_parent">
<text text-anchor="start" x="524.6568" y="-567.8" font-family="Times,serif" font-size="13.00" fill="#00a86b">■</text>
<text text-anchor="start" x="534.4068" y="-567.8" font-family="Times,serif" font-size="13.00" fill="#000000"> goToUserProfile</text>
</a>
</g>
</a>
</g>
</g>
<!-- UserCartPage&#45;&gt;UserHomePage -->
<g id="edge7" class="edge goToUserHome">
<title>UserCartPage&#45;&gt;UserHomePage</title>
<g id="a_edge7"><a xlink:href="#goToUserHome" xlink:title="&lt;TABLE&gt;" target="_parent">
<path fill="none" stroke="#000000" stroke-width="1.5" d="M646.0566,-325.8668C654.9058,-330.7355 663.0264,-336.9856 669,-345 708.3042,-397.7324 643.1377,-442.1166 686,-492 705.8151,-515.0609 733.5446,-485.8372 752,-510 761.7119,-522.7153 755.1883,-530.3209 752,-546 748.8252,-561.6124 750.1669,-568.7144 738,-579 726.1608,-589.0086 694.4656,-597.2921 663.1525,-603.3797"/>
<polygon fill="#000000" stroke="#000000" stroke-width="1.5" points="662.2088,-599.9956 653.025,-605.2785 663.4987,-606.8757 662.2088,-599.9956"/>
</a>
</g>
<g id="a_edge7&#45;label"><a xlink:href="#goToUserHome" xlink:title="&lt;TABLE&gt;" target="_parent">
<g id="a_edge7_9"><a xlink:href="#goToUserHome" xlink:title="ユーザーホームへ移動 (safe)" target="_parent">
<text text-anchor="start" x="686.4619" y="-480.8" font-family="Times,serif" font-size="13.00" fill="#00a86b">■</text>
<text text-anchor="start" x="696.2119" y="-480.8" font-family="Times,serif" font-size="13.00" fill="#000000"> goToUserHome</text>
</a>
</g>
</a>
</g>
</g>
<!-- UserCartPage&#45;&gt;UserCartPage -->
<g id="edge5" class="edge doRemoveCartItem">
<title>UserCartPage&#45;&gt;UserCartPage</title>
<g id="a_edge5"><a xlink:href="#doRemoveCartItem" xlink:title="&lt;TABLE&gt;" target="_parent">
<path fill="none" stroke="#000000" stroke-width="1.5" d="M645.8472,-316.3828C656.4762,-315.3984 663.8703,-312.9375 663.8703,-309 663.8703,-306.4775 660.8358,-304.5611 655.8602,-303.2506"/>
<polygon fill="#000000" stroke="#000000" stroke-width="1.5" points="656.2803,-299.7729 645.8472,-301.6172 655.1532,-306.6816 656.2803,-299.7729"/>
</a>
</g>
<g id="a_edge5&#45;label"><a xlink:href="#doRemoveCartItem" xlink:title="&lt;TABLE&gt;" target="_parent">
<g id="a_edge5_10"><a xlink:href="#doRemoveCartItem" xlink:title="カート内アイテム削除 (idempotent)" target="_parent">
<text text-anchor="start" x="663.9423" y="-313.3" font-family="Times,serif" font-size="13.00" fill="#ffdc00">■</text>
<text text-anchor="start" x="673.6923" y="-313.3" font-family="Times,serif" font-size="13.00" fill="#000000"> doRemoveCartItem</text>
</a>
</g>
<g id="a_edge5_11"><a xlink:href="#doUpdateCartItem" xlink:title="カート内アイテム更新 (idempotent)" target="_parent">
<text text-anchor="start" x="664.3703" y="-298.3" font-family="Times,serif" font-size="13.00" fill="#ffdc00">■</text>
<text text-anchor="start" x="674.1203" y="-298.3" font-family="Times,serif" font-size="13.00" fill="#000000"> doUpdateCartItem</text>
</a>
</g>
</a>
</g>
</g>
<!-- UserCheckoutPage -->
<g id="node5" class="node">
<title>UserCheckoutPage</title>
<g id="a_node5"><a xlink:href="#UserCheckoutPage" xlink:title="UserCheckoutPage" target="_parent">
<polygon fill="#d3d3d3" stroke="#000000" stroke-width="2" points="518.7949,-240 367.2051,-240 367.2051,-204 518.7949,-204 518.7949,-240"/>
<text text-anchor="middle" x="443" y="-217.8" font-family="Times,serif" font-size="14.00" fill="#000000">UserCheckoutPage</text>
</a>
</g>
</g>
<!-- UserCartPage&#45;&gt;UserCheckoutPage -->
<g id="edge6" class="edge goToUserCheckout">
<title>UserCartPage&#45;&gt;UserCheckoutPage</title>
<g id="a_edge6"><a xlink:href="#goToUserCheckout" xlink:title="&lt;TABLE&gt;" target="_parent">
<path fill="none" stroke="#000000" stroke-width="1.5" d="M523.9479,-300.8419C490.6801,-295.0218 454.2397,-285.9192 444,-273 439.0278,-266.7267 437.4421,-258.5252 437.4715,-250.5392"/>
<polygon fill="#000000" stroke="#000000" stroke-width="1.5" points="440.9783,-250.5939 438.2913,-240.3454 434.0008,-250.0327 440.9783,-250.5939"/>
</a>
</g>
<g id="a_edge6&#45;label"><a xlink:href="#goToUserCheckout" xlink:title="&lt;TABLE&gt;" target="_parent">
<g id="a_edge6_12"><a xlink:href="#goToUserCheckout" xlink:title="ユーザーチェックアウトへ移動 (safe)" target="_parent">
<text text-anchor="start" x="444.434" y="-261.8" font-family="Times,serif" font-size="13.00" fill="#00a86b">■</text>
<text text-anchor="start" x="454.184" y="-261.8" font-family="Times,serif" font-size="13.00" fill="#000000"> goToUserCheckout</text>
</a>
</g>
</a>
</g>
</g>
<!-- UserCheckoutPage&#45;&gt;UserHomePage -->
<g id="edge9" class="edge goToUserHome">
<title>UserCheckoutPage&#45;&gt;UserHomePage</title>
<g id="a_edge9"><a xlink:href="#goToUserHome" xlink:title="&lt;TABLE&gt;" target="_parent">
<path fill="none" stroke="#000000" stroke-width="1.5" d="M367.1577,-227.0328C270.5586,-235.5687 116,-257.3037 116,-309 116,-528 116,-528 116,-528 116,-582.6956 174.6283,-567.0392 228,-579 324.1763,-600.5535 437.7501,-609.2119 511.0005,-612.6843"/>
<polygon fill="#000000" stroke="#000000" stroke-width="1.5" points="510.9145,-616.1839 521.0629,-613.1407 511.2317,-609.1911 510.9145,-616.1839"/>
</a>
</g>
<g id="a_edge9&#45;label"><a xlink:href="#goToUserHome" xlink:title="&lt;TABLE&gt;" target="_parent">
<g id="a_edge9_13"><a xlink:href="#goToUserHome" xlink:title="ユーザーホームへ移動 (safe)" target="_parent">
<text text-anchor="start" x="116.4619" y="-437.3" font-family="Times,serif" font-size="13.00" fill="#00a86b">■</text>
<text text-anchor="start" x="126.2119" y="-437.3" font-family="Times,serif" font-size="13.00" fill="#000000"> goToUserHome</text>
</a>
</g>
</a>
</g>
</g>
<!-- UserCheckoutPage&#45;&gt;UserCartPage -->
<g id="edge8" class="edge goToUserCart">
<title>UserCheckoutPage&#45;&gt;UserCartPage</title>
<g id="a_edge8"><a xlink:href="#goToUserCart" xlink:title="&lt;TABLE&gt;" target="_parent">
<path fill="none" stroke="#000000" stroke-width="1.5" d="M518.7626,-239.2934C538.119,-244.8966 555.5683,-251.3826 563,-258 569.8326,-264.0839 574.6224,-272.6631 577.9452,-281.0525"/>
<polygon fill="#000000" stroke="#000000" stroke-width="1.5" points="574.6759,-282.31 581.2065,-290.6527 581.3039,-280.0584 574.6759,-282.31"/>
</a>
</g>
<g id="a_edge8&#45;label"><a xlink:href="#goToUserCart" xlink:title="&lt;TABLE&gt;" target="_parent">
<g id="a_edge8_14"><a xlink:href="#goToUserCart" xlink:title="ユーザーカートへ移動 (safe)" target="_parent">
<text text-anchor="start" x="574.1555" y="-261.8" font-family="Times,serif" font-size="13.00" fill="#00a86b">■</text>
<text text-anchor="start" x="583.9055" y="-261.8" font-family="Times,serif" font-size="13.00" fill="#000000"> goToUserCart</text>
</a>
</g>
</a>
</g>
</g>
<!-- UserOrderDetailPage -->
<g id="node6" class="node">
<title>UserOrderDetailPage</title>
<g id="a_node6"><a xlink:href="#UserOrderDetailPage" xlink:title="UserOrderDetailPage" target="_parent">
<polygon fill="#d3d3d3" stroke="#000000" stroke-width="2" points="525.4889,-153 360.5111,-153 360.5111,-117 525.4889,-117 525.4889,-153"/>
<text text-anchor="middle" x="443" y="-130.8" font-family="Times,serif" font-size="14.00" fill="#000000">UserOrderDetailPage</text>
</a>
</g>
</g>
<!-- UserCheckoutPage&#45;&gt;UserOrderDetailPage -->
<g id="edge10" class="edge doPlaceOrder">
<title>UserCheckoutPage&#45;&gt;UserOrderDetailPage</title>
<g id="a_edge10"><a xlink:href="#doPlaceOrder" xlink:title="&lt;TABLE&gt;" target="_parent">
<path fill="none" stroke="#000000" stroke-width="1.5" d="M443,-203.9735C443,-192.1918 443,-176.5607 443,-163.1581"/>
<polygon fill="#000000" stroke="#000000" stroke-width="1.5" points="446.5001,-163.0033 443,-153.0034 439.5001,-163.0034 446.5001,-163.0033"/>
</a>
</g>
<g id="a_edge10&#45;label"><a xlink:href="#doPlaceOrder" xlink:title="&lt;TABLE&gt;" target="_parent">
<g id="a_edge10_15"><a xlink:href="#doPlaceOrder" xlink:title="注文確定 (unsafe)" target="_parent">
<text text-anchor="start" x="442.605" y="-174.8" font-family="Times,serif" font-size="13.00" fill="#ff4136">■</text>
<text text-anchor="start" x="452.355" y="-174.8" font-family="Times,serif" font-size="13.00" fill="#000000"> doPlaceOrder</text>
</a>
</g>
</a>
</g>
</g>
<!-- UserOrderDetailPage&#45;&gt;UserHomePage -->
<g id="edge16" class="edge goToUserHome">
<title>UserOrderDetailPage&#45;&gt;UserHomePage</title>
<g id="a_edge16"><a xlink:href="#goToUserHome" xlink:title="&lt;TABLE&gt;" target="_parent">
<path fill="none" stroke="#000000" stroke-width="1.5" d="M360.7133,-142.8902C232.601,-156.3 0,-185.6518 0,-222 0,-528 0,-528 0,-528 0,-590.8932 70.6756,-565.0401 132,-579 201.9605,-594.9258 400.6336,-606.3349 510.9046,-611.6479"/>
<polygon fill="#000000" stroke="#000000" stroke-width="1.5" points="510.8117,-615.1473 520.9671,-612.1276 511.1451,-608.1553 510.8117,-615.1473"/>
</a>
</g>
<g id="a_edge16&#45;label"><a xlink:href="#goToUserHome" xlink:title="&lt;TABLE&gt;" target="_parent">
<g id="a_edge16_16"><a xlink:href="#goToUserHome" xlink:title="ユーザーホームへ移動 (safe)" target="_parent">
<text text-anchor="start" x=".4618" y="-371.3" font-family="Times,serif" font-size="13.00" fill="#00a86b">■</text>
<text text-anchor="start" x="10.2118" y="-371.3" font-family="Times,serif" font-size="13.00" fill="#000000"> goToUserHome</text>
</a>
</g>
</a>
</g>
</g>
<!-- UserOrderDetailPage&#45;&gt;UserOrderHistoryPage -->
<g id="edge17" class="edge goToUserOrderHistory">
<title>UserOrderDetailPage&#45;&gt;UserOrderHistoryPage</title>
<g id="a_edge17"><a xlink:href="#goToUserOrderHistory" xlink:title="&lt;TABLE&gt;" target="_parent">
<path fill="none" stroke="#000000" stroke-width="1.5" d="M525.6151,-128.9653C607.3382,-122.363 722.6718,-111.0971 740,-99 758.417,-86.1428 746.9206,-69.6827 763,-54 767.9323,-49.1894 773.6306,-44.9216 779.6383,-41.1613"/>
<polygon fill="#000000" stroke="#000000" stroke-width="1.5" points="781.6787,-44.0257 788.6082,-36.0111 778.1932,-37.9551 781.6787,-44.0257"/>
</a>
</g>
<g id="a_edge17&#45;label"><a xlink:href="#goToUserOrderHistory" xlink:title="&lt;TABLE&gt;" target="_parent">
<g id="a_edge17_17"><a xlink:href="#goToUserOrderHistory" xlink:title="ユーザー注文履歴へ移動 (safe)" target="_parent">
<text text-anchor="start" x="762.6938" y="-72.8" font-family="Times,serif" font-size="13.00" fill="#00a86b">■</text>
<text text-anchor="start" x="772.4438" y="-72.8" font-family="Times,serif" font-size="13.00" fill="#000000"> goToUserOrderHistory</text>
</a>
</g>
</a>
</g>
</g>
<!-- UserReturnRefundPage -->
<g id="node10" class="node">
<title>UserReturnRefundPage</title>
<g id="a_node10"><a xlink:href="#UserReturnRefundPage" xlink:title="UserReturnRefundPage" target="_parent">
<polygon fill="#d3d3d3" stroke="#000000" stroke-width="2" points="454.4524,-36 277.5476,-36 277.5476,0 454.4524,0 454.4524,-36"/>
<text text-anchor="middle" x="366" y="-13.8" font-family="Times,serif" font-size="14.00" fill="#000000">UserReturnRefundPage</text>
</a>
</g>
</g>
<!-- UserOrderDetailPage&#45;&gt;UserReturnRefundPage -->
<g id="edge18" class="edge goToUserReturnRefund">
<title>UserOrderDetailPage&#45;&gt;UserReturnRefundPage</title>
<g id="a_edge18"><a xlink:href="#goToUserReturnRefund" xlink:title="&lt;TABLE&gt;" target="_parent">
<path fill="none" stroke="#000000" stroke-width="1.5" d="M441.7828,-116.9992C439.8056,-99.4522 434.6168,-72.7458 421,-54 417.9347,-49.7801 414.2109,-45.9195 410.1614,-42.4245"/>
<polygon fill="#000000" stroke="#000000" stroke-width="1.5" points="412.1108,-39.5074 402.0602,-36.1555 407.8268,-45.0435 412.1108,-39.5074"/>
</a>
</g>
<g id="a_edge18&#45;label"><a xlink:href="#goToUserReturnRefund" xlink:title="&lt;TABLE&gt;" target="_parent">
<g id="a_edge18_18"><a xlink:href="#goToUserReturnRefund" xlink:title="返品/払い戻しページへ移動 (safe)" target="_parent">
<text text-anchor="start" x="438.5215" y="-72.8" font-family="Times,serif" font-size="13.00" fill="#00a86b">■</text>
<text text-anchor="start" x="448.2715" y="-72.8" font-family="Times,serif" font-size="13.00" fill="#000000"> goToUserReturnRefund</text>
</a>
</g>
</a>
</g>
</g>
<!-- UserOrderHistoryPage&#45;&gt;UserHomePage -->
<g id="edge19" class="edge goToUserHome">
<title>UserOrderHistoryPage&#45;&gt;UserHomePage</title>
<g id="a_edge19"><a xlink:href="#goToUserHome" xlink:title="&lt;TABLE&gt;" target="_parent">
<path fill="none" stroke="#000000" stroke-width="1.5" d="M881.7501,-36.1705C889.134,-40.9865 896.0106,-46.8825 901,-54 921.9709,-83.9155 915,-98.4662 915,-135 915,-528 915,-528 915,-528 915,-579.85 759.9322,-601.5287 663.0399,-610.0134"/>
<polygon fill="#000000" stroke="#000000" stroke-width="1.5" points="662.65,-606.5338 652.9811,-610.8654 663.2409,-613.5089 662.65,-606.5338"/>
</a>
</g>
<g id="a_edge19&#45;label"><a xlink:href="#goToUserHome" xlink:title="&lt;TABLE&gt;" target="_parent">
<g id="a_edge19_19"><a xlink:href="#goToUserHome" xlink:title="ユーザーホームへ移動 (safe)" target="_parent">
<text text-anchor="start" x="915.4619" y="-305.3" font-family="Times,serif" font-size="13.00" fill="#00a86b">■</text>
<text text-anchor="start" x="925.2119" y="-305.3" font-family="Times,serif" font-size="13.00" fill="#000000"> goToUserHome</text>
</a>
</g>
</a>
</g>
</g>
<!-- UserOrderHistoryPage&#45;&gt;UserOrderDetailPage -->
<g id="edge20" class="edge goToUserOrderDetail">
<title>UserOrderHistoryPage&#45;&gt;UserOrderDetailPage</title>
<g id="a_edge20"><a xlink:href="#goToUserOrderDetail" xlink:title="&lt;TABLE&gt;" target="_parent">
<path fill="none" stroke="#000000" stroke-width="1.5" d="M751.8532,-22.7543C695.3086,-27.4587 627.7584,-36.5934 605,-54 587.6156,-67.2964 601.7335,-84.8932 585,-99 576.4461,-106.2111 556.9999,-112.7177 535.1584,-118.1523"/>
<polygon fill="#000000" stroke="#000000" stroke-width="1.5" points="534.2487,-114.771 525.3322,-120.4934 535.8711,-121.5804 534.2487,-114.771"/>
</a>
</g>
<g id="a_edge20&#45;label"><a xlink:href="#goToUserOrderDetail" xlink:title="&lt;TABLE&gt;" target="_parent">
<g id="a_edge20_20"><a xlink:href="#goToUserOrderDetail" xlink:title="ユーザー注文詳細へ移動 (safe)" target="_parent">
<text text-anchor="start" x="605.3084" y="-72.8" font-family="Times,serif" font-size="13.00" fill="#00a86b">■</text>
<text text-anchor="start" x="615.0584" y="-72.8" font-family="Times,serif" font-size="13.00" fill="#000000"> goToUserOrderDetail</text>
</a>
</g>
</a>
</g>
</g>
<!-- UserOrderHistoryPage&#45;&gt;UserOrderHistoryPage -->
<g id="edge21" class="edge doPaginateOrders">
<title>UserOrderHistoryPage&#45;&gt;UserOrderHistoryPage</title>
<g id="a_edge21"><a xlink:href="#doPaginateOrders" xlink:title="&lt;TABLE&gt;" target="_parent">
<path fill="none" stroke="#000000" stroke-width="1.5" d="M924.1903,-27.4705C935.0138,-25.8014 942.1368,-22.6445 942.1368,-18 942.1368,-15.0246 939.2135,-12.6597 934.2668,-10.9055"/>
<polygon fill="#000000" stroke="#000000" stroke-width="1.5" points="934.7266,-7.418 924.1903,-8.5295 933.1201,-14.2311 934.7266,-7.418"/>
</a>
</g>
<g id="a_edge21&#45;label"><a xlink:href="#doPaginateOrders" xlink:title="&lt;TABLE&gt;" target="_parent">
<g id="a_edge21_21"><a xlink:href="#doPaginateOrders" xlink:title="注文リストのページネーション (safe)" target="_parent">
<text text-anchor="start" x="941.9076" y="-14.3" font-family="Times,serif" font-size="13.00" fill="#00a86b">■</text>
<text text-anchor="start" x="951.6576" y="-14.3" font-family="Times,serif" font-size="13.00" fill="#000000"> doPaginateOrders</text>
</a>
</g>
</a>
</g>
</g>
<!-- UserProductListPage&#45;&gt;UserHomePage -->
<g id="edge25" class="edge goToUserHome">
<title>UserProductListPage&#45;&gt;UserHomePage</title>
<g id="a_edge25"><a xlink:href="#goToUserHome" xlink:title="&lt;TABLE&gt;" target="_parent">
<path fill="none" stroke="#000000" stroke-width="1.5" d="M302.5666,-546.0034C324.7568,-551.4571 348.9115,-557.6846 371,-564 391.6755,-569.9114 396.2296,-573.4313 417,-579 447.4995,-587.1772 481.4772,-594.6857 510.9904,-600.7054"/>
<polygon fill="#000000" stroke="#000000" stroke-width="1.5" points="510.3218,-604.1409 520.8166,-602.6886 511.7067,-597.2793 510.3218,-604.1409"/>
</a>
</g>
<g id="a_edge25&#45;label"><a xlink:href="#goToUserHome" xlink:title="&lt;TABLE&gt;" target="_parent">
<g id="a_edge25_22"><a xlink:href="#goToUserHome" xlink:title="ユーザーホームへ移動 (safe)" target="_parent">
<text text-anchor="start" x="417.4619" y="-567.8" font-family="Times,serif" font-size="13.00" fill="#00a86b">■</text>
<text text-anchor="start" x="427.2119" y="-567.8" font-family="Times,serif" font-size="13.00" fill="#000000"> goToUserHome</text>
</a>
</g>
</a>
</g>
</g>
<!-- UserProductListPage&#45;&gt;UserProductListPage -->
<g id="edge27" class="edge doPaginateProducts">
<title>UserProductListPage&#45;&gt;UserProductListPage</title>
<g id="a_edge27"><a xlink:href="#doPaginateProducts" xlink:title="&lt;TABLE&gt;" target="_parent">
<path fill="none" stroke="#000000" stroke-width="1.5" d="M306.5752,-534.9445C317.3419,-533.7601 324.4825,-531.4453 324.4825,-528 324.4825,-525.7928 321.552,-524.0496 316.615,-522.7704"/>
<polygon fill="#000000" stroke="#000000" stroke-width="1.5" points="317.0218,-519.2893 306.5752,-521.0555 315.8432,-526.1893 317.0218,-519.2893"/>
</a>
</g>
<g id="a_edge27&#45;label"><a xlink:href="#doPaginateProducts" xlink:title="&lt;TABLE&gt;" target="_parent">
<g id="a_edge27_23"><a xlink:href="#doPaginateProducts" xlink:title="製品リストのページネーション (safe)" target="_parent">
<text text-anchor="start" x="324.1898" y="-532.3" font-family="Times,serif" font-size="13.00" fill="#00a86b">■</text>
<text text-anchor="start" x="333.9398" y="-532.3" font-family="Times,serif" font-size="13.00" fill="#000000"> doPaginateProducts</text>
</a>
</g>
<g id="a_edge27_24"><a xlink:href="#doSearchProducts" xlink:title="製品検索 (safe)" target="_parent">
<text text-anchor="start" x="324.4825" y="-517.3" font-family="Times,serif" font-size="13.00" fill="#00a86b">■</text>
<text text-anchor="start" x="334.2325" y="-517.3" font-family="Times,serif" font-size="13.00" fill="#000000"> doSearchProducts</text>
</a>
</g>
</a>
</g>
</g>
<!-- UserProductDetailPage -->
<g id="node11" class="node">
<title>UserProductDetailPage</title>
<g id="a_node11"><a xlink:href="#UserProductDetailPage" xlink:title="UserProductDetailPage" target="_parent">
<polygon fill="#d3d3d3" stroke="#000000" stroke-width="2" points="476.8946,-459 301.1054,-459 301.1054,-423 476.8946,-423 476.8946,-459"/>
<text text-anchor="middle" x="389" y="-436.8" font-family="Times,serif" font-size="14.00" fill="#000000">UserProductDetailPage</text>
</a>
</g>
</g>
<!-- UserProductListPage&#45;&gt;UserProductDetailPage -->
<g id="edge26" class="edge goToUserProductDetail">
<title>UserProductListPage&#45;&gt;UserProductDetailPage</title>
<g id="a_edge26"><a xlink:href="#goToUserProductDetail" xlink:title="&lt;TABLE&gt;" target="_parent">
<path fill="none" stroke="#000000" stroke-width="1.5" d="M218.2711,-509.6174C215.6434,-498.9826 214.7567,-485.9712 222,-477 231.541,-465.1831 260.1764,-457.0594 291.1012,-451.5652"/>
<polygon fill="#000000" stroke="#000000" stroke-width="1.5" points="291.917,-454.9773 301.2008,-449.8724 290.7598,-448.0736 291.917,-454.9773"/>
</a>
</g>
<g id="a_edge26&#45;label"><a xlink:href="#goToUserProductDetail" xlink:title="&lt;TABLE&gt;" target="_parent">
<g id="a_edge26_25"><a xlink:href="#goToUserProductDetail" xlink:title="ユーザー製品詳細へ移動 (safe)" target="_parent">
<text text-anchor="start" x="222.2449" y="-480.8" font-family="Times,serif" font-size="13.00" fill="#00a86b">■</text>
<text text-anchor="start" x="231.9949" y="-480.8" font-family="Times,serif" font-size="13.00" fill="#000000"> goToUserProductDetail</text>
</a>
</g>
</a>
</g>
</g>
<!-- UserProfilePage&#45;&gt;UserHomePage -->
<g id="edge28" class="edge goToUserHome">
<title>UserProfilePage&#45;&gt;UserHomePage</title>
<g id="a_edge28"><a xlink:href="#goToUserHome" xlink:title="&lt;TABLE&gt;" target="_parent">
<path fill="none" stroke="#000000" stroke-width="1.5" d="M597.0203,-546.0201C611.8355,-551.3825 624.4884,-557.5588 629,-564 635.0961,-572.7034 631.28,-581.7864 623.9274,-589.8345"/>
<polygon fill="#000000" stroke="#000000" stroke-width="1.5" points="621.2861,-587.5122 616.3637,-596.8941 626.0623,-592.6295 621.2861,-587.5122"/>
</a>
</g>
<g id="a_edge28&#45;label"><a xlink:href="#goToUserHome" xlink:title="&lt;TABLE&gt;" target="_parent">
<g id="a_edge28_26"><a xlink:href="#goToUserHome" xlink:title="ユーザーホームへ移動 (safe)" target="_parent">
<text text-anchor="start" x="633.4619" y="-567.8" font-family="Times,serif" font-size="13.00" fill="#00a86b">■</text>
<text text-anchor="start" x="643.2119" y="-567.8" font-family="Times,serif" font-size="13.00" fill="#000000"> goToUserHome</text>
</a>
</g>
</a>
</g>
</g>
<!-- UserProfilePage&#45;&gt;UserProfilePage -->
<g id="edge29" class="edge doUpdateUserProfile">
<title>UserProfilePage&#45;&gt;UserProfilePage</title>
<g id="a_edge29"><a xlink:href="#doUpdateUserProfile" xlink:title="&lt;TABLE&gt;" target="_parent">
<path fill="none" stroke="#000000" stroke-width="1.5" d="M598.0254,-535.217C608.6354,-534.1381 615.8689,-531.7324 615.8689,-528 615.8689,-525.6089 612.9003,-523.7623 607.9771,-522.4603"/>
<polygon fill="#000000" stroke="#000000" stroke-width="1.5" points="608.468,-518.9937 598.0254,-520.783 607.3046,-525.8964 608.468,-518.9937"/>
</a>
</g>
<g id="a_edge29&#45;label"><a xlink:href="#doUpdateUserProfile" xlink:title="&lt;TABLE&gt;" target="_parent">
<g id="a_edge29_27"><a xlink:href="#doUpdateUserProfile" xlink:title="ユーザープロフィール更新 (idempotent)" target="_parent">
<text text-anchor="start" x="615.9771" y="-524.3" font-family="Times,serif" font-size="13.00" fill="#ffdc00">■</text>
<text text-anchor="start" x="625.7271" y="-524.3" font-family="Times,serif" font-size="13.00" fill="#000000"> doUpdateUserProfile</text>
</a>
</g>
</a>
</g>
</g>
<!-- UserReturnRefundPage&#45;&gt;UserOrderDetailPage -->
<g id="edge30" class="edge doRequestRefund">
<title>UserReturnRefundPage&#45;&gt;UserOrderDetailPage</title>
<g id="a_edge30"><a xlink:href="#doRequestRefund" xlink:title="&lt;TABLE&gt;" target="_parent">
<path fill="none" stroke="#000000" stroke-width="1.5" d="M304.677,-36.2251C297.2944,-40.8814 290.7137,-46.7099 286,-54 275.1406,-70.795 273.5381,-83.3571 286,-99 294.8841,-110.1518 321.6014,-118.1314 350.5352,-123.6966"/>
<polygon fill="#000000" stroke="#000000" stroke-width="1.5" points="349.945,-127.1466 360.4099,-125.4924 351.1976,-120.2595 349.945,-127.1466"/>
</a>
</g>
<g id="a_edge30&#45;label"><a xlink:href="#doRequestRefund" xlink:title="&lt;TABLE&gt;" target="_parent">
<g id="a_edge30_28"><a xlink:href="#doRequestRefund" xlink:title="払い戻しリクエスト (unsafe)" target="_parent">
<text text-anchor="start" x="286.5" y="-87.8" font-family="Times,serif" font-size="13.00" fill="#ff4136">■</text>
<text text-anchor="start" x="296.25" y="-87.8" font-family="Times,serif" font-size="13.00" fill="#000000"> doRequestRefund</text>
</a>
</g>
<g id="a_edge30_29"><a xlink:href="#doRequestReturn" xlink:title="返品リクエスト (unsafe)" target="_parent">
<text text-anchor="start" x="286.5" y="-72.8" font-family="Times,serif" font-size="13.00" fill="#ff4136">■</text>
<text text-anchor="start" x="296.25" y="-72.8" font-family="Times,serif" font-size="13.00" fill="#000000"> doRequestReturn</text>
</a>
</g>
<g id="a_edge30_30"><a xlink:href="#goToUserOrderDetail" xlink:title="ユーザー注文詳細へ移動 (safe)" target="_parent">
<text text-anchor="start" x="286.3084" y="-57.8" font-family="Times,serif" font-size="13.00" fill="#00a86b">■</text>
<text text-anchor="start" x="296.0584" y="-57.8" font-family="Times,serif" font-size="13.00" fill="#000000"> goToUserOrderDetail</text>
</a>
</g>
</a>
</g>
</g>
<!-- UserProductDetailPage&#45;&gt;UserCartPage -->
<g id="edge22" class="edge doAddToCart">
<title>UserProductDetailPage&#45;&gt;UserCartPage</title>
<g id="a_edge22"><a xlink:href="#doAddToCart" xlink:title="&lt;TABLE&gt;" target="_parent">
<path fill="none" stroke="#000000" stroke-width="1.5" d="M477.0073,-425.2799C501.5804,-419.5673 524.2378,-412.6221 534,-405 555.9593,-387.8547 569.5517,-358.561 577.1247,-336.8307"/>
<polygon fill="#000000" stroke="#000000" stroke-width="1.5" points="580.5075,-337.7462 580.2791,-327.1538 573.8522,-335.5766 580.5075,-337.7462"/>
</a>
</g>
<g id="a_edge22&#45;label"><a xlink:href="#doAddToCart" xlink:title="&lt;TABLE&gt;" target="_parent">
<g id="a_edge22_31"><a xlink:href="#doAddToCart" xlink:title="カートに追加 (unsafe)" target="_parent">
<text text-anchor="start" x="574.5" y="-379.3" font-family="Times,serif" font-size="13.00" fill="#ff4136">■</text>
<text text-anchor="start" x="584.25" y="-379.3" font-family="Times,serif" font-size="13.00" fill="#000000"> doAddToCart</text>
</a>
</g>
<g id="a_edge22_32"><a xlink:href="#goToUserCart" xlink:title="ユーザーカートへ移動 (safe)" target="_parent">
<text text-anchor="start" x="574.1555" y="-364.3" font-family="Times,serif" font-size="13.00" fill="#00a86b">■</text>
<text text-anchor="start" x="583.9055" y="-364.3" font-family="Times,serif" font-size="13.00" fill="#000000"> goToUserCart</text>
</a>
</g>
</a>
</g>
</g>
<!-- UserProductDetailPage&#45;&gt;UserProductListPage -->
<g id="edge23" class="edge goToUserProductList">
<title>UserProductDetailPage&#45;&gt;UserProductListPage</title>
<g id="a_edge23"><a xlink:href="#goToUserProductList" xlink:title="&lt;TABLE&gt;" target="_parent">
<path fill="none" stroke="#000000" stroke-width="1.5" d="M385.3335,-459.493C382.2331,-470.4413 376.6867,-483.7426 367,-492 358.4015,-499.3298 338.6661,-505.9082 316.5602,-511.3739"/>
<polygon fill="#000000" stroke="#000000" stroke-width="1.5" points="315.5445,-508.0175 306.6191,-513.7261 317.1563,-514.8294 315.5445,-508.0175"/>
</a>
</g>
<g id="a_edge23&#45;label"><a xlink:href="#goToUserProductList" xlink:title="&lt;TABLE&gt;" target="_parent">
<g id="a_edge23_33"><a xlink:href="#goToUserProductList" xlink:title="ユーザー製品リストへ移動 (safe)" target="_parent">
<text text-anchor="start" x="379.0156" y="-480.8" font-family="Times,serif" font-size="13.00" fill="#00a86b">■</text>
<text text-anchor="start" x="388.7656" y="-480.8" font-family="Times,serif" font-size="13.00" fill="#000000"> goToUserProductList</text>
</a>
</g>
</a>
</g>
</g>
<!-- UserReviewPage -->
<g id="node12" class="node">
<title>UserReviewPage</title>
<g id="a_node12"><a xlink:href="#UserReviewPage" xlink:title="UserReviewPage" target="_parent">
<polygon fill="#d3d3d3" stroke="#000000" stroke-width="2" points="399.4018,-327 258.5982,-327 258.5982,-291 399.4018,-291 399.4018,-327"/>
<text text-anchor="middle" x="329" y="-304.8" font-family="Times,serif" font-size="14.00" fill="#000000">UserReviewPage</text>
</a>
</g>
</g>
<!-- UserProductDetailPage&#45;&gt;UserReviewPage -->
<g id="edge24" class="edge goToUserReview">
<title>UserProductDetailPage&#45;&gt;UserReviewPage</title>
<g id="a_edge24"><a xlink:href="#goToUserReview" xlink:title="&lt;TABLE&gt;" target="_parent">
<path fill="none" stroke="#000000" stroke-width="1.5" d="M301.0139,-423.6802C283.8548,-418.5175 269.4662,-412.2626 264,-405 247.9639,-383.6938 250.4616,-367.9744 264,-345 266.5276,-340.7108 269.7703,-336.8966 273.4552,-333.5118"/>
<polygon fill="#000000" stroke="#000000" stroke-width="1.5" points="275.8498,-336.0815 281.5524,-327.1522 271.5261,-330.5764 275.8498,-336.0815"/>
</a>
</g>
<g id="a_edge24&#45;label"><a xlink:href="#goToUserReview" xlink:title="&lt;TABLE&gt;" target="_parent">
<g id="a_edge24_34"><a xlink:href="#goToUserReview" xlink:title="ユーザーレビューページへ移動 (safe)" target="_parent">
<text text-anchor="start" x="264.4917" y="-371.3" font-family="Times,serif" font-size="13.00" fill="#00a86b">■</text>
<text text-anchor="start" x="274.2417" y="-371.3" font-family="Times,serif" font-size="13.00" fill="#000000"> goToUserReview</text>
</a>
</g>
</a>
</g>
</g>
<!-- UserReviewPage&#45;&gt;UserProductDetailPage -->
<g id="edge31" class="edge doAddReview">
<title>UserReviewPage&#45;&gt;UserProductDetailPage</title>
<g id="a_edge31"><a xlink:href="#doAddReview" xlink:title="&lt;TABLE&gt;" target="_parent">
<path fill="none" stroke="#000000" stroke-width="1.5" d="M357.6375,-327.349C363.5484,-332.3946 369.1407,-338.3387 373,-345 384.9187,-365.5721 388.569,-392.5324 389.4396,-412.6433"/>
<polygon fill="#000000" stroke="#000000" stroke-width="1.5" points="385.9428,-412.8288 389.6714,-422.7458 392.9409,-412.6681 385.9428,-412.8288"/>
</a>
</g>
<g id="a_edge31&#45;label"><a xlink:href="#doAddReview" xlink:title="&lt;TABLE&gt;" target="_parent">
<g id="a_edge31_35"><a xlink:href="#doAddReview" xlink:title="レビュー追加 (unsafe)" target="_parent">
<text text-anchor="start" x="389.5" y="-394.3" font-family="Times,serif" font-size="13.00" fill="#ff4136">■</text>
<text text-anchor="start" x="399.25" y="-394.3" font-family="Times,serif" font-size="13.00" fill="#000000"> doAddReview</text>
</a>
</g>
<g id="a_edge31_36"><a xlink:href="#doDeleteReview" xlink:title="レビュー削除 (idempotent)" target="_parent">
<text text-anchor="start" x="389.5" y="-379.3" font-family="Times,serif" font-size="13.00" fill="#ffdc00">■</text>
<text text-anchor="start" x="399.25" y="-379.3" font-family="Times,serif" font-size="13.00" fill="#000000"> doDeleteReview</text>
</a>
</g>
<g id="a_edge31_37"><a xlink:href="#doUpdateReview" xlink:title="レビュー更新 (idempotent)" target="_parent">
<text text-anchor="start" x="389.5" y="-364.3" font-family="Times,serif" font-size="13.00" fill="#ffdc00">■</text>
<text text-anchor="start" x="399.25" y="-364.3" font-family="Times,serif" font-size="13.00" fill="#000000"> doUpdateReview</text>
</a>
</g>
<g id="a_edge31_38"><a xlink:href="#goToUserProductDetail" xlink:title="ユーザー製品詳細へ移動 (safe)" target="_parent">
<text text-anchor="start" x="389.2449" y="-349.3" font-family="Times,serif" font-size="13.00" fill="#00a86b">■</text>
<text text-anchor="start" x="398.9949" y="-349.3" font-family="Times,serif" font-size="13.00" fill="#000000"> goToUserProductDetail</text>
</a>
</g>
</a>
</g>
</g>
</g>
</svg>
