<?xml version="1.0" encoding="UTF-8" standalone="no"?>
<!DOCTYPE svg PUBLIC "-//W3C//DTD SVG 1.1//EN"
 "http://www.w3.org/Graphics/SVG/1.1/DTD/svg11.dtd">
<!-- Generated by graphviz version 2.40.1 (20161225.0304)
 -->
<!-- Title: application_state_diagram Pages: 1 -->
<svg width="1750pt" height="840pt"
 viewBox="0.00 0.00 1750.00 839.80" xmlns="http://www.w3.org/2000/svg" xmlns:xlink="http://www.w3.org/1999/xlink">
<g id="graph0" class="graph" transform="scale(1 1) rotate(0) translate(4 835.8)">
<title>application_state_diagram</title>
<g id="a_graph0"><a xlink:href="index.html" xlink:title="大規模マルチベンダーEコマースALPSプラットフォーム" target="_parent">
<polygon fill="#ffffff" stroke="transparent" points="-4,4 -4,-835.8 1746,-835.8 1746,4 -4,4"/>
<text text-anchor="middle" x="871" y="-815.2" font-family="Helvetica,sans-Serif" font-size="14.00" fill="#000000">大規模マルチベンダーEコマースALPSプラットフォーム</text>
</a>
</g>
<!-- LoginPage -->
<g id="node1" class="node">
<title>LoginPage</title>
<g id="a_node1"><a xlink:href="#LoginPage" xlink:title="ログインページ" target="_parent">
<polygon fill="#d3d3d3" stroke="#000000" stroke-width="2" points="855.6961,-807 720.3039,-807 720.3039,-771 855.6961,-771 855.6961,-807"/>
<text text-anchor="start" x="742.402" y="-784.8" font-family="Times,serif" font-size="14.00" fill="#000000">ログインページ</text>
</a>
</g>
</g>
<!-- RegisterPage -->
<g id="node2" class="node">
<title>RegisterPage</title>
<g id="a_node2"><a xlink:href="#RegisterPage" xlink:title="ユーザー登録ページ" target="_parent">
<polygon fill="#d3d3d3" stroke="#000000" stroke-width="2" points="807.6463,-720 614.3537,-720 614.3537,-684 807.6463,-684 807.6463,-720"/>
<text text-anchor="start" x="636.177" y="-697.8" font-family="Times,serif" font-size="14.00" fill="#000000">ユーザー登録ページ</text>
</a>
</g>
</g>
<!-- LoginPage&#45;&gt;RegisterPage -->
<g id="edge1" class="edge goToRegister">
<title>LoginPage&#45;&gt;RegisterPage</title>
<g id="a_edge1"><a xlink:href="#goToRegister" xlink:title="&lt;TABLE&gt;" target="_parent">
<path fill="none" stroke="#000000" stroke-width="1.5" d="M720.2545,-782.6477C657.4833,-776.0604 572.2836,-765.0514 562,-753 557.6726,-747.9287 557.8765,-743.2384 562,-738 568.4009,-729.8684 584.6647,-723.3549 604.2079,-718.2269"/>
<polygon fill="#000000" stroke="#000000" stroke-width="1.5" points="605.156,-721.5982 614.0363,-715.8198 603.4908,-714.7992 605.156,-721.5982"/>
</a>
</g>
<g id="a_edge1&#45;label"><a xlink:href="#goToRegister" xlink:title="&lt;TABLE&gt;" target="_parent">
<g id="a_edge1_0"><a xlink:href="#goToRegister" xlink:title="登録ページへ移動 (safe)" target="_parent">
<text text-anchor="start" x="562.1427" y="-741.8" font-family="Times,serif" font-size="13.00" fill="#00a86b">■</text>
<text text-anchor="start" x="571.8927" y="-741.8" font-family="Times,serif" font-size="13.00" fill="#000000"> 登録ページへ移動</text>
</a>
</g>
</a>
</g>
</g>
<!-- UserHomePage -->
<g id="node3" class="node">
<title>UserHomePage</title>
<g id="a_node3"><a xlink:href="#UserHomePage" xlink:title="ユーザーホームページ" target="_parent">
<polygon fill="#d3d3d3" stroke="#000000" stroke-width="2" points="966.1272,-633 763.8728,-633 763.8728,-597 966.1272,-597 966.1272,-633"/>
<text text-anchor="start" x="785.9364" y="-610.8" font-family="Times,serif" font-size="14.00" fill="#000000">ユーザーホームページ</text>
</a>
</g>
</g>
<!-- LoginPage&#45;&gt;UserHomePage -->
<g id="edge2" class="edge doLogin">
<title>LoginPage&#45;&gt;UserHomePage</title>
<g id="a_edge2"><a xlink:href="#doLogin" xlink:title="&lt;TABLE&gt;" target="_parent">
<path fill="none" stroke="#000000" stroke-width="1.5" d="M832.473,-770.891C839.6981,-766.0889 846.3315,-760.1822 851,-753 872.3902,-720.0922 872.2186,-673.1504 869.27,-643.383"/>
<polygon fill="#000000" stroke="#000000" stroke-width="1.5" points="872.7236,-642.7801 868.0928,-633.2509 865.7704,-643.588 872.7236,-642.7801"/>
</a>
</g>
<g id="a_edge2&#45;label"><a xlink:href="#doLogin" xlink:title="&lt;TABLE&gt;" target="_parent">
<g id="a_edge2_1"><a xlink:href="#doLogin" xlink:title="ログイン (unsafe)" target="_parent">
<text text-anchor="start" x="870.5391" y="-698.3" font-family="Times,serif" font-size="13.00" fill="#ff4136">■</text>
<text text-anchor="start" x="880.2891" y="-698.3" font-family="Times,serif" font-size="13.00" fill="#000000"> ログイン</text>
</a>
</g>
</a>
</g>
</g>
<!-- RegisterPage&#45;&gt;LoginPage -->
<g id="edge3" class="edge goToLogin">
<title>RegisterPage&#45;&gt;LoginPage</title>
<g id="a_edge3"><a xlink:href="#goToLogin" xlink:title="&lt;TABLE&gt;" target="_parent">
<path fill="none" stroke="#000000" stroke-width="1.5" d="M706.8836,-720.3609C705.5947,-730.7313 705.8447,-743.4813 712,-753 714.8986,-757.4825 718.5195,-761.419 722.5973,-764.8739"/>
<polygon fill="#000000" stroke="#000000" stroke-width="1.5" points="720.7877,-767.8858 730.9323,-770.9414 724.9074,-762.2264 720.7877,-767.8858"/>
</a>
</g>
<g id="a_edge3&#45;label"><a xlink:href="#goToLogin" xlink:title="&lt;TABLE&gt;" target="_parent">
<g id="a_edge3_2"><a xlink:href="#goToLogin" xlink:title="ログインページへ移動 (safe)" target="_parent">
<text text-anchor="start" x="712.413" y="-741.8" font-family="Times,serif" font-size="13.00" fill="#00a86b">■</text>
<text text-anchor="start" x="722.163" y="-741.8" font-family="Times,serif" font-size="13.00" fill="#000000"> ログインページへ移動</text>
</a>
</g>
</a>
</g>
</g>
<!-- RegisterPage&#45;&gt;UserHomePage -->
<g id="edge4" class="edge doRegister">
<title>RegisterPage&#45;&gt;UserHomePage</title>
<g id="a_edge4"><a xlink:href="#doRegister" xlink:title="&lt;TABLE&gt;" target="_parent">
<path fill="none" stroke="#000000" stroke-width="1.5" d="M715.8694,-683.5519C719.6571,-672.6205 725.9911,-659.3212 736,-651 742.3668,-645.7068 755.175,-640.5725 770.3478,-635.9184"/>
<polygon fill="#000000" stroke="#000000" stroke-width="1.5" points="771.4437,-639.2447 780.0642,-633.0855 769.4843,-632.5245 771.4437,-639.2447"/>
</a>
</g>
<g id="a_edge4&#45;label"><a xlink:href="#doRegister" xlink:title="&lt;TABLE&gt;" target="_parent">
<g id="a_edge4_3"><a xlink:href="#doRegister" xlink:title="ユーザー登録 (unsafe)" target="_parent">
<text text-anchor="start" x="736.4016" y="-654.8" font-family="Times,serif" font-size="13.00" fill="#ff4136">■</text>
<text text-anchor="start" x="746.1516" y="-654.8" font-family="Times,serif" font-size="13.00" fill="#000000"> ユーザー登録</text>
</a>
</g>
</a>
</g>
</g>
<!-- UserHomePage&#45;&gt;LoginPage -->
<g id="edge11" class="edge doLogout">
<title>UserHomePage&#45;&gt;LoginPage</title>
<g id="a_edge11"><a xlink:href="#doLogout" xlink:title="&lt;TABLE&gt;" target="_parent">
<path fill="none" stroke="#000000" stroke-width="1.5" d="M891.9614,-633.3369C919.0108,-654.098 954.12,-689.0631 935,-720 919.4876,-745.0995 892.0894,-761.2089 865.1165,-771.4839"/>
<polygon fill="#000000" stroke="#000000" stroke-width="1.5" points="863.8526,-768.2188 855.6138,-774.8802 866.2084,-774.8105 863.8526,-768.2188"/>
</a>
</g>
<g id="a_edge11&#45;label"><a xlink:href="#doLogout" xlink:title="&lt;TABLE&gt;" target="_parent">
<g id="a_edge11_4"><a xlink:href="#doLogout" xlink:title="ログアウト (safe)" target="_parent">
<text text-anchor="start" x="940.3306" y="-698.3" font-family="Times,serif" font-size="13.00" fill="#00a86b">■</text>
<text text-anchor="start" x="950.0806" y="-698.3" font-family="Times,serif" font-size="13.00" fill="#000000"> ログアウト</text>
</a>
</g>
</a>
</g>
</g>
<!-- UserCartPage -->
<g id="node4" class="node">
<title>UserCartPage</title>
<g id="a_node4"><a xlink:href="#UserCartPage" xlink:title="ユーザーカートページ" target="_parent">
<polygon fill="#d3d3d3" stroke="#000000" stroke-width="2" points="1114.6275,-327 909.3725,-327 909.3725,-291 1114.6275,-291 1114.6275,-327"/>
<text text-anchor="start" x="931.1864" y="-304.8" font-family="Times,serif" font-size="14.00" fill="#000000">ユーザーカートページ</text>
</a>
</g>
</g>
<!-- UserHomePage&#45;&gt;UserCartPage -->
<g id="edge12" class="edge goToUserCart">
<title>UserHomePage&#45;&gt;UserCartPage</title>
<g id="a_edge12"><a xlink:href="#goToUserCart" xlink:title="&lt;TABLE&gt;" target="_parent">
<path fill="none" stroke="#000000" stroke-width="1.5" d="M966.3804,-606.7818C1039.2793,-600.0338 1127.0946,-589.8504 1141,-579 1178.4578,-549.7716 1190.7141,-521.0862 1173,-477 1147.8652,-414.4455 1087.0851,-362.0568 1047.8126,-333.1619"/>
<polygon fill="#000000" stroke="#000000" stroke-width="1.5" points="1049.4528,-330.0293 1039.2958,-327.0148 1045.356,-335.7053 1049.4528,-330.0293"/>
</a>
</g>
<g id="a_edge12&#45;label"><a xlink:href="#goToUserCart" xlink:title="&lt;TABLE&gt;" target="_parent">
<g id="a_edge12_5"><a xlink:href="#goToUserCart" xlink:title="ユーザーカートへ移動 (safe)" target="_parent">
<text text-anchor="start" x="1177.2567" y="-480.8" font-family="Times,serif" font-size="13.00" fill="#00a86b">■</text>
<text text-anchor="start" x="1187.0067" y="-480.8" font-family="Times,serif" font-size="13.00" fill="#000000"> ユーザーカートへ移動</text>
</a>
</g>
</a>
</g>
</g>
<!-- UserOrderHistoryPage -->
<g id="node7" class="node">
<title>UserOrderHistoryPage</title>
<g id="a_node7"><a xlink:href="#UserOrderHistoryPage" xlink:title="ユーザー注文履歴ページ" target="_parent">
<polygon fill="#d3d3d3" stroke="#000000" stroke-width="2" points="1386.2001,-36 1169.7999,-36 1169.7999,0 1386.2001,0 1386.2001,-36"/>
<text text-anchor="start" x="1191.9" y="-13.8" font-family="Times,serif" font-size="14.00" fill="#000000">ユーザー注文履歴ページ</text>
</a>
</g>
</g>
<!-- UserHomePage&#45;&gt;UserOrderHistoryPage -->
<g id="edge13" class="edge goToUserOrderHistory">
<title>UserHomePage&#45;&gt;UserOrderHistoryPage</title>
<g id="a_edge13"><a xlink:href="#goToUserOrderHistory" xlink:title="&lt;TABLE&gt;" target="_parent">
<path fill="none" stroke="#000000" stroke-width="1.5" d="M966.2406,-612.7504C1161.0518,-607.0655 1569,-587.9981 1569,-528 1569,-528 1569,-528 1569,-135 1569,-92.7051 1461.8405,-58.6573 1377.5772,-38.4223"/>
<polygon fill="#000000" stroke="#000000" stroke-width="1.5" points="1378.221,-34.9781 1367.6841,-36.0841 1376.6109,-41.7904 1378.221,-34.9781"/>
</a>
</g>
<g id="a_edge13&#45;label"><a xlink:href="#goToUserOrderHistory" xlink:title="&lt;TABLE&gt;" target="_parent">
<g id="a_edge13_6"><a xlink:href="#goToUserOrderHistory" xlink:title="ユーザー注文履歴へ移動 (safe)" target="_parent">
<text text-anchor="start" x="1569.3479" y="-305.3" font-family="Times,serif" font-size="13.00" fill="#00a86b">■</text>
<text text-anchor="start" x="1579.0979" y="-305.3" font-family="Times,serif" font-size="13.00" fill="#000000"> ユーザー注文履歴へ移動</text>
</a>
</g>
</a>
</g>
</g>
<!-- UserProductListPage -->
<g id="node8" class="node">
<title>UserProductListPage</title>
<g id="a_node8"><a xlink:href="#UserProductListPage" xlink:title="ユーザー製品リストページ" target="_parent">
<polygon fill="#d3d3d3" stroke="#000000" stroke-width="2" points="440.609,-546 203.391,-546 203.391,-510 440.609,-510 440.609,-546"/>
<text text-anchor="start" x="225.4455" y="-523.8" font-family="Times,serif" font-size="14.00" fill="#000000">ユーザー製品リストページ</text>
</a>
</g>
</g>
<!-- UserHomePage&#45;&gt;UserProductListPage -->
<g id="edge14" class="edge goToUserProductList">
<title>UserHomePage&#45;&gt;UserProductListPage</title>
<g id="a_edge14"><a xlink:href="#goToUserProductList" xlink:title="&lt;TABLE&gt;" target="_parent">
<path fill="none" stroke="#000000" stroke-width="1.5" d="M763.6995,-613.2583C622.9755,-610.037 381.7216,-601.3074 348,-579 339.7215,-573.5236 333.9451,-564.5578 329.9785,-555.6587"/>
<polygon fill="#000000" stroke="#000000" stroke-width="1.5" points="333.1991,-554.2818 326.352,-546.1969 326.6628,-556.7871 333.1991,-554.2818"/>
</a>
</g>
<g id="a_edge14&#45;label"><a xlink:href="#goToUserProductList" xlink:title="&lt;TABLE&gt;" target="_parent">
<g id="a_edge14_7"><a xlink:href="#goToUserProductList" xlink:title="ユーザー製品リストへ移動 (safe)" target="_parent">
<text text-anchor="start" x="347.6401" y="-567.8" font-family="Times,serif" font-size="13.00" fill="#00a86b">■</text>
<text text-anchor="start" x="357.3901" y="-567.8" font-family="Times,serif" font-size="13.00" fill="#000000"> ユーザー製品リストへ移動</text>
</a>
</g>
</a>
</g>
</g>
<!-- UserProfilePage -->
<g id="node9" class="node">
<title>UserProfilePage</title>
<g id="a_node9"><a xlink:href="#UserProfilePage" xlink:title="ユーザープロフィールページ" target="_parent">
<polygon fill="#d3d3d3" stroke="#000000" stroke-width="2" points="931.3756,-546 688.6244,-546 688.6244,-510 931.3756,-510 931.3756,-546"/>
<text text-anchor="start" x="710.5622" y="-523.8" font-family="Times,serif" font-size="14.00" fill="#000000">ユーザープロフィールページ</text>
</a>
</g>
</g>
<!-- UserHomePage&#45;&gt;UserProfilePage -->
<g id="edge15" class="edge goToUserProfile">
<title>UserHomePage&#45;&gt;UserProfilePage</title>
<g id="a_edge15"><a xlink:href="#goToUserProfile" xlink:title="&lt;TABLE&gt;" target="_parent">
<path fill="none" stroke="#000000" stroke-width="1.5" d="M789.3006,-596.9871C773.848,-591.7694 760.8159,-585.6624 756,-579 749.0854,-569.4343 754.0186,-560.1892 763.2113,-552.2583"/>
<polygon fill="#000000" stroke="#000000" stroke-width="1.5" points="765.4202,-554.9773 771.3519,-546.1986 761.2404,-549.3622 765.4202,-554.9773"/>
</a>
</g>
<g id="a_edge15&#45;label"><a xlink:href="#goToUserProfile" xlink:title="&lt;TABLE&gt;" target="_parent">
<g id="a_edge15_8"><a xlink:href="#goToUserProfile" xlink:title="ユーザープロフィールへ移動 (safe)" target="_parent">
<text text-anchor="start" x="755.9628" y="-567.8" font-family="Times,serif" font-size="13.00" fill="#00a86b">■</text>
<text text-anchor="start" x="765.7128" y="-567.8" font-family="Times,serif" font-size="13.00" fill="#000000"> ユーザープロフィールへ移動</text>
</a>
</g>
</a>
</g>
</g>
<!-- UserCartPage&#45;&gt;UserHomePage -->
<g id="edge7" class="edge goToUserHome">
<title>UserCartPage&#45;&gt;UserHomePage</title>
<g id="a_edge7"><a xlink:href="#goToUserHome" xlink:title="&lt;TABLE&gt;" target="_parent">
<path fill="none" stroke="#000000" stroke-width="1.5" d="M1009.2579,-327.0688C1003.4283,-368.3472 991.9748,-467.8638 1013,-492 1049.8676,-534.3226 1101.2482,-467.5768 1138,-510 1148.4765,-522.0931 1141.581,-530.4059 1138,-546 1134.3519,-561.8862 1135.1777,-569.4069 1122,-579 1098.7151,-595.9509 1034.5855,-604.9497 976.2169,-609.7114"/>
<polygon fill="#000000" stroke="#000000" stroke-width="1.5" points="975.8514,-606.2292 966.1537,-610.496 976.3956,-613.208 975.8514,-606.2292"/>
</a>
</g>
<g id="a_edge7&#45;label"><a xlink:href="#goToUserHome" xlink:title="&lt;TABLE&gt;" target="_parent">
<g id="a_edge7_9"><a xlink:href="#goToUserHome" xlink:title="ユーザーホームへ移動 (safe)" target="_parent">
<text text-anchor="start" x="1012.8817" y="-480.8" font-family="Times,serif" font-size="13.00" fill="#00a86b">■</text>
<text text-anchor="start" x="1022.6317" y="-480.8" font-family="Times,serif" font-size="13.00" fill="#000000"> ユーザーホームへ移動</text>
</a>
</g>
</a>
</g>
</g>
<!-- UserCartPage&#45;&gt;UserCartPage -->
<g id="edge5" class="edge doRemoveCartItem">
<title>UserCartPage&#45;&gt;UserCartPage</title>
<g id="a_edge5"><a xlink:href="#doRemoveCartItem" xlink:title="&lt;TABLE&gt;" target="_parent">
<path fill="none" stroke="#000000" stroke-width="1.5" d="M1114.6789,-315.5753C1125.715,-314.309 1132.8136,-312.1172 1132.8136,-309 1132.8136,-307.0031 1129.9003,-305.3859 1124.9049,-304.1485"/>
<polygon fill="#000000" stroke="#000000" stroke-width="1.5" points="1125.1216,-300.6358 1114.6789,-302.4247 1123.958,-307.5384 1125.1216,-300.6358"/>
</a>
</g>
<g id="a_edge5&#45;label"><a xlink:href="#doRemoveCartItem" xlink:title="&lt;TABLE&gt;" target="_parent">
<g id="a_edge5_10"><a xlink:href="#doRemoveCartItem" xlink:title="カート内アイテム削除 (idempotent)" target="_parent">
<text text-anchor="start" x="1133.1093" y="-313.3" font-family="Times,serif" font-size="13.00" fill="#ffdc00">■</text>
<text text-anchor="start" x="1142.8593" y="-313.3" font-family="Times,serif" font-size="13.00" fill="#000000"> カート内アイテム削除</text>
</a>
</g>
<g id="a_edge5_11"><a xlink:href="#doUpdateCartItem" xlink:title="カート内アイテム更新 (idempotent)" target="_parent">
<text text-anchor="start" x="1133.3136" y="-298.3" font-family="Times,serif" font-size="13.00" fill="#ffdc00">■</text>
<text text-anchor="start" x="1143.0636" y="-298.3" font-family="Times,serif" font-size="13.00" fill="#000000"> カート内アイテム更新</text>
</a>
</g>
</a>
</g>
</g>
<!-- UserCheckoutPage -->
<g id="node5" class="node">
<title>UserCheckoutPage</title>
<g id="a_node5"><a xlink:href="#UserCheckoutPage" xlink:title="ユーザーチェックアウトページ" target="_parent">
<polygon fill="#d3d3d3" stroke="#000000" stroke-width="2" points="909.8602,-240 660.1398,-240 660.1398,-204 909.8602,-204 909.8602,-240"/>
<text text-anchor="start" x="682.0699" y="-217.8" font-family="Times,serif" font-size="14.00" fill="#000000">ユーザーチェックアウトページ</text>
</a>
</g>
</g>
<!-- UserCartPage&#45;&gt;UserCheckoutPage -->
<g id="edge6" class="edge goToUserCheckout">
<title>UserCartPage&#45;&gt;UserCheckoutPage</title>
<g id="a_edge6"><a xlink:href="#goToUserCheckout" xlink:title="&lt;TABLE&gt;" target="_parent">
<path fill="none" stroke="#000000" stroke-width="1.5" d="M909.0822,-298.6527C853.522,-292.0115 794.5427,-282.8147 786,-273 780.6037,-266.8002 778.9888,-258.3923 779.1227,-250.1924"/>
<polygon fill="#000000" stroke="#000000" stroke-width="1.5" points="782.6201,-250.3833 780.0746,-240.0988 775.6511,-249.726 782.6201,-250.3833"/>
</a>
</g>
<g id="a_edge6&#45;label"><a xlink:href="#goToUserCheckout" xlink:title="&lt;TABLE&gt;" target="_parent">
<g id="a_edge6_12"><a xlink:href="#goToUserCheckout" xlink:title="ユーザーチェックアウトへ移動 (safe)" target="_parent">
<text text-anchor="start" x="785.7199" y="-261.8" font-family="Times,serif" font-size="13.00" fill="#00a86b">■</text>
<text text-anchor="start" x="795.4699" y="-261.8" font-family="Times,serif" font-size="13.00" fill="#000000"> ユーザーチェックアウトへ移動</text>
</a>
</g>
</a>
</g>
</g>
<!-- UserCheckoutPage&#45;&gt;UserHomePage -->
<g id="edge9" class="edge goToUserHome">
<title>UserCheckoutPage&#45;&gt;UserHomePage</title>
<g id="a_edge9"><a xlink:href="#goToUserHome" xlink:title="&lt;TABLE&gt;" target="_parent">
<path fill="none" stroke="#000000" stroke-width="1.5" d="M660.0854,-227.4832C481.6219,-237.0171 175,-260.4603 175,-309 175,-528 175,-528 175,-528 175,-585.6324 558.8123,-605.6915 753.926,-612.1653"/>
<polygon fill="#000000" stroke="#000000" stroke-width="1.5" points="753.8206,-615.6637 763.9291,-612.4908 754.0483,-608.6674 753.8206,-615.6637"/>
</a>
</g>
<g id="a_edge9&#45;label"><a xlink:href="#goToUserHome" xlink:title="&lt;TABLE&gt;" target="_parent">
<g id="a_edge9_13"><a xlink:href="#goToUserHome" xlink:title="ユーザーホームへ移動 (safe)" target="_parent">
<text text-anchor="start" x="174.8816" y="-437.3" font-family="Times,serif" font-size="13.00" fill="#00a86b">■</text>
<text text-anchor="start" x="184.6316" y="-437.3" font-family="Times,serif" font-size="13.00" fill="#000000"> ユーザーホームへ移動</text>
</a>
</g>
</a>
</g>
</g>
<!-- UserCheckoutPage&#45;&gt;UserCartPage -->
<g id="edge8" class="edge goToUserCart">
<title>UserCheckoutPage&#45;&gt;UserCartPage</title>
<g id="a_edge8"><a xlink:href="#goToUserCart" xlink:title="&lt;TABLE&gt;" target="_parent">
<path fill="none" stroke="#000000" stroke-width="1.5" d="M910.0075,-234.1372C944.6627,-239.6175 976.497,-247.331 990,-258 997.4213,-263.8637 1002.3853,-272.721 1005.6856,-281.4171"/>
<polygon fill="#000000" stroke="#000000" stroke-width="1.5" points="1002.3695,-282.5384 1008.7472,-290.9987 1009.0374,-280.4078 1002.3695,-282.5384"/>
</a>
</g>
<g id="a_edge8&#45;label"><a xlink:href="#goToUserCart" xlink:title="&lt;TABLE&gt;" target="_parent">
<g id="a_edge8_14"><a xlink:href="#goToUserCart" xlink:title="ユーザーカートへ移動 (safe)" target="_parent">
<text text-anchor="start" x="1001.2567" y="-261.8" font-family="Times,serif" font-size="13.00" fill="#00a86b">■</text>
<text text-anchor="start" x="1011.0067" y="-261.8" font-family="Times,serif" font-size="13.00" fill="#000000"> ユーザーカートへ移動</text>
</a>
</g>
</a>
</g>
</g>
<!-- UserOrderDetailPage -->
<g id="node6" class="node">
<title>UserOrderDetailPage</title>
<g id="a_node6"><a xlink:href="#UserOrderDetailPage" xlink:title="ユーザー注文詳細ページ" target="_parent">
<polygon fill="#d3d3d3" stroke="#000000" stroke-width="2" points="899.611,-153 684.389,-153 684.389,-117 899.611,-117 899.611,-153"/>
<text text-anchor="start" x="706.1947" y="-130.8" font-family="Times,serif" font-size="14.00" fill="#000000">ユーザー注文詳細ページ</text>
</a>
</g>
</g>
<!-- UserCheckoutPage&#45;&gt;UserOrderDetailPage -->
<g id="edge10" class="edge doPlaceOrder">
<title>UserCheckoutPage&#45;&gt;UserOrderDetailPage</title>
<g id="a_edge10"><a xlink:href="#doPlaceOrder" xlink:title="&lt;TABLE&gt;" target="_parent">
<path fill="none" stroke="#000000" stroke-width="1.5" d="M786.4504,-203.9735C787.3984,-192.1918 788.656,-176.5607 789.7344,-163.1581"/>
<polygon fill="#000000" stroke="#000000" stroke-width="1.5" points="793.2381,-163.2519 790.5515,-153.0034 786.2606,-162.6904 793.2381,-163.2519"/>
</a>
</g>
<g id="a_edge10&#45;label"><a xlink:href="#doPlaceOrder" xlink:title="&lt;TABLE&gt;" target="_parent">
<g id="a_edge10_15"><a xlink:href="#doPlaceOrder" xlink:title="注文確定 (unsafe)" target="_parent">
<text text-anchor="start" x="788.7125" y="-174.8" font-family="Times,serif" font-size="13.00" fill="#ff4136">■</text>
<text text-anchor="start" x="798.4625" y="-174.8" font-family="Times,serif" font-size="13.00" fill="#000000"> 注文確定</text>
</a>
</g>
</a>
</g>
</g>
<!-- UserOrderDetailPage&#45;&gt;UserHomePage -->
<g id="edge16" class="edge goToUserHome">
<title>UserOrderDetailPage&#45;&gt;UserHomePage</title>
<g id="a_edge16"><a xlink:href="#goToUserHome" xlink:title="&lt;TABLE&gt;" target="_parent">
<path fill="none" stroke="#000000" stroke-width="1.5" d="M684.3631,-141.3567C467.8156,-154.8637 0,-187.9802 0,-222 0,-528 0,-528 0,-528 0,-638.353 133.612,-564.4381 243,-579 338.445,-591.7058 601.9639,-604.1504 753.6224,-610.5521"/>
<polygon fill="#000000" stroke="#000000" stroke-width="1.5" points="753.7576,-614.0607 763.8958,-610.9837 754.0515,-607.0669 753.7576,-614.0607"/>
</a>
</g>
<g id="a_edge16&#45;label"><a xlink:href="#goToUserHome" xlink:title="&lt;TABLE&gt;" target="_parent">
<g id="a_edge16_16"><a xlink:href="#goToUserHome" xlink:title="ユーザーホームへ移動 (safe)" target="_parent">
<text text-anchor="start" x="-.1184" y="-371.3" font-family="Times,serif" font-size="13.00" fill="#00a86b">■</text>
<text text-anchor="start" x="9.6316" y="-371.3" font-family="Times,serif" font-size="13.00" fill="#000000"> ユーザーホームへ移動</text>
</a>
</g>
</a>
</g>
</g>
<!-- UserOrderDetailPage&#45;&gt;UserOrderHistoryPage -->
<g id="edge17" class="edge goToUserOrderHistory">
<title>UserOrderDetailPage&#45;&gt;UserOrderHistoryPage</title>
<g id="a_edge17"><a xlink:href="#goToUserOrderHistory" xlink:title="&lt;TABLE&gt;" target="_parent">
<path fill="none" stroke="#000000" stroke-width="1.5" d="M900.0139,-129.6589C1001.3685,-123.8172 1140.5331,-113.3396 1162,-99 1180.8483,-86.4096 1169.0628,-69.0635 1186,-54 1191.7673,-48.8708 1198.3497,-44.4324 1205.2825,-40.6005"/>
<polygon fill="#000000" stroke="#000000" stroke-width="1.5" points="1206.8842,-43.7126 1214.2164,-36.0648 1203.7153,-37.471 1206.8842,-43.7126"/>
</a>
</g>
<g id="a_edge17&#45;label"><a xlink:href="#goToUserOrderHistory" xlink:title="&lt;TABLE&gt;" target="_parent">
<g id="a_edge17_17"><a xlink:href="#goToUserOrderHistory" xlink:title="ユーザー注文履歴へ移動 (safe)" target="_parent">
<text text-anchor="start" x="1186.3479" y="-72.8" font-family="Times,serif" font-size="13.00" fill="#00a86b">■</text>
<text text-anchor="start" x="1196.0979" y="-72.8" font-family="Times,serif" font-size="13.00" fill="#000000"> ユーザー注文履歴へ移動</text>
</a>
</g>
</a>
</g>
</g>
<!-- UserReturnRefundPage -->
<g id="node10" class="node">
<title>UserReturnRefundPage</title>
<g id="a_node10"><a xlink:href="#UserReturnRefundPage" xlink:title="返品/払い戻しページ" target="_parent">
<polygon fill="#d3d3d3" stroke="#000000" stroke-width="2" points="779.6315,-36 612.3685,-36 612.3685,0 779.6315,0 779.6315,-36"/>
<text text-anchor="start" x="634.4343" y="-13.8" font-family="Times,serif" font-size="14.00" fill="#000000">返品/払い戻しページ</text>
</a>
</g>
</g>
<!-- UserOrderDetailPage&#45;&gt;UserReturnRefundPage -->
<g id="edge18" class="edge goToUserReturnRefund">
<title>UserOrderDetailPage&#45;&gt;UserReturnRefundPage</title>
<g id="a_edge18"><a xlink:href="#goToUserReturnRefund" xlink:title="&lt;TABLE&gt;" target="_parent">
<path fill="none" stroke="#000000" stroke-width="1.5" d="M791.5858,-116.9434C790.2793,-99.1026 785.7682,-71.9493 771,-54 767.1788,-49.3557 762.6164,-45.2698 757.6549,-41.6835"/>
<polygon fill="#000000" stroke="#000000" stroke-width="1.5" points="759.2928,-38.5755 748.9889,-36.1094 755.5059,-44.4628 759.2928,-38.5755"/>
</a>
</g>
<g id="a_edge18&#45;label"><a xlink:href="#goToUserReturnRefund" xlink:title="&lt;TABLE&gt;" target="_parent">
<g id="a_edge18_18"><a xlink:href="#goToUserReturnRefund" xlink:title="返品/払い戻しページへ移動 (safe)" target="_parent">
<text text-anchor="start" x="789.5858" y="-72.8" font-family="Times,serif" font-size="13.00" fill="#00a86b">■</text>
<text text-anchor="start" x="799.3358" y="-72.8" font-family="Times,serif" font-size="13.00" fill="#000000"> 返品/払い戻しページへ移動</text>
</a>
</g>
</a>
</g>
</g>
<!-- UserOrderHistoryPage&#45;&gt;UserHomePage -->
<g id="edge19" class="edge goToUserHome">
<title>UserOrderHistoryPage&#45;&gt;UserHomePage</title>
<g id="a_edge19"><a xlink:href="#goToUserHome" xlink:title="&lt;TABLE&gt;" target="_parent">
<path fill="none" stroke="#000000" stroke-width="1.5" d="M1337.7582,-36.1857C1345.8612,-40.8693 1353.3253,-46.7163 1359,-54 1381.4531,-82.8197 1373,-98.4662 1373,-135 1373,-528 1373,-528 1373,-528 1373,-567.9349 1125.957,-594.4807 976.4248,-606.8908"/>
<polygon fill="#000000" stroke="#000000" stroke-width="1.5" points="975.9561,-603.4174 966.276,-607.7238 976.5288,-610.3939 975.9561,-603.4174"/>
</a>
</g>
<g id="a_edge19&#45;label"><a xlink:href="#goToUserHome" xlink:title="&lt;TABLE&gt;" target="_parent">
<g id="a_edge19_19"><a xlink:href="#goToUserHome" xlink:title="ユーザーホームへ移動 (safe)" target="_parent">
<text text-anchor="start" x="1372.8817" y="-305.3" font-family="Times,serif" font-size="13.00" fill="#00a86b">■</text>
<text text-anchor="start" x="1382.6317" y="-305.3" font-family="Times,serif" font-size="13.00" fill="#000000"> ユーザーホームへ移動</text>
</a>
</g>
</a>
</g>
</g>
<!-- UserOrderHistoryPage&#45;&gt;UserOrderDetailPage -->
<g id="edge20" class="edge goToUserOrderDetail">
<title>UserOrderHistoryPage&#45;&gt;UserOrderDetailPage</title>
<g id="a_edge20"><a xlink:href="#goToUserOrderDetail" xlink:title="&lt;TABLE&gt;" target="_parent">
<path fill="none" stroke="#000000" stroke-width="1.5" d="M1169.5237,-26.5234C1092.9146,-33.3611 1001.2634,-43.5184 986,-54 967.3149,-66.8314 980.1162,-85.3772 962,-99 952.5059,-106.1392 932.7661,-112.2928 909.9825,-117.3915"/>
<polygon fill="#000000" stroke="#000000" stroke-width="1.5" points="909.1014,-114.0007 900.0528,-119.5119 910.5632,-120.8464 909.1014,-114.0007"/>
</a>
</g>
<g id="a_edge20&#45;label"><a xlink:href="#goToUserOrderDetail" xlink:title="&lt;TABLE&gt;" target="_parent">
<g id="a_edge20_20"><a xlink:href="#goToUserOrderDetail" xlink:title="ユーザー注文詳細へ移動 (safe)" target="_parent">
<text text-anchor="start" x="985.6215" y="-72.8" font-family="Times,serif" font-size="13.00" fill="#00a86b">■</text>
<text text-anchor="start" x="995.3715" y="-72.8" font-family="Times,serif" font-size="13.00" fill="#000000"> ユーザー注文詳細へ移動</text>
</a>
</g>
</a>
</g>
</g>
<!-- UserOrderHistoryPage&#45;&gt;UserOrderHistoryPage -->
<g id="edge21" class="edge doPaginateOrders">
<title>UserOrderHistoryPage&#45;&gt;UserOrderHistoryPage</title>
<g id="a_edge21"><a xlink:href="#doPaginateOrders" xlink:title="&lt;TABLE&gt;" target="_parent">
<path fill="none" stroke="#000000" stroke-width="1.5" d="M1386.5165,-26.8671C1397.2642,-25.0905 1404.1,-22.1348 1404.1,-18 1404.1,-15.3512 1401.2946,-13.1862 1396.4525,-11.5052"/>
<polygon fill="#000000" stroke="#000000" stroke-width="1.5" points="1397.0559,-8.0509 1386.5165,-9.1329 1395.4303,-14.8595 1397.0559,-8.0509"/>
</a>
</g>
<g id="a_edge21&#45;label"><a xlink:href="#doPaginateOrders" xlink:title="&lt;TABLE&gt;" target="_parent">
<g id="a_edge21_21"><a xlink:href="#doPaginateOrders" xlink:title="注文リストのページネーション (safe)" target="_parent">
<text text-anchor="start" x="1404.2187" y="-14.3" font-family="Times,serif" font-size="13.00" fill="#00a86b">■</text>
<text text-anchor="start" x="1413.9687" y="-14.3" font-family="Times,serif" font-size="13.00" fill="#000000"> 注文リストのページネーション</text>
</a>
</g>
</a>
</g>
</g>
<!-- UserProductListPage&#45;&gt;UserHomePage -->
<g id="edge25" class="edge goToUserHome">
<title>UserProductListPage&#45;&gt;UserHomePage</title>
<g id="a_edge25"><a xlink:href="#goToUserHome" xlink:title="&lt;TABLE&gt;" target="_parent">
<path fill="none" stroke="#000000" stroke-width="1.5" d="M440.8003,-544.67C473.1497,-550.0092 508.0688,-556.5113 540,-564 562.1737,-569.2003 566.7412,-574.1769 589,-579 642.6834,-590.6322 703.1097,-599.0322 753.7064,-604.7769"/>
<polygon fill="#000000" stroke="#000000" stroke-width="1.5" points="753.3633,-608.2603 763.6898,-605.8906 754.1395,-601.3034 753.3633,-608.2603"/>
</a>
</g>
<g id="a_edge25&#45;label"><a xlink:href="#goToUserHome" xlink:title="&lt;TABLE&gt;" target="_parent">
<g id="a_edge25_22"><a xlink:href="#goToUserHome" xlink:title="ユーザーホームへ移動 (safe)" target="_parent">
<text text-anchor="start" x="588.8817" y="-567.8" font-family="Times,serif" font-size="13.00" fill="#00a86b">■</text>
<text text-anchor="start" x="598.6317" y="-567.8" font-family="Times,serif" font-size="13.00" fill="#000000"> ユーザーホームへ移動</text>
</a>
</g>
</a>
</g>
</g>
<!-- UserProductListPage&#45;&gt;UserProductListPage -->
<g id="edge27" class="edge doPaginateProducts">
<title>UserProductListPage&#45;&gt;UserProductListPage</title>
<g id="a_edge27"><a xlink:href="#doPaginateProducts" xlink:title="&lt;TABLE&gt;" target="_parent">
<path fill="none" stroke="#000000" stroke-width="1.5" d="M440.9264,-534.2581C451.7479,-532.9571 458.5545,-530.8711 458.5545,-528 458.5545,-526.1607 455.7611,-524.6436 450.9082,-523.4487"/>
<polygon fill="#000000" stroke="#000000" stroke-width="1.5" points="451.3733,-519.9775 440.9264,-521.7419 450.1935,-526.8774 451.3733,-519.9775"/>
</a>
</g>
<g id="a_edge27&#45;label"><a xlink:href="#doPaginateProducts" xlink:title="&lt;TABLE&gt;" target="_parent">
<g id="a_edge27_23"><a xlink:href="#doPaginateProducts" xlink:title="製品リストのページネーション (safe)" target="_parent">
<text text-anchor="start" x="458.0774" y="-532.3" font-family="Times,serif" font-size="13.00" fill="#00a86b">■</text>
<text text-anchor="start" x="467.8274" y="-532.3" font-family="Times,serif" font-size="13.00" fill="#000000"> 製品リストのページネーション</text>
</a>
</g>
<g id="a_edge27_24"><a xlink:href="#doSearchProducts" xlink:title="製品検索 (safe)" target="_parent">
<text text-anchor="start" x="458.5545" y="-517.3" font-family="Times,serif" font-size="13.00" fill="#00a86b">■</text>
<text text-anchor="start" x="468.3045" y="-517.3" font-family="Times,serif" font-size="13.00" fill="#000000"> 製品検索</text>
</a>
</g>
</a>
</g>
</g>
<!-- UserProductDetailPage -->
<g id="node11" class="node">
<title>UserProductDetailPage</title>
<g id="a_node11"><a xlink:href="#UserProductDetailPage" xlink:title="ユーザー製品詳細ページ" target="_parent">
<polygon fill="#d3d3d3" stroke="#000000" stroke-width="2" points="641.6634,-459 414.3366,-459 414.3366,-423 641.6634,-423 641.6634,-459"/>
<text text-anchor="start" x="436.1684" y="-436.8" font-family="Times,serif" font-size="14.00" fill="#000000">ユーザー製品詳細ページ</text>
</a>
</g>
</g>
<!-- UserProductListPage&#45;&gt;UserProductDetailPage -->
<g id="edge26" class="edge goToUserProductDetail">
<title>UserProductListPage&#45;&gt;UserProductDetailPage</title>
<g id="a_edge26"><a xlink:href="#goToUserProductDetail" xlink:title="&lt;TABLE&gt;" target="_parent">
<path fill="none" stroke="#000000" stroke-width="1.5" d="M315.2609,-509.9971C312.49,-499.2332 311.4567,-485.9537 319,-477 325.3278,-469.4891 362.6858,-461.9855 404.1092,-455.7879"/>
<polygon fill="#000000" stroke="#000000" stroke-width="1.5" points="404.7472,-459.2319 414.1363,-454.3232 403.7354,-452.3054 404.7472,-459.2319"/>
</a>
</g>
<g id="a_edge26&#45;label"><a xlink:href="#goToUserProductDetail" xlink:title="&lt;TABLE&gt;" target="_parent">
<g id="a_edge26_25"><a xlink:href="#goToUserProductDetail" xlink:title="ユーザー製品詳細へ移動 (safe)" target="_parent">
<text text-anchor="start" x="319.0257" y="-480.8" font-family="Times,serif" font-size="13.00" fill="#00a86b">■</text>
<text text-anchor="start" x="328.7757" y="-480.8" font-family="Times,serif" font-size="13.00" fill="#000000"> ユーザー製品詳細へ移動</text>
</a>
</g>
</a>
</g>
</g>
<!-- UserProfilePage&#45;&gt;UserHomePage -->
<g id="edge28" class="edge goToUserHome">
<title>UserProfilePage&#45;&gt;UserHomePage</title>
<g id="a_edge28"><a xlink:href="#goToUserHome" xlink:title="&lt;TABLE&gt;" target="_parent">
<path fill="none" stroke="#000000" stroke-width="1.5" d="M918.4466,-546.035C934.9776,-550.8936 948.4098,-556.8402 954,-564 962.9046,-575.4048 957.1918,-584.7076 945.2431,-592.0938"/>
<polygon fill="#000000" stroke="#000000" stroke-width="1.5" points="943.3063,-589.1575 936.0777,-596.9034 946.559,-595.3559 943.3063,-589.1575"/>
</a>
</g>
<g id="a_edge28&#45;label"><a xlink:href="#goToUserHome" xlink:title="&lt;TABLE&gt;" target="_parent">
<g id="a_edge28_26"><a xlink:href="#goToUserHome" xlink:title="ユーザーホームへ移動 (safe)" target="_parent">
<text text-anchor="start" x="957.8817" y="-567.8" font-family="Times,serif" font-size="13.00" fill="#00a86b">■</text>
<text text-anchor="start" x="967.6317" y="-567.8" font-family="Times,serif" font-size="13.00" fill="#000000"> ユーザーホームへ移動</text>
</a>
</g>
</a>
</g>
</g>
<!-- UserProfilePage&#45;&gt;UserProfilePage -->
<g id="edge29" class="edge doUpdateUserProfile">
<title>UserProfilePage&#45;&gt;UserProfilePage</title>
<g id="a_edge29"><a xlink:href="#doUpdateUserProfile" xlink:title="&lt;TABLE&gt;" target="_parent">
<path fill="none" stroke="#000000" stroke-width="1.5" d="M931.4375,-534.2581C942.4875,-532.9571 949.4378,-530.8711 949.4378,-528 949.4378,-526.1607 946.5854,-524.6436 941.63,-523.4487"/>
<polygon fill="#000000" stroke="#000000" stroke-width="1.5" points="941.8783,-519.9416 931.4375,-521.7419 940.7221,-526.8455 941.8783,-519.9416"/>
</a>
</g>
<g id="a_edge29&#45;label"><a xlink:href="#doUpdateUserProfile" xlink:title="&lt;TABLE&gt;" target="_parent">
<g id="a_edge29_27"><a xlink:href="#doUpdateUserProfile" xlink:title="ユーザープロフィール更新 (idempotent)" target="_parent">
<text text-anchor="start" x="949.2327" y="-524.3" font-family="Times,serif" font-size="13.00" fill="#ffdc00">■</text>
<text text-anchor="start" x="958.9827" y="-524.3" font-family="Times,serif" font-size="13.00" fill="#000000"> ユーザープロフィール更新</text>
</a>
</g>
</a>
</g>
</g>
<!-- UserReturnRefundPage&#45;&gt;UserOrderDetailPage -->
<g id="edge30" class="edge doRequestRefund">
<title>UserReturnRefundPage&#45;&gt;UserOrderDetailPage</title>
<g id="a_edge30"><a xlink:href="#doRequestRefund" xlink:title="&lt;TABLE&gt;" target="_parent">
<path fill="none" stroke="#000000" stroke-width="1.5" d="M627.113,-36.0747C612.2258,-41.3936 599.5594,-47.5344 595,-54 583.4739,-70.3447 582.1919,-83.6392 595,-99 606.1427,-112.3635 638.6862,-120.7804 674.1928,-126.076"/>
<polygon fill="#000000" stroke="#000000" stroke-width="1.5" points="673.8817,-129.5665 684.2708,-127.4883 674.8533,-122.6342 673.8817,-129.5665"/>
</a>
</g>
<g id="a_edge30&#45;label"><a xlink:href="#doRequestRefund" xlink:title="&lt;TABLE&gt;" target="_parent">
<g id="a_edge30_28"><a xlink:href="#doRequestRefund" xlink:title="払い戻しリクエスト (unsafe)" target="_parent">
<text text-anchor="start" x="595" y="-87.8" font-family="Times,serif" font-size="13.00" fill="#ff4136">■</text>
<text text-anchor="start" x="604.75" y="-87.8" font-family="Times,serif" font-size="13.00" fill="#000000"> 払い戻しリクエスト</text>
</a>
</g>
<g id="a_edge30_29"><a xlink:href="#doRequestReturn" xlink:title="返品リクエスト (unsafe)" target="_parent">
<text text-anchor="start" x="595" y="-72.8" font-family="Times,serif" font-size="13.00" fill="#ff4136">■</text>
<text text-anchor="start" x="604.75" y="-72.8" font-family="Times,serif" font-size="13.00" fill="#000000"> 返品リクエスト</text>
</a>
</g>
<g id="a_edge30_30"><a xlink:href="#goToUserOrderDetail" xlink:title="ユーザー注文詳細へ移動 (safe)" target="_parent">
<text text-anchor="start" x="594.6215" y="-57.8" font-family="Times,serif" font-size="13.00" fill="#00a86b">■</text>
<text text-anchor="start" x="604.3715" y="-57.8" font-family="Times,serif" font-size="13.00" fill="#000000"> ユーザー注文詳細へ移動</text>
</a>
</g>
</a>
</g>
</g>
<!-- UserProductDetailPage&#45;&gt;UserCartPage -->
<g id="edge22" class="edge doAddToCart">
<title>UserProductDetailPage&#45;&gt;UserCartPage</title>
<g id="a_edge22"><a xlink:href="#doAddToCart" xlink:title="&lt;TABLE&gt;" target="_parent">
<path fill="none" stroke="#000000" stroke-width="1.5" d="M641.9185,-427.4801C670.8329,-422.189 701.4876,-414.9229 729,-405 779.9238,-386.6333 784.2948,-363.9619 835,-345 855.3766,-337.3799 877.7079,-331.246 899.4381,-326.3524"/>
<polygon fill="#000000" stroke="#000000" stroke-width="1.5" points="900.344,-329.7373 909.3708,-324.1904 898.8551,-322.8974 900.344,-329.7373"/>
</a>
</g>
<g id="a_edge22&#45;label"><a xlink:href="#doAddToCart" xlink:title="&lt;TABLE&gt;" target="_parent">
<g id="a_edge22_31"><a xlink:href="#doAddToCart" xlink:title="カートに追加 (unsafe)" target="_parent">
<text text-anchor="start" x="835.5" y="-379.3" font-family="Times,serif" font-size="13.00" fill="#ff4136">■</text>
<text text-anchor="start" x="845.25" y="-379.3" font-family="Times,serif" font-size="13.00" fill="#000000"> カートに追加</text>
</a>
</g>
<g id="a_edge22_32"><a xlink:href="#goToUserCart" xlink:title="ユーザーカートへ移動 (safe)" target="_parent">
<text text-anchor="start" x="835.2567" y="-364.3" font-family="Times,serif" font-size="13.00" fill="#00a86b">■</text>
<text text-anchor="start" x="845.0067" y="-364.3" font-family="Times,serif" font-size="13.00" fill="#000000"> ユーザーカートへ移動</text>
</a>
</g>
</a>
</g>
</g>
<!-- UserProductDetailPage&#45;&gt;UserProductListPage -->
<g id="edge23" class="edge goToUserProductList">
<title>UserProductDetailPage&#45;&gt;UserProductListPage</title>
<g id="a_edge23"><a xlink:href="#goToUserProductList" xlink:title="&lt;TABLE&gt;" target="_parent">
<path fill="none" stroke="#000000" stroke-width="1.5" d="M524.6275,-459.1837C521.6166,-470.2982 516.0605,-483.8914 506,-492 496.0998,-499.9794 475.1044,-506.4414 450.7083,-511.569"/>
<polygon fill="#000000" stroke="#000000" stroke-width="1.5" points="449.9525,-508.1507 440.8313,-513.5408 451.323,-515.0152 449.9525,-508.1507"/>
</a>
</g>
<g id="a_edge23&#45;label"><a xlink:href="#goToUserProductList" xlink:title="&lt;TABLE&gt;" target="_parent">
<g id="a_edge23_33"><a xlink:href="#goToUserProductList" xlink:title="ユーザー製品リストへ移動 (safe)" target="_parent">
<text text-anchor="start" x="517.6401" y="-480.8" font-family="Times,serif" font-size="13.00" fill="#00a86b">■</text>
<text text-anchor="start" x="527.3901" y="-480.8" font-family="Times,serif" font-size="13.00" fill="#000000"> ユーザー製品リストへ移動</text>
</a>
</g>
</a>
</g>
</g>
<!-- UserReviewPage -->
<g id="node12" class="node">
<title>UserReviewPage</title>
<g id="a_node12"><a xlink:href="#UserReviewPage" xlink:title="ユーザーレビューページ" target="_parent">
<polygon fill="#d3d3d3" stroke="#000000" stroke-width="2" points="542.6507,-327 325.3493,-327 325.3493,-291 542.6507,-291 542.6507,-327"/>
<text text-anchor="start" x="347.1748" y="-304.8" font-family="Times,serif" font-size="14.00" fill="#000000">ユーザーレビューページ</text>
</a>
</g>
</g>
<!-- UserProductDetailPage&#45;&gt;UserReviewPage -->
<g id="edge24" class="edge goToUserReview">
<title>UserProductDetailPage&#45;&gt;UserReviewPage</title>
<g id="a_edge24"><a xlink:href="#goToUserReview" xlink:title="&lt;TABLE&gt;" target="_parent">
<path fill="none" stroke="#000000" stroke-width="1.5" d="M414.3018,-428.0225C367.7414,-421.5441 323.0304,-413.3249 316,-405 298.7945,-384.6265 300.1317,-366.4315 316,-345 319.9724,-339.6349 329.0067,-334.7481 340.4023,-330.4248"/>
<polygon fill="#000000" stroke="#000000" stroke-width="1.5" points="341.7056,-333.677 349.9959,-327.0799 339.4011,-327.0672 341.7056,-333.677"/>
</a>
</g>
<g id="a_edge24&#45;label"><a xlink:href="#goToUserReview" xlink:title="&lt;TABLE&gt;" target="_parent">
<g id="a_edge24_34"><a xlink:href="#goToUserReview" xlink:title="ユーザーレビューページへ移動 (safe)" target="_parent">
<text text-anchor="start" x="316.1305" y="-371.3" font-family="Times,serif" font-size="13.00" fill="#00a86b">■</text>
<text text-anchor="start" x="325.8805" y="-371.3" font-family="Times,serif" font-size="13.00" fill="#000000"> ユーザーレビューページへ移動</text>
</a>
</g>
</a>
</g>
</g>
<!-- UserReviewPage&#45;&gt;UserProductDetailPage -->
<g id="edge31" class="edge doAddReview">
<title>UserReviewPage&#45;&gt;UserProductDetailPage</title>
<g id="a_edge31"><a xlink:href="#doAddReview" xlink:title="&lt;TABLE&gt;" target="_parent">
<path fill="none" stroke="#000000" stroke-width="1.5" d="M499.4265,-327.0592C514.0514,-332.4441 526.5641,-338.6221 531,-345 544.6836,-364.6741 542.0577,-392.5145 537.122,-413.1514"/>
<polygon fill="#000000" stroke="#000000" stroke-width="1.5" points="533.7121,-412.354 534.49,-422.9202 540.4711,-414.1751 533.7121,-412.354"/>
</a>
</g>
<g id="a_edge31&#45;label"><a xlink:href="#doAddReview" xlink:title="&lt;TABLE&gt;" target="_parent">
<g id="a_edge31_35"><a xlink:href="#doAddReview" xlink:title="レビュー追加 (unsafe)" target="_parent">
<text text-anchor="start" x="542.5" y="-394.3" font-family="Times,serif" font-size="13.00" fill="#ff4136">■</text>
<text text-anchor="start" x="552.25" y="-394.3" font-family="Times,serif" font-size="13.00" fill="#000000"> レビュー追加</text>
</a>
</g>
<g id="a_edge31_36"><a xlink:href="#doDeleteReview" xlink:title="レビュー削除 (idempotent)" target="_parent">
<text text-anchor="start" x="542.5" y="-379.3" font-family="Times,serif" font-size="13.00" fill="#ffdc00">■</text>
<text text-anchor="start" x="552.25" y="-379.3" font-family="Times,serif" font-size="13.00" fill="#000000"> レビュー削除</text>
</a>
</g>
<g id="a_edge31_37"><a xlink:href="#doUpdateReview" xlink:title="レビュー更新 (idempotent)" target="_parent">
<text text-anchor="start" x="542.5" y="-364.3" font-family="Times,serif" font-size="13.00" fill="#ffdc00">■</text>
<text text-anchor="start" x="552.25" y="-364.3" font-family="Times,serif" font-size="13.00" fill="#000000"> レビュー更新</text>
</a>
</g>
<g id="a_edge31_38"><a xlink:href="#goToUserProductDetail" xlink:title="ユーザー製品詳細へ移動 (safe)" target="_parent">
<text text-anchor="start" x="542.0257" y="-349.3" font-family="Times,serif" font-size="13.00" fill="#00a86b">■</text>
<text text-anchor="start" x="551.7757" y="-349.3" font-family="Times,serif" font-size="13.00" fill="#000000"> ユーザー製品詳細へ移動</text>
</a>
</g>
</a>
</g>
</g>
</g>
</svg>
