<?xml version="1.0" encoding="UTF-8" standalone="no"?>
<!DOCTYPE svg PUBLIC "-//W3C//DTD SVG 1.1//EN"
 "http://www.w3.org/Graphics/SVG/1.1/DTD/svg11.dtd">
<!-- Generated by graphviz version 13.1.2 (20250808.2320)
 -->
<!-- Title: application_state_diagram Pages: 1 -->
<svg width="1249pt" height="815pt"
 viewBox="0.00 0.00 1249.00 815.00" xmlns="http://www.w3.org/2000/svg" xmlns:xlink="http://www.w3.org/1999/xlink">
<g id="graph0" class="graph" transform="scale(1 1) rotate(0) translate(4 811)">
<title>application_state_diagram</title>
<polygon fill="white" stroke="none" points="-4,4 -4,-811 1244.96,-811 1244.96,4 -4,4"/>
<!-- LoginPage -->
<g id="node1" class="node">
<title>LoginPage</title>
<g id="a_node1"><a xlink:href="#LoginPage" xlink:title="LoginPage" target="_parent">
<polygon fill="lightgray" stroke="black" stroke-width="2" points="605.81,-807 504.11,-807 504.11,-771 605.81,-771 605.81,-807"/>
<text xml:space="preserve" text-anchor="middle" x="554.96" y="-783.95" font-family="Times,serif" font-size="14.00">LoginPage</text>
</a>
</g>
</g>
<!-- UserHomePage -->
<g id="node2" class="node">
<title>UserHomePage</title>
<g id="a_node2"><a xlink:href="#UserHomePage" xlink:title="UserHomePage" target="_parent">
<polygon fill="lightgray" stroke="black" stroke-width="2" points="664.31,-633 535.61,-633 535.61,-597 664.31,-597 664.31,-633"/>
<text xml:space="preserve" text-anchor="middle" x="599.96" y="-609.95" font-family="Times,serif" font-size="14.00">UserHomePage</text>
</a>
</g>
</g>
<!-- LoginPage&#45;&gt;UserHomePage -->
<g id="edge1" class="edge doLogin">
<title>LoginPage&#45;&gt;UserHomePage</title>
<g id="a_edge1"><a xlink:href="#doLogin" xlink:title="&lt;TABLE&gt;" target="_parent">
<path fill="none" stroke="black" stroke-width="1.5" d="M518.74,-770.63C510.64,-765.67 502.51,-759.75 495.96,-753 473.87,-730.23 461.63,-711.34 477.71,-684 489.71,-663.59 510.31,-648.86 531.21,-638.45"/>
<polygon fill="black" stroke="black" stroke-width="1.5" points="532.46,-641.72 540.06,-634.34 529.52,-635.37 532.46,-641.72"/>
</a>
</g>
<g id="a_edge1&#45;label"><a xlink:href="#doLogin" xlink:title="&lt;TABLE&gt;" target="_parent">
<g id="a_edge1_0"><a xlink:href="#doLogin" xlink:title="ログイン (unsafe)" target="_parent">
<text xml:space="preserve" text-anchor="start" x="477.71" y="-698.15" font-family="Times,serif" font-size="13.00" fill="#ff4136">■</text>
<text xml:space="preserve" text-anchor="start" x="485.21" y="-698.15" font-family="Times,serif" font-size="13.00"> doLogin</text>
</a>
</g>
</a>
</g>
</g>
<!-- RegisterPage -->
<g id="node3" class="node">
<title>RegisterPage</title>
<g id="a_node3"><a xlink:href="#RegisterPage" xlink:title="RegisterPage" target="_parent">
<polygon fill="lightgray" stroke="black" stroke-width="2" points="657.19,-720 542.74,-720 542.74,-684 657.19,-684 657.19,-720"/>
<text xml:space="preserve" text-anchor="middle" x="599.96" y="-696.95" font-family="Times,serif" font-size="14.00">RegisterPage</text>
</a>
</g>
</g>
<!-- LoginPage&#45;&gt;RegisterPage -->
<g id="edge2" class="edge goToRegister">
<title>LoginPage&#45;&gt;RegisterPage</title>
<g id="a_edge2"><a xlink:href="#goToRegister" xlink:title="&lt;TABLE&gt;" target="_parent">
<path fill="none" stroke="black" stroke-width="1.5" d="M518.84,-770.57C505.3,-761.6 495.02,-750.04 503.46,-738 507.5,-732.24 518.21,-726.71 531.11,-721.81"/>
<polygon fill="black" stroke="black" stroke-width="1.5" points="531.94,-725.23 540.21,-718.6 529.62,-718.62 531.94,-725.23"/>
</a>
</g>
<g id="a_edge2&#45;label"><a xlink:href="#goToRegister" xlink:title="&lt;TABLE&gt;" target="_parent">
<g id="a_edge2_1"><a xlink:href="#goToRegister" xlink:title="登録ページへ移動 (safe)" target="_parent">
<text xml:space="preserve" text-anchor="start" x="503.46" y="-741.65" font-family="Times,serif" font-size="13.00" fill="#00a86b">■</text>
<text xml:space="preserve" text-anchor="start" x="510.96" y="-741.65" font-family="Times,serif" font-size="13.00"> goToRegister</text>
</a>
</g>
</a>
</g>
</g>
<!-- UserHomePage&#45;&gt;LoginPage -->
<g id="edge9" class="edge doLogout">
<title>UserHomePage&#45;&gt;LoginPage</title>
<g id="a_edge9"><a xlink:href="#doLogout" xlink:title="&lt;TABLE&gt;" target="_parent">
<path fill="none" stroke="black" stroke-width="1.5" d="M654.55,-633.36C661.86,-637.96 668.39,-643.74 672.96,-651 697.17,-689.45 694.28,-717.46 665.96,-753 654.19,-767.78 636.2,-776.43 618.11,-781.46"/>
<polygon fill="black" stroke="black" stroke-width="1.5" points="617.41,-778.03 608.49,-783.74 619.03,-784.84 617.41,-778.03"/>
</a>
</g>
<g id="a_edge9&#45;label"><a xlink:href="#doLogout" xlink:title="&lt;TABLE&gt;" target="_parent">
<g id="a_edge9_2"><a xlink:href="#doLogout" xlink:title="ログアウト (safe)" target="_parent">
<text xml:space="preserve" text-anchor="start" x="689.33" y="-698.15" font-family="Times,serif" font-size="13.00" fill="#00a86b">■</text>
<text xml:space="preserve" text-anchor="start" x="696.83" y="-698.15" font-family="Times,serif" font-size="13.00"> doLogout</text>
</a>
</g>
</a>
</g>
</g>
<!-- UserProductListPage -->
<g id="node4" class="node">
<title>UserProductListPage</title>
<g id="a_node4"><a xlink:href="#UserProductListPage" xlink:title="UserProductListPage" target="_parent">
<polygon fill="lightgray" stroke="black" stroke-width="2" points="231.94,-546 73.99,-546 73.99,-510 231.94,-510 231.94,-546"/>
<text xml:space="preserve" text-anchor="middle" x="152.96" y="-522.95" font-family="Times,serif" font-size="14.00">UserProductListPage</text>
</a>
</g>
</g>
<!-- UserHomePage&#45;&gt;UserProductListPage -->
<g id="edge5" class="edge goToUserProductList">
<title>UserHomePage&#45;&gt;UserProductListPage</title>
<g id="a_edge5"><a xlink:href="#goToUserProductList" xlink:title="&lt;TABLE&gt;" target="_parent">
<path fill="none" stroke="black" stroke-width="1.5" d="M535.25,-613.77C416.12,-612.65 171.84,-606.95 145.96,-579 140.72,-573.34 139.91,-565.67 141.1,-558.04"/>
<polygon fill="black" stroke="black" stroke-width="1.5" points="144.43,-559.13 143.67,-548.56 137.68,-557.3 144.43,-559.13"/>
</a>
</g>
<g id="a_edge5&#45;label"><a xlink:href="#goToUserProductList" xlink:title="&lt;TABLE&gt;" target="_parent">
<g id="a_edge5_3"><a xlink:href="#goToUserProductList" xlink:title="ユーザー製品リストへ移動 (safe)" target="_parent">
<text xml:space="preserve" text-anchor="start" x="145.96" y="-567.65" font-family="Times,serif" font-size="13.00" fill="#00a86b">■</text>
<text xml:space="preserve" text-anchor="start" x="153.46" y="-567.65" font-family="Times,serif" font-size="13.00"> goToUserProductList</text>
</a>
</g>
</a>
</g>
</g>
<!-- UserCartPage -->
<g id="node5" class="node">
<title>UserCartPage</title>
<g id="a_node5"><a xlink:href="#UserCartPage" xlink:title="UserCartPage" target="_parent">
<polygon fill="lightgray" stroke="black" stroke-width="2" points="562.06,-327 443.86,-327 443.86,-291 562.06,-291 562.06,-327"/>
<text xml:space="preserve" text-anchor="middle" x="502.96" y="-303.95" font-family="Times,serif" font-size="14.00">UserCartPage</text>
</a>
</g>
</g>
<!-- UserHomePage&#45;&gt;UserCartPage -->
<g id="edge6" class="edge goToUserCart">
<title>UserHomePage&#45;&gt;UserCartPage</title>
<g id="a_edge6"><a xlink:href="#goToUserCart" xlink:title="&lt;TABLE&gt;" target="_parent">
<path fill="none" stroke="black" stroke-width="1.5" d="M551.57,-596.6C529.85,-585.83 506.89,-569.48 496.96,-546 487.6,-523.86 497.78,-515.94 499.96,-492 504.85,-438.32 504.56,-375.39 503.81,-339.35"/>
<polygon fill="black" stroke="black" stroke-width="1.5" points="507.32,-339.54 503.58,-329.63 500.32,-339.71 507.32,-339.54"/>
</a>
</g>
<g id="a_edge6&#45;label"><a xlink:href="#goToUserCart" xlink:title="&lt;TABLE&gt;" target="_parent">
<g id="a_edge6_4"><a xlink:href="#goToUserCart" xlink:title="ユーザーカートへ移動 (safe)" target="_parent">
<text xml:space="preserve" text-anchor="start" x="501.05" y="-480.65" font-family="Times,serif" font-size="13.00" fill="#00a86b">■</text>
<text xml:space="preserve" text-anchor="start" x="508.55" y="-480.65" font-family="Times,serif" font-size="13.00"> goToUserCart</text>
</a>
</g>
</a>
</g>
</g>
<!-- UserOrderHistoryPage -->
<g id="node6" class="node">
<title>UserOrderHistoryPage</title>
<g id="a_node6"><a xlink:href="#UserOrderHistoryPage" xlink:title="UserOrderHistoryPage" target="_parent">
<polygon fill="lightgray" stroke="black" stroke-width="2" points="983.44,-36 816.49,-36 816.49,0 983.44,0 983.44,-36"/>
<text xml:space="preserve" text-anchor="middle" x="899.96" y="-12.95" font-family="Times,serif" font-size="14.00">UserOrderHistoryPage</text>
</a>
</g>
</g>
<!-- UserHomePage&#45;&gt;UserOrderHistoryPage -->
<g id="edge7" class="edge goToUserOrderHistory">
<title>UserHomePage&#45;&gt;UserOrderHistoryPage</title>
<g id="a_edge7"><a xlink:href="#goToUserOrderHistory" xlink:title="&lt;TABLE&gt;" target="_parent">
<path fill="none" stroke="black" stroke-width="1.5" d="M664.67,-614.33C742.71,-613.34 877.35,-607.12 988.96,-579 1043.8,-565.19 1105.96,-585.55 1105.96,-529 1105.96,-529 1105.96,-529 1105.96,-134 1105.96,-79.05 1049.39,-50.11 995.54,-35.01"/>
<polygon fill="black" stroke="black" stroke-width="1.5" points="996.51,-31.65 985.94,-32.49 994.72,-38.42 996.51,-31.65"/>
</a>
</g>
<g id="a_edge7&#45;label"><a xlink:href="#goToUserOrderHistory" xlink:title="&lt;TABLE&gt;" target="_parent">
<g id="a_edge7_5"><a xlink:href="#goToUserOrderHistory" xlink:title="ユーザー注文履歴へ移動 (safe)" target="_parent">
<text xml:space="preserve" text-anchor="start" x="1105.96" y="-305.15" font-family="Times,serif" font-size="13.00" fill="#00a86b">■</text>
<text xml:space="preserve" text-anchor="start" x="1113.46" y="-305.15" font-family="Times,serif" font-size="13.00"> goToUserOrderHistory</text>
</a>
</g>
</a>
</g>
</g>
<!-- UserProfilePage -->
<g id="node7" class="node">
<title>UserProfilePage</title>
<g id="a_node7"><a xlink:href="#UserProfilePage" xlink:title="UserProfilePage" target="_parent">
<polygon fill="lightgray" stroke="black" stroke-width="2" points="637.81,-546 506.11,-546 506.11,-510 637.81,-510 637.81,-546"/>
<text xml:space="preserve" text-anchor="middle" x="571.96" y="-522.95" font-family="Times,serif" font-size="14.00">UserProfilePage</text>
</a>
</g>
</g>
<!-- UserHomePage&#45;&gt;UserProfilePage -->
<g id="edge8" class="edge goToUserProfile">
<title>UserHomePage&#45;&gt;UserProfilePage</title>
<g id="a_edge8"><a xlink:href="#goToUserProfile" xlink:title="&lt;TABLE&gt;" target="_parent">
<path fill="none" stroke="black" stroke-width="1.5" d="M625.31,-596.54C635.63,-587.2 643.72,-575.31 636.96,-564 634.76,-560.31 632.02,-556.99 628.92,-554"/>
<polygon fill="black" stroke="black" stroke-width="1.5" points="631.17,-551.32 621.16,-547.84 626.82,-556.8 631.17,-551.32"/>
</a>
</g>
<g id="a_edge8&#45;label"><a xlink:href="#goToUserProfile" xlink:title="&lt;TABLE&gt;" target="_parent">
<g id="a_edge8_6"><a xlink:href="#goToUserProfile" xlink:title="ユーザープロフィールへ移動 (safe)" target="_parent">
<text xml:space="preserve" text-anchor="start" x="639.44" y="-567.65" font-family="Times,serif" font-size="13.00" fill="#00a86b">■</text>
<text xml:space="preserve" text-anchor="start" x="646.94" y="-567.65" font-family="Times,serif" font-size="13.00"> goToUserProfile</text>
</a>
</g>
</a>
</g>
</g>
<!-- RegisterPage&#45;&gt;LoginPage -->
<g id="edge4" class="edge goToLogin">
<title>RegisterPage&#45;&gt;LoginPage</title>
<g id="a_edge4"><a xlink:href="#goToLogin" xlink:title="&lt;TABLE&gt;" target="_parent">
<path fill="none" stroke="black" stroke-width="1.5" d="M597.1,-720.4C594.98,-730.37 591.48,-742.87 585.96,-753 584.41,-755.84 582.59,-758.65 580.63,-761.36"/>
<polygon fill="black" stroke="black" stroke-width="1.5" points="578.09,-758.93 574.5,-768.9 583.52,-763.35 578.09,-758.93"/>
</a>
</g>
<g id="a_edge4&#45;label"><a xlink:href="#goToLogin" xlink:title="&lt;TABLE&gt;" target="_parent">
<g id="a_edge4_7"><a xlink:href="#goToLogin" xlink:title="ログインページへ移動 (safe)" target="_parent">
<text xml:space="preserve" text-anchor="start" x="592.13" y="-741.65" font-family="Times,serif" font-size="13.00" fill="#00a86b">■</text>
<text xml:space="preserve" text-anchor="start" x="599.63" y="-741.65" font-family="Times,serif" font-size="13.00"> goToLogin</text>
</a>
</g>
</a>
</g>
</g>
<!-- RegisterPage&#45;&gt;UserHomePage -->
<g id="edge3" class="edge doRegister">
<title>RegisterPage&#45;&gt;UserHomePage</title>
<g id="a_edge3"><a xlink:href="#doRegister" xlink:title="&lt;TABLE&gt;" target="_parent">
<path fill="none" stroke="black" stroke-width="1.5" d="M599.96,-683.8C599.96,-672.81 599.96,-658.28 599.96,-645.48"/>
<polygon fill="black" stroke="black" stroke-width="1.5" points="603.46,-645.74 599.96,-635.74 596.46,-645.74 603.46,-645.74"/>
</a>
</g>
<g id="a_edge3&#45;label"><a xlink:href="#doRegister" xlink:title="&lt;TABLE&gt;" target="_parent">
<g id="a_edge3_8"><a xlink:href="#doRegister" xlink:title="ユーザー登録 (unsafe)" target="_parent">
<text xml:space="preserve" text-anchor="start" x="599.96" y="-654.65" font-family="Times,serif" font-size="13.00" fill="#ff4136">■</text>
<text xml:space="preserve" text-anchor="start" x="607.46" y="-654.65" font-family="Times,serif" font-size="13.00"> doRegister</text>
</a>
</g>
</a>
</g>
</g>
<!-- UserProductListPage&#45;&gt;UserHomePage -->
<g id="edge11" class="edge goToUserHome">
<title>UserProductListPage&#45;&gt;UserHomePage</title>
<g id="a_edge11"><a xlink:href="#goToUserHome" xlink:title="&lt;TABLE&gt;" target="_parent">
<path fill="none" stroke="black" stroke-width="1.5" d="M225.02,-546.46C240.81,-551.3 257.21,-557.16 271.96,-564 282.95,-569.1 283.33,-574.86 294.71,-579 335.34,-593.76 446.88,-603.86 523.25,-609.29"/>
<polygon fill="black" stroke="black" stroke-width="1.5" points="522.71,-612.76 532.93,-609.96 523.2,-605.77 522.71,-612.76"/>
</a>
</g>
<g id="a_edge11&#45;label"><a xlink:href="#goToUserHome" xlink:title="&lt;TABLE&gt;" target="_parent">
<g id="a_edge11_9"><a xlink:href="#goToUserHome" xlink:title="ユーザーホームへ移動 (safe)" target="_parent">
<text xml:space="preserve" text-anchor="start" x="294.71" y="-567.65" font-family="Times,serif" font-size="13.00" fill="#00a86b">■</text>
<text xml:space="preserve" text-anchor="start" x="302.21" y="-567.65" font-family="Times,serif" font-size="13.00"> goToUserHome</text>
</a>
</g>
</a>
</g>
</g>
<!-- UserProductListPage&#45;&gt;UserProductListPage -->
<g id="edge12" class="edge doSearchProducts">
<title>UserProductListPage&#45;&gt;UserProductListPage</title>
<g id="a_edge12"><a xlink:href="#doSearchProducts" xlink:title="&lt;TABLE&gt;" target="_parent">
<path fill="none" stroke="black" stroke-width="1.5" d="M232.1,-535.24C242.81,-534.02 249.94,-531.61 249.94,-528 249.94,-526.03 247.8,-524.41 244.12,-523.15"/>
<polygon fill="black" stroke="black" stroke-width="1.5" points="244.82,-519.72 234.33,-521.21 243.46,-526.59 244.82,-519.72"/>
</a>
</g>
<g id="a_edge12&#45;label"><a xlink:href="#doSearchProducts" xlink:title="&lt;TABLE&gt;" target="_parent">
<g id="a_edge12_10"><a xlink:href="#doSearchProducts" xlink:title="製品検索 (safe)" target="_parent">
<text xml:space="preserve" text-anchor="start" x="249.94" y="-531.65" font-family="Times,serif" font-size="13.00" fill="#00a86b">■</text>
<text xml:space="preserve" text-anchor="start" x="257.44" y="-531.65" font-family="Times,serif" font-size="13.00"> doSearchProducts</text>
</a>
</g>
<g id="a_edge12_11"><a xlink:href="#doPaginateProducts" xlink:title="製品リストのページネーション (safe)" target="_parent">
<text xml:space="preserve" text-anchor="start" x="249.94" y="-516.65" font-family="Times,serif" font-size="13.00" fill="#00a86b">■</text>
<text xml:space="preserve" text-anchor="start" x="257.44" y="-516.65" font-family="Times,serif" font-size="13.00"> doPaginateProducts</text>
</a>
</g>
</a>
</g>
</g>
<!-- UserProductDetailPage -->
<g id="node8" class="node">
<title>UserProductDetailPage</title>
<g id="a_node8"><a xlink:href="#UserProductDetailPage" xlink:title="UserProductDetailPage" target="_parent">
<polygon fill="lightgray" stroke="black" stroke-width="2" points="260.94,-459 90.99,-459 90.99,-423 260.94,-423 260.94,-459"/>
<text xml:space="preserve" text-anchor="middle" x="175.96" y="-435.95" font-family="Times,serif" font-size="14.00">UserProductDetailPage</text>
</a>
</g>
</g>
<!-- UserProductListPage&#45;&gt;UserProductDetailPage -->
<g id="edge10" class="edge goToUserProductDetail">
<title>UserProductListPage&#45;&gt;UserProductDetailPage</title>
<g id="a_edge10"><a xlink:href="#goToUserProductDetail" xlink:title="&lt;TABLE&gt;" target="_parent">
<path fill="none" stroke="black" stroke-width="1.5" d="M73.58,-509.75C55.85,-502.11 45.1,-491.47 55.96,-477 62.23,-468.64 70.39,-462.19 79.5,-457.22"/>
<polygon fill="black" stroke="black" stroke-width="1.5" points="80.95,-460.41 88.53,-453 77.98,-454.06 80.95,-460.41"/>
</a>
</g>
<g id="a_edge10&#45;label"><a xlink:href="#goToUserProductDetail" xlink:title="&lt;TABLE&gt;" target="_parent">
<g id="a_edge10_12"><a xlink:href="#goToUserProductDetail" xlink:title="ユーザー製品詳細へ移動 (safe)" target="_parent">
<text xml:space="preserve" text-anchor="start" x="55.96" y="-480.65" font-family="Times,serif" font-size="13.00" fill="#00a86b">■</text>
<text xml:space="preserve" text-anchor="start" x="63.46" y="-480.65" font-family="Times,serif" font-size="13.00"> goToUserProductDetail</text>
</a>
</g>
</a>
</g>
</g>
<!-- UserCartPage&#45;&gt;UserHomePage -->
<g id="edge18" class="edge goToUserHome">
<title>UserCartPage&#45;&gt;UserHomePage</title>
<g id="a_edge18"><a xlink:href="#goToUserHome" xlink:title="&lt;TABLE&gt;" target="_parent">
<path fill="none" stroke="black" stroke-width="1.5" d="M480.59,-327.35C442.43,-359.18 371.6,-429.4 400.71,-492 424.25,-542.63 480.09,-574.08 526.68,-592.35"/>
<polygon fill="black" stroke="black" stroke-width="1.5" points="525.27,-595.56 535.86,-595.8 527.74,-589 525.27,-595.56"/>
</a>
</g>
<g id="a_edge18&#45;label"><a xlink:href="#goToUserHome" xlink:title="&lt;TABLE&gt;" target="_parent">
<g id="a_edge18_13"><a xlink:href="#goToUserHome" xlink:title="ユーザーホームへ移動 (safe)" target="_parent">
<text xml:space="preserve" text-anchor="start" x="400.71" y="-480.65" font-family="Times,serif" font-size="13.00" fill="#00a86b">■</text>
<text xml:space="preserve" text-anchor="start" x="408.21" y="-480.65" font-family="Times,serif" font-size="13.00"> goToUserHome</text>
</a>
</g>
</a>
</g>
</g>
<!-- UserCartPage&#45;&gt;UserCartPage -->
<g id="edge16" class="edge doUpdateCartItem">
<title>UserCartPage&#45;&gt;UserCartPage</title>
<g id="a_edge16"><a xlink:href="#doUpdateCartItem" xlink:title="&lt;TABLE&gt;" target="_parent">
<path fill="none" stroke="black" stroke-width="1.5" d="M562.44,-316.65C572.83,-315.63 580.06,-313.08 580.06,-309 580.06,-306.77 577.9,-305 574.24,-303.68"/>
<polygon fill="black" stroke="black" stroke-width="1.5" points="575.16,-300.3 564.67,-301.79 573.8,-307.16 575.16,-300.3"/>
</a>
</g>
<g id="a_edge16&#45;label"><a xlink:href="#doUpdateCartItem" xlink:title="&lt;TABLE&gt;" target="_parent">
<g id="a_edge16_14"><a xlink:href="#doUpdateCartItem" xlink:title="カート内アイテム更新 (idempotent)" target="_parent">
<text xml:space="preserve" text-anchor="start" x="580.06" y="-312.65" font-family="Times,serif" font-size="13.00" fill="#ffdc00">■</text>
<text xml:space="preserve" text-anchor="start" x="587.56" y="-312.65" font-family="Times,serif" font-size="13.00"> doUpdateCartItem</text>
</a>
</g>
<g id="a_edge16_15"><a xlink:href="#doRemoveCartItem" xlink:title="カート内アイテム削除 (idempotent)" target="_parent">
<text xml:space="preserve" text-anchor="start" x="580.06" y="-297.65" font-family="Times,serif" font-size="13.00" fill="#ffdc00">■</text>
<text xml:space="preserve" text-anchor="start" x="587.56" y="-297.65" font-family="Times,serif" font-size="13.00"> doRemoveCartItem</text>
</a>
</g>
</a>
</g>
</g>
<!-- UserCheckoutPage -->
<g id="node10" class="node">
<title>UserCheckoutPage</title>
<g id="a_node10"><a xlink:href="#UserCheckoutPage" xlink:title="UserCheckoutPage" target="_parent">
<polygon fill="lightgray" stroke="black" stroke-width="2" points="716.31,-240 569.61,-240 569.61,-204 716.31,-204 716.31,-240"/>
<text xml:space="preserve" text-anchor="middle" x="642.96" y="-216.95" font-family="Times,serif" font-size="14.00">UserCheckoutPage</text>
</a>
</g>
</g>
<!-- UserCartPage&#45;&gt;UserCheckoutPage -->
<g id="edge17" class="edge goToUserCheckout">
<title>UserCartPage&#45;&gt;UserCheckoutPage</title>
<g id="a_edge17"><a xlink:href="#goToUserCheckout" xlink:title="&lt;TABLE&gt;" target="_parent">
<path fill="none" stroke="black" stroke-width="1.5" d="M555.6,-290.51C567.32,-285.62 579.4,-279.76 589.96,-273 600.4,-266.32 610.61,-257.43 619.24,-249"/>
<polygon fill="black" stroke="black" stroke-width="1.5" points="621.49,-251.7 626.01,-242.11 616.5,-246.79 621.49,-251.7"/>
</a>
</g>
<g id="a_edge17&#45;label"><a xlink:href="#goToUserCheckout" xlink:title="&lt;TABLE&gt;" target="_parent">
<g id="a_edge17_16"><a xlink:href="#goToUserCheckout" xlink:title="ユーザーチェックアウトへ移動 (safe)" target="_parent">
<text xml:space="preserve" text-anchor="start" x="609" y="-261.65" font-family="Times,serif" font-size="13.00" fill="#00a86b">■</text>
<text xml:space="preserve" text-anchor="start" x="616.5" y="-261.65" font-family="Times,serif" font-size="13.00"> goToUserCheckout</text>
</a>
</g>
</a>
</g>
</g>
<!-- UserOrderHistoryPage&#45;&gt;UserHomePage -->
<g id="edge23" class="edge goToUserHome">
<title>UserOrderHistoryPage&#45;&gt;UserHomePage</title>
<g id="a_edge23"><a xlink:href="#goToUserHome" xlink:title="&lt;TABLE&gt;" target="_parent">
<path fill="none" stroke="black" stroke-width="1.5" d="M942,-36.5C949.27,-41.21 956.05,-47 960.96,-54 981.69,-83.55 974.96,-97.9 974.96,-134 974.96,-529 974.96,-529 974.96,-529 974.96,-589.64 786.07,-607.02 676.41,-612"/>
<polygon fill="black" stroke="black" stroke-width="1.5" points="676.54,-608.49 666.69,-612.41 676.83,-615.49 676.54,-608.49"/>
</a>
</g>
<g id="a_edge23&#45;label"><a xlink:href="#goToUserHome" xlink:title="&lt;TABLE&gt;" target="_parent">
<g id="a_edge23_17"><a xlink:href="#goToUserHome" xlink:title="ユーザーホームへ移動 (safe)" target="_parent">
<text xml:space="preserve" text-anchor="start" x="974.96" y="-305.15" font-family="Times,serif" font-size="13.00" fill="#00a86b">■</text>
<text xml:space="preserve" text-anchor="start" x="982.46" y="-305.15" font-family="Times,serif" font-size="13.00"> goToUserHome</text>
</a>
</g>
</a>
</g>
</g>
<!-- UserOrderHistoryPage&#45;&gt;UserOrderHistoryPage -->
<g id="edge24" class="edge doPaginateOrders">
<title>UserOrderHistoryPage&#45;&gt;UserOrderHistoryPage</title>
<g id="a_edge24"><a xlink:href="#doPaginateOrders" xlink:title="&lt;TABLE&gt;" target="_parent">
<path fill="none" stroke="black" stroke-width="1.5" d="M983.56,-27.61C994.32,-25.95 1001.44,-22.74 1001.44,-18 1001.44,-15.33 999.19,-13.15 995.3,-11.46"/>
<polygon fill="black" stroke="black" stroke-width="1.5" points="996.32,-8.11 985.76,-8.96 994.55,-14.88 996.32,-8.11"/>
</a>
</g>
<g id="a_edge24&#45;label"><a xlink:href="#doPaginateOrders" xlink:title="&lt;TABLE&gt;" target="_parent">
<g id="a_edge24_18"><a xlink:href="#doPaginateOrders" xlink:title="注文リストのページネーション (safe)" target="_parent">
<text xml:space="preserve" text-anchor="start" x="1001.44" y="-14.15" font-family="Times,serif" font-size="13.00" fill="#00a86b">■</text>
<text xml:space="preserve" text-anchor="start" x="1008.94" y="-14.15" font-family="Times,serif" font-size="13.00"> doPaginateOrders</text>
</a>
</g>
</a>
</g>
</g>
<!-- UserOrderDetailPage -->
<g id="node11" class="node">
<title>UserOrderDetailPage</title>
<g id="a_node11"><a xlink:href="#UserOrderDetailPage" xlink:title="UserOrderDetailPage" target="_parent">
<polygon fill="lightgray" stroke="black" stroke-width="2" points="745.69,-153 586.24,-153 586.24,-117 745.69,-117 745.69,-153"/>
<text xml:space="preserve" text-anchor="middle" x="665.96" y="-129.95" font-family="Times,serif" font-size="14.00">UserOrderDetailPage</text>
</a>
</g>
</g>
<!-- UserOrderHistoryPage&#45;&gt;UserOrderDetailPage -->
<g id="edge22" class="edge goToUserOrderDetail">
<title>UserOrderHistoryPage&#45;&gt;UserOrderDetailPage</title>
<g id="a_edge22"><a xlink:href="#goToUserOrderDetail" xlink:title="&lt;TABLE&gt;" target="_parent">
<path fill="none" stroke="black" stroke-width="1.5" d="M816.14,-21.74C760.67,-25.43 694.73,-34.02 675.46,-54 662.77,-67.16 660.56,-87.73 661.44,-104.72"/>
<polygon fill="black" stroke="black" stroke-width="1.5" points="657.95,-104.94 662.38,-114.57 664.92,-104.28 657.95,-104.94"/>
</a>
</g>
<g id="a_edge22&#45;label"><a xlink:href="#goToUserOrderDetail" xlink:title="&lt;TABLE&gt;" target="_parent">
<g id="a_edge22_19"><a xlink:href="#goToUserOrderDetail" xlink:title="ユーザー注文詳細へ移動 (safe)" target="_parent">
<text xml:space="preserve" text-anchor="start" x="675.46" y="-72.65" font-family="Times,serif" font-size="13.00" fill="#00a86b">■</text>
<text xml:space="preserve" text-anchor="start" x="682.96" y="-72.65" font-family="Times,serif" font-size="13.00"> goToUserOrderDetail</text>
</a>
</g>
</a>
</g>
</g>
<!-- UserProfilePage&#45;&gt;UserHomePage -->
<g id="edge29" class="edge goToUserHome">
<title>UserProfilePage&#45;&gt;UserHomePage</title>
<g id="a_edge29"><a xlink:href="#goToUserHome" xlink:title="&lt;TABLE&gt;" target="_parent">
<path fill="none" stroke="black" stroke-width="1.5" d="M548.78,-546.19C538.95,-555.66 531.12,-567.74 537.71,-579 539.87,-582.7 542.59,-586.03 545.66,-589.04"/>
<polygon fill="black" stroke="black" stroke-width="1.5" points="543.38,-591.69 553.36,-595.24 547.77,-586.24 543.38,-591.69"/>
</a>
</g>
<g id="a_edge29&#45;label"><a xlink:href="#goToUserHome" xlink:title="&lt;TABLE&gt;" target="_parent">
<g id="a_edge29_20"><a xlink:href="#goToUserHome" xlink:title="ユーザーホームへ移動 (safe)" target="_parent">
<text xml:space="preserve" text-anchor="start" x="537.71" y="-567.65" font-family="Times,serif" font-size="13.00" fill="#00a86b">■</text>
<text xml:space="preserve" text-anchor="start" x="545.21" y="-567.65" font-family="Times,serif" font-size="13.00"> goToUserHome</text>
</a>
</g>
</a>
</g>
</g>
<!-- UserProfilePage&#45;&gt;UserProfilePage -->
<g id="edge28" class="edge doUpdateUserProfile">
<title>UserProfilePage&#45;&gt;UserProfilePage</title>
<g id="a_edge28"><a xlink:href="#doUpdateUserProfile" xlink:title="&lt;TABLE&gt;" target="_parent">
<path fill="none" stroke="black" stroke-width="1.5" d="M638.04,-535.51C648.59,-534.41 655.81,-531.91 655.81,-528 655.81,-525.86 653.65,-524.15 649.97,-522.85"/>
<polygon fill="black" stroke="black" stroke-width="1.5" points="650.76,-519.44 640.27,-520.93 649.4,-526.3 650.76,-519.44"/>
</a>
</g>
<g id="a_edge28&#45;label"><a xlink:href="#doUpdateUserProfile" xlink:title="&lt;TABLE&gt;" target="_parent">
<g id="a_edge28_21"><a xlink:href="#doUpdateUserProfile" xlink:title="ユーザープロフィール更新 (idempotent)" target="_parent">
<text xml:space="preserve" text-anchor="start" x="655.81" y="-524.15" font-family="Times,serif" font-size="13.00" fill="#ffdc00">■</text>
<text xml:space="preserve" text-anchor="start" x="663.31" y="-524.15" font-family="Times,serif" font-size="13.00"> doUpdateUserProfile</text>
</a>
</g>
</a>
</g>
</g>
<!-- UserProductDetailPage&#45;&gt;UserProductListPage -->
<g id="edge14" class="edge goToUserProductList">
<title>UserProductDetailPage&#45;&gt;UserProductListPage</title>
<g id="a_edge14"><a xlink:href="#goToUserProductList" xlink:title="&lt;TABLE&gt;" target="_parent">
<path fill="none" stroke="black" stroke-width="1.5" d="M188.94,-459.42C194.54,-469.17 198.83,-481.44 193.96,-492 192.49,-495.19 190.57,-498.19 188.37,-501"/>
<polygon fill="black" stroke="black" stroke-width="1.5" points="185.95,-498.47 181.57,-508.12 191.01,-503.3 185.95,-498.47"/>
</a>
</g>
<g id="a_edge14&#45;label"><a xlink:href="#goToUserProductList" xlink:title="&lt;TABLE&gt;" target="_parent">
<g id="a_edge14_22"><a xlink:href="#goToUserProductList" xlink:title="ユーザー製品リストへ移動 (safe)" target="_parent">
<text xml:space="preserve" text-anchor="start" x="196.08" y="-480.65" font-family="Times,serif" font-size="13.00" fill="#00a86b">■</text>
<text xml:space="preserve" text-anchor="start" x="203.58" y="-480.65" font-family="Times,serif" font-size="13.00"> goToUserProductList</text>
</a>
</g>
</a>
</g>
</g>
<!-- UserProductDetailPage&#45;&gt;UserCartPage -->
<g id="edge13" class="edge doAddToCart">
<title>UserProductDetailPage&#45;&gt;UserCartPage</title>
<g id="a_edge13"><a xlink:href="#doAddToCart" xlink:title="&lt;TABLE&gt;" target="_parent">
<path fill="none" stroke="black" stroke-width="1.5" d="M254.67,-422.56C264.31,-418 273.41,-412.25 280.96,-405 301.53,-385.25 281.74,-363.18 303.71,-345 322.98,-329.06 382.49,-320.02 431.49,-315.14"/>
<polygon fill="black" stroke="black" stroke-width="1.5" points="431.8,-318.63 441.43,-314.2 431.15,-311.66 431.8,-318.63"/>
</a>
</g>
<g id="a_edge13&#45;label"><a xlink:href="#doAddToCart" xlink:title="&lt;TABLE&gt;" target="_parent">
<g id="a_edge13_23"><a xlink:href="#doAddToCart" xlink:title="カートに追加 (unsafe)" target="_parent">
<text xml:space="preserve" text-anchor="start" x="303.71" y="-378.65" font-family="Times,serif" font-size="13.00" fill="#ff4136">■</text>
<text xml:space="preserve" text-anchor="start" x="311.21" y="-378.65" font-family="Times,serif" font-size="13.00"> doAddToCart</text>
</a>
</g>
<g id="a_edge13_24"><a xlink:href="#goToUserCart" xlink:title="ユーザーカートへ移動 (safe)" target="_parent">
<text xml:space="preserve" text-anchor="start" x="303.71" y="-363.65" font-family="Times,serif" font-size="13.00" fill="#00a86b">■</text>
<text xml:space="preserve" text-anchor="start" x="311.21" y="-363.65" font-family="Times,serif" font-size="13.00"> goToUserCart</text>
</a>
</g>
</a>
</g>
</g>
<!-- UserReviewPage -->
<g id="node9" class="node">
<title>UserReviewPage</title>
<g id="a_node9"><a xlink:href="#UserReviewPage" xlink:title="UserReviewPage" target="_parent">
<polygon fill="lightgray" stroke="black" stroke-width="2" points="164.06,-327 27.86,-327 27.86,-291 164.06,-291 164.06,-327"/>
<text xml:space="preserve" text-anchor="middle" x="95.96" y="-303.95" font-family="Times,serif" font-size="14.00">UserReviewPage</text>
</a>
</g>
</g>
<!-- UserProductDetailPage&#45;&gt;UserReviewPage -->
<g id="edge15" class="edge goToUserReview">
<title>UserProductDetailPage&#45;&gt;UserReviewPage</title>
<g id="a_edge15"><a xlink:href="#goToUserReview" xlink:title="&lt;TABLE&gt;" target="_parent">
<path fill="none" stroke="black" stroke-width="1.5" d="M175.89,-422.57C174.97,-402.14 170.76,-368.16 153.96,-345 151.2,-341.2 147.9,-337.73 144.28,-334.59"/>
<polygon fill="black" stroke="black" stroke-width="1.5" points="146.68,-332.02 136.59,-328.8 142.47,-337.61 146.68,-332.02"/>
</a>
</g>
<g id="a_edge15&#45;label"><a xlink:href="#goToUserReview" xlink:title="&lt;TABLE&gt;" target="_parent">
<g id="a_edge15_25"><a xlink:href="#goToUserReview" xlink:title="ユーザーレビューページへ移動 (safe)" target="_parent">
<text xml:space="preserve" text-anchor="start" x="174.21" y="-371.15" font-family="Times,serif" font-size="13.00" fill="#00a86b">■</text>
<text xml:space="preserve" text-anchor="start" x="181.71" y="-371.15" font-family="Times,serif" font-size="13.00"> goToUserReview</text>
</a>
</g>
</a>
</g>
</g>
<!-- UserReviewPage&#45;&gt;UserProductDetailPage -->
<g id="edge30" class="edge doAddReview">
<title>UserReviewPage&#45;&gt;UserProductDetailPage</title>
<g id="a_edge30"><a xlink:href="#doAddReview" xlink:title="&lt;TABLE&gt;" target="_parent">
<path fill="none" stroke="black" stroke-width="1.5" d="M30.84,-327.48C23.41,-332.03 16.78,-337.77 11.96,-345 -2.83,-367.19 -4.81,-384.27 11.96,-405 21.22,-416.44 48.73,-424.3 78.64,-429.63"/>
<polygon fill="black" stroke="black" stroke-width="1.5" points="77.97,-433.06 88.41,-431.25 79.11,-426.16 77.97,-433.06"/>
</a>
</g>
<g id="a_edge30&#45;label"><a xlink:href="#doAddReview" xlink:title="&lt;TABLE&gt;" target="_parent">
<g id="a_edge30_26"><a xlink:href="#doAddReview" xlink:title="レビュー追加 (unsafe)" target="_parent">
<text xml:space="preserve" text-anchor="start" x="11.96" y="-393.65" font-family="Times,serif" font-size="13.00" fill="#ff4136">■</text>
<text xml:space="preserve" text-anchor="start" x="19.46" y="-393.65" font-family="Times,serif" font-size="13.00"> doAddReview</text>
</a>
</g>
<g id="a_edge30_27"><a xlink:href="#doUpdateReview" xlink:title="レビュー更新 (idempotent)" target="_parent">
<text xml:space="preserve" text-anchor="start" x="11.96" y="-378.65" font-family="Times,serif" font-size="13.00" fill="#ffdc00">■</text>
<text xml:space="preserve" text-anchor="start" x="19.46" y="-378.65" font-family="Times,serif" font-size="13.00"> doUpdateReview</text>
</a>
</g>
<g id="a_edge30_28"><a xlink:href="#doDeleteReview" xlink:title="レビュー削除 (idempotent)" target="_parent">
<text xml:space="preserve" text-anchor="start" x="11.96" y="-363.65" font-family="Times,serif" font-size="13.00" fill="#ffdc00">■</text>
<text xml:space="preserve" text-anchor="start" x="19.46" y="-363.65" font-family="Times,serif" font-size="13.00"> doDeleteReview</text>
</a>
</g>
<g id="a_edge30_29"><a xlink:href="#goToUserProductDetail" xlink:title="ユーザー製品詳細へ移動 (safe)" target="_parent">
<text xml:space="preserve" text-anchor="start" x="11.96" y="-348.65" font-family="Times,serif" font-size="13.00" fill="#00a86b">■</text>
<text xml:space="preserve" text-anchor="start" x="19.46" y="-348.65" font-family="Times,serif" font-size="13.00"> goToUserProductDetail</text>
</a>
</g>
</a>
</g>
</g>
<!-- UserCheckoutPage&#45;&gt;UserHomePage -->
<g id="edge21" class="edge goToUserHome">
<title>UserCheckoutPage&#45;&gt;UserHomePage</title>
<g id="a_edge21"><a xlink:href="#goToUserHome" xlink:title="&lt;TABLE&gt;" target="_parent">
<path fill="none" stroke="black" stroke-width="1.5" d="M706.68,-240.29C714.83,-244.88 722.3,-250.68 727.96,-258 783.16,-329.31 723.58,-374.74 755.71,-459 770.52,-497.83 809.13,-509.13 789.96,-546 768.77,-586.78 719.41,-603.62 676.32,-610.35"/>
<polygon fill="black" stroke="black" stroke-width="1.5" points="676.04,-606.85 666.61,-611.68 676.99,-613.79 676.04,-606.85"/>
</a>
</g>
<g id="a_edge21&#45;label"><a xlink:href="#goToUserHome" xlink:title="&lt;TABLE&gt;" target="_parent">
<g id="a_edge21_30"><a xlink:href="#goToUserHome" xlink:title="ユーザーホームへ移動 (safe)" target="_parent">
<text xml:space="preserve" text-anchor="start" x="755.71" y="-437.15" font-family="Times,serif" font-size="13.00" fill="#00a86b">■</text>
<text xml:space="preserve" text-anchor="start" x="763.21" y="-437.15" font-family="Times,serif" font-size="13.00"> goToUserHome</text>
</a>
</g>
</a>
</g>
</g>
<!-- UserCheckoutPage&#45;&gt;UserCartPage -->
<g id="edge20" class="edge goToUserCart">
<title>UserCheckoutPage&#45;&gt;UserCartPage</title>
<g id="a_edge20"><a xlink:href="#goToUserCart" xlink:title="&lt;TABLE&gt;" target="_parent">
<path fill="none" stroke="black" stroke-width="1.5" d="M569.13,-232.55C538.89,-238.11 508.84,-246.37 499.71,-258 495.17,-263.79 493.98,-271.21 494.43,-278.55"/>
<polygon fill="black" stroke="black" stroke-width="1.5" points="490.96,-279 496.05,-288.29 497.86,-277.85 490.96,-279"/>
</a>
</g>
<g id="a_edge20&#45;label"><a xlink:href="#goToUserCart" xlink:title="&lt;TABLE&gt;" target="_parent">
<g id="a_edge20_31"><a xlink:href="#goToUserCart" xlink:title="ユーザーカートへ移動 (safe)" target="_parent">
<text xml:space="preserve" text-anchor="start" x="499.71" y="-261.65" font-family="Times,serif" font-size="13.00" fill="#00a86b">■</text>
<text xml:space="preserve" text-anchor="start" x="507.21" y="-261.65" font-family="Times,serif" font-size="13.00"> goToUserCart</text>
</a>
</g>
</a>
</g>
</g>
<!-- UserCheckoutPage&#45;&gt;UserOrderDetailPage -->
<g id="edge19" class="edge doPlaceOrder">
<title>UserCheckoutPage&#45;&gt;UserOrderDetailPage</title>
<g id="a_edge19"><a xlink:href="#doPlaceOrder" xlink:title="&lt;TABLE&gt;" target="_parent">
<path fill="none" stroke="black" stroke-width="1.5" d="M647.62,-203.8C650.62,-192.7 654.6,-177.97 658.09,-165.08"/>
<polygon fill="black" stroke="black" stroke-width="1.5" points="661.41,-166.23 660.64,-155.66 654.65,-164.4 661.41,-166.23"/>
</a>
</g>
<g id="a_edge19&#45;label"><a xlink:href="#doPlaceOrder" xlink:title="&lt;TABLE&gt;" target="_parent">
<g id="a_edge19_32"><a xlink:href="#doPlaceOrder" xlink:title="注文確定 (unsafe)" target="_parent">
<text xml:space="preserve" text-anchor="start" x="655.84" y="-174.65" font-family="Times,serif" font-size="13.00" fill="#ff4136">■</text>
<text xml:space="preserve" text-anchor="start" x="663.34" y="-174.65" font-family="Times,serif" font-size="13.00"> doPlaceOrder</text>
</a>
</g>
</a>
</g>
</g>
<!-- UserOrderDetailPage&#45;&gt;UserHomePage -->
<g id="edge26" class="edge goToUserHome">
<title>UserOrderDetailPage&#45;&gt;UserHomePage</title>
<g id="a_edge26"><a xlink:href="#goToUserHome" xlink:title="&lt;TABLE&gt;" target="_parent">
<path fill="none" stroke="black" stroke-width="1.5" d="M746.04,-139.4C801.34,-146.56 864.96,-166.62 864.96,-221 864.96,-529 864.96,-529 864.96,-529 864.96,-568.87 754.84,-592.66 676.57,-604.53"/>
<polygon fill="black" stroke="black" stroke-width="1.5" points="676.42,-601.02 667.03,-605.93 677.44,-607.94 676.42,-601.02"/>
</a>
</g>
<g id="a_edge26&#45;label"><a xlink:href="#goToUserHome" xlink:title="&lt;TABLE&gt;" target="_parent">
<g id="a_edge26_33"><a xlink:href="#goToUserHome" xlink:title="ユーザーホームへ移動 (safe)" target="_parent">
<text xml:space="preserve" text-anchor="start" x="864.96" y="-371.15" font-family="Times,serif" font-size="13.00" fill="#00a86b">■</text>
<text xml:space="preserve" text-anchor="start" x="872.46" y="-371.15" font-family="Times,serif" font-size="13.00"> goToUserHome</text>
</a>
</g>
</a>
</g>
</g>
<!-- UserOrderDetailPage&#45;&gt;UserOrderHistoryPage -->
<g id="edge25" class="edge goToUserOrderHistory">
<title>UserOrderDetailPage&#45;&gt;UserOrderHistoryPage</title>
<g id="a_edge25"><a xlink:href="#goToUserOrderHistory" xlink:title="&lt;TABLE&gt;" target="_parent">
<path fill="none" stroke="black" stroke-width="1.5" d="M745.86,-125.45C766.08,-120.26 786.66,-112.03 802.96,-99 820.51,-84.98 809.84,-69.64 825.96,-54 830.37,-49.72 835.41,-45.89 840.73,-42.47"/>
<polygon fill="black" stroke="black" stroke-width="1.5" points="842.35,-45.58 849.26,-37.55 838.85,-39.51 842.35,-45.58"/>
</a>
</g>
<g id="a_edge25&#45;label"><a xlink:href="#goToUserOrderHistory" xlink:title="&lt;TABLE&gt;" target="_parent">
<g id="a_edge25_34"><a xlink:href="#goToUserOrderHistory" xlink:title="ユーザー注文履歴へ移動 (safe)" target="_parent">
<text xml:space="preserve" text-anchor="start" x="825.96" y="-72.65" font-family="Times,serif" font-size="13.00" fill="#00a86b">■</text>
<text xml:space="preserve" text-anchor="start" x="833.46" y="-72.65" font-family="Times,serif" font-size="13.00"> goToUserOrderHistory</text>
</a>
</g>
</a>
</g>
</g>
<!-- UserReturnRefundPage -->
<g id="node12" class="node">
<title>UserReturnRefundPage</title>
<g id="a_node12"><a xlink:href="#UserReturnRefundPage" xlink:title="UserReturnRefundPage" target="_parent">
<polygon fill="lightgray" stroke="black" stroke-width="2" points="521.69,-36 350.24,-36 350.24,0 521.69,0 521.69,-36"/>
<text xml:space="preserve" text-anchor="middle" x="435.96" y="-12.95" font-family="Times,serif" font-size="14.00">UserReturnRefundPage</text>
</a>
</g>
</g>
<!-- UserOrderDetailPage&#45;&gt;UserReturnRefundPage -->
<g id="edge27" class="edge goToUserReturnRefund">
<title>UserOrderDetailPage&#45;&gt;UserReturnRefundPage</title>
<g id="a_edge27"><a xlink:href="#goToUserReturnRefund" xlink:title="&lt;TABLE&gt;" target="_parent">
<path fill="none" stroke="black" stroke-width="1.5" d="M585.78,-128.93C560.3,-124.04 533.35,-115.11 512.46,-99 494.59,-85.22 504.08,-70.75 488.96,-54 485.59,-50.27 481.75,-46.76 477.7,-43.51"/>
<polygon fill="black" stroke="black" stroke-width="1.5" points="479.98,-40.84 469.84,-37.75 475.84,-46.49 479.98,-40.84"/>
</a>
</g>
<g id="a_edge27&#45;label"><a xlink:href="#goToUserReturnRefund" xlink:title="&lt;TABLE&gt;" target="_parent">
<g id="a_edge27_35"><a xlink:href="#goToUserReturnRefund" xlink:title="返品/払い戻しページへ移動 (safe)" target="_parent">
<text xml:space="preserve" text-anchor="start" x="512.46" y="-72.65" font-family="Times,serif" font-size="13.00" fill="#00a86b">■</text>
<text xml:space="preserve" text-anchor="start" x="519.96" y="-72.65" font-family="Times,serif" font-size="13.00"> goToUserReturnRefund</text>
</a>
</g>
</a>
</g>
</g>
<!-- UserReturnRefundPage&#45;&gt;UserOrderDetailPage -->
<g id="edge31" class="edge doRequestReturn">
<title>UserReturnRefundPage&#45;&gt;UserOrderDetailPage</title>
<g id="a_edge31"><a xlink:href="#doRequestReturn" xlink:title="&lt;TABLE&gt;" target="_parent">
<path fill="none" stroke="black" stroke-width="1.5" d="M376.18,-36.4C368.78,-40.97 362.17,-46.74 357.46,-54 346.57,-70.78 344.14,-84.08 357.46,-99 371.78,-115.04 488.12,-124.68 573.72,-129.67"/>
<polygon fill="black" stroke="black" stroke-width="1.5" points="573.4,-133.16 583.58,-130.23 573.8,-126.17 573.4,-133.16"/>
</a>
</g>
<g id="a_edge31&#45;label"><a xlink:href="#doRequestReturn" xlink:title="&lt;TABLE&gt;" target="_parent">
<g id="a_edge31_36"><a xlink:href="#doRequestReturn" xlink:title="返品リクエスト (unsafe)" target="_parent">
<text xml:space="preserve" text-anchor="start" x="357.46" y="-87.65" font-family="Times,serif" font-size="13.00" fill="#ff4136">■</text>
<text xml:space="preserve" text-anchor="start" x="364.96" y="-87.65" font-family="Times,serif" font-size="13.00"> doRequestReturn</text>
</a>
</g>
<g id="a_edge31_37"><a xlink:href="#doRequestRefund" xlink:title="払い戻しリクエスト (unsafe)" target="_parent">
<text xml:space="preserve" text-anchor="start" x="357.46" y="-72.65" font-family="Times,serif" font-size="13.00" fill="#ff4136">■</text>
<text xml:space="preserve" text-anchor="start" x="364.96" y="-72.65" font-family="Times,serif" font-size="13.00"> doRequestRefund</text>
</a>
</g>
<g id="a_edge31_38"><a xlink:href="#goToUserOrderDetail" xlink:title="ユーザー注文詳細へ移動 (safe)" target="_parent">
<text xml:space="preserve" text-anchor="start" x="357.46" y="-57.65" font-family="Times,serif" font-size="13.00" fill="#00a86b">■</text>
<text xml:space="preserve" text-anchor="start" x="364.96" y="-57.65" font-family="Times,serif" font-size="13.00"> goToUserOrderDetail</text>
</a>
</g>
</a>
</g>
</g>
</g>
</svg>
