<?xml version="1.0" encoding="UTF-8" standalone="no"?>
<!DOCTYPE svg PUBLIC "-//W3C//DTD SVG 1.1//EN"
 "http://www.w3.org/Graphics/SVG/1.1/DTD/svg11.dtd">
<!-- Generated by graphviz version 2.44.1 (20200629.0846)
 -->
<!-- Title: application_state_diagram Pages: 1 -->
<svg width="673pt" height="536pt"
 viewBox="0.00 0.00 672.50 536.00" xmlns="http://www.w3.org/2000/svg" xmlns:xlink="http://www.w3.org/1999/xlink">
<g id="graph0" class="graph" transform="scale(1 1) rotate(0) translate(4 532)">
<title>application_state_diagram</title>
<g id="a_graph0"><a xlink:href="index.html" xlink:title="MVC ToDo List">
<polygon fill="white" stroke="transparent" points="-4,4 -4,-532 668.5,-532 668.5,4 -4,4"/>
<text text-anchor="middle" x="332.25" y="-7.8" font-family="Helvetica,sans-Serif" font-size="14.00">MVC ToDo List</text>
</a>
</g>
<!-- todoList -->
<g id="node1" class="node">
<title>todoList</title>
<g id="a_node1"><a xlink:href="docs/semantic.todoList.html" xlink:title="&lt;TABLE&gt;">
<polygon fill="none" stroke="black" points="380,-497.5 299,-497.5 299,-423.5 380,-423.5 380,-497.5"/>
<polygon fill="#dddddd" stroke="transparent" points="300.5,-424.5 300.5,-496.5 379.5,-496.5 379.5,-424.5 300.5,-424.5"/>
<polygon fill="none" stroke="black" points="300.5,-424.5 300.5,-496.5 379.5,-496.5 379.5,-424.5 300.5,-424.5"/>
<text text-anchor="start" x="317" y="-479.3" font-family="Times,serif" font-size="14.00">todoList</text>
<text text-anchor="start" x="330" y="-464.3" font-family="Times,serif" font-size="14.00">(id)</text>
<text text-anchor="start" x="324.5" y="-449.3" font-family="Times,serif" font-size="14.00">(title)</text>
<text text-anchor="start" x="306.5" y="-434.3" font-family="Times,serif" font-size="14.00">(completed)</text>
</a>
</g>
</g>
<!-- todoList&#45;&gt;todoList -->
<g id="edge7" class="edge">
<title>todoList&#45;&gt;todoList</title>
<path fill="none" stroke="black" d="M380.23,-479.73C390.4,-478.39 398,-471.98 398,-460.5 398,-453.15 394.88,-447.87 389.97,-444.68"/>
<polygon fill="black" stroke="black" points="390.83,-441.27 380.23,-441.27 388.51,-447.88 390.83,-441.27"/>
<g id="a_edge7_0"><a xlink:href="docs/safe.listAll.html" xlink:title="&lt;TABLE&gt;">
<text text-anchor="start" x="402.5" y="-513.9" font-family="Times,serif" font-size="12.00">listAll (safe)</text>
</a>
</g>
<g id="a_edge7_1"><a xlink:href="docs/safe.listActive.html" xlink:title="&lt;TABLE&gt;">
<text text-anchor="start" x="402.5" y="-494.9" font-family="Times,serif" font-size="12.00">listActive (safe)</text>
</a>
</g>
<g id="a_edge7_2"><a xlink:href="docs/safe.listCompleted.html" xlink:title="&lt;TABLE&gt;">
<text text-anchor="start" x="402.5" y="-475.9" font-family="Times,serif" font-size="12.00">listCompleted (safe)</text>
</a>
</g>
<g id="a_edge7_3"><a xlink:href="docs/safe.goFirst.html" xlink:title="&lt;TABLE&gt;">
<text text-anchor="start" x="402.5" y="-456.9" font-family="Times,serif" font-size="12.00">goFirst (safe)</text>
</a>
</g>
<g id="a_edge7_4"><a xlink:href="docs/safe.goNext.html" xlink:title="&lt;TABLE&gt;">
<text text-anchor="start" x="402.5" y="-437.9" font-family="Times,serif" font-size="12.00">goNext (safe)</text>
</a>
</g>
<g id="a_edge7_5"><a xlink:href="docs/safe.goPrevious.html" xlink:title="&lt;TABLE&gt;">
<text text-anchor="start" x="402.5" y="-418.9" font-family="Times,serif" font-size="12.00">goPrevious (safe)</text>
</a>
</g>
<g id="a_edge7_6"><a xlink:href="docs/safe.goLast.html" xlink:title="&lt;TABLE&gt;">
<text text-anchor="start" x="402.5" y="-399.9" font-family="Times,serif" font-size="12.00">goLast (safe)</text>
</a>
</g>
</g>
<!-- todoItem -->
<g id="node2" class="node">
<title>todoItem</title>
<g id="a_node2"><a xlink:href="docs/semantic.todoItem.html" xlink:title="&lt;TABLE&gt;">
<polygon fill="none" stroke="black" points="81,-315 0,-315 0,-241 81,-241 81,-315"/>
<polygon fill="#dddddd" stroke="transparent" points="1.5,-242 1.5,-314 80.5,-314 80.5,-242 1.5,-242"/>
<polygon fill="none" stroke="black" points="1.5,-242 1.5,-314 80.5,-314 80.5,-242 1.5,-242"/>
<text text-anchor="start" x="16" y="-296.8" font-family="Times,serif" font-size="14.00">todoItem</text>
<text text-anchor="start" x="31" y="-281.8" font-family="Times,serif" font-size="14.00">(id)</text>
<text text-anchor="start" x="25.5" y="-266.8" font-family="Times,serif" font-size="14.00">(title)</text>
<text text-anchor="start" x="7.5" y="-251.8" font-family="Times,serif" font-size="14.00">(completed)</text>
</a>
</g>
</g>
<!-- todoList&#45;&gt;todoItem -->
<g id="edge6" class="edge">
<title>todoList&#45;&gt;todoItem</title>
<path fill="none" stroke="black" d="M298.54,-458.88C238.42,-455.68 126.7,-440.6 64.5,-375 51.85,-361.66 45.58,-342.7 42.57,-325.15"/>
<polygon fill="black" stroke="black" points="46.01,-324.45 41.15,-315.03 39.08,-325.42 46.01,-324.45"/>
<g id="a_edge6_7"><a xlink:href="docs/safe.read.html" xlink:title="&lt;TABLE&gt;">
<text text-anchor="start" x="69" y="-361.4" font-family="Times,serif" font-size="12.00">read (safe)</text>
</a>
</g>
<g id="a_edge6_8"><a xlink:href="docs/unsafe.add.html" xlink:title="&lt;TABLE&gt;">
<text text-anchor="start" x="69" y="-342.4" font-family="Times,serif" font-size="12.00">add (unsafe)</text>
</a>
</g>
</g>
<!-- home -->
<g id="node3" class="node">
<title>home</title>
<g id="a_node3"><a xlink:href="docs/semantic.home.html" xlink:title="home">
<polygon fill="lightgrey" stroke="black" stroke-width="2" points="496.5,-59 442.5,-59 442.5,-23 496.5,-23 496.5,-59"/>
<text text-anchor="middle" x="469.5" y="-37.3" font-family="Times,serif" font-size="14.00">home</text>
</a>
</g>
</g>
<!-- todoList&#45;&gt;home -->
<g id="edge8" class="edge">
<title>todoList&#45;&gt;home</title>
<g id="a_edge8"><a xlink:href="docs/safe.goHome.html" xlink:title="goHome (safe)">
<path fill="none" stroke="black" d="M380.27,-433.22C415.08,-408.13 462.71,-366.82 483.5,-317 491.32,-298.26 494.65,-152.99 481.5,-77 481.03,-74.3 480.39,-71.54 479.64,-68.8"/>
<polygon fill="black" stroke="black" points="482.95,-67.64 476.6,-59.16 476.27,-69.75 482.95,-67.64"/>
</a>
</g>
<g id="a_edge8&#45;label"><a xlink:href="docs/safe.goHome.html" xlink:title="goHome (safe)">
<text text-anchor="middle" x="525" y="-188.4" font-family="Times,serif" font-size="12.00">goHome (safe)</text>
</a>
</g>
</g>
<!-- related -->
<g id="node4" class="node">
<title>related</title>
<g id="a_node4"><a xlink:href="docs/semantic.related.html" xlink:title="related">
<polygon fill="lightgrey" stroke="black" stroke-width="2" points="317.5,-144 263.5,-144 263.5,-108 317.5,-108 317.5,-144"/>
<text text-anchor="middle" x="290.5" y="-122.3" font-family="Times,serif" font-size="14.00">related</text>
</a>
</g>
</g>
<!-- todoList&#45;&gt;related -->
<g id="edge9" class="edge">
<title>todoList&#45;&gt;related</title>
<g id="a_edge9"><a xlink:href="docs/safe.goRelated.html" xlink:title="goRelated (safe)">
<path fill="none" stroke="black" d="M320.62,-423.47C307,-395.34 289.78,-354.81 282.5,-317 271.5,-259.9 279.42,-191.44 285.44,-154.28"/>
<polygon fill="black" stroke="black" points="288.92,-154.67 287.14,-144.23 282.02,-153.5 288.92,-154.67"/>
</a>
</g>
<g id="a_edge9&#45;label"><a xlink:href="docs/safe.goRelated.html" xlink:title="goRelated (safe)">
<text text-anchor="middle" x="321.5" y="-274.9" font-family="Times,serif" font-size="12.00">goRelated (safe)</text>
</a>
</g>
</g>
<!-- todoItem&#45;&gt;todoList -->
<g id="edge10" class="edge">
<title>todoItem&#45;&gt;todoList</title>
<path fill="none" stroke="black" d="M81.28,-299.71C97.85,-309.2 116.56,-321.37 131.5,-335 147.92,-349.98 144.29,-360.94 161.5,-375 199.67,-406.2 251.28,-429.05 289.1,-443.07"/>
<polygon fill="black" stroke="black" points="288.29,-446.5 298.88,-446.61 290.67,-439.92 288.29,-446.5"/>
<g id="a_edge10_9"><a xlink:href="docs/safe.listAll.html" xlink:title="&lt;TABLE&gt;">
<text text-anchor="start" x="166" y="-361.4" font-family="Times,serif" font-size="12.00">listAll (safe)</text>
</a>
</g>
<g id="a_edge10_10"><a xlink:href="docs/idempotent.remove.html" xlink:title="&lt;TABLE&gt;">
<text text-anchor="start" x="166" y="-342.4" font-family="Times,serif" font-size="12.00">remove (idempotent)</text>
</a>
</g>
</g>
<!-- todoItem&#45;&gt;todoItem -->
<g id="edge11" class="edge">
<title>todoItem&#45;&gt;todoItem</title>
<path fill="none" stroke="black" d="M81.23,-292.05C91.4,-291.07 99,-286.39 99,-278 99,-272.63 95.88,-268.77 90.97,-266.44"/>
<polygon fill="black" stroke="black" points="91.79,-263.04 81.23,-263.95 90.05,-269.82 91.79,-263.04"/>
<g id="a_edge11_11"><a xlink:href="docs/idempotent.edit.html" xlink:title="&lt;TABLE&gt;">
<text text-anchor="start" x="103.5" y="-293.4" font-family="Times,serif" font-size="12.00">edit (idempotent)</text>
</a>
</g>
<g id="a_edge11_12"><a xlink:href="docs/idempotent.markCompleted.html" xlink:title="&lt;TABLE&gt;">
<text text-anchor="start" x="103.5" y="-274.4" font-family="Times,serif" font-size="12.00">markCompleted (idempotent)</text>
</a>
</g>
<g id="a_edge11_13"><a xlink:href="docs/idempotent.clearCompleted.html" xlink:title="&lt;TABLE&gt;">
<text text-anchor="start" x="103.5" y="-255.4" font-family="Times,serif" font-size="12.00">clearCompleted (idempotent)</text>
</a>
</g>
</g>
<!-- todoItem&#45;&gt;related -->
<g id="edge12" class="edge">
<title>todoItem&#45;&gt;related</title>
<g id="a_edge12"><a xlink:href="docs/safe.goRelated.html" xlink:title="goRelated (safe)">
<path fill="none" stroke="black" d="M33.03,-240.94C30.04,-215.58 31.04,-182.63 50.5,-162 77.42,-133.47 192.28,-127.93 252.81,-127.03"/>
<polygon fill="black" stroke="black" points="253.14,-130.52 263.1,-126.91 253.06,-123.52 253.14,-130.52"/>
</a>
</g>
<g id="a_edge12&#45;label"><a xlink:href="docs/safe.goRelated.html" xlink:title="goRelated (safe)">
<text text-anchor="middle" x="89.5" y="-188.4" font-family="Times,serif" font-size="12.00">goRelated (safe)</text>
</a>
</g>
</g>
<!-- home&#45;&gt;todoList -->
<g id="edge1" class="edge">
<title>home&#45;&gt;todoList</title>
<g id="a_edge1"><a xlink:href="docs/safe.listAll.html" xlink:title="listAll (safe)">
<path fill="none" stroke="black" d="M496.85,-50.5C512.3,-56.25 531.3,-65 545.5,-77 598.19,-121.54 615.86,-153.12 603.5,-221 590.4,-292.95 596.46,-322.54 545.5,-375 503.47,-418.27 436.14,-440.19 389.96,-450.7"/>
<polygon fill="black" stroke="black" points="389.19,-447.29 380.16,-452.84 390.68,-454.13 389.19,-447.29"/>
</a>
</g>
<g id="a_edge1&#45;label"><a xlink:href="docs/safe.listAll.html" xlink:title="listAll (safe)">
<text text-anchor="middle" x="635.5" y="-188.4" font-family="Times,serif" font-size="12.00">listAll (safe)</text>
</a>
</g>
</g>
<!-- home&#45;&gt;related -->
<g id="edge2" class="edge">
<title>home&#45;&gt;related</title>
<g id="a_edge2"><a xlink:href="docs/safe.goRelated.html" xlink:title="goRelated (safe)">
<path fill="none" stroke="black" d="M442.42,-56.13C423.31,-65.95 397.03,-79.17 373.5,-90 358.49,-96.91 341.74,-104.07 327.24,-110.11"/>
<polygon fill="black" stroke="black" points="325.51,-107.03 317.61,-114.09 328.18,-113.5 325.51,-107.03"/>
</a>
</g>
<g id="a_edge2&#45;label"><a xlink:href="docs/safe.goRelated.html" xlink:title="goRelated (safe)">
<text text-anchor="middle" x="438.5" y="-80.4" font-family="Times,serif" font-size="12.00">goRelated (safe)</text>
</a>
</g>
</g>
<!-- related&#45;&gt;todoList -->
<g id="edge4" class="edge">
<title>related&#45;&gt;todoList</title>
<path fill="none" stroke="black" d="M306.73,-144.31C324.88,-164.99 353.23,-201.5 364.5,-239 382.08,-297.49 368.3,-368.08 355.26,-413.37"/>
<polygon fill="black" stroke="black" points="351.84,-412.61 352.33,-423.19 358.54,-414.61 351.84,-412.61"/>
<g id="a_edge4_14"><a xlink:href="docs/safe.listAll.html" xlink:title="&lt;TABLE&gt;">
<text text-anchor="start" x="377" y="-303.4" font-family="Times,serif" font-size="12.00">listAll (safe)</text>
</a>
</g>
<g id="a_edge4_15"><a xlink:href="docs/safe.listActive.html" xlink:title="&lt;TABLE&gt;">
<text text-anchor="start" x="377" y="-284.4" font-family="Times,serif" font-size="12.00">listActive (safe)</text>
</a>
</g>
<g id="a_edge4_16"><a xlink:href="docs/safe.listCompleted.html" xlink:title="&lt;TABLE&gt;">
<text text-anchor="start" x="377" y="-265.4" font-family="Times,serif" font-size="12.00">listCompleted (safe)</text>
</a>
</g>
<g id="a_edge4_17"><a xlink:href="docs/idempotent.remove.html" xlink:title="&lt;TABLE&gt;">
<text text-anchor="start" x="377" y="-246.4" font-family="Times,serif" font-size="12.00">remove (idempotent)</text>
</a>
</g>
</g>
<!-- related&#45;&gt;todoItem -->
<g id="edge5" class="edge">
<title>related&#45;&gt;todoItem</title>
<path fill="none" stroke="black" d="M263.43,-130.94C239.66,-135.41 204.98,-144.5 179.5,-162 151.86,-180.98 157.65,-198.83 132.5,-221 119.72,-232.26 104.39,-242.6 89.94,-251.25"/>
<polygon fill="black" stroke="black" points="87.96,-248.35 81.08,-256.4 91.49,-254.39 87.96,-248.35"/>
<g id="a_edge5_18"><a xlink:href="docs/safe.read.html" xlink:title="&lt;TABLE&gt;">
<text text-anchor="start" x="184" y="-206.9" font-family="Times,serif" font-size="12.00">read (safe)</text>
</a>
</g>
<g id="a_edge5_19"><a xlink:href="docs/unsafe.add.html" xlink:title="&lt;TABLE&gt;">
<text text-anchor="start" x="184" y="-187.9" font-family="Times,serif" font-size="12.00">add (unsafe)</text>
</a>
</g>
<g id="a_edge5_20"><a xlink:href="docs/idempotent.edit.html" xlink:title="&lt;TABLE&gt;">
<text text-anchor="start" x="184" y="-168.9" font-family="Times,serif" font-size="12.00">edit (idempotent)</text>
</a>
</g>
</g>
<!-- related&#45;&gt;home -->
<g id="edge3" class="edge">
<title>related&#45;&gt;home</title>
<g id="a_edge3"><a xlink:href="docs/safe.goHome.html" xlink:title="goHome (safe)">
<path fill="none" stroke="black" d="M288.87,-107.78C288.88,-97.54 290.76,-85.03 298.5,-77 316.56,-58.27 387.34,-48.92 431.98,-44.79"/>
<polygon fill="black" stroke="black" points="432.52,-48.26 442.17,-43.9 431.91,-41.28 432.52,-48.26"/>
</a>
</g>
<g id="a_edge3&#45;label"><a xlink:href="docs/safe.goHome.html" xlink:title="goHome (safe)">
<text text-anchor="middle" x="334" y="-80.4" font-family="Times,serif" font-size="12.00">goHome (safe)</text>
</a>
</g>
</g>
</g>
</svg>
