<?xml version="1.0" encoding="UTF-8" standalone="no"?>
<!DOCTYPE svg PUBLIC "-//W3C//DTD SVG 1.1//EN"
 "http://www.w3.org/Graphics/SVG/1.1/DTD/svg11.dtd">
<!-- Generated by graphviz version 9.0.0 (20230911.1827)
 -->
<!-- Title: application_state_diagram Pages: 1 -->
<svg width="555pt" height="294pt"
 viewBox="0.00 0.00 554.50 293.76" xmlns="http://www.w3.org/2000/svg" xmlns:xlink="http://www.w3.org/1999/xlink">
<g id="graph0" class="graph" transform="scale(1 1) rotate(0) translate(4 289.76)">
<title>application_state_diagram</title>
<g id="a_graph0"><a xlink:href="index.html" xlink:title="ALPS Blog" target="_parent">
<polygon fill="white" stroke="none" points="-4,4 -4,-289.76 550.5,-289.76 550.5,4 -4,4"/>
<text text-anchor="middle" x="273.25" y="-268.46" font-family="Helvetica,sans-Serif" font-size="14.00">ALPS Blog</text>
</a>
</g>
<!-- Blog -->
<g id="node1" class="node">
<title>Blog</title>
<g id="a_node1"><a xlink:href="#Blog" xlink:title="&lt;TABLE&gt;" target="_parent">
<polygon fill="lightgray" stroke="black" stroke-width="2" points="293.07,-175.76 204.44,-175.76 204.44,-129.88 293.07,-129.88 293.07,-175.76"/>
<text text-anchor="start" x="235.63" y="-156.02" font-family="Times,serif" font-size="14.00">Blog</text>
<text text-anchor="start" x="210.88" y="-139.52" font-family="Times,serif" font-size="14.00">(BlogPosting)</text>
</a>
</g>
</g>
<!-- Blog&#45;&gt;Blog -->
<g id="edge3" class="edge doPost">
<title>Blog&#45;&gt;Blog</title>
<g id="a_edge3"><a xlink:href="#doPost" xlink:title="doPost, collection (unsafe)" target="_parent">
<path fill="none" stroke="black" stroke-width="1.5" d="M293.57,-161.68C303.67,-160.88 311.07,-157.93 311.07,-152.82 311.07,-150.11 308.98,-148 305.51,-146.5"/>
<polygon fill="black" stroke="black" stroke-width="1.5" points="306.3,-143.09 295.79,-144.43 304.84,-149.94 306.3,-143.09"/>
</a>
</g>
<g id="a_edge3&#45;label"><a xlink:href="#doPost" xlink:title="doPost, collection (unsafe)" target="_parent">
<text text-anchor="start" x="311.07" y="-147.97" font-family="Times,serif" font-size="13.00">doPost, collection (unsafe)</text>
</a>
</g>
</g>
<!-- BlogPosting -->
<g id="node2" class="node">
<title>BlogPosting</title>
<g id="a_node2"><a xlink:href="#BlogPosting" xlink:title="&lt;TABLE&gt;" target="_parent">
<polygon fill="lightgray" stroke="black" stroke-width="2" points="130.94,-78.88 44.56,-78.88 44.56,0 130.94,0 130.94,-78.88"/>
<text text-anchor="start" x="54.38" y="-59.14" font-family="Times,serif" font-size="14.00">BlogPosting</text>
<text text-anchor="start" x="78" y="-42.64" font-family="Times,serif" font-size="14.00">(id)</text>
<text text-anchor="start" x="51" y="-26.14" font-family="Times,serif" font-size="14.00">(dateCreated)</text>
<text text-anchor="start" x="51.75" y="-9.64" font-family="Times,serif" font-size="14.00">(articleBody)</text>
</a>
</g>
</g>
<!-- Blog&#45;&gt;BlogPosting -->
<g id="edge4" class="edge goBlogPosting">
<title>Blog&#45;&gt;BlogPosting</title>
<g id="a_edge4"><a xlink:href="#goBlogPosting" xlink:title="goBlogPosting, item (safe)" target="_parent">
<path fill="none" stroke="black" stroke-width="1.5" d="M204.02,-151.12C140.87,-149.08 30.47,-141.28 5.5,-111.88 -9.85,-93.8 9.59,-76.28 33.41,-63.12"/>
<polygon fill="black" stroke="black" stroke-width="1.5" points="34.87,-66.31 42.16,-58.62 31.67,-60.08 34.87,-66.31"/>
</a>
</g>
<g id="a_edge4&#45;label"><a xlink:href="#goBlogPosting" xlink:title="goBlogPosting, item (safe)" target="_parent">
<text text-anchor="start" x="5.75" y="-99.53" font-family="Times,serif" font-size="13.00">goBlogPosting, item (safe)</text>
</a>
</g>
</g>
<!-- About -->
<g id="node3" class="node">
<title>About</title>
<g id="a_node3"><a xlink:href="#About" xlink:title="About" target="_parent">
<polygon fill="lightgray" stroke="black" stroke-width="2" points="405.75,-57.44 351.75,-57.44 351.75,-21.44 405.75,-21.44 405.75,-57.44"/>
<text text-anchor="middle" x="378.75" y="-34.39" font-family="Times,serif" font-size="14.00">About</text>
</a>
</g>
</g>
<!-- Blog&#45;&gt;About -->
<g id="edge2" class="edge goAbout">
<title>Blog&#45;&gt;About</title>
<g id="a_edge2"><a xlink:href="#goAbout" xlink:title="goAbout (safe)" target="_parent">
<path fill="none" stroke="black" stroke-width="1.5" d="M281.94,-129.38C289.6,-123.87 297.59,-117.84 304.75,-111.88 321.76,-97.74 339.64,-80.56 353.56,-66.59"/>
<polygon fill="black" stroke="black" stroke-width="1.5" points="355.96,-69.13 360.49,-59.55 350.98,-64.22 355.96,-69.13"/>
</a>
</g>
<g id="a_edge2&#45;label"><a xlink:href="#goAbout" xlink:title="goAbout (safe)" target="_parent">
<text text-anchor="start" x="321.75" y="-99.53" font-family="Times,serif" font-size="13.00">goAbout (safe)</text>
</a>
</g>
</g>
<!-- BlogPosting&#45;&gt;Blog -->
<g id="edge5" class="edge goBlog">
<title>BlogPosting&#45;&gt;Blog</title>
<g id="a_edge5"><a xlink:href="#goBlog" xlink:title="goBlog, collection (safe)" target="_parent">
<path fill="none" stroke="black" stroke-width="1.5" d="M129.26,-79.2C144.35,-92.9 159.73,-106.3 168,-111.88 175.84,-117.17 184.49,-122.19 193.11,-126.77"/>
<polygon fill="black" stroke="black" stroke-width="1.5" points="191.45,-129.85 201.95,-131.29 194.64,-123.62 191.45,-129.85"/>
</a>
</g>
<g id="a_edge5&#45;label"><a xlink:href="#goBlog" xlink:title="goBlog, collection (safe)" target="_parent">
<text text-anchor="start" x="168.75" y="-99.53" font-family="Times,serif" font-size="13.00">goBlog, collection (safe)</text>
</a>
</g>
</g>
<!-- About&#45;&gt;Blog -->
<g id="edge1" class="edge goBlog">
<title>About&#45;&gt;Blog</title>
<g id="a_edge1"><a xlink:href="#goBlog" xlink:title="goBlog, collection (safe)" target="_parent">
<path fill="none" stroke="black" stroke-width="1.5" d="M395.32,-57.65C408.06,-73.02 421.51,-95.55 408.75,-111.88 395.95,-128.27 346.13,-138.93 305.44,-145.07"/>
<polygon fill="black" stroke="black" stroke-width="1.5" points="305.08,-141.59 295.68,-146.47 306.07,-148.52 305.08,-141.59"/>
</a>
</g>
<g id="a_edge1&#45;label"><a xlink:href="#goBlog" xlink:title="goBlog, collection (safe)" target="_parent">
<text text-anchor="start" x="413.75" y="-99.53" font-family="Times,serif" font-size="13.00">goBlog, collection (safe)</text>
</a>
</g>
</g>
<!-- Index -->
<g id="node4" class="node">
<title>Index</title>
<g id="a_node4"><a xlink:href="#Index" xlink:title="Index" target="_parent">
<polygon fill="lightgray" stroke="black" stroke-width="2" points="275.75,-262.76 221.75,-262.76 221.75,-226.76 275.75,-226.76 275.75,-262.76"/>
<text text-anchor="middle" x="248.75" y="-239.71" font-family="Times,serif" font-size="14.00">Index</text>
</a>
</g>
</g>
<!-- Index&#45;&gt;Blog -->
<g id="edge6" class="edge goBlog">
<title>Index&#45;&gt;Blog</title>
<g id="a_edge6"><a xlink:href="#goBlog" xlink:title="goBlog, collection (safe)" target="_parent">
<path fill="none" stroke="black" stroke-width="1.5" d="M248.75,-226.42C248.75,-215.59 248.75,-201.26 248.75,-188.2"/>
<polygon fill="black" stroke="black" stroke-width="1.5" points="252.25,-188.5 248.75,-178.5 245.25,-188.5 252.25,-188.5"/>
</a>
</g>
<g id="a_edge6&#45;label"><a xlink:href="#goBlog" xlink:title="goBlog, collection (safe)" target="_parent">
<text text-anchor="start" x="248.75" y="-196.41" font-family="Times,serif" font-size="13.00">goBlog, collection (safe)</text>
</a>
</g>
</g>
</g>
</svg>
