<?xml version="1.0" encoding="UTF-8" standalone="no"?>
<!DOCTYPE svg PUBLIC "-//W3C//DTD SVG 1.1//EN"
 "http://www.w3.org/Graphics/SVG/1.1/DTD/svg11.dtd">
<!-- Generated by graphviz version 7.0.1 (20221109.1506)
 -->
<!-- Title: application_state_diagram Pages: 1 -->
<svg width="555pt" height="281pt"
 viewBox="0.00 0.00 555.42 281.00" xmlns="http://www.w3.org/2000/svg" xmlns:xlink="http://www.w3.org/1999/xlink">
<g id="graph0" class="graph" transform="scale(1 1) rotate(0) translate(4 277)">
<title>application_state_diagram</title>
<g id="a_graph0"><a xlink:href="index.html" xlink:title="ALPS Blog" target="_parent">
<polygon fill="white" stroke="none" points="-4,4 -4,-277 551.42,-277 551.42,4 -4,4"/>
<text text-anchor="middle" x="273.71" y="-257.8" font-family="Helvetica,sans-Serif" font-size="14.00">ALPS Blog</text>
</a>
</g>
<!-- Blog -->
<g id="node1" class="node">
<title>Blog</title>
<g id="a_node1"><a xlink:href="docs/semantic.Blog.html" xlink:title="&lt;TABLE&gt;" target="_parent">
<polygon fill="lightgray" stroke="black" stroke-width="2" points="294.92,-164 203.92,-164 203.92,-122 294.92,-122 294.92,-164"/>
<text text-anchor="start" x="210.42" y="-146.8" font-family="Times,serif" font-size="14.00">Blog Post List</text>
<text text-anchor="start" x="218.42" y="-131.8" font-family="Times,serif" font-size="14.00">(Blog Post)</text>
</a>
</g>
</g>
<!-- Blog&#45;&gt;Blog -->
<g id="edge3" class="edge">
<title>Blog&#45;&gt;Blog</title>
<g id="a_edge3"><a xlink:href="docs/unsafe.doPost.html" xlink:title="doPost, collection (unsafe)" target="_parent">
<path fill="none" stroke="black" d="M295.37,-151.39C305.53,-150.6 312.92,-147.81 312.92,-143 312.92,-140.22 310.45,-138.11 306.4,-136.68"/>
<polygon fill="black" stroke="black" points="307.34,-133.29 296.86,-134.89 306.04,-140.17 307.34,-133.29"/>
</a>
</g>
<g id="a_edge3&#45;label"><a xlink:href="docs/unsafe.doPost.html" xlink:title="doPost, collection (unsafe)" target="_parent">
<text text-anchor="start" x="312.92" y="-139.6" font-family="Times,serif" font-size="13.00">doPost, collection (unsafe)</text>
</a>
</g>
</g>
<!-- BlogPosting -->
<g id="node2" class="node">
<title>BlogPosting</title>
<g id="a_node2"><a xlink:href="docs/semantic.BlogPosting.html" xlink:title="&lt;TABLE&gt;" target="_parent">
<polygon fill="lightgray" stroke="black" stroke-width="2" points="131.42,-72 45.42,-72 45.42,0 131.42,0 131.42,-72"/>
<text text-anchor="start" x="61.42" y="-54.8" font-family="Times,serif" font-size="14.00">Blog Post</text>
<text text-anchor="start" x="58.92" y="-39.8" font-family="Times,serif" font-size="14.00">(identifier)</text>
<text text-anchor="start" x="54.42" y="-24.8" font-family="Times,serif" font-size="14.00">(create date)</text>
<text text-anchor="start" x="51.42" y="-9.8" font-family="Times,serif" font-size="14.00">(article body)</text>
</a>
</g>
</g>
<!-- Blog&#45;&gt;BlogPosting -->
<g id="edge4" class="edge">
<title>Blog&#45;&gt;BlogPosting</title>
<g id="a_edge4"><a xlink:href="docs/safe.goBlogPosting.html" xlink:title="goBlogPosting, item (safe)" target="_parent">
<path fill="none" stroke="black" d="M203.52,-141.67C140.04,-140.13 30.42,-133.19 5.42,-104 -9.87,-86.14 10.43,-69.51 34.79,-57.28"/>
<polygon fill="black" stroke="black" points="36.06,-60.55 43.63,-53.13 33.09,-54.21 36.06,-60.55"/>
</a>
</g>
<g id="a_edge4&#45;label"><a xlink:href="docs/safe.goBlogPosting.html" xlink:title="goBlogPosting, item (safe)" target="_parent">
<text text-anchor="start" x="5.42" y="-93.6" font-family="Times,serif" font-size="13.00">goBlogPosting, item (safe)</text>
</a>
</g>
</g>
<!-- About -->
<g id="node3" class="node">
<title>About</title>
<g id="a_node3"><a xlink:href="docs/semantic.About.html" xlink:title="About Us" target="_parent">
<polygon fill="lightgray" stroke="black" stroke-width="2" points="413.92,-54 344.92,-54 344.92,-18 413.92,-18 413.92,-54"/>
<text text-anchor="start" x="352.92" y="-32.3" font-family="Times,serif" font-size="14.00">About Us</text>
</a>
</g>
</g>
<!-- Blog&#45;&gt;About -->
<g id="edge2" class="edge">
<title>Blog&#45;&gt;About</title>
<g id="a_edge2"><a xlink:href="docs/safe.goAbout.html" xlink:title="goAbout (safe)" target="_parent">
<path fill="none" stroke="black" d="M281.08,-121.65C289.17,-116.14 297.76,-110.03 305.42,-104 322.13,-90.88 339.8,-74.96 353.68,-61.94"/>
<polygon fill="black" stroke="black" points="355.84,-64.71 360.69,-55.29 351.03,-59.63 355.84,-64.71"/>
</a>
</g>
<g id="a_edge2&#45;label"><a xlink:href="docs/safe.goAbout.html" xlink:title="goAbout (safe)" target="_parent">
<text text-anchor="start" x="322.42" y="-93.6" font-family="Times,serif" font-size="13.00">goAbout (safe)</text>
</a>
</g>
</g>
<!-- BlogPosting&#45;&gt;Blog -->
<g id="edge5" class="edge">
<title>BlogPosting&#45;&gt;Blog</title>
<g id="a_edge5"><a xlink:href="docs/safe.goBlog.html" xlink:title="goBlog, collection (safe)" target="_parent">
<path fill="none" stroke="black" d="M128.61,-72.29C144.07,-85.52 160.02,-98.64 168.42,-104 176.33,-109.04 185.01,-113.82 193.66,-118.18"/>
<polygon fill="black" stroke="black" points="191.87,-121.2 202.4,-122.43 194.94,-114.91 191.87,-121.2"/>
</a>
</g>
<g id="a_edge5&#45;label"><a xlink:href="docs/safe.goBlog.html" xlink:title="goBlog, collection (safe)" target="_parent">
<text text-anchor="start" x="168.42" y="-93.6" font-family="Times,serif" font-size="13.00">goBlog, collection (safe)</text>
</a>
</g>
</g>
<!-- About&#45;&gt;Blog -->
<g id="edge1" class="edge">
<title>About&#45;&gt;Blog</title>
<g id="a_edge1"><a xlink:href="docs/safe.goBlog.html" xlink:title="goBlog, collection (safe)" target="_parent">
<path fill="none" stroke="black" d="M397.35,-54.48C409.83,-68.79 422.27,-89.03 410.42,-104 397.47,-120.36 347.33,-130.4 306.41,-136.01"/>
<polygon fill="black" stroke="black" points="306.11,-132.52 296.65,-137.28 307.02,-139.46 306.11,-132.52"/>
</a>
</g>
<g id="a_edge1&#45;label"><a xlink:href="docs/safe.goBlog.html" xlink:title="goBlog, collection (safe)" target="_parent">
<text text-anchor="start" x="414.42" y="-93.6" font-family="Times,serif" font-size="13.00">goBlog, collection (safe)</text>
</a>
</g>
</g>
<!-- Index -->
<g id="node4" class="node">
<title>Index</title>
<g id="a_node4"><a xlink:href="docs/semantic.Index.html" xlink:title="Home" target="_parent">
<polygon fill="lightgray" stroke="black" stroke-width="2" points="276.42,-250 222.42,-250 222.42,-214 276.42,-214 276.42,-250"/>
<text text-anchor="start" x="232.42" y="-228.3" font-family="Times,serif" font-size="14.00">Home</text>
</a>
</g>
</g>
<!-- Index&#45;&gt;Blog -->
<g id="edge6" class="edge">
<title>Index&#45;&gt;Blog</title>
<g id="a_edge6"><a xlink:href="docs/safe.goBlog.html" xlink:title="goBlog, collection (safe)" target="_parent">
<path fill="none" stroke="black" d="M249.42,-213.81C249.42,-202.89 249.42,-188.43 249.42,-175.5"/>
<polygon fill="black" stroke="black" points="252.92,-175.72 249.42,-165.72 245.92,-175.72 252.92,-175.72"/>
</a>
</g>
<g id="a_edge6&#45;label"><a xlink:href="docs/safe.goBlog.html" xlink:title="goBlog, collection (safe)" target="_parent">
<text text-anchor="start" x="249.42" y="-185.6" font-family="Times,serif" font-size="13.00">goBlog, collection (safe)</text>
</a>
</g>
</g>
</g>
</svg>
