<?xml version="1.0" encoding="UTF-8" standalone="no"?>
<!DOCTYPE svg PUBLIC "-//W3C//DTD SVG 1.1//EN"
 "http://www.w3.org/Graphics/SVG/1.1/DTD/svg11.dtd">
<!-- Generated by graphviz version 7.1.0 (20230121.1956)
 -->
<!-- Title: application_state_diagram Pages: 1 -->
<svg width="555pt" height="281pt"
 viewBox="0.00 0.00 555.42 281.00" xmlns="http://www.w3.org/2000/svg" xmlns:xlink="http://www.w3.org/1999/xlink">
<g id="graph0" class="graph" transform="scale(1 1) rotate(0) translate(4 277)">
<title>application_state_diagram</title>
<g id="a_graph0"><a xlink:href="index.html" xlink:title="ALPS Blog" target="_parent">
<polygon fill="white" stroke="none" points="-4,4 -4,-277 551.42,-277 551.42,4 -4,4"/>
<text text-anchor="middle" x="273.71" y="-257.8" font-family="Helvetica,sans-Serif" font-size="14.00">ALPS Blog</text>
</a>
</g>
<!-- Blog -->
<g id="node1" class="node">
<title>Blog</title>
<g id="a_node1"><a xlink:href="docs/semantic.Blog.html" xlink:title="&lt;TABLE&gt;" target="_parent">
<polygon fill="lightgray" stroke="black" stroke-width="2" points="293.42,-164 205.42,-164 205.42,-122 293.42,-122 293.42,-164"/>
<text text-anchor="start" x="235.92" y="-146.8" font-family="Times,serif" font-size="14.00">Blog</text>
<text text-anchor="start" x="211.42" y="-131.8" font-family="Times,serif" font-size="14.00">(BlogPosting)</text>
</a>
</g>
</g>
<!-- Blog&#45;&gt;Blog -->
<g id="edge3" class="edge">
<title>Blog&#45;&gt;Blog</title>
<g id="a_edge3"><a xlink:href="docs/unsafe.doPost.html" xlink:title="doPost, collection (unsafe)" target="_parent">
<path fill="none" stroke="black" d="M293.73,-151.43C303.93,-150.71 311.42,-147.9 311.42,-143 311.42,-140.17 308.92,-138.04 304.83,-136.6"/>
<polygon fill="black" stroke="black" points="305.68,-133.2 295.22,-134.84 304.42,-140.08 305.68,-133.2"/>
</a>
</g>
<g id="a_edge3&#45;label"><a xlink:href="docs/unsafe.doPost.html" xlink:title="doPost, collection (unsafe)" target="_parent">
<text text-anchor="start" x="311.42" y="-139.6" font-family="Times,serif" font-size="13.00">doPost, collection (unsafe)</text>
</a>
</g>
</g>
<!-- BlogPosting -->
<g id="node2" class="node">
<title>BlogPosting</title>
<g id="a_node2"><a xlink:href="docs/semantic.BlogPosting.html" xlink:title="&lt;TABLE&gt;" target="_parent">
<polygon fill="lightgray" stroke="black" stroke-width="2" points="131.42,-72 45.42,-72 45.42,0 131.42,0 131.42,-72"/>
<text text-anchor="start" x="54.92" y="-54.8" font-family="Times,serif" font-size="14.00">BlogPosting</text>
<text text-anchor="start" x="78.42" y="-39.8" font-family="Times,serif" font-size="14.00">(id)</text>
<text text-anchor="start" x="51.42" y="-24.8" font-family="Times,serif" font-size="14.00">(dateCreated)</text>
<text text-anchor="start" x="51.92" y="-9.8" font-family="Times,serif" font-size="14.00">(articleBody)</text>
</a>
</g>
</g>
<!-- Blog&#45;&gt;BlogPosting -->
<g id="edge4" class="edge">
<title>Blog&#45;&gt;BlogPosting</title>
<g id="a_edge4"><a xlink:href="docs/safe.goBlogPosting.html" xlink:title="goBlogPosting, item (safe)" target="_parent">
<path fill="none" stroke="black" d="M205.1,-141.71C141.88,-140.24 30.62,-133.43 5.42,-104 -9.87,-86.14 10.43,-69.51 34.79,-57.28"/>
<polygon fill="black" stroke="black" points="36.06,-60.55 43.63,-53.13 33.09,-54.21 36.06,-60.55"/>
</a>
</g>
<g id="a_edge4&#45;label"><a xlink:href="docs/safe.goBlogPosting.html" xlink:title="goBlogPosting, item (safe)" target="_parent">
<text text-anchor="start" x="5.42" y="-93.6" font-family="Times,serif" font-size="13.00">goBlogPosting, item (safe)</text>
</a>
</g>
</g>
<!-- About -->
<g id="node3" class="node">
<title>About</title>
<g id="a_node3"><a xlink:href="docs/semantic.About.html" xlink:title="About" target="_parent">
<polygon fill="lightgray" stroke="black" stroke-width="2" points="406.42,-54 352.42,-54 352.42,-18 406.42,-18 406.42,-54"/>
<text text-anchor="middle" x="379.42" y="-32.3" font-family="Times,serif" font-size="14.00">About</text>
</a>
</g>
</g>
<!-- Blog&#45;&gt;About -->
<g id="edge2" class="edge">
<title>Blog&#45;&gt;About</title>
<g id="a_edge2"><a xlink:href="docs/safe.goAbout.html" xlink:title="goAbout (safe)" target="_parent">
<path fill="none" stroke="black" d="M281.08,-121.65C289.17,-116.14 297.76,-110.03 305.42,-104 322.13,-90.88 339.8,-74.96 353.68,-61.94"/>
<polygon fill="black" stroke="black" points="355.84,-64.71 360.69,-55.29 351.03,-59.63 355.84,-64.71"/>
</a>
</g>
<g id="a_edge2&#45;label"><a xlink:href="docs/safe.goAbout.html" xlink:title="goAbout (safe)" target="_parent">
<text text-anchor="start" x="321.42" y="-93.6" font-family="Times,serif" font-size="13.00">goAbout (safe)</text>
</a>
</g>
</g>
<!-- BlogPosting&#45;&gt;Blog -->
<g id="edge5" class="edge">
<title>BlogPosting&#45;&gt;Blog</title>
<g id="a_edge5"><a xlink:href="docs/safe.goBlog.html" xlink:title="goBlog, collection (safe)" target="_parent">
<path fill="none" stroke="black" d="M128.61,-72.29C144.07,-85.52 160.02,-98.64 168.42,-104 176.7,-109.28 185.83,-114.27 194.88,-118.79"/>
<polygon fill="black" stroke="black" points="193.13,-121.83 203.66,-123.03 196.18,-115.53 193.13,-121.83"/>
</a>
</g>
<g id="a_edge5&#45;label"><a xlink:href="docs/safe.goBlog.html" xlink:title="goBlog, collection (safe)" target="_parent">
<text text-anchor="start" x="168.42" y="-93.6" font-family="Times,serif" font-size="13.00">goBlog, collection (safe)</text>
</a>
</g>
</g>
<!-- About&#45;&gt;Blog -->
<g id="edge1" class="edge">
<title>About&#45;&gt;Blog</title>
<g id="a_edge1"><a xlink:href="docs/safe.goBlog.html" xlink:title="goBlog, collection (safe)" target="_parent">
<path fill="none" stroke="black" d="M397.35,-54.48C409.83,-68.79 422.27,-89.03 410.42,-104 397.31,-120.57 346.07,-130.65 304.87,-136.22"/>
<polygon fill="black" stroke="black" points="304.53,-132.74 295.06,-137.48 305.42,-139.68 304.53,-132.74"/>
</a>
</g>
<g id="a_edge1&#45;label"><a xlink:href="docs/safe.goBlog.html" xlink:title="goBlog, collection (safe)" target="_parent">
<text text-anchor="start" x="414.42" y="-93.6" font-family="Times,serif" font-size="13.00">goBlog, collection (safe)</text>
</a>
</g>
</g>
<!-- Index -->
<g id="node4" class="node">
<title>Index</title>
<g id="a_node4"><a xlink:href="docs/semantic.Index.html" xlink:title="Index" target="_parent">
<polygon fill="lightgray" stroke="black" stroke-width="2" points="276.42,-250 222.42,-250 222.42,-214 276.42,-214 276.42,-250"/>
<text text-anchor="middle" x="249.42" y="-228.3" font-family="Times,serif" font-size="14.00">Index</text>
</a>
</g>
</g>
<!-- Index&#45;&gt;Blog -->
<g id="edge6" class="edge">
<title>Index&#45;&gt;Blog</title>
<g id="a_edge6"><a xlink:href="docs/safe.goBlog.html" xlink:title="goBlog, collection (safe)" target="_parent">
<path fill="none" stroke="black" d="M249.42,-213.81C249.42,-202.89 249.42,-188.43 249.42,-175.5"/>
<polygon fill="black" stroke="black" points="252.92,-175.72 249.42,-165.72 245.92,-175.72 252.92,-175.72"/>
</a>
</g>
<g id="a_edge6&#45;label"><a xlink:href="docs/safe.goBlog.html" xlink:title="goBlog, collection (safe)" target="_parent">
<text text-anchor="start" x="249.42" y="-185.6" font-family="Times,serif" font-size="13.00">goBlog, collection (safe)</text>
</a>
</g>
</g>
</g>
</svg>
