<?xml version="1.0" encoding="UTF-8" standalone="no"?>
<!DOCTYPE svg PUBLIC "-//W3C//DTD SVG 1.1//EN"
 "http://www.w3.org/Graphics/SVG/1.1/DTD/svg11.dtd">
<!-- Generated by graphviz version 9.0.0 (20230911.1827)
 -->
<!-- Title: application_state_diagram Pages: 1 -->
<svg width="444pt" height="294pt"
 viewBox="0.00 0.00 443.53 293.76" xmlns="http://www.w3.org/2000/svg" xmlns:xlink="http://www.w3.org/1999/xlink">
<g id="graph0" class="graph" transform="scale(1 1) rotate(0) translate(4 289.76)">
<title>application_state_diagram</title>
<g id="a_graph0"><a xlink:href="index.html" xlink:title="ALPS Blog" target="_parent">
<polygon fill="white" stroke="none" points="-4,4 -4,-289.76 439.53,-289.76 439.53,4 -4,4"/>
<text text-anchor="middle" x="217.77" y="-268.46" font-family="Helvetica,sans-Serif" font-size="14.00">ALPS Blog</text>
</a>
</g>
<!-- Blog -->
<g id="node1" class="node">
<title>Blog</title>
<g id="a_node1"><a xlink:href="#Blog" xlink:title="&lt;TABLE&gt;" target="_parent">
<polygon fill="lightgray" stroke="black" stroke-width="2" points="230.97,-175.76 140.09,-175.76 140.09,-129.88 230.97,-129.88 230.97,-175.76"/>
<text text-anchor="start" x="146.53" y="-156.02" font-family="Times,serif" font-size="14.00">Blog Post List</text>
<text text-anchor="start" x="154.41" y="-139.52" font-family="Times,serif" font-size="14.00">(Blog Post)</text>
</a>
</g>
</g>
<!-- Blog&#45;&gt;Blog -->
<g id="edge3" class="edge doPost">
<title>Blog&#45;&gt;Blog</title>
<g id="a_edge3"><a xlink:href="#doPost" xlink:title="&lt;b&gt;&lt;u&gt;Post the article&lt;/u&gt;&lt;/b&gt;" target="_parent">
<path fill="none" stroke="black" stroke-width="1.5" d="M231.44,-161.66C241.58,-160.83 248.97,-157.88 248.97,-152.82 248.97,-150.13 246.89,-148.04 243.41,-146.54"/>
<polygon fill="black" stroke="black" stroke-width="1.5" points="244.17,-143.13 233.66,-144.46 242.7,-149.97 244.17,-143.13"/>
</a>
</g>
<g id="a_edge3&#45;label"><a xlink:href="#doPost" xlink:title="&lt;b&gt;&lt;u&gt;Post the article&lt;/u&gt;&lt;/b&gt;" target="_parent">
<text text-anchor="start" x="248.97" y="-148.97" font-family="Times,serif" font-weight="bold" text-decoration="underline" font-size="13.00">Post the article</text>
</a>
</g>
</g>
<!-- BlogPosting -->
<g id="node2" class="node">
<title>BlogPosting</title>
<g id="a_node2"><a xlink:href="#BlogPosting" xlink:title="&lt;TABLE&gt;" target="_parent">
<polygon fill="lightgray" stroke="black" stroke-width="2" points="104.72,-78.88 18.34,-78.88 18.34,0 104.72,0 104.72,-78.88"/>
<text text-anchor="start" x="34.91" y="-59.14" font-family="Times,serif" font-size="14.00">Blog Post</text>
<text text-anchor="start" x="32.28" y="-42.64" font-family="Times,serif" font-size="14.00">(identifier)</text>
<text text-anchor="start" x="27.78" y="-26.14" font-family="Times,serif" font-size="14.00">(create date)</text>
<text text-anchor="start" x="24.78" y="-9.64" font-family="Times,serif" font-size="14.00">(article body)</text>
</a>
</g>
</g>
<!-- Blog&#45;&gt;BlogPosting -->
<g id="edge4" class="edge goBlogPosting">
<title>Blog&#45;&gt;BlogPosting</title>
<g id="a_edge4"><a xlink:href="#goBlogPosting" xlink:title="See the blog post" target="_parent">
<path fill="none" stroke="black" stroke-width="1.5" d="M139.61,-148.09C91.8,-143.15 21.61,-132.53 5.03,-111.88 -3.8,-100.89 0.38,-88.88 9.57,-77.91"/>
<polygon fill="black" stroke="black" stroke-width="1.5" points="11.83,-80.61 16.29,-71 6.81,-75.73 11.83,-80.61"/>
</a>
</g>
<g id="a_edge4&#45;label"><a xlink:href="#goBlogPosting" xlink:title="See the blog post" target="_parent">
<text text-anchor="start" x="5.53" y="-99.53" font-family="Times,serif" font-size="13.00">See the blog post</text>
</a>
</g>
</g>
<!-- About -->
<g id="node3" class="node">
<title>About</title>
<g id="a_node3"><a xlink:href="#About" xlink:title="About Us" target="_parent">
<polygon fill="lightgray" stroke="black" stroke-width="2" points="330.78,-57.44 262.28,-57.44 262.28,-21.44 330.78,-21.44 330.78,-57.44"/>
<text text-anchor="start" x="270.28" y="-34.39" font-family="Times,serif" font-size="14.00">About Us</text>
</a>
</g>
</g>
<!-- Blog&#45;&gt;About -->
<g id="edge2" class="edge goAbout">
<title>Blog&#45;&gt;About</title>
<g id="a_edge2"><a xlink:href="#goAbout" xlink:title="Go to About" target="_parent">
<path fill="none" stroke="black" stroke-width="1.5" d="M211.63,-129.44C217.93,-123.82 224.56,-117.73 230.53,-111.88 245.23,-97.47 260.89,-80.59 273.27,-66.86"/>
<polygon fill="black" stroke="black" stroke-width="1.5" points="275.69,-69.4 279.75,-59.61 270.47,-64.74 275.69,-69.4"/>
</a>
</g>
<g id="a_edge2&#45;label"><a xlink:href="#goAbout" xlink:title="Go to About" target="_parent">
<text text-anchor="start" x="244.53" y="-99.53" font-family="Times,serif" font-size="13.00">Go to About</text>
</a>
</g>
</g>
<!-- BlogPosting&#45;&gt;Blog -->
<g id="edge5" class="edge goBlog">
<title>BlogPosting&#45;&gt;Blog</title>
<g id="a_edge5"><a xlink:href="#goBlog" xlink:title="See the blog post list" target="_parent">
<path fill="none" stroke="black" stroke-width="1.5" d="M86.39,-79.21C94.79,-90.56 104.79,-102.44 115.53,-111.88 120.01,-115.82 124.95,-119.56 130.06,-123.05"/>
<polygon fill="black" stroke="black" stroke-width="1.5" points="127.81,-125.76 138.11,-128.22 131.59,-119.87 127.81,-125.76"/>
</a>
</g>
<g id="a_edge5&#45;label"><a xlink:href="#goBlog" xlink:title="See the blog post list" target="_parent">
<text text-anchor="start" x="115.53" y="-99.53" font-family="Times,serif" font-size="13.00">See the blog post list</text>
</a>
</g>
</g>
<!-- About&#45;&gt;Blog -->
<g id="edge1" class="edge goBlog">
<title>About&#45;&gt;Blog</title>
<g id="a_edge1"><a xlink:href="#goBlog" xlink:title="See the blog post list" target="_parent">
<path fill="none" stroke="black" stroke-width="1.5" d="M310.29,-57.76C320.76,-73.21 331.52,-95.79 319.53,-111.88 301.97,-135.45 271.04,-145.65 243.32,-149.87"/>
<polygon fill="black" stroke="black" stroke-width="1.5" points="243.02,-146.38 233.53,-151.09 243.89,-153.33 243.02,-146.38"/>
</a>
</g>
<g id="a_edge1&#45;label"><a xlink:href="#goBlog" xlink:title="See the blog post list" target="_parent">
<text text-anchor="start" x="324.53" y="-99.53" font-family="Times,serif" font-size="13.00">See the blog post list</text>
</a>
</g>
</g>
<!-- Index -->
<g id="node4" class="node">
<title>Index</title>
<g id="a_node4"><a xlink:href="#Index" xlink:title="Home" target="_parent">
<polygon fill="lightgray" stroke="black" stroke-width="2" points="212.53,-262.76 158.53,-262.76 158.53,-226.76 212.53,-226.76 212.53,-262.76"/>
<text text-anchor="start" x="168.66" y="-239.71" font-family="Times,serif" font-size="14.00">Home</text>
</a>
</g>
</g>
<!-- Index&#45;&gt;Blog -->
<g id="edge6" class="edge goBlog">
<title>Index&#45;&gt;Blog</title>
<g id="a_edge6"><a xlink:href="#goBlog" xlink:title="See the blog post list" target="_parent">
<path fill="none" stroke="black" stroke-width="1.5" d="M185.53,-226.42C185.53,-215.59 185.53,-201.26 185.53,-188.2"/>
<polygon fill="black" stroke="black" stroke-width="1.5" points="189.03,-188.5 185.53,-178.5 182.03,-188.5 189.03,-188.5"/>
</a>
</g>
<g id="a_edge6&#45;label"><a xlink:href="#goBlog" xlink:title="See the blog post list" target="_parent">
<text text-anchor="start" x="185.53" y="-196.41" font-family="Times,serif" font-size="13.00">See the blog post list</text>
</a>
</g>
</g>
</g>
</svg>
