<?xml version="1.0" encoding="UTF-8" standalone="no"?>
<!DOCTYPE svg PUBLIC "-//W3C//DTD SVG 1.1//EN"
 "http://www.w3.org/Graphics/SVG/1.1/DTD/svg11.dtd">
<!-- Generated by graphviz version 2.40.1 (20161225.0304)
 -->
<!-- Title: application_state_diagram Pages: 1 -->
<svg width="435pt" height="296pt"
 viewBox="0.00 0.00 434.61 296.00" xmlns="http://www.w3.org/2000/svg" xmlns:xlink="http://www.w3.org/1999/xlink">
<g id="graph0" class="graph" transform="scale(1 1) rotate(0) translate(4 292)">
<title>application_state_diagram</title>
<g id="a_graph0"><a xlink:href="index.html" xlink:title="ALPS Blog" target="_parent">
<polygon fill="#ffffff" stroke="transparent" points="-4,4 -4,-292 430.6129,-292 430.6129,4 -4,4"/>
<text text-anchor="middle" x="213.3065" y="-271.4" font-family="Helvetica,sans-Serif" font-size="14.00" fill="#000000">ALPS Blog</text>
</a>
</g>
<!-- Blog -->
<g id="node1" class="node">
<title>Blog</title>
<g id="a_node1"><a xlink:href="#Blog" xlink:title="&lt;TABLE&gt;" target="_parent">
<polygon fill="#d3d3d3" stroke="#000000" stroke-width="2" points="227.2865,-175.6 135.2865,-175.6 135.2865,-130.6 227.2865,-130.6 227.2865,-175.6"/>
<text text-anchor="start" x="141.2248" y="-156.5" font-family="Times,serif" font-size="14.00" fill="#000000">Blog Post List</text>
<text text-anchor="start" x="149.2034" y="-139.7" font-family="Times,serif" font-size="14.00" fill="#000000">(Blog Post)</text>
</a>
</g>
</g>
<!-- Blog&#45;&gt;Blog -->
<g id="edge3" class="edge doPost">
<title>Blog&#45;&gt;Blog</title>
<g id="a_edge3"><a xlink:href="#doPost" xlink:title="&lt;b&gt;&lt;u&gt;Post the article&lt;/u&gt;&lt;/b&gt;" target="_parent">
<path fill="none" stroke="#000000" stroke-width="1.5" d="M227.3107,-161.8803C237.6928,-161.0893 245.2865,-158.1625 245.2865,-153.1 245.2865,-149.8568 242.17,-147.4902 237.2005,-146"/>
<polygon fill="#000000" stroke="#000000" stroke-width="1.5" points="237.7557,-142.5443 227.3107,-144.3197 236.5831,-149.4454 237.7557,-142.5443"/>
</a>
</g>
<g id="a_edge3&#45;label"><a xlink:href="#doPost" xlink:title="&lt;b&gt;&lt;u&gt;Post the article&lt;/u&gt;&lt;/b&gt;" target="_parent">
<text text-anchor="start" x="245.2865" y="-150.2" font-family="Times,serif" font-weight="bold" text-decoration="underline" font-size="13.00" fill="#000000">Post the article</text>
</a>
</g>
</g>
<!-- BlogPosting -->
<g id="node2" class="node">
<title>BlogPosting</title>
<g id="a_node2"><a xlink:href="#BlogPosting" xlink:title="&lt;TABLE&gt;" target="_parent">
<polygon fill="#d3d3d3" stroke="#000000" stroke-width="2" points="103.7865,-79 16.7865,-79 16.7865,0 103.7865,0 103.7865,-79"/>
<text text-anchor="start" x="33.364" y="-59.9" font-family="Times,serif" font-size="14.00" fill="#000000">Blog Post</text>
<text text-anchor="start" x="30.4695" y="-43.1" font-family="Times,serif" font-size="14.00" fill="#000000">(identifier)</text>
<text text-anchor="start" x="26.0112" y="-26.3" font-family="Times,serif" font-size="14.00" fill="#000000">(create date)</text>
<text text-anchor="start" x="22.8878" y="-9.5" font-family="Times,serif" font-size="14.00" fill="#000000">(article body)</text>
</a>
</g>
</g>
<!-- Blog&#45;&gt;BlogPosting -->
<g id="edge4" class="edge goBlogPosting">
<title>Blog&#45;&gt;BlogPosting</title>
<g id="a_edge4"><a xlink:href="#goBlogPosting" xlink:title="See the blog post" target="_parent">
<path fill="none" stroke="#000000" stroke-width="1.5" d="M135.1625,-148.92C88.5182,-143.6252 21.0854,-132.672 5.1039,-112.6 -3.8287,-101.381 .3813,-88.9943 9.5825,-77.6549"/>
<polygon fill="#000000" stroke="#000000" stroke-width="1.5" points="12.4384,-79.7211 16.6497,-69.9992 7.2949,-74.973 12.4384,-79.7211"/>
</a>
</g>
<g id="a_edge4&#45;label"><a xlink:href="#goBlogPosting" xlink:title="See the blog post" target="_parent">
<text text-anchor="start" x="5.2865" y="-100.9" font-family="Times,serif" font-size="13.00" fill="#000000">See the blog post</text>
</a>
</g>
</g>
<!-- About -->
<g id="node3" class="node">
<title>About</title>
<g id="a_node3"><a xlink:href="#About" xlink:title="About Us" target="_parent">
<polygon fill="#d3d3d3" stroke="#000000" stroke-width="2" points="326.3349,-57.5 256.2381,-57.5 256.2381,-21.5 326.3349,-21.5 326.3349,-57.5"/>
<text text-anchor="start" x="264.2623" y="-35.3" font-family="Times,serif" font-size="14.00" fill="#000000">About Us</text>
</a>
</g>
</g>
<!-- Blog&#45;&gt;About -->
<g id="edge2" class="edge goAbout">
<title>Blog&#45;&gt;About</title>
<g id="a_edge2"><a xlink:href="#goAbout" xlink:title="Go to About" target="_parent">
<path fill="none" stroke="#000000" stroke-width="1.5" d="M206.7937,-130.361C212.953,-124.6692 219.4417,-118.5012 225.2865,-112.6 240.2732,-97.4688 256.3003,-79.757 268.8077,-65.5578"/>
<polygon fill="#000000" stroke="#000000" stroke-width="1.5" points="271.7774,-67.4791 275.7307,-57.6494 266.5104,-62.8683 271.7774,-67.4791"/>
</a>
</g>
<g id="a_edge2&#45;label"><a xlink:href="#goAbout" xlink:title="Go to About" target="_parent">
<text text-anchor="start" x="240.2865" y="-100.9" font-family="Times,serif" font-size="13.00" fill="#000000">Go to About</text>
</a>
</g>
</g>
<!-- BlogPosting&#45;&gt;Blog -->
<g id="edge5" class="edge goBlog">
<title>BlogPosting&#45;&gt;Blog</title>
<g id="a_edge5"><a xlink:href="#goBlog" xlink:title="See the blog post list" target="_parent">
<path fill="none" stroke="#000000" stroke-width="1.5" d="M84.3655,-79.1061C92.5501,-90.7162 102.3399,-102.8885 112.9601,-112.6 117.7016,-116.9358 122.9806,-121.0349 128.4443,-124.8399"/>
<polygon fill="#000000" stroke="#000000" stroke-width="1.5" points="126.8564,-127.9853 137.1315,-130.5688 130.7102,-122.1416 126.8564,-127.9853"/>
</a>
</g>
<g id="a_edge5&#45;label"><a xlink:href="#goBlog" xlink:title="See the blog post list" target="_parent">
<text text-anchor="start" x="113.2865" y="-100.9" font-family="Times,serif" font-size="13.00" fill="#000000">See the blog post list</text>
</a>
</g>
</g>
<!-- About&#45;&gt;Blog -->
<g id="edge1" class="edge goBlog">
<title>About&#45;&gt;Blog</title>
<g id="a_edge1"><a xlink:href="#goBlog" xlink:title="See the blog post list" target="_parent">
<path fill="none" stroke="#000000" stroke-width="1.5" d="M304.9585,-57.5592C315.1275,-73.3678 325.3399,-96.2938 313.2865,-112.6 303.8684,-125.3411 268.9794,-135.7229 237.4361,-142.7847"/>
<polygon fill="#000000" stroke="#000000" stroke-width="1.5" points="236.3865,-139.4305 227.3488,-144.9596 237.8619,-146.2732 236.3865,-139.4305"/>
</a>
</g>
<g id="a_edge1&#45;label"><a xlink:href="#goBlog" xlink:title="See the blog post list" target="_parent">
<text text-anchor="start" x="318.2865" y="-100.9" font-family="Times,serif" font-size="13.00" fill="#000000">See the blog post list</text>
</a>
</g>
</g>
<!-- Index -->
<g id="node4" class="node">
<title>Index</title>
<g id="a_node4"><a xlink:href="#Index" xlink:title="Home" target="_parent">
<polygon fill="#d3d3d3" stroke="#000000" stroke-width="2" points="208.2865,-263.2 154.2865,-263.2 154.2865,-227.2 208.2865,-227.2 208.2865,-263.2"/>
<text text-anchor="start" x="164.1806" y="-241" font-family="Times,serif" font-size="14.00" fill="#000000">Home</text>
</a>
</g>
</g>
<!-- Index&#45;&gt;Blog -->
<g id="edge6" class="edge goBlog">
<title>Index&#45;&gt;Blog</title>
<g id="a_edge6"><a xlink:href="#goBlog" xlink:title="See the blog post list" target="_parent">
<path fill="none" stroke="#000000" stroke-width="1.5" d="M181.2865,-227.004C181.2865,-215.307 181.2865,-199.7696 181.2865,-185.9603"/>
<polygon fill="#000000" stroke="#000000" stroke-width="1.5" points="184.7866,-185.8293 181.2865,-175.8294 177.7866,-185.8294 184.7866,-185.8293"/>
</a>
</g>
<g id="a_edge6&#45;label"><a xlink:href="#goBlog" xlink:title="See the blog post list" target="_parent">
<text text-anchor="start" x="181.2865" y="-197.5" font-family="Times,serif" font-size="13.00" fill="#000000">See the blog post list</text>
</a>
</g>
</g>
</g>
</svg>
