<?xml version="1.0" encoding="UTF-8" standalone="no"?>
<!DOCTYPE svg PUBLIC "-//W3C//DTD SVG 1.1//EN"
 "http://www.w3.org/Graphics/SVG/1.1/DTD/svg11.dtd">
<!-- Generated by graphviz version 5.0.0 (20220707.1540)
 -->
<!-- Title: application_state_diagram Pages: 1 -->
<svg width="555pt" height="281pt"
 viewBox="0.00 0.00 555.48 281.00" xmlns="http://www.w3.org/2000/svg" xmlns:xlink="http://www.w3.org/1999/xlink">
<g id="graph0" class="graph" transform="scale(1 1) rotate(0) translate(4 277)">
<title>application_state_diagram</title>
<g id="a_graph0"><a xlink:href="index.html" xlink:title="ALPS Blog" target="_parent">
<polygon fill="white" stroke="transparent" points="-4,4 -4,-277 551.48,-277 551.48,4 -4,4"/>
<text text-anchor="middle" x="273.74" y="-257.8" font-family="Helvetica,sans-Serif" font-size="14.00">ALPS Blog</text>
</a>
</g>
<!-- Blog -->
<g id="node1" class="node">
<title>Blog</title>
<g id="a_node1"><a xlink:href="docs/semantic.Blog.html" xlink:title="&lt;TABLE&gt;" target="_parent">
<polygon fill="lightgray" stroke="black" stroke-width="2" points="294.98,-164 203.98,-164 203.98,-122 294.98,-122 294.98,-164"/>
<text text-anchor="start" x="210.48" y="-146.8" font-family="Times,serif" font-size="14.00">Blog Post List</text>
<text text-anchor="start" x="218.48" y="-131.8" font-family="Times,serif" font-size="14.00">(Blog Post)</text>
</a>
</g>
</g>
<!-- Blog&#45;&gt;Blog -->
<g id="edge3" class="edge">
<title>Blog&#45;&gt;Blog</title>
<g id="a_edge3"><a xlink:href="docs/unsafe.doPost.html" xlink:title="doPost, collection (unsafe)" target="_parent">
<path fill="none" stroke="black" d="M295.14,-151.41C305.44,-150.66 312.98,-147.85 312.98,-143 312.98,-139.97 310.03,-137.74 305.31,-136.3"/>
<polygon fill="black" stroke="black" points="305.58,-132.8 295.14,-134.59 304.42,-139.7 305.58,-132.8"/>
</a>
</g>
<g id="a_edge3&#45;label"><a xlink:href="docs/unsafe.doPost.html" xlink:title="doPost, collection (unsafe)" target="_parent">
<text text-anchor="start" x="312.98" y="-139.6" font-family="Times,serif" font-size="13.00">doPost, collection (unsafe)</text>
</a>
</g>
</g>
<!-- BlogPosting -->
<g id="node2" class="node">
<title>BlogPosting</title>
<g id="a_node2"><a xlink:href="docs/semantic.BlogPosting.html" xlink:title="&lt;TABLE&gt;" target="_parent">
<polygon fill="lightgray" stroke="black" stroke-width="2" points="131.48,-72 45.48,-72 45.48,0 131.48,0 131.48,-72"/>
<text text-anchor="start" x="61.48" y="-54.8" font-family="Times,serif" font-size="14.00">Blog Post</text>
<text text-anchor="start" x="58.98" y="-39.8" font-family="Times,serif" font-size="14.00">(identifier)</text>
<text text-anchor="start" x="54.48" y="-24.8" font-family="Times,serif" font-size="14.00">(create date)</text>
<text text-anchor="start" x="51.48" y="-9.8" font-family="Times,serif" font-size="14.00">(article body)</text>
</a>
</g>
</g>
<!-- Blog&#45;&gt;BlogPosting -->
<g id="edge4" class="edge">
<title>Blog&#45;&gt;BlogPosting</title>
<g id="a_edge4"><a xlink:href="docs/safe.goBlogPosting.html" xlink:title="goBlogPosting, item (safe)" target="_parent">
<path fill="none" stroke="black" d="M203.84,-141.68C140.39,-140.15 30.5,-133.23 5.48,-104 -10.08,-85.83 11.18,-68.95 36.07,-56.67"/>
<polygon fill="black" stroke="black" points="37.75,-59.75 45.34,-52.36 34.8,-53.4 37.75,-59.75"/>
</a>
</g>
<g id="a_edge4&#45;label"><a xlink:href="docs/safe.goBlogPosting.html" xlink:title="goBlogPosting, item (safe)" target="_parent">
<text text-anchor="start" x="5.48" y="-93.6" font-family="Times,serif" font-size="13.00">goBlogPosting, item (safe)</text>
</a>
</g>
</g>
<!-- About -->
<g id="node3" class="node">
<title>About</title>
<g id="a_node3"><a xlink:href="docs/semantic.About.html" xlink:title="About Us" target="_parent">
<polygon fill="lightgray" stroke="black" stroke-width="2" points="413.98,-54 344.98,-54 344.98,-18 413.98,-18 413.98,-54"/>
<text text-anchor="start" x="352.98" y="-32.3" font-family="Times,serif" font-size="14.00">About Us</text>
</a>
</g>
</g>
<!-- Blog&#45;&gt;About -->
<g id="edge2" class="edge">
<title>Blog&#45;&gt;About</title>
<g id="a_edge2"><a xlink:href="docs/safe.goAbout.html" xlink:title="goAbout (safe)" target="_parent">
<path fill="none" stroke="black" d="M280.84,-121.85C289.02,-116.29 297.72,-110.1 305.48,-104 322.49,-90.63 340.52,-74.36 354.52,-61.2"/>
<polygon fill="black" stroke="black" points="357,-63.67 361.85,-54.25 352.18,-58.59 357,-63.67"/>
</a>
</g>
<g id="a_edge2&#45;label"><a xlink:href="docs/safe.goAbout.html" xlink:title="goAbout (safe)" target="_parent">
<text text-anchor="start" x="322.48" y="-93.6" font-family="Times,serif" font-size="13.00">goAbout (safe)</text>
</a>
</g>
</g>
<!-- BlogPosting&#45;&gt;Blog -->
<g id="edge5" class="edge">
<title>BlogPosting&#45;&gt;Blog</title>
<g id="a_edge5"><a xlink:href="docs/safe.goBlog.html" xlink:title="goBlog, collection (safe)" target="_parent">
<path fill="none" stroke="black" d="M128.66,-72.29C144.13,-85.52 160.08,-98.64 168.48,-104 176.64,-109.21 185.63,-114.13 194.56,-118.61"/>
<polygon fill="black" stroke="black" points="193.29,-121.88 203.81,-123.09 196.34,-115.58 193.29,-121.88"/>
</a>
</g>
<g id="a_edge5&#45;label"><a xlink:href="docs/safe.goBlog.html" xlink:title="goBlog, collection (safe)" target="_parent">
<text text-anchor="start" x="168.48" y="-93.6" font-family="Times,serif" font-size="13.00">goBlog, collection (safe)</text>
</a>
</g>
</g>
<!-- About&#45;&gt;Blog -->
<g id="edge1" class="edge">
<title>About&#45;&gt;Blog</title>
<g id="a_edge1"><a xlink:href="docs/safe.goBlog.html" xlink:title="goBlog, collection (safe)" target="_parent">
<path fill="none" stroke="black" d="M397.16,-54.19C409.71,-68.51 422.41,-88.93 410.48,-104 397.39,-120.54 346.31,-130.61 305.15,-136.19"/>
<polygon fill="black" stroke="black" points="304.67,-132.72 295.2,-137.48 305.57,-139.66 304.67,-132.72"/>
</a>
</g>
<g id="a_edge1&#45;label"><a xlink:href="docs/safe.goBlog.html" xlink:title="goBlog, collection (safe)" target="_parent">
<text text-anchor="start" x="414.48" y="-93.6" font-family="Times,serif" font-size="13.00">goBlog, collection (safe)</text>
</a>
</g>
</g>
<!-- Index -->
<g id="node4" class="node">
<title>Index</title>
<g id="a_node4"><a xlink:href="docs/semantic.Index.html" xlink:title="Home" target="_parent">
<polygon fill="lightgray" stroke="black" stroke-width="2" points="276.48,-250 222.48,-250 222.48,-214 276.48,-214 276.48,-250"/>
<text text-anchor="start" x="232.48" y="-228.3" font-family="Times,serif" font-size="14.00">Home</text>
</a>
</g>
</g>
<!-- Index&#45;&gt;Blog -->
<g id="edge6" class="edge">
<title>Index&#45;&gt;Blog</title>
<g id="a_edge6"><a xlink:href="docs/safe.goBlog.html" xlink:title="goBlog, collection (safe)" target="_parent">
<path fill="none" stroke="black" d="M249.48,-213.81C249.48,-202.56 249.48,-187.54 249.48,-174.32"/>
<polygon fill="black" stroke="black" points="252.98,-174.21 249.48,-164.21 245.98,-174.21 252.98,-174.21"/>
</a>
</g>
<g id="a_edge6&#45;label"><a xlink:href="docs/safe.goBlog.html" xlink:title="goBlog, collection (safe)" target="_parent">
<text text-anchor="start" x="249.48" y="-185.6" font-family="Times,serif" font-size="13.00">goBlog, collection (safe)</text>
</a>
</g>
</g>
</g>
</svg>
