<?xml version="1.0" encoding="UTF-8" standalone="no"?>
<!DOCTYPE svg PUBLIC "-//W3C//DTD SVG 1.1//EN"
 "http://www.w3.org/Graphics/SVG/1.1/DTD/svg11.dtd">
<!-- Generated by graphviz version 9.0.0 (20230911.1827)
 -->
<!-- Title: application_state_diagram Pages: 1 -->
<svg width="472pt" height="294pt"
 viewBox="0.00 0.00 471.92 293.76" xmlns="http://www.w3.org/2000/svg" xmlns:xlink="http://www.w3.org/1999/xlink">
<g id="graph0" class="graph" transform="scale(1 1) rotate(0) translate(4 289.76)">
<title>application_state_diagram</title>
<g id="a_graph0"><a xlink:href="index.html" xlink:title="ALPS example" target="_parent">
<polygon fill="white" stroke="none" points="-4,4 -4,-289.76 467.92,-289.76 467.92,4 -4,4"/>
<text text-anchor="middle" x="231.96" y="-268.46" font-family="Helvetica,sans-Serif" font-size="14.00">ALPS example</text>
</a>
</g>
<!-- Blog -->
<g id="node1" class="node">
<title>Blog</title>
<g id="a_node1"><a xlink:href="#Blog" xlink:title="&lt;TABLE&gt;" target="_parent">
<polygon fill="lightgray" stroke="black" stroke-width="2" points="269.23,-175.76 180.6,-175.76 180.6,-129.88 269.23,-129.88 269.23,-175.76"/>
<text text-anchor="start" x="211.79" y="-156.02" font-family="Times,serif" font-size="14.00">Blog</text>
<text text-anchor="start" x="187.04" y="-139.52" font-family="Times,serif" font-size="14.00">(BlogPosting)</text>
</a>
</g>
</g>
<!-- Blog&#45;&gt;Blog -->
<g id="edge3" class="edge">
<title>Blog&#45;&gt;Blog</title>
<g id="a_edge3"><a xlink:href="#post" xlink:title="post (unsafe)" target="_parent">
<path fill="none" stroke="black" d="M269.73,-161.68C279.84,-160.88 287.23,-157.93 287.23,-152.82 287.23,-149.87 284.76,-147.63 280.73,-146.12"/>
<polygon fill="black" stroke="black" points="281.7,-142.75 271.22,-144.25 280.35,-149.61 281.7,-142.75"/>
</a>
</g>
<g id="a_edge3&#45;label"><a xlink:href="#post" xlink:title="post (unsafe)" target="_parent">
<text text-anchor="start" x="287.23" y="-147.97" font-family="Times,serif" font-size="13.00">post (unsafe)</text>
</a>
</g>
</g>
<!-- BlogPosting -->
<g id="node2" class="node">
<title>BlogPosting</title>
<g id="a_node2"><a xlink:href="#BlogPosting" xlink:title="&lt;TABLE&gt;" target="_parent">
<polygon fill="lightgray" stroke="black" stroke-width="2" points="123.11,-78.88 36.73,-78.88 36.73,0 123.11,0 123.11,-78.88"/>
<text text-anchor="start" x="46.54" y="-59.14" font-family="Times,serif" font-size="14.00">BlogPosting</text>
<text text-anchor="start" x="70.17" y="-42.64" font-family="Times,serif" font-size="14.00">(id)</text>
<text text-anchor="start" x="43.92" y="-26.14" font-family="Times,serif" font-size="14.00">(articleBody)</text>
<text text-anchor="start" x="43.17" y="-9.64" font-family="Times,serif" font-size="14.00">(dateCreated)</text>
</a>
</g>
</g>
<!-- Blog&#45;&gt;BlogPosting -->
<g id="edge4" class="edge">
<title>Blog&#45;&gt;BlogPosting</title>
<g id="a_edge4"><a xlink:href="#blogPosting" xlink:title="blogPosting, item (safe)" target="_parent">
<path fill="none" stroke="black" d="M180.41,-150.22C122.82,-147.11 27.26,-138.05 5.42,-111.88 -8.16,-95.61 6.71,-79.12 26.64,-66.09"/>
<polygon fill="black" stroke="black" points="28.36,-69.14 35.1,-60.96 24.74,-63.16 28.36,-69.14"/>
</a>
</g>
<g id="a_edge4&#45;label"><a xlink:href="#blogPosting" xlink:title="blogPosting, item (safe)" target="_parent">
<text text-anchor="start" x="5.92" y="-99.53" font-family="Times,serif" font-size="13.00">blogPosting, item (safe)</text>
</a>
</g>
</g>
<!-- About -->
<g id="node3" class="node">
<title>About</title>
<g id="a_node3"><a xlink:href="#About" xlink:title="About" target="_parent">
<polygon fill="lightgray" stroke="black" stroke-width="2" points="364.92,-57.44 310.92,-57.44 310.92,-21.44 364.92,-21.44 364.92,-57.44"/>
<text text-anchor="middle" x="337.92" y="-34.39" font-family="Times,serif" font-size="14.00">About</text>
</a>
</g>
</g>
<!-- Blog&#45;&gt;About -->
<g id="edge2" class="edge">
<title>Blog&#45;&gt;About</title>
<g id="a_edge2"><a xlink:href="#about" xlink:title="about (safe)" target="_parent">
<path fill="none" stroke="black" d="M253.15,-129.43C259.79,-123.87 266.73,-117.8 272.92,-111.88 287.93,-97.52 303.63,-80.33 315.84,-66.41"/>
<polygon fill="black" stroke="black" points="318.41,-68.79 322.33,-58.94 313.13,-64.2 318.41,-68.79"/>
</a>
</g>
<g id="a_edge2&#45;label"><a xlink:href="#about" xlink:title="about (safe)" target="_parent">
<text text-anchor="start" x="287.92" y="-99.53" font-family="Times,serif" font-size="13.00">about (safe)</text>
</a>
</g>
</g>
<!-- BlogPosting&#45;&gt;Blog -->
<g id="edge5" class="edge">
<title>BlogPosting&#45;&gt;Blog</title>
<g id="a_edge5"><a xlink:href="#blog" xlink:title="blog, collection (safe)" target="_parent">
<path fill="none" stroke="black" d="M115.09,-79.27C126.27,-90.5 139.08,-102.3 151.92,-111.88 157.83,-116.29 164.29,-120.53 170.84,-124.49"/>
<polygon fill="black" stroke="black" points="168.74,-127.32 179.14,-129.33 172.26,-121.27 168.74,-127.32"/>
</a>
</g>
<g id="a_edge5&#45;label"><a xlink:href="#blog" xlink:title="blog, collection (safe)" target="_parent">
<text text-anchor="start" x="151.92" y="-99.53" font-family="Times,serif" font-size="13.00">blog, collection (safe)</text>
</a>
</g>
</g>
<!-- About&#45;&gt;Blog -->
<g id="edge1" class="edge">
<title>About&#45;&gt;Blog</title>
<g id="a_edge1"><a xlink:href="#backToBlog" xlink:title="backToBlog (safe)" target="_parent">
<path fill="none" stroke="black" d="M351.31,-57.8C361.49,-73.27 371.88,-95.87 359.92,-111.88 341.71,-136.25 309.29,-146.37 280.79,-150.33"/>
<polygon fill="black" stroke="black" points="280.73,-146.81 271.19,-151.42 281.52,-153.77 280.73,-146.81"/>
</a>
</g>
<g id="a_edge1&#45;label"><a xlink:href="#backToBlog" xlink:title="backToBlog (safe)" target="_parent">
<text text-anchor="start" x="364.92" y="-99.53" font-family="Times,serif" font-size="13.00">backToBlog (safe)</text>
</a>
</g>
</g>
<!-- Index -->
<g id="node4" class="node">
<title>Index</title>
<g id="a_node4"><a xlink:href="#Index" xlink:title="Index" target="_parent">
<polygon fill="lightgray" stroke="black" stroke-width="2" points="251.92,-262.76 197.92,-262.76 197.92,-226.76 251.92,-226.76 251.92,-262.76"/>
<text text-anchor="middle" x="224.92" y="-239.71" font-family="Times,serif" font-size="14.00">Index</text>
</a>
</g>
</g>
<!-- Index&#45;&gt;Blog -->
<g id="edge6" class="edge">
<title>Index&#45;&gt;Blog</title>
<g id="a_edge6"><a xlink:href="#start" xlink:title="start (safe)" target="_parent">
<path fill="none" stroke="black" d="M224.92,-226.42C224.92,-215.36 224.92,-200.67 224.92,-187.4"/>
<polygon fill="black" stroke="black" points="228.42,-187.74 224.92,-177.74 221.42,-187.74 228.42,-187.74"/>
</a>
</g>
<g id="a_edge6&#45;label"><a xlink:href="#start" xlink:title="start (safe)" target="_parent">
<text text-anchor="start" x="224.92" y="-196.41" font-family="Times,serif" font-size="13.00">start (safe)</text>
</a>
</g>
</g>
</g>
</svg>
