<?xml version="1.0" encoding="UTF-8" standalone="no"?>
<!DOCTYPE svg PUBLIC "-//W3C//DTD SVG 1.1//EN"
 "http://www.w3.org/Graphics/SVG/1.1/DTD/svg11.dtd">
<!-- Generated by graphviz version 9.0.0 (20230911.1827)
 -->
<!-- Title: application_state_diagram Pages: 1 -->
<svg width="621pt" height="294pt"
 viewBox="0.00 0.00 620.54 293.76" xmlns="http://www.w3.org/2000/svg" xmlns:xlink="http://www.w3.org/1999/xlink">
<g id="graph0" class="graph" transform="scale(1 1) rotate(0) translate(4 289.76)">
<title>application_state_diagram</title>
<g id="a_graph0"><a xlink:href="index.html" xlink:title="ALPS example" target="_parent">
<polygon fill="white" stroke="none" points="-4,4 -4,-289.76 616.54,-289.76 616.54,4 -4,4"/>
<text text-anchor="middle" x="306.27" y="-268.46" font-family="Helvetica,sans-Serif" font-size="14.00">ALPS example</text>
</a>
</g>
<!-- Blog -->
<g id="node1" class="node">
<title>Blog</title>
<g id="a_node1"><a xlink:href="#Blog" xlink:title="&lt;TABLE&gt;" target="_parent">
<polygon fill="lightgray" stroke="black" stroke-width="2" points="309.11,-175.76 220.48,-175.76 220.48,-129.88 309.11,-129.88 309.11,-175.76"/>
<text text-anchor="start" x="251.67" y="-156.02" font-family="Times,serif" font-size="14.00">Blog</text>
<text text-anchor="start" x="226.92" y="-139.52" font-family="Times,serif" font-size="14.00">(BlogPosting)</text>
</a>
</g>
</g>
<!-- Blog&#45;&gt;Blog -->
<g id="edge3" class="edge doPost">
<title>Blog&#45;&gt;Blog</title>
<g id="a_edge3"><a xlink:href="#doPost" xlink:title="doPost (unsafe)" target="_parent">
<path fill="none" stroke="black" stroke-width="1.5" d="M309.61,-161.68C319.71,-160.88 327.11,-157.93 327.11,-152.82 327.11,-150.11 325.02,-148 321.55,-146.5"/>
<polygon fill="black" stroke="black" stroke-width="1.5" points="322.34,-143.09 311.83,-144.43 320.88,-149.94 322.34,-143.09"/>
</a>
</g>
<g id="a_edge3&#45;label"><a xlink:href="#doPost" xlink:title="doPost (unsafe)" target="_parent">
<text text-anchor="start" x="327.11" y="-147.97" font-family="Times,serif" font-size="13.00">doPost (unsafe)</text>
</a>
</g>
</g>
<!-- BlogPosting -->
<g id="node2" class="node">
<title>BlogPosting</title>
<g id="a_node2"><a xlink:href="#BlogPosting" xlink:title="&lt;TABLE&gt;" target="_parent">
<polygon fill="lightgray" stroke="black" stroke-width="2" points="130.98,-78.88 44.6,-78.88 44.6,0 130.98,0 130.98,-78.88"/>
<text text-anchor="start" x="54.42" y="-59.14" font-family="Times,serif" font-size="14.00">BlogPosting</text>
<text text-anchor="start" x="78.04" y="-42.64" font-family="Times,serif" font-size="14.00">(id)</text>
<text text-anchor="start" x="51.79" y="-26.14" font-family="Times,serif" font-size="14.00">(articleBody)</text>
<text text-anchor="start" x="51.04" y="-9.64" font-family="Times,serif" font-size="14.00">(dateCreated)</text>
</a>
</g>
</g>
<!-- Blog&#45;&gt;BlogPosting -->
<g id="edge4" class="edge goBlogPosting">
<title>Blog&#45;&gt;BlogPosting</title>
<g id="a_edge4"><a xlink:href="#goBlogPosting" xlink:title="goBlogPosting, item (safe)" target="_parent">
<path fill="none" stroke="black" stroke-width="1.5" d="M220.19,-151.64C153.49,-150.33 32.67,-143.51 5.54,-111.88 -9.9,-93.87 9.53,-76.36 33.38,-63.18"/>
<polygon fill="black" stroke="black" stroke-width="1.5" points="34.85,-66.36 42.14,-58.67 31.65,-60.14 34.85,-66.36"/>
</a>
</g>
<g id="a_edge4&#45;label"><a xlink:href="#goBlogPosting" xlink:title="goBlogPosting, item (safe)" target="_parent">
<text text-anchor="start" x="5.79" y="-99.53" font-family="Times,serif" font-size="13.00">goBlogPosting, item (safe)</text>
</a>
</g>
</g>
<!-- About -->
<g id="node3" class="node">
<title>About</title>
<g id="a_node3"><a xlink:href="#About" xlink:title="About" target="_parent">
<polygon fill="lightgray" stroke="black" stroke-width="2" points="438.79,-57.44 384.79,-57.44 384.79,-21.44 438.79,-21.44 438.79,-57.44"/>
<text text-anchor="middle" x="411.79" y="-34.39" font-family="Times,serif" font-size="14.00">About</text>
</a>
</g>
</g>
<!-- Blog&#45;&gt;About -->
<g id="edge2" class="edge goAbout">
<title>Blog&#45;&gt;About</title>
<g id="a_edge2"><a xlink:href="#goAbout" xlink:title="goAbout (safe)" target="_parent">
<path fill="none" stroke="black" stroke-width="1.5" d="M309.58,-129.78C319.19,-124.39 329.06,-118.3 337.79,-111.88 355.96,-98.51 374.22,-80.94 388.06,-66.57"/>
<polygon fill="black" stroke="black" stroke-width="1.5" points="390.58,-68.99 394.9,-59.32 385.49,-64.19 390.58,-68.99"/>
</a>
</g>
<g id="a_edge2&#45;label"><a xlink:href="#goAbout" xlink:title="goAbout (safe)" target="_parent">
<text text-anchor="start" x="354.79" y="-99.53" font-family="Times,serif" font-size="13.00">goAbout (safe)</text>
</a>
</g>
</g>
<!-- BlogPosting&#45;&gt;Blog -->
<g id="edge5" class="edge goBlog">
<title>BlogPosting&#45;&gt;Blog</title>
<g id="a_edge5"><a xlink:href="#goBlog" xlink:title="goBlog, collection about (safe)" target="_parent">
<path fill="none" stroke="black" stroke-width="1.5" d="M129.87,-78.99C146.84,-94.33 163.5,-109.03 168.04,-111.88 180.8,-119.87 195.44,-126.87 209.4,-132.69"/>
<polygon fill="black" stroke="black" stroke-width="1.5" points="207.71,-135.78 218.29,-136.25 210.31,-129.28 207.71,-135.78"/>
</a>
</g>
<g id="a_edge5&#45;label"><a xlink:href="#goBlog" xlink:title="goBlog, collection about (safe)" target="_parent">
<text text-anchor="start" x="168.79" y="-99.53" font-family="Times,serif" font-size="13.00">goBlog, collection about (safe)</text>
</a>
</g>
</g>
<!-- About&#45;&gt;Blog -->
<g id="edge1" class="edge goBlog">
<title>About&#45;&gt;Blog</title>
<g id="a_edge1"><a xlink:href="#goBlog" xlink:title="goBlog, collection about (safe)" target="_parent">
<path fill="none" stroke="black" stroke-width="1.5" d="M428.45,-57.72C441.25,-73.13 454.73,-95.7 441.79,-111.88 426.85,-130.57 367.31,-141.14 321.36,-146.65"/>
<polygon fill="black" stroke="black" stroke-width="1.5" points="321.21,-143.15 311.67,-147.75 322,-150.1 321.21,-143.15"/>
</a>
</g>
<g id="a_edge1&#45;label"><a xlink:href="#goBlog" xlink:title="goBlog, collection about (safe)" target="_parent">
<text text-anchor="start" x="446.79" y="-99.53" font-family="Times,serif" font-size="13.00">goBlog, collection about (safe)</text>
</a>
</g>
</g>
<!-- Index -->
<g id="node4" class="node">
<title>Index</title>
<g id="a_node4"><a xlink:href="#Index" xlink:title="Index" target="_parent">
<polygon fill="lightgray" stroke="black" stroke-width="2" points="291.79,-262.76 237.79,-262.76 237.79,-226.76 291.79,-226.76 291.79,-262.76"/>
<text text-anchor="middle" x="264.79" y="-239.71" font-family="Times,serif" font-size="14.00">Index</text>
</a>
</g>
</g>
<!-- Index&#45;&gt;Blog -->
<g id="edge6" class="edge start">
<title>Index&#45;&gt;Blog</title>
<g id="a_edge6"><a xlink:href="#start" xlink:title="start (safe)" target="_parent">
<path fill="none" stroke="black" stroke-width="1.5" d="M264.79,-226.42C264.79,-215.59 264.79,-201.26 264.79,-188.2"/>
<polygon fill="black" stroke="black" stroke-width="1.5" points="268.29,-188.5 264.79,-178.5 261.29,-188.5 268.29,-188.5"/>
</a>
</g>
<g id="a_edge6&#45;label"><a xlink:href="#start" xlink:title="start (safe)" target="_parent">
<text text-anchor="start" x="264.79" y="-196.41" font-family="Times,serif" font-size="13.00">start (safe)</text>
</a>
</g>
</g>
</g>
</svg>
