<?xml version="1.0" encoding="UTF-8" standalone="no"?>
<!DOCTYPE svg PUBLIC "-//W3C//DTD SVG 1.1//EN"
 "http://www.w3.org/Graphics/SVG/1.1/DTD/svg11.dtd">
<!-- Generated by graphviz version 2.46.0 (20210118.1747)
 -->
<!-- Title: application_state_diagram Pages: 1 -->
<svg width="473pt" height="281pt"
 viewBox="0.00 0.00 473.13 281.00" xmlns="http://www.w3.org/2000/svg" xmlns:xlink="http://www.w3.org/1999/xlink">
<g id="graph0" class="graph" transform="scale(1 1) rotate(0) translate(4 277)">
<title>application_state_diagram</title>
<g id="a_graph0"><a xlink:href="index.html" xlink:title="ALPS example" target="_parent">
<polygon fill="white" stroke="transparent" points="-4,4 -4,-277 469.13,-277 469.13,4 -4,4"/>
<text text-anchor="middle" x="232.56" y="-7.8" font-family="Helvetica,sans-Serif" font-size="14.00">ALPS example</text>
</a>
</g>
<!-- Blog -->
<g id="node1" class="node">
<title>Blog</title>
<g id="a_node1"><a xlink:href="docs/semantic.Blog.html" xlink:title="&lt;TABLE&gt;" target="_parent">
<polygon fill="lightgray" stroke="black" stroke-width="2" points="269.13,-187 181.13,-187 181.13,-145 269.13,-145 269.13,-187"/>
<text text-anchor="start" x="211.63" y="-169.8" font-family="Times,serif" font-size="14.00">Blog</text>
<text text-anchor="start" x="187.13" y="-154.8" font-family="Times,serif" font-size="14.00">(BlogPosting)</text>
</a>
</g>
</g>
<!-- Blog&#45;&gt;Blog -->
<g id="edge4" class="edge">
<title>Blog&#45;&gt;Blog</title>
<g id="a_edge4"><a xlink:href="docs/unsafe.post.html" xlink:title="post (unsafe)" target="_parent">
<path fill="none" stroke="black" d="M269.15,-174.45C279.49,-173.76 287.13,-170.94 287.13,-166 287.13,-162.91 284.14,-160.65 279.38,-159.22"/>
<polygon fill="black" stroke="black" points="279.58,-155.71 269.15,-157.55 278.45,-162.62 279.58,-155.71"/>
</a>
</g>
<g id="a_edge4&#45;label"><a xlink:href="docs/unsafe.post.html" xlink:title="post (unsafe)" target="_parent">
<text text-anchor="middle" x="322.13" y="-162.6" font-family="Times,serif" font-size="13.00">post (unsafe)</text>
</a>
</g>
</g>
<!-- BlogPosting -->
<g id="node2" class="node">
<title>BlogPosting</title>
<g id="a_node2"><a xlink:href="docs/semantic.BlogPosting.html" xlink:title="&lt;TABLE&gt;" target="_parent">
<polygon fill="lightgray" stroke="black" stroke-width="2" points="123.13,-95 37.13,-95 37.13,-23 123.13,-23 123.13,-95"/>
<text text-anchor="start" x="46.63" y="-77.8" font-family="Times,serif" font-size="14.00">BlogPosting</text>
<text text-anchor="start" x="70.13" y="-62.8" font-family="Times,serif" font-size="14.00">(id)</text>
<text text-anchor="start" x="43.63" y="-47.8" font-family="Times,serif" font-size="14.00">(articleBody)</text>
<text text-anchor="start" x="43.13" y="-32.8" font-family="Times,serif" font-size="14.00">(dateCreated)</text>
</a>
</g>
</g>
<!-- Blog&#45;&gt;BlogPosting -->
<g id="edge3" class="edge">
<title>Blog&#45;&gt;BlogPosting</title>
<g id="a_edge3"><a xlink:href="docs/safe.blogPosting.html" xlink:title="blogPosting, item (safe)" target="_parent">
<path fill="none" stroke="black" d="M181.03,-163.85C123.39,-161.31 27.16,-153.16 5.13,-127 -8.51,-110.8 7.61,-94.91 28.35,-82.68"/>
<polygon fill="black" stroke="black" points="30.06,-85.73 37.12,-77.83 26.67,-79.6 30.06,-85.73"/>
</a>
</g>
<g id="a_edge3&#45;label"><a xlink:href="docs/safe.blogPosting.html" xlink:title="blogPosting, item (safe)" target="_parent">
<text text-anchor="middle" x="69.13" y="-116.6" font-family="Times,serif" font-size="13.00">blogPosting, item (safe)</text>
</a>
</g>
</g>
<!-- About -->
<g id="node4" class="node">
<title>About</title>
<g id="a_node4"><a xlink:href="docs/semantic.About.html" xlink:title="About" target="_parent">
<polygon fill="lightgray" stroke="black" stroke-width="2" points="366.13,-77 312.13,-77 312.13,-41 366.13,-41 366.13,-77"/>
<text text-anchor="middle" x="339.13" y="-55.3" font-family="Times,serif" font-size="14.00">About</text>
</a>
</g>
</g>
<!-- Blog&#45;&gt;About -->
<g id="edge5" class="edge">
<title>Blog&#45;&gt;About</title>
<g id="a_edge5"><a xlink:href="docs/safe.about.html" xlink:title="about (safe)" target="_parent">
<path fill="none" stroke="black" d="M252.38,-144.95C259.62,-139.34 267.31,-133.1 274.13,-127 288.93,-113.75 304.45,-97.83 316.62,-84.84"/>
<polygon fill="black" stroke="black" points="319.49,-86.88 323.72,-77.17 314.36,-82.13 319.49,-86.88"/>
</a>
</g>
<g id="a_edge5&#45;label"><a xlink:href="docs/safe.about.html" xlink:title="about (safe)" target="_parent">
<text text-anchor="middle" x="320.13" y="-116.6" font-family="Times,serif" font-size="13.00">about (safe)</text>
</a>
</g>
</g>
<!-- BlogPosting&#45;&gt;Blog -->
<g id="edge6" class="edge">
<title>BlogPosting&#45;&gt;Blog</title>
<g id="a_edge6"><a xlink:href="docs/safe.blog.html" xlink:title="blog, collection (safe)" target="_parent">
<path fill="none" stroke="black" d="M114.02,-95.07C125.54,-106.01 138.87,-117.65 152.13,-127 158.61,-131.58 165.72,-135.96 172.87,-140.01"/>
<polygon fill="black" stroke="black" points="171.46,-143.23 181.92,-144.96 174.82,-137.09 171.46,-143.23"/>
</a>
</g>
<g id="a_edge6&#45;label"><a xlink:href="docs/safe.blog.html" xlink:title="blog, collection (safe)" target="_parent">
<text text-anchor="middle" x="211.13" y="-116.6" font-family="Times,serif" font-size="13.00">blog, collection (safe)</text>
</a>
</g>
</g>
<!-- Index -->
<g id="node3" class="node">
<title>Index</title>
<g id="a_node3"><a xlink:href="docs/semantic.Index.html" xlink:title="Index" target="_parent">
<polygon fill="lightgray" stroke="black" stroke-width="2" points="252.13,-273 198.13,-273 198.13,-237 252.13,-237 252.13,-273"/>
<text text-anchor="middle" x="225.13" y="-251.3" font-family="Times,serif" font-size="14.00">Index</text>
</a>
</g>
</g>
<!-- Index&#45;&gt;Blog -->
<g id="edge1" class="edge">
<title>Index&#45;&gt;Blog</title>
<g id="a_edge1"><a xlink:href="docs/safe.start.html" xlink:title="start (safe)" target="_parent">
<path fill="none" stroke="black" d="M225.13,-236.81C225.13,-225.56 225.13,-210.54 225.13,-197.32"/>
<polygon fill="black" stroke="black" points="228.63,-197.21 225.13,-187.21 221.63,-197.21 228.63,-197.21"/>
</a>
</g>
<g id="a_edge1&#45;label"><a xlink:href="docs/safe.start.html" xlink:title="start (safe)" target="_parent">
<text text-anchor="middle" x="254.13" y="-208.6" font-family="Times,serif" font-size="13.00">start (safe)</text>
</a>
</g>
</g>
<!-- About&#45;&gt;Blog -->
<g id="edge2" class="edge">
<title>About&#45;&gt;Blog</title>
<g id="a_edge2"><a xlink:href="docs/safe.backToBlog.html" xlink:title="backToBlog (safe)" target="_parent">
<path fill="none" stroke="black" d="M352.83,-77.14C362.64,-91.61 372.3,-112.27 361.13,-127 350.99,-140.36 312.83,-150.3 279.5,-156.65"/>
<polygon fill="black" stroke="black" points="278.56,-153.26 269.35,-158.51 279.81,-160.15 278.56,-153.26"/>
</a>
</g>
<g id="a_edge2&#45;label"><a xlink:href="docs/safe.backToBlog.html" xlink:title="backToBlog (safe)" target="_parent">
<text text-anchor="middle" x="415.13" y="-116.6" font-family="Times,serif" font-size="13.00">backToBlog (safe)</text>
</a>
</g>
</g>
</g>
</svg>
