<?xml version="1.0" encoding="UTF-8" standalone="no"?>
<!DOCTYPE svg PUBLIC "-//W3C//DTD SVG 1.1//EN"
 "http://www.w3.org/Graphics/SVG/1.1/DTD/svg11.dtd">
<!-- Generated by graphviz version 7.1.0 (20230121.1956)
 -->
<!-- Title: application_state_diagram Pages: 1 -->
<svg width="249pt" height="281pt"
 viewBox="0.00 0.00 249.18 281.00" xmlns="http://www.w3.org/2000/svg" xmlns:xlink="http://www.w3.org/1999/xlink">
<g id="graph0" class="graph" transform="scale(1 1) rotate(0) translate(4 277)">
<title>application_state_diagram</title>
<g id="a_graph0"><a xlink:href="index.html" xlink:title="ALPS example" target="_parent">
<polygon fill="white" stroke="none" points="-4,4 -4,-277 245.18,-277 245.18,4 -4,4"/>
<text text-anchor="middle" x="120.59" y="-257.8" font-family="Helvetica,sans-Serif" font-size="14.00">ALPS example</text>
</a>
</g>
<!-- Blog -->
<g id="node1" class="node">
<title>Blog</title>
<g id="a_node1"><a xlink:href="docs/semantic.Blog.html" xlink:title="&lt;TABLE&gt;" target="_parent">
<polygon fill="lightgray" stroke="black" stroke-width="2" points="159.18,-164 71.18,-164 71.18,-122 159.18,-122 159.18,-164"/>
<text text-anchor="start" x="101.68" y="-146.8" font-family="Times,serif" font-size="14.00">Blog</text>
<text text-anchor="start" x="77.18" y="-131.8" font-family="Times,serif" font-size="14.00">(BlogPosting)</text>
</a>
</g>
</g>
<!-- Blog&#45;&gt;Blog -->
<g id="edge3" class="edge">
<title>Blog&#45;&gt;Blog</title>
<g id="a_edge3"><a xlink:href="docs/unsafe.post.html" xlink:title="&lt;b&gt;&lt;u&gt;post&lt;/u&gt;&lt;/b&gt;" target="_parent">
<path fill="none" stroke="black" d="M159.49,-151.43C169.69,-150.71 177.18,-147.9 177.18,-143 177.18,-140.17 174.68,-138.04 170.59,-136.6"/>
<polygon fill="black" stroke="black" points="171.44,-133.2 160.98,-134.84 170.18,-140.08 171.44,-133.2"/>
</a>
</g>
<g id="a_edge3&#45;label"><a xlink:href="docs/unsafe.post.html" xlink:title="&lt;b&gt;&lt;u&gt;post&lt;/u&gt;&lt;/b&gt;" target="_parent">
<text text-anchor="start" x="177.18" y="-140.6" font-family="Times,serif" font-weight="bold" text-decoration="underline" font-size="13.00">post</text>
</a>
</g>
</g>
<!-- BlogPosting -->
<g id="node2" class="node">
<title>BlogPosting</title>
<g id="a_node2"><a xlink:href="docs/semantic.BlogPosting.html" xlink:title="&lt;TABLE&gt;" target="_parent">
<polygon fill="lightgray" stroke="black" stroke-width="2" points="97.18,-72 11.18,-72 11.18,0 97.18,0 97.18,-72"/>
<text text-anchor="start" x="20.68" y="-54.8" font-family="Times,serif" font-size="14.00">BlogPosting</text>
<text text-anchor="start" x="44.18" y="-39.8" font-family="Times,serif" font-size="14.00">(id)</text>
<text text-anchor="start" x="17.68" y="-24.8" font-family="Times,serif" font-size="14.00">(articleBody)</text>
<text text-anchor="start" x="17.18" y="-9.8" font-family="Times,serif" font-size="14.00">(dateCreated)</text>
</a>
</g>
</g>
<!-- Blog&#45;&gt;BlogPosting -->
<g id="edge4" class="edge">
<title>Blog&#45;&gt;BlogPosting</title>
<g id="a_edge4"><a xlink:href="docs/safe.blogPosting.html" xlink:title="blogPosting" target="_parent">
<path fill="none" stroke="black" d="M70.77,-138.86C46.87,-134.64 19.28,-125.13 4.18,-104 -1.77,-95.68 -0.65,-86.86 4.09,-78.45"/>
<polygon fill="black" stroke="black" points="6.89,-80.56 9.92,-70.4 1.22,-76.45 6.89,-80.56"/>
</a>
</g>
<g id="a_edge4&#45;label"><a xlink:href="docs/safe.blogPosting.html" xlink:title="blogPosting" target="_parent">
<text text-anchor="start" x="4.18" y="-93.6" font-family="Times,serif" font-size="13.00">blogPosting</text>
</a>
</g>
</g>
<!-- About -->
<g id="node3" class="node">
<title>About</title>
<g id="a_node3"><a xlink:href="docs/semantic.About.html" xlink:title="About" target="_parent">
<polygon fill="lightgray" stroke="black" stroke-width="2" points="193.18,-54 139.18,-54 139.18,-18 193.18,-18 193.18,-54"/>
<text text-anchor="middle" x="166.18" y="-32.3" font-family="Times,serif" font-size="14.00">About</text>
</a>
</g>
</g>
<!-- Blog&#45;&gt;About -->
<g id="edge2" class="edge">
<title>Blog&#45;&gt;About</title>
<g id="a_edge2"><a xlink:href="docs/safe.about.html" xlink:title="about" target="_parent">
<path fill="none" stroke="black" d="M122.56,-121.98C126.34,-112.2 131.19,-100.35 136.18,-90 140.32,-81.43 145.25,-72.33 149.91,-64.14"/>
<polygon fill="black" stroke="black" points="152.84,-66.07 154.83,-55.67 146.79,-62.56 152.84,-66.07"/>
</a>
</g>
<g id="a_edge2&#45;label"><a xlink:href="docs/safe.about.html" xlink:title="about" target="_parent">
<text text-anchor="start" x="136.18" y="-93.6" font-family="Times,serif" font-size="13.00">about</text>
</a>
</g>
</g>
<!-- BlogPosting&#45;&gt;Blog -->
<g id="edge5" class="edge">
<title>BlogPosting&#45;&gt;Blog</title>
<g id="a_edge5"><a xlink:href="docs/safe.blog.html" xlink:title="blog" target="_parent">
<path fill="none" stroke="black" d="M74.71,-72.33C82.13,-85.11 90.44,-99.41 97.59,-111.72"/>
<polygon fill="black" stroke="black" points="94.47,-113.31 102.51,-120.2 100.52,-109.79 94.47,-113.31"/>
</a>
</g>
<g id="a_edge5&#45;label"><a xlink:href="docs/safe.blog.html" xlink:title="blog" target="_parent">
<text text-anchor="start" x="92.18" y="-93.6" font-family="Times,serif" font-size="13.00">blog</text>
</a>
</g>
</g>
<!-- About&#45;&gt;Blog -->
<g id="edge1" class="edge">
<title>About&#45;&gt;Blog</title>
<g id="a_edge1"><a xlink:href="docs/safe.backToBlog.html" xlink:title="backToBlog" target="_parent">
<path fill="none" stroke="black" d="M172.34,-54.28C176.29,-68.47 179.32,-88.64 171.18,-104 169.31,-107.53 166.95,-110.8 164.25,-113.8"/>
<polygon fill="black" stroke="black" points="161.94,-111.17 157.04,-120.56 166.73,-116.28 161.94,-111.17"/>
</a>
</g>
<g id="a_edge1&#45;label"><a xlink:href="docs/safe.backToBlog.html" xlink:title="backToBlog" target="_parent">
<text text-anchor="start" x="175.18" y="-93.6" font-family="Times,serif" font-size="13.00">backToBlog</text>
</a>
</g>
</g>
<!-- Index -->
<g id="node4" class="node">
<title>Index</title>
<g id="a_node4"><a xlink:href="docs/semantic.Index.html" xlink:title="Index" target="_parent">
<polygon fill="lightgray" stroke="black" stroke-width="2" points="142.18,-250 88.18,-250 88.18,-214 142.18,-214 142.18,-250"/>
<text text-anchor="middle" x="115.18" y="-228.3" font-family="Times,serif" font-size="14.00">Index</text>
</a>
</g>
</g>
<!-- Index&#45;&gt;Blog -->
<g id="edge6" class="edge">
<title>Index&#45;&gt;Blog</title>
<g id="a_edge6"><a xlink:href="docs/safe.start.html" xlink:title="start" target="_parent">
<path fill="none" stroke="black" d="M115.18,-213.81C115.18,-202.89 115.18,-188.43 115.18,-175.5"/>
<polygon fill="black" stroke="black" points="118.68,-175.72 115.18,-165.72 111.68,-175.72 118.68,-175.72"/>
</a>
</g>
<g id="a_edge6&#45;label"><a xlink:href="docs/safe.start.html" xlink:title="start" target="_parent">
<text text-anchor="start" x="115.18" y="-185.6" font-family="Times,serif" font-size="13.00">start</text>
</a>
</g>
</g>
</g>
</svg>
