<?xml version="1.0" encoding="UTF-8" standalone="no"?>
<!DOCTYPE svg PUBLIC "-//W3C//DTD SVG 1.1//EN"
 "http://www.w3.org/Graphics/SVG/1.1/DTD/svg11.dtd">
<!-- Generated by graphviz version 8.1.0 (20230707.0739)
 -->
<!-- Title: application_state_diagram Pages: 1 -->
<svg width="247pt" height="294pt"
 viewBox="0.00 0.00 247.03 293.76" xmlns="http://www.w3.org/2000/svg" xmlns:xlink="http://www.w3.org/1999/xlink">
<g id="graph0" class="graph" transform="scale(1 1) rotate(0) translate(4 289.76)">
<title>application_state_diagram</title>
<g id="a_graph0"><a xlink:href="index.html" xlink:title="ALPS example" target="_parent">
<polygon fill="white" stroke="none" points="-4,4 -4,-289.76 243.03,-289.76 243.03,4 -4,4"/>
<text text-anchor="middle" x="119.52" y="-268.46" font-family="Helvetica,sans-Serif" font-size="14.00">ALPS example</text>
</a>
</g>
<!-- Blog -->
<g id="node1" class="node">
<title>Blog</title>
<g id="a_node1"><a xlink:href="docs/semantic.Blog.html" xlink:title="&lt;TABLE&gt;" target="_parent">
<polygon fill="lightgray" stroke="black" stroke-width="2" points="158.1,-175.76 69.47,-175.76 69.47,-129.88 158.1,-129.88 158.1,-175.76"/>
<text text-anchor="start" x="100.66" y="-156.02" font-family="Times,serif" font-size="14.00">Blog</text>
<text text-anchor="start" x="75.91" y="-139.52" font-family="Times,serif" font-size="14.00">(BlogPosting)</text>
</a>
</g>
</g>
<!-- Blog&#45;&gt;Blog -->
<g id="edge3" class="edge">
<title>Blog&#45;&gt;Blog</title>
<g id="a_edge3"><a xlink:href="docs/unsafe.post.html" xlink:title="&lt;b&gt;&lt;u&gt;post&lt;/u&gt;&lt;/b&gt;" target="_parent">
<path fill="none" stroke="black" d="M158.6,-161.68C168.7,-160.88 176.1,-157.93 176.1,-152.82 176.1,-149.79 173.49,-147.51 169.26,-146"/>
<polygon fill="black" stroke="black" points="170.08,-142.4 159.6,-143.96 168.76,-149.28 170.08,-142.4"/>
</a>
</g>
<g id="a_edge3&#45;label"><a xlink:href="docs/unsafe.post.html" xlink:title="&lt;b&gt;&lt;u&gt;post&lt;/u&gt;&lt;/b&gt;" target="_parent">
<text text-anchor="start" x="176.1" y="-148.97" font-family="Times,serif" font-weight="bold" text-decoration="underline" font-size="13.00">post</text>
</a>
</g>
</g>
<!-- BlogPosting -->
<g id="node2" class="node">
<title>BlogPosting</title>
<g id="a_node2"><a xlink:href="docs/semantic.BlogPosting.html" xlink:title="&lt;TABLE&gt;" target="_parent">
<polygon fill="lightgray" stroke="black" stroke-width="2" points="95.97,-78.88 9.59,-78.88 9.59,0 95.97,0 95.97,-78.88"/>
<text text-anchor="start" x="19.41" y="-59.14" font-family="Times,serif" font-size="14.00">BlogPosting</text>
<text text-anchor="start" x="43.03" y="-42.64" font-family="Times,serif" font-size="14.00">(id)</text>
<text text-anchor="start" x="16.78" y="-26.14" font-family="Times,serif" font-size="14.00">(articleBody)</text>
<text text-anchor="start" x="16.03" y="-9.64" font-family="Times,serif" font-size="14.00">(dateCreated)</text>
</a>
</g>
</g>
<!-- Blog&#45;&gt;BlogPosting -->
<g id="edge4" class="edge">
<title>Blog&#45;&gt;BlogPosting</title>
<g id="a_edge4"><a xlink:href="docs/safe.blogPosting.html" xlink:title="blogPosting" target="_parent">
<path fill="none" stroke="black" d="M69.06,-147.54C45.66,-142.77 18.9,-132.77 4.28,-111.88 -1.59,-103.49 -0.87,-94.49 3.33,-85.81"/>
<polygon fill="black" stroke="black" points="6.78,-87.89 9.11,-77.55 0.85,-84.18 6.78,-87.89"/>
</a>
</g>
<g id="a_edge4&#45;label"><a xlink:href="docs/safe.blogPosting.html" xlink:title="blogPosting" target="_parent">
<text text-anchor="start" x="4.78" y="-99.53" font-family="Times,serif" font-size="13.00">blogPosting</text>
</a>
</g>
</g>
<!-- About -->
<g id="node3" class="node">
<title>About</title>
<g id="a_node3"><a xlink:href="docs/semantic.About.html" xlink:title="About" target="_parent">
<polygon fill="lightgray" stroke="black" stroke-width="2" points="190.78,-57.44 136.78,-57.44 136.78,-21.44 190.78,-21.44 190.78,-57.44"/>
<text text-anchor="middle" x="163.78" y="-34.39" font-family="Times,serif" font-size="14.00">About</text>
</a>
</g>
</g>
<!-- Blog&#45;&gt;About -->
<g id="edge2" class="edge">
<title>Blog&#45;&gt;About</title>
<g id="a_edge2"><a xlink:href="docs/safe.about.html" xlink:title="about" target="_parent">
<path fill="none" stroke="black" d="M121.72,-129.41C125.44,-119.36 130.08,-107.42 134.78,-96.88 139.2,-86.98 144.51,-76.35 149.37,-67.02"/>
<polygon fill="black" stroke="black" points="152.82,-68.97 154.4,-58.49 146.64,-65.7 152.82,-68.97"/>
</a>
</g>
<g id="a_edge2&#45;label"><a xlink:href="docs/safe.about.html" xlink:title="about" target="_parent">
<text text-anchor="start" x="134.78" y="-99.53" font-family="Times,serif" font-size="13.00">about</text>
</a>
</g>
</g>
<!-- BlogPosting&#45;&gt;Blog -->
<g id="edge5" class="edge">
<title>BlogPosting&#45;&gt;Blog</title>
<g id="a_edge5"><a xlink:href="docs/safe.blog.html" xlink:title="blog" target="_parent">
<path fill="none" stroke="black" d="M74.1,-79.36C81.36,-92.61 89.38,-107.27 96.31,-119.91"/>
<polygon fill="black" stroke="black" points="93.71,-121.46 101.59,-128.55 99.85,-118.1 93.71,-121.46"/>
</a>
</g>
<g id="a_edge5&#45;label"><a xlink:href="docs/safe.blog.html" xlink:title="blog" target="_parent">
<text text-anchor="start" x="90.78" y="-99.53" font-family="Times,serif" font-size="13.00">blog</text>
</a>
</g>
</g>
<!-- About&#45;&gt;Blog -->
<g id="edge1" class="edge">
<title>About&#45;&gt;Blog</title>
<g id="a_edge1"><a xlink:href="docs/safe.backToBlog.html" xlink:title="backToBlog" target="_parent">
<path fill="none" stroke="black" d="M169.84,-57.89C173.99,-73.01 177.36,-95.04 168.78,-111.88 166.96,-115.45 164.65,-118.78 162.02,-121.87"/>
<polygon fill="black" stroke="black" points="160.01,-118.93 155.4,-128.48 164.95,-123.89 160.01,-118.93"/>
</a>
</g>
<g id="a_edge1&#45;label"><a xlink:href="docs/safe.backToBlog.html" xlink:title="backToBlog" target="_parent">
<text text-anchor="start" x="173.78" y="-99.53" font-family="Times,serif" font-size="13.00">backToBlog</text>
</a>
</g>
</g>
<!-- Index -->
<g id="node4" class="node">
<title>Index</title>
<g id="a_node4"><a xlink:href="docs/semantic.Index.html" xlink:title="Index" target="_parent">
<polygon fill="lightgray" stroke="black" stroke-width="2" points="140.78,-262.76 86.78,-262.76 86.78,-226.76 140.78,-226.76 140.78,-262.76"/>
<text text-anchor="middle" x="113.78" y="-239.71" font-family="Times,serif" font-size="14.00">Index</text>
</a>
</g>
</g>
<!-- Index&#45;&gt;Blog -->
<g id="edge6" class="edge">
<title>Index&#45;&gt;Blog</title>
<g id="a_edge6"><a xlink:href="docs/safe.start.html" xlink:title="start" target="_parent">
<path fill="none" stroke="black" d="M113.78,-226.42C113.78,-215.25 113.78,-200.38 113.78,-187"/>
<polygon fill="black" stroke="black" points="117.28,-187.23 113.78,-177.23 110.28,-187.23 117.28,-187.23"/>
</a>
</g>
<g id="a_edge6&#45;label"><a xlink:href="docs/safe.start.html" xlink:title="start" target="_parent">
<text text-anchor="start" x="113.78" y="-196.41" font-family="Times,serif" font-size="13.00">start</text>
</a>
</g>
</g>
</g>
</svg>
