<?xml version="1.0" encoding="UTF-8" standalone="no"?>
<!DOCTYPE svg PUBLIC "-//W3C//DTD SVG 1.1//EN"
 "http://www.w3.org/Graphics/SVG/1.1/DTD/svg11.dtd">
<!-- Generated by graphviz version 8.1.0 (20230707.0739)
 -->
<!-- Title: application_state_diagram Pages: 1 -->
<svg width="472pt" height="294pt"
 viewBox="0.00 0.00 471.90 293.76" xmlns="http://www.w3.org/2000/svg" xmlns:xlink="http://www.w3.org/1999/xlink">
<g id="graph0" class="graph" transform="scale(1 1) rotate(0) translate(4 289.76)">
<title>application_state_diagram</title>
<g id="a_graph0"><a xlink:href="index.html" xlink:title="ALPS example" target="_parent">
<polygon fill="white" stroke="none" points="-4,4 -4,-289.76 467.9,-289.76 467.9,4 -4,4"/>
<text text-anchor="middle" x="231.95" y="-268.46" font-family="Helvetica,sans-Serif" font-size="14.00">ALPS example</text>
</a>
</g>
<!-- Blog -->
<g id="node1" class="node">
<title>Blog</title>
<g id="a_node1"><a xlink:href="docs/semantic.Blog.html" xlink:title="&lt;TABLE&gt;" target="_parent">
<polygon fill="lightgray" stroke="black" stroke-width="2" points="269.22,-175.76 180.59,-175.76 180.59,-129.88 269.22,-129.88 269.22,-175.76"/>
<text text-anchor="start" x="211.78" y="-156.02" font-family="Times,serif" font-size="14.00">Blog</text>
<text text-anchor="start" x="187.03" y="-139.52" font-family="Times,serif" font-size="14.00">(BlogPosting)</text>
</a>
</g>
</g>
<!-- Blog&#45;&gt;Blog -->
<g id="edge3" class="edge">
<title>Blog&#45;&gt;Blog</title>
<g id="a_edge3"><a xlink:href="docs/unsafe.post.html" xlink:title="post (unsafe)" target="_parent">
<path fill="none" stroke="black" d="M269.71,-161.68C279.82,-160.88 287.22,-157.93 287.22,-152.82 287.22,-149.79 284.61,-147.51 280.38,-146"/>
<polygon fill="black" stroke="black" points="281.19,-142.4 270.71,-143.96 279.88,-149.28 281.19,-142.4"/>
</a>
</g>
<g id="a_edge3&#45;label"><a xlink:href="docs/unsafe.post.html" xlink:title="post (unsafe)" target="_parent">
<text text-anchor="start" x="287.22" y="-147.97" font-family="Times,serif" font-size="13.00">post (unsafe)</text>
</a>
</g>
</g>
<!-- BlogPosting -->
<g id="node2" class="node">
<title>BlogPosting</title>
<g id="a_node2"><a xlink:href="docs/semantic.BlogPosting.html" xlink:title="&lt;TABLE&gt;" target="_parent">
<polygon fill="lightgray" stroke="black" stroke-width="2" points="123.09,-78.88 36.71,-78.88 36.71,0 123.09,0 123.09,-78.88"/>
<text text-anchor="start" x="46.53" y="-59.14" font-family="Times,serif" font-size="14.00">BlogPosting</text>
<text text-anchor="start" x="70.15" y="-42.64" font-family="Times,serif" font-size="14.00">(id)</text>
<text text-anchor="start" x="43.9" y="-26.14" font-family="Times,serif" font-size="14.00">(articleBody)</text>
<text text-anchor="start" x="43.15" y="-9.64" font-family="Times,serif" font-size="14.00">(dateCreated)</text>
</a>
</g>
</g>
<!-- Blog&#45;&gt;BlogPosting -->
<g id="edge4" class="edge">
<title>Blog&#45;&gt;BlogPosting</title>
<g id="a_edge4"><a xlink:href="docs/safe.blogPosting.html" xlink:title="blogPosting, item (safe)" target="_parent">
<path fill="none" stroke="black" d="M180.39,-150.22C122.8,-147.11 27.24,-138.05 5.4,-111.88 -8.3,-95.46 6.96,-78.82 27.16,-65.74"/>
<polygon fill="black" stroke="black" points="28.62,-68.34 35.38,-60.18 25.01,-62.35 28.62,-68.34"/>
</a>
</g>
<g id="a_edge4&#45;label"><a xlink:href="docs/safe.blogPosting.html" xlink:title="blogPosting, item (safe)" target="_parent">
<text text-anchor="start" x="5.9" y="-99.53" font-family="Times,serif" font-size="13.00">blogPosting, item (safe)</text>
</a>
</g>
</g>
<!-- About -->
<g id="node3" class="node">
<title>About</title>
<g id="a_node3"><a xlink:href="docs/semantic.About.html" xlink:title="About" target="_parent">
<polygon fill="lightgray" stroke="black" stroke-width="2" points="364.9,-57.44 310.9,-57.44 310.9,-21.44 364.9,-21.44 364.9,-57.44"/>
<text text-anchor="middle" x="337.9" y="-34.39" font-family="Times,serif" font-size="14.00">About</text>
</a>
</g>
</g>
<!-- Blog&#45;&gt;About -->
<g id="edge2" class="edge">
<title>Blog&#45;&gt;About</title>
<g id="a_edge2"><a xlink:href="docs/safe.about.html" xlink:title="about (safe)" target="_parent">
<path fill="none" stroke="black" d="M253.13,-129.43C259.77,-123.87 266.71,-117.8 272.9,-111.88 288.05,-97.38 303.91,-80 316.17,-66.02"/>
<polygon fill="black" stroke="black" points="319.39,-68.65 323.3,-58.8 314.1,-64.06 319.39,-68.65"/>
</a>
</g>
<g id="a_edge2&#45;label"><a xlink:href="docs/safe.about.html" xlink:title="about (safe)" target="_parent">
<text text-anchor="start" x="287.9" y="-99.53" font-family="Times,serif" font-size="13.00">about (safe)</text>
</a>
</g>
</g>
<!-- BlogPosting&#45;&gt;Blog -->
<g id="edge5" class="edge">
<title>BlogPosting&#45;&gt;Blog</title>
<g id="a_edge5"><a xlink:href="docs/safe.blog.html" xlink:title="blog, collection (safe)" target="_parent">
<path fill="none" stroke="black" d="M115.07,-79.27C126.25,-90.5 139.06,-102.3 151.9,-111.88 157.95,-116.39 164.57,-120.73 171.28,-124.77"/>
<polygon fill="black" stroke="black" points="169.03,-128.09 179.43,-130.09 172.54,-122.04 169.03,-128.09"/>
</a>
</g>
<g id="a_edge5&#45;label"><a xlink:href="docs/safe.blog.html" xlink:title="blog, collection (safe)" target="_parent">
<text text-anchor="start" x="151.9" y="-99.53" font-family="Times,serif" font-size="13.00">blog, collection (safe)</text>
</a>
</g>
</g>
<!-- About&#45;&gt;Blog -->
<g id="edge1" class="edge">
<title>About&#45;&gt;Blog</title>
<g id="a_edge1"><a xlink:href="docs/safe.backToBlog.html" xlink:title="backToBlog (safe)" target="_parent">
<path fill="none" stroke="black" d="M351.29,-57.8C361.47,-73.27 371.86,-95.87 359.9,-111.88 341.61,-136.36 308.99,-146.46 280.39,-150.38"/>
<polygon fill="black" stroke="black" points="280.21,-146.99 270.67,-151.6 281,-153.95 280.21,-146.99"/>
</a>
</g>
<g id="a_edge1&#45;label"><a xlink:href="docs/safe.backToBlog.html" xlink:title="backToBlog (safe)" target="_parent">
<text text-anchor="start" x="364.9" y="-99.53" font-family="Times,serif" font-size="13.00">backToBlog (safe)</text>
</a>
</g>
</g>
<!-- Index -->
<g id="node4" class="node">
<title>Index</title>
<g id="a_node4"><a xlink:href="docs/semantic.Index.html" xlink:title="Index" target="_parent">
<polygon fill="lightgray" stroke="black" stroke-width="2" points="251.9,-262.76 197.9,-262.76 197.9,-226.76 251.9,-226.76 251.9,-262.76"/>
<text text-anchor="middle" x="224.9" y="-239.71" font-family="Times,serif" font-size="14.00">Index</text>
</a>
</g>
</g>
<!-- Index&#45;&gt;Blog -->
<g id="edge6" class="edge">
<title>Index&#45;&gt;Blog</title>
<g id="a_edge6"><a xlink:href="docs/safe.start.html" xlink:title="start (safe)" target="_parent">
<path fill="none" stroke="black" d="M224.9,-226.42C224.9,-215.25 224.9,-200.38 224.9,-187"/>
<polygon fill="black" stroke="black" points="228.4,-187.23 224.9,-177.23 221.4,-187.23 228.4,-187.23"/>
</a>
</g>
<g id="a_edge6&#45;label"><a xlink:href="docs/safe.start.html" xlink:title="start (safe)" target="_parent">
<text text-anchor="start" x="224.9" y="-196.41" font-family="Times,serif" font-size="13.00">start (safe)</text>
</a>
</g>
</g>
</g>
</svg>
