<?xml version="1.0" encoding="UTF-8" standalone="no"?>
<!DOCTYPE svg PUBLIC "-//W3C//DTD SVG 1.1//EN"
 "http://www.w3.org/Graphics/SVG/1.1/DTD/svg11.dtd">
<!-- Generated by graphviz version 9.0.0 (20230911.1827)
 -->
<!-- Title: application_state_diagram Pages: 1 -->
<svg width="271pt" height="294pt"
 viewBox="0.00 0.00 270.84 293.76" xmlns="http://www.w3.org/2000/svg" xmlns:xlink="http://www.w3.org/1999/xlink">
<g id="graph0" class="graph" transform="scale(1 1) rotate(0) translate(4 289.76)">
<title>application_state_diagram</title>
<g id="a_graph0"><a xlink:href="index.html" xlink:title="ALPS example" target="_parent">
<polygon fill="white" stroke="none" points="-4,4 -4,-289.76 266.84,-289.76 266.84,4 -4,4"/>
<text text-anchor="middle" x="131.42" y="-268.46" font-family="Helvetica,sans-Serif" font-size="14.00">ALPS example</text>
</a>
</g>
<!-- Blog -->
<g id="node1" class="node">
<title>Blog</title>
<g id="a_node1"><a xlink:href="#Blog" xlink:title="&lt;TABLE&gt;" target="_parent">
<polygon fill="lightgray" stroke="black" stroke-width="2" points="182.41,-175.76 93.78,-175.76 93.78,-129.88 182.41,-129.88 182.41,-175.76"/>
<text text-anchor="start" x="124.97" y="-156.02" font-family="Times,serif" font-size="14.00">Blog</text>
<text text-anchor="start" x="100.22" y="-139.52" font-family="Times,serif" font-size="14.00">(BlogPosting)</text>
</a>
</g>
</g>
<!-- Blog&#45;&gt;Blog -->
<g id="edge3" class="edge doPost">
<title>Blog&#45;&gt;Blog</title>
<g id="a_edge3"><a xlink:href="#doPost" xlink:title="&lt;b&gt;&lt;u&gt;doPost&lt;/u&gt;&lt;/b&gt;" target="_parent">
<path fill="none" stroke="black" stroke-width="1.5" d="M182.91,-161.68C193.01,-160.88 200.41,-157.93 200.41,-152.82 200.41,-150.11 198.32,-148 194.85,-146.5"/>
<polygon fill="black" stroke="black" stroke-width="1.5" points="195.64,-143.09 185.13,-144.43 194.18,-149.94 195.64,-143.09"/>
</a>
</g>
<g id="a_edge3&#45;label"><a xlink:href="#doPost" xlink:title="&lt;b&gt;&lt;u&gt;doPost&lt;/u&gt;&lt;/b&gt;" target="_parent">
<text text-anchor="start" x="200.41" y="-148.97" font-family="Times,serif" font-weight="bold" text-decoration="underline" font-size="13.00">doPost</text>
</a>
</g>
</g>
<!-- BlogPosting -->
<g id="node2" class="node">
<title>BlogPosting</title>
<g id="a_node2"><a xlink:href="#BlogPosting" xlink:title="&lt;TABLE&gt;" target="_parent">
<polygon fill="lightgray" stroke="black" stroke-width="2" points="118.28,-78.88 31.9,-78.88 31.9,0 118.28,0 118.28,-78.88"/>
<text text-anchor="start" x="41.72" y="-59.14" font-family="Times,serif" font-size="14.00">BlogPosting</text>
<text text-anchor="start" x="65.34" y="-42.64" font-family="Times,serif" font-size="14.00">(id)</text>
<text text-anchor="start" x="39.09" y="-26.14" font-family="Times,serif" font-size="14.00">(articleBody)</text>
<text text-anchor="start" x="38.34" y="-9.64" font-family="Times,serif" font-size="14.00">(dateCreated)</text>
</a>
</g>
</g>
<!-- Blog&#45;&gt;BlogPosting -->
<g id="edge4" class="edge goBlogPosting">
<title>Blog&#45;&gt;BlogPosting</title>
<g id="a_edge4"><a xlink:href="#goBlogPosting" xlink:title="goBlogPosting" target="_parent">
<path fill="none" stroke="black" stroke-width="1.5" d="M93.57,-151.39C63.26,-148.47 25.1,-139.1 4.84,-111.88 -6.64,-96.46 4.89,-81.03 21.7,-68.49"/>
<polygon fill="black" stroke="black" stroke-width="1.5" points="23.3,-71.63 29.6,-63.11 19.36,-65.85 23.3,-71.63"/>
</a>
</g>
<g id="a_edge4&#45;label"><a xlink:href="#goBlogPosting" xlink:title="goBlogPosting" target="_parent">
<text text-anchor="start" x="5.09" y="-99.53" font-family="Times,serif" font-size="13.00">goBlogPosting</text>
</a>
</g>
</g>
<!-- About -->
<g id="node3" class="node">
<title>About</title>
<g id="a_node3"><a xlink:href="#About" xlink:title="About" target="_parent">
<polygon fill="lightgray" stroke="black" stroke-width="2" points="229.09,-57.44 175.09,-57.44 175.09,-21.44 229.09,-21.44 229.09,-57.44"/>
<text text-anchor="middle" x="202.09" y="-34.39" font-family="Times,serif" font-size="14.00">About</text>
</a>
</g>
</g>
<!-- Blog&#45;&gt;About -->
<g id="edge2" class="edge goAbout">
<title>Blog&#45;&gt;About</title>
<g id="a_edge2"><a xlink:href="#goAbout" xlink:title="goAbout" target="_parent">
<path fill="none" stroke="black" stroke-width="1.5" d="M149.32,-129.42C154.49,-119.38 160.8,-107.44 166.84,-96.88 172.37,-87.23 178.73,-76.85 184.51,-67.65"/>
<polygon fill="black" stroke="black" stroke-width="1.5" points="187.32,-69.76 189.73,-59.44 181.41,-66 187.32,-69.76"/>
</a>
</g>
<g id="a_edge2&#45;label"><a xlink:href="#goAbout" xlink:title="goAbout" target="_parent">
<text text-anchor="start" x="167.09" y="-99.53" font-family="Times,serif" font-size="13.00">goAbout</text>
</a>
</g>
</g>
<!-- BlogPosting&#45;&gt;Blog -->
<g id="edge5" class="edge goBlog">
<title>BlogPosting&#45;&gt;Blog</title>
<g id="a_edge5"><a xlink:href="#goBlog" xlink:title="goBlog" target="_parent">
<path fill="none" stroke="black" stroke-width="1.5" d="M91.46,-79.37C96.45,-90.13 102.24,-101.66 108.34,-111.88 109.89,-114.48 111.58,-117.11 113.33,-119.73"/>
<polygon fill="black" stroke="black" stroke-width="1.5" points="110.33,-121.56 118.96,-127.71 116.05,-117.52 110.33,-121.56"/>
</a>
</g>
<g id="a_edge5&#45;label"><a xlink:href="#goBlog" xlink:title="goBlog" target="_parent">
<text text-anchor="start" x="109.09" y="-99.53" font-family="Times,serif" font-size="13.00">goBlog</text>
</a>
</g>
</g>
<!-- About&#45;&gt;Blog -->
<g id="edge1" class="edge goBlog">
<title>About&#45;&gt;Blog</title>
<g id="a_edge1"><a xlink:href="#goBlog" xlink:title="goBlog" target="_parent">
<path fill="none" stroke="black" stroke-width="1.5" d="M212.75,-57.8C220.61,-73.05 228.32,-95.34 218.09,-111.88 212.22,-121.38 203.32,-128.7 193.57,-134.31"/>
<polygon fill="black" stroke="black" stroke-width="1.5" points="192.14,-131.1 184.78,-138.72 195.29,-137.36 192.14,-131.1"/>
</a>
</g>
<g id="a_edge1&#45;label"><a xlink:href="#goBlog" xlink:title="goBlog" target="_parent">
<text text-anchor="start" x="223.09" y="-99.53" font-family="Times,serif" font-size="13.00">goBlog</text>
</a>
</g>
</g>
<!-- Index -->
<g id="node4" class="node">
<title>Index</title>
<g id="a_node4"><a xlink:href="#Index" xlink:title="Index" target="_parent">
<polygon fill="lightgray" stroke="black" stroke-width="2" points="165.09,-262.76 111.09,-262.76 111.09,-226.76 165.09,-226.76 165.09,-262.76"/>
<text text-anchor="middle" x="138.09" y="-239.71" font-family="Times,serif" font-size="14.00">Index</text>
</a>
</g>
</g>
<!-- Index&#45;&gt;Blog -->
<g id="edge6" class="edge start">
<title>Index&#45;&gt;Blog</title>
<g id="a_edge6"><a xlink:href="#start" xlink:title="start" target="_parent">
<path fill="none" stroke="black" stroke-width="1.5" d="M138.09,-226.42C138.09,-215.59 138.09,-201.26 138.09,-188.2"/>
<polygon fill="black" stroke="black" stroke-width="1.5" points="141.59,-188.5 138.09,-178.5 134.59,-188.5 141.59,-188.5"/>
</a>
</g>
<g id="a_edge6&#45;label"><a xlink:href="#start" xlink:title="start" target="_parent">
<text text-anchor="start" x="138.09" y="-196.41" font-family="Times,serif" font-size="13.00">start</text>
</a>
</g>
</g>
</g>
</svg>
