<?xml version="1.0" encoding="UTF-8" standalone="no"?>
<!DOCTYPE svg PUBLIC "-//W3C//DTD SVG 1.1//EN"
 "http://www.w3.org/Graphics/SVG/1.1/DTD/svg11.dtd">
<!-- Generated by graphviz version 2.49.3 (20211023.0002)
 -->
<!-- Title: application_state_diagram Pages: 1 -->
<svg width="461pt" height="281pt"
 viewBox="0.00 0.00 461.18 281.00" xmlns="http://www.w3.org/2000/svg" xmlns:xlink="http://www.w3.org/1999/xlink">
<g id="graph0" class="graph" transform="scale(1 1) rotate(0) translate(4 277)">
<title>application_state_diagram</title>
<g id="a_graph0"><a xlink:href="index.html" xlink:title="ALPS example" target="_parent">
<polygon fill="white" stroke="transparent" points="-4,4 -4,-277 457.18,-277 457.18,4 -4,4"/>
<text text-anchor="middle" x="226.59" y="-257.8" font-family="Helvetica,sans-Serif" font-size="14.00">ALPS example</text>
</a>
</g>
<!-- Blog -->
<g id="node1" class="node">
<title>Blog</title>
<g id="a_node1"><a xlink:href="docs/semantic.Blog.html" xlink:title="&lt;TABLE&gt;" target="_parent">
<polygon fill="lightgray" stroke="red" stroke-width="2" points="265.68,-164 174.68,-164 174.68,-122 265.68,-122 265.68,-164"/>
<text text-anchor="start" x="206.68" y="-146.8" font-family="Times,serif" font-size="14.00">Blog</text>
<text text-anchor="start" x="181.18" y="-131.8" font-family="Times,serif" font-size="14.00">(BlogPosting)</text>
</a>
</g>
</g>
<!-- Blog&#45;&gt;Blog -->
<g id="edge3" class="edge">
<title>Blog&#45;&gt;Blog</title>
<g id="a_edge3"><a xlink:href="docs/unsafe.post.html" xlink:title="post (unsafe)" target="_parent">
<path fill="none" stroke="black" d="M265.85,-151.41C276.15,-150.66 283.68,-147.85 283.68,-143 283.68,-139.97 280.74,-137.74 276.02,-136.3"/>
<polygon fill="black" stroke="black" points="276.29,-132.8 265.85,-134.59 275.12,-139.7 276.29,-132.8"/>
</a>
</g>
<g id="a_edge3&#45;label"><a xlink:href="docs/unsafe.post.html" xlink:title="post (unsafe)" target="_parent">
<text text-anchor="start" x="283.68" y="-139.6" font-family="Times,serif" font-size="13.00">post (unsafe)</text>
</a>
</g>
</g>
<!-- BlogPosting -->
<g id="node2" class="node">
<title>BlogPosting</title>
<g id="a_node2"><a xlink:href="docs/semantic.BlogPosting.html" xlink:title="&lt;TABLE&gt;" target="_parent">
<polygon fill="lightgray" stroke="red" stroke-width="2" points="122.68,-72 33.68,-72 33.68,0 122.68,0 122.68,-72"/>
<text text-anchor="start" x="43.68" y="-54.8" font-family="Times,serif" font-size="14.00">BlogPosting</text>
<text text-anchor="start" x="68.18" y="-39.8" font-family="Times,serif" font-size="14.00">(id)</text>
<text text-anchor="start" x="41.18" y="-24.8" font-family="Times,serif" font-size="14.00">(articleBody)</text>
<text text-anchor="start" x="40.18" y="-9.8" font-family="Times,serif" font-size="14.00">(dateCreated)</text>
</a>
</g>
</g>
<!-- Blog&#45;&gt;BlogPosting -->
<g id="edge4" class="edge">
<title>Blog&#45;&gt;BlogPosting</title>
<g id="a_edge4"><a xlink:href="docs/safe.blogPosting.html" xlink:title="blogPosting, item (safe)" target="_parent">
<path fill="none" stroke="red" d="M174.66,-140.58C118.08,-137.74 26.37,-129.27 5.18,-104 -7.63,-88.73 6.11,-73.56 24.99,-61.52"/>
<polygon fill="red" stroke="red" points="26.82,-64.51 33.64,-56.4 23.25,-58.49 26.82,-64.51"/>
</a>
</g>
<g id="a_edge4&#45;label"><a xlink:href="docs/safe.blogPosting.html" xlink:title="blogPosting, item (safe)" target="_parent">
<text text-anchor="start" x="5.18" y="-93.6" font-family="Times,serif" font-size="13.00">blogPosting, item (safe)</text>
</a>
</g>
</g>
<!-- About -->
<g id="node3" class="node">
<title>About</title>
<g id="a_node3"><a xlink:href="docs/semantic.About.html" xlink:title="About" target="_parent">
<polygon fill="lightgray" stroke="black" stroke-width="2" points="358.18,-54 304.18,-54 304.18,-18 358.18,-18 358.18,-54"/>
<text text-anchor="middle" x="331.18" y="-32.3" font-family="Times,serif" font-size="14.00">About</text>
</a>
</g>
</g>
<!-- Blog&#45;&gt;About -->
<g id="edge2" class="edge">
<title>Blog&#45;&gt;About</title>
<g id="a_edge2"><a xlink:href="docs/safe.about.html" xlink:title="about (safe)" target="_parent">
<path fill="none" stroke="black" d="M246.54,-121.67C253.41,-116.11 260.7,-109.97 267.18,-104 281.69,-90.65 296.97,-74.72 308.97,-61.75"/>
<polygon fill="black" stroke="black" points="311.8,-63.84 315.97,-54.1 306.64,-59.11 311.8,-63.84"/>
</a>
</g>
<g id="a_edge2&#45;label"><a xlink:href="docs/safe.about.html" xlink:title="about (safe)" target="_parent">
<text text-anchor="start" x="280.18" y="-93.6" font-family="Times,serif" font-size="13.00">about (safe)</text>
</a>
</g>
</g>
<!-- BlogPosting&#45;&gt;Blog -->
<g id="edge5" class="edge">
<title>BlogPosting&#45;&gt;Blog</title>
<g id="a_edge5"><a xlink:href="docs/safe.blog.html" xlink:title="blog, collection (safe)" target="_parent">
<path fill="none" stroke="black" d="M111.6,-72.01C122.97,-82.94 136.11,-94.59 149.18,-104 155.48,-108.54 162.39,-112.89 169.35,-116.94"/>
<polygon fill="black" stroke="black" points="167.72,-120.03 178.15,-121.88 171.14,-113.93 167.72,-120.03"/>
</a>
</g>
<g id="a_edge5&#45;label"><a xlink:href="docs/safe.blog.html" xlink:title="blog, collection (safe)" target="_parent">
<text text-anchor="start" x="149.18" y="-93.6" font-family="Times,serif" font-size="13.00">blog, collection (safe)</text>
</a>
</g>
</g>
<!-- About&#45;&gt;Blog -->
<g id="edge1" class="edge">
<title>About&#45;&gt;Blog</title>
<g id="a_edge1"><a xlink:href="docs/safe.backToBlog.html" xlink:title="backToBlog (safe)" target="_parent">
<path fill="none" stroke="black" d="M344.47,-54.15C353.96,-68.63 363.25,-89.29 352.18,-104 342.67,-116.64 307.58,-126.38 275.97,-132.84"/>
<polygon fill="black" stroke="black" points="275,-129.46 265.86,-134.82 276.35,-136.33 275,-129.46"/>
</a>
</g>
<g id="a_edge1&#45;label"><a xlink:href="docs/safe.backToBlog.html" xlink:title="backToBlog (safe)" target="_parent">
<text text-anchor="start" x="356.18" y="-93.6" font-family="Times,serif" font-size="13.00">backToBlog (safe)</text>
</a>
</g>
</g>
<!-- Index -->
<g id="node4" class="node">
<title>Index</title>
<g id="a_node4"><a xlink:href="docs/semantic.Index.html" xlink:title="Index" target="_parent">
<polygon fill="lightgray" stroke="red" stroke-width="2" points="247.18,-250 193.18,-250 193.18,-214 247.18,-214 247.18,-250"/>
<text text-anchor="middle" x="220.18" y="-228.3" font-family="Times,serif" font-size="14.00">Index</text>
</a>
</g>
</g>
<!-- Index&#45;&gt;Blog -->
<g id="edge6" class="edge">
<title>Index&#45;&gt;Blog</title>
<g id="a_edge6"><a xlink:href="docs/safe.start.html" xlink:title="start (safe)" target="_parent">
<path fill="none" stroke="red" d="M220.18,-213.81C220.18,-202.56 220.18,-187.54 220.18,-174.32"/>
<polygon fill="red" stroke="red" points="223.68,-174.21 220.18,-164.21 216.68,-174.21 223.68,-174.21"/>
</a>
</g>
<g id="a_edge6&#45;label"><a xlink:href="docs/safe.start.html" xlink:title="start (safe)" target="_parent">
<text text-anchor="start" x="220.18" y="-185.6" font-family="Times,serif" font-size="13.00">start (safe)</text>
</a>
</g>
</g>
</g>
</svg>
