<?xml version="1.0" encoding="UTF-8" standalone="no"?>
<!DOCTYPE svg PUBLIC "-//W3C//DTD SVG 1.1//EN"
 "http://www.w3.org/Graphics/SVG/1.1/DTD/svg11.dtd">
<!-- Generated by graphviz version 7.1.0 (20230121.1956)
 -->
<!-- Title: application_state_diagram Pages: 1 -->
<svg width="473pt" height="281pt"
 viewBox="0.00 0.00 473.18 281.00" xmlns="http://www.w3.org/2000/svg" xmlns:xlink="http://www.w3.org/1999/xlink">
<g id="graph0" class="graph" transform="scale(1 1) rotate(0) translate(4 277)">
<title>application_state_diagram</title>
<g id="a_graph0"><a xlink:href="index.html" xlink:title="ALPS example" target="_parent">
<polygon fill="white" stroke="none" points="-4,4 -4,-277 469.18,-277 469.18,4 -4,4"/>
<text text-anchor="middle" x="232.59" y="-257.8" font-family="Helvetica,sans-Serif" font-size="14.00">ALPS example</text>
</a>
</g>
<!-- Blog -->
<g id="node1" class="node">
<title>Blog</title>
<g id="a_node1"><a xlink:href="docs/semantic.Blog.html" xlink:title="&lt;TABLE&gt;" target="_parent">
<polygon fill="lightgray" stroke="red" stroke-width="2" points="269.18,-164 181.18,-164 181.18,-122 269.18,-122 269.18,-164"/>
<text text-anchor="start" x="211.68" y="-146.8" font-family="Times,serif" font-size="14.00">Blog</text>
<text text-anchor="start" x="187.18" y="-131.8" font-family="Times,serif" font-size="14.00">(BlogPosting)</text>
</a>
</g>
</g>
<!-- Blog&#45;&gt;Blog -->
<g id="edge3" class="edge">
<title>Blog&#45;&gt;Blog</title>
<g id="a_edge3"><a xlink:href="docs/unsafe.post.html" xlink:title="post (unsafe)" target="_parent">
<path fill="none" stroke="black" d="M269.48,-151.43C279.68,-150.71 287.18,-147.9 287.18,-143 287.18,-140.17 284.67,-138.04 280.59,-136.6"/>
<polygon fill="black" stroke="black" points="281.44,-133.2 270.97,-134.84 280.18,-140.08 281.44,-133.2"/>
</a>
</g>
<g id="a_edge3&#45;label"><a xlink:href="docs/unsafe.post.html" xlink:title="post (unsafe)" target="_parent">
<text text-anchor="start" x="287.18" y="-139.6" font-family="Times,serif" font-size="13.00">post (unsafe)</text>
</a>
</g>
</g>
<!-- BlogPosting -->
<g id="node2" class="node">
<title>BlogPosting</title>
<g id="a_node2"><a xlink:href="docs/semantic.BlogPosting.html" xlink:title="&lt;TABLE&gt;" target="_parent">
<polygon fill="lightgray" stroke="red" stroke-width="2" points="123.18,-72 37.18,-72 37.18,0 123.18,0 123.18,-72"/>
<text text-anchor="start" x="46.68" y="-54.8" font-family="Times,serif" font-size="14.00">BlogPosting</text>
<text text-anchor="start" x="70.18" y="-39.8" font-family="Times,serif" font-size="14.00">(id)</text>
<text text-anchor="start" x="43.68" y="-24.8" font-family="Times,serif" font-size="14.00">(articleBody)</text>
<text text-anchor="start" x="43.18" y="-9.8" font-family="Times,serif" font-size="14.00">(dateCreated)</text>
</a>
</g>
</g>
<!-- Blog&#45;&gt;BlogPosting -->
<g id="edge4" class="edge">
<title>Blog&#45;&gt;BlogPosting</title>
<g id="a_edge4"><a xlink:href="docs/safe.blogPosting.html" xlink:title="blogPosting, item (safe)" target="_parent">
<path fill="none" stroke="red" d="M181.08,-140.85C123.44,-138.31 27.21,-130.16 5.18,-104 -8.17,-88.15 6.98,-72.59 27.08,-60.46"/>
<polygon fill="red" stroke="red" points="28.56,-63.65 35.58,-55.71 25.15,-57.53 28.56,-63.65"/>
</a>
</g>
<g id="a_edge4&#45;label"><a xlink:href="docs/safe.blogPosting.html" xlink:title="blogPosting, item (safe)" target="_parent">
<text text-anchor="start" x="5.18" y="-93.6" font-family="Times,serif" font-size="13.00">blogPosting, item (safe)</text>
</a>
</g>
</g>
<!-- About -->
<g id="node3" class="node">
<title>About</title>
<g id="a_node3"><a xlink:href="docs/semantic.About.html" xlink:title="About" target="_parent">
<polygon fill="lightgray" stroke="black" stroke-width="2" points="366.18,-54 312.18,-54 312.18,-18 366.18,-18 366.18,-54"/>
<text text-anchor="middle" x="339.18" y="-32.3" font-family="Times,serif" font-size="14.00">About</text>
</a>
</g>
</g>
<!-- Blog&#45;&gt;About -->
<g id="edge2" class="edge">
<title>Blog&#45;&gt;About</title>
<g id="a_edge2"><a xlink:href="docs/safe.about.html" xlink:title="about (safe)" target="_parent">
<path fill="none" stroke="black" d="M252.94,-121.56C260.03,-116.05 267.52,-109.96 274.18,-104 288.6,-91.09 303.71,-75.64 315.73,-62.84"/>
<polygon fill="black" stroke="black" points="318.25,-65.27 322.49,-55.56 313.12,-60.51 318.25,-65.27"/>
</a>
</g>
<g id="a_edge2&#45;label"><a xlink:href="docs/safe.about.html" xlink:title="about (safe)" target="_parent">
<text text-anchor="start" x="288.18" y="-93.6" font-family="Times,serif" font-size="13.00">about (safe)</text>
</a>
</g>
</g>
<!-- BlogPosting&#45;&gt;Blog -->
<g id="edge5" class="edge">
<title>BlogPosting&#45;&gt;Blog</title>
<g id="a_edge5"><a xlink:href="docs/safe.blog.html" xlink:title="blog, collection (safe)" target="_parent">
<path fill="none" stroke="black" d="M114.43,-72.41C125.88,-83.25 139.07,-94.74 152.18,-104 158.22,-108.26 164.8,-112.35 171.45,-116.17"/>
<polygon fill="black" stroke="black" points="169.43,-119.05 179.88,-120.82 172.81,-112.92 169.43,-119.05"/>
</a>
</g>
<g id="a_edge5&#45;label"><a xlink:href="docs/safe.blog.html" xlink:title="blog, collection (safe)" target="_parent">
<text text-anchor="start" x="152.18" y="-93.6" font-family="Times,serif" font-size="13.00">blog, collection (safe)</text>
</a>
</g>
</g>
<!-- About&#45;&gt;Blog -->
<g id="edge1" class="edge">
<title>About&#45;&gt;Blog</title>
<g id="a_edge1"><a xlink:href="docs/safe.backToBlog.html" xlink:title="backToBlog (safe)" target="_parent">
<path fill="none" stroke="black" d="M353.08,-54.42C362.82,-68.88 372.28,-89.37 361.18,-104 351.13,-117.25 313.53,-127.13 280.41,-133.49"/>
<polygon fill="black" stroke="black" points="280.09,-129.99 270.89,-135.23 281.36,-136.87 280.09,-129.99"/>
</a>
</g>
<g id="a_edge1&#45;label"><a xlink:href="docs/safe.backToBlog.html" xlink:title="backToBlog (safe)" target="_parent">
<text text-anchor="start" x="365.18" y="-93.6" font-family="Times,serif" font-size="13.00">backToBlog (safe)</text>
</a>
</g>
</g>
<!-- Index -->
<g id="node4" class="node">
<title>Index</title>
<g id="a_node4"><a xlink:href="docs/semantic.Index.html" xlink:title="Index" target="_parent">
<polygon fill="lightgray" stroke="red" stroke-width="2" points="252.18,-250 198.18,-250 198.18,-214 252.18,-214 252.18,-250"/>
<text text-anchor="middle" x="225.18" y="-228.3" font-family="Times,serif" font-size="14.00">Index</text>
</a>
</g>
</g>
<!-- Index&#45;&gt;Blog -->
<g id="edge6" class="edge">
<title>Index&#45;&gt;Blog</title>
<g id="a_edge6"><a xlink:href="docs/safe.start.html" xlink:title="start (safe)" target="_parent">
<path fill="none" stroke="red" d="M225.18,-213.81C225.18,-202.89 225.18,-188.43 225.18,-175.5"/>
<polygon fill="red" stroke="red" points="228.68,-175.72 225.18,-165.72 221.68,-175.72 228.68,-175.72"/>
</a>
</g>
<g id="a_edge6&#45;label"><a xlink:href="docs/safe.start.html" xlink:title="start (safe)" target="_parent">
<text text-anchor="start" x="225.18" y="-185.6" font-family="Times,serif" font-size="13.00">start (safe)</text>
</a>
</g>
</g>
</g>
</svg>
