<?xml version="1.0" encoding="UTF-8" standalone="no"?>
<!DOCTYPE svg PUBLIC "-//W3C//DTD SVG 1.1//EN"
 "http://www.w3.org/Graphics/SVG/1.1/DTD/svg11.dtd">
<!-- Generated by graphviz version 2.47.1 (20210417.1919)
 -->
<!-- Title: application_state_diagram Pages: 1 -->
<svg width="473pt" height="281pt"
 viewBox="0.00 0.00 473.13 281.00" xmlns="http://www.w3.org/2000/svg" xmlns:xlink="http://www.w3.org/1999/xlink">
<g id="graph0" class="graph" transform="scale(1 1) rotate(0) translate(4 277)">
<title>application_state_diagram</title>
<g id="a_graph0"><a xlink:href="index.html" xlink:title="ALPS example" target="_parent">
<polygon fill="white" stroke="transparent" points="-4,4 -4,-277 469.13,-277 469.13,4 -4,4"/>
<text text-anchor="middle" x="232.56" y="-257.8" font-family="Helvetica,sans-Serif" font-size="14.00">ALPS example</text>
</a>
</g>
<!-- Blog -->
<g id="node1" class="node">
<title>Blog</title>
<g id="a_node1"><a xlink:href="docs/semantic.Blog.html" xlink:title="&lt;TABLE&gt;" target="_parent">
<polygon fill="lightgray" stroke="red" stroke-width="2" points="269.13,-164 181.13,-164 181.13,-122 269.13,-122 269.13,-164"/>
<text text-anchor="start" x="211.63" y="-146.8" font-family="Times,serif" font-size="14.00">Blog</text>
<text text-anchor="start" x="187.13" y="-131.8" font-family="Times,serif" font-size="14.00">(BlogPosting)</text>
</a>
</g>
</g>
<!-- Blog&#45;&gt;Blog -->
<g id="edge3" class="edge">
<title>Blog&#45;&gt;Blog</title>
<g id="a_edge3"><a xlink:href="docs/unsafe.post.html" xlink:title="post (unsafe)" target="_parent">
<path fill="none" stroke="black" d="M269.15,-151.45C279.49,-150.76 287.13,-147.94 287.13,-143 287.13,-139.91 284.14,-137.65 279.38,-136.22"/>
<polygon fill="black" stroke="black" points="279.58,-132.71 269.15,-134.55 278.45,-139.62 279.58,-132.71"/>
</a>
</g>
<g id="a_edge3&#45;label"><a xlink:href="docs/unsafe.post.html" xlink:title="post (unsafe)" target="_parent">
<text text-anchor="start" x="287.13" y="-139.6" font-family="Times,serif" font-size="13.00">post (unsafe)</text>
</a>
</g>
</g>
<!-- BlogPosting -->
<g id="node2" class="node">
<title>BlogPosting</title>
<g id="a_node2"><a xlink:href="docs/semantic.BlogPosting.html" xlink:title="&lt;TABLE&gt;" target="_parent">
<polygon fill="lightgray" stroke="red" stroke-width="2" points="123.13,-72 37.13,-72 37.13,0 123.13,0 123.13,-72"/>
<text text-anchor="start" x="46.63" y="-54.8" font-family="Times,serif" font-size="14.00">BlogPosting</text>
<text text-anchor="start" x="70.13" y="-39.8" font-family="Times,serif" font-size="14.00">(id)</text>
<text text-anchor="start" x="43.63" y="-24.8" font-family="Times,serif" font-size="14.00">(articleBody)</text>
<text text-anchor="start" x="43.13" y="-9.8" font-family="Times,serif" font-size="14.00">(dateCreated)</text>
</a>
</g>
</g>
<!-- Blog&#45;&gt;BlogPosting -->
<g id="edge4" class="edge">
<title>Blog&#45;&gt;BlogPosting</title>
<g id="a_edge4"><a xlink:href="docs/safe.blogPosting.html" xlink:title="blogPosting, item (safe)" target="_parent">
<path fill="none" stroke="red" d="M181.03,-140.85C123.39,-138.31 27.16,-130.16 5.13,-104 -8.51,-87.8 7.61,-71.91 28.35,-59.68"/>
<polygon fill="red" stroke="red" points="30.06,-62.73 37.12,-54.83 26.67,-56.6 30.06,-62.73"/>
</a>
</g>
<g id="a_edge4&#45;label"><a xlink:href="docs/safe.blogPosting.html" xlink:title="blogPosting, item (safe)" target="_parent">
<text text-anchor="start" x="5.13" y="-93.6" font-family="Times,serif" font-size="13.00">blogPosting, item (safe)</text>
</a>
</g>
</g>
<!-- About -->
<g id="node3" class="node">
<title>About</title>
<g id="a_node3"><a xlink:href="docs/semantic.About.html" xlink:title="About" target="_parent">
<polygon fill="lightgray" stroke="black" stroke-width="2" points="366.13,-54 312.13,-54 312.13,-18 366.13,-18 366.13,-54"/>
<text text-anchor="middle" x="339.13" y="-32.3" font-family="Times,serif" font-size="14.00">About</text>
</a>
</g>
</g>
<!-- Blog&#45;&gt;About -->
<g id="edge2" class="edge">
<title>Blog&#45;&gt;About</title>
<g id="a_edge2"><a xlink:href="docs/safe.about.html" xlink:title="about (safe)" target="_parent">
<path fill="none" stroke="black" d="M252.38,-121.95C259.62,-116.34 267.31,-110.1 274.13,-104 288.93,-90.75 304.45,-74.83 316.62,-61.84"/>
<polygon fill="black" stroke="black" points="319.49,-63.88 323.72,-54.17 314.36,-59.13 319.49,-63.88"/>
</a>
</g>
<g id="a_edge2&#45;label"><a xlink:href="docs/safe.about.html" xlink:title="about (safe)" target="_parent">
<text text-anchor="start" x="288.13" y="-93.6" font-family="Times,serif" font-size="13.00">about (safe)</text>
</a>
</g>
</g>
<!-- BlogPosting&#45;&gt;Blog -->
<g id="edge5" class="edge">
<title>BlogPosting&#45;&gt;Blog</title>
<g id="a_edge5"><a xlink:href="docs/safe.blog.html" xlink:title="blog, collection (safe)" target="_parent">
<path fill="none" stroke="black" d="M114.02,-72.07C125.54,-83.01 138.87,-94.65 152.13,-104 158.61,-108.58 165.72,-112.96 172.87,-117.01"/>
<polygon fill="black" stroke="black" points="171.46,-120.23 181.92,-121.96 174.82,-114.09 171.46,-120.23"/>
</a>
</g>
<g id="a_edge5&#45;label"><a xlink:href="docs/safe.blog.html" xlink:title="blog, collection (safe)" target="_parent">
<text text-anchor="start" x="152.13" y="-93.6" font-family="Times,serif" font-size="13.00">blog, collection (safe)</text>
</a>
</g>
</g>
<!-- About&#45;&gt;Blog -->
<g id="edge1" class="edge">
<title>About&#45;&gt;Blog</title>
<g id="a_edge1"><a xlink:href="docs/safe.backToBlog.html" xlink:title="backToBlog (safe)" target="_parent">
<path fill="none" stroke="black" d="M352.83,-54.14C362.64,-68.61 372.3,-89.27 361.13,-104 350.99,-117.36 312.83,-127.3 279.5,-133.65"/>
<polygon fill="black" stroke="black" points="278.56,-130.26 269.35,-135.51 279.81,-137.15 278.56,-130.26"/>
</a>
</g>
<g id="a_edge1&#45;label"><a xlink:href="docs/safe.backToBlog.html" xlink:title="backToBlog (safe)" target="_parent">
<text text-anchor="start" x="365.13" y="-93.6" font-family="Times,serif" font-size="13.00">backToBlog (safe)</text>
</a>
</g>
</g>
<!-- Index -->
<g id="node4" class="node">
<title>Index</title>
<g id="a_node4"><a xlink:href="docs/semantic.Index.html" xlink:title="Index" target="_parent">
<polygon fill="lightgray" stroke="red" stroke-width="2" points="252.13,-250 198.13,-250 198.13,-214 252.13,-214 252.13,-250"/>
<text text-anchor="middle" x="225.13" y="-228.3" font-family="Times,serif" font-size="14.00">Index</text>
</a>
</g>
</g>
<!-- Index&#45;&gt;Blog -->
<g id="edge6" class="edge">
<title>Index&#45;&gt;Blog</title>
<g id="a_edge6"><a xlink:href="docs/safe.start.html" xlink:title="start (safe)" target="_parent">
<path fill="none" stroke="red" d="M225.13,-213.81C225.13,-202.56 225.13,-187.54 225.13,-174.32"/>
<polygon fill="red" stroke="red" points="228.63,-174.21 225.13,-164.21 221.63,-174.21 228.63,-174.21"/>
</a>
</g>
<g id="a_edge6&#45;label"><a xlink:href="docs/safe.start.html" xlink:title="start (safe)" target="_parent">
<text text-anchor="start" x="225.13" y="-185.6" font-family="Times,serif" font-size="13.00">start (safe)</text>
</a>
</g>
</g>
</g>
</svg>
