<?xml version="1.0" encoding="UTF-8" standalone="no"?>
<!DOCTYPE svg PUBLIC "-//W3C//DTD SVG 1.1//EN"
 "http://www.w3.org/Graphics/SVG/1.1/DTD/svg11.dtd">
<!-- Generated by graphviz version 14.1.0 (20251206.1807)
 -->
<!-- Title: application_state_diagram Pages: 1 -->
<svg width="819pt" height="566pt"
 viewBox="0.00 0.00 819.00 566.00" xmlns="http://www.w3.org/2000/svg" xmlns:xlink="http://www.w3.org/1999/xlink">
<g id="graph0" class="graph" transform="scale(1 1) rotate(0) translate(4 562)">
<title>application_state_diagram</title>
<polygon fill="white" stroke="none" points="-4,4 -4,-562 815.39,-562 815.39,4 -4,4"/>
<!-- Home -->
<g id="node1" class="node">
<title>Home</title>
<g id="a_node1"><a xlink:href="#Home" xlink:title="Home">
<polygon fill="lightgray" stroke="black" stroke-width="2" points="568.14,-558 514.14,-558 514.14,-522 568.14,-522 568.14,-558"/>
<text xml:space="preserve" text-anchor="middle" x="541.14" y="-534.95" font-family="Times,serif" font-size="14.00">Home</text>
</a>
</g>
</g>
<!-- Catalog -->
<g id="node2" class="node">
<title>Catalog</title>
<g id="a_node2"><a xlink:href="#Catalog" xlink:title="Catalog">
<polygon fill="lightgray" stroke="black" stroke-width="2" points="214.34,-471 157.94,-471 157.94,-435 214.34,-435 214.34,-471"/>
<text xml:space="preserve" text-anchor="middle" x="186.14" y="-447.95" font-family="Times,serif" font-size="14.00">Catalog</text>
</a>
</g>
</g>
<!-- Home&#45;&gt;Catalog -->
<g id="edge2" class="edge goToCatalog">
<title>Home&#45;&gt;Catalog</title>
<g id="a_edge2"><a xlink:href="#goToCatalog" xlink:title="goToCatalog">
<path fill="none" stroke="#00a86b" stroke-width="1.5" d="M513.88,-532.47C451.72,-517.59 299.27,-481.09 226.32,-463.62"/>
<polygon fill="#00a86b" stroke="#00a86b" stroke-width="1.5" points="227.23,-460.24 216.69,-461.31 225.6,-467.05 227.23,-460.24"/>
</a>
</g>
<g id="a_edge2&#45;label"><a xlink:href="#goToCatalog" xlink:title="goToCatalog">
<text xml:space="preserve" text-anchor="middle" x="419.4" y="-491.65" font-family="Times,serif" font-size="13.00">goToCatalog</text>
</a>
</g>
</g>
<!-- ShoppingCart -->
<g id="node5" class="node">
<title>ShoppingCart</title>
<g id="a_node5"><a xlink:href="#ShoppingCart" xlink:title="ShoppingCart">
<polygon fill="lightgray" stroke="black" stroke-width="2" points="373.84,-210 284.44,-210 284.44,-174 373.84,-174 373.84,-210"/>
<text xml:space="preserve" text-anchor="middle" x="329.14" y="-186.95" font-family="Times,serif" font-size="14.00">ShoppingCart</text>
</a>
</g>
</g>
<!-- Home&#45;&gt;ShoppingCart -->
<g id="edge8" class="edge goToCart">
<title>Home&#45;&gt;ShoppingCart</title>
<g id="a_edge8"><a xlink:href="#goToCart" xlink:title="goToCart">
<path fill="none" stroke="#00a86b" stroke-width="1.5" d="M541.14,-521.74C541.14,-504.57 541.14,-477.46 541.14,-454 541.14,-454 541.14,-454 541.14,-278 541.14,-211.08 449.03,-195.45 386.24,-192.57"/>
<polygon fill="#00a86b" stroke="#00a86b" stroke-width="1.5" points="386.49,-189.08 376.37,-192.23 386.25,-196.07 386.49,-189.08"/>
</a>
</g>
<g id="a_edge8&#45;label"><a xlink:href="#goToCart" xlink:title="goToCart">
<text xml:space="preserve" text-anchor="middle" x="566.27" y="-361.15" font-family="Times,serif" font-size="13.00">goToCart</text>
</a>
</g>
</g>
<!-- Catalog&#45;&gt;Catalog -->
<g id="edge14" class="edge goListBooks">
<title>Catalog&#45;&gt;Catalog</title>
<g id="a_edge14"><a xlink:href="#goListBooks" xlink:title="goListBooks">
<path fill="none" stroke="#00a86b" stroke-width="1.5" d="M214.57,-455.72C224.4,-455.75 232.34,-454.84 232.34,-453 232.34,-452.02 230.1,-451.31 226.53,-450.86"/>
<polygon fill="#00a86b" stroke="#00a86b" stroke-width="1.5" points="226.99,-447.38 216.83,-450.39 226.65,-454.37 226.99,-447.38"/>
</a>
</g>
<g id="a_edge14&#45;label"><a xlink:href="#goListBooks" xlink:title="goListBooks">
<text xml:space="preserve" text-anchor="middle" x="266.84" y="-448.15" font-family="Times,serif" font-size="13.00">goListBooks</text>
</a>
</g>
</g>
<!-- Catalog&#45;&gt;Catalog -->
<g id="edge15" class="edge goSearchBooks">
<title>Catalog&#45;&gt;Catalog</title>
<g id="a_edge15"><a xlink:href="#goSearchBooks" xlink:title="goSearchBooks">
<path fill="none" stroke="#00a86b" stroke-width="1.5" d="M214.56,-457.18C249.95,-459.76 301.34,-458.37 301.34,-453 301.34,-448.22 260.58,-446.59 226.66,-448.11"/>
<polygon fill="#00a86b" stroke="#00a86b" stroke-width="1.5" points="226.61,-444.61 216.83,-448.69 227.02,-451.6 226.61,-444.61"/>
</a>
</g>
<g id="a_edge15&#45;label"><a xlink:href="#goSearchBooks" xlink:title="goSearchBooks">
<text xml:space="preserve" text-anchor="middle" x="343.72" y="-448.15" font-family="Times,serif" font-size="13.00">goSearchBooks</text>
</a>
</g>
</g>
<!-- Catalog&#45;&gt;Catalog -->
<g id="edge16" class="edge goGetCategories">
<title>Catalog&#45;&gt;Catalog</title>
<g id="a_edge16"><a xlink:href="#goGetCategories" xlink:title="goGetCategories">
<path fill="none" stroke="#00a86b" stroke-width="1.5" d="M214.77,-457.97C272.18,-463.49 386.09,-461.84 386.09,-453 386.09,-444.75 286.81,-442.76 226.91,-447.02"/>
<polygon fill="#00a86b" stroke="#00a86b" stroke-width="1.5" points="226.71,-443.53 217.03,-447.84 227.29,-450.5 226.71,-443.53"/>
</a>
</g>
<g id="a_edge16&#45;label"><a xlink:href="#goGetCategories" xlink:title="goGetCategories">
<text xml:space="preserve" text-anchor="middle" x="431.47" y="-448.15" font-family="Times,serif" font-size="13.00">goGetCategories</text>
</a>
</g>
</g>
<!-- Book -->
<g id="node3" class="node">
<title>Book</title>
<g id="a_node3"><a xlink:href="#Book" xlink:title="Book">
<polygon fill="lightgray" stroke="black" stroke-width="2" points="204.14,-297 150.14,-297 150.14,-261 204.14,-261 204.14,-297"/>
<text xml:space="preserve" text-anchor="middle" x="177.14" y="-273.95" font-family="Times,serif" font-size="14.00">Book</text>
</a>
</g>
</g>
<!-- Catalog&#45;&gt;Book -->
<g id="edge6" class="edge goToBookDetails">
<title>Catalog&#45;&gt;Book</title>
<g id="a_edge6"><a xlink:href="#goToBookDetails" xlink:title="goToBookDetails">
<path fill="none" stroke="#00a86b" stroke-width="1.5" d="M157.56,-452.29C113.2,-450.92 30.22,-440.57 4.64,-384 -21.92,-325.25 79.27,-297.18 137.96,-286.07"/>
<polygon fill="#00a86b" stroke="#00a86b" stroke-width="1.5" points="138.32,-289.56 147.55,-284.35 137.09,-282.67 138.32,-289.56"/>
</a>
</g>
<g id="a_edge6&#45;label"><a xlink:href="#goToBookDetails" xlink:title="goToBookDetails">
<text xml:space="preserve" text-anchor="middle" x="51.89" y="-361.15" font-family="Times,serif" font-size="13.00">goToBookDetails</text>
</a>
</g>
</g>
<!-- Category -->
<g id="node4" class="node">
<title>Category</title>
<g id="a_node4"><a xlink:href="#Category" xlink:title="Category">
<polygon fill="lightgray" stroke="black" stroke-width="2" points="172.09,-384 108.19,-384 108.19,-348 172.09,-348 172.09,-384"/>
<text xml:space="preserve" text-anchor="middle" x="140.14" y="-360.95" font-family="Times,serif" font-size="14.00">Category</text>
</a>
</g>
</g>
<!-- Catalog&#45;&gt;Category -->
<g id="edge17" class="edge goToCategory">
<title>Catalog&#45;&gt;Category</title>
<g id="a_edge17"><a xlink:href="#goToCategory" xlink:title="goToCategory">
<path fill="none" stroke="#00a86b" stroke-width="1.5" d="M157.45,-435.45C151.14,-430.37 145.27,-424.2 141.64,-417 138.47,-410.7 137.15,-403.36 136.84,-396.28"/>
<polygon fill="#00a86b" stroke="#00a86b" stroke-width="1.5" points="140.34,-396.45 137.12,-386.36 133.34,-396.26 140.34,-396.45"/>
</a>
</g>
<g id="a_edge17&#45;label"><a xlink:href="#goToCategory" xlink:title="goToCategory">
<text xml:space="preserve" text-anchor="middle" x="179.89" y="-404.65" font-family="Times,serif" font-size="13.00">goToCategory</text>
</a>
</g>
</g>
<!-- Catalog&#45;&gt;ShoppingCart -->
<g id="edge9" class="edge goToCart">
<title>Catalog&#45;&gt;ShoppingCart</title>
<g id="a_edge9"><a xlink:href="#goToCart" xlink:title="goToCart">
<path fill="none" stroke="#00a86b" stroke-width="1.5" d="M214.84,-446.37C264.58,-434.82 364.79,-403.08 399.14,-330 417.62,-290.69 384.38,-246.04 357.67,-218.7"/>
<polygon fill="#00a86b" stroke="#00a86b" stroke-width="1.5" points="360.15,-216.23 350.56,-211.71 355.24,-221.22 360.15,-216.23"/>
</a>
</g>
<g id="a_edge9&#45;label"><a xlink:href="#goToCart" xlink:title="goToCart">
<text xml:space="preserve" text-anchor="middle" x="428.81" y="-317.65" font-family="Times,serif" font-size="13.00">goToCart</text>
</a>
</g>
</g>
<!-- Book&#45;&gt;Catalog -->
<g id="edge3" class="edge goToCatalog">
<title>Book&#45;&gt;Catalog</title>
<g id="a_edge3"><a xlink:href="#goToCatalog" xlink:title="goToCatalog">
<path fill="none" stroke="#00a86b" stroke-width="1.5" d="M204.19,-297.24C209.83,-302.23 215.01,-308.2 218.14,-315 237.13,-356.17 234.55,-374.74 218.14,-417 217.09,-419.72 215.71,-422.36 214.12,-424.88"/>
<polygon fill="#00a86b" stroke="#00a86b" stroke-width="1.5" points="211.38,-422.7 208.06,-432.76 216.93,-426.97 211.38,-422.7"/>
</a>
</g>
<g id="a_edge3&#45;label"><a xlink:href="#goToCatalog" xlink:title="goToCatalog">
<text xml:space="preserve" text-anchor="middle" x="265.93" y="-361.15" font-family="Times,serif" font-size="13.00">goToCatalog</text>
</a>
</g>
</g>
<!-- Book&#45;&gt;ShoppingCart -->
<g id="edge18" class="edge doAddToCart">
<title>Book&#45;&gt;ShoppingCart</title>
<g id="a_edge18"><a xlink:href="#doAddToCart" xlink:title="doAddToCart">
<path fill="none" stroke="#ff4136" stroke-width="1.5" d="M196.46,-260.71C208.77,-250.3 225.41,-237.29 241.64,-228 251.34,-222.45 262.09,-217.37 272.64,-212.9"/>
<polygon fill="#ff4136" stroke="#ff4136" stroke-width="1.5" points="273.91,-216.17 281.85,-209.16 271.27,-209.68 273.91,-216.17"/>
</a>
</g>
<g id="a_edge18&#45;label"><a xlink:href="#doAddToCart" xlink:title="doAddToCart">
<text xml:space="preserve" text-anchor="middle" x="278.39" y="-230.65" font-family="Times,serif" font-size="13.00">doAddToCart</text>
</a>
</g>
</g>
<!-- Category&#45;&gt;Catalog -->
<g id="edge4" class="edge goToCatalog">
<title>Category&#45;&gt;Catalog</title>
<g id="a_edge4"><a xlink:href="#goToCatalog" xlink:title="goToCatalog">
<path fill="none" stroke="#00a86b" stroke-width="1.5" d="M107.77,-379.21C81.81,-389.04 49.6,-401.34 49.14,-402 45.37,-407.5 45.05,-411.73 49.14,-417 60.93,-432.18 109.53,-441.88 145.51,-447.13"/>
<polygon fill="#00a86b" stroke="#00a86b" stroke-width="1.5" points="145,-450.59 155.39,-448.49 145.96,-443.66 145,-450.59"/>
</a>
</g>
<g id="a_edge4&#45;label"><a xlink:href="#goToCatalog" xlink:title="goToCatalog">
<text xml:space="preserve" text-anchor="middle" x="83.64" y="-404.65" font-family="Times,serif" font-size="13.00">goToCatalog</text>
</a>
</g>
</g>
<!-- Category&#45;&gt;Book -->
<g id="edge7" class="edge goToBookDetails">
<title>Category&#45;&gt;Book</title>
<g id="a_edge7"><a xlink:href="#goToBookDetails" xlink:title="goToBookDetails">
<path fill="none" stroke="#00a86b" stroke-width="1.5" d="M127.72,-347.72C122.2,-337.79 118.08,-325.29 123.64,-315 127.39,-308.08 133.16,-302.31 139.55,-297.58"/>
<polygon fill="#00a86b" stroke="#00a86b" stroke-width="1.5" points="141.42,-300.54 147.98,-292.21 137.66,-294.63 141.42,-300.54"/>
</a>
</g>
<g id="a_edge7&#45;label"><a xlink:href="#goToBookDetails" xlink:title="goToBookDetails">
<text xml:space="preserve" text-anchor="middle" x="170.89" y="-317.65" font-family="Times,serif" font-size="13.00">goToBookDetails</text>
</a>
</g>
</g>
<!-- ShoppingCart&#45;&gt;Catalog -->
<g id="edge5" class="edge goToCatalog">
<title>ShoppingCart&#45;&gt;Catalog</title>
<g id="a_edge5"><a xlink:href="#goToCatalog" xlink:title="goToCatalog">
<path fill="none" stroke="#00a86b" stroke-width="1.5" d="M331.64,-210.3C335.85,-246.07 340.65,-329.36 304.14,-384 285.83,-411.4 252.49,-429.12 225.9,-439.58"/>
<polygon fill="#00a86b" stroke="#00a86b" stroke-width="1.5" points="224.91,-436.22 216.74,-442.97 227.34,-442.78 224.91,-436.22"/>
</a>
</g>
<g id="a_edge5&#45;label"><a xlink:href="#goToCatalog" xlink:title="goToCatalog">
<text xml:space="preserve" text-anchor="middle" x="364.35" y="-317.65" font-family="Times,serif" font-size="13.00">goToCatalog</text>
</a>
</g>
</g>
<!-- ShoppingCart&#45;&gt;ShoppingCart -->
<g id="edge19" class="edge goListCartItems">
<title>ShoppingCart&#45;&gt;ShoppingCart</title>
<g id="a_edge19"><a xlink:href="#goListCartItems" xlink:title="goListCartItems">
<path fill="none" stroke="#00a86b" stroke-width="1.5" d="M374.23,-194.65C384.4,-194.41 391.84,-193.53 391.84,-192 391.84,-191.19 389.74,-190.56 386.25,-190.11"/>
<polygon fill="#00a86b" stroke="#00a86b" stroke-width="1.5" points="386.7,-186.63 376.5,-189.49 386.26,-193.62 386.7,-186.63"/>
</a>
</g>
<g id="a_edge19&#45;label"><a xlink:href="#goListCartItems" xlink:title="goListCartItems">
<text xml:space="preserve" text-anchor="middle" x="435.34" y="-187.15" font-family="Times,serif" font-size="13.00">goListCartItems</text>
</a>
</g>
</g>
<!-- ShoppingCart&#45;&gt;ShoppingCart -->
<g id="edge20" class="edge doUpdateQuantity">
<title>ShoppingCart&#45;&gt;ShoppingCart</title>
<g id="a_edge20"><a xlink:href="#doUpdateQuantity" xlink:title="doUpdateQuantity">
<path fill="none" stroke="#d4a000" stroke-width="1.5" d="M374.25,-196.61C419.48,-198.58 478.84,-197.04 478.84,-192 478.84,-187.4 429.45,-185.72 386.46,-186.95"/>
<polygon fill="#d4a000" stroke="#d4a000" stroke-width="1.5" points="386.39,-183.45 376.52,-187.31 386.64,-190.45 386.39,-183.45"/>
</a>
</g>
<g id="a_edge20&#45;label"><a xlink:href="#doUpdateQuantity" xlink:title="doUpdateQuantity">
<text xml:space="preserve" text-anchor="middle" x="528.72" y="-187.15" font-family="Times,serif" font-size="13.00">doUpdateQuantity</text>
</a>
</g>
</g>
<!-- ShoppingCart&#45;&gt;ShoppingCart -->
<g id="edge21" class="edge doRemoveFromCart">
<title>ShoppingCart&#45;&gt;ShoppingCart</title>
<g id="a_edge21"><a xlink:href="#doRemoveFromCart" xlink:title="doRemoveFromCart">
<path fill="none" stroke="#d4a000" stroke-width="1.5" d="M374.29,-197.66C448.07,-202.33 578.59,-200.44 578.59,-192 578.59,-184 461.47,-181.89 386.41,-185.65"/>
<polygon fill="#d4a000" stroke="#d4a000" stroke-width="1.5" points="386.35,-182.15 376.56,-186.21 386.74,-189.14 386.35,-182.15"/>
</a>
</g>
<g id="a_edge21&#45;label"><a xlink:href="#doRemoveFromCart" xlink:title="doRemoveFromCart">
<text xml:space="preserve" text-anchor="middle" x="633.34" y="-187.15" font-family="Times,serif" font-size="13.00">doRemoveFromCart</text>
</a>
</g>
</g>
<!-- Checkout -->
<g id="node6" class="node">
<title>Checkout</title>
<g id="a_node6"><a xlink:href="#Checkout" xlink:title="Checkout">
<polygon fill="lightgray" stroke="black" stroke-width="2" points="449.22,-123 383.07,-123 383.07,-87 449.22,-87 449.22,-123"/>
<text xml:space="preserve" text-anchor="middle" x="416.14" y="-99.95" font-family="Times,serif" font-size="14.00">Checkout</text>
</a>
</g>
</g>
<!-- ShoppingCart&#45;&gt;Checkout -->
<g id="edge12" class="edge goToCheckout">
<title>ShoppingCart&#45;&gt;Checkout</title>
<g id="a_edge12"><a xlink:href="#goToCheckout" xlink:title="goToCheckout">
<path fill="none" stroke="#00a86b" stroke-width="1.5" d="M374.16,-173.8C382.61,-169.02 390.77,-163.13 397.14,-156 402.44,-150.07 406.32,-142.52 409.14,-135.09"/>
<polygon fill="#00a86b" stroke="#00a86b" stroke-width="1.5" points="412.47,-136.15 412.15,-125.56 405.8,-134.04 412.47,-136.15"/>
</a>
</g>
<g id="a_edge12&#45;label"><a xlink:href="#goToCheckout" xlink:title="goToCheckout">
<text xml:space="preserve" text-anchor="middle" x="445.86" y="-143.65" font-family="Times,serif" font-size="13.00">goToCheckout</text>
</a>
</g>
</g>
<!-- Checkout&#45;&gt;ShoppingCart -->
<g id="edge10" class="edge goToCart">
<title>Checkout&#45;&gt;ShoppingCart</title>
<g id="a_edge10"><a xlink:href="#goToCart" xlink:title="goToCart">
<path fill="none" stroke="#00a86b" stroke-width="1.5" d="M382.76,-116.77C370.08,-122.29 356.42,-130.18 346.89,-141 341.68,-146.92 337.97,-154.47 335.34,-161.9"/>
<polygon fill="#00a86b" stroke="#00a86b" stroke-width="1.5" points="332.01,-160.83 332.58,-171.41 338.73,-162.79 332.01,-160.83"/>
</a>
</g>
<g id="a_edge10&#45;label"><a xlink:href="#goToCart" xlink:title="goToCart">
<text xml:space="preserve" text-anchor="middle" x="372.02" y="-143.65" font-family="Times,serif" font-size="13.00">goToCart</text>
</a>
</g>
</g>
<!-- Checkout&#45;&gt;Checkout -->
<g id="edge22" class="edge doUserInfo">
<title>Checkout&#45;&gt;Checkout</title>
<g id="a_edge22"><a xlink:href="#doUserInfo" xlink:title="doUserInfo">
<path fill="none" stroke="#ff4136" stroke-width="1.5" d="M449.55,-109.07C459.49,-108.95 467.22,-107.59 467.22,-105 467.22,-103.62 465.04,-102.6 461.5,-101.92"/>
<polygon fill="#ff4136" stroke="#ff4136" stroke-width="1.5" points="462.06,-98.45 451.81,-101.12 461.49,-105.43 462.06,-98.45"/>
</a>
</g>
<g id="a_edge22&#45;label"><a xlink:href="#doUserInfo" xlink:title="doUserInfo">
<text xml:space="preserve" text-anchor="middle" x="497.97" y="-100.15" font-family="Times,serif" font-size="13.00">doUserInfo</text>
</a>
</g>
</g>
<!-- Checkout&#45;&gt;Checkout -->
<g id="edge23" class="edge doShippingInfo">
<title>Checkout&#45;&gt;Checkout</title>
<g id="a_edge23"><a xlink:href="#doShippingInfo" xlink:title="doShippingInfo">
<path fill="none" stroke="#ff4136" stroke-width="1.5" d="M449.59,-111.76C483.95,-114.94 528.72,-112.69 528.72,-105 528.72,-98.18 493.52,-95.64 461.59,-97.37"/>
<polygon fill="#ff4136" stroke="#ff4136" stroke-width="1.5" points="461.57,-93.86 451.85,-98.08 462.08,-100.84 461.57,-93.86"/>
</a>
</g>
<g id="a_edge23&#45;label"><a xlink:href="#doShippingInfo" xlink:title="doShippingInfo">
<text xml:space="preserve" text-anchor="middle" x="571.09" y="-100.15" font-family="Times,serif" font-size="13.00">doShippingInfo</text>
</a>
</g>
</g>
<!-- Payment -->
<g id="node7" class="node">
<title>Payment</title>
<g id="a_node7"><a xlink:href="#Payment" xlink:title="Payment">
<polygon fill="lightgray" stroke="black" stroke-width="2" points="447.34,-36 384.94,-36 384.94,0 447.34,0 447.34,-36"/>
<text xml:space="preserve" text-anchor="middle" x="416.14" y="-12.95" font-family="Times,serif" font-size="14.00">Payment</text>
</a>
</g>
</g>
<!-- Checkout&#45;&gt;Payment -->
<g id="edge13" class="edge goToPayment">
<title>Checkout&#45;&gt;Payment</title>
<g id="a_edge13"><a xlink:href="#goToPayment" xlink:title="goToPayment">
<path fill="none" stroke="#00a86b" stroke-width="1.5" d="M416.14,-86.8C416.14,-75.81 416.14,-61.28 416.14,-48.48"/>
<polygon fill="#00a86b" stroke="#00a86b" stroke-width="1.5" points="419.64,-48.74 416.14,-38.74 412.64,-48.74 419.64,-48.74"/>
</a>
</g>
<g id="a_edge13&#45;label"><a xlink:href="#goToPayment" xlink:title="goToPayment">
<text xml:space="preserve" text-anchor="middle" x="452.89" y="-56.65" font-family="Times,serif" font-size="13.00">goToPayment</text>
</a>
</g>
</g>
<!-- Payment&#45;&gt;Home -->
<g id="edge1" class="edge goToHome">
<title>Payment&#45;&gt;Home</title>
<g id="a_edge1"><a xlink:href="#goToHome" xlink:title="goToHome">
<path fill="none" stroke="#00a86b" stroke-width="1.5" d="M447.75,-20.27C531.4,-24.5 752.14,-41.57 752.14,-104 752.14,-454 752.14,-454 752.14,-454 752.14,-527.19 641.57,-538.96 580.52,-539.88"/>
<polygon fill="#00a86b" stroke="#00a86b" stroke-width="1.5" points="580.55,-536.38 570.57,-539.92 580.58,-543.38 580.55,-536.38"/>
</a>
</g>
<g id="a_edge1&#45;label"><a xlink:href="#goToHome" xlink:title="goToHome">
<text xml:space="preserve" text-anchor="middle" x="781.77" y="-274.15" font-family="Times,serif" font-size="13.00">goToHome</text>
</a>
</g>
</g>
<!-- Payment&#45;&gt;ShoppingCart -->
<g id="edge11" class="edge goToCart">
<title>Payment&#45;&gt;ShoppingCart</title>
<g id="a_edge11"><a xlink:href="#goToCart" xlink:title="goToCart">
<path fill="none" stroke="#00a86b" stroke-width="1.5" d="M384.68,-32.68C363.24,-43.87 336.54,-61.96 323.89,-87 312.17,-110.2 315.27,-140.15 320.25,-161.94"/>
<polygon fill="#00a86b" stroke="#00a86b" stroke-width="1.5" points="316.83,-162.72 322.72,-171.52 323.61,-160.97 316.83,-162.72"/>
</a>
</g>
<g id="a_edge11&#45;label"><a xlink:href="#goToCart" xlink:title="goToCart">
<text xml:space="preserve" text-anchor="middle" x="349.02" y="-100.15" font-family="Times,serif" font-size="13.00">goToCart</text>
</a>
</g>
</g>
<!-- Payment&#45;&gt;Payment -->
<g id="edge24" class="edge doPaymentInfo">
<title>Payment&#45;&gt;Payment</title>
<g id="a_edge24"><a xlink:href="#doPaymentInfo" xlink:title="doPaymentInfo">
<path fill="none" stroke="#ff4136" stroke-width="1.5" d="M447.37,-20.72C457.4,-20.69 465.34,-19.78 465.34,-18 465.34,-17.05 463.1,-16.35 459.5,-15.9"/>
<polygon fill="#ff4136" stroke="#ff4136" stroke-width="1.5" points="459.81,-12.41 449.64,-15.4 459.45,-19.4 459.81,-12.41"/>
</a>
</g>
<g id="a_edge24&#45;label"><a xlink:href="#doPaymentInfo" xlink:title="doPaymentInfo">
<text xml:space="preserve" text-anchor="middle" x="506.59" y="-13.15" font-family="Times,serif" font-size="13.00">doPaymentInfo</text>
</a>
</g>
</g>
<!-- Payment&#45;&gt;Payment -->
<g id="edge25" class="edge doPlaceOrder">
<title>Payment&#45;&gt;Payment</title>
<g id="a_edge25"><a xlink:href="#doPlaceOrder" xlink:title="doPlaceOrder">
<path fill="none" stroke="#ff4136" stroke-width="1.5" d="M447.75,-22.18C487.95,-24.76 547.84,-23.37 547.84,-18 547.84,-13.15 498.87,-11.54 459.77,-13.19"/>
<polygon fill="#ff4136" stroke="#ff4136" stroke-width="1.5" points="459.82,-9.68 450.02,-13.7 460.19,-16.67 459.82,-9.68"/>
</a>
</g>
<g id="a_edge25&#45;label"><a xlink:href="#doPlaceOrder" xlink:title="doPlaceOrder">
<text xml:space="preserve" text-anchor="middle" x="584.97" y="-13.15" font-family="Times,serif" font-size="13.00">doPlaceOrder</text>
</a>
</g>
</g>
<!-- Payment&#45;&gt;Payment -->
<g id="edge26" class="edge goOrderDetails">
<title>Payment&#45;&gt;Payment</title>
<g id="a_edge26"><a xlink:href="#goOrderDetails" xlink:title="goOrderDetails">
<path fill="none" stroke="#00a86b" stroke-width="1.5" d="M447.42,-23.13C507.13,-28.46 622.09,-26.75 622.09,-18 622.09,-9.81 521.47,-7.79 459.61,-11.93"/>
<polygon fill="#00a86b" stroke="#00a86b" stroke-width="1.5" points="459.38,-8.44 449.68,-12.7 459.92,-15.42 459.38,-8.44"/>
</a>
</g>
<g id="a_edge26&#45;label"><a xlink:href="#goOrderDetails" xlink:title="goOrderDetails">
<text xml:space="preserve" text-anchor="middle" x="663.72" y="-13.15" font-family="Times,serif" font-size="13.00">goOrderDetails</text>
</a>
</g>
</g>
</g>
</svg>
