<?xml version="1.0" encoding="UTF-8" standalone="no"?>
<!DOCTYPE svg PUBLIC "-//W3C//DTD SVG 1.1//EN"
 "http://www.w3.org/Graphics/SVG/1.1/DTD/svg11.dtd">
<!-- Generated by graphviz version 2.40.1 (20161225.0304)
 -->
<!-- Title: application_state_diagram Pages: 1 -->
<svg width="363pt" height="417pt"
 viewBox="0.00 0.00 362.70 416.80" xmlns="http://www.w3.org/2000/svg" xmlns:xlink="http://www.w3.org/1999/xlink">
<g id="graph0" class="graph" transform="scale(1 1) rotate(0) translate(4 412.8)">
<title>application_state_diagram</title>
<g id="a_graph0"><a xlink:href="index.html" xlink:title="app&#45;state&#45;diagram" target="_parent">
<polygon fill="#ffffff" stroke="transparent" points="-4,4 -4,-412.8 358.7032,-412.8 358.7032,4 -4,4"/>
<text text-anchor="middle" x="177.3516" y="-392.2" font-family="Helvetica,sans-Serif" font-size="14.00" fill="#000000">app&#45;state&#45;diagram</text>
</a>
</g>
<!-- Cart -->
<g id="node1" class="node">
<title>Cart</title>
<g id="a_node1"><a xlink:href="#Cart" xlink:title="Cart" target="_parent">
<polygon fill="#d3d3d3" stroke="#000000" stroke-width="2" points="176.7032,-384 122.7032,-384 122.7032,-348 176.7032,-348 176.7032,-384"/>
<text text-anchor="middle" x="149.7032" y="-361.8" font-family="Times,serif" font-size="14.00" fill="#000000">Cart</text>
</a>
</g>
</g>
<!-- Cart&#45;&gt;Cart -->
<g id="edge1" class="edge doRemoveItem">
<title>Cart&#45;&gt;Cart</title>
<g id="a_edge1"><a xlink:href="#doRemoveItem" xlink:title="&lt;TABLE&gt;" target="_parent">
<path fill="none" stroke="#000000" stroke-width="1.5" d="M176.944,-373.8673C186.7271,-374.0365 194.7032,-371.4141 194.7032,-366 194.7032,-362.7008 191.7414,-360.4382 187.2137,-359.2123"/>
<polygon fill="#000000" stroke="#000000" stroke-width="1.5" points="187.2552,-355.6975 176.944,-358.1327 186.5232,-362.6591 187.2552,-355.6975"/>
</a>
</g>
<g id="a_edge1&#45;label"><a xlink:href="#doRemoveItem" xlink:title="&lt;TABLE&gt;" target="_parent">
<g id="a_edge1_0"><a xlink:href="#doRemoveItem" xlink:title="Remove item from cart (idempotent)" target="_parent">
<text text-anchor="start" x="195.2032" y="-370.3" font-family="Times,serif" font-size="13.00" fill="#ffdc00">■</text>
<text text-anchor="start" x="204.9532" y="-370.3" font-family="Times,serif" font-size="13.00" fill="#000000"> doRemoveItem</text>
</a>
</g>
<g id="a_edge1_1"><a xlink:href="#doUpdateQuantity" xlink:title="Update item quantity (idempotent)" target="_parent">
<text text-anchor="start" x="195.0232" y="-355.3" font-family="Times,serif" font-size="13.00" fill="#ffdc00">■</text>
<text text-anchor="start" x="204.7732" y="-355.3" font-family="Times,serif" font-size="13.00" fill="#000000"> doUpdateQuantity</text>
</a>
</g>
</a>
</g>
</g>
<!-- Checkout -->
<g id="node2" class="node">
<title>Checkout</title>
<g id="a_node2"><a xlink:href="#Checkout" xlink:title="Checkout" target="_parent">
<polygon fill="#d3d3d3" stroke="#000000" stroke-width="2" points="127.3607,-297 72.0458,-297 72.0458,-261 127.3607,-261 127.3607,-297"/>
<text text-anchor="middle" x="99.7032" y="-274.8" font-family="Times,serif" font-size="14.00" fill="#000000">Checkout</text>
</a>
</g>
</g>
<!-- Cart&#45;&gt;Checkout -->
<g id="edge2" class="edge goCheckout">
<title>Cart&#45;&gt;Checkout</title>
<g id="a_edge2"><a xlink:href="#goCheckout" xlink:title="&lt;TABLE&gt;" target="_parent">
<path fill="none" stroke="#000000" stroke-width="1.5" d="M122.5018,-351.2492C114.7728,-345.6546 107.2328,-338.534 102.7032,-330 99.1012,-323.2135 97.5933,-315.1803 97.1749,-307.5212"/>
<polygon fill="#000000" stroke="#000000" stroke-width="1.5" points="100.6748,-307.4646 97.1851,-297.461 93.6748,-307.4574 100.6748,-307.4646"/>
</a>
</g>
<g id="a_edge2&#45;label"><a xlink:href="#goCheckout" xlink:title="&lt;TABLE&gt;" target="_parent">
<g id="a_edge2_2"><a xlink:href="#goCheckout" xlink:title="Proceed to checkout (safe)" target="_parent">
<text text-anchor="start" x="102.6275" y="-318.8" font-family="Times,serif" font-size="13.00" fill="#00a86b">■</text>
<text text-anchor="start" x="112.3775" y="-318.8" font-family="Times,serif" font-size="13.00" fill="#000000"> goCheckout</text>
</a>
</g>
</a>
</g>
</g>
<!-- ProductList -->
<g id="node4" class="node">
<title>ProductList</title>
<g id="a_node4"><a xlink:href="#ProductList" xlink:title="ProductList" target="_parent">
<polygon fill="#d3d3d3" stroke="#000000" stroke-width="2" points="129.5308,-123 61.8756,-123 61.8756,-87 129.5308,-87 129.5308,-123"/>
<text text-anchor="middle" x="95.7032" y="-100.8" font-family="Times,serif" font-size="14.00" fill="#000000">ProductList</text>
</a>
</g>
</g>
<!-- Cart&#45;&gt;ProductList -->
<g id="edge3" class="edge goProductList">
<title>Cart&#45;&gt;ProductList</title>
<g id="a_edge3"><a xlink:href="#goProductList" xlink:title="&lt;TABLE&gt;" target="_parent">
<path fill="none" stroke="#000000" stroke-width="1.5" d="M122.4181,-352.9831C87.0773,-334.3491 27.3263,-296.3342 4.7032,-243 -13.5313,-200.012 28.1752,-155.921 60.9932,-129.4952"/>
<polygon fill="#000000" stroke="#000000" stroke-width="1.5" points="63.3712,-132.0791 69.1033,-123.1688 59.0658,-126.5598 63.3712,-132.0791"/>
</a>
</g>
<g id="a_edge3&#45;label"><a xlink:href="#goProductList" xlink:title="&lt;TABLE&gt;" target="_parent">
<g id="a_edge3_3"><a xlink:href="#goProductList" xlink:title="View product list (safe)" target="_parent">
<text text-anchor="start" x="4.2091" y="-231.8" font-family="Times,serif" font-size="13.00" fill="#00a86b">■</text>
<text text-anchor="start" x="13.9591" y="-231.8" font-family="Times,serif" font-size="13.00" fill="#000000"> goProductList</text>
</a>
</g>
</a>
</g>
</g>
<!-- Payment -->
<g id="node5" class="node">
<title>Payment</title>
<g id="a_node5"><a xlink:href="#Payment" xlink:title="Payment" target="_parent">
<polygon fill="#d3d3d3" stroke="#000000" stroke-width="2" points="144.1962,-210 51.2102,-210 51.2102,-174 144.1962,-174 144.1962,-210"/>
<text text-anchor="middle" x="97.7032" y="-187.8" font-family="Times,serif" font-size="14.00" fill="#000000">Payment</text>
</a>
</g>
</g>
<!-- Checkout&#45;&gt;Payment -->
<g id="edge4" class="edge goPayment">
<title>Checkout&#45;&gt;Payment</title>
<g id="a_edge4"><a xlink:href="#goPayment" xlink:title="&lt;TABLE&gt;" target="_parent">
<path fill="none" stroke="#000000" stroke-width="1.5" d="M99.2888,-260.9735C99.018,-249.1918 98.6586,-233.5607 98.3505,-220.1581"/>
<polygon fill="#000000" stroke="#000000" stroke-width="1.5" points="101.8461,-219.9202 98.1171,-210.0034 94.8479,-220.0812 101.8461,-219.9202"/>
</a>
</g>
<g id="a_edge4&#45;label"><a xlink:href="#goPayment" xlink:title="&lt;TABLE&gt;" target="_parent">
<g id="a_edge4_4"><a xlink:href="#goPayment" xlink:title="Proceed to payment (safe)" target="_parent">
<text text-anchor="start" x="99.7926" y="-231.8" font-family="Times,serif" font-size="13.00" fill="#00a86b">■</text>
<text text-anchor="start" x="109.5426" y="-231.8" font-family="Times,serif" font-size="13.00" fill="#000000"> goPayment</text>
</a>
</g>
</a>
</g>
</g>
<!-- ProductDetail -->
<g id="node3" class="node">
<title>ProductDetail</title>
<g id="a_node3"><a xlink:href="#ProductDetail" xlink:title="ProductDetail" target="_parent">
<polygon fill="#d3d3d3" stroke="#000000" stroke-width="2" points="188.4596,-36 108.9468,-36 108.9468,0 188.4596,0 188.4596,-36"/>
<text text-anchor="middle" x="148.7032" y="-13.8" font-family="Times,serif" font-size="14.00" fill="#000000">ProductDetail</text>
</a>
</g>
</g>
<!-- ProductDetail&#45;&gt;Cart -->
<g id="edge6" class="edge doAddToCart">
<title>ProductDetail&#45;&gt;Cart</title>
<g id="a_edge6"><a xlink:href="#doAddToCart" xlink:title="&lt;TABLE&gt;" target="_parent">
<path fill="none" stroke="#000000" stroke-width="1.5" d="M188.4795,-26.5759C206.1516,-32.0206 226.1909,-40.642 240.7032,-54 259.2764,-71.0959 265.7032,-79.7565 265.7032,-105 265.7032,-279 265.7032,-279 265.7032,-279 265.7032,-319.2104 220.5422,-343.1127 186.5769,-355.4032"/>
<polygon fill="#000000" stroke="#000000" stroke-width="1.5" points="185.2323,-352.1638 176.9001,-358.7079 187.4946,-358.7882 185.2323,-352.1638"/>
</a>
</g>
<g id="a_edge6&#45;label"><a xlink:href="#doAddToCart" xlink:title="&lt;TABLE&gt;" target="_parent">
<g id="a_edge6_5"><a xlink:href="#doAddToCart" xlink:title="Add product to cart (unsafe)" target="_parent">
<text text-anchor="start" x="265.9358" y="-188.3" font-family="Times,serif" font-size="13.00" fill="#ff4136">■</text>
<text text-anchor="start" x="275.6858" y="-188.3" font-family="Times,serif" font-size="13.00" fill="#000000"> doAddToCart</text>
</a>
</g>
</a>
</g>
</g>
<!-- ProductDetail&#45;&gt;ProductList -->
<g id="edge7" class="edge goProductList">
<title>ProductDetail&#45;&gt;ProductList</title>
<g id="a_edge7"><a xlink:href="#goProductList" xlink:title="&lt;TABLE&gt;" target="_parent">
<path fill="none" stroke="#000000" stroke-width="1.5" d="M108.7135,-25.6863C80.1987,-32.074 45.4258,-42.0342 36.7032,-54 27.636,-66.4386 38.2579,-77.8875 52.8697,-86.7727"/>
<polygon fill="#000000" stroke="#000000" stroke-width="1.5" points="51.3668,-89.9406 61.8153,-91.696 54.742,-83.808 51.3668,-89.9406"/>
</a>
</g>
<g id="a_edge7&#45;label"><a xlink:href="#goProductList" xlink:title="&lt;TABLE&gt;" target="_parent">
<g id="a_edge7_6"><a xlink:href="#goProductList" xlink:title="View product list (safe)" target="_parent">
<text text-anchor="start" x="36.2091" y="-57.8" font-family="Times,serif" font-size="13.00" fill="#00a86b">■</text>
<text text-anchor="start" x="45.9591" y="-57.8" font-family="Times,serif" font-size="13.00" fill="#000000"> goProductList</text>
</a>
</g>
</a>
</g>
</g>
<!-- ProductList&#45;&gt;Cart -->
<g id="edge8" class="edge goCart">
<title>ProductList&#45;&gt;Cart</title>
<g id="a_edge8"><a xlink:href="#goCart" xlink:title="&lt;TABLE&gt;" target="_parent">
<path fill="none" stroke="#000000" stroke-width="1.5" d="M129.5887,-111.2264C146.6932,-116.2407 166.0309,-125.1813 176.7032,-141 203.549,-180.7912 185.1048,-323.8261 182.7032,-330 181.4036,-333.341 179.6332,-336.5604 177.5828,-339.6072"/>
<polygon fill="#000000" stroke="#000000" stroke-width="1.5" points="174.6529,-337.6708 171.2217,-347.6947 180.155,-341.9983 174.6529,-337.6708"/>
</a>
</g>
<g id="a_edge8&#45;label"><a xlink:href="#goCart" xlink:title="&lt;TABLE&gt;" target="_parent">
<g id="a_edge8_7"><a xlink:href="#goCart" xlink:title="View shopping cart (safe)" target="_parent">
<text text-anchor="start" x="191.349" y="-231.8" font-family="Times,serif" font-size="13.00" fill="#00a86b">■</text>
<text text-anchor="start" x="201.099" y="-231.8" font-family="Times,serif" font-size="13.00" fill="#000000"> goCart</text>
</a>
</g>
</a>
</g>
</g>
<!-- ProductList&#45;&gt;ProductDetail -->
<g id="edge9" class="edge goProductDetail">
<title>ProductList&#45;&gt;ProductDetail</title>
<g id="a_edge9"><a xlink:href="#goProductDetail" xlink:title="&lt;TABLE&gt;" target="_parent">
<path fill="none" stroke="#000000" stroke-width="1.5" d="M113.2584,-86.7868C117.9873,-81.3298 122.8534,-75.153 126.7032,-69 131.2345,-61.7578 135.2643,-53.4202 138.597,-45.6128"/>
<polygon fill="#000000" stroke="#000000" stroke-width="1.5" points="141.9277,-46.7122 142.431,-36.1293 135.438,-44.0885 141.9277,-46.7122"/>
</a>
</g>
<g id="a_edge9&#45;label"><a xlink:href="#goProductDetail" xlink:title="&lt;TABLE&gt;" target="_parent">
<g id="a_edge9_8"><a xlink:href="#goProductDetail" xlink:title="View product details (safe)" target="_parent">
<text text-anchor="start" x="134.4384" y="-57.8" font-family="Times,serif" font-size="13.00" fill="#00a86b">■</text>
<text text-anchor="start" x="144.1884" y="-57.8" font-family="Times,serif" font-size="13.00" fill="#000000"> goProductDetail</text>
</a>
</g>
</a>
</g>
</g>
<!-- ProductList&#45;&gt;ProductList -->
<g id="edge10" class="edge goProductList">
<title>ProductList&#45;&gt;ProductList</title>
<g id="a_edge10"><a xlink:href="#goProductList" xlink:title="&lt;TABLE&gt;" target="_parent">
<path fill="none" stroke="#000000" stroke-width="1.5" d="M129.4916,-112.8577C139.5444,-112.6231 147.3666,-110.0039 147.3666,-105 147.3666,-101.8726 144.3111,-99.6766 139.5651,-98.4122"/>
<polygon fill="#000000" stroke="#000000" stroke-width="1.5" points="139.8508,-94.9206 129.4916,-97.1423 138.9753,-101.8657 139.8508,-94.9206"/>
</a>
</g>
<g id="a_edge10&#45;label"><a xlink:href="#goProductList" xlink:title="&lt;TABLE&gt;" target="_parent">
<g id="a_edge10_9"><a xlink:href="#goProductList" xlink:title="View product list (safe)" target="_parent">
<text text-anchor="start" x="146.8725" y="-101.3" font-family="Times,serif" font-size="13.00" fill="#00a86b">■</text>
<text text-anchor="start" x="156.6225" y="-101.3" font-family="Times,serif" font-size="13.00" fill="#000000"> goProductList</text>
</a>
</g>
</a>
</g>
</g>
<!-- Payment&#45;&gt;ProductList -->
<g id="edge5" class="edge doPayment">
<title>Payment&#45;&gt;ProductList</title>
<g id="a_edge5"><a xlink:href="#doPayment" xlink:title="&lt;TABLE&gt;" target="_parent">
<path fill="none" stroke="#000000" stroke-width="1.5" d="M97.2888,-173.9735C97.018,-162.1918 96.6586,-146.5607 96.3505,-133.1581"/>
<polygon fill="#000000" stroke="#000000" stroke-width="1.5" points="99.8461,-132.9202 96.1171,-123.0034 92.8479,-133.0812 99.8461,-132.9202"/>
</a>
</g>
<g id="a_edge5&#45;label"><a xlink:href="#doPayment" xlink:title="&lt;TABLE&gt;" target="_parent">
<g id="a_edge5_10"><a xlink:href="#doPayment" xlink:title="Complete payment (idempotent)" target="_parent">
<text text-anchor="start" x="97.7926" y="-144.8" font-family="Times,serif" font-size="13.00" fill="#ffdc00">■</text>
<text text-anchor="start" x="107.5426" y="-144.8" font-family="Times,serif" font-size="13.00" fill="#000000"> doPayment</text>
</a>
</g>
</a>
</g>
</g>
</g>
</svg>
