<?xml version="1.0" encoding="UTF-8" standalone="no"?>
<!DOCTYPE svg PUBLIC "-//W3C//DTD SVG 1.1//EN"
 "http://www.w3.org/Graphics/SVG/1.1/DTD/svg11.dtd">
<!-- Generated by graphviz version 2.40.1 (20161225.0304)
 -->
<!-- Title: application_state_diagram Pages: 1 -->
<svg width="558pt" height="417pt"
 viewBox="0.00 0.00 557.83 416.80" xmlns="http://www.w3.org/2000/svg" xmlns:xlink="http://www.w3.org/1999/xlink">
<g id="graph0" class="graph" transform="scale(1 1) rotate(0) translate(4 412.8)">
<title>application_state_diagram</title>
<g id="a_graph0"><a xlink:href="index.html" xlink:title="app&#45;state&#45;diagram" target="_parent">
<polygon fill="#ffffff" stroke="transparent" points="-4,4 -4,-412.8 553.8321,-412.8 553.8321,4 -4,4"/>
<text text-anchor="middle" x="274.9161" y="-392.2" font-family="Helvetica,sans-Serif" font-size="14.00" fill="#000000">app&#45;state&#45;diagram</text>
</a>
</g>
<!-- Cart -->
<g id="node1" class="node">
<title>Cart</title>
<g id="a_node1"><a xlink:href="#Cart" xlink:title="Shopping Cart" target="_parent">
<polygon fill="#d3d3d3" stroke="#000000" stroke-width="2" points="246.6082,-384 163.0561,-384 163.0561,-348 246.6082,-348 246.6082,-384"/>
<text text-anchor="start" x="164.1943" y="-361.8" font-family="Times,serif" font-size="14.00" fill="#000000">Shopping Cart</text>
</a>
</g>
</g>
<!-- Cart&#45;&gt;Cart -->
<g id="edge1" class="edge doRemoveItem">
<title>Cart&#45;&gt;Cart</title>
<g id="a_edge1"><a xlink:href="#doRemoveItem" xlink:title="&lt;TABLE&gt;" target="_parent">
<path fill="none" stroke="#000000" stroke-width="1.5" d="M246.6339,-373.752C256.8599,-373.1777 264.4699,-370.5938 264.4699,-366 264.4699,-363.1289 261.4973,-361.0429 256.7712,-359.7419"/>
<polygon fill="#000000" stroke="#000000" stroke-width="1.5" points="257.0374,-356.2434 246.6339,-358.248 256.0168,-363.1686 257.0374,-356.2434"/>
</a>
</g>
<g id="a_edge1&#45;label"><a xlink:href="#doRemoveItem" xlink:title="&lt;TABLE&gt;" target="_parent">
<g id="a_edge1_0"><a xlink:href="#doRemoveItem" xlink:title="Remove item from cart (idempotent)" target="_parent">
<text text-anchor="start" x="264.8483" y="-370.3" font-family="Times,serif" font-size="13.00" fill="#ffdc00">■</text>
<text text-anchor="start" x="274.5983" y="-370.3" font-family="Times,serif" font-size="13.00" fill="#000000"> Remove item from cart</text>
</a>
</g>
<g id="a_edge1_1"><a xlink:href="#doUpdateQuantity" xlink:title="Update item quantity (idempotent)" target="_parent">
<text text-anchor="start" x="264.9699" y="-355.3" font-family="Times,serif" font-size="13.00" fill="#ffdc00">■</text>
<text text-anchor="start" x="274.7199" y="-355.3" font-family="Times,serif" font-size="13.00" fill="#000000"> Update item quantity</text>
</a>
</g>
</a>
</g>
</g>
<!-- Checkout -->
<g id="node2" class="node">
<title>Checkout</title>
<g id="a_node2"><a xlink:href="#Checkout" xlink:title="Checkout" target="_parent">
<polygon fill="#d3d3d3" stroke="#000000" stroke-width="2" points="153.4896,-297 98.1747,-297 98.1747,-261 153.4896,-261 153.4896,-297"/>
<text text-anchor="middle" x="125.8321" y="-274.8" font-family="Times,serif" font-size="14.00" fill="#000000">Checkout</text>
</a>
</g>
</g>
<!-- Cart&#45;&gt;Checkout -->
<g id="edge2" class="edge goCheckout">
<title>Cart&#45;&gt;Checkout</title>
<g id="a_edge2"><a xlink:href="#goCheckout" xlink:title="&lt;TABLE&gt;" target="_parent">
<path fill="none" stroke="#000000" stroke-width="1.5" d="M162.9547,-353.8572C151.12,-348.4211 139.4131,-340.7348 131.8321,-330 127.1835,-323.4174 125.0696,-315.1251 124.28,-307.151"/>
<polygon fill="#000000" stroke="#000000" stroke-width="1.5" points="127.7727,-306.8851 123.9031,-297.0222 120.7775,-307.1455 127.7727,-306.8851"/>
</a>
</g>
<g id="a_edge2&#45;label"><a xlink:href="#goCheckout" xlink:title="&lt;TABLE&gt;" target="_parent">
<g id="a_edge2_2"><a xlink:href="#goCheckout" xlink:title="Proceed to checkout (safe)" target="_parent">
<text text-anchor="start" x="132.1386" y="-318.8" font-family="Times,serif" font-size="13.00" fill="#00a86b">■</text>
<text text-anchor="start" x="141.8886" y="-318.8" font-family="Times,serif" font-size="13.00" fill="#000000"> Proceed to checkout</text>
</a>
</g>
</a>
</g>
</g>
<!-- ProductList -->
<g id="node4" class="node">
<title>ProductList</title>
<g id="a_node4"><a xlink:href="#ProductList" xlink:title="Product List" target="_parent">
<polygon fill="#d3d3d3" stroke="#000000" stroke-width="2" points="163.1592,-123 92.5051,-123 92.5051,-87 163.1592,-87 163.1592,-123"/>
<text text-anchor="start" x="93.4187" y="-100.8" font-family="Times,serif" font-size="14.00" fill="#000000">Product List</text>
</a>
</g>
</g>
<!-- Cart&#45;&gt;ProductList -->
<g id="edge3" class="edge goProductList">
<title>Cart&#45;&gt;ProductList</title>
<g id="a_edge3"><a xlink:href="#goProductList" xlink:title="&lt;TABLE&gt;" target="_parent">
<path fill="none" stroke="#000000" stroke-width="1.5" d="M163.0015,-354.5917C114.3334,-338.7332 36.7105,-304.7567 5.8321,-243 -17.7156,-195.9045 39.4983,-152.3021 83.3254,-127.1824"/>
<polygon fill="#000000" stroke="#000000" stroke-width="1.5" points="85.1302,-130.1835 92.1622,-122.2588 81.7231,-124.0686 85.1302,-130.1835"/>
</a>
</g>
<g id="a_edge3&#45;label"><a xlink:href="#goProductList" xlink:title="&lt;TABLE&gt;" target="_parent">
<g id="a_edge3_3"><a xlink:href="#goProductList" xlink:title="View product list (safe)" target="_parent">
<text text-anchor="start" x="5.7117" y="-231.8" font-family="Times,serif" font-size="13.00" fill="#00a86b">■</text>
<text text-anchor="start" x="15.4617" y="-231.8" font-family="Times,serif" font-size="13.00" fill="#000000"> View product list</text>
</a>
</g>
</a>
</g>
</g>
<!-- Payment -->
<g id="node5" class="node">
<title>Payment</title>
<g id="a_node5"><a xlink:href="#Payment" xlink:title="Payment" target="_parent">
<polygon fill="#d3d3d3" stroke="#000000" stroke-width="2" points="172.3251,-210 79.3391,-210 79.3391,-174 172.3251,-174 172.3251,-210"/>
<text text-anchor="middle" x="125.8321" y="-187.8" font-family="Times,serif" font-size="14.00" fill="#000000">Payment</text>
</a>
</g>
</g>
<!-- Checkout&#45;&gt;Payment -->
<g id="edge4" class="edge goPayment">
<title>Checkout&#45;&gt;Payment</title>
<g id="a_edge4"><a xlink:href="#goPayment" xlink:title="&lt;TABLE&gt;" target="_parent">
<path fill="none" stroke="#000000" stroke-width="1.5" d="M125.8321,-260.9735C125.8321,-249.1918 125.8321,-233.5607 125.8321,-220.1581"/>
<polygon fill="#000000" stroke="#000000" stroke-width="1.5" points="129.3322,-220.0033 125.8321,-210.0034 122.3322,-220.0034 129.3322,-220.0033"/>
</a>
</g>
<g id="a_edge4&#45;label"><a xlink:href="#goPayment" xlink:title="&lt;TABLE&gt;" target="_parent">
<g id="a_edge4_4"><a xlink:href="#goPayment" xlink:title="Proceed to payment (safe)" target="_parent">
<text text-anchor="start" x="126.2176" y="-231.8" font-family="Times,serif" font-size="13.00" fill="#00a86b">■</text>
<text text-anchor="start" x="135.9676" y="-231.8" font-family="Times,serif" font-size="13.00" fill="#000000"> Proceed to payment</text>
</a>
</g>
</a>
</g>
</g>
<!-- ProductDetail -->
<g id="node3" class="node">
<title>ProductDetail</title>
<g id="a_node3"><a xlink:href="#ProductDetail" xlink:title="Product Detail" target="_parent">
<polygon fill="#d3d3d3" stroke="#000000" stroke-width="2" points="308.5885,-36 225.0758,-36 225.0758,0 308.5885,0 308.5885,-36"/>
<text text-anchor="start" x="226.2041" y="-13.8" font-family="Times,serif" font-size="14.00" fill="#000000">Product Detail</text>
</a>
</g>
</g>
<!-- ProductDetail&#45;&gt;Cart -->
<g id="edge6" class="edge doAddToCart">
<title>ProductDetail&#45;&gt;Cart</title>
<g id="a_edge6"><a xlink:href="#doAddToCart" xlink:title="&lt;TABLE&gt;" target="_parent">
<path fill="none" stroke="#000000" stroke-width="1.5" d="M308.6194,-26.0126C340.4007,-32.7977 380.8136,-43.1317 393.8321,-54 413.2105,-70.1776 418.8321,-79.7565 418.8321,-105 418.8321,-279 418.8321,-279 418.8321,-279 418.8321,-313.9284 319.763,-341.6022 256.4374,-355.7237"/>
<polygon fill="#000000" stroke="#000000" stroke-width="1.5" points="255.6239,-352.3188 246.6015,-357.8728 257.1182,-359.1574 255.6239,-352.3188"/>
</a>
</g>
<g id="a_edge6&#45;label"><a xlink:href="#doAddToCart" xlink:title="&lt;TABLE&gt;" target="_parent">
<g id="a_edge6_5"><a xlink:href="#doAddToCart" xlink:title="Add product to cart (unsafe)" target="_parent">
<text text-anchor="start" x="418.9566" y="-188.3" font-family="Times,serif" font-size="13.00" fill="#ff4136">■</text>
<text text-anchor="start" x="428.7066" y="-188.3" font-family="Times,serif" font-size="13.00" fill="#000000"> Add product to cart</text>
</a>
</g>
</a>
</g>
</g>
<!-- ProductDetail&#45;&gt;ProductList -->
<g id="edge7" class="edge goProductList">
<title>ProductDetail&#45;&gt;ProductList</title>
<g id="a_edge7"><a xlink:href="#goProductList" xlink:title="&lt;TABLE&gt;" target="_parent">
<path fill="none" stroke="#000000" stroke-width="1.5" d="M224.888,-23.3523C188.7961,-28.9121 140.7123,-38.9307 128.8321,-54 123.8762,-60.2863 122.2954,-68.4915 122.3241,-76.477"/>
<polygon fill="#000000" stroke="#000000" stroke-width="1.5" points="118.8531,-76.9795 123.1405,-86.6681 125.8307,-76.4205 118.8531,-76.9795"/>
</a>
</g>
<g id="a_edge7&#45;label"><a xlink:href="#goProductList" xlink:title="&lt;TABLE&gt;" target="_parent">
<g id="a_edge7_6"><a xlink:href="#goProductList" xlink:title="View product list (safe)" target="_parent">
<text text-anchor="start" x="128.7117" y="-57.8" font-family="Times,serif" font-size="13.00" fill="#00a86b">■</text>
<text text-anchor="start" x="138.4617" y="-57.8" font-family="Times,serif" font-size="13.00" fill="#000000"> View product list</text>
</a>
</g>
</a>
</g>
</g>
<!-- ProductList&#45;&gt;Cart -->
<g id="edge8" class="edge goCart">
<title>ProductList&#45;&gt;Cart</title>
<g id="a_edge8"><a xlink:href="#goCart" xlink:title="&lt;TABLE&gt;" target="_parent">
<path fill="none" stroke="#000000" stroke-width="1.5" d="M163.2563,-110.656C195.8352,-116.6411 240.7212,-127.1382 251.8321,-141 287.4345,-185.4166 266.0575,-324.202 262.8321,-330 260.4718,-334.2431 257.3815,-338.05 253.8554,-341.4519"/>
<polygon fill="#000000" stroke="#000000" stroke-width="1.5" points="251.5685,-338.8013 246.0995,-347.8754 256.0336,-344.1924 251.5685,-338.8013"/>
</a>
</g>
<g id="a_edge8&#45;label"><a xlink:href="#goCart" xlink:title="&lt;TABLE&gt;" target="_parent">
<g id="a_edge8_7"><a xlink:href="#goCart" xlink:title="View shopping cart (safe)" target="_parent">
<text text-anchor="start" x="272.9391" y="-231.8" font-family="Times,serif" font-size="13.00" fill="#00a86b">■</text>
<text text-anchor="start" x="282.6891" y="-231.8" font-family="Times,serif" font-size="13.00" fill="#000000"> View shopping cart</text>
</a>
</g>
</a>
</g>
</g>
<!-- ProductList&#45;&gt;ProductDetail -->
<g id="edge9" class="edge goProductDetail">
<title>ProductList&#45;&gt;ProductDetail</title>
<g id="a_edge9"><a xlink:href="#goProductDetail" xlink:title="&lt;TABLE&gt;" target="_parent">
<path fill="none" stroke="#000000" stroke-width="1.5" d="M163.2417,-97.5451C193.0427,-90.6635 232.6886,-79.8898 244.8321,-69 251.6433,-62.8921 256.4276,-54.3067 259.7519,-45.919"/>
<polygon fill="#000000" stroke="#000000" stroke-width="1.5" points="263.1089,-46.9182 263.0176,-36.3237 256.4822,-44.6627 263.1089,-46.9182"/>
</a>
</g>
<g id="a_edge9&#45;label"><a xlink:href="#goProductDetail" xlink:title="&lt;TABLE&gt;" target="_parent">
<g id="a_edge9_8"><a xlink:href="#goProductDetail" xlink:title="View product details (safe)" target="_parent">
<text text-anchor="start" x="255.691" y="-57.8" font-family="Times,serif" font-size="13.00" fill="#00a86b">■</text>
<text text-anchor="start" x="265.441" y="-57.8" font-family="Times,serif" font-size="13.00" fill="#000000"> View product details</text>
</a>
</g>
</a>
</g>
</g>
<!-- ProductList&#45;&gt;ProductList -->
<g id="edge10" class="edge goProductList">
<title>ProductList&#45;&gt;ProductList</title>
<g id="a_edge10"><a xlink:href="#goProductList" xlink:title="&lt;TABLE&gt;" target="_parent">
<path fill="none" stroke="#000000" stroke-width="1.5" d="M163.2743,-112.8442C173.4213,-112.5366 181.2455,-109.9219 181.2455,-105 181.2455,-101.9238 178.1892,-99.7489 173.4196,-98.4752"/>
<polygon fill="#000000" stroke="#000000" stroke-width="1.5" points="173.6422,-94.9747 163.2743,-97.1558 172.7394,-101.9162 173.6422,-94.9747"/>
</a>
</g>
<g id="a_edge10&#45;label"><a xlink:href="#goProductList" xlink:title="&lt;TABLE&gt;" target="_parent">
<g id="a_edge10_9"><a xlink:href="#goProductList" xlink:title="View product list (safe)" target="_parent">
<text text-anchor="start" x="181.1251" y="-101.3" font-family="Times,serif" font-size="13.00" fill="#00a86b">■</text>
<text text-anchor="start" x="190.8751" y="-101.3" font-family="Times,serif" font-size="13.00" fill="#000000"> View product list</text>
</a>
</g>
</a>
</g>
</g>
<!-- Payment&#45;&gt;ProductList -->
<g id="edge5" class="edge doPayment">
<title>Payment&#45;&gt;ProductList</title>
<g id="a_edge5"><a xlink:href="#doPayment" xlink:title="&lt;TABLE&gt;" target="_parent">
<path fill="none" stroke="#000000" stroke-width="1.5" d="M126.2466,-173.9735C126.5174,-162.1918 126.8767,-146.5607 127.1848,-133.1581"/>
<polygon fill="#000000" stroke="#000000" stroke-width="1.5" points="130.6874,-133.0812 127.4183,-123.0034 123.6893,-132.9202 130.6874,-133.0812"/>
</a>
</g>
<g id="a_edge5&#45;label"><a xlink:href="#doPayment" xlink:title="&lt;TABLE&gt;" target="_parent">
<g id="a_edge5_10"><a xlink:href="#doPayment" xlink:title="Complete payment (idempotent)" target="_parent">
<text text-anchor="start" x="127.7214" y="-144.8" font-family="Times,serif" font-size="13.00" fill="#ffdc00">■</text>
<text text-anchor="start" x="137.4714" y="-144.8" font-family="Times,serif" font-size="13.00" fill="#000000"> Complete payment</text>
</a>
</g>
</a>
</g>
</g>
</g>
</svg>
