<?xml version="1.0" encoding="UTF-8" standalone="no"?>
<!DOCTYPE svg PUBLIC "-//W3C//DTD SVG 1.1//EN"
 "http://www.w3.org/Graphics/SVG/1.1/DTD/svg11.dtd">
<!-- Generated by graphviz version 2.40.1 (20161225.0304)
 -->
<!-- Title: application_state_diagram Pages: 1 -->
<svg width="365pt" height="417pt"
 viewBox="0.00 0.00 365.41 416.80" xmlns="http://www.w3.org/2000/svg" xmlns:xlink="http://www.w3.org/1999/xlink">
<g id="graph0" class="graph" transform="scale(1 1) rotate(0) translate(4 412.8)">
<title>application_state_diagram</title>
<g id="a_graph0"><a xlink:href="index.html" xlink:title="app&#45;state&#45;diagram" target="_parent">
<polygon fill="#ffffff" stroke="transparent" points="-4,4 -4,-412.8 361.4087,-412.8 361.4087,4 -4,4"/>
<text text-anchor="middle" x="178.7044" y="-392.2" font-family="Helvetica,sans-Serif" font-size="14.00" fill="#000000">app&#45;state&#45;diagram</text>
</a>
</g>
<!-- Cart -->
<g id="node1" class="node">
<title>Cart</title>
<g id="a_node1"><a xlink:href="#Cart" xlink:title="Cart" target="_parent">
<polygon fill="#d3d3d3" stroke="#000000" stroke-width="2" points="176.4087,-384 122.4087,-384 122.4087,-348 176.4087,-348 176.4087,-384"/>
<text text-anchor="middle" x="149.4087" y="-361.8" font-family="Times,serif" font-size="14.00" fill="#000000">Cart</text>
</a>
</g>
</g>
<!-- Cart&#45;&gt;Cart -->
<g id="edge1" class="edge doRemoveItem">
<title>Cart&#45;&gt;Cart</title>
<g id="a_edge1"><a xlink:href="#doRemoveItem" xlink:title="&lt;TABLE&gt;" target="_parent">
<path fill="none" stroke="#000000" stroke-width="1.5" d="M176.6495,-373.8673C186.4327,-374.0365 194.4087,-371.4141 194.4087,-366 194.4087,-362.7008 191.4469,-360.4382 186.9192,-359.2123"/>
<polygon fill="#000000" stroke="#000000" stroke-width="1.5" points="186.9607,-355.6975 176.6495,-358.1327 186.2287,-362.6591 186.9607,-355.6975"/>
</a>
</g>
<g id="a_edge1&#45;label"><a xlink:href="#doRemoveItem" xlink:title="&lt;TABLE&gt;" target="_parent">
<g id="a_edge1_0"><a xlink:href="#doRemoveItem" xlink:title="Remove item from cart (idempotent)" target="_parent">
<text text-anchor="start" x="194.9087" y="-370.3" font-family="Times,serif" font-size="13.00" fill="#ffdc00">■</text>
<text text-anchor="start" x="204.6587" y="-370.3" font-family="Times,serif" font-size="13.00" fill="#000000"> doRemoveItem</text>
</a>
</g>
<g id="a_edge1_1"><a xlink:href="#doUpdateQuantity" xlink:title="Update item quantity (idempotent)" target="_parent">
<text text-anchor="start" x="194.7287" y="-355.3" font-family="Times,serif" font-size="13.00" fill="#ffdc00">■</text>
<text text-anchor="start" x="204.4787" y="-355.3" font-family="Times,serif" font-size="13.00" fill="#000000"> doUpdateQuantity</text>
</a>
</g>
</a>
</g>
</g>
<!-- Checkout -->
<g id="node2" class="node">
<title>Checkout</title>
<g id="a_node2"><a xlink:href="#Checkout" xlink:title="Checkout" target="_parent">
<polygon fill="#d3d3d3" stroke="#000000" stroke-width="2" points="133.066,-297 65.7515,-297 65.7515,-261 133.066,-261 133.066,-297"/>
<text text-anchor="middle" x="99.4087" y="-274.8" font-family="Times,serif" font-size="14.00" fill="#000000">Checkout</text>
</a>
</g>
</g>
<!-- Cart&#45;&gt;Checkout -->
<g id="edge2" class="edge goCheckout">
<title>Cart&#45;&gt;Checkout</title>
<g id="a_edge2"><a xlink:href="#goCheckout" xlink:title="&lt;TABLE&gt;" target="_parent">
<path fill="none" stroke="#000000" stroke-width="1.5" d="M122.2073,-351.2492C114.4783,-345.6546 106.9383,-338.534 102.4087,-330 98.8067,-323.2135 97.2988,-315.1803 96.8804,-307.5212"/>
<polygon fill="#000000" stroke="#000000" stroke-width="1.5" points="100.3803,-307.4646 96.8906,-297.461 93.3803,-307.4574 100.3803,-307.4646"/>
</a>
</g>
<g id="a_edge2&#45;label"><a xlink:href="#goCheckout" xlink:title="&lt;TABLE&gt;" target="_parent">
<g id="a_edge2_2"><a xlink:href="#goCheckout" xlink:title="Proceed to checkout (safe)" target="_parent">
<text text-anchor="start" x="102.333" y="-318.8" font-family="Times,serif" font-size="13.00" fill="#00a86b">■</text>
<text text-anchor="start" x="112.083" y="-318.8" font-family="Times,serif" font-size="13.00" fill="#000000"> goCheckout</text>
</a>
</g>
</a>
</g>
</g>
<!-- ProductList -->
<g id="node4" class="node">
<title>ProductList</title>
<g id="a_node4"><a xlink:href="#ProductList" xlink:title="ProductList" target="_parent">
<polygon fill="#d3d3d3" stroke="#000000" stroke-width="2" points="132.2362,-123 52.5812,-123 52.5812,-87 132.2362,-87 132.2362,-123"/>
<text text-anchor="middle" x="92.4087" y="-100.8" font-family="Times,serif" font-size="14.00" fill="#000000">ProductList</text>
</a>
</g>
</g>
<!-- Cart&#45;&gt;ProductList -->
<g id="edge3" class="edge goProductList">
<title>Cart&#45;&gt;ProductList</title>
<g id="a_edge3"><a xlink:href="#goProductList" xlink:title="&lt;TABLE&gt;" target="_parent">
<path fill="none" stroke="#000000" stroke-width="1.5" d="M122.1435,-353.2584C86.5228,-334.8141 26.1349,-296.8838 4.4087,-243 -12.8807,-200.1201 27.3576,-155.9998 58.98,-129.5382"/>
<polygon fill="#000000" stroke="#000000" stroke-width="1.5" points="61.2305,-132.2195 66.7937,-123.2027 56.8218,-126.7822 61.2305,-132.2195"/>
</a>
</g>
<g id="a_edge3&#45;label"><a xlink:href="#goProductList" xlink:title="&lt;TABLE&gt;" target="_parent">
<g id="a_edge3_3"><a xlink:href="#goProductList" xlink:title="View product list (safe)" target="_parent">
<text text-anchor="start" x="3.9146" y="-231.8" font-family="Times,serif" font-size="13.00" fill="#00a86b">■</text>
<text text-anchor="start" x="13.6646" y="-231.8" font-family="Times,serif" font-size="13.00" fill="#000000"> goProductList</text>
</a>
</g>
</a>
</g>
</g>
<!-- Payment -->
<g id="node5" class="node">
<title>Payment</title>
<g id="a_node5"><a xlink:href="#Payment" xlink:title="Payment" target="_parent">
<polygon fill="#d3d3d3" stroke="#000000" stroke-width="2" points="143.9017,-210 50.9157,-210 50.9157,-174 143.9017,-174 143.9017,-210"/>
<text text-anchor="middle" x="97.4087" y="-187.8" font-family="Times,serif" font-size="14.00" fill="#000000">Payment</text>
</a>
</g>
</g>
<!-- Checkout&#45;&gt;Payment -->
<g id="edge4" class="edge goPayment">
<title>Checkout&#45;&gt;Payment</title>
<g id="a_edge4"><a xlink:href="#goPayment" xlink:title="&lt;TABLE&gt;" target="_parent">
<path fill="none" stroke="#000000" stroke-width="1.5" d="M98.9943,-260.9735C98.7235,-249.1918 98.3641,-233.5607 98.056,-220.1581"/>
<polygon fill="#000000" stroke="#000000" stroke-width="1.5" points="101.5516,-219.9202 97.8226,-210.0034 94.5534,-220.0812 101.5516,-219.9202"/>
</a>
</g>
<g id="a_edge4&#45;label"><a xlink:href="#goPayment" xlink:title="&lt;TABLE&gt;" target="_parent">
<g id="a_edge4_4"><a xlink:href="#goPayment" xlink:title="Proceed to payment (safe)" target="_parent">
<text text-anchor="start" x="99.4981" y="-231.8" font-family="Times,serif" font-size="13.00" fill="#00a86b">■</text>
<text text-anchor="start" x="109.2481" y="-231.8" font-family="Times,serif" font-size="13.00" fill="#000000"> goPayment</text>
</a>
</g>
</a>
</g>
</g>
<!-- ProductDetail -->
<g id="node3" class="node">
<title>ProductDetail</title>
<g id="a_node3"><a xlink:href="#ProductDetail" xlink:title="ProductDetail" target="_parent">
<polygon fill="#d3d3d3" stroke="#000000" stroke-width="2" points="197.165,-36 105.6524,-36 105.6524,0 197.165,0 197.165,-36"/>
<text text-anchor="middle" x="151.4087" y="-13.8" font-family="Times,serif" font-size="14.00" fill="#000000">ProductDetail</text>
</a>
</g>
</g>
<!-- ProductDetail&#45;&gt;Cart -->
<g id="edge6" class="edge doAddToCart">
<title>ProductDetail&#45;&gt;Cart</title>
<g id="a_edge6"><a xlink:href="#doAddToCart" xlink:title="&lt;TABLE&gt;" target="_parent">
<path fill="none" stroke="#000000" stroke-width="1.5" d="M197.3785,-28.1788C213.7595,-33.6405 231.3625,-41.8427 244.4087,-54 262.7359,-71.0784 268.4087,-79.9489 268.4087,-105 268.4087,-279 268.4087,-279 268.4087,-279 268.4087,-320.2284 221.2844,-344.02 186.3452,-355.9938"/>
<polygon fill="#000000" stroke="#000000" stroke-width="1.5" points="184.8534,-352.7974 176.4117,-359.1996 187.0033,-359.4591 184.8534,-352.7974"/>
</a>
</g>
<g id="a_edge6&#45;label"><a xlink:href="#doAddToCart" xlink:title="&lt;TABLE&gt;" target="_parent">
<g id="a_edge6_5"><a xlink:href="#doAddToCart" xlink:title="Add product to cart (unsafe)" target="_parent">
<text text-anchor="start" x="268.6413" y="-188.3" font-family="Times,serif" font-size="13.00" fill="#ff4136">■</text>
<text text-anchor="start" x="278.3913" y="-188.3" font-family="Times,serif" font-size="13.00" fill="#000000"> doAddToCart</text>
</a>
</g>
</a>
</g>
</g>
<!-- ProductDetail&#45;&gt;ProductList -->
<g id="edge7" class="edge goProductList">
<title>ProductDetail&#45;&gt;ProductList</title>
<g id="a_edge7"><a xlink:href="#goProductList" xlink:title="&lt;TABLE&gt;" target="_parent">
<path fill="none" stroke="#000000" stroke-width="1.5" d="M105.4407,-27.0584C78.2319,-33.4574 47.5298,-42.8594 39.4087,-54 32.4643,-63.5265 37.4213,-72.8146 46.5989,-80.7973"/>
<polygon fill="#000000" stroke="#000000" stroke-width="1.5" points="44.6205,-83.6887 54.7173,-86.899 48.8262,-78.0929 44.6205,-83.6887"/>
</a>
</g>
<g id="a_edge7&#45;label"><a xlink:href="#goProductList" xlink:title="&lt;TABLE&gt;" target="_parent">
<g id="a_edge7_6"><a xlink:href="#goProductList" xlink:title="View product list (safe)" target="_parent">
<text text-anchor="start" x="38.9146" y="-57.8" font-family="Times,serif" font-size="13.00" fill="#00a86b">■</text>
<text text-anchor="start" x="48.6646" y="-57.8" font-family="Times,serif" font-size="13.00" fill="#000000"> goProductList</text>
</a>
</g>
</a>
</g>
</g>
<!-- ProductList&#45;&gt;Cart -->
<g id="edge8" class="edge goCart">
<title>ProductList&#45;&gt;Cart</title>
<g id="a_edge8"><a xlink:href="#goCart" xlink:title="&lt;TABLE&gt;" target="_parent">
<path fill="none" stroke="#000000" stroke-width="1.5" d="M132.1292,-112.8705C147.9291,-118.1135 164.6425,-126.7713 174.4087,-141 228.0581,-219.1629 187.265,-317.5154 182.4087,-330 181.1091,-333.341 179.3387,-336.5604 177.2883,-339.6072"/>
<polygon fill="#000000" stroke="#000000" stroke-width="1.5" points="174.3584,-337.6708 170.9272,-347.6947 179.8605,-341.9983 174.3584,-337.6708"/>
</a>
</g>
<g id="a_edge8&#45;label"><a xlink:href="#goCart" xlink:title="&lt;TABLE&gt;" target="_parent">
<g id="a_edge8_7"><a xlink:href="#goCart" xlink:title="View shopping cart (safe)" target="_parent">
<text text-anchor="start" x="201.0545" y="-231.8" font-family="Times,serif" font-size="13.00" fill="#00a86b">■</text>
<text text-anchor="start" x="210.8045" y="-231.8" font-family="Times,serif" font-size="13.00" fill="#000000"> goCart</text>
</a>
</g>
</a>
</g>
</g>
<!-- ProductList&#45;&gt;ProductDetail -->
<g id="edge9" class="edge goProductDetail">
<title>ProductList&#45;&gt;ProductDetail</title>
<g id="a_edge9"><a xlink:href="#goProductDetail" xlink:title="&lt;TABLE&gt;" target="_parent">
<path fill="none" stroke="#000000" stroke-width="1.5" d="M113.9032,-86.856C119.4262,-81.4931 125.0365,-75.3476 129.4087,-69 134.2548,-61.9645 138.3815,-53.6906 141.7064,-45.8781"/>
<polygon fill="#000000" stroke="#000000" stroke-width="1.5" points="145.0493,-46.9427 145.4829,-36.3568 138.5425,-44.3619 145.0493,-46.9427"/>
</a>
</g>
<g id="a_edge9&#45;label"><a xlink:href="#goProductDetail" xlink:title="&lt;TABLE&gt;" target="_parent">
<g id="a_edge9_8"><a xlink:href="#goProductDetail" xlink:title="View product details (safe)" target="_parent">
<text text-anchor="start" x="138.1439" y="-57.8" font-family="Times,serif" font-size="13.00" fill="#00a86b">■</text>
<text text-anchor="start" x="147.8939" y="-57.8" font-family="Times,serif" font-size="13.00" fill="#000000"> goProductDetail</text>
</a>
</g>
</a>
</g>
</g>
<!-- ProductList&#45;&gt;ProductList -->
<g id="edge10" class="edge goProductList">
<title>ProductList&#45;&gt;ProductList</title>
<g id="a_edge10"><a xlink:href="#goProductList" xlink:title="&lt;TABLE&gt;" target="_parent">
<path fill="none" stroke="#000000" stroke-width="1.5" d="M132.2945,-112.7808C142.4489,-112.2694 150.0721,-109.6758 150.0721,-105 150.0721,-102.0776 147.0943,-99.9686 142.3818,-98.673"/>
<polygon fill="#000000" stroke="#000000" stroke-width="1.5" points="142.6916,-95.1815 132.2945,-97.2192 141.693,-102.1099 142.6916,-95.1815"/>
</a>
</g>
<g id="a_edge10&#45;label"><a xlink:href="#goProductList" xlink:title="&lt;TABLE&gt;" target="_parent">
<g id="a_edge10_9"><a xlink:href="#goProductList" xlink:title="View product list (safe)" target="_parent">
<text text-anchor="start" x="149.578" y="-101.3" font-family="Times,serif" font-size="13.00" fill="#00a86b">■</text>
<text text-anchor="start" x="159.328" y="-101.3" font-family="Times,serif" font-size="13.00" fill="#000000"> goProductList</text>
</a>
</g>
</a>
</g>
</g>
<!-- Payment&#45;&gt;ProductList -->
<g id="edge5" class="edge doPayment">
<title>Payment&#45;&gt;ProductList</title>
<g id="a_edge5"><a xlink:href="#doPayment" xlink:title="&lt;TABLE&gt;" target="_parent">
<path fill="none" stroke="#000000" stroke-width="1.5" d="M96.3727,-173.9735C95.6956,-162.1918 94.7973,-146.5607 94.027,-133.1581"/>
<polygon fill="#000000" stroke="#000000" stroke-width="1.5" points="97.5115,-132.786 93.4434,-123.0034 90.523,-133.1877 97.5115,-132.786"/>
</a>
</g>
<g id="a_edge5&#45;label"><a xlink:href="#doPayment" xlink:title="&lt;TABLE&gt;" target="_parent">
<g id="a_edge5_10"><a xlink:href="#doPayment" xlink:title="Complete payment (idempotent)" target="_parent">
<text text-anchor="start" x="95.4981" y="-144.8" font-family="Times,serif" font-size="13.00" fill="#ffdc00">■</text>
<text text-anchor="start" x="105.2481" y="-144.8" font-family="Times,serif" font-size="13.00" fill="#000000"> doPayment</text>
</a>
</g>
</a>
</g>
</g>
</g>
</svg>
