<?xml version="1.0" encoding="UTF-8" standalone="no"?>
<!DOCTYPE svg PUBLIC "-//W3C//DTD SVG 1.1//EN"
 "http://www.w3.org/Graphics/SVG/1.1/DTD/svg11.dtd">
<!-- Generated by graphviz version 2.40.1 (20161225.0304)
 -->
<!-- Title: application_state_diagram Pages: 1 -->
<svg width="558pt" height="417pt"
 viewBox="0.00 0.00 557.83 416.80" xmlns="http://www.w3.org/2000/svg" xmlns:xlink="http://www.w3.org/1999/xlink">
<g id="graph0" class="graph" transform="scale(1 1) rotate(0) translate(4 412.8)">
<title>application_state_diagram</title>
<g id="a_graph0"><a xlink:href="index.html" xlink:title="app&#45;state&#45;diagram" target="_parent">
<polygon fill="#ffffff" stroke="transparent" points="-4,4 -4,-412.8 553.8285,-412.8 553.8285,4 -4,4"/>
<text text-anchor="middle" x="274.9143" y="-392.2" font-family="Helvetica,sans-Serif" font-size="14.00" fill="#000000">app&#45;state&#45;diagram</text>
</a>
</g>
<!-- Cart -->
<g id="node1" class="node">
<title>Cart</title>
<g id="a_node1"><a xlink:href="#Cart" xlink:title="Shopping Cart" target="_parent">
<polygon fill="#d3d3d3" stroke="#000000" stroke-width="2" points="252.6045,-384 157.0525,-384 157.0525,-348 252.6045,-348 252.6045,-384"/>
<text text-anchor="middle" x="204.8285" y="-361.8" font-family="Times,serif" font-size="14.00" fill="#000000">Shopping Cart</text>
</a>
</g>
</g>
<!-- Cart&#45;&gt;Cart -->
<g id="edge1" class="edge doRemoveItem">
<title>Cart&#45;&gt;Cart</title>
<g id="a_edge1"><a xlink:href="#doRemoveItem" xlink:title="&lt;TABLE&gt;" target="_parent">
<path fill="none" stroke="#000000" stroke-width="1.5" d="M252.6191,-373.6424C262.964,-372.8951 270.4663,-370.3477 270.4663,-366 270.4663,-363.2827 267.5358,-361.2686 262.8122,-359.9578"/>
<polygon fill="#000000" stroke="#000000" stroke-width="1.5" points="263.0409,-356.4509 252.6191,-358.3576 261.9553,-363.3662 263.0409,-356.4509"/>
</a>
</g>
<g id="a_edge1&#45;label"><a xlink:href="#doRemoveItem" xlink:title="&lt;TABLE&gt;" target="_parent">
<g id="a_edge1_0"><a xlink:href="#doRemoveItem" xlink:title="Remove item from cart (idempotent)" target="_parent">
<text text-anchor="start" x="270.8447" y="-370.3" font-family="Times,serif" font-size="13.00" fill="#ffdc00">■</text>
<text text-anchor="start" x="280.5947" y="-370.3" font-family="Times,serif" font-size="13.00" fill="#000000"> Remove item from cart</text>
</a>
</g>
<g id="a_edge1_1"><a xlink:href="#doUpdateQuantity" xlink:title="Update item quantity (idempotent)" target="_parent">
<text text-anchor="start" x="270.9663" y="-355.3" font-family="Times,serif" font-size="13.00" fill="#ffdc00">■</text>
<text text-anchor="start" x="280.7163" y="-355.3" font-family="Times,serif" font-size="13.00" fill="#000000"> Update item quantity</text>
</a>
</g>
</a>
</g>
</g>
<!-- Checkout -->
<g id="node2" class="node">
<title>Checkout</title>
<g id="a_node2"><a xlink:href="#Checkout" xlink:title="Checkout" target="_parent">
<polygon fill="#d3d3d3" stroke="#000000" stroke-width="2" points="159.4858,-297 92.1713,-297 92.1713,-261 159.4858,-261 159.4858,-297"/>
<text text-anchor="middle" x="125.8285" y="-274.8" font-family="Times,serif" font-size="14.00" fill="#000000">Checkout</text>
</a>
</g>
</g>
<!-- Cart&#45;&gt;Checkout -->
<g id="edge2" class="edge goCheckout">
<title>Cart&#45;&gt;Checkout</title>
<g id="a_edge2"><a xlink:href="#goCheckout" xlink:title="&lt;TABLE&gt;" target="_parent">
<path fill="none" stroke="#000000" stroke-width="1.5" d="M156.8746,-350.8476C147.2103,-345.6861 138.1052,-338.8879 131.8285,-330 127.1799,-323.4174 125.066,-315.1251 124.2764,-307.151"/>
<polygon fill="#000000" stroke="#000000" stroke-width="1.5" points="127.7691,-306.8851 123.8995,-297.0222 120.7739,-307.1455 127.7691,-306.8851"/>
</a>
</g>
<g id="a_edge2&#45;label"><a xlink:href="#goCheckout" xlink:title="&lt;TABLE&gt;" target="_parent">
<g id="a_edge2_2"><a xlink:href="#goCheckout" xlink:title="Proceed to checkout (safe)" target="_parent">
<text text-anchor="start" x="132.135" y="-318.8" font-family="Times,serif" font-size="13.00" fill="#00a86b">■</text>
<text text-anchor="start" x="141.885" y="-318.8" font-family="Times,serif" font-size="13.00" fill="#000000"> Proceed to checkout</text>
</a>
</g>
</a>
</g>
</g>
<!-- ProductList -->
<g id="node4" class="node">
<title>ProductList</title>
<g id="a_node4"><a xlink:href="#ProductList" xlink:title="Product List" target="_parent">
<polygon fill="#d3d3d3" stroke="#000000" stroke-width="2" points="169.1555,-123 86.5016,-123 86.5016,-87 169.1555,-87 169.1555,-123"/>
<text text-anchor="middle" x="127.8285" y="-100.8" font-family="Times,serif" font-size="14.00" fill="#000000">Product List</text>
</a>
</g>
</g>
<!-- Cart&#45;&gt;ProductList -->
<g id="edge3" class="edge goProductList">
<title>Cart&#45;&gt;ProductList</title>
<g id="a_edge3"><a xlink:href="#goProductList" xlink:title="&lt;TABLE&gt;" target="_parent">
<path fill="none" stroke="#000000" stroke-width="1.5" d="M156.8439,-352.5399C108.0165,-335.888 35.4354,-302.2138 5.8285,-243 -17.4516,-196.4396 38.2048,-153.2935 81.8226,-128.0459"/>
<polygon fill="#000000" stroke="#000000" stroke-width="1.5" points="83.6372,-131.041 90.6364,-123.0873 80.2049,-124.9402 83.6372,-131.041"/>
</a>
</g>
<g id="a_edge3&#45;label"><a xlink:href="#goProductList" xlink:title="&lt;TABLE&gt;" target="_parent">
<g id="a_edge3_3"><a xlink:href="#goProductList" xlink:title="View product list (safe)" target="_parent">
<text text-anchor="start" x="5.7081" y="-231.8" font-family="Times,serif" font-size="13.00" fill="#00a86b">■</text>
<text text-anchor="start" x="15.4581" y="-231.8" font-family="Times,serif" font-size="13.00" fill="#000000"> View product list</text>
</a>
</g>
</a>
</g>
</g>
<!-- Payment -->
<g id="node5" class="node">
<title>Payment</title>
<g id="a_node5"><a xlink:href="#Payment" xlink:title="Payment" target="_parent">
<polygon fill="#d3d3d3" stroke="#000000" stroke-width="2" points="172.3215,-210 79.3355,-210 79.3355,-174 172.3215,-174 172.3215,-210"/>
<text text-anchor="middle" x="125.8285" y="-187.8" font-family="Times,serif" font-size="14.00" fill="#000000">Payment</text>
</a>
</g>
</g>
<!-- Checkout&#45;&gt;Payment -->
<g id="edge4" class="edge goPayment">
<title>Checkout&#45;&gt;Payment</title>
<g id="a_edge4"><a xlink:href="#goPayment" xlink:title="&lt;TABLE&gt;" target="_parent">
<path fill="none" stroke="#000000" stroke-width="1.5" d="M125.8285,-260.9735C125.8285,-249.1918 125.8285,-233.5607 125.8285,-220.1581"/>
<polygon fill="#000000" stroke="#000000" stroke-width="1.5" points="129.3286,-220.0033 125.8285,-210.0034 122.3286,-220.0034 129.3286,-220.0033"/>
</a>
</g>
<g id="a_edge4&#45;label"><a xlink:href="#goPayment" xlink:title="&lt;TABLE&gt;" target="_parent">
<g id="a_edge4_4"><a xlink:href="#goPayment" xlink:title="Proceed to payment (safe)" target="_parent">
<text text-anchor="start" x="126.214" y="-231.8" font-family="Times,serif" font-size="13.00" fill="#00a86b">■</text>
<text text-anchor="start" x="135.964" y="-231.8" font-family="Times,serif" font-size="13.00" fill="#000000"> Proceed to payment</text>
</a>
</g>
</a>
</g>
</g>
<!-- ProductDetail -->
<g id="node3" class="node">
<title>ProductDetail</title>
<g id="a_node3"><a xlink:href="#ProductDetail" xlink:title="Product Detail" target="_parent">
<polygon fill="#d3d3d3" stroke="#000000" stroke-width="2" points="314.5849,-36 219.0722,-36 219.0722,0 314.5849,0 314.5849,-36"/>
<text text-anchor="middle" x="266.8285" y="-13.8" font-family="Times,serif" font-size="14.00" fill="#000000">Product Detail</text>
</a>
</g>
</g>
<!-- ProductDetail&#45;&gt;Cart -->
<g id="edge6" class="edge doAddToCart">
<title>ProductDetail&#45;&gt;Cart</title>
<g id="a_edge6"><a xlink:href="#doAddToCart" xlink:title="&lt;TABLE&gt;" target="_parent">
<path fill="none" stroke="#000000" stroke-width="1.5" d="M314.5014,-27.2891C345.2109,-34.0565 381.6017,-43.7926 393.8285,-54 413.2069,-70.1776 418.8285,-79.7565 418.8285,-105 418.8285,-279 418.8285,-279 418.8285,-279 418.8285,-312.8339 325.8708,-339.8608 262.4878,-354.3565"/>
<polygon fill="#000000" stroke="#000000" stroke-width="1.5" points="261.5808,-350.9728 252.588,-356.5745 263.1113,-357.8035 261.5808,-350.9728"/>
</a>
</g>
<g id="a_edge6&#45;label"><a xlink:href="#doAddToCart" xlink:title="&lt;TABLE&gt;" target="_parent">
<g id="a_edge6_5"><a xlink:href="#doAddToCart" xlink:title="Add product to cart (unsafe)" target="_parent">
<text text-anchor="start" x="418.953" y="-188.3" font-family="Times,serif" font-size="13.00" fill="#ff4136">■</text>
<text text-anchor="start" x="428.703" y="-188.3" font-family="Times,serif" font-size="13.00" fill="#000000"> Add product to cart</text>
</a>
</g>
</a>
</g>
</g>
<!-- ProductDetail&#45;&gt;ProductList -->
<g id="edge7" class="edge goProductList">
<title>ProductDetail&#45;&gt;ProductList</title>
<g id="a_edge7"><a xlink:href="#goProductList" xlink:title="&lt;TABLE&gt;" target="_parent">
<path fill="none" stroke="#000000" stroke-width="1.5" d="M218.8465,-24.3073C183.6277,-30.0261 140.0572,-39.7571 128.8285,-54 123.8726,-60.2863 122.2918,-68.4915 122.3205,-76.477"/>
<polygon fill="#000000" stroke="#000000" stroke-width="1.5" points="118.8495,-76.9795 123.1369,-86.6681 125.8271,-76.4205 118.8495,-76.9795"/>
</a>
</g>
<g id="a_edge7&#45;label"><a xlink:href="#goProductList" xlink:title="&lt;TABLE&gt;" target="_parent">
<g id="a_edge7_6"><a xlink:href="#goProductList" xlink:title="View product list (safe)" target="_parent">
<text text-anchor="start" x="128.7081" y="-57.8" font-family="Times,serif" font-size="13.00" fill="#00a86b">■</text>
<text text-anchor="start" x="138.4581" y="-57.8" font-family="Times,serif" font-size="13.00" fill="#000000"> View product list</text>
</a>
</g>
</a>
</g>
</g>
<!-- ProductList&#45;&gt;Cart -->
<g id="edge8" class="edge goCart">
<title>ProductList&#45;&gt;Cart</title>
<g id="a_edge8"><a xlink:href="#goCart" xlink:title="&lt;TABLE&gt;" target="_parent">
<path fill="none" stroke="#000000" stroke-width="1.5" d="M169.2335,-111.7806C201.0909,-117.9116 241.3835,-127.969 251.8285,-141 287.4309,-185.4166 266.0538,-324.202 262.8285,-330 260.4682,-334.2431 257.3779,-338.05 253.8517,-341.4519"/>
<polygon fill="#000000" stroke="#000000" stroke-width="1.5" points="251.5649,-338.8013 246.0958,-347.8754 256.0299,-344.1924 251.5649,-338.8013"/>
</a>
</g>
<g id="a_edge8&#45;label"><a xlink:href="#goCart" xlink:title="&lt;TABLE&gt;" target="_parent">
<g id="a_edge8_7"><a xlink:href="#goCart" xlink:title="View shopping cart (safe)" target="_parent">
<text text-anchor="start" x="272.9355" y="-231.8" font-family="Times,serif" font-size="13.00" fill="#00a86b">■</text>
<text text-anchor="start" x="282.6855" y="-231.8" font-family="Times,serif" font-size="13.00" fill="#000000"> View shopping cart</text>
</a>
</g>
</a>
</g>
</g>
<!-- ProductList&#45;&gt;ProductDetail -->
<g id="edge9" class="edge goProductDetail">
<title>ProductList&#45;&gt;ProductDetail</title>
<g id="a_edge9"><a xlink:href="#goProductDetail" xlink:title="&lt;TABLE&gt;" target="_parent">
<path fill="none" stroke="#000000" stroke-width="1.5" d="M169.1774,-96.1516C198.0879,-89.2592 233.4761,-79.1804 244.8285,-69 251.6397,-62.8921 256.424,-54.3067 259.7483,-45.919"/>
<polygon fill="#000000" stroke="#000000" stroke-width="1.5" points="263.1053,-46.9182 263.014,-36.3237 256.4786,-44.6627 263.1053,-46.9182"/>
</a>
</g>
<g id="a_edge9&#45;label"><a xlink:href="#goProductDetail" xlink:title="&lt;TABLE&gt;" target="_parent">
<g id="a_edge9_8"><a xlink:href="#goProductDetail" xlink:title="View product details (safe)" target="_parent">
<text text-anchor="start" x="255.6874" y="-57.8" font-family="Times,serif" font-size="13.00" fill="#00a86b">■</text>
<text text-anchor="start" x="265.4374" y="-57.8" font-family="Times,serif" font-size="13.00" fill="#000000"> View product details</text>
</a>
</g>
</a>
</g>
</g>
<!-- ProductList&#45;&gt;ProductList -->
<g id="edge10" class="edge goProductList">
<title>ProductList&#45;&gt;ProductList</title>
<g id="a_edge10"><a xlink:href="#goProductList" xlink:title="&lt;TABLE&gt;" target="_parent">
<path fill="none" stroke="#000000" stroke-width="1.5" d="M169.1995,-112.7669C179.5246,-112.2237 187.2419,-109.6348 187.2419,-105 187.2419,-102.1033 184.2273,-100.0057 179.4456,-98.7073"/>
<polygon fill="#000000" stroke="#000000" stroke-width="1.5" points="179.5961,-95.1929 169.1995,-97.2331 178.5992,-102.1216 179.5961,-95.1929"/>
</a>
</g>
<g id="a_edge10&#45;label"><a xlink:href="#goProductList" xlink:title="&lt;TABLE&gt;" target="_parent">
<g id="a_edge10_9"><a xlink:href="#goProductList" xlink:title="View product list (safe)" target="_parent">
<text text-anchor="start" x="187.1215" y="-101.3" font-family="Times,serif" font-size="13.00" fill="#00a86b">■</text>
<text text-anchor="start" x="196.8715" y="-101.3" font-family="Times,serif" font-size="13.00" fill="#000000"> View product list</text>
</a>
</g>
</a>
</g>
</g>
<!-- Payment&#45;&gt;ProductList -->
<g id="edge5" class="edge doPayment">
<title>Payment&#45;&gt;ProductList</title>
<g id="a_edge5"><a xlink:href="#doPayment" xlink:title="&lt;TABLE&gt;" target="_parent">
<path fill="none" stroke="#000000" stroke-width="1.5" d="M126.2429,-173.9735C126.5138,-162.1918 126.8731,-146.5607 127.1812,-133.1581"/>
<polygon fill="#000000" stroke="#000000" stroke-width="1.5" points="130.6838,-133.0812 127.4147,-123.0034 123.6857,-132.9202 130.6838,-133.0812"/>
</a>
</g>
<g id="a_edge5&#45;label"><a xlink:href="#doPayment" xlink:title="&lt;TABLE&gt;" target="_parent">
<g id="a_edge5_10"><a xlink:href="#doPayment" xlink:title="Complete payment (idempotent)" target="_parent">
<text text-anchor="start" x="127.7178" y="-144.8" font-family="Times,serif" font-size="13.00" fill="#ffdc00">■</text>
<text text-anchor="start" x="137.4678" y="-144.8" font-family="Times,serif" font-size="13.00" fill="#000000"> Complete payment</text>
</a>
</g>
</a>
</g>
</g>
</g>
</svg>
