<?xml version="1.0" encoding="UTF-8" standalone="no"?>
<!DOCTYPE svg PUBLIC "-//W3C//DTD SVG 1.1//EN"
 "http://www.w3.org/Graphics/SVG/1.1/DTD/svg11.dtd">
<!-- Generated by graphviz version 7.1.0 (20230121.1956)
 -->
<!-- Title: application_state_diagram Pages: 1 -->
<svg width="446pt" height="281pt"
 viewBox="0.00 0.00 445.82 281.00" xmlns="http://www.w3.org/2000/svg" xmlns:xlink="http://www.w3.org/1999/xlink">
<g id="graph0" class="graph" transform="scale(1 1) rotate(0) translate(4 277)">
<title>application_state_diagram</title>
<g id="a_graph0"><a xlink:href="index.html" xlink:title="ALPS Blog" target="_parent">
<polygon fill="white" stroke="none" points="-4,4 -4,-277 441.82,-277 441.82,4 -4,4"/>
<text text-anchor="middle" x="218.91" y="-257.8" font-family="Helvetica,sans-Serif" font-size="14.00">ALPS Blog</text>
</a>
</g>
<!-- Blog -->
<g id="node1" class="node">
<title>Blog</title>
<g id="a_node1"><a xlink:href="docs/semantic.Blog.html" xlink:title="&lt;TABLE&gt;" target="_parent">
<polygon fill="lightgray" stroke="black" stroke-width="2" points="231.32,-164 140.32,-164 140.32,-122 231.32,-122 231.32,-164"/>
<text text-anchor="start" x="146.82" y="-146.8" font-family="Times,serif" font-size="14.00">Blog Post List</text>
<text text-anchor="start" x="154.82" y="-131.8" font-family="Times,serif" font-size="14.00">(Blog Post)</text>
</a>
</g>
</g>
<!-- Blog&#45;&gt;Blog -->
<g id="edge3" class="edge">
<title>Blog&#45;&gt;Blog</title>
<g id="a_edge3"><a xlink:href="docs/unsafe.doPost.html" xlink:title="&lt;b&gt;&lt;u&gt;Post the article&lt;/u&gt;&lt;/b&gt;" target="_parent">
<path fill="none" stroke="black" d="M231.77,-151.39C241.93,-150.6 249.32,-147.81 249.32,-143 249.32,-140.22 246.85,-138.11 242.8,-136.68"/>
<polygon fill="black" stroke="black" points="243.74,-133.29 233.26,-134.89 242.44,-140.17 243.74,-133.29"/>
</a>
</g>
<g id="a_edge3&#45;label"><a xlink:href="docs/unsafe.doPost.html" xlink:title="&lt;b&gt;&lt;u&gt;Post the article&lt;/u&gt;&lt;/b&gt;" target="_parent">
<text text-anchor="start" x="249.32" y="-140.6" font-family="Times,serif" font-weight="bold" text-decoration="underline" font-size="13.00">Post the article</text>
</a>
</g>
</g>
<!-- BlogPosting -->
<g id="node2" class="node">
<title>BlogPosting</title>
<g id="a_node2"><a xlink:href="docs/semantic.BlogPosting.html" xlink:title="&lt;TABLE&gt;" target="_parent">
<polygon fill="lightgray" stroke="black" stroke-width="2" points="104.82,-72 18.82,-72 18.82,0 104.82,0 104.82,-72"/>
<text text-anchor="start" x="34.82" y="-54.8" font-family="Times,serif" font-size="14.00">Blog Post</text>
<text text-anchor="start" x="32.32" y="-39.8" font-family="Times,serif" font-size="14.00">(identifier)</text>
<text text-anchor="start" x="27.82" y="-24.8" font-family="Times,serif" font-size="14.00">(create date)</text>
<text text-anchor="start" x="24.82" y="-9.8" font-family="Times,serif" font-size="14.00">(article body)</text>
</a>
</g>
</g>
<!-- Blog&#45;&gt;BlogPosting -->
<g id="edge4" class="edge">
<title>Blog&#45;&gt;BlogPosting</title>
<g id="a_edge4"><a xlink:href="docs/safe.goBlogPosting.html" xlink:title="See the blog post" target="_parent">
<path fill="none" stroke="black" d="M140.24,-138.84C92.31,-134.47 21.57,-124.63 4.82,-104 -3.92,-93.23 0.72,-81.67 10.34,-71.23"/>
<polygon fill="black" stroke="black" points="12.57,-73.95 17.44,-64.54 7.76,-68.85 12.57,-73.95"/>
</a>
</g>
<g id="a_edge4&#45;label"><a xlink:href="docs/safe.goBlogPosting.html" xlink:title="See the blog post" target="_parent">
<text text-anchor="start" x="4.82" y="-93.6" font-family="Times,serif" font-size="13.00">See the blog post</text>
</a>
</g>
</g>
<!-- About -->
<g id="node3" class="node">
<title>About</title>
<g id="a_node3"><a xlink:href="docs/semantic.About.html" xlink:title="About Us" target="_parent">
<polygon fill="lightgray" stroke="black" stroke-width="2" points="333.32,-54 264.32,-54 264.32,-18 333.32,-18 333.32,-54"/>
<text text-anchor="start" x="272.32" y="-32.3" font-family="Times,serif" font-size="14.00">About Us</text>
</a>
</g>
</g>
<!-- Blog&#45;&gt;About -->
<g id="edge2" class="edge">
<title>Blog&#45;&gt;About</title>
<g id="a_edge2"><a xlink:href="docs/safe.goAbout.html" xlink:title="Go to About" target="_parent">
<path fill="none" stroke="black" d="M211.5,-121.52C218.22,-115.96 225.39,-109.85 231.82,-104 246.5,-90.65 262.22,-75.02 274.74,-62.21"/>
<polygon fill="black" stroke="black" points="276.95,-64.95 281.4,-55.33 271.93,-60.07 276.95,-64.95"/>
</a>
</g>
<g id="a_edge2&#45;label"><a xlink:href="docs/safe.goAbout.html" xlink:title="Go to About" target="_parent">
<text text-anchor="start" x="245.82" y="-93.6" font-family="Times,serif" font-size="13.00">Go to About</text>
</a>
</g>
</g>
<!-- BlogPosting&#45;&gt;Blog -->
<g id="edge5" class="edge">
<title>BlogPosting&#45;&gt;Blog</title>
<g id="a_edge5"><a xlink:href="docs/safe.goBlog.html" xlink:title="See the blog post list" target="_parent">
<path fill="none" stroke="black" d="M86.1,-72.39C94.68,-83.34 104.92,-94.91 115.82,-104 120.86,-108.2 126.43,-112.14 132.17,-115.79"/>
<polygon fill="black" stroke="black" points="130.23,-118.71 140.61,-120.85 133.83,-112.7 130.23,-118.71"/>
</a>
</g>
<g id="a_edge5&#45;label"><a xlink:href="docs/safe.goBlog.html" xlink:title="See the blog post list" target="_parent">
<text text-anchor="start" x="115.82" y="-93.6" font-family="Times,serif" font-size="13.00">See the blog post list</text>
</a>
</g>
</g>
<!-- About&#45;&gt;Blog -->
<g id="edge1" class="edge">
<title>About&#45;&gt;Blog</title>
<g id="a_edge1"><a xlink:href="docs/safe.goBlog.html" xlink:title="See the blog post list" target="_parent">
<path fill="none" stroke="black" d="M313.12,-54.39C323.16,-68.83 332.98,-89.31 321.82,-104 311.94,-117.03 275.42,-126.8 242.71,-133.17"/>
<polygon fill="black" stroke="black" points="242.49,-129.65 233.29,-134.92 243.77,-136.53 242.49,-129.65"/>
</a>
</g>
<g id="a_edge1&#45;label"><a xlink:href="docs/safe.goBlog.html" xlink:title="See the blog post list" target="_parent">
<text text-anchor="start" x="325.82" y="-93.6" font-family="Times,serif" font-size="13.00">See the blog post list</text>
</a>
</g>
</g>
<!-- Index -->
<g id="node4" class="node">
<title>Index</title>
<g id="a_node4"><a xlink:href="docs/semantic.Index.html" xlink:title="Home" target="_parent">
<polygon fill="lightgray" stroke="black" stroke-width="2" points="212.82,-250 158.82,-250 158.82,-214 212.82,-214 212.82,-250"/>
<text text-anchor="start" x="168.82" y="-228.3" font-family="Times,serif" font-size="14.00">Home</text>
</a>
</g>
</g>
<!-- Index&#45;&gt;Blog -->
<g id="edge6" class="edge">
<title>Index&#45;&gt;Blog</title>
<g id="a_edge6"><a xlink:href="docs/safe.goBlog.html" xlink:title="See the blog post list" target="_parent">
<path fill="none" stroke="black" d="M185.82,-213.81C185.82,-202.89 185.82,-188.43 185.82,-175.5"/>
<polygon fill="black" stroke="black" points="189.32,-175.72 185.82,-165.72 182.32,-175.72 189.32,-175.72"/>
</a>
</g>
<g id="a_edge6&#45;label"><a xlink:href="docs/safe.goBlog.html" xlink:title="See the blog post list" target="_parent">
<text text-anchor="start" x="185.82" y="-185.6" font-family="Times,serif" font-size="13.00">See the blog post list</text>
</a>
</g>
</g>
</g>
</svg>
