<?xml version="1.0" encoding="UTF-8" standalone="no"?>
<!DOCTYPE svg PUBLIC "-//W3C//DTD SVG 1.1//EN"
 "http://www.w3.org/Graphics/SVG/1.1/DTD/svg11.dtd">
<!-- Generated by graphviz version 2.47.1 (20210417.1919)
 -->
<!-- Title: application_state_diagram Pages: 1 -->
<svg width="555pt" height="281pt"
 viewBox="0.00 0.00 555.48 281.00" xmlns="http://www.w3.org/2000/svg" xmlns:xlink="http://www.w3.org/1999/xlink">
<g id="graph0" class="graph" transform="scale(1 1) rotate(0) translate(4 277)">
<title>application_state_diagram</title>
<g id="a_graph0"><a xlink:href="index.html" xlink:title="ALPS Blog" target="_parent">
<polygon fill="white" stroke="transparent" points="-4,4 -4,-277 551.48,-277 551.48,4 -4,4"/>
<text text-anchor="middle" x="273.74" y="-257.8" font-family="Helvetica,sans-Serif" font-size="14.00">ALPS Blog</text>
</a>
</g>
<!-- Blog -->
<g id="node1" class="node">
<title>Blog</title>
<g id="a_node1"><a xlink:href="docs/semantic.Blog.html" xlink:title="&lt;TABLE&gt;" target="_parent">
<polygon fill="lightgray" stroke="black" stroke-width="2" points="293.48,-164 205.48,-164 205.48,-122 293.48,-122 293.48,-164"/>
<text text-anchor="start" x="235.98" y="-146.8" font-family="Times,serif" font-size="14.00">Blog</text>
<text text-anchor="start" x="211.48" y="-131.8" font-family="Times,serif" font-size="14.00">(BlogPosting)</text>
</a>
</g>
</g>
<!-- Blog&#45;&gt;Blog -->
<g id="edge3" class="edge">
<title>Blog&#45;&gt;Blog</title>
<g id="a_edge3"><a xlink:href="docs/unsafe.doPost.html" xlink:title="doPost, collection (unsafe)" target="_parent">
<path fill="none" stroke="black" d="M293.5,-151.45C303.85,-150.76 311.48,-147.94 311.48,-143 311.48,-139.91 308.5,-137.65 303.73,-136.22"/>
<polygon fill="black" stroke="black" points="303.94,-132.71 293.5,-134.55 302.8,-139.62 303.94,-132.71"/>
</a>
</g>
<g id="a_edge3&#45;label"><a xlink:href="docs/unsafe.doPost.html" xlink:title="doPost, collection (unsafe)" target="_parent">
<text text-anchor="start" x="311.48" y="-139.6" font-family="Times,serif" font-size="13.00">doPost, collection (unsafe)</text>
</a>
</g>
</g>
<!-- BlogPosting -->
<g id="node2" class="node">
<title>BlogPosting</title>
<g id="a_node2"><a xlink:href="docs/semantic.BlogPosting.html" xlink:title="&lt;TABLE&gt;" target="_parent">
<polygon fill="lightgray" stroke="black" stroke-width="2" points="131.48,-72 45.48,-72 45.48,0 131.48,0 131.48,-72"/>
<text text-anchor="start" x="54.98" y="-54.8" font-family="Times,serif" font-size="14.00">BlogPosting</text>
<text text-anchor="start" x="78.48" y="-39.8" font-family="Times,serif" font-size="14.00">(id)</text>
<text text-anchor="start" x="51.48" y="-24.8" font-family="Times,serif" font-size="14.00">(dateCreated)</text>
<text text-anchor="start" x="51.98" y="-9.8" font-family="Times,serif" font-size="14.00">(articleBody)</text>
</a>
</g>
</g>
<!-- Blog&#45;&gt;BlogPosting -->
<g id="edge4" class="edge">
<title>Blog&#45;&gt;BlogPosting</title>
<g id="a_edge4"><a xlink:href="docs/safe.goBlogPosting.html" xlink:title="goBlogPosting, item (safe)" target="_parent">
<path fill="none" stroke="black" d="M205.42,-141.71C142.24,-140.26 30.71,-133.47 5.48,-104 -10.08,-85.83 11.18,-68.95 36.07,-56.67"/>
<polygon fill="black" stroke="black" points="37.75,-59.75 45.34,-52.36 34.8,-53.4 37.75,-59.75"/>
</a>
</g>
<g id="a_edge4&#45;label"><a xlink:href="docs/safe.goBlogPosting.html" xlink:title="goBlogPosting, item (safe)" target="_parent">
<text text-anchor="start" x="5.48" y="-93.6" font-family="Times,serif" font-size="13.00">goBlogPosting, item (safe)</text>
</a>
</g>
</g>
<!-- About -->
<g id="node3" class="node">
<title>About</title>
<g id="a_node3"><a xlink:href="docs/semantic.About.html" xlink:title="About" target="_parent">
<polygon fill="lightgray" stroke="black" stroke-width="2" points="406.48,-54 352.48,-54 352.48,-18 406.48,-18 406.48,-54"/>
<text text-anchor="middle" x="379.48" y="-32.3" font-family="Times,serif" font-size="14.00">About</text>
</a>
</g>
</g>
<!-- Blog&#45;&gt;About -->
<g id="edge2" class="edge">
<title>Blog&#45;&gt;About</title>
<g id="a_edge2"><a xlink:href="docs/safe.goAbout.html" xlink:title="goAbout (safe)" target="_parent">
<path fill="none" stroke="black" d="M280.84,-121.85C289.02,-116.29 297.72,-110.1 305.48,-104 322.49,-90.63 340.52,-74.36 354.52,-61.2"/>
<polygon fill="black" stroke="black" points="357,-63.67 361.85,-54.25 352.18,-58.59 357,-63.67"/>
</a>
</g>
<g id="a_edge2&#45;label"><a xlink:href="docs/safe.goAbout.html" xlink:title="goAbout (safe)" target="_parent">
<text text-anchor="start" x="321.48" y="-93.6" font-family="Times,serif" font-size="13.00">goAbout (safe)</text>
</a>
</g>
</g>
<!-- BlogPosting&#45;&gt;Blog -->
<g id="edge5" class="edge">
<title>BlogPosting&#45;&gt;Blog</title>
<g id="a_edge5"><a xlink:href="docs/safe.goBlog.html" xlink:title="goBlog, collection (safe)" target="_parent">
<path fill="none" stroke="black" d="M128.66,-72.29C144.13,-85.52 160.08,-98.64 168.48,-104 177.02,-109.45 186.47,-114.59 195.81,-119.23"/>
<polygon fill="black" stroke="black" points="194.55,-122.5 205.08,-123.69 197.58,-116.2 194.55,-122.5"/>
</a>
</g>
<g id="a_edge5&#45;label"><a xlink:href="docs/safe.goBlog.html" xlink:title="goBlog, collection (safe)" target="_parent">
<text text-anchor="start" x="168.48" y="-93.6" font-family="Times,serif" font-size="13.00">goBlog, collection (safe)</text>
</a>
</g>
</g>
<!-- About&#45;&gt;Blog -->
<g id="edge1" class="edge">
<title>About&#45;&gt;Blog</title>
<g id="a_edge1"><a xlink:href="docs/safe.goBlog.html" xlink:title="goBlog, collection (safe)" target="_parent">
<path fill="none" stroke="black" d="M397.16,-54.19C409.71,-68.51 422.41,-88.93 410.48,-104 397.22,-120.75 345.02,-130.86 303.6,-136.4"/>
<polygon fill="black" stroke="black" points="303.08,-132.94 293.61,-137.67 303.97,-139.88 303.08,-132.94"/>
</a>
</g>
<g id="a_edge1&#45;label"><a xlink:href="docs/safe.goBlog.html" xlink:title="goBlog, collection (safe)" target="_parent">
<text text-anchor="start" x="414.48" y="-93.6" font-family="Times,serif" font-size="13.00">goBlog, collection (safe)</text>
</a>
</g>
</g>
<!-- Index -->
<g id="node4" class="node">
<title>Index</title>
<g id="a_node4"><a xlink:href="docs/semantic.Index.html" xlink:title="Index" target="_parent">
<polygon fill="lightgray" stroke="black" stroke-width="2" points="276.48,-250 222.48,-250 222.48,-214 276.48,-214 276.48,-250"/>
<text text-anchor="middle" x="249.48" y="-228.3" font-family="Times,serif" font-size="14.00">Index</text>
</a>
</g>
</g>
<!-- Index&#45;&gt;Blog -->
<g id="edge6" class="edge">
<title>Index&#45;&gt;Blog</title>
<g id="a_edge6"><a xlink:href="docs/safe.goBlog.html" xlink:title="goBlog, collection (safe)" target="_parent">
<path fill="none" stroke="black" d="M249.48,-213.81C249.48,-202.56 249.48,-187.54 249.48,-174.32"/>
<polygon fill="black" stroke="black" points="252.98,-174.21 249.48,-164.21 245.98,-174.21 252.98,-174.21"/>
</a>
</g>
<g id="a_edge6&#45;label"><a xlink:href="docs/safe.goBlog.html" xlink:title="goBlog, collection (safe)" target="_parent">
<text text-anchor="start" x="249.48" y="-185.6" font-family="Times,serif" font-size="13.00">goBlog, collection (safe)</text>
</a>
</g>
</g>
</g>
</svg>
