<?xml version="1.0" encoding="UTF-8" standalone="no"?>
<!DOCTYPE svg PUBLIC "-//W3C//DTD SVG 1.1//EN"
 "http://www.w3.org/Graphics/SVG/1.1/DTD/svg11.dtd">
<!-- Generated by graphviz version 2.40.1 (20161225.0304)
 -->
<!-- Title: application_state_diagram Pages: 1 -->
<svg width="489pt" height="244pt"
 viewBox="0.00 0.00 488.94 244.00" xmlns="http://www.w3.org/2000/svg" xmlns:xlink="http://www.w3.org/1999/xlink">
<g id="graph0" class="graph" transform="scale(1 1) rotate(0) translate(4 240)">
<title>application_state_diagram</title>
<g id="a_graph0"><a xlink:href="index.html" xlink:title="ALPS Blog" target="_parent">
<polygon fill="#ffffff" stroke="transparent" points="-4,4 -4,-240 484.9388,-240 484.9388,4 -4,4"/>
<text text-anchor="middle" x="240.4694" y="-219.4" font-family="Helvetica,sans-Serif" font-size="14.00" fill="#000000">ALPS Blog</text>
</a>
</g>
<!-- Blog -->
<g id="node1" class="node">
<title>Blog</title>
<g id="a_node1"><a xlink:href="#Blog" xlink:title="Blog Post List" target="_parent">
<polygon fill="#d3d3d3" stroke="#000000" stroke-width="2" points="243.4251,-123.6 161.1781,-123.6 161.1781,-87.6 243.4251,-87.6 243.4251,-123.6"/>
<text text-anchor="start" x="162.2399" y="-101.4" font-family="Times,serif" font-size="14.00" fill="#000000">Blog Post List</text>
</a>
</g>
</g>
<!-- Blog&#45;&gt;Blog -->
<g id="edge3" class="edge doPost">
<title>Blog&#45;&gt;Blog</title>
<g id="a_edge3"><a xlink:href="#doPost" xlink:title="&lt;b&gt;&lt;u&gt;Post&amp;nbsp;the&amp;nbsp;article&lt;/u&gt;&lt;/b&gt;" target="_parent">
<path fill="none" stroke="#000000" stroke-width="1.5" d="M243.4277,-113.3669C253.6916,-112.8237 261.3633,-110.2348 261.3633,-105.6 261.3633,-102.7033 258.3665,-100.6057 253.6131,-99.3073"/>
<polygon fill="#000000" stroke="#000000" stroke-width="1.5" points="253.8259,-95.8017 243.4277,-97.8331 252.8232,-102.7295 253.8259,-95.8017"/>
</a>
</g>
<g id="a_edge3&#45;label"><a xlink:href="#doPost" xlink:title="&lt;b&gt;&lt;u&gt;Post&amp;nbsp;the&amp;nbsp;article&lt;/u&gt;&lt;/b&gt;" target="_parent">
<text text-anchor="start" x="261.3633" y="-102.7" font-family="Times,serif" font-weight="bold" text-decoration="underline" font-size="13.00" fill="#000000">Post the article</text>
</a>
</g>
</g>
<!-- BlogPosting -->
<g id="node2" class="node">
<title>BlogPosting</title>
<g id="a_node2"><a xlink:href="#BlogPosting" xlink:title="Blog Post" target="_parent">
<polygon fill="#d3d3d3" stroke="#000000" stroke-width="2" points="94.6468,-36 37.9564,-36 37.9564,0 94.6468,0 94.6468,-36"/>
<text text-anchor="start" x="38.8791" y="-13.8" font-family="Times,serif" font-size="14.00" fill="#000000">Blog Post</text>
</a>
</g>
</g>
<!-- Blog&#45;&gt;BlogPosting -->
<g id="edge4" class="edge goBlogPosting">
<title>Blog&#45;&gt;BlogPosting</title>
<g id="a_edge4"><a xlink:href="#goBlogPosting" xlink:title="See&amp;nbsp;the&amp;nbsp;blog&amp;nbsp;post" target="_parent">
<path fill="none" stroke="#000000" stroke-width="1.5" d="M161.2275,-104.1231C109.1457,-101.2868 23.7419,-93.0887 4.1359,-69.6 -7.7357,-55.3775 9.1914,-42.0951 28.3603,-32.5689"/>
<polygon fill="#000000" stroke="#000000" stroke-width="1.5" points="29.9178,-35.7049 37.5308,-28.3366 26.9845,-29.3491 29.9178,-35.7049"/>
</a>
</g>
<g id="a_edge4&#45;label"><a xlink:href="#goBlogPosting" xlink:title="See&amp;nbsp;the&amp;nbsp;blog&amp;nbsp;post" target="_parent">
<text text-anchor="start" x="4.3016" y="-57.9" font-family="Times,serif" font-size="13.00" fill="#000000">See the blog post</text>
</a>
</g>
</g>
<!-- About -->
<g id="node3" class="node">
<title>About</title>
<g id="a_node3"><a xlink:href="#About" xlink:title="About Us" target="_parent">
<polygon fill="#d3d3d3" stroke="#000000" stroke-width="2" points="360.35,-36 290.2531,-36 290.2531,0 360.35,0 360.35,-36"/>
<text text-anchor="start" x="298.2774" y="-13.8" font-family="Times,serif" font-size="14.00" fill="#000000">About Us</text>
</a>
</g>
</g>
<!-- Blog&#45;&gt;About -->
<g id="edge2" class="edge goAbout">
<title>Blog&#45;&gt;About</title>
<g id="a_edge2"><a xlink:href="#goAbout" xlink:title="Go&amp;nbsp;to&amp;nbsp;About" target="_parent">
<path fill="none" stroke="#000000" stroke-width="1.5" d="M229.8352,-87.5218C238.1199,-81.9159 247.168,-75.6253 255.3016,-69.6 264.178,-63.0244 265.8453,-60.6696 274.6514,-54 279.8436,-50.0674 285.404,-45.9874 290.87,-42.0483"/>
<polygon fill="#000000" stroke="#000000" stroke-width="1.5" points="293.2126,-44.6762 299.3154,-36.0156 289.1438,-38.9802 293.2126,-44.6762"/>
</a>
</g>
<g id="a_edge2&#45;label"><a xlink:href="#goAbout" xlink:title="Go&amp;nbsp;to&amp;nbsp;About" target="_parent">
<text text-anchor="start" x="275.3016" y="-57.9" font-family="Times,serif" font-size="13.00" fill="#000000">Go to About</text>
</a>
</g>
</g>
<!-- BlogPosting&#45;&gt;Blog -->
<g id="edge5" class="edge goBlog">
<title>BlogPosting&#45;&gt;Blog</title>
<g id="a_edge5"><a xlink:href="#goBlog" xlink:title="See&amp;nbsp;the&amp;nbsp;blog&amp;nbsp;post&amp;nbsp;list" target="_parent">
<path fill="none" stroke="#000000" stroke-width="1.5" d="M86.5104,-36.0527C101.9917,-49.7992 121.4023,-66.8237 125.6644,-69.6 133.8005,-74.8998 142.8402,-79.8614 151.7756,-84.3065"/>
<polygon fill="#000000" stroke="#000000" stroke-width="1.5" points="150.4781,-87.5661 161.0072,-88.7443 153.5109,-81.2572 150.4781,-87.5661"/>
</a>
</g>
<g id="a_edge5&#45;label"><a xlink:href="#goBlog" xlink:title="See&amp;nbsp;the&amp;nbsp;blog&amp;nbsp;post&amp;nbsp;list" target="_parent">
<text text-anchor="start" x="126.3016" y="-57.9" font-family="Times,serif" font-size="13.00" fill="#000000">See the blog post list</text>
</a>
</g>
</g>
<!-- About&#45;&gt;Blog -->
<g id="edge1" class="edge goBlog">
<title>About&#45;&gt;Blog</title>
<g id="a_edge1"><a xlink:href="#goBlog" xlink:title="See&amp;nbsp;the&amp;nbsp;blog&amp;nbsp;post&amp;nbsp;list" target="_parent">
<path fill="none" stroke="#000000" stroke-width="1.5" d="M344.8109,-36.1778C353.564,-46.5371 360.314,-59.4371 352.3016,-69.6 340.0489,-85.1412 291.9495,-94.7366 253.4768,-100.0717"/>
<polygon fill="#000000" stroke="#000000" stroke-width="1.5" points="252.8807,-96.6199 243.426,-101.401 253.7986,-103.5595 252.8807,-96.6199"/>
</a>
</g>
<g id="a_edge1&#45;label"><a xlink:href="#goBlog" xlink:title="See&amp;nbsp;the&amp;nbsp;blog&amp;nbsp;post&amp;nbsp;list" target="_parent">
<text text-anchor="start" x="355.3016" y="-57.9" font-family="Times,serif" font-size="13.00" fill="#000000">See the blog post list</text>
</a>
</g>
</g>
<!-- Index -->
<g id="node4" class="node">
<title>Index</title>
<g id="a_node4"><a xlink:href="#Index" xlink:title="Home" target="_parent">
<polygon fill="#d3d3d3" stroke="#000000" stroke-width="2" points="229.3016,-211.2 175.3016,-211.2 175.3016,-175.2 229.3016,-175.2 229.3016,-211.2"/>
<text text-anchor="start" x="185.1957" y="-189" font-family="Times,serif" font-size="14.00" fill="#000000">Home</text>
</a>
</g>
</g>
<!-- Index&#45;&gt;Blog -->
<g id="edge6" class="edge goBlog">
<title>Index&#45;&gt;Blog</title>
<g id="a_edge6"><a xlink:href="#goBlog" xlink:title="See&amp;nbsp;the&amp;nbsp;blog&amp;nbsp;post&amp;nbsp;list" target="_parent">
<path fill="none" stroke="#000000" stroke-width="1.5" d="M202.3016,-175.0492C202.3016,-163.1862 202.3016,-147.4473 202.3016,-133.9523"/>
<polygon fill="#000000" stroke="#000000" stroke-width="1.5" points="205.8017,-133.7275 202.3016,-123.7275 198.8017,-133.7276 205.8017,-133.7275"/>
</a>
</g>
<g id="a_edge6&#45;label"><a xlink:href="#goBlog" xlink:title="See&amp;nbsp;the&amp;nbsp;blog&amp;nbsp;post&amp;nbsp;list" target="_parent">
<text text-anchor="start" x="202.3016" y="-145.5" font-family="Times,serif" font-size="13.00" fill="#000000">See the blog post list</text>
</a>
</g>
</g>
</g>
</svg>
