<?xml version="1.0" encoding="UTF-8" standalone="no"?>
<!DOCTYPE svg PUBLIC "-//W3C//DTD SVG 1.1//EN"
 "http://www.w3.org/Graphics/SVG/1.1/DTD/svg11.dtd">
<!-- Generated by graphviz version 8.1.0 (20230707.0739)
 -->
<!-- Title: application_state_diagram Pages: 1 -->
<svg width="555pt" height="294pt"
 viewBox="0.00 0.00 554.56 293.76" xmlns="http://www.w3.org/2000/svg" xmlns:xlink="http://www.w3.org/1999/xlink">
<g id="graph0" class="graph" transform="scale(1 1) rotate(0) translate(4 289.76)">
<title>application_state_diagram</title>
<g id="a_graph0"><a xlink:href="index.html" xlink:title="ALPS Blog" target="_parent">
<polygon fill="white" stroke="none" points="-4,4 -4,-289.76 550.56,-289.76 550.56,4 -4,4"/>
<text text-anchor="middle" x="273.28" y="-268.46" font-family="Helvetica,sans-Serif" font-size="14.00">ALPS Blog</text>
</a>
</g>
<!-- Blog -->
<g id="node1" class="node">
<title>Blog</title>
<g id="a_node1"><a xlink:href="docs/semantic.Blog.html" xlink:title="&lt;TABLE&gt;" target="_parent">
<polygon fill="lightgray" stroke="black" stroke-width="2" points="293.13,-175.76 204.5,-175.76 204.5,-129.88 293.13,-129.88 293.13,-175.76"/>
<text text-anchor="start" x="235.69" y="-156.02" font-family="Times,serif" font-size="14.00">Blog</text>
<text text-anchor="start" x="210.94" y="-139.52" font-family="Times,serif" font-size="14.00">(BlogPosting)</text>
</a>
</g>
</g>
<!-- Blog&#45;&gt;Blog -->
<g id="edge3" class="edge">
<title>Blog&#45;&gt;Blog</title>
<g id="a_edge3"><a xlink:href="docs/unsafe.doPost.html" xlink:title="doPost, collection (unsafe)" target="_parent">
<path fill="none" stroke="black" d="M293.63,-161.68C303.73,-160.88 311.13,-157.93 311.13,-152.82 311.13,-149.79 308.52,-147.51 304.29,-146"/>
<polygon fill="black" stroke="black" points="305.1,-142.4 294.63,-143.96 303.79,-149.28 305.1,-142.4"/>
</a>
</g>
<g id="a_edge3&#45;label"><a xlink:href="docs/unsafe.doPost.html" xlink:title="doPost, collection (unsafe)" target="_parent">
<text text-anchor="start" x="311.13" y="-147.97" font-family="Times,serif" font-size="13.00">doPost, collection (unsafe)</text>
</a>
</g>
</g>
<!-- BlogPosting -->
<g id="node2" class="node">
<title>BlogPosting</title>
<g id="a_node2"><a xlink:href="docs/semantic.BlogPosting.html" xlink:title="&lt;TABLE&gt;" target="_parent">
<polygon fill="lightgray" stroke="black" stroke-width="2" points="131,-78.88 44.62,-78.88 44.62,0 131,0 131,-78.88"/>
<text text-anchor="start" x="54.44" y="-59.14" font-family="Times,serif" font-size="14.00">BlogPosting</text>
<text text-anchor="start" x="78.06" y="-42.64" font-family="Times,serif" font-size="14.00">(id)</text>
<text text-anchor="start" x="51.06" y="-26.14" font-family="Times,serif" font-size="14.00">(dateCreated)</text>
<text text-anchor="start" x="51.81" y="-9.64" font-family="Times,serif" font-size="14.00">(articleBody)</text>
</a>
</g>
</g>
<!-- Blog&#45;&gt;BlogPosting -->
<g id="edge4" class="edge">
<title>Blog&#45;&gt;BlogPosting</title>
<g id="a_edge4"><a xlink:href="docs/safe.goBlogPosting.html" xlink:title="goBlogPosting, item (safe)" target="_parent">
<path fill="none" stroke="black" d="M204.08,-151.12C140.93,-149.08 30.53,-141.28 5.56,-111.88 -10.07,-93.47 10.35,-75.65 34.76,-62.42"/>
<polygon fill="black" stroke="black" points="35.92,-65.24 43.24,-57.58 32.74,-59.01 35.92,-65.24"/>
</a>
</g>
<g id="a_edge4&#45;label"><a xlink:href="docs/safe.goBlogPosting.html" xlink:title="goBlogPosting, item (safe)" target="_parent">
<text text-anchor="start" x="5.81" y="-99.53" font-family="Times,serif" font-size="13.00">goBlogPosting, item (safe)</text>
</a>
</g>
</g>
<!-- About -->
<g id="node3" class="node">
<title>About</title>
<g id="a_node3"><a xlink:href="docs/semantic.About.html" xlink:title="About" target="_parent">
<polygon fill="lightgray" stroke="black" stroke-width="2" points="405.81,-57.44 351.81,-57.44 351.81,-21.44 405.81,-21.44 405.81,-57.44"/>
<text text-anchor="middle" x="378.81" y="-34.39" font-family="Times,serif" font-size="14.00">About</text>
</a>
</g>
</g>
<!-- Blog&#45;&gt;About -->
<g id="edge2" class="edge">
<title>Blog&#45;&gt;About</title>
<g id="a_edge2"><a xlink:href="docs/safe.goAbout.html" xlink:title="goAbout (safe)" target="_parent">
<path fill="none" stroke="black" d="M282,-129.38C289.65,-123.87 297.65,-117.84 304.81,-111.88 322.31,-97.33 340.72,-79.57 354.8,-65.4"/>
<polygon fill="black" stroke="black" points="356.62,-68.52 361.14,-58.94 351.63,-63.61 356.62,-68.52"/>
</a>
</g>
<g id="a_edge2&#45;label"><a xlink:href="docs/safe.goAbout.html" xlink:title="goAbout (safe)" target="_parent">
<text text-anchor="start" x="321.81" y="-99.53" font-family="Times,serif" font-size="13.00">goAbout (safe)</text>
</a>
</g>
</g>
<!-- BlogPosting&#45;&gt;Blog -->
<g id="edge5" class="edge">
<title>BlogPosting&#45;&gt;Blog</title>
<g id="a_edge5"><a xlink:href="docs/safe.goBlog.html" xlink:title="goBlog, collection (safe)" target="_parent">
<path fill="none" stroke="black" d="M129.32,-79.2C144.41,-92.9 159.79,-106.3 168.06,-111.88 176.25,-117.4 185.32,-122.63 194.32,-127.38"/>
<polygon fill="black" stroke="black" points="192.53,-130.9 203.03,-132.32 195.71,-124.66 192.53,-130.9"/>
</a>
</g>
<g id="a_edge5&#45;label"><a xlink:href="docs/safe.goBlog.html" xlink:title="goBlog, collection (safe)" target="_parent">
<text text-anchor="start" x="168.81" y="-99.53" font-family="Times,serif" font-size="13.00">goBlog, collection (safe)</text>
</a>
</g>
</g>
<!-- About&#45;&gt;Blog -->
<g id="edge1" class="edge">
<title>About&#45;&gt;Blog</title>
<g id="a_edge1"><a xlink:href="docs/safe.goBlog.html" xlink:title="goBlog, collection (safe)" target="_parent">
<path fill="none" stroke="black" d="M395.38,-57.65C408.12,-73.02 421.56,-95.55 408.81,-111.88 395.87,-128.45 345.11,-139.15 304.19,-145.27"/>
<polygon fill="black" stroke="black" points="303.89,-141.92 294.49,-146.8 304.88,-148.85 303.89,-141.92"/>
</a>
</g>
<g id="a_edge1&#45;label"><a xlink:href="docs/safe.goBlog.html" xlink:title="goBlog, collection (safe)" target="_parent">
<text text-anchor="start" x="413.81" y="-99.53" font-family="Times,serif" font-size="13.00">goBlog, collection (safe)</text>
</a>
</g>
</g>
<!-- Index -->
<g id="node4" class="node">
<title>Index</title>
<g id="a_node4"><a xlink:href="docs/semantic.Index.html" xlink:title="Index" target="_parent">
<polygon fill="lightgray" stroke="black" stroke-width="2" points="275.81,-262.76 221.81,-262.76 221.81,-226.76 275.81,-226.76 275.81,-262.76"/>
<text text-anchor="middle" x="248.81" y="-239.71" font-family="Times,serif" font-size="14.00">Index</text>
</a>
</g>
</g>
<!-- Index&#45;&gt;Blog -->
<g id="edge6" class="edge">
<title>Index&#45;&gt;Blog</title>
<g id="a_edge6"><a xlink:href="docs/safe.goBlog.html" xlink:title="goBlog, collection (safe)" target="_parent">
<path fill="none" stroke="black" d="M248.81,-226.42C248.81,-215.25 248.81,-200.38 248.81,-187"/>
<polygon fill="black" stroke="black" points="252.31,-187.23 248.81,-177.23 245.31,-187.23 252.31,-187.23"/>
</a>
</g>
<g id="a_edge6&#45;label"><a xlink:href="docs/safe.goBlog.html" xlink:title="goBlog, collection (safe)" target="_parent">
<text text-anchor="start" x="248.81" y="-196.41" font-family="Times,serif" font-size="13.00">goBlog, collection (safe)</text>
</a>
</g>
</g>
</g>
</svg>
