<?xml version="1.0" encoding="UTF-8" standalone="no"?>
<!DOCTYPE svg PUBLIC "-//W3C//DTD SVG 1.1//EN"
 "http://www.w3.org/Graphics/SVG/1.1/DTD/svg11.dtd">
<!-- Generated by graphviz version 2.40.1 (20161225.0304)
 -->
<!-- Title: application_state_diagram Pages: 1 -->
<svg width="540pt" height="296pt"
 viewBox="0.00 0.00 540.13 296.00" xmlns="http://www.w3.org/2000/svg" xmlns:xlink="http://www.w3.org/1999/xlink">
<g id="graph0" class="graph" transform="scale(1 1) rotate(0) translate(4 292)">
<title>application_state_diagram</title>
<g id="a_graph0"><a xlink:href="index.html" xlink:title="ALPS Blog" target="_parent">
<polygon fill="#ffffff" stroke="transparent" points="-4,4 -4,-292 536.1326,-292 536.1326,4 -4,4"/>
<text text-anchor="middle" x="266.0663" y="-271.4" font-family="Helvetica,sans-Serif" font-size="14.00" fill="#000000">ALPS Blog</text>
</a>
</g>
<!-- Blog -->
<g id="node1" class="node">
<title>Blog</title>
<g id="a_node1"><a xlink:href="#Blog" xlink:title="&lt;TABLE&gt;" target="_parent">
<polygon fill="#d3d3d3" stroke="#000000" stroke-width="2" points="288.2571,-175.6 198.2571,-175.6 198.2571,-130.6 288.2571,-130.6 288.2571,-175.6"/>
<text text-anchor="start" x="229.6435" y="-156.5" font-family="Times,serif" font-size="14.00" fill="#000000">Blog</text>
<text text-anchor="start" x="203.9787" y="-139.7" font-family="Times,serif" font-size="14.00" fill="#000000">(BlogPosting)</text>
</a>
</g>
</g>
<!-- Blog&#45;&gt;Blog -->
<g id="edge3" class="edge doPost">
<title>Blog&#45;&gt;Blog</title>
<g id="a_edge3"><a xlink:href="#doPost" xlink:title="doPost, collection (unsafe)" target="_parent">
<path fill="none" stroke="#000000" stroke-width="1.5" d="M288.2775,-161.9017C298.6429,-161.1433 306.2571,-158.2094 306.2571,-153.1 306.2571,-149.8268 303.1322,-147.4464 298.161,-145.9589"/>
<polygon fill="#000000" stroke="#000000" stroke-width="1.5" points="298.7193,-142.5037 288.2775,-144.2983 297.5594,-149.4069 298.7193,-142.5037"/>
</a>
</g>
<g id="a_edge3&#45;label"><a xlink:href="#doPost" xlink:title="doPost, collection (unsafe)" target="_parent">
<text text-anchor="start" x="306.2571" y="-149.2" font-family="Times,serif" font-size="13.00" fill="#000000">doPost, collection (unsafe)</text>
</a>
</g>
</g>
<!-- BlogPosting -->
<g id="node2" class="node">
<title>BlogPosting</title>
<g id="a_node2"><a xlink:href="#BlogPosting" xlink:title="&lt;TABLE&gt;" target="_parent">
<polygon fill="#d3d3d3" stroke="#000000" stroke-width="2" points="130.2571,-79 42.2571,-79 42.2571,0 130.2571,0 130.2571,-79"/>
<text text-anchor="start" x="51.6393" y="-59.9" font-family="Times,serif" font-size="14.00" fill="#000000">BlogPosting</text>
<text text-anchor="start" x="76.1512" y="-43.1" font-family="Times,serif" font-size="14.00" fill="#000000">(id)</text>
<text text-anchor="start" x="48.1708" y="-26.3" font-family="Times,serif" font-size="14.00" fill="#000000">(dateCreated)</text>
<text text-anchor="start" x="48.9401" y="-9.5" font-family="Times,serif" font-size="14.00" fill="#000000">(articleBody)</text>
</a>
</g>
</g>
<!-- Blog&#45;&gt;BlogPosting -->
<g id="edge4" class="edge goBlogPosting">
<title>Blog&#45;&gt;BlogPosting</title>
<g id="a_edge4"><a xlink:href="#goBlogPosting" xlink:title="goBlogPosting, item (safe)" target="_parent">
<path fill="none" stroke="#000000" stroke-width="1.5" d="M198.229,-148.5533C132.7873,-141.4859 17.8149,-127.1573 5.5279,-112.6 -9.8955,-94.3268 9.6223,-76.2679 33.3222,-62.6711"/>
<polygon fill="#000000" stroke="#000000" stroke-width="1.5" points="35.059,-65.7109 42.186,-57.8715 31.7259,-59.5554 35.059,-65.7109"/>
</a>
</g>
<g id="a_edge4&#45;label"><a xlink:href="#goBlogPosting" xlink:title="goBlogPosting, item (safe)" target="_parent">
<text text-anchor="start" x="6.2571" y="-100.9" font-family="Times,serif" font-size="13.00" fill="#000000">goBlogPosting, item (safe)</text>
</a>
</g>
</g>
<!-- About -->
<g id="node3" class="node">
<title>About</title>
<g id="a_node3"><a xlink:href="#About" xlink:title="About" target="_parent">
<polygon fill="#d3d3d3" stroke="#000000" stroke-width="2" points="396.2571,-57.5 342.2571,-57.5 342.2571,-21.5 396.2571,-21.5 396.2571,-57.5"/>
<text text-anchor="middle" x="369.2571" y="-35.3" font-family="Times,serif" font-size="14.00" fill="#000000">About</text>
</a>
</g>
</g>
<!-- Blog&#45;&gt;About -->
<g id="edge2" class="edge goAbout">
<title>Blog&#45;&gt;About</title>
<g id="a_edge2"><a xlink:href="#goAbout" xlink:title="goAbout (safe)" target="_parent">
<path fill="none" stroke="#000000" stroke-width="1.5" d="M275.0066,-130.5271C282.4753,-124.8812 290.2863,-118.6922 297.2571,-112.6 314.2326,-97.7641 332.0212,-79.7307 345.6698,-65.2875"/>
<polygon fill="#000000" stroke="#000000" stroke-width="1.5" points="348.5162,-67.3683 352.795,-57.6759 343.4059,-62.5845 348.5162,-67.3683"/>
</a>
</g>
<g id="a_edge2&#45;label"><a xlink:href="#goAbout" xlink:title="goAbout (safe)" target="_parent">
<text text-anchor="start" x="314.2571" y="-100.9" font-family="Times,serif" font-size="13.00" fill="#000000">goAbout (safe)</text>
</a>
</g>
</g>
<!-- BlogPosting&#45;&gt;Blog -->
<g id="edge5" class="edge goBlog">
<title>BlogPosting&#45;&gt;Blog</title>
<g id="a_edge5"><a xlink:href="#goBlog" xlink:title="goBlog, collection (safe)" target="_parent">
<path fill="none" stroke="#000000" stroke-width="1.5" d="M126.5871,-79.1514C141.2735,-93.1717 156.255,-106.8805 164.3816,-112.6 172.1361,-118.0577 180.7258,-123.2338 189.2997,-127.948"/>
<polygon fill="#000000" stroke="#000000" stroke-width="1.5" points="187.7219,-131.0731 198.1933,-132.6858 191.0132,-124.895 187.7219,-131.0731"/>
</a>
</g>
<g id="a_edge5&#45;label"><a xlink:href="#goBlog" xlink:title="goBlog, collection (safe)" target="_parent">
<text text-anchor="start" x="165.2571" y="-100.9" font-family="Times,serif" font-size="13.00" fill="#000000">goBlog, collection (safe)</text>
</a>
</g>
</g>
<!-- About&#45;&gt;Blog -->
<g id="edge1" class="edge goBlog">
<title>About&#45;&gt;Blog</title>
<g id="a_edge1"><a xlink:href="#goBlog" xlink:title="goBlog, collection (safe)" target="_parent">
<path fill="none" stroke="#000000" stroke-width="1.5" d="M386.0071,-57.7585C398.3397,-73.4841 410.9418,-96.1751 398.2571,-112.6 385.9415,-128.547 337.9169,-139.4159 298.5484,-145.8467"/>
<polygon fill="#000000" stroke="#000000" stroke-width="1.5" points="297.8295,-142.4167 288.4935,-147.4257 298.9155,-149.3319 297.8295,-142.4167"/>
</a>
</g>
<g id="a_edge1&#45;label"><a xlink:href="#goBlog" xlink:title="goBlog, collection (safe)" target="_parent">
<text text-anchor="start" x="403.2571" y="-100.9" font-family="Times,serif" font-size="13.00" fill="#000000">goBlog, collection (safe)</text>
</a>
</g>
</g>
<!-- Index -->
<g id="node4" class="node">
<title>Index</title>
<g id="a_node4"><a xlink:href="#Index" xlink:title="Index" target="_parent">
<polygon fill="#d3d3d3" stroke="#000000" stroke-width="2" points="270.2571,-263.2 216.2571,-263.2 216.2571,-227.2 270.2571,-227.2 270.2571,-263.2"/>
<text text-anchor="middle" x="243.2571" y="-241" font-family="Times,serif" font-size="14.00" fill="#000000">Index</text>
</a>
</g>
</g>
<!-- Index&#45;&gt;Blog -->
<g id="edge6" class="edge goBlog">
<title>Index&#45;&gt;Blog</title>
<g id="a_edge6"><a xlink:href="#goBlog" xlink:title="goBlog, collection (safe)" target="_parent">
<path fill="none" stroke="#000000" stroke-width="1.5" d="M243.2571,-227.004C243.2571,-215.307 243.2571,-199.7696 243.2571,-185.9603"/>
<polygon fill="#000000" stroke="#000000" stroke-width="1.5" points="246.7572,-185.8293 243.2571,-175.8294 239.7572,-185.8294 246.7572,-185.8293"/>
</a>
</g>
<g id="a_edge6&#45;label"><a xlink:href="#goBlog" xlink:title="goBlog, collection (safe)" target="_parent">
<text text-anchor="start" x="243.2571" y="-197.5" font-family="Times,serif" font-size="13.00" fill="#000000">goBlog, collection (safe)</text>
</a>
</g>
</g>
</g>
</svg>
