<?xml version="1.0" encoding="UTF-8" standalone="no"?>
<!DOCTYPE svg PUBLIC "-//W3C//DTD SVG 1.1//EN"
 "http://www.w3.org/Graphics/SVG/1.1/DTD/svg11.dtd">
<!-- Generated by graphviz version 2.40.1 (20161225.0304)
 -->
<!-- Title: application_state_diagram Pages: 1 -->
<svg width="554pt" height="243pt"
 viewBox="0.00 0.00 554.38 242.80" xmlns="http://www.w3.org/2000/svg" xmlns:xlink="http://www.w3.org/1999/xlink">
<g id="graph0" class="graph" transform="scale(1 1) rotate(0) translate(4 238.8)">
<title>application_state_diagram</title>
<g id="a_graph0"><a xlink:href="index.html" xlink:title="ALPS Blog" target="_parent">
<polygon fill="#ffffff" stroke="transparent" points="-4,4 -4,-238.8 550.3831,-238.8 550.3831,4 -4,4"/>
<text text-anchor="middle" x="273.1915" y="-218.2" font-family="Helvetica,sans-Serif" font-size="14.00" fill="#000000">ALPS Blog</text>
</a>
</g>
<!-- Blog -->
<g id="node1" class="node">
<title>Blog</title>
<g id="a_node1"><a xlink:href="#Blog" xlink:title="Blog Post List" target="_parent">
<polygon fill="#d3d3d3" stroke="#000000" stroke-width="2" points="274.5066,-123 180.2596,-123 180.2596,-87 274.5066,-87 274.5066,-123"/>
<text text-anchor="middle" x="227.3831" y="-100.8" font-family="Times,serif" font-size="14.00" fill="#000000">Blog Post List</text>
</a>
</g>
</g>
<!-- Blog&#45;&gt;Blog -->
<g id="edge3" class="edge doPost">
<title>Blog&#45;&gt;Blog</title>
<g id="a_edge3"><a xlink:href="#doPost" xlink:title="&lt;TABLE&gt;" target="_parent">
<path fill="none" stroke="#000000" stroke-width="1.5" d="M274.4632,-112.663C284.8674,-111.943 292.4448,-109.3887 292.4448,-105 292.4448,-102.1885 289.335,-100.1298 284.3645,-98.8239"/>
<polygon fill="#000000" stroke="#000000" stroke-width="1.5" points="284.8721,-95.361 274.4632,-97.337 283.8325,-102.2834 284.8721,-95.361"/>
</a>
</g>
<g id="a_edge3&#45;label"><a xlink:href="#doPost" xlink:title="&lt;TABLE&gt;" target="_parent">
<g id="a_edge3_0"><a xlink:href="#doPost" xlink:title="Post the article (unsafe)" target="_parent">
<text text-anchor="start" x="292.825" y="-101.3" font-family="Times,serif" font-size="13.00" fill="#ff4136">■</text>
<text text-anchor="start" x="302.575" y="-101.3" font-family="Times,serif" font-size="13.00" fill="#000000"> Post the article</text>
</a>
</g>
</a>
</g>
</g>
<!-- BlogPosting -->
<g id="node2" class="node">
<title>BlogPosting</title>
<g id="a_node2"><a xlink:href="#BlogPosting" xlink:title="Blog Post" target="_parent">
<polygon fill="#d3d3d3" stroke="#000000" stroke-width="2" points="108.7283,-36 40.0379,-36 40.0379,0 108.7283,0 108.7283,-36"/>
<text text-anchor="middle" x="74.3831" y="-13.8" font-family="Times,serif" font-size="14.00" fill="#000000">Blog Post</text>
</a>
</g>
</g>
<!-- Blog&#45;&gt;BlogPosting -->
<g id="edge4" class="edge goBlogPosting">
<title>Blog&#45;&gt;BlogPosting</title>
<g id="a_edge4"><a xlink:href="#goBlogPosting" xlink:title="&lt;TABLE&gt;" target="_parent">
<path fill="none" stroke="#000000" stroke-width="1.5" d="M180.2578,-100.6321C118.2194,-94.3983 15.6494,-82.231 4.3831,-69 -8.1845,-54.2409 9.659,-41.4129 30.4708,-32.3141"/>
<polygon fill="#000000" stroke="#000000" stroke-width="1.5" points="31.8637,-35.5261 39.8162,-28.5255 29.2338,-29.0389 31.8637,-35.5261"/>
</a>
</g>
<g id="a_edge4&#45;label"><a xlink:href="#goBlogPosting" xlink:title="&lt;TABLE&gt;" target="_parent">
<g id="a_edge4_1"><a xlink:href="#goBlogPosting" xlink:title="See the blog post (safe)" target="_parent">
<text text-anchor="start" x="4.6364" y="-57.8" font-family="Times,serif" font-size="13.00" fill="#00a86b">■</text>
<text text-anchor="start" x="14.3864" y="-57.8" font-family="Times,serif" font-size="13.00" fill="#000000"> See the blog post</text>
</a>
</g>
</a>
</g>
</g>
<!-- About -->
<g id="node3" class="node">
<title>About</title>
<g id="a_node3"><a xlink:href="#About" xlink:title="About Us" target="_parent">
<polygon fill="#d3d3d3" stroke="#000000" stroke-width="2" points="415.4315,-36 317.3347,-36 317.3347,0 415.4315,0 415.4315,-36"/>
<text text-anchor="start" x="339.3589" y="-13.8" font-family="Times,serif" font-size="14.00" fill="#000000">About Us</text>
</a>
</g>
</g>
<!-- Blog&#45;&gt;About -->
<g id="edge2" class="edge goAbout">
<title>Blog&#45;&gt;About</title>
<g id="a_edge2"><a xlink:href="#goAbout" xlink:title="&lt;TABLE&gt;" target="_parent">
<path fill="none" stroke="#000000" stroke-width="1.5" d="M259.8652,-86.9256C269.2312,-81.4221 279.3548,-75.1862 288.3831,-69 297.2584,-62.9187 298.5528,-60.1464 307.3831,-54 313.4091,-49.8056 319.925,-45.5596 326.3524,-41.5263"/>
<polygon fill="#000000" stroke="#000000" stroke-width="1.5" points="328.3372,-44.4143 335.0079,-36.1831 324.6601,-38.4579 328.3372,-44.4143"/>
</a>
</g>
<g id="a_edge2&#45;label"><a xlink:href="#goAbout" xlink:title="&lt;TABLE&gt;" target="_parent">
<g id="a_edge2_2"><a xlink:href="#goAbout" xlink:title="Go to About (safe)" target="_parent">
<text text-anchor="start" x="306.8941" y="-57.8" font-family="Times,serif" font-size="13.00" fill="#00a86b">■</text>
<text text-anchor="start" x="316.6441" y="-57.8" font-family="Times,serif" font-size="13.00" fill="#000000"> Go to About</text>
</a>
</g>
</a>
</g>
</g>
<!-- BlogPosting&#45;&gt;Blog -->
<g id="edge5" class="edge goBlog">
<title>BlogPosting&#45;&gt;Blog</title>
<g id="a_edge5"><a xlink:href="#goBlog" xlink:title="&lt;TABLE&gt;" target="_parent">
<path fill="none" stroke="#000000" stroke-width="1.5" d="M99.4347,-36.1482C107.1563,-41.8108 115.6575,-48.1153 123.3831,-54 131.9418,-60.5193 133.1246,-63.5197 142.3831,-69 151.2664,-74.2582 161.0609,-79.1496 170.7454,-83.5257"/>
<polygon fill="#000000" stroke="#000000" stroke-width="1.5" points="169.3992,-86.757 179.9636,-87.5587 172.205,-80.3439 169.3992,-86.757"/>
</a>
</g>
<g id="a_edge5&#45;label"><a xlink:href="#goBlog" xlink:title="&lt;TABLE&gt;" target="_parent">
<g id="a_edge5_3"><a xlink:href="#goBlog" xlink:title="See the blog post list (safe)" target="_parent">
<text text-anchor="start" x="141.9006" y="-57.8" font-family="Times,serif" font-size="13.00" fill="#00a86b">■</text>
<text text-anchor="start" x="151.6506" y="-57.8" font-family="Times,serif" font-size="13.00" fill="#000000"> See the blog post list</text>
</a>
</g>
</a>
</g>
</g>
<!-- About&#45;&gt;Blog -->
<g id="edge1" class="edge goBlog">
<title>About&#45;&gt;Blog</title>
<g id="a_edge1"><a xlink:href="#goBlog" xlink:title="&lt;TABLE&gt;" target="_parent">
<path fill="none" stroke="#000000" stroke-width="1.5" d="M391.1565,-36.2194C401.7129,-46.1877 409.8589,-58.5911 401.3831,-69 386.791,-86.9201 329.6774,-96.1955 284.8138,-100.8068"/>
<polygon fill="#000000" stroke="#000000" stroke-width="1.5" points="284.1934,-97.3505 274.5788,-101.8013 284.8705,-104.3177 284.1934,-97.3505"/>
</a>
</g>
<g id="a_edge1&#45;label"><a xlink:href="#goBlog" xlink:title="&lt;TABLE&gt;" target="_parent">
<g id="a_edge1_4"><a xlink:href="#goBlog" xlink:title="See the blog post list (safe)" target="_parent">
<text text-anchor="start" x="403.9006" y="-57.8" font-family="Times,serif" font-size="13.00" fill="#00a86b">■</text>
<text text-anchor="start" x="413.6506" y="-57.8" font-family="Times,serif" font-size="13.00" fill="#000000"> See the blog post list</text>
</a>
</g>
</a>
</g>
</g>
<!-- Index -->
<g id="node4" class="node">
<title>Index</title>
<g id="a_node4"><a xlink:href="#Index" xlink:title="Home" target="_parent">
<polygon fill="#d3d3d3" stroke="#000000" stroke-width="2" points="266.5952,-210 188.171,-210 188.171,-174 266.5952,-174 266.5952,-210"/>
<text text-anchor="start" x="210.2772" y="-187.8" font-family="Times,serif" font-size="14.00" fill="#000000">Home</text>
</a>
</g>
</g>
<!-- Index&#45;&gt;Blog -->
<g id="edge6" class="edge goBlog">
<title>Index&#45;&gt;Blog</title>
<g id="a_edge6"><a xlink:href="#goBlog" xlink:title="&lt;TABLE&gt;" target="_parent">
<path fill="none" stroke="#000000" stroke-width="1.5" d="M227.3831,-173.9735C227.3831,-162.1918 227.3831,-146.5607 227.3831,-133.1581"/>
<polygon fill="#000000" stroke="#000000" stroke-width="1.5" points="230.8832,-133.0033 227.3831,-123.0034 223.8832,-133.0034 230.8832,-133.0033"/>
</a>
</g>
<g id="a_edge6&#45;label"><a xlink:href="#goBlog" xlink:title="&lt;TABLE&gt;" target="_parent">
<g id="a_edge6_5"><a xlink:href="#goBlog" xlink:title="See the blog post list (safe)" target="_parent">
<text text-anchor="start" x="226.9006" y="-144.8" font-family="Times,serif" font-size="13.00" fill="#00a86b">■</text>
<text text-anchor="start" x="236.6506" y="-144.8" font-family="Times,serif" font-size="13.00" fill="#000000"> See the blog post list</text>
</a>
</g>
</a>
</g>
</g>
</g>
</svg>
