<?xml version="1.0" encoding="UTF-8" standalone="no"?>
<!DOCTYPE svg PUBLIC "-//W3C//DTD SVG 1.1//EN"
 "http://www.w3.org/Graphics/SVG/1.1/DTD/svg11.dtd">
<!-- Generated by graphviz version 8.1.0 (20230707.0739)
 -->
<!-- Title: application_state_diagram Pages: 1 -->
<svg width="444pt" height="294pt"
 viewBox="0.00 0.00 443.55 293.76" xmlns="http://www.w3.org/2000/svg" xmlns:xlink="http://www.w3.org/1999/xlink">
<g id="graph0" class="graph" transform="scale(1 1) rotate(0) translate(4 289.76)">
<title>application_state_diagram</title>
<g id="a_graph0"><a xlink:href="index.html" xlink:title="ALPS Blog" target="_parent">
<polygon fill="white" stroke="none" points="-4,4 -4,-289.76 439.55,-289.76 439.55,4 -4,4"/>
<text text-anchor="middle" x="217.78" y="-268.46" font-family="Helvetica,sans-Serif" font-size="14.00">ALPS Blog</text>
</a>
</g>
<!-- Blog -->
<g id="node1" class="node">
<title>Blog</title>
<g id="a_node1"><a xlink:href="docs/semantic.Blog.html" xlink:title="&lt;TABLE&gt;" target="_parent">
<polygon fill="lightgray" stroke="black" stroke-width="2" points="230.99,-175.76 140.11,-175.76 140.11,-129.88 230.99,-129.88 230.99,-175.76"/>
<text text-anchor="start" x="146.55" y="-156.02" font-family="Times,serif" font-size="14.00">Blog Post List</text>
<text text-anchor="start" x="154.43" y="-139.52" font-family="Times,serif" font-size="14.00">(Blog Post)</text>
</a>
</g>
</g>
<!-- Blog&#45;&gt;Blog -->
<g id="edge3" class="edge">
<title>Blog&#45;&gt;Blog</title>
<g id="a_edge3"><a xlink:href="docs/unsafe.doPost.html" xlink:title="&lt;b&gt;&lt;u&gt;Post the article&lt;/u&gt;&lt;/b&gt;" target="_parent">
<path fill="none" stroke="black" d="M231.46,-161.66C241.61,-160.83 248.99,-157.88 248.99,-152.82 248.99,-149.81 246.39,-147.56 242.15,-146.04"/>
<polygon fill="black" stroke="black" points="242.94,-142.44 232.46,-143.98 241.62,-149.31 242.94,-142.44"/>
</a>
</g>
<g id="a_edge3&#45;label"><a xlink:href="docs/unsafe.doPost.html" xlink:title="&lt;b&gt;&lt;u&gt;Post the article&lt;/u&gt;&lt;/b&gt;" target="_parent">
<text text-anchor="start" x="248.99" y="-148.97" font-family="Times,serif" font-weight="bold" text-decoration="underline" font-size="13.00">Post the article</text>
</a>
</g>
</g>
<!-- BlogPosting -->
<g id="node2" class="node">
<title>BlogPosting</title>
<g id="a_node2"><a xlink:href="docs/semantic.BlogPosting.html" xlink:title="&lt;TABLE&gt;" target="_parent">
<polygon fill="lightgray" stroke="black" stroke-width="2" points="104.74,-78.88 18.36,-78.88 18.36,0 104.74,0 104.74,-78.88"/>
<text text-anchor="start" x="34.93" y="-59.14" font-family="Times,serif" font-size="14.00">Blog Post</text>
<text text-anchor="start" x="32.3" y="-42.64" font-family="Times,serif" font-size="14.00">(identifier)</text>
<text text-anchor="start" x="27.8" y="-26.14" font-family="Times,serif" font-size="14.00">(create date)</text>
<text text-anchor="start" x="24.8" y="-9.64" font-family="Times,serif" font-size="14.00">(article body)</text>
</a>
</g>
</g>
<!-- Blog&#45;&gt;BlogPosting -->
<g id="edge4" class="edge">
<title>Blog&#45;&gt;BlogPosting</title>
<g id="a_edge4"><a xlink:href="docs/safe.goBlogPosting.html" xlink:title="See the blog post" target="_parent">
<path fill="none" stroke="black" d="M139.63,-148.09C91.82,-143.15 21.63,-132.53 5.05,-111.88 -4.04,-100.56 0.66,-88.17 10.43,-76.93"/>
<polygon fill="black" stroke="black" points="12.36,-79.95 16.89,-70.37 7.37,-75.03 12.36,-79.95"/>
</a>
</g>
<g id="a_edge4&#45;label"><a xlink:href="docs/safe.goBlogPosting.html" xlink:title="See the blog post" target="_parent">
<text text-anchor="start" x="5.55" y="-99.53" font-family="Times,serif" font-size="13.00">See the blog post</text>
</a>
</g>
</g>
<!-- About -->
<g id="node3" class="node">
<title>About</title>
<g id="a_node3"><a xlink:href="docs/semantic.About.html" xlink:title="About Us" target="_parent">
<polygon fill="lightgray" stroke="black" stroke-width="2" points="330.8,-57.44 262.3,-57.44 262.3,-21.44 330.8,-21.44 330.8,-57.44"/>
<text text-anchor="start" x="270.3" y="-34.39" font-family="Times,serif" font-size="14.00">About Us</text>
</a>
</g>
</g>
<!-- Blog&#45;&gt;About -->
<g id="edge2" class="edge">
<title>Blog&#45;&gt;About</title>
<g id="a_edge2"><a xlink:href="docs/safe.goAbout.html" xlink:title="Go to About" target="_parent">
<path fill="none" stroke="black" d="M211.65,-129.44C217.95,-123.82 224.59,-117.73 230.55,-111.88 245.53,-97.2 261.51,-79.94 274,-66.07"/>
<polygon fill="black" stroke="black" points="276.23,-68.71 280.28,-58.92 271.01,-64.05 276.23,-68.71"/>
</a>
</g>
<g id="a_edge2&#45;label"><a xlink:href="docs/safe.goAbout.html" xlink:title="Go to About" target="_parent">
<text text-anchor="start" x="244.55" y="-99.53" font-family="Times,serif" font-size="13.00">Go to About</text>
</a>
</g>
</g>
<!-- BlogPosting&#45;&gt;Blog -->
<g id="edge5" class="edge">
<title>BlogPosting&#45;&gt;Blog</title>
<g id="a_edge5"><a xlink:href="docs/safe.goBlog.html" xlink:title="See the blog post list" target="_parent">
<path fill="none" stroke="black" d="M86.42,-79.21C94.81,-90.56 104.81,-102.44 115.55,-111.88 120.27,-116.02 125.48,-119.94 130.86,-123.58"/>
<polygon fill="black" stroke="black" points="128.73,-127.01 139.04,-129.45 132.5,-121.11 128.73,-127.01"/>
</a>
</g>
<g id="a_edge5&#45;label"><a xlink:href="docs/safe.goBlog.html" xlink:title="See the blog post list" target="_parent">
<text text-anchor="start" x="115.55" y="-99.53" font-family="Times,serif" font-size="13.00">See the blog post list</text>
</a>
</g>
</g>
<!-- About&#45;&gt;Blog -->
<g id="edge1" class="edge">
<title>About&#45;&gt;Blog</title>
<g id="a_edge1"><a xlink:href="docs/safe.goBlog.html" xlink:title="See the blog post list" target="_parent">
<path fill="none" stroke="black" d="M310.31,-57.76C320.79,-73.21 331.55,-95.79 319.55,-111.88 301.67,-135.87 269.95,-146.02 241.85,-150.09"/>
<polygon fill="black" stroke="black" points="241.81,-146.69 232.3,-151.37 242.65,-153.64 241.81,-146.69"/>
</a>
</g>
<g id="a_edge1&#45;label"><a xlink:href="docs/safe.goBlog.html" xlink:title="See the blog post list" target="_parent">
<text text-anchor="start" x="324.55" y="-99.53" font-family="Times,serif" font-size="13.00">See the blog post list</text>
</a>
</g>
</g>
<!-- Index -->
<g id="node4" class="node">
<title>Index</title>
<g id="a_node4"><a xlink:href="docs/semantic.Index.html" xlink:title="Home" target="_parent">
<polygon fill="lightgray" stroke="black" stroke-width="2" points="212.55,-262.76 158.55,-262.76 158.55,-226.76 212.55,-226.76 212.55,-262.76"/>
<text text-anchor="start" x="168.68" y="-239.71" font-family="Times,serif" font-size="14.00">Home</text>
</a>
</g>
</g>
<!-- Index&#45;&gt;Blog -->
<g id="edge6" class="edge">
<title>Index&#45;&gt;Blog</title>
<g id="a_edge6"><a xlink:href="docs/safe.goBlog.html" xlink:title="See the blog post list" target="_parent">
<path fill="none" stroke="black" d="M185.55,-226.42C185.55,-215.25 185.55,-200.38 185.55,-187"/>
<polygon fill="black" stroke="black" points="189.05,-187.23 185.55,-177.23 182.05,-187.23 189.05,-187.23"/>
</a>
</g>
<g id="a_edge6&#45;label"><a xlink:href="docs/safe.goBlog.html" xlink:title="See the blog post list" target="_parent">
<text text-anchor="start" x="185.55" y="-196.41" font-family="Times,serif" font-size="13.00">See the blog post list</text>
</a>
</g>
</g>
</g>
</svg>
