<?xml version="1.0" encoding="UTF-8" standalone="no"?>
<!DOCTYPE svg PUBLIC "-//W3C//DTD SVG 1.1//EN"
 "http://www.w3.org/Graphics/SVG/1.1/DTD/svg11.dtd">
<!-- Generated by graphviz version 2.40.1 (20161225.0304)
 -->
<!-- Title: application_state_diagram Pages: 1 -->
<svg width="555pt" height="243pt"
 viewBox="0.00 0.00 554.59 242.80" xmlns="http://www.w3.org/2000/svg" xmlns:xlink="http://www.w3.org/1999/xlink">
<g id="graph0" class="graph" transform="scale(1 1) rotate(0) translate(4 238.8)">
<title>application_state_diagram</title>
<g id="a_graph0"><a xlink:href="index.html" xlink:title="ALPS Blog" target="_parent">
<polygon fill="#ffffff" stroke="transparent" points="-4,4 -4,-238.8 550.5928,-238.8 550.5928,4 -4,4"/>
<text text-anchor="middle" x="273.2964" y="-218.2" font-family="Helvetica,sans-Serif" font-size="14.00" fill="#000000">ALPS Blog</text>
</a>
</g>
<!-- Blog -->
<g id="node1" class="node">
<title>Blog</title>
<g id="a_node1"><a xlink:href="#Blog" xlink:title="Blog Post List" target="_parent">
<polygon fill="#d3d3d3" stroke="#000000" stroke-width="2" points="268.7163,-123 186.4693,-123 186.4693,-87 268.7163,-87 268.7163,-123"/>
<text text-anchor="start" x="187.5311" y="-100.8" font-family="Times,serif" font-size="14.00" fill="#000000">Blog Post List</text>
</a>
</g>
</g>
<!-- Blog&#45;&gt;Blog -->
<g id="edge3" class="edge doPost">
<title>Blog&#45;&gt;Blog</title>
<g id="a_edge3"><a xlink:href="#doPost" xlink:title="&lt;TABLE&gt;" target="_parent">
<path fill="none" stroke="#000000" stroke-width="1.5" d="M268.7189,-112.7669C278.9828,-112.2237 286.6545,-109.6348 286.6545,-105 286.6545,-102.1033 283.6577,-100.0057 278.9043,-98.7073"/>
<polygon fill="#000000" stroke="#000000" stroke-width="1.5" points="279.1171,-95.2017 268.7189,-97.2331 278.1144,-102.1295 279.1171,-95.2017"/>
</a>
</g>
<g id="a_edge3&#45;label"><a xlink:href="#doPost" xlink:title="&lt;TABLE&gt;" target="_parent">
<g id="a_edge3_0"><a xlink:href="#doPost" xlink:title="Post the article (unsafe)" target="_parent">
<text text-anchor="start" x="287.0347" y="-101.3" font-family="Times,serif" font-size="13.00" fill="#ff4136">■</text>
<text text-anchor="start" x="296.7847" y="-101.3" font-family="Times,serif" font-size="13.00" fill="#000000"> Post the article</text>
</a>
</g>
</a>
</g>
</g>
<!-- BlogPosting -->
<g id="node2" class="node">
<title>BlogPosting</title>
<g id="a_node2"><a xlink:href="#BlogPosting" xlink:title="Blog Post" target="_parent">
<polygon fill="#d3d3d3" stroke="#000000" stroke-width="2" points="102.938,-36 46.2476,-36 46.2476,0 102.938,0 102.938,-36"/>
<text text-anchor="start" x="47.1703" y="-13.8" font-family="Times,serif" font-size="14.00" fill="#000000">Blog Post</text>
</a>
</g>
</g>
<!-- Blog&#45;&gt;BlogPosting -->
<g id="edge4" class="edge goBlogPosting">
<title>Blog&#45;&gt;BlogPosting</title>
<g id="a_edge4"><a xlink:href="#goBlogPosting" xlink:title="&lt;TABLE&gt;" target="_parent">
<path fill="none" stroke="#000000" stroke-width="1.5" d="M186.3726,-101.2199C125.1799,-95.1866 16.2246,-82.6602 4.5928,-69 -9.1156,-52.9011 13.3589,-39.0998 36.401,-29.9297"/>
<polygon fill="#000000" stroke="#000000" stroke-width="1.5" points="37.7122,-33.1764 45.8643,-26.4093 35.2715,-26.6156 37.7122,-33.1764"/>
</a>
</g>
<g id="a_edge4&#45;label"><a xlink:href="#goBlogPosting" xlink:title="&lt;TABLE&gt;" target="_parent">
<g id="a_edge4_1"><a xlink:href="#goBlogPosting" xlink:title="See the blog post (safe)" target="_parent">
<text text-anchor="start" x="4.8461" y="-57.8" font-family="Times,serif" font-size="13.00" fill="#00a86b">■</text>
<text text-anchor="start" x="14.5961" y="-57.8" font-family="Times,serif" font-size="13.00" fill="#000000"> See the blog post</text>
</a>
</g>
</a>
</g>
</g>
<!-- About -->
<g id="node3" class="node">
<title>About</title>
<g id="a_node3"><a xlink:href="#About" xlink:title="About Us" target="_parent">
<polygon fill="#d3d3d3" stroke="#000000" stroke-width="2" points="415.6412,-36 317.5444,-36 317.5444,0 415.6412,0 415.6412,-36"/>
<text text-anchor="start" x="339.5686" y="-13.8" font-family="Times,serif" font-size="14.00" fill="#000000">About Us</text>
</a>
</g>
</g>
<!-- Blog&#45;&gt;About -->
<g id="edge2" class="edge goAbout">
<title>Blog&#45;&gt;About</title>
<g id="a_edge2"><a xlink:href="#goAbout" xlink:title="&lt;TABLE&gt;" target="_parent">
<path fill="none" stroke="#000000" stroke-width="1.5" d="M260.0748,-86.9256C269.4409,-81.4221 279.5645,-75.1862 288.5928,-69 297.468,-62.9187 298.7624,-60.1464 307.5928,-54 313.6188,-49.8056 320.1347,-45.5596 326.5621,-41.5263"/>
<polygon fill="#000000" stroke="#000000" stroke-width="1.5" points="328.5469,-44.4143 335.2175,-36.1831 324.8698,-38.4579 328.5469,-44.4143"/>
</a>
</g>
<g id="a_edge2&#45;label"><a xlink:href="#goAbout" xlink:title="&lt;TABLE&gt;" target="_parent">
<g id="a_edge2_2"><a xlink:href="#goAbout" xlink:title="Go to About (safe)" target="_parent">
<text text-anchor="start" x="307.1038" y="-57.8" font-family="Times,serif" font-size="13.00" fill="#00a86b">■</text>
<text text-anchor="start" x="316.8538" y="-57.8" font-family="Times,serif" font-size="13.00" fill="#000000"> Go to About</text>
</a>
</g>
</a>
</g>
</g>
<!-- BlogPosting&#45;&gt;Blog -->
<g id="edge5" class="edge goBlog">
<title>BlogPosting&#45;&gt;Blog</title>
<g id="a_edge5"><a xlink:href="#goBlog" xlink:title="&lt;TABLE&gt;" target="_parent">
<path fill="none" stroke="#000000" stroke-width="1.5" d="M99.6444,-36.1482C107.366,-41.8108 115.8672,-48.1153 123.5928,-54 132.1515,-60.5193 133.3343,-63.5197 142.5928,-69 153.2593,-75.3137 165.2393,-81.0984 176.7654,-86.0975"/>
<polygon fill="#000000" stroke="#000000" stroke-width="1.5" points="175.727,-89.4575 186.3019,-90.1062 178.4396,-83.0045 175.727,-89.4575"/>
</a>
</g>
<g id="a_edge5&#45;label"><a xlink:href="#goBlog" xlink:title="&lt;TABLE&gt;" target="_parent">
<g id="a_edge5_3"><a xlink:href="#goBlog" xlink:title="See the blog post list (safe)" target="_parent">
<text text-anchor="start" x="142.1103" y="-57.8" font-family="Times,serif" font-size="13.00" fill="#00a86b">■</text>
<text text-anchor="start" x="151.8603" y="-57.8" font-family="Times,serif" font-size="13.00" fill="#000000"> See the blog post list</text>
</a>
</g>
</a>
</g>
</g>
<!-- About&#45;&gt;Blog -->
<g id="edge1" class="edge goBlog">
<title>About&#45;&gt;Blog</title>
<g id="a_edge1"><a xlink:href="#goBlog" xlink:title="&lt;TABLE&gt;" target="_parent">
<path fill="none" stroke="#000000" stroke-width="1.5" d="M391.3662,-36.2194C401.9226,-46.1877 410.0686,-58.5911 401.5928,-69 386.3362,-87.7362 324.597,-97.0224 278.9756,-101.4081"/>
<polygon fill="#000000" stroke="#000000" stroke-width="1.5" points="278.5704,-97.9304 268.9282,-102.3211 279.2039,-104.9017 278.5704,-97.9304"/>
</a>
</g>
<g id="a_edge1&#45;label"><a xlink:href="#goBlog" xlink:title="&lt;TABLE&gt;" target="_parent">
<g id="a_edge1_4"><a xlink:href="#goBlog" xlink:title="See the blog post list (safe)" target="_parent">
<text text-anchor="start" x="404.1103" y="-57.8" font-family="Times,serif" font-size="13.00" fill="#00a86b">■</text>
<text text-anchor="start" x="413.8603" y="-57.8" font-family="Times,serif" font-size="13.00" fill="#000000"> See the blog post list</text>
</a>
</g>
</a>
</g>
</g>
<!-- Index -->
<g id="node4" class="node">
<title>Index</title>
<g id="a_node4"><a xlink:href="#Index" xlink:title="Home" target="_parent">
<polygon fill="#d3d3d3" stroke="#000000" stroke-width="2" points="266.8049,-210 188.3807,-210 188.3807,-174 266.8049,-174 266.8049,-210"/>
<text text-anchor="start" x="210.4869" y="-187.8" font-family="Times,serif" font-size="14.00" fill="#000000">Home</text>
</a>
</g>
</g>
<!-- Index&#45;&gt;Blog -->
<g id="edge6" class="edge goBlog">
<title>Index&#45;&gt;Blog</title>
<g id="a_edge6"><a xlink:href="#goBlog" xlink:title="&lt;TABLE&gt;" target="_parent">
<path fill="none" stroke="#000000" stroke-width="1.5" d="M227.5928,-173.9735C227.5928,-162.1918 227.5928,-146.5607 227.5928,-133.1581"/>
<polygon fill="#000000" stroke="#000000" stroke-width="1.5" points="231.0929,-133.0033 227.5928,-123.0034 224.0929,-133.0034 231.0929,-133.0033"/>
</a>
</g>
<g id="a_edge6&#45;label"><a xlink:href="#goBlog" xlink:title="&lt;TABLE&gt;" target="_parent">
<g id="a_edge6_5"><a xlink:href="#goBlog" xlink:title="See the blog post list (safe)" target="_parent">
<text text-anchor="start" x="227.1103" y="-144.8" font-family="Times,serif" font-size="13.00" fill="#00a86b">■</text>
<text text-anchor="start" x="236.8603" y="-144.8" font-family="Times,serif" font-size="13.00" fill="#000000"> See the blog post list</text>
</a>
</g>
</a>
</g>
</g>
</g>
</svg>
