<?xml version="1.0" encoding="UTF-8" standalone="no"?>
<!DOCTYPE svg PUBLIC "-//W3C//DTD SVG 1.1//EN"
 "http://www.w3.org/Graphics/SVG/1.1/DTD/svg11.dtd">
<!-- Generated by graphviz version 2.40.1 (20161225.0304)
 -->
<!-- Title: application_state_diagram Pages: 1 -->
<svg width="537pt" height="244pt"
 viewBox="0.00 0.00 537.31 244.00" xmlns="http://www.w3.org/2000/svg" xmlns:xlink="http://www.w3.org/1999/xlink">
<g id="graph0" class="graph" transform="scale(1 1) rotate(0) translate(4 240)">
<title>application_state_diagram</title>
<g id="a_graph0"><a xlink:href="index.html" xlink:title="ALPS Blog" target="_parent">
<polygon fill="#ffffff" stroke="transparent" points="-4,4 -4,-240 533.3093,-240 533.3093,4 -4,4"/>
<text text-anchor="middle" x="264.6547" y="-219.4" font-family="Helvetica,sans-Serif" font-size="14.00" fill="#000000">ALPS Blog</text>
</a>
</g>
<!-- Blog -->
<g id="node1" class="node">
<title>Blog</title>
<g id="a_node1"><a xlink:href="#Blog" xlink:title="Blog" target="_parent">
<polygon fill="#d3d3d3" stroke="#000000" stroke-width="2" points="269.4338,-123.6 215.4338,-123.6 215.4338,-87.6 269.4338,-87.6 269.4338,-123.6"/>
<text text-anchor="middle" x="242.4338" y="-101.4" font-family="Times,serif" font-size="14.00" fill="#000000">Blog</text>
</a>
</g>
</g>
<!-- Blog&#45;&gt;Blog -->
<g id="edge3" class="edge doPost">
<title>Blog&#45;&gt;Blog</title>
<g id="a_edge3"><a xlink:href="#doPost" xlink:title="doPost, collection (unsafe)" target="_parent">
<path fill="none" stroke="#000000" stroke-width="1.5" d="M269.6746,-113.4673C279.4578,-113.6365 287.4338,-111.0141 287.4338,-105.6 287.4338,-102.3008 284.472,-100.0382 279.9443,-98.8123"/>
<polygon fill="#000000" stroke="#000000" stroke-width="1.5" points="279.9858,-95.2975 269.6746,-97.7327 279.2539,-102.2591 279.9858,-95.2975"/>
</a>
</g>
<g id="a_edge3&#45;label"><a xlink:href="#doPost" xlink:title="doPost, collection (unsafe)" target="_parent">
<text text-anchor="start" x="287.4338" y="-101.7" font-family="Times,serif" font-size="13.00" fill="#000000">doPost, collection (unsafe)</text>
</a>
</g>
</g>
<!-- BlogPosting -->
<g id="node2" class="node">
<title>BlogPosting</title>
<g id="a_node2"><a xlink:href="#BlogPosting" xlink:title="BlogPosting" target="_parent">
<polygon fill="#d3d3d3" stroke="#000000" stroke-width="2" points="121.1698,-36 49.6979,-36 49.6979,0 121.1698,0 121.1698,-36"/>
<text text-anchor="middle" x="85.4338" y="-13.8" font-family="Times,serif" font-size="14.00" fill="#000000">BlogPosting</text>
</a>
</g>
</g>
<!-- Blog&#45;&gt;BlogPosting -->
<g id="edge4" class="edge goBlogPosting">
<title>Blog&#45;&gt;BlogPosting</title>
<g id="a_edge4"><a xlink:href="#goBlogPosting" xlink:title="goBlogPosting, item (safe)" target="_parent">
<path fill="none" stroke="#000000" stroke-width="1.5" d="M215.2372,-103.4574C155.7569,-98.496 18.3134,-85.4247 4.7046,-69.6 -10.2675,-52.1899 14.3826,-38.5519 40.2764,-29.6804"/>
<polygon fill="#000000" stroke="#000000" stroke-width="1.5" points="41.3456,-33.0131 49.8014,-26.6295 39.2103,-26.3468 41.3456,-33.0131"/>
</a>
</g>
<g id="a_edge4&#45;label"><a xlink:href="#goBlogPosting" xlink:title="goBlogPosting, item (safe)" target="_parent">
<text text-anchor="start" x="5.4338" y="-57.9" font-family="Times,serif" font-size="13.00" fill="#000000">goBlogPosting, item (safe)</text>
</a>
</g>
</g>
<!-- About -->
<g id="node3" class="node">
<title>About</title>
<g id="a_node3"><a xlink:href="#About" xlink:title="About" target="_parent">
<polygon fill="#d3d3d3" stroke="#000000" stroke-width="2" points="395.4338,-36 341.4338,-36 341.4338,0 395.4338,0 395.4338,-36"/>
<text text-anchor="middle" x="368.4338" y="-13.8" font-family="Times,serif" font-size="14.00" fill="#000000">About</text>
</a>
</g>
</g>
<!-- Blog&#45;&gt;About -->
<g id="edge2" class="edge goAbout">
<title>Blog&#45;&gt;About</title>
<g id="a_edge2"><a xlink:href="#goAbout" xlink:title="goAbout (safe)" target="_parent">
<path fill="none" stroke="#000000" stroke-width="1.5" d="M269.4717,-88.3986C278.2145,-82.6195 287.861,-76.0095 296.4338,-69.6 305.0948,-63.1246 306.4641,-60.5004 315.1062,-54 320.6842,-49.8044 326.7162,-45.5122 332.6483,-41.4205"/>
<polygon fill="#000000" stroke="#000000" stroke-width="1.5" points="334.9018,-44.1208 341.2036,-35.6038 330.966,-38.332 334.9018,-44.1208"/>
</a>
</g>
<g id="a_edge2&#45;label"><a xlink:href="#goAbout" xlink:title="goAbout (safe)" target="_parent">
<text text-anchor="start" x="315.4338" y="-57.9" font-family="Times,serif" font-size="13.00" fill="#000000">goAbout (safe)</text>
</a>
</g>
</g>
<!-- BlogPosting&#45;&gt;Blog -->
<g id="edge5" class="edge goBlog">
<title>BlogPosting&#45;&gt;Blog</title>
<g id="a_edge5"><a xlink:href="#goBlog" xlink:title="goBlog, collection (safe)" target="_parent">
<path fill="none" stroke="#000000" stroke-width="1.5" d="M116.8716,-36.0941C125.931,-41.598 135.7177,-47.8293 144.4338,-54 153.3863,-60.3381 154.2429,-63.8087 163.5583,-69.6 176.7254,-77.7857 192.0655,-85.2122 205.6985,-91.1653"/>
<polygon fill="#000000" stroke="#000000" stroke-width="1.5" points="204.6958,-94.5419 215.2683,-95.2294 207.4321,-88.0989 204.6958,-94.5419"/>
</a>
</g>
<g id="a_edge5&#45;label"><a xlink:href="#goBlog" xlink:title="goBlog, collection (safe)" target="_parent">
<text text-anchor="start" x="164.4338" y="-57.9" font-family="Times,serif" font-size="13.00" fill="#000000">goBlog, collection (safe)</text>
</a>
</g>
</g>
<!-- About&#45;&gt;Blog -->
<g id="edge1" class="edge goBlog">
<title>About&#45;&gt;Blog</title>
<g id="a_edge1"><a xlink:href="#goBlog" xlink:title="goBlog, collection (safe)" target="_parent">
<path fill="none" stroke="#000000" stroke-width="1.5" d="M389.07,-36.0754C398.3653,-46.4005 405.6153,-59.3005 397.4338,-69.6 383.0097,-87.7582 320.8422,-97.5828 279.7554,-102.1948"/>
<polygon fill="#000000" stroke="#000000" stroke-width="1.5" points="279.1229,-98.7423 269.5503,-103.2827 279.8651,-105.7028 279.1229,-98.7423"/>
</a>
</g>
<g id="a_edge1&#45;label"><a xlink:href="#goBlog" xlink:title="goBlog, collection (safe)" target="_parent">
<text text-anchor="start" x="400.4338" y="-57.9" font-family="Times,serif" font-size="13.00" fill="#000000">goBlog, collection (safe)</text>
</a>
</g>
</g>
<!-- Index -->
<g id="node4" class="node">
<title>Index</title>
<g id="a_node4"><a xlink:href="#Index" xlink:title="Index" target="_parent">
<polygon fill="#d3d3d3" stroke="#000000" stroke-width="2" points="269.4338,-211.2 215.4338,-211.2 215.4338,-175.2 269.4338,-175.2 269.4338,-211.2"/>
<text text-anchor="middle" x="242.4338" y="-189" font-family="Times,serif" font-size="14.00" fill="#000000">Index</text>
</a>
</g>
</g>
<!-- Index&#45;&gt;Blog -->
<g id="edge6" class="edge goBlog">
<title>Index&#45;&gt;Blog</title>
<g id="a_edge6"><a xlink:href="#goBlog" xlink:title="goBlog, collection (safe)" target="_parent">
<path fill="none" stroke="#000000" stroke-width="1.5" d="M242.4338,-175.0492C242.4338,-163.1862 242.4338,-147.4473 242.4338,-133.9523"/>
<polygon fill="#000000" stroke="#000000" stroke-width="1.5" points="245.9339,-133.7275 242.4338,-123.7275 238.9339,-133.7276 245.9339,-133.7275"/>
</a>
</g>
<g id="a_edge6&#45;label"><a xlink:href="#goBlog" xlink:title="goBlog, collection (safe)" target="_parent">
<text text-anchor="start" x="242.4338" y="-145.5" font-family="Times,serif" font-size="13.00" fill="#000000">goBlog, collection (safe)</text>
</a>
</g>
</g>
</g>
</svg>
