<?xml version="1.0" encoding="UTF-8" standalone="no"?>
<!DOCTYPE svg PUBLIC "-//W3C//DTD SVG 1.1//EN"
 "http://www.w3.org/Graphics/SVG/1.1/DTD/svg11.dtd">
<!-- Generated by graphviz version 2.40.1 (20161225.0304)
 -->
<!-- Title: application_state_diagram Pages: 1 -->
<svg width="431pt" height="244pt"
 viewBox="0.00 0.00 431.27 244.00" xmlns="http://www.w3.org/2000/svg" xmlns:xlink="http://www.w3.org/1999/xlink">
<g id="graph0" class="graph" transform="scale(1 1) rotate(0) translate(4 240)">
<title>application_state_diagram</title>
<g id="a_graph0"><a xlink:href="index.html" xlink:title="ALPS Blog" target="_parent">
<polygon fill="#ffffff" stroke="transparent" points="-4,4 -4,-240 427.2667,-240 427.2667,4 -4,4"/>
<text text-anchor="middle" x="211.6334" y="-219.4" font-family="Helvetica,sans-Serif" font-size="14.00" fill="#000000">ALPS Blog</text>
</a>
</g>
<!-- Blog -->
<g id="node1" class="node">
<title>Blog</title>
<g id="a_node1"><a xlink:href="#Blog" xlink:title="Blog Post List" target="_parent">
<polygon fill="#d3d3d3" stroke="#000000" stroke-width="2" points="221.0638,-123.6 138.8168,-123.6 138.8168,-87.6 221.0638,-87.6 221.0638,-123.6"/>
<text text-anchor="start" x="139.8786" y="-101.4" font-family="Times,serif" font-size="14.00" fill="#000000">Blog Post List</text>
</a>
</g>
</g>
<!-- Blog&#45;&gt;Blog -->
<g id="edge3" class="edge doPost">
<title>Blog&#45;&gt;Blog</title>
<g id="a_edge3"><a xlink:href="#doPost" xlink:title="&lt;b&gt;&lt;u&gt;Post the article&lt;/u&gt;&lt;/b&gt;" target="_parent">
<path fill="none" stroke="#000000" stroke-width="1.5" d="M221.0664,-113.3669C231.3303,-112.8237 239.002,-110.2348 239.002,-105.6 239.002,-102.7033 236.0053,-100.6057 231.2519,-99.3073"/>
<polygon fill="#000000" stroke="#000000" stroke-width="1.5" points="231.4647,-95.8017 221.0664,-97.8331 230.462,-102.7295 231.4647,-95.8017"/>
</a>
</g>
<g id="a_edge3&#45;label"><a xlink:href="#doPost" xlink:title="&lt;b&gt;&lt;u&gt;Post the article&lt;/u&gt;&lt;/b&gt;" target="_parent">
<text text-anchor="start" x="239.002" y="-102.7" font-family="Times,serif" font-weight="bold" text-decoration="underline" font-size="13.00" fill="#000000">Post the article</text>
</a>
</g>
</g>
<!-- BlogPosting -->
<g id="node2" class="node">
<title>BlogPosting</title>
<g id="a_node2"><a xlink:href="#BlogPosting" xlink:title="Blog Post" target="_parent">
<polygon fill="#d3d3d3" stroke="#000000" stroke-width="2" points="87.2855,-36 30.5951,-36 30.5951,0 87.2855,0 87.2855,-36"/>
<text text-anchor="start" x="31.5178" y="-13.8" font-family="Times,serif" font-size="14.00" fill="#000000">Blog Post</text>
</a>
</g>
</g>
<!-- Blog&#45;&gt;BlogPosting -->
<g id="edge4" class="edge goBlogPosting">
<title>Blog&#45;&gt;BlogPosting</title>
<g id="a_edge4"><a xlink:href="#goBlogPosting" xlink:title="See the blog post" target="_parent">
<path fill="none" stroke="#000000" stroke-width="1.5" d="M138.5067,-103.0333C91.878,-99.179 20.44,-90.0358 3.7577,-69.6 -6.4599,-57.0834 5.9337,-44.6646 21.5434,-35.1478"/>
<polygon fill="#000000" stroke="#000000" stroke-width="1.5" points="23.4069,-38.1157 30.4232,-30.177 19.9877,-32.0076 23.4069,-38.1157"/>
</a>
</g>
<g id="a_edge4&#45;label"><a xlink:href="#goBlogPosting" xlink:title="See the blog post" target="_parent">
<text text-anchor="start" x="3.9403" y="-57.9" font-family="Times,serif" font-size="13.00" fill="#000000">See the blog post</text>
</a>
</g>
</g>
<!-- About -->
<g id="node3" class="node">
<title>About</title>
<g id="a_node3"><a xlink:href="#About" xlink:title="About Us" target="_parent">
<polygon fill="#d3d3d3" stroke="#000000" stroke-width="2" points="324.9887,-36 254.8919,-36 254.8919,0 324.9887,0 324.9887,-36"/>
<text text-anchor="start" x="262.9161" y="-13.8" font-family="Times,serif" font-size="14.00" fill="#000000">About Us</text>
</a>
</g>
</g>
<!-- Blog&#45;&gt;About -->
<g id="edge2" class="edge goAbout">
<title>Blog&#45;&gt;About</title>
<g id="a_edge2"><a xlink:href="#goAbout" xlink:title="Go to About" target="_parent">
<path fill="none" stroke="#000000" stroke-width="1.5" d="M202.3298,-87.2927C209.2592,-81.6237 216.9171,-75.3556 223.9403,-69.6 232.3926,-62.6734 234.3834,-60.7904 242.9455,-54 247.6915,-50.2361 252.7431,-46.2971 257.708,-42.4633"/>
<polygon fill="#000000" stroke="#000000" stroke-width="1.5" points="260.1151,-45.0277 265.9125,-36.1598 255.8503,-39.4768 260.1151,-45.0277"/>
</a>
</g>
<g id="a_edge2&#45;label"><a xlink:href="#goAbout" xlink:title="Go to About" target="_parent">
<text text-anchor="start" x="243.9403" y="-57.9" font-family="Times,serif" font-size="13.00" fill="#000000">Go to About</text>
</a>
</g>
</g>
<!-- BlogPosting&#45;&gt;Blog -->
<g id="edge5" class="edge goBlog">
<title>BlogPosting&#45;&gt;Blog</title>
<g id="a_edge5"><a xlink:href="#goBlog" xlink:title="See the blog post list" target="_parent">
<path fill="none" stroke="#000000" stroke-width="1.5" d="M76.3458,-36.1336C88.6492,-48.7388 104.2181,-64.2074 111.6139,-69.6 117.9365,-74.21 124.9273,-78.5891 131.953,-82.6029"/>
<polygon fill="#000000" stroke="#000000" stroke-width="1.5" points="130.3743,-85.729 140.8232,-87.4815 133.7478,-79.5955 130.3743,-85.729"/>
</a>
</g>
<g id="a_edge5&#45;label"><a xlink:href="#goBlog" xlink:title="See the blog post list" target="_parent">
<text text-anchor="start" x="111.9403" y="-57.9" font-family="Times,serif" font-size="13.00" fill="#000000">See the blog post list</text>
</a>
</g>
</g>
<!-- About&#45;&gt;Blog -->
<g id="edge1" class="edge goBlog">
<title>About&#45;&gt;Blog</title>
<g id="a_edge1"><a xlink:href="#goBlog" xlink:title="See the blog post list" target="_parent">
<path fill="none" stroke="#000000" stroke-width="1.5" d="M306.6151,-36.3703C314.0067,-46.7937 319.5067,-59.6937 311.9403,-69.6 301.9117,-82.73 263.8053,-92.2204 231.097,-98.1498"/>
<polygon fill="#000000" stroke="#000000" stroke-width="1.5" points="230.4103,-94.7166 221.1565,-99.8757 231.6078,-101.6134 230.4103,-94.7166"/>
</a>
</g>
<g id="a_edge1&#45;label"><a xlink:href="#goBlog" xlink:title="See the blog post list" target="_parent">
<text text-anchor="start" x="314.9403" y="-57.9" font-family="Times,serif" font-size="13.00" fill="#000000">See the blog post list</text>
</a>
</g>
</g>
<!-- Index -->
<g id="node4" class="node">
<title>Index</title>
<g id="a_node4"><a xlink:href="#Index" xlink:title="Home" target="_parent">
<polygon fill="#d3d3d3" stroke="#000000" stroke-width="2" points="206.9403,-211.2 152.9403,-211.2 152.9403,-175.2 206.9403,-175.2 206.9403,-211.2"/>
<text text-anchor="start" x="162.8344" y="-189" font-family="Times,serif" font-size="14.00" fill="#000000">Home</text>
</a>
</g>
</g>
<!-- Index&#45;&gt;Blog -->
<g id="edge6" class="edge goBlog">
<title>Index&#45;&gt;Blog</title>
<g id="a_edge6"><a xlink:href="#goBlog" xlink:title="See the blog post list" target="_parent">
<path fill="none" stroke="#000000" stroke-width="1.5" d="M179.9403,-175.0492C179.9403,-163.1862 179.9403,-147.4473 179.9403,-133.9523"/>
<polygon fill="#000000" stroke="#000000" stroke-width="1.5" points="183.4404,-133.7275 179.9403,-123.7275 176.4404,-133.7276 183.4404,-133.7275"/>
</a>
</g>
<g id="a_edge6&#45;label"><a xlink:href="#goBlog" xlink:title="See the blog post list" target="_parent">
<text text-anchor="start" x="179.9403" y="-145.5" font-family="Times,serif" font-size="13.00" fill="#000000">See the blog post list</text>
</a>
</g>
</g>
</g>
</svg>
