<?xml version="1.0" encoding="UTF-8" standalone="no"?>
<!DOCTYPE svg PUBLIC "-//W3C//DTD SVG 1.1//EN"
 "http://www.w3.org/Graphics/SVG/1.1/DTD/svg11.dtd">
<!-- Generated by graphviz version 14.1.0 (20251206.1807)
 -->
<!-- Title: application_state_diagram Pages: 1 -->
<svg width="155pt" height="218pt"
 viewBox="0.00 0.00 155.00 218.00" xmlns="http://www.w3.org/2000/svg" xmlns:xlink="http://www.w3.org/1999/xlink">
<g id="graph0" class="graph" transform="scale(1 1) rotate(0) translate(4 214)">
<title>application_state_diagram</title>
<polygon fill="white" stroke="none" points="-4,4 -4,-214 151.35,-214 151.35,4 -4,4"/>
<!-- Post -->
<g id="node1" class="node">
<title>Post</title>
<g id="a_node1"><a xlink:href="#Post" xlink:title="Post">
<polygon fill="lightgray" stroke="black" stroke-width="2" points="88.72,-36 34.72,-36 34.72,0 88.72,0 88.72,-36"/>
<text xml:space="preserve" text-anchor="middle" x="61.72" y="-12.95" font-family="Times,serif" font-size="14.00">Post</text>
</a>
</g>
</g>
<!-- PostList -->
<g id="node2" class="node">
<title>PostList</title>
<g id="a_node2"><a xlink:href="#PostList" xlink:title="PostList">
<polygon fill="lightgray" stroke="black" stroke-width="2" points="91.05,-123 32.4,-123 32.4,-87 91.05,-87 91.05,-123"/>
<text xml:space="preserve" text-anchor="middle" x="61.72" y="-99.95" font-family="Times,serif" font-size="14.00">PostList</text>
</a>
</g>
</g>
<!-- PostList&#45;&gt;Post -->
<g id="edge2" class="edge goPost">
<title>PostList&#45;&gt;Post</title>
<g id="a_edge2"><a xlink:href="#goPost" xlink:title="goPost">
<path fill="none" stroke="#00a86b" stroke-width="1.5" d="M43.54,-86.62C39.25,-81.41 35.25,-75.37 32.97,-69 30.21,-61.27 32.16,-53.37 36.09,-46.19"/>
<polygon fill="#00a86b" stroke="#00a86b" stroke-width="1.5" points="38.84,-48.38 41.66,-38.17 33.08,-44.39 38.84,-48.38"/>
</a>
</g>
<g id="a_edge2&#45;label"><a xlink:href="#goPost" xlink:title="goPost">
<text xml:space="preserve" text-anchor="middle" x="51.35" y="-56.65" font-family="Times,serif" font-size="13.00">goPost</text>
</a>
</g>
</g>
<!-- PostList&#45;&gt;Post -->
<g id="edge3" class="edge doCreatePost">
<title>PostList&#45;&gt;Post</title>
<g id="a_edge3"><a xlink:href="#doCreatePost" xlink:title="doCreatePost">
<path fill="none" stroke="#ff4136" stroke-width="1.5" d="M66.49,-86.69C67.81,-81.09 69.07,-74.82 69.72,-69 70.49,-62.21 70.05,-54.93 69.07,-48.08"/>
<polygon fill="#ff4136" stroke="#ff4136" stroke-width="1.5" points="72.52,-47.47 67.21,-38.3 65.64,-48.78 72.52,-47.47"/>
</a>
</g>
<g id="a_edge3&#45;label"><a xlink:href="#doCreatePost" xlink:title="doCreatePost">
<text xml:space="preserve" text-anchor="middle" x="106.11" y="-56.65" font-family="Times,serif" font-size="13.00">doCreatePost</text>
</a>
</g>
</g>
<!-- UnknownState -->
<g id="node3" class="node">
<title>UnknownState</title>
<polygon fill="lightgray" stroke="black" stroke-width="2" points="123.45,-210 0,-210 0,-174 123.45,-174 123.45,-210"/>
<text xml:space="preserve" text-anchor="middle" x="61.72" y="-186.95" font-family="Times,serif" font-size="14.00">UnknownState</text>
</g>
<!-- UnknownState&#45;&gt;PostList -->
<g id="edge1" class="edge goHome">
<title>UnknownState&#45;&gt;PostList</title>
<g id="a_edge1"><a xlink:href="#goHome" xlink:title="goHome">
<path fill="none" stroke="#00a86b" stroke-width="1.5" d="M40.72,-173.64C35.95,-168.5 31.54,-162.5 28.97,-156 25.78,-147.9 28.19,-139.75 32.88,-132.44"/>
<polygon fill="#00a86b" stroke="#00a86b" stroke-width="1.5" points="35.44,-134.84 38.96,-124.85 29.98,-130.47 35.44,-134.84"/>
</a>
</g>
<g id="a_edge1&#45;label"><a xlink:href="#goHome" xlink:title="goHome">
<text xml:space="preserve" text-anchor="middle" x="51.85" y="-143.65" font-family="Times,serif" font-size="13.00">goHome</text>
</a>
</g>
</g>
<!-- UnknownState&#45;&gt;PostList -->
<g id="edge4" class="edge doDeletePost">
<title>UnknownState&#45;&gt;PostList</title>
<g id="a_edge4"><a xlink:href="#doDeletePost" xlink:title="doDeletePost">
<path fill="none" stroke="#d4a000" stroke-width="1.5" d="M70.1,-173.56C73.7,-164.02 76.69,-151.95 74.72,-141 74.36,-138.98 73.89,-136.93 73.34,-134.88"/>
<polygon fill="#d4a000" stroke="#d4a000" stroke-width="1.5" points="76.75,-134.03 70.3,-125.62 70.1,-136.21 76.75,-134.03"/>
</a>
</g>
<g id="a_edge4&#45;label"><a xlink:href="#doDeletePost" xlink:title="doDeletePost">
<text xml:space="preserve" text-anchor="middle" x="111.35" y="-143.65" font-family="Times,serif" font-size="13.00">doDeletePost</text>
</a>
</g>
</g>
</g>
</svg>
