<?xml version="1.0" encoding="UTF-8" standalone="no"?>
<!DOCTYPE svg PUBLIC "-//W3C//DTD SVG 1.1//EN"
 "http://www.w3.org/Graphics/SVG/1.1/DTD/svg11.dtd">
<!-- Generated by graphviz version 2.43.0 (0)
 -->
<!-- Title: application_state_diagram Pages: 1 -->
<svg width="703pt" height="281pt"
 viewBox="0.00 0.00 702.93 281.00" xmlns="http://www.w3.org/2000/svg" xmlns:xlink="http://www.w3.org/1999/xlink">
<g id="graph0" class="graph" transform="scale(1 1) rotate(0) translate(4 277)">
<title>application_state_diagram</title>
<g id="a_graph0"><a xlink:href="index.html" xlink:title="ALPS Blog" target="_parent">
<polygon fill="white" stroke="transparent" points="-4,4 -4,-277 698.93,-277 698.93,4 -4,4"/>
<text text-anchor="middle" x="347.46" y="-257.8" font-family="Helvetica,sans-Serif" font-size="14.00">ALPS Blog</text>
</a>
</g>
<!-- Blog -->
<g id="node1" class="node">
<title>Blog</title>
<g id="a_node1"><a xlink:href="docs/semantic.Blog.html" xlink:title="&lt;TABLE&gt;" target="_parent">
<polygon fill="lightgray" stroke="black" stroke-width="2" points="349.43,-164 240.43,-164 240.43,-122 349.43,-122 349.43,-164"/>
<text text-anchor="start" x="278.93" y="-146.8" font-family="Times,serif" font-size="14.00">Blog</text>
<text text-anchor="start" x="246.93" y="-131.8" font-family="Times,serif" font-size="14.00">(BlogPosting)</text>
</a>
</g>
</g>
<!-- Blog&#45;&gt;Blog -->
<g id="edge3" class="edge">
<title>Blog&#45;&gt;Blog</title>
<g id="a_edge3"><a xlink:href="docs/unsafe.doPost.html" xlink:title="doPost (unsafe)" target="_parent">
<path fill="none" stroke="black" d="M349.63,-151.21C360.05,-150.23 367.43,-147.49 367.43,-143 367.43,-140.12 364.4,-137.96 359.49,-136.53"/>
<polygon fill="black" stroke="black" points="360.08,-133.08 349.63,-134.79 358.87,-139.97 360.08,-133.08"/>
</a>
</g>
<g id="a_edge3&#45;label"><a xlink:href="docs/unsafe.doPost.html" xlink:title="doPost (unsafe)" target="_parent">
<text text-anchor="start" x="367.43" y="-139.6" font-family="Times,serif" font-size="13.00">doPost (unsafe)</text>
</a>
</g>
</g>
<!-- BlogPosting -->
<g id="node2" class="node">
<title>BlogPosting</title>
<g id="a_node2"><a xlink:href="docs/semantic.BlogPosting.html" xlink:title="&lt;TABLE&gt;" target="_parent">
<polygon fill="lightgray" stroke="black" stroke-width="2" points="159.93,-72 47.93,-72 47.93,0 159.93,0 159.93,-72"/>
<text text-anchor="start" x="60.93" y="-54.8" font-family="Times,serif" font-size="14.00">BlogPosting</text>
<text text-anchor="start" x="91.43" y="-39.8" font-family="Times,serif" font-size="14.00">(id)</text>
<text text-anchor="start" x="57.43" y="-24.8" font-family="Times,serif" font-size="14.00">(articleBody)</text>
<text text-anchor="start" x="53.93" y="-9.8" font-family="Times,serif" font-size="14.00">(dateCreated)</text>
</a>
</g>
</g>
<!-- Blog&#45;&gt;BlogPosting -->
<g id="edge4" class="edge">
<title>Blog&#45;&gt;BlogPosting</title>
<g id="a_edge4"><a xlink:href="docs/safe.goBlogPosting.html" xlink:title="goBlogPosting, item (safe)" target="_parent">
<path fill="none" stroke="black" d="M240.33,-143C165.19,-143.06 35.8,-138.05 5.93,-104 -10.74,-85 11.05,-68.83 38.28,-57.13"/>
<polygon fill="black" stroke="black" points="39.71,-60.33 47.68,-53.34 37.09,-53.84 39.71,-60.33"/>
</a>
</g>
<g id="a_edge4&#45;label"><a xlink:href="docs/safe.goBlogPosting.html" xlink:title="goBlogPosting, item (safe)" target="_parent">
<text text-anchor="start" x="5.93" y="-93.6" font-family="Times,serif" font-size="13.00">goBlogPosting, item (safe)</text>
</a>
</g>
</g>
<!-- About -->
<g id="node3" class="node">
<title>About</title>
<g id="a_node3"><a xlink:href="docs/semantic.About.html" xlink:title="About" target="_parent">
<polygon fill="lightgray" stroke="black" stroke-width="2" points="498.43,-54 439.43,-54 439.43,-18 498.43,-18 498.43,-54"/>
<text text-anchor="middle" x="468.93" y="-32.3" font-family="Times,serif" font-size="14.00">About</text>
</a>
</g>
</g>
<!-- Blog&#45;&gt;About -->
<g id="edge2" class="edge">
<title>Blog&#45;&gt;About</title>
<g id="a_edge2"><a xlink:href="docs/safe.goAbout.html" xlink:title="goAbout, about (safe)" target="_parent">
<path fill="none" stroke="black" d="M334.36,-121.83C344.48,-116.32 355.24,-110.16 364.93,-104 373.78,-98.37 375.25,-95.89 383.93,-90 399.33,-79.55 416.7,-68.58 431.71,-59.34"/>
<polygon fill="black" stroke="black" points="433.54,-62.33 440.24,-54.12 429.89,-56.36 433.54,-62.33"/>
</a>
</g>
<g id="a_edge2&#45;label"><a xlink:href="docs/safe.goAbout.html" xlink:title="goAbout, about (safe)" target="_parent">
<text text-anchor="start" x="383.93" y="-93.6" font-family="Times,serif" font-size="13.00">goAbout, about (safe)</text>
</a>
</g>
</g>
<!-- BlogPosting&#45;&gt;Blog -->
<g id="edge5" class="edge">
<title>BlogPosting&#45;&gt;Blog</title>
<g id="a_edge5"><a xlink:href="docs/safe.goBlog.html" xlink:title="goBlog, collection (safe)" target="_parent">
<path fill="none" stroke="black" d="M155.45,-72.12C163.99,-78.04 172.73,-84.16 180.93,-90 189.47,-96.09 190.76,-98.9 199.93,-104 209.56,-109.36 220.09,-114.35 230.54,-118.84"/>
<polygon fill="black" stroke="black" points="229.49,-122.19 240.07,-122.81 232.19,-115.73 229.49,-122.19"/>
</a>
</g>
<g id="a_edge5&#45;label"><a xlink:href="docs/safe.goBlog.html" xlink:title="goBlog, collection (safe)" target="_parent">
<text text-anchor="start" x="199.93" y="-93.6" font-family="Times,serif" font-size="13.00">goBlog, collection (safe)</text>
</a>
</g>
</g>
<!-- About&#45;&gt;Blog -->
<g id="edge1" class="edge">
<title>About&#45;&gt;Blog</title>
<g id="a_edge1"><a xlink:href="docs/safe.goBlog.html" xlink:title="goBlog, collection (safe)" target="_parent">
<path fill="none" stroke="black" d="M498.63,-52.17C521.02,-65.59 545.43,-85.79 529.93,-104 508.42,-129.26 421.45,-137.79 359.59,-140.63"/>
<polygon fill="black" stroke="black" points="359.36,-137.13 349.51,-141.05 359.65,-144.13 359.36,-137.13"/>
</a>
</g>
<g id="a_edge1&#45;label"><a xlink:href="docs/safe.goBlog.html" xlink:title="goBlog, collection (safe)" target="_parent">
<text text-anchor="start" x="533.93" y="-93.6" font-family="Times,serif" font-size="13.00">goBlog, collection (safe)</text>
</a>
</g>
</g>
<!-- Index -->
<g id="node4" class="node">
<title>Index</title>
<g id="a_node4"><a xlink:href="docs/semantic.Index.html" xlink:title="Index" target="_parent">
<polygon fill="lightgray" stroke="black" stroke-width="2" points="322.93,-250 266.93,-250 266.93,-214 322.93,-214 322.93,-250"/>
<text text-anchor="middle" x="294.93" y="-228.3" font-family="Times,serif" font-size="14.00">Index</text>
</a>
</g>
</g>
<!-- Index&#45;&gt;Blog -->
<g id="edge6" class="edge">
<title>Index&#45;&gt;Blog</title>
<g id="a_edge6"><a xlink:href="docs/safe.goBlog.html" xlink:title="goBlog, collection (safe)" target="_parent">
<path fill="none" stroke="black" d="M294.93,-213.81C294.93,-202.56 294.93,-187.54 294.93,-174.32"/>
<polygon fill="black" stroke="black" points="298.43,-174.21 294.93,-164.21 291.43,-174.21 298.43,-174.21"/>
</a>
</g>
<g id="a_edge6&#45;label"><a xlink:href="docs/safe.goBlog.html" xlink:title="goBlog, collection (safe)" target="_parent">
<text text-anchor="start" x="294.93" y="-185.6" font-family="Times,serif" font-size="13.00">goBlog, collection (safe)</text>
</a>
</g>
</g>
</g>
</svg>
