<?xml version="1.0" encoding="UTF-8" standalone="no"?>
<!DOCTYPE svg PUBLIC "-//W3C//DTD SVG 1.1//EN"
 "http://www.w3.org/Graphics/SVG/1.1/DTD/svg11.dtd">
<!-- Generated by graphviz version 12.2.1 (20241206.2353)
 -->
<!-- Title: application_state_diagram Pages: 1 -->
<svg width="588pt" height="251pt"
 viewBox="0.00 0.00 588.38 251.14" xmlns="http://www.w3.org/2000/svg" xmlns:xlink="http://www.w3.org/1999/xlink">
<g id="graph0" class="graph" transform="scale(1 1) rotate(0) translate(4 247.14)">
<title>application_state_diagram</title>
<g id="a_graph0"><a xlink:href="index.html" xlink:title="ALPS Blog" target="_parent">
<polygon fill="white" stroke="none" points="-4,4 -4,-247.14 584.38,-247.14 584.38,4 -4,4"/>
<text text-anchor="middle" x="290.19" y="-225.84" font-family="Helvetica,sans-Serif" font-size="14.00">ALPS Blog</text>
</a>
</g>
<!-- Blog -->
<g id="node1" class="node">
<title>Blog</title>
<g id="a_node1"><a xlink:href="docs/semantic.Blog.html" xlink:title="&lt;TABLE&gt;" target="_parent">
<polygon fill="lightgray" stroke="black" stroke-width="2" points="274.96,-129.76 220.96,-129.76 220.96,-90.38 274.96,-90.38 274.96,-129.76"/>
<text text-anchor="start" x="234.83" y="-105.02" font-family="Times,serif" font-size="14.00">Blog</text>
</a>
</g>
</g>
<!-- Blog&#45;&gt;Blog -->
<g id="edge3" class="edge">
<title>Blog&#45;&gt;Blog</title>
<g id="a_edge3"><a xlink:href="docs/unsafe.doPost.html" xlink:title="doPost (unsafe)" target="_parent">
<path fill="none" stroke="black" d="M275.2,-118.53C284.98,-118.72 292.96,-115.9 292.96,-110.07 292.96,-106.79 290.43,-104.47 286.48,-103.09"/>
<polygon fill="black" stroke="black" points="287.07,-99.64 276.7,-101.8 286.16,-106.58 287.07,-99.64"/>
</a>
</g>
<g id="a_edge3&#45;label"><a xlink:href="docs/unsafe.doPost.html" xlink:title="doPost (unsafe)" target="_parent">
<text text-anchor="start" x="292.96" y="-105.22" font-family="Times,serif" font-size="13.00">doPost (unsafe)</text>
</a>
</g>
</g>
<!-- BlogPosting -->
<g id="node2" class="node">
<title>BlogPosting</title>
<g id="a_node2"><a xlink:href="docs/semantic.BlogPosting.html" xlink:title="&lt;TABLE&gt;" target="_parent">
<polygon fill="lightgray" stroke="black" stroke-width="2" points="131.77,-39.38 42.14,-39.38 42.14,0 131.77,0 131.77,-39.38"/>
<text text-anchor="start" x="53.58" y="-14.64" font-family="Times,serif" font-size="14.00">BlogPosting</text>
</a>
</g>
</g>
<!-- Blog&#45;&gt;BlogPosting -->
<g id="edge4" class="edge">
<title>Blog&#45;&gt;BlogPosting</title>
<g id="a_edge4"><a xlink:href="docs/safe.goBlogPosting.html" xlink:title="goBlogPosting, item (safe)" target="_parent">
<path fill="none" stroke="black" d="M220.84,-109.21C163.38,-108.87 32.35,-104.51 4.71,-72.38 -8.54,-56.98 8.88,-44.64 31.04,-35.87"/>
<polygon fill="black" stroke="black" points="32.18,-39.18 40.4,-32.5 29.81,-32.6 32.18,-39.18"/>
</a>
</g>
<g id="a_edge4&#45;label"><a xlink:href="docs/safe.goBlogPosting.html" xlink:title="goBlogPosting, item (safe)" target="_parent">
<text text-anchor="start" x="4.71" y="-60.03" font-family="Times,serif" font-size="13.00">goBlogPosting, item (safe)</text>
</a>
</g>
</g>
<!-- About -->
<g id="node3" class="node">
<title>About</title>
<g id="a_node3"><a xlink:href="docs/semantic.About.html" xlink:title="&lt;TABLE&gt;" target="_parent">
<polygon fill="lightgray" stroke="black" stroke-width="2" points="424.27,-39.38 367.64,-39.38 367.64,0 424.27,0 424.27,-39.38"/>
<text text-anchor="start" x="379.08" y="-14.64" font-family="Times,serif" font-size="14.00">About</text>
</a>
</g>
</g>
<!-- Blog&#45;&gt;About -->
<g id="edge2" class="edge">
<title>Blog&#45;&gt;About</title>
<g id="a_edge2"><a xlink:href="docs/safe.goAbout.html" xlink:title="goAbout, about (safe)" target="_parent">
<path fill="none" stroke="black" d="M275.34,-91.82C284.55,-85.83 294.81,-78.97 303.96,-72.38 312.69,-66.09 313.88,-63.16 322.96,-57.38 333.67,-50.56 345.83,-44.01 357.1,-38.39"/>
<polygon fill="black" stroke="black" points="358.32,-41.69 365.78,-34.17 355.26,-35.4 358.32,-41.69"/>
</a>
</g>
<g id="a_edge2&#45;label"><a xlink:href="docs/safe.goAbout.html" xlink:title="goAbout, about (safe)" target="_parent">
<text text-anchor="start" x="322.96" y="-60.03" font-family="Times,serif" font-size="13.00">goAbout, about (safe)</text>
</a>
</g>
</g>
<!-- BlogPosting&#45;&gt;Blog -->
<g id="edge5" class="edge">
<title>BlogPosting&#45;&gt;Blog</title>
<g id="a_edge5"><a xlink:href="docs/safe.goBlog.html" xlink:title="goBlog, collection (safe)" target="_parent">
<path fill="none" stroke="black" d="M120.34,-39.78C129.44,-45.25 139.2,-51.36 147.96,-57.38 156.9,-63.52 157.93,-66.76 167.21,-72.38 180.75,-80.58 196.44,-88.11 210.36,-94.18"/>
<polygon fill="black" stroke="black" points="208.64,-97.25 219.21,-97.94 211.37,-90.81 208.64,-97.25"/>
</a>
</g>
<g id="a_edge5&#45;label"><a xlink:href="docs/safe.goBlog.html" xlink:title="goBlog, collection (safe)" target="_parent">
<text text-anchor="start" x="167.21" y="-60.03" font-family="Times,serif" font-size="13.00">goBlog, collection (safe)</text>
</a>
</g>
</g>
<!-- About&#45;&gt;Blog -->
<g id="edge1" class="edge">
<title>About&#45;&gt;Blog</title>
<g id="a_edge1"><a xlink:href="docs/safe.goBlog.html" xlink:title="goBlog, collection (safe)" target="_parent">
<path fill="none" stroke="black" d="M424.72,-35.67C440.38,-45.78 454.6,-59.57 443.96,-72.38 424.37,-95.98 337.99,-104.49 286.67,-107.49"/>
<polygon fill="black" stroke="black" points="286.67,-103.98 276.88,-108.01 287.05,-110.97 286.67,-103.98"/>
</a>
</g>
<g id="a_edge1&#45;label"><a xlink:href="docs/safe.goBlog.html" xlink:title="goBlog, collection (safe)" target="_parent">
<text text-anchor="start" x="447.63" y="-60.03" font-family="Times,serif" font-size="13.00">goBlog, collection (safe)</text>
</a>
</g>
</g>
<!-- Index -->
<g id="node4" class="node">
<title>Index</title>
<g id="a_node4"><a xlink:href="docs/semantic.Index.html" xlink:title="&lt;TABLE&gt;" target="_parent">
<polygon fill="lightgray" stroke="black" stroke-width="2" points="274.96,-220.14 220.96,-220.14 220.96,-180.76 274.96,-180.76 274.96,-220.14"/>
<text text-anchor="start" x="232.58" y="-195.4" font-family="Times,serif" font-size="14.00">Index</text>
</a>
</g>
</g>
<!-- Index&#45;&gt;Blog -->
<g id="edge6" class="edge">
<title>Index&#45;&gt;Blog</title>
<g id="a_edge6"><a xlink:href="docs/safe.goBlog.html" xlink:title="goBlog, collection (safe)" target="_parent">
<path fill="none" stroke="black" d="M247.96,-180.27C247.96,-168.92 247.96,-154.29 247.96,-141.41"/>
<polygon fill="black" stroke="black" points="251.46,-141.72 247.96,-131.72 244.46,-141.72 251.46,-141.72"/>
</a>
</g>
<g id="a_edge6&#45;label"><a xlink:href="docs/safe.goBlog.html" xlink:title="goBlog, collection (safe)" target="_parent">
<text text-anchor="start" x="247.96" y="-150.41" font-family="Times,serif" font-size="13.00">goBlog, collection (safe)</text>
</a>
</g>
</g>
</g>
</svg>
