<?xml version="1.0" encoding="UTF-8" standalone="no"?>
<!DOCTYPE svg PUBLIC "-//W3C//DTD SVG 1.1//EN"
 "http://www.w3.org/Graphics/SVG/1.1/DTD/svg11.dtd">
<!-- Generated by graphviz version 2.44.0 (20200408.0750)
 -->
<!-- Title: application_state_diagram Pages: 1 -->
<svg width="247pt" height="264pt"
 viewBox="0.00 0.00 247.00 264.00" xmlns="http://www.w3.org/2000/svg" xmlns:xlink="http://www.w3.org/1999/xlink">
<g id="graph0" class="graph" transform="scale(1 1) rotate(0) translate(4 260)">
<title>application_state_diagram</title>
<polygon fill="white" stroke="transparent" points="-4,4 -4,-260 243,-260 243,4 -4,4"/>
<!-- Blog -->
<g id="node1" class="node">
<title>Blog</title>
<polygon fill="none" stroke="black" points="150,-169 60,-169 60,-125 150,-125 150,-169"/>
<polygon fill="#dddddd" stroke="transparent" points="61,-126 61,-168 149,-168 149,-126 61,-126"/>
<polygon fill="none" stroke="black" points="61,-126 61,-168 149,-168 149,-126 61,-126"/>
<text text-anchor="start" x="91.5" y="-150.8" font-family="Times,serif" font-size="14.00">Blog</text>
<text text-anchor="start" x="67" y="-135.8" font-family="Times,serif" font-size="14.00">(BlogPosting)</text>
</g>
<!-- Blog&#45;&gt;Blog -->
<g id="edge3" class="edge">
<title>Blog&#45;&gt;Blog</title>
<path fill="none" stroke="black" d="M150.02,-155.43C160.39,-154.71 168,-151.9 168,-147 168,-143.86 164.88,-141.58 159.9,-140.16"/>
<polygon fill="black" stroke="black" points="160.45,-136.7 150.02,-138.57 159.34,-143.61 160.45,-136.7"/>
<text text-anchor="middle" x="203.5" y="-143.3" font-family="Times,serif" font-size="14.00">post (unsafe)</text>
</g>
<!-- BlogPosting -->
<g id="node2" class="node">
<title>BlogPosting</title>
<polygon fill="none" stroke="black" points="88,-74 0,-74 0,0 88,0 88,-74"/>
<polygon fill="#dddddd" stroke="transparent" points="1,-1 1,-73 87,-73 87,-1 1,-1"/>
<polygon fill="none" stroke="black" points="1,-1 1,-73 87,-73 87,-1 1,-1"/>
<text text-anchor="start" x="10.5" y="-55.8" font-family="Times,serif" font-size="14.00">BlogPosting</text>
<text text-anchor="start" x="34" y="-40.8" font-family="Times,serif" font-size="14.00">(id)</text>
<text text-anchor="start" x="7.5" y="-25.8" font-family="Times,serif" font-size="14.00">(articleBody)</text>
<text text-anchor="start" x="7" y="-10.8" font-family="Times,serif" font-size="14.00">(dateCreated)</text>
</g>
<!-- Blog&#45;&gt;BlogPosting -->
<g id="edge2" class="edge">
<title>Blog&#45;&gt;BlogPosting</title>
<path fill="none" stroke="black" d="M60.86,-124.84C54.51,-119.88 48.84,-113.96 45,-107 41.17,-100.07 39.26,-92.12 38.52,-84.13"/>
<polygon fill="black" stroke="black" points="42.01,-83.95 38.16,-74.08 35.02,-84.2 42.01,-83.95"/>
<text text-anchor="middle" x="95" y="-95.8" font-family="Times,serif" font-size="14.00">blogPosting (safe)</text>
</g>
<!-- About -->
<g id="node4" class="node">
<title>About</title>
<polygon fill="lightgrey" stroke="black" stroke-width="2" points="194,-55 140,-55 140,-19 194,-19 194,-55"/>
<text text-anchor="middle" x="167" y="-33.3" font-family="Times,serif" font-size="14.00">About</text>
</g>
<!-- Blog&#45;&gt;About -->
<g id="edge4" class="edge">
<title>Blog&#45;&gt;About</title>
<path fill="none" stroke="black" d="M130.36,-124.99C135.76,-119.57 141.02,-113.44 145,-107 152.87,-94.25 158.18,-78.43 161.61,-65.15"/>
<polygon fill="black" stroke="black" points="165.08,-65.69 163.97,-55.15 158.27,-64.08 165.08,-65.69"/>
<text text-anchor="middle" x="184.5" y="-95.8" font-family="Times,serif" font-size="14.00">about (safe)</text>
</g>
<!-- Index -->
<g id="node3" class="node">
<title>Index</title>
<polygon fill="lightgrey" stroke="black" stroke-width="2" points="132,-256 78,-256 78,-220 132,-220 132,-256"/>
<text text-anchor="middle" x="105" y="-234.3" font-family="Times,serif" font-size="14.00">Index</text>
</g>
<!-- Index&#45;&gt;Blog -->
<g id="edge1" class="edge">
<title>Index&#45;&gt;Blog</title>
<path fill="none" stroke="black" d="M105,-219.84C105,-208.44 105,-193.13 105,-179.58"/>
<polygon fill="black" stroke="black" points="108.5,-179.19 105,-169.19 101.5,-179.19 108.5,-179.19"/>
<text text-anchor="middle" x="134.5" y="-190.8" font-family="Times,serif" font-size="14.00">blog (safe)</text>
</g>
</g>
</svg>
