<?xml version="1.0" encoding="UTF-8" standalone="no"?>
<!DOCTYPE svg PUBLIC "-//W3C//DTD SVG 1.1//EN"
 "http://www.w3.org/Graphics/SVG/1.1/DTD/svg11.dtd">
<!-- Generated by graphviz version 13.1.1 (20250719.2154)
 -->
<!-- Title: application_state_diagram Pages: 1 -->
<svg width="3372pt" height="131pt"
 viewBox="0.00 0.00 3372.00 131.00" xmlns="http://www.w3.org/2000/svg" xmlns:xlink="http://www.w3.org/1999/xlink">
<g id="graph0" class="graph" transform="scale(1 1) rotate(0) translate(4 127)">
<title>application_state_diagram</title>
<polygon fill="white" stroke="none" points="-4,4 -4,-127 3367.82,-127 3367.82,4 -4,4"/>
<!-- Home -->
<g id="node1" class="node">
<title>Home</title>
<g id="a_node1"><a xlink:href="#Home" xlink:title="Home" target="_parent">
<polygon fill="lightgray" stroke="black" stroke-width="2" points="1318.57,-123 1241.62,-123 1241.62,-87 1318.57,-87 1318.57,-123"/>
<text xml:space="preserve" text-anchor="middle" x="1280.1" y="-99.95" font-family="Times,serif" font-size="14.00">Home</text>
</a>
</g>
</g>
<!-- goToCatalog -->
<g id="node2" class="node">
<title>goToCatalog</title>
<g id="a_node2"><a xlink:href="#goToCatalog" xlink:title="goToCatalog" target="_parent">
<polygon fill="lightgray" stroke="black" stroke-width="2" points="1048.95,-36 935.25,-36 935.25,0 1048.95,0 1048.95,-36"/>
<text xml:space="preserve" text-anchor="middle" x="992.1" y="-12.95" font-family="Times,serif" font-size="14.00">goToCatalog</text>
</a>
</g>
</g>
<!-- Home&#45;&gt;goToCatalog -->
<g id="edge1" class="edge goToCatalog">
<title>Home&#45;&gt;goToCatalog</title>
<g id="a_edge1"><a xlink:href="#goToCatalog" xlink:title="&lt;TABLE&gt;" target="_parent">
<path fill="none" stroke="black" stroke-width="1.5" d="M1241.24,-91.67C1208.48,-81.35 1160.33,-66.38 1118.1,-54 1099.6,-48.58 1079.52,-42.9 1060.93,-37.74"/>
<polygon fill="black" stroke="black" stroke-width="1.5" points="1062.04,-34.41 1051.46,-35.12 1060.17,-41.16 1062.04,-34.41"/>
</a>
</g>
<g id="a_edge1&#45;label"><a xlink:href="#goToCatalog" xlink:title="&lt;TABLE&gt;" target="_parent">
<g id="a_edge1_0"><a xlink:href="#goToCatalog" xlink:title="Go to Catalog Screen (safe)" target="_parent">
<text xml:space="preserve" text-anchor="start" x="1167.21" y="-57.65" font-family="Times,serif" font-size="13.00" fill="#00a86b">■</text>
<text xml:space="preserve" text-anchor="start" x="1174.71" y="-57.65" font-family="Times,serif" font-size="13.00"> Go to Catalog Screen</text>
</a>
</g>
</a>
</g>
</g>
<!-- goToCart -->
<g id="node3" class="node">
<title>goToCart</title>
<g id="a_node3"><a xlink:href="#goToCart" xlink:title="goToCart" target="_parent">
<polygon fill="lightgray" stroke="black" stroke-width="2" points="2068.57,-36 1973.62,-36 1973.62,0 2068.57,0 2068.57,-36"/>
<text xml:space="preserve" text-anchor="middle" x="2021.1" y="-12.95" font-family="Times,serif" font-size="14.00">goToCart</text>
</a>
</g>
</g>
<!-- Home&#45;&gt;goToCart -->
<g id="edge2" class="edge goToCart">
<title>Home&#45;&gt;goToCart</title>
<g id="a_edge2"><a xlink:href="#goToCart" xlink:title="&lt;TABLE&gt;" target="_parent">
<path fill="none" stroke="black" stroke-width="1.5" d="M1318.96,-100.36C1408.05,-91.98 1620,-71.82 1627.1,-69 1637.26,-64.96 1636.41,-57.96 1646.6,-54 1690.57,-36.93 1811.14,-40.45 1858.1,-36 1892.36,-32.76 1930.63,-28.78 1961.47,-25.49"/>
<polygon fill="black" stroke="black" stroke-width="1.5" points="1961.51,-29.01 1971.08,-24.46 1960.76,-22.05 1961.51,-29.01"/>
</a>
</g>
<g id="a_edge2&#45;label"><a xlink:href="#goToCart" xlink:title="&lt;TABLE&gt;" target="_parent">
<g id="a_edge2_1"><a xlink:href="#goToCart" xlink:title="Go to Cart Screen (safe)" target="_parent">
<text xml:space="preserve" text-anchor="start" x="1646.6" y="-57.65" font-family="Times,serif" font-size="13.00" fill="#00a86b">■</text>
<text xml:space="preserve" text-anchor="start" x="1654.1" y="-57.65" font-family="Times,serif" font-size="13.00"> Go to Cart Screen</text>
</a>
</g>
</a>
</g>
</g>
<!-- Catalog -->
<g id="node4" class="node">
<title>Catalog</title>
<g id="a_node4"><a xlink:href="#Catalog" xlink:title="Catalog" target="_parent">
<polygon fill="lightgray" stroke="black" stroke-width="2" points="1561.7,-123 1476.5,-123 1476.5,-87 1561.7,-87 1561.7,-123"/>
<text xml:space="preserve" text-anchor="middle" x="1519.1" y="-99.95" font-family="Times,serif" font-size="14.00">Catalog</text>
</a>
</g>
</g>
<!-- Catalog&#45;&gt;goToCart -->
<g id="edge7" class="edge goToCart">
<title>Catalog&#45;&gt;goToCart</title>
<g id="a_edge7"><a xlink:href="#goToCart" xlink:title="&lt;TABLE&gt;" target="_parent">
<path fill="none" stroke="black" stroke-width="1.5" d="M1562.04,-102.49C1652.45,-98.97 1859.6,-88.94 1927.1,-69 1938.14,-65.74 1960.71,-53.81 1980.96,-42.42"/>
<polygon fill="black" stroke="black" stroke-width="1.5" points="1982.64,-45.49 1989.6,-37.5 1979.18,-39.4 1982.64,-45.49"/>
</a>
</g>
<g id="a_edge7&#45;label"><a xlink:href="#goToCart" xlink:title="&lt;TABLE&gt;" target="_parent">
<g id="a_edge7_2"><a xlink:href="#goToCart" xlink:title="Go to Cart Screen (safe)" target="_parent">
<text xml:space="preserve" text-anchor="start" x="1957.41" y="-57.65" font-family="Times,serif" font-size="13.00" fill="#00a86b">■</text>
<text xml:space="preserve" text-anchor="start" x="1964.91" y="-57.65" font-family="Times,serif" font-size="13.00"> Go to Cart Screen</text>
</a>
</g>
</a>
</g>
</g>
<!-- goListBooks -->
<g id="node5" class="node">
<title>goListBooks</title>
<g id="a_node5"><a xlink:href="#goListBooks" xlink:title="goListBooks" target="_parent">
<polygon fill="lightgray" stroke="black" stroke-width="2" points="1329.2,-36 1217,-36 1217,0 1329.2,0 1329.2,-36"/>
<text xml:space="preserve" text-anchor="middle" x="1273.1" y="-12.95" font-family="Times,serif" font-size="14.00">goListBooks</text>
</a>
</g>
</g>
<!-- Catalog&#45;&gt;goListBooks -->
<g id="edge3" class="edge goListBooks">
<title>Catalog&#45;&gt;goListBooks</title>
<g id="a_edge3"><a xlink:href="#goListBooks" xlink:title="&lt;TABLE&gt;" target="_parent">
<path fill="none" stroke="black" stroke-width="1.5" d="M1476.22,-102.72C1436.24,-100.04 1375.88,-92.09 1328.85,-69 1316.77,-63.07 1305.35,-53.76 1296.02,-44.78"/>
<polygon fill="black" stroke="black" stroke-width="1.5" points="1298.54,-42.34 1289.04,-37.66 1293.54,-47.25 1298.54,-42.34"/>
</a>
</g>
<g id="a_edge3&#45;label"><a xlink:href="#goListBooks" xlink:title="&lt;TABLE&gt;" target="_parent">
<g id="a_edge3_3"><a xlink:href="#goListBooks" xlink:title="Get Book List (safe)" target="_parent">
<text xml:space="preserve" text-anchor="start" x="1328.85" y="-57.65" font-family="Times,serif" font-size="13.00" fill="#00a86b">■</text>
<text xml:space="preserve" text-anchor="start" x="1336.35" y="-57.65" font-family="Times,serif" font-size="13.00"> Get Book List</text>
</a>
</g>
</a>
</g>
</g>
<!-- goSearchBooks -->
<g id="node6" class="node">
<title>goSearchBooks</title>
<g id="a_node6"><a xlink:href="#goSearchBooks" xlink:title="goSearchBooks" target="_parent">
<polygon fill="lightgray" stroke="black" stroke-width="2" points="1475.07,-36 1347.12,-36 1347.12,0 1475.07,0 1475.07,-36"/>
<text xml:space="preserve" text-anchor="middle" x="1411.1" y="-12.95" font-family="Times,serif" font-size="14.00">goSearchBooks</text>
</a>
</g>
</g>
<!-- Catalog&#45;&gt;goSearchBooks -->
<g id="edge4" class="edge goSearchBooks">
<title>Catalog&#45;&gt;goSearchBooks</title>
<g id="a_edge4"><a xlink:href="#goSearchBooks" xlink:title="&lt;TABLE&gt;" target="_parent">
<path fill="none" stroke="black" stroke-width="1.5" d="M1476.34,-95.74C1459.48,-90.56 1441.13,-82.25 1428.35,-69 1422.74,-63.19 1418.95,-55.47 1416.39,-47.84"/>
<polygon fill="black" stroke="black" stroke-width="1.5" points="1419.84,-47.17 1413.88,-38.4 1413.07,-48.97 1419.84,-47.17"/>
</a>
</g>
<g id="a_edge4&#45;label"><a xlink:href="#goSearchBooks" xlink:title="&lt;TABLE&gt;" target="_parent">
<g id="a_edge4_4"><a xlink:href="#goSearchBooks" xlink:title="Search Books (safe)" target="_parent">
<text xml:space="preserve" text-anchor="start" x="1428.35" y="-57.65" font-family="Times,serif" font-size="13.00" fill="#00a86b">■</text>
<text xml:space="preserve" text-anchor="start" x="1435.85" y="-57.65" font-family="Times,serif" font-size="13.00"> Search Books</text>
</a>
</g>
</a>
</g>
</g>
<!-- goGetCategories -->
<g id="node7" class="node">
<title>goGetCategories</title>
<g id="a_node7"><a xlink:href="#goGetCategories" xlink:title="goGetCategories" target="_parent">
<polygon fill="lightgray" stroke="black" stroke-width="2" points="1627.07,-36 1493.12,-36 1493.12,0 1627.07,0 1627.07,-36"/>
<text xml:space="preserve" text-anchor="middle" x="1560.1" y="-12.95" font-family="Times,serif" font-size="14.00">goGetCategories</text>
</a>
</g>
</g>
<!-- Catalog&#45;&gt;goGetCategories -->
<g id="edge5" class="edge goGetCategories">
<title>Catalog&#45;&gt;goGetCategories</title>
<g id="a_edge5"><a xlink:href="#goGetCategories" xlink:title="&lt;TABLE&gt;" target="_parent">
<path fill="none" stroke="black" stroke-width="1.5" d="M1516.32,-86.55C1515.51,-76.57 1515.89,-64.07 1520.6,-54 1522.01,-50.99 1523.81,-48.13 1525.86,-45.44"/>
<polygon fill="black" stroke="black" stroke-width="1.5" points="1528.4,-47.85 1532.63,-38.14 1523.27,-43.1 1528.4,-47.85"/>
</a>
</g>
<g id="a_edge5&#45;label"><a xlink:href="#goGetCategories" xlink:title="&lt;TABLE&gt;" target="_parent">
<g id="a_edge5_5"><a xlink:href="#goGetCategories" xlink:title="Get Category List (safe)" target="_parent">
<text xml:space="preserve" text-anchor="start" x="1520.6" y="-57.65" font-family="Times,serif" font-size="13.00" fill="#00a86b">■</text>
<text xml:space="preserve" text-anchor="start" x="1528.1" y="-57.65" font-family="Times,serif" font-size="13.00"> Get Category List</text>
</a>
</g>
</a>
</g>
</g>
<!-- goToBookDetails -->
<g id="node8" class="node">
<title>goToBookDetails</title>
<g id="a_node8"><a xlink:href="#goToBookDetails" xlink:title="goToBookDetails" target="_parent">
<polygon fill="lightgray" stroke="black" stroke-width="2" points="1848.7,-36 1709.5,-36 1709.5,0 1848.7,0 1848.7,-36"/>
<text xml:space="preserve" text-anchor="middle" x="1779.1" y="-12.95" font-family="Times,serif" font-size="14.00">goToBookDetails</text>
</a>
</g>
</g>
<!-- Catalog&#45;&gt;goToBookDetails -->
<g id="edge6" class="edge goToBookDetails">
<title>Catalog&#45;&gt;goToBookDetails</title>
<g id="a_edge6"><a xlink:href="#goToBookDetails" xlink:title="&lt;TABLE&gt;" target="_parent">
<path fill="none" stroke="black" stroke-width="1.5" d="M1562.17,-102.58C1622.27,-99.79 1727.29,-91.72 1757.1,-69 1764.09,-63.67 1768.91,-55.64 1772.2,-47.57"/>
<polygon fill="black" stroke="black" stroke-width="1.5" points="1775.49,-48.77 1775.31,-38.18 1768.85,-46.57 1775.49,-48.77"/>
</a>
</g>
<g id="a_edge6&#45;label"><a xlink:href="#goToBookDetails" xlink:title="&lt;TABLE&gt;" target="_parent">
<g id="a_edge6_6"><a xlink:href="#goToBookDetails" xlink:title="Go to Book Details Screen (safe)" target="_parent">
<text xml:space="preserve" text-anchor="start" x="1769.04" y="-57.65" font-family="Times,serif" font-size="13.00" fill="#00a86b">■</text>
<text xml:space="preserve" text-anchor="start" x="1776.54" y="-57.65" font-family="Times,serif" font-size="13.00"> Go to Book Details Screen</text>
</a>
</g>
</a>
</g>
</g>
<!-- Book -->
<g id="node9" class="node">
<title>Book</title>
<g id="a_node9"><a xlink:href="#Book" xlink:title="Book" target="_parent">
<polygon fill="lightgray" stroke="black" stroke-width="2" points="275.33,-123 202.88,-123 202.88,-87 275.33,-87 275.33,-123"/>
<text xml:space="preserve" text-anchor="middle" x="239.1" y="-99.95" font-family="Times,serif" font-size="14.00">Book</text>
</a>
</g>
</g>
<!-- Book&#45;&gt;goToCatalog -->
<g id="edge9" class="edge goToCatalog">
<title>Book&#45;&gt;goToCatalog</title>
<g id="a_edge9"><a xlink:href="#goToCatalog" xlink:title="&lt;TABLE&gt;" target="_parent">
<path fill="none" stroke="black" stroke-width="1.5" d="M275.76,-101.13C374.21,-93.39 637.54,-72.42 646.1,-69 656.01,-65.04 654.92,-57.92 664.85,-54 712.79,-35.06 844.97,-42.5 896.1,-36 904.76,-34.9 913.82,-33.55 922.78,-32.1"/>
<polygon fill="black" stroke="black" stroke-width="1.5" points="923.35,-35.56 932.64,-30.45 922.2,-28.65 923.35,-35.56"/>
</a>
</g>
<g id="a_edge9&#45;label"><a xlink:href="#goToCatalog" xlink:title="&lt;TABLE&gt;" target="_parent">
<g id="a_edge9_7"><a xlink:href="#goToCatalog" xlink:title="Go to Catalog Screen (safe)" target="_parent">
<text xml:space="preserve" text-anchor="start" x="664.85" y="-57.65" font-family="Times,serif" font-size="13.00" fill="#00a86b">■</text>
<text xml:space="preserve" text-anchor="start" x="672.35" y="-57.65" font-family="Times,serif" font-size="13.00"> Go to Catalog Screen</text>
</a>
</g>
</a>
</g>
</g>
<!-- doAddToCart -->
<g id="node10" class="node">
<title>doAddToCart</title>
<g id="a_node10"><a xlink:href="#doAddToCart" xlink:title="doAddToCart" target="_parent">
<polygon fill="lightgray" stroke="black" stroke-width="2" points="118.2,-36 0,-36 0,0 118.2,0 118.2,-36"/>
<text xml:space="preserve" text-anchor="middle" x="59.1" y="-12.95" font-family="Times,serif" font-size="14.00">doAddToCart</text>
</a>
</g>
</g>
<!-- Book&#45;&gt;doAddToCart -->
<g id="edge8" class="edge doAddToCart">
<title>Book&#45;&gt;doAddToCart</title>
<g id="a_edge8"><a xlink:href="#doAddToCart" xlink:title="&lt;TABLE&gt;" target="_parent">
<path fill="none" stroke="black" stroke-width="1.5" d="M202.52,-97.37C178.01,-91.97 145.55,-82.93 119.35,-69 107.16,-62.52 95.16,-53.32 85.12,-44.57"/>
<polygon fill="black" stroke="black" stroke-width="1.5" points="87.59,-42.08 77.83,-37.95 82.88,-47.26 87.59,-42.08"/>
</a>
</g>
<g id="a_edge8&#45;label"><a xlink:href="#doAddToCart" xlink:title="&lt;TABLE&gt;" target="_parent">
<g id="a_edge8_8"><a xlink:href="#doAddToCart" xlink:title="Add to Cart (unsafe)" target="_parent">
<text xml:space="preserve" text-anchor="start" x="119.35" y="-57.65" font-family="Times,serif" font-size="13.00" fill="#ff4136">■</text>
<text xml:space="preserve" text-anchor="start" x="126.85" y="-57.65" font-family="Times,serif" font-size="13.00"> Add to Cart</text>
</a>
</g>
</a>
</g>
</g>
<!-- ShoppingCart -->
<g id="node11" class="node">
<title>ShoppingCart</title>
<g id="a_node11"><a xlink:href="#ShoppingCart" xlink:title="ShoppingCart" target="_parent">
<polygon fill="lightgray" stroke="black" stroke-width="2" points="591.2,-123 473,-123 473,-87 591.2,-87 591.2,-123"/>
<text xml:space="preserve" text-anchor="middle" x="532.1" y="-99.95" font-family="Times,serif" font-size="14.00">ShoppingCart</text>
</a>
</g>
</g>
<!-- ShoppingCart&#45;&gt;goToCatalog -->
<g id="edge14" class="edge goToCatalog">
<title>ShoppingCart&#45;&gt;goToCatalog</title>
<g id="a_edge14"><a xlink:href="#goToCatalog" xlink:title="&lt;TABLE&gt;" target="_parent">
<path fill="none" stroke="black" stroke-width="1.5" d="M591.56,-102.21C702.46,-98.44 932.43,-88.36 963.1,-69 971.15,-63.92 977.22,-55.73 981.66,-47.45"/>
<polygon fill="black" stroke="black" stroke-width="1.5" points="984.81,-48.97 985.81,-38.43 978.45,-46.05 984.81,-48.97"/>
</a>
</g>
<g id="a_edge14&#45;label"><a xlink:href="#goToCatalog" xlink:title="&lt;TABLE&gt;" target="_parent">
<g id="a_edge14_9"><a xlink:href="#goToCatalog" xlink:title="Go to Catalog Screen (safe)" target="_parent">
<text xml:space="preserve" text-anchor="start" x="977.24" y="-57.65" font-family="Times,serif" font-size="13.00" fill="#00a86b">■</text>
<text xml:space="preserve" text-anchor="start" x="984.74" y="-57.65" font-family="Times,serif" font-size="13.00"> Go to Catalog Screen</text>
</a>
</g>
</a>
</g>
</g>
<!-- goListCartItems -->
<g id="node12" class="node">
<title>goListCartItems</title>
<g id="a_node12"><a xlink:href="#goListCartItems" xlink:title="goListCartItems" target="_parent">
<polygon fill="lightgray" stroke="black" stroke-width="2" points="597.95,-36 466.25,-36 466.25,0 597.95,0 597.95,-36"/>
<text xml:space="preserve" text-anchor="middle" x="532.1" y="-12.95" font-family="Times,serif" font-size="14.00">goListCartItems</text>
</a>
</g>
</g>
<!-- ShoppingCart&#45;&gt;goListCartItems -->
<g id="edge10" class="edge goListCartItems">
<title>ShoppingCart&#45;&gt;goListCartItems</title>
<g id="a_edge10"><a xlink:href="#goListCartItems" xlink:title="&lt;TABLE&gt;" target="_parent">
<path fill="none" stroke="black" stroke-width="1.5" d="M532.1,-86.8C532.1,-75.81 532.1,-61.28 532.1,-48.48"/>
<polygon fill="black" stroke="black" stroke-width="1.5" points="535.6,-48.74 532.1,-38.74 528.6,-48.74 535.6,-48.74"/>
</a>
</g>
<g id="a_edge10&#45;label"><a xlink:href="#goListCartItems" xlink:title="&lt;TABLE&gt;" target="_parent">
<g id="a_edge10_10"><a xlink:href="#goListCartItems" xlink:title="Get Cart Items List (safe)" target="_parent">
<text xml:space="preserve" text-anchor="start" x="532.1" y="-57.65" font-family="Times,serif" font-size="13.00" fill="#00a86b">■</text>
<text xml:space="preserve" text-anchor="start" x="539.6" y="-57.65" font-family="Times,serif" font-size="13.00"> Get Cart Items List</text>
</a>
</g>
</a>
</g>
</g>
<!-- doUpdateQuantity -->
<g id="node13" class="node">
<title>doUpdateQuantity</title>
<g id="a_node13"><a xlink:href="#doUpdateQuantity" xlink:title="doUpdateQuantity" target="_parent">
<polygon fill="lightgray" stroke="black" stroke-width="2" points="887.58,-36 744.62,-36 744.62,0 887.58,0 887.58,-36"/>
<text xml:space="preserve" text-anchor="middle" x="816.1" y="-12.95" font-family="Times,serif" font-size="14.00">doUpdateQuantity</text>
</a>
</g>
</g>
<!-- ShoppingCart&#45;&gt;doUpdateQuantity -->
<g id="edge11" class="edge doUpdateQuantity">
<title>ShoppingCart&#45;&gt;doUpdateQuantity</title>
<g id="a_edge11"><a xlink:href="#doUpdateQuantity" xlink:title="&lt;TABLE&gt;" target="_parent">
<path fill="none" stroke="black" stroke-width="1.5" d="M591.57,-102.69C658.85,-100.09 763.1,-92.3 794.1,-69 801.13,-63.72 805.95,-55.7 809.25,-47.63"/>
<polygon fill="black" stroke="black" stroke-width="1.5" points="812.54,-48.81 812.34,-38.22 805.89,-46.62 812.54,-48.81"/>
</a>
</g>
<g id="a_edge11&#45;label"><a xlink:href="#doUpdateQuantity" xlink:title="&lt;TABLE&gt;" target="_parent">
<g id="a_edge11_11"><a xlink:href="#doUpdateQuantity" xlink:title="Update Cart Item Quantity (idempotent)" target="_parent">
<text xml:space="preserve" text-anchor="start" x="806.08" y="-57.65" font-family="Times,serif" font-size="13.00" fill="#ffdc00">■</text>
<text xml:space="preserve" text-anchor="start" x="813.58" y="-57.65" font-family="Times,serif" font-size="13.00"> Update Cart Item Quantity</text>
</a>
</g>
</a>
</g>
</g>
<!-- doRemoveFromCart -->
<g id="node14" class="node">
<title>doRemoveFromCart</title>
<g id="a_node14"><a xlink:href="#doRemoveFromCart" xlink:title="doRemoveFromCart" target="_parent">
<polygon fill="lightgray" stroke="black" stroke-width="2" points="291.95,-36 136.25,-36 136.25,0 291.95,0 291.95,-36"/>
<text xml:space="preserve" text-anchor="middle" x="214.1" y="-12.95" font-family="Times,serif" font-size="14.00">doRemoveFromCart</text>
</a>
</g>
</g>
<!-- ShoppingCart&#45;&gt;doRemoveFromCart -->
<g id="edge12" class="edge doRemoveFromCart">
<title>ShoppingCart&#45;&gt;doRemoveFromCart</title>
<g id="a_edge12"><a xlink:href="#doRemoveFromCart" xlink:title="&lt;TABLE&gt;" target="_parent">
<path fill="none" stroke="black" stroke-width="1.5" d="M472.68,-103.01C399.15,-100.74 279.18,-93.31 242.6,-69 234.7,-63.75 228.75,-55.53 224.38,-47.25"/>
<polygon fill="black" stroke="black" stroke-width="1.5" points="227.62,-45.94 220.3,-38.28 221.25,-48.83 227.62,-45.94"/>
</a>
</g>
<g id="a_edge12&#45;label"><a xlink:href="#doRemoveFromCart" xlink:title="&lt;TABLE&gt;" target="_parent">
<g id="a_edge12_12"><a xlink:href="#doRemoveFromCart" xlink:title="Remove Item from Cart (idempotent)" target="_parent">
<text xml:space="preserve" text-anchor="start" x="242.6" y="-57.65" font-family="Times,serif" font-size="13.00" fill="#ffdc00">■</text>
<text xml:space="preserve" text-anchor="start" x="250.1" y="-57.65" font-family="Times,serif" font-size="13.00"> Remove Item from Cart</text>
</a>
</g>
</a>
</g>
</g>
<!-- goToCheckout -->
<g id="node15" class="node">
<title>goToCheckout</title>
<g id="a_node15"><a xlink:href="#goToCheckout" xlink:title="goToCheckout" target="_parent">
<polygon fill="lightgray" stroke="black" stroke-width="2" points="435.83,-36 312.38,-36 312.38,0 435.83,0 435.83,-36"/>
<text xml:space="preserve" text-anchor="middle" x="374.1" y="-12.95" font-family="Times,serif" font-size="14.00">goToCheckout</text>
</a>
</g>
</g>
<!-- ShoppingCart&#45;&gt;goToCheckout -->
<g id="edge13" class="edge goToCheckout">
<title>ShoppingCart&#45;&gt;goToCheckout</title>
<g id="a_edge13"><a xlink:href="#goToCheckout" xlink:title="&lt;TABLE&gt;" target="_parent">
<path fill="none" stroke="black" stroke-width="1.5" d="M472.55,-101.32C445.49,-97.25 414.76,-88.27 393.1,-69 386.83,-63.43 382.63,-55.56 379.8,-47.72"/>
<polygon fill="black" stroke="black" stroke-width="1.5" points="383.23,-46.96 377.11,-38.31 376.49,-48.89 383.23,-46.96"/>
</a>
</g>
<g id="a_edge13&#45;label"><a xlink:href="#goToCheckout" xlink:title="&lt;TABLE&gt;" target="_parent">
<g id="a_edge13_13"><a xlink:href="#goToCheckout" xlink:title="Go to Checkout Screen (safe)" target="_parent">
<text xml:space="preserve" text-anchor="start" x="393.1" y="-57.65" font-family="Times,serif" font-size="13.00" fill="#00a86b">■</text>
<text xml:space="preserve" text-anchor="start" x="400.6" y="-57.65" font-family="Times,serif" font-size="13.00"> Go to Checkout Screen</text>
</a>
</g>
</a>
</g>
</g>
<!-- Checkout -->
<g id="node16" class="node">
<title>Checkout</title>
<g id="a_node16"><a xlink:href="#Checkout" xlink:title="Checkout" target="_parent">
<polygon fill="lightgray" stroke="black" stroke-width="2" points="2341.57,-123 2246.62,-123 2246.62,-87 2341.57,-87 2341.57,-123"/>
<text xml:space="preserve" text-anchor="middle" x="2294.1" y="-99.95" font-family="Times,serif" font-size="14.00">Checkout</text>
</a>
</g>
</g>
<!-- Checkout&#45;&gt;goToCart -->
<g id="edge18" class="edge goToCart">
<title>Checkout&#45;&gt;goToCart</title>
<g id="a_edge18"><a xlink:href="#goToCart" xlink:title="&lt;TABLE&gt;" target="_parent">
<path fill="none" stroke="black" stroke-width="1.5" d="M2246.48,-100.35C2206.68,-96.13 2148.99,-87.26 2101.6,-69 2084.8,-62.53 2067.65,-52.45 2053.52,-43.03"/>
<polygon fill="black" stroke="black" stroke-width="1.5" points="2055.91,-40.43 2045.69,-37.64 2051.94,-46.19 2055.91,-40.43"/>
</a>
</g>
<g id="a_edge18&#45;label"><a xlink:href="#goToCart" xlink:title="&lt;TABLE&gt;" target="_parent">
<g id="a_edge18_14"><a xlink:href="#goToCart" xlink:title="Go to Cart Screen (safe)" target="_parent">
<text xml:space="preserve" text-anchor="start" x="2101.6" y="-57.65" font-family="Times,serif" font-size="13.00" fill="#00a86b">■</text>
<text xml:space="preserve" text-anchor="start" x="2109.1" y="-57.65" font-family="Times,serif" font-size="13.00"> Go to Cart Screen</text>
</a>
</g>
</a>
</g>
</g>
<!-- doUserInfo -->
<g id="node17" class="node">
<title>doUserInfo</title>
<g id="a_node17"><a xlink:href="#doUserInfo" xlink:title="doUserInfo" target="_parent">
<polygon fill="lightgray" stroke="black" stroke-width="2" points="2268.45,-36 2163.75,-36 2163.75,0 2268.45,0 2268.45,-36"/>
<text xml:space="preserve" text-anchor="middle" x="2216.1" y="-12.95" font-family="Times,serif" font-size="14.00">doUserInfo</text>
</a>
</g>
</g>
<!-- Checkout&#45;&gt;doUserInfo -->
<g id="edge15" class="edge doUserInfo">
<title>Checkout&#45;&gt;doUserInfo</title>
<g id="a_edge15"><a xlink:href="#doUserInfo" xlink:title="&lt;TABLE&gt;" target="_parent">
<path fill="none" stroke="black" stroke-width="1.5" d="M2246.33,-92.21C2234.79,-87.02 2223.79,-79.59 2216.85,-69 2212.87,-62.93 2211.41,-55.5 2211.25,-48.25"/>
<polygon fill="black" stroke="black" stroke-width="1.5" points="2214.74,-48.55 2211.89,-38.35 2207.75,-48.1 2214.74,-48.55"/>
</a>
</g>
<g id="a_edge15&#45;label"><a xlink:href="#doUserInfo" xlink:title="&lt;TABLE&gt;" target="_parent">
<g id="a_edge15_15"><a xlink:href="#doUserInfo" xlink:title="Input User Information (unsafe)" target="_parent">
<text xml:space="preserve" text-anchor="start" x="2216.85" y="-57.65" font-family="Times,serif" font-size="13.00" fill="#ff4136">■</text>
<text xml:space="preserve" text-anchor="start" x="2224.35" y="-57.65" font-family="Times,serif" font-size="13.00"> Input User Information</text>
</a>
</g>
</a>
</g>
</g>
<!-- doShippingInfo -->
<g id="node18" class="node">
<title>doShippingInfo</title>
<g id="a_node18"><a xlink:href="#doShippingInfo" xlink:title="doShippingInfo" target="_parent">
<polygon fill="lightgray" stroke="black" stroke-width="2" points="2437.07,-36 2309.12,-36 2309.12,0 2437.07,0 2437.07,-36"/>
<text xml:space="preserve" text-anchor="middle" x="2373.1" y="-12.95" font-family="Times,serif" font-size="14.00">doShippingInfo</text>
</a>
</g>
</g>
<!-- Checkout&#45;&gt;doShippingInfo -->
<g id="edge16" class="edge doShippingInfo">
<title>Checkout&#45;&gt;doShippingInfo</title>
<g id="a_edge16"><a xlink:href="#doShippingInfo" xlink:title="&lt;TABLE&gt;" target="_parent">
<path fill="none" stroke="black" stroke-width="1.5" d="M2329.81,-86.67C2337.53,-81.74 2345.15,-75.83 2351.1,-69 2356.5,-62.81 2360.77,-55.08 2364.04,-47.57"/>
<polygon fill="black" stroke="black" stroke-width="1.5" points="2367.28,-48.9 2367.59,-38.31 2360.75,-46.39 2367.28,-48.9"/>
</a>
</g>
<g id="a_edge16&#45;label"><a xlink:href="#doShippingInfo" xlink:title="&lt;TABLE&gt;" target="_parent">
<g id="a_edge16_16"><a xlink:href="#doShippingInfo" xlink:title="Input Shipping Information (unsafe)" target="_parent">
<text xml:space="preserve" text-anchor="start" x="2360.93" y="-57.65" font-family="Times,serif" font-size="13.00" fill="#ff4136">■</text>
<text xml:space="preserve" text-anchor="start" x="2368.43" y="-57.65" font-family="Times,serif" font-size="13.00"> Input Shipping Information</text>
</a>
</g>
</a>
</g>
</g>
<!-- goToPayment -->
<g id="node19" class="node">
<title>goToPayment</title>
<g id="a_node19"><a xlink:href="#goToPayment" xlink:title="goToPayment" target="_parent">
<polygon fill="lightgray" stroke="black" stroke-width="2" points="2613.95,-36 2494.25,-36 2494.25,0 2613.95,0 2613.95,-36"/>
<text xml:space="preserve" text-anchor="middle" x="2554.1" y="-12.95" font-family="Times,serif" font-size="14.00">goToPayment</text>
</a>
</g>
</g>
<!-- Checkout&#45;&gt;goToPayment -->
<g id="edge17" class="edge goToPayment">
<title>Checkout&#45;&gt;goToPayment</title>
<g id="a_edge17"><a xlink:href="#goToPayment" xlink:title="&lt;TABLE&gt;" target="_parent">
<path fill="none" stroke="black" stroke-width="1.5" d="M2342.06,-101.25C2399.96,-97.15 2493.19,-87.81 2522.1,-69 2530.39,-63.61 2536.96,-55.23 2541.94,-46.87"/>
<polygon fill="black" stroke="black" stroke-width="1.5" points="2544.97,-48.62 2546.51,-38.14 2538.77,-45.37 2544.97,-48.62"/>
</a>
</g>
<g id="a_edge17&#45;label"><a xlink:href="#goToPayment" xlink:title="&lt;TABLE&gt;" target="_parent">
<g id="a_edge17_17"><a xlink:href="#goToPayment" xlink:title="Go to Payment Screen (safe)" target="_parent">
<text xml:space="preserve" text-anchor="start" x="2536.91" y="-57.65" font-family="Times,serif" font-size="13.00" fill="#00a86b">■</text>
<text xml:space="preserve" text-anchor="start" x="2544.41" y="-57.65" font-family="Times,serif" font-size="13.00"> Go to Payment Screen</text>
</a>
</g>
</a>
</g>
</g>
<!-- Payment -->
<g id="node20" class="node">
<title>Payment</title>
<g id="a_node20"><a xlink:href="#Payment" xlink:title="Payment" target="_parent">
<polygon fill="lightgray" stroke="black" stroke-width="2" points="3033.7,-123 2942.5,-123 2942.5,-87 3033.7,-87 3033.7,-123"/>
<text xml:space="preserve" text-anchor="middle" x="2988.1" y="-99.95" font-family="Times,serif" font-size="14.00">Payment</text>
</a>
</g>
</g>
<!-- Payment&#45;&gt;goToCart -->
<g id="edge23" class="edge goToCart">
<title>Payment&#45;&gt;goToCart</title>
<g id="a_edge23"><a xlink:href="#goToCart" xlink:title="&lt;TABLE&gt;" target="_parent">
<path fill="none" stroke="black" stroke-width="1.5" d="M2942.28,-98.92C2891.54,-92.99 2807.4,-82.3 2735.6,-69 2706.66,-63.64 2700.28,-57.86 2671.1,-54 2443.61,-23.87 2383.83,-54.46 2155.1,-36 2130.83,-34.04 2104.2,-30.87 2081.12,-27.8"/>
<polygon fill="black" stroke="black" stroke-width="1.5" points="2081.69,-24.35 2071.3,-26.47 2080.74,-31.28 2081.69,-24.35"/>
</a>
</g>
<g id="a_edge23&#45;label"><a xlink:href="#goToCart" xlink:title="&lt;TABLE&gt;" target="_parent">
<g id="a_edge23_18"><a xlink:href="#goToCart" xlink:title="Go to Cart Screen (safe)" target="_parent">
<text xml:space="preserve" text-anchor="start" x="2735.6" y="-57.65" font-family="Times,serif" font-size="13.00" fill="#00a86b">■</text>
<text xml:space="preserve" text-anchor="start" x="2743.1" y="-57.65" font-family="Times,serif" font-size="13.00"> Go to Cart Screen</text>
</a>
</g>
</a>
</g>
</g>
<!-- doPaymentInfo -->
<g id="node21" class="node">
<title>doPaymentInfo</title>
<g id="a_node21"><a xlink:href="#doPaymentInfo" xlink:title="doPaymentInfo" target="_parent">
<polygon fill="lightgray" stroke="black" stroke-width="2" points="3190.7,-36 3063.5,-36 3063.5,0 3190.7,0 3190.7,-36"/>
<text xml:space="preserve" text-anchor="middle" x="3127.1" y="-12.95" font-family="Times,serif" font-size="14.00">doPaymentInfo</text>
</a>
</g>
</g>
<!-- Payment&#45;&gt;doPaymentInfo -->
<g id="edge19" class="edge doPaymentInfo">
<title>Payment&#45;&gt;doPaymentInfo</title>
<g id="a_edge19"><a xlink:href="#doPaymentInfo" xlink:title="&lt;TABLE&gt;" target="_parent">
<path fill="none" stroke="black" stroke-width="1.5" d="M3034.2,-99.45C3057.78,-95.02 3085.55,-86.26 3105.1,-69 3111.52,-63.33 3116.15,-55.44 3119.45,-47.6"/>
<polygon fill="black" stroke="black" stroke-width="1.5" points="3122.75,-48.77 3122.75,-38.17 3116.14,-46.45 3122.75,-48.77"/>
</a>
</g>
<g id="a_edge19&#45;label"><a xlink:href="#doPaymentInfo" xlink:title="&lt;TABLE&gt;" target="_parent">
<g id="a_edge19_19"><a xlink:href="#doPaymentInfo" xlink:title="Input Payment Information (unsafe)" target="_parent">
<text xml:space="preserve" text-anchor="start" x="3115.86" y="-57.65" font-family="Times,serif" font-size="13.00" fill="#ff4136">■</text>
<text xml:space="preserve" text-anchor="start" x="3123.36" y="-57.65" font-family="Times,serif" font-size="13.00"> Input Payment Information</text>
</a>
</g>
</a>
</g>
</g>
<!-- doPlaceOrder -->
<g id="node22" class="node">
<title>doPlaceOrder</title>
<g id="a_node22"><a xlink:href="#doPlaceOrder" xlink:title="doPlaceOrder" target="_parent">
<polygon fill="lightgray" stroke="black" stroke-width="2" points="3363.82,-36 3246.38,-36 3246.38,0 3363.82,0 3363.82,-36"/>
<text xml:space="preserve" text-anchor="middle" x="3305.1" y="-12.95" font-family="Times,serif" font-size="14.00">doPlaceOrder</text>
</a>
</g>
</g>
<!-- Payment&#45;&gt;doPlaceOrder -->
<g id="edge20" class="edge doPlaceOrder">
<title>Payment&#45;&gt;doPlaceOrder</title>
<g id="a_edge20"><a xlink:href="#doPlaceOrder" xlink:title="&lt;TABLE&gt;" target="_parent">
<path fill="none" stroke="black" stroke-width="1.5" d="M3033.96,-103.23C3104.69,-101.25 3236.32,-94.18 3275.1,-69 3283.16,-63.77 3289.36,-55.55 3293.98,-47.27"/>
<polygon fill="black" stroke="black" stroke-width="1.5" points="3297.13,-48.8 3298.33,-38.27 3290.83,-45.75 3297.13,-48.8"/>
</a>
</g>
<g id="a_edge20&#45;label"><a xlink:href="#doPlaceOrder" xlink:title="&lt;TABLE&gt;" target="_parent">
<g id="a_edge20_20"><a xlink:href="#doPlaceOrder" xlink:title="Place Order (unsafe)" target="_parent">
<text xml:space="preserve" text-anchor="start" x="3289.41" y="-57.65" font-family="Times,serif" font-size="13.00" fill="#ff4136">■</text>
<text xml:space="preserve" text-anchor="start" x="3296.91" y="-57.65" font-family="Times,serif" font-size="13.00"> Place Order</text>
</a>
</g>
</a>
</g>
</g>
<!-- goOrderDetails -->
<g id="node23" class="node">
<title>goOrderDetails</title>
<g id="a_node23"><a xlink:href="#goOrderDetails" xlink:title="goOrderDetails" target="_parent">
<polygon fill="lightgray" stroke="black" stroke-width="2" points="2900.32,-36 2773.88,-36 2773.88,0 2900.32,0 2900.32,-36"/>
<text xml:space="preserve" text-anchor="middle" x="2837.1" y="-12.95" font-family="Times,serif" font-size="14.00">goOrderDetails</text>
</a>
</g>
</g>
<!-- Payment&#45;&gt;goOrderDetails -->
<g id="edge21" class="edge goOrderDetails">
<title>Payment&#45;&gt;goOrderDetails</title>
<g id="a_edge21"><a xlink:href="#goOrderDetails" xlink:title="&lt;TABLE&gt;" target="_parent">
<path fill="none" stroke="black" stroke-width="1.5" d="M2942.07,-102.2C2914.06,-98.81 2879.28,-90.19 2855.85,-69 2849.64,-63.38 2845.48,-55.51 2842.69,-47.66"/>
<polygon fill="black" stroke="black" stroke-width="1.5" points="2846.13,-46.95 2840.05,-38.27 2839.39,-48.84 2846.13,-46.95"/>
</a>
</g>
<g id="a_edge21&#45;label"><a xlink:href="#goOrderDetails" xlink:title="&lt;TABLE&gt;" target="_parent">
<g id="a_edge21_21"><a xlink:href="#goOrderDetails" xlink:title="Display Order Details (safe)" target="_parent">
<text xml:space="preserve" text-anchor="start" x="2855.85" y="-57.65" font-family="Times,serif" font-size="13.00" fill="#00a86b">■</text>
<text xml:space="preserve" text-anchor="start" x="2863.35" y="-57.65" font-family="Times,serif" font-size="13.00"> Display Order Details</text>
</a>
</g>
</a>
</g>
</g>
<!-- goToHome -->
<g id="node24" class="node">
<title>goToHome</title>
<g id="a_node24"><a xlink:href="#goToHome" xlink:title="goToHome" target="_parent">
<polygon fill="lightgray" stroke="black" stroke-width="2" points="3040.82,-36 2935.38,-36 2935.38,0 3040.82,0 3040.82,-36"/>
<text xml:space="preserve" text-anchor="middle" x="2988.1" y="-12.95" font-family="Times,serif" font-size="14.00">goToHome</text>
</a>
</g>
</g>
<!-- Payment&#45;&gt;goToHome -->
<g id="edge22" class="edge goToHome">
<title>Payment&#45;&gt;goToHome</title>
<g id="a_edge22"><a xlink:href="#goToHome" xlink:title="&lt;TABLE&gt;" target="_parent">
<path fill="none" stroke="black" stroke-width="1.5" d="M2988.1,-86.8C2988.1,-75.81 2988.1,-61.28 2988.1,-48.48"/>
<polygon fill="black" stroke="black" stroke-width="1.5" points="2991.6,-48.74 2988.1,-38.74 2984.6,-48.74 2991.6,-48.74"/>
</a>
</g>
<g id="a_edge22&#45;label"><a xlink:href="#goToHome" xlink:title="&lt;TABLE&gt;" target="_parent">
<g id="a_edge22_22"><a xlink:href="#goToHome" xlink:title="Go to Home Screen (safe)" target="_parent">
<text xml:space="preserve" text-anchor="start" x="2988.1" y="-57.65" font-family="Times,serif" font-size="13.00" fill="#00a86b">■</text>
<text xml:space="preserve" text-anchor="start" x="2995.6" y="-57.65" font-family="Times,serif" font-size="13.00"> Go to Home Screen</text>
</a>
</g>
</a>
</g>
</g>
</g>
</svg>
