<?xml version="1.0" encoding="UTF-8" standalone="no"?>
<!DOCTYPE svg PUBLIC "-//W3C//DTD SVG 1.1//EN"
 "http://www.w3.org/Graphics/SVG/1.1/DTD/svg11.dtd">
<!-- Generated by graphviz version 2.44.1 (20200629.0846)
 -->
<!-- Title: application_state_diagram Pages: 1 -->
<svg width="483pt" height="287pt"
 viewBox="0.00 0.00 483.27 287.00" xmlns="http://www.w3.org/2000/svg" xmlns:xlink="http://www.w3.org/1999/xlink">
<g id="graph0" class="graph" transform="scale(1 1) rotate(0) translate(4 283)">
<title>application_state_diagram</title>
<g id="a_graph0"><a xlink:href="index.html" xlink:title="ALPS example">
<polygon fill="white" stroke="transparent" points="-4,4 -4,-283 479.27,-283 479.27,4 -4,4"/>
<text text-anchor="middle" x="237.64" y="-7.8" font-family="Helvetica,sans-Serif" font-size="14.00">ALPS example</text>
</a>
</g>
<!-- Blog -->
<g id="node1" class="node">
<title>Blog</title>
<g id="a_node1"><a xlink:href="docs/semantic.Blog.html" xlink:title="&lt;TABLE&gt;">
<polygon fill="none" stroke="black" points="275.27,-192 185.27,-192 185.27,-148 275.27,-148 275.27,-192"/>
<polygon fill="#dddddd" stroke="transparent" points="186.27,-149 186.27,-191 274.27,-191 274.27,-149 186.27,-149"/>
<polygon fill="none" stroke="black" points="186.27,-149 186.27,-191 274.27,-191 274.27,-149 186.27,-149"/>
<text text-anchor="start" x="216.77" y="-173.8" font-family="Times,serif" font-size="14.00">Blog</text>
<text text-anchor="start" x="192.27" y="-158.8" font-family="Times,serif" font-size="14.00">(BlogPosting)</text>
</a>
</g>
</g>
<!-- Blog&#45;&gt;Blog -->
<g id="edge4" class="edge">
<title>Blog&#45;&gt;Blog</title>
<g id="a_edge4"><a xlink:href="docs/unsafe.post.html" xlink:title="post (unsafe)">
<path fill="none" stroke="black" d="M275.29,-178.43C285.66,-177.71 293.27,-174.9 293.27,-170 293.27,-166.86 290.15,-164.58 285.18,-163.16"/>
<polygon fill="black" stroke="black" points="285.72,-159.7 275.29,-161.57 284.61,-166.61 285.72,-159.7"/>
</a>
</g>
<g id="a_edge4&#45;label"><a xlink:href="docs/unsafe.post.html" xlink:title="post (unsafe)">
<text text-anchor="middle" x="328.77" y="-166.3" font-family="Times,serif" font-size="14.00">post (unsafe)</text>
</a>
</g>
</g>
<!-- BlogPosting -->
<g id="node2" class="node">
<title>BlogPosting</title>
<g id="a_node2"><a xlink:href="docs/semantic.BlogPosting.html" xlink:title="&lt;TABLE&gt;">
<polygon fill="none" stroke="black" points="126.27,-97 38.27,-97 38.27,-23 126.27,-23 126.27,-97"/>
<polygon fill="#dddddd" stroke="transparent" points="39.27,-24 39.27,-96 125.27,-96 125.27,-24 39.27,-24"/>
<polygon fill="none" stroke="black" points="39.27,-24 39.27,-96 125.27,-96 125.27,-24 39.27,-24"/>
<text text-anchor="start" x="48.77" y="-78.8" font-family="Times,serif" font-size="14.00">BlogPosting</text>
<text text-anchor="start" x="72.27" y="-63.8" font-family="Times,serif" font-size="14.00">(id)</text>
<text text-anchor="start" x="45.77" y="-48.8" font-family="Times,serif" font-size="14.00">(articleBody)</text>
<text text-anchor="start" x="45.27" y="-33.8" font-family="Times,serif" font-size="14.00">(dateCreated)</text>
</a>
</g>
</g>
<!-- Blog&#45;&gt;BlogPosting -->
<g id="edge3" class="edge">
<title>Blog&#45;&gt;BlogPosting</title>
<g id="a_edge3"><a xlink:href="docs/safe.blogPosting.html" xlink:title="blogPosting, item (safe)">
<path fill="none" stroke="black" d="M185.17,-167.8C126.22,-165.16 27.8,-156.77 5.27,-130 -8.75,-113.34 7.8,-96.98 29.1,-84.37"/>
<polygon fill="black" stroke="black" points="31.06,-87.29 38.11,-79.39 27.67,-81.17 31.06,-87.29"/>
</a>
</g>
<g id="a_edge3&#45;label"><a xlink:href="docs/safe.blogPosting.html" xlink:title="blogPosting, item (safe)">
<text text-anchor="middle" x="71.27" y="-118.8" font-family="Times,serif" font-size="14.00">blogPosting, item (safe)</text>
</a>
</g>
</g>
<!-- About -->
<g id="node4" class="node">
<title>About</title>
<g id="a_node4"><a xlink:href="docs/semantic.About.html" xlink:title="About">
<polygon fill="lightgrey" stroke="black" stroke-width="2" points="373.27,-78 319.27,-78 319.27,-42 373.27,-42 373.27,-78"/>
<text text-anchor="middle" x="346.27" y="-56.3" font-family="Times,serif" font-size="14.00">About</text>
</a>
</g>
</g>
<!-- Blog&#45;&gt;About -->
<g id="edge5" class="edge">
<title>Blog&#45;&gt;About</title>
<g id="a_edge5"><a xlink:href="docs/safe.about.html" xlink:title="about (safe)">
<path fill="none" stroke="black" d="M258.89,-147.83C266.04,-142.23 273.58,-136.05 280.27,-130 295.69,-116.06 311.84,-99.22 324.3,-85.67"/>
<polygon fill="black" stroke="black" points="327.04,-87.87 331.18,-78.12 321.86,-83.15 327.04,-87.87"/>
</a>
</g>
<g id="a_edge5&#45;label"><a xlink:href="docs/safe.about.html" xlink:title="about (safe)">
<text text-anchor="middle" x="327.77" y="-118.8" font-family="Times,serif" font-size="14.00">about (safe)</text>
</a>
</g>
</g>
<!-- BlogPosting&#45;&gt;Blog -->
<g id="edge6" class="edge">
<title>BlogPosting&#45;&gt;Blog</title>
<g id="a_edge6"><a xlink:href="docs/safe.blog.html" xlink:title="blog, collection (safe)">
<path fill="none" stroke="black" d="M119.34,-97.27C133.63,-110.88 148.4,-124.4 156.27,-130 162.68,-134.55 169.69,-138.93 176.76,-142.99"/>
<polygon fill="black" stroke="black" points="175.26,-146.16 185.7,-147.96 178.66,-140.04 175.26,-146.16"/>
</a>
</g>
<g id="a_edge6&#45;label"><a xlink:href="docs/safe.blog.html" xlink:title="blog, collection (safe)">
<text text-anchor="middle" x="216.27" y="-118.8" font-family="Times,serif" font-size="14.00">blog, collection (safe)</text>
</a>
</g>
</g>
<!-- Index -->
<g id="node3" class="node">
<title>Index</title>
<g id="a_node3"><a xlink:href="docs/semantic.Index.html" xlink:title="Index">
<polygon fill="lightgrey" stroke="black" stroke-width="2" points="257.27,-279 203.27,-279 203.27,-243 257.27,-243 257.27,-279"/>
<text text-anchor="middle" x="230.27" y="-257.3" font-family="Times,serif" font-size="14.00">Index</text>
</a>
</g>
</g>
<!-- Index&#45;&gt;Blog -->
<g id="edge1" class="edge">
<title>Index&#45;&gt;Blog</title>
<g id="a_edge1"><a xlink:href="docs/safe.start.html" xlink:title="start (safe)">
<path fill="none" stroke="black" d="M230.27,-242.84C230.27,-231.44 230.27,-216.13 230.27,-202.58"/>
<polygon fill="black" stroke="black" points="233.77,-202.19 230.27,-192.19 226.77,-202.19 233.77,-202.19"/>
</a>
</g>
<g id="a_edge1&#45;label"><a xlink:href="docs/safe.start.html" xlink:title="start (safe)">
<text text-anchor="middle" x="259.27" y="-213.8" font-family="Times,serif" font-size="14.00">start (safe)</text>
</a>
</g>
</g>
<!-- About&#45;&gt;Blog -->
<g id="edge2" class="edge">
<title>About&#45;&gt;Blog</title>
<g id="a_edge2"><a xlink:href="docs/safe.backToBlog.html" xlink:title="backToBlog (safe)">
<path fill="none" stroke="black" d="M359.73,-78.07C369.75,-93.01 379.88,-114.66 368.27,-130 357.99,-143.6 319.2,-153.81 285.35,-160.37"/>
<polygon fill="black" stroke="black" points="284.7,-156.93 275.51,-162.2 285.98,-163.81 284.7,-156.93"/>
</a>
</g>
<g id="a_edge2&#45;label"><a xlink:href="docs/safe.backToBlog.html" xlink:title="backToBlog (safe)">
<text text-anchor="middle" x="424.27" y="-118.8" font-family="Times,serif" font-size="14.00">backToBlog (safe)</text>
</a>
</g>
</g>
</g>
</svg>
