<?xml version="1.0" encoding="UTF-8" standalone="no"?>
<!DOCTYPE svg PUBLIC "-//W3C//DTD SVG 1.1//EN"
 "http://www.w3.org/Graphics/SVG/1.1/DTD/svg11.dtd">
<!-- Generated by graphviz version 2.44.1 (20200629.0846)
 -->
<!-- Title: application_state_diagram Pages: 1 -->
<svg width="268pt" height="264pt"
 viewBox="0.00 0.00 268.48 264.00" xmlns="http://www.w3.org/2000/svg" xmlns:xlink="http://www.w3.org/1999/xlink">
<g id="graph0" class="graph" transform="scale(1 1) rotate(0) translate(4 260)">
<title>application_state_diagram</title>
<polygon fill="white" stroke="transparent" points="-4,4 -4,-260 264.48,-260 264.48,4 -4,4"/>
<!-- Blog -->
<g id="node1" class="node">
<title>Blog</title>
<g id="a_node1"><a xlink:href="docs/semantic.Blog.html" xlink:title="&lt;TABLE&gt;">
<polygon fill="none" stroke="black" points="171.48,-169 81.48,-169 81.48,-125 171.48,-125 171.48,-169"/>
<polygon fill="#dddddd" stroke="transparent" points="82.48,-126 82.48,-168 170.48,-168 170.48,-126 82.48,-126"/>
<polygon fill="none" stroke="black" points="82.48,-126 82.48,-168 170.48,-168 170.48,-126 82.48,-126"/>
<text text-anchor="start" x="112.98" y="-150.8" font-family="Times,serif" font-size="14.00">Blog</text>
<text text-anchor="start" x="88.48" y="-135.8" font-family="Times,serif" font-size="14.00">(BlogPosting)</text>
</a>
</g>
</g>
<!-- Blog&#45;&gt;Blog -->
<g id="edge3" class="edge">
<title>Blog&#45;&gt;Blog</title>
<g id="a_edge3"><a xlink:href="docs/unsafe.post.html" xlink:title="post (unsafe)">
<path fill="none" stroke="black" d="M171.5,-155.43C181.86,-154.71 189.48,-151.9 189.48,-147 189.48,-143.86 186.35,-141.58 181.38,-140.16"/>
<polygon fill="black" stroke="black" points="181.93,-136.7 171.5,-138.57 180.81,-143.61 181.93,-136.7"/>
</a>
</g>
<g id="a_edge3&#45;label"><a xlink:href="docs/unsafe.post.html" xlink:title="post (unsafe)">
<text text-anchor="middle" x="224.98" y="-143.3" font-family="Times,serif" font-size="14.00">post (unsafe)</text>
</a>
</g>
</g>
<!-- BlogPosting -->
<g id="node2" class="node">
<title>BlogPosting</title>
<g id="a_node2"><a xlink:href="docs/semantic.BlogPosting.html" xlink:title="&lt;TABLE&gt;">
<polygon fill="none" stroke="black" points="105.48,-74 17.48,-74 17.48,0 105.48,0 105.48,-74"/>
<polygon fill="#dddddd" stroke="transparent" points="18.48,-1 18.48,-73 104.48,-73 104.48,-1 18.48,-1"/>
<polygon fill="none" stroke="black" points="18.48,-1 18.48,-73 104.48,-73 104.48,-1 18.48,-1"/>
<text text-anchor="start" x="27.98" y="-55.8" font-family="Times,serif" font-size="14.00">BlogPosting</text>
<text text-anchor="start" x="51.48" y="-40.8" font-family="Times,serif" font-size="14.00">(id)</text>
<text text-anchor="start" x="24.98" y="-25.8" font-family="Times,serif" font-size="14.00">(articleBody)</text>
<text text-anchor="start" x="24.48" y="-10.8" font-family="Times,serif" font-size="14.00">(dateCreated)</text>
</a>
</g>
</g>
<!-- Blog&#45;&gt;BlogPosting -->
<g id="edge2" class="edge">
<title>Blog&#45;&gt;BlogPosting</title>
<g id="a_edge2"><a xlink:href="docs/safe.blogPosting.html" xlink:title="blogPosting (safe)">
<path fill="none" stroke="black" d="M81.43,-144.23C54.41,-140.55 21.98,-130.97 4.48,-107 -3.71,-95.78 0.76,-83.99 10.06,-73.39"/>
<polygon fill="black" stroke="black" points="12.59,-75.81 17.17,-66.26 7.63,-70.87 12.59,-75.81"/>
</a>
</g>
<g id="a_edge2&#45;label"><a xlink:href="docs/safe.blogPosting.html" xlink:title="blogPosting (safe)">
<text text-anchor="middle" x="54.48" y="-95.8" font-family="Times,serif" font-size="14.00">blogPosting (safe)</text>
</a>
</g>
</g>
<!-- About -->
<g id="node4" class="node">
<title>About</title>
<g id="a_node4"><a xlink:href="docs/semantic.About.html" xlink:title="About">
<polygon fill="lightgrey" stroke="black" stroke-width="2" points="235.48,-55 181.48,-55 181.48,-19 235.48,-19 235.48,-55"/>
<text text-anchor="middle" x="208.48" y="-33.3" font-family="Times,serif" font-size="14.00">About</text>
</a>
</g>
</g>
<!-- Blog&#45;&gt;About -->
<g id="edge4" class="edge">
<title>Blog&#45;&gt;About</title>
<g id="a_edge4"><a xlink:href="docs/safe.about.html" xlink:title="about (safe)">
<path fill="none" stroke="black" d="M157.45,-124.86C163.92,-119.53 170.33,-113.46 175.48,-107 185.49,-94.42 193.42,-78.29 198.99,-64.8"/>
<polygon fill="black" stroke="black" points="202.4,-65.68 202.79,-55.09 195.88,-63.13 202.4,-65.68"/>
</a>
</g>
<g id="a_edge4&#45;label"><a xlink:href="docs/safe.about.html" xlink:title="about (safe)">
<text text-anchor="middle" x="216.98" y="-95.8" font-family="Times,serif" font-size="14.00">about (safe)</text>
</a>
</g>
</g>
<!-- BlogPosting&#45;&gt;Blog -->
<g id="edge5" class="edge">
<title>BlogPosting&#45;&gt;Blog</title>
<g id="a_edge5"><a xlink:href="docs/safe.blog.html" xlink:title="blog (safe)">
<path fill="none" stroke="black" d="M92.55,-74.18C96.84,-79.95 100.96,-86 104.48,-92 108.72,-99.25 112.52,-107.47 115.73,-115.27"/>
<polygon fill="black" stroke="black" points="112.56,-116.78 119.45,-124.83 119.08,-114.24 112.56,-116.78"/>
</a>
</g>
<g id="a_edge5&#45;label"><a xlink:href="docs/safe.blog.html" xlink:title="blog (safe)">
<text text-anchor="middle" x="141.98" y="-95.8" font-family="Times,serif" font-size="14.00">blog (safe)</text>
</a>
</g>
</g>
<!-- Index -->
<g id="node3" class="node">
<title>Index</title>
<g id="a_node3"><a xlink:href="docs/semantic.Index.html" xlink:title="Index">
<polygon fill="lightgrey" stroke="black" stroke-width="2" points="153.48,-256 99.48,-256 99.48,-220 153.48,-220 153.48,-256"/>
<text text-anchor="middle" x="126.48" y="-234.3" font-family="Times,serif" font-size="14.00">Index</text>
</a>
</g>
</g>
<!-- Index&#45;&gt;Blog -->
<g id="edge1" class="edge">
<title>Index&#45;&gt;Blog</title>
<g id="a_edge1"><a xlink:href="docs/safe.blog.html" xlink:title="blog (safe)">
<path fill="none" stroke="black" d="M126.48,-219.84C126.48,-208.44 126.48,-193.13 126.48,-179.58"/>
<polygon fill="black" stroke="black" points="129.98,-179.19 126.48,-169.19 122.98,-179.19 129.98,-179.19"/>
</a>
</g>
<g id="a_edge1&#45;label"><a xlink:href="docs/safe.blog.html" xlink:title="blog (safe)">
<text text-anchor="middle" x="155.98" y="-190.8" font-family="Times,serif" font-size="14.00">blog (safe)</text>
</a>
</g>
</g>
</g>
</svg>
