<?xml version="1.0" encoding="UTF-8" standalone="no"?>
<!DOCTYPE svg PUBLIC "-//W3C//DTD SVG 1.1//EN"
 "http://www.w3.org/Graphics/SVG/1.1/DTD/svg11.dtd">
<!-- Generated by graphviz version 2.44.1 (20200629.0846)
 -->
<!-- Title: application_state_diagram Pages: 1 -->
<svg width="353pt" height="264pt"
 viewBox="0.00 0.00 352.83 264.00" xmlns="http://www.w3.org/2000/svg" xmlns:xlink="http://www.w3.org/1999/xlink">
<g id="graph0" class="graph" transform="scale(1 1) rotate(0) translate(4 260)">
<title>application_state_diagram</title>
<polygon fill="white" stroke="transparent" points="-4,4 -4,-260 348.83,-260 348.83,4 -4,4"/>
<!-- Blog -->
<g id="node1" class="node">
<title>Blog</title>
<g id="a_node1"><a xlink:href="docs/semantic.Blog.html" xlink:title="&lt;TABLE&gt;">
<polygon fill="none" stroke="black" points="203.83,-169 113.83,-169 113.83,-125 203.83,-125 203.83,-169"/>
<polygon fill="#dddddd" stroke="transparent" points="114.83,-126 114.83,-168 202.83,-168 202.83,-126 114.83,-126"/>
<polygon fill="none" stroke="black" points="114.83,-126 114.83,-168 202.83,-168 202.83,-126 114.83,-126"/>
<text text-anchor="start" x="145.33" y="-150.8" font-family="Times,serif" font-size="14.00">Blog</text>
<text text-anchor="start" x="120.83" y="-135.8" font-family="Times,serif" font-size="14.00">(BlogPosting)</text>
</a>
</g>
</g>
<!-- Blog&#45;&gt;Blog -->
<g id="edge3" class="edge">
<title>Blog&#45;&gt;Blog</title>
<g id="a_edge3"><a xlink:href="docs/unsafe.post.html" xlink:title="post (unsafe)">
<path fill="none" stroke="black" d="M203.85,-155.43C214.21,-154.71 221.83,-151.9 221.83,-147 221.83,-143.86 218.7,-141.58 213.73,-140.16"/>
<polygon fill="black" stroke="black" points="214.28,-136.7 203.85,-138.57 213.16,-143.61 214.28,-136.7"/>
</a>
</g>
<g id="a_edge3&#45;label"><a xlink:href="docs/unsafe.post.html" xlink:title="post (unsafe)">
<text text-anchor="middle" x="257.33" y="-143.3" font-family="Times,serif" font-size="14.00">post (unsafe)</text>
</a>
</g>
</g>
<!-- BlogPosting -->
<g id="node2" class="node">
<title>BlogPosting</title>
<g id="a_node2"><a xlink:href="docs/semantic.BlogPosting.html" xlink:title="&lt;TABLE&gt;">
<polygon fill="none" stroke="black" points="125.83,-74 37.83,-74 37.83,0 125.83,0 125.83,-74"/>
<polygon fill="#dddddd" stroke="transparent" points="38.83,-1 38.83,-73 124.83,-73 124.83,-1 38.83,-1"/>
<polygon fill="none" stroke="black" points="38.83,-1 38.83,-73 124.83,-73 124.83,-1 38.83,-1"/>
<text text-anchor="start" x="48.33" y="-55.8" font-family="Times,serif" font-size="14.00">BlogPosting</text>
<text text-anchor="start" x="71.83" y="-40.8" font-family="Times,serif" font-size="14.00">(id)</text>
<text text-anchor="start" x="45.33" y="-25.8" font-family="Times,serif" font-size="14.00">(articleBody)</text>
<text text-anchor="start" x="44.83" y="-10.8" font-family="Times,serif" font-size="14.00">(dateCreated)</text>
</a>
</g>
</g>
<!-- Blog&#45;&gt;BlogPosting -->
<g id="edge2" class="edge">
<title>Blog&#45;&gt;BlogPosting</title>
<g id="a_edge2"><a xlink:href="docs/safe.blogPosting.html" xlink:title="blogPosting, item (safe)">
<path fill="none" stroke="black" d="M113.51,-140.68C73.03,-134.88 18.12,-124.09 4.83,-107 -8.45,-89.94 7.8,-73.67 28.73,-61.21"/>
<polygon fill="black" stroke="black" points="30.55,-64.21 37.59,-56.29 27.15,-58.09 30.55,-64.21"/>
</a>
</g>
<g id="a_edge2&#45;label"><a xlink:href="docs/safe.blogPosting.html" xlink:title="blogPosting, item (safe)">
<text text-anchor="middle" x="70.83" y="-95.8" font-family="Times,serif" font-size="14.00">blogPosting, item (safe)</text>
</a>
</g>
</g>
<!-- About -->
<g id="node4" class="node">
<title>About</title>
<g id="a_node4"><a xlink:href="docs/semantic.About.html" xlink:title="About">
<polygon fill="lightgrey" stroke="black" stroke-width="2" points="328.83,-55 274.83,-55 274.83,-19 328.83,-19 328.83,-55"/>
<text text-anchor="middle" x="301.83" y="-33.3" font-family="Times,serif" font-size="14.00">About</text>
</a>
</g>
</g>
<!-- Blog&#45;&gt;About -->
<g id="edge4" class="edge">
<title>Blog&#45;&gt;About</title>
<g id="a_edge4"><a xlink:href="docs/safe.about.html" xlink:title="about (safe)">
<path fill="none" stroke="black" d="M203.94,-138.37C225.66,-132.77 250.83,-123.2 268.83,-107 281.22,-95.85 289.39,-79.04 294.5,-64.81"/>
<polygon fill="black" stroke="black" points="297.92,-65.61 297.7,-55.02 291.27,-63.44 297.92,-65.61"/>
</a>
</g>
<g id="a_edge4&#45;label"><a xlink:href="docs/safe.about.html" xlink:title="about (safe)">
<text text-anchor="middle" x="312.33" y="-95.8" font-family="Times,serif" font-size="14.00">about (safe)</text>
</a>
</g>
</g>
<!-- BlogPosting&#45;&gt;Blog -->
<g id="edge5" class="edge">
<title>BlogPosting&#45;&gt;Blog</title>
<g id="a_edge5"><a xlink:href="docs/safe.blog.html" xlink:title="blog, collection (safe)">
<path fill="none" stroke="black" d="M122.72,-74.29C127.85,-79.91 132.73,-85.89 136.83,-92 141.6,-99.11 145.62,-107.42 148.86,-115.36"/>
<polygon fill="black" stroke="black" points="145.61,-116.65 152.43,-124.75 152.15,-114.16 145.61,-116.65"/>
</a>
</g>
<g id="a_edge5&#45;label"><a xlink:href="docs/safe.blog.html" xlink:title="blog, collection (safe)">
<text text-anchor="middle" x="204.83" y="-95.8" font-family="Times,serif" font-size="14.00">blog, collection (safe)</text>
</a>
</g>
</g>
<!-- Index -->
<g id="node3" class="node">
<title>Index</title>
<g id="a_node3"><a xlink:href="docs/semantic.Index.html" xlink:title="Index">
<polygon fill="lightgrey" stroke="black" stroke-width="2" points="185.83,-256 131.83,-256 131.83,-220 185.83,-220 185.83,-256"/>
<text text-anchor="middle" x="158.83" y="-234.3" font-family="Times,serif" font-size="14.00">Index</text>
</a>
</g>
</g>
<!-- Index&#45;&gt;Blog -->
<g id="edge1" class="edge">
<title>Index&#45;&gt;Blog</title>
<g id="a_edge1"><a xlink:href="docs/safe.start.html" xlink:title="start (safe)">
<path fill="none" stroke="black" d="M158.83,-219.84C158.83,-208.44 158.83,-193.13 158.83,-179.58"/>
<polygon fill="black" stroke="black" points="162.33,-179.19 158.83,-169.19 155.33,-179.19 162.33,-179.19"/>
</a>
</g>
<g id="a_edge1&#45;label"><a xlink:href="docs/safe.start.html" xlink:title="start (safe)">
<text text-anchor="middle" x="187.83" y="-190.8" font-family="Times,serif" font-size="14.00">start (safe)</text>
</a>
</g>
</g>
</g>
</svg>
