<?xml version="1.0" encoding="UTF-8" standalone="no"?>
<!DOCTYPE svg PUBLIC "-//W3C//DTD SVG 1.1//EN"
 "http://www.w3.org/Graphics/SVG/1.1/DTD/svg11.dtd">
<!-- Generated by graphviz version 2.44.1 (20200629.0846)
 -->
<!-- Title: application_state_diagram Pages: 1 -->
<svg width="473pt" height="285pt"
 viewBox="0.00 0.00 473.21 285.00" xmlns="http://www.w3.org/2000/svg" xmlns:xlink="http://www.w3.org/1999/xlink">
<g id="graph0" class="graph" transform="scale(1 1) rotate(0) translate(4 281)">
<title>application_state_diagram</title>
<g id="a_graph0"><a xlink:href="index.html" xlink:title="ALPS example">
<polygon fill="white" stroke="transparent" points="-4,4 -4,-281 469.21,-281 469.21,4 -4,4"/>
<text text-anchor="middle" x="232.61" y="-7.8" font-family="Helvetica,sans-Serif" font-size="14.00">ALPS example</text>
</a>
</g>
<!-- Blog -->
<g id="node1" class="node">
<title>Blog</title>
<g id="a_node1"><a xlink:href="docs/semantic.Blog.html" xlink:title="&lt;TABLE&gt;">
<polygon fill="none" stroke="black" points="270.21,-191 180.21,-191 180.21,-147 270.21,-147 270.21,-191"/>
<polygon fill="#dddddd" stroke="transparent" points="181.21,-148 181.21,-190 269.21,-190 269.21,-148 181.21,-148"/>
<polygon fill="none" stroke="black" points="181.21,-148 181.21,-190 269.21,-190 269.21,-148 181.21,-148"/>
<text text-anchor="start" x="211.71" y="-172.8" font-family="Times,serif" font-size="14.00">Blog</text>
<text text-anchor="start" x="187.21" y="-157.8" font-family="Times,serif" font-size="14.00">(BlogPosting)</text>
</a>
</g>
</g>
<!-- Blog&#45;&gt;Blog -->
<g id="edge4" class="edge">
<title>Blog&#45;&gt;Blog</title>
<g id="a_edge4"><a xlink:href="docs/unsafe.post.html" xlink:title="post (unsafe)">
<path fill="none" stroke="black" d="M270.23,-177.43C280.6,-176.71 288.21,-173.9 288.21,-169 288.21,-165.86 285.09,-163.58 280.12,-162.16"/>
<polygon fill="black" stroke="black" points="280.66,-158.7 270.23,-160.57 279.55,-165.61 280.66,-158.7"/>
</a>
</g>
<g id="a_edge4&#45;label"><a xlink:href="docs/unsafe.post.html" xlink:title="post (unsafe)">
<text text-anchor="middle" x="323.21" y="-165.6" font-family="Times,serif" font-size="13.00">post (unsafe)</text>
</a>
</g>
</g>
<!-- BlogPosting -->
<g id="node2" class="node">
<title>BlogPosting</title>
<g id="a_node2"><a xlink:href="docs/semantic.BlogPosting.html" xlink:title="&lt;TABLE&gt;">
<polygon fill="none" stroke="black" points="124.21,-97 36.21,-97 36.21,-23 124.21,-23 124.21,-97"/>
<polygon fill="#dddddd" stroke="transparent" points="37.21,-24 37.21,-96 123.21,-96 123.21,-24 37.21,-24"/>
<polygon fill="none" stroke="black" points="37.21,-24 37.21,-96 123.21,-96 123.21,-24 37.21,-24"/>
<text text-anchor="start" x="46.71" y="-78.8" font-family="Times,serif" font-size="14.00">BlogPosting</text>
<text text-anchor="start" x="70.21" y="-63.8" font-family="Times,serif" font-size="14.00">(id)</text>
<text text-anchor="start" x="43.71" y="-48.8" font-family="Times,serif" font-size="14.00">(articleBody)</text>
<text text-anchor="start" x="43.21" y="-33.8" font-family="Times,serif" font-size="14.00">(dateCreated)</text>
</a>
</g>
</g>
<!-- Blog&#45;&gt;BlogPosting -->
<g id="edge3" class="edge">
<title>Blog&#45;&gt;BlogPosting</title>
<g id="a_edge3"><a xlink:href="docs/safe.blogPosting.html" xlink:title="blogPosting, item (safe)">
<path fill="none" stroke="black" d="M180.12,-166.59C122.36,-163.73 27.08,-155.08 5.21,-129 -8.23,-112.97 7.04,-97.15 27.22,-84.81"/>
<polygon fill="black" stroke="black" points="29.15,-87.74 36.1,-79.74 25.68,-81.66 29.15,-87.74"/>
</a>
</g>
<g id="a_edge3&#45;label"><a xlink:href="docs/safe.blogPosting.html" xlink:title="blogPosting, item (safe)">
<text text-anchor="middle" x="69.21" y="-118.6" font-family="Times,serif" font-size="13.00">blogPosting, item (safe)</text>
</a>
</g>
</g>
<!-- About -->
<g id="node4" class="node">
<title>About</title>
<g id="a_node4"><a xlink:href="docs/semantic.About.html" xlink:title="About">
<polygon fill="lightgrey" stroke="black" stroke-width="2" points="366.21,-78 312.21,-78 312.21,-42 366.21,-42 366.21,-78"/>
<text text-anchor="middle" x="339.21" y="-56.3" font-family="Times,serif" font-size="14.00">About</text>
</a>
</g>
</g>
<!-- Blog&#45;&gt;About -->
<g id="edge5" class="edge">
<title>Blog&#45;&gt;About</title>
<g id="a_edge5"><a xlink:href="docs/safe.about.html" xlink:title="about (safe)">
<path fill="none" stroke="black" d="M252.97,-146.98C260.05,-141.32 267.55,-135.09 274.21,-129 289.23,-115.28 305.02,-98.82 317.28,-85.52"/>
<polygon fill="black" stroke="black" points="319.89,-87.85 324.05,-78.11 314.73,-83.13 319.89,-87.85"/>
</a>
</g>
<g id="a_edge5&#45;label"><a xlink:href="docs/safe.about.html" xlink:title="about (safe)">
<text text-anchor="middle" x="319.21" y="-118.6" font-family="Times,serif" font-size="13.00">about (safe)</text>
</a>
</g>
</g>
<!-- BlogPosting&#45;&gt;Blog -->
<g id="edge6" class="edge">
<title>BlogPosting&#45;&gt;Blog</title>
<g id="a_edge6"><a xlink:href="docs/safe.blog.html" xlink:title="blog, collection (safe)">
<path fill="none" stroke="black" d="M114.82,-97.24C126.18,-108.13 139.23,-119.66 152.21,-129 158.53,-133.54 165.43,-137.91 172.4,-141.97"/>
<polygon fill="black" stroke="black" points="170.79,-145.08 181.22,-146.94 174.23,-138.98 170.79,-145.08"/>
</a>
</g>
<g id="a_edge6&#45;label"><a xlink:href="docs/safe.blog.html" xlink:title="blog, collection (safe)">
<text text-anchor="middle" x="211.21" y="-118.6" font-family="Times,serif" font-size="13.00">blog, collection (safe)</text>
</a>
</g>
</g>
<!-- Index -->
<g id="node3" class="node">
<title>Index</title>
<g id="a_node3"><a xlink:href="docs/semantic.Index.html" xlink:title="Index">
<polygon fill="lightgrey" stroke="black" stroke-width="2" points="252.21,-277 198.21,-277 198.21,-241 252.21,-241 252.21,-277"/>
<text text-anchor="middle" x="225.21" y="-255.3" font-family="Times,serif" font-size="14.00">Index</text>
</a>
</g>
</g>
<!-- Index&#45;&gt;Blog -->
<g id="edge1" class="edge">
<title>Index&#45;&gt;Blog</title>
<g id="a_edge1"><a xlink:href="docs/safe.start.html" xlink:title="start (safe)">
<path fill="none" stroke="black" d="M225.21,-240.61C225.21,-229.39 225.21,-214.46 225.21,-201.23"/>
<polygon fill="black" stroke="black" points="228.71,-201.07 225.21,-191.07 221.71,-201.07 228.71,-201.07"/>
</a>
</g>
<g id="a_edge1&#45;label"><a xlink:href="docs/safe.start.html" xlink:title="start (safe)">
<text text-anchor="middle" x="254.21" y="-212.6" font-family="Times,serif" font-size="13.00">start (safe)</text>
</a>
</g>
</g>
<!-- About&#45;&gt;Blog -->
<g id="edge2" class="edge">
<title>About&#45;&gt;Blog</title>
<g id="a_edge2"><a xlink:href="docs/safe.backToBlog.html" xlink:title="backToBlog (safe)">
<path fill="none" stroke="black" d="M352.77,-78.09C362.68,-92.79 372.56,-113.94 361.21,-129 351.2,-142.29 313.69,-152.44 280.6,-159.04"/>
<polygon fill="black" stroke="black" points="279.66,-155.66 270.5,-160.98 280.98,-162.53 279.66,-155.66"/>
</a>
</g>
<g id="a_edge2&#45;label"><a xlink:href="docs/safe.backToBlog.html" xlink:title="backToBlog (safe)">
<text text-anchor="middle" x="415.21" y="-118.6" font-family="Times,serif" font-size="13.00">backToBlog (safe)</text>
</a>
</g>
</g>
</g>
</svg>
