<?xml version="1.0" encoding="UTF-8" standalone="no"?>
<!DOCTYPE svg PUBLIC "-//W3C//DTD SVG 1.1//EN"
 "http://www.w3.org/Graphics/SVG/1.1/DTD/svg11.dtd">
<!-- Generated by graphviz version 2.44.1 (20200629.0846)
 -->
<!-- Title: application_state_diagram Pages: 1 -->
<svg width="483pt" height="264pt"
 viewBox="0.00 0.00 483.27 264.00" xmlns="http://www.w3.org/2000/svg" xmlns:xlink="http://www.w3.org/1999/xlink">
<g id="graph0" class="graph" transform="scale(1 1) rotate(0) translate(4 260)">
<title>application_state_diagram</title>
<polygon fill="white" stroke="transparent" points="-4,4 -4,-260 479.27,-260 479.27,4 -4,4"/>
<!-- Blog -->
<g id="node1" class="node">
<title>Blog</title>
<g id="a_node1"><a xlink:href="docs/semantic.Blog.html" xlink:title="&lt;TABLE&gt;">
<polygon fill="none" stroke="black" points="275.27,-169 185.27,-169 185.27,-125 275.27,-125 275.27,-169"/>
<polygon fill="#dddddd" stroke="transparent" points="186.27,-126 186.27,-168 274.27,-168 274.27,-126 186.27,-126"/>
<polygon fill="none" stroke="black" points="186.27,-126 186.27,-168 274.27,-168 274.27,-126 186.27,-126"/>
<text text-anchor="start" x="216.77" y="-150.8" font-family="Times,serif" font-size="14.00">Blog</text>
<text text-anchor="start" x="192.27" y="-135.8" font-family="Times,serif" font-size="14.00">(BlogPosting)</text>
</a>
</g>
</g>
<!-- Blog&#45;&gt;Blog -->
<g id="edge4" class="edge">
<title>Blog&#45;&gt;Blog</title>
<g id="a_edge4"><a xlink:href="docs/unsafe.post.html" xlink:title="post (unsafe)">
<path fill="none" stroke="black" d="M275.29,-155.43C285.66,-154.71 293.27,-151.9 293.27,-147 293.27,-143.86 290.15,-141.58 285.18,-140.16"/>
<polygon fill="black" stroke="black" points="285.72,-136.7 275.29,-138.57 284.61,-143.61 285.72,-136.7"/>
</a>
</g>
<g id="a_edge4&#45;label"><a xlink:href="docs/unsafe.post.html" xlink:title="post (unsafe)">
<text text-anchor="middle" x="328.77" y="-143.3" font-family="Times,serif" font-size="14.00">post (unsafe)</text>
</a>
</g>
</g>
<!-- BlogPosting -->
<g id="node2" class="node">
<title>BlogPosting</title>
<g id="a_node2"><a xlink:href="docs/semantic.BlogPosting.html" xlink:title="&lt;TABLE&gt;">
<polygon fill="none" stroke="black" points="126.27,-74 38.27,-74 38.27,0 126.27,0 126.27,-74"/>
<polygon fill="#dddddd" stroke="transparent" points="39.27,-1 39.27,-73 125.27,-73 125.27,-1 39.27,-1"/>
<polygon fill="none" stroke="black" points="39.27,-1 39.27,-73 125.27,-73 125.27,-1 39.27,-1"/>
<text text-anchor="start" x="48.77" y="-55.8" font-family="Times,serif" font-size="14.00">BlogPosting</text>
<text text-anchor="start" x="72.27" y="-40.8" font-family="Times,serif" font-size="14.00">(id)</text>
<text text-anchor="start" x="45.77" y="-25.8" font-family="Times,serif" font-size="14.00">(articleBody)</text>
<text text-anchor="start" x="45.27" y="-10.8" font-family="Times,serif" font-size="14.00">(dateCreated)</text>
</a>
</g>
</g>
<!-- Blog&#45;&gt;BlogPosting -->
<g id="edge3" class="edge">
<title>Blog&#45;&gt;BlogPosting</title>
<g id="a_edge3"><a xlink:href="docs/safe.blogPosting.html" xlink:title="blogPosting, item (safe)">
<path fill="none" stroke="black" d="M185.17,-144.8C126.22,-142.16 27.8,-133.77 5.27,-107 -8.75,-90.34 7.8,-73.98 29.1,-61.37"/>
<polygon fill="black" stroke="black" points="31.06,-64.29 38.11,-56.39 27.67,-58.17 31.06,-64.29"/>
</a>
</g>
<g id="a_edge3&#45;label"><a xlink:href="docs/safe.blogPosting.html" xlink:title="blogPosting, item (safe)">
<text text-anchor="middle" x="71.27" y="-95.8" font-family="Times,serif" font-size="14.00">blogPosting, item (safe)</text>
</a>
</g>
</g>
<!-- About -->
<g id="node4" class="node">
<title>About</title>
<g id="a_node4"><a xlink:href="docs/semantic.About.html" xlink:title="About">
<polygon fill="lightgrey" stroke="black" stroke-width="2" points="373.27,-55 319.27,-55 319.27,-19 373.27,-19 373.27,-55"/>
<text text-anchor="middle" x="346.27" y="-33.3" font-family="Times,serif" font-size="14.00">About</text>
</a>
</g>
</g>
<!-- Blog&#45;&gt;About -->
<g id="edge5" class="edge">
<title>Blog&#45;&gt;About</title>
<g id="a_edge5"><a xlink:href="docs/safe.about.html" xlink:title="about (safe)">
<path fill="none" stroke="black" d="M258.89,-124.83C266.04,-119.23 273.58,-113.05 280.27,-107 295.69,-93.06 311.84,-76.22 324.3,-62.67"/>
<polygon fill="black" stroke="black" points="327.04,-64.87 331.18,-55.12 321.86,-60.15 327.04,-64.87"/>
</a>
</g>
<g id="a_edge5&#45;label"><a xlink:href="docs/safe.about.html" xlink:title="about (safe)">
<text text-anchor="middle" x="327.77" y="-95.8" font-family="Times,serif" font-size="14.00">about (safe)</text>
</a>
</g>
</g>
<!-- BlogPosting&#45;&gt;Blog -->
<g id="edge6" class="edge">
<title>BlogPosting&#45;&gt;Blog</title>
<g id="a_edge6"><a xlink:href="docs/safe.blog.html" xlink:title="blog, collection (safe)">
<path fill="none" stroke="black" d="M119.34,-74.27C133.63,-87.88 148.4,-101.4 156.27,-107 162.68,-111.55 169.69,-115.93 176.76,-119.99"/>
<polygon fill="black" stroke="black" points="175.26,-123.16 185.7,-124.96 178.66,-117.04 175.26,-123.16"/>
</a>
</g>
<g id="a_edge6&#45;label"><a xlink:href="docs/safe.blog.html" xlink:title="blog, collection (safe)">
<text text-anchor="middle" x="216.27" y="-95.8" font-family="Times,serif" font-size="14.00">blog, collection (safe)</text>
</a>
</g>
</g>
<!-- Index -->
<g id="node3" class="node">
<title>Index</title>
<g id="a_node3"><a xlink:href="docs/semantic.Index.html" xlink:title="Index">
<polygon fill="lightgrey" stroke="black" stroke-width="2" points="257.27,-256 203.27,-256 203.27,-220 257.27,-220 257.27,-256"/>
<text text-anchor="middle" x="230.27" y="-234.3" font-family="Times,serif" font-size="14.00">Index</text>
</a>
</g>
</g>
<!-- Index&#45;&gt;Blog -->
<g id="edge1" class="edge">
<title>Index&#45;&gt;Blog</title>
<g id="a_edge1"><a xlink:href="docs/safe.start.html" xlink:title="start (safe)">
<path fill="none" stroke="black" d="M230.27,-219.84C230.27,-208.44 230.27,-193.13 230.27,-179.58"/>
<polygon fill="black" stroke="black" points="233.77,-179.19 230.27,-169.19 226.77,-179.19 233.77,-179.19"/>
</a>
</g>
<g id="a_edge1&#45;label"><a xlink:href="docs/safe.start.html" xlink:title="start (safe)">
<text text-anchor="middle" x="259.27" y="-190.8" font-family="Times,serif" font-size="14.00">start (safe)</text>
</a>
</g>
</g>
<!-- About&#45;&gt;Blog -->
<g id="edge2" class="edge">
<title>About&#45;&gt;Blog</title>
<g id="a_edge2"><a xlink:href="docs/safe.backToBlog.html" xlink:title="backToBlog (safe)">
<path fill="none" stroke="black" d="M359.73,-55.07C369.75,-70.01 379.88,-91.66 368.27,-107 357.99,-120.6 319.2,-130.81 285.35,-137.37"/>
<polygon fill="black" stroke="black" points="284.7,-133.93 275.51,-139.2 285.98,-140.81 284.7,-133.93"/>
</a>
</g>
<g id="a_edge2&#45;label"><a xlink:href="docs/safe.backToBlog.html" xlink:title="backToBlog (safe)">
<text text-anchor="middle" x="424.27" y="-95.8" font-family="Times,serif" font-size="14.00">backToBlog (safe)</text>
</a>
</g>
</g>
</g>
</svg>
