<?xml version="1.0" encoding="UTF-8" standalone="no"?>
<!DOCTYPE svg PUBLIC "-//W3C//DTD SVG 1.1//EN"
 "http://www.w3.org/Graphics/SVG/1.1/DTD/svg11.dtd">
<!-- Generated by graphviz version 2.44.1 (20200629.0846)
 -->
<!-- Title: application_state_diagram Pages: 1 -->
<svg width="346pt" height="264pt"
 viewBox="0.00 0.00 346.27 264.00" xmlns="http://www.w3.org/2000/svg" xmlns:xlink="http://www.w3.org/1999/xlink">
<g id="graph0" class="graph" transform="scale(1 1) rotate(0) translate(4 260)">
<title>application_state_diagram</title>
<polygon fill="white" stroke="transparent" points="-4,4 -4,-260 342.27,-260 342.27,4 -4,4"/>
<!-- Blog -->
<g id="node1" class="node">
<title>Blog</title>
<g id="a_node1"><a xlink:href="docs/semantic.Blog.html" xlink:title="&lt;TABLE&gt;">
<polygon fill="none" stroke="black" points="213.27,-169 123.27,-169 123.27,-125 213.27,-125 213.27,-169"/>
<polygon fill="#dddddd" stroke="transparent" points="124.27,-126 124.27,-168 212.27,-168 212.27,-126 124.27,-126"/>
<polygon fill="none" stroke="black" points="124.27,-126 124.27,-168 212.27,-168 212.27,-126 124.27,-126"/>
<text text-anchor="start" x="154.77" y="-150.8" font-family="Times,serif" font-size="14.00">Blog</text>
<text text-anchor="start" x="130.27" y="-135.8" font-family="Times,serif" font-size="14.00">(BlogPosting)</text>
</a>
</g>
</g>
<!-- Blog&#45;&gt;Blog -->
<g id="edge4" class="edge">
<title>Blog&#45;&gt;Blog</title>
<g id="a_edge4"><a xlink:href="docs/unsafe.post.html" xlink:title="post (unsafe)">
<path fill="none" stroke="black" d="M213.29,-155.43C223.65,-154.71 231.27,-151.9 231.27,-147 231.27,-143.86 228.14,-141.58 223.17,-140.16"/>
<polygon fill="black" stroke="black" points="223.72,-136.7 213.29,-138.57 222.6,-143.61 223.72,-136.7"/>
</a>
</g>
<g id="a_edge4&#45;label"><a xlink:href="docs/unsafe.post.html" xlink:title="post (unsafe)">
<text text-anchor="middle" x="266.77" y="-143.3" font-family="Times,serif" font-size="14.00">post (unsafe)</text>
</a>
</g>
</g>
<!-- BlogPosting -->
<g id="node2" class="node">
<title>BlogPosting</title>
<g id="a_node2"><a xlink:href="docs/semantic.BlogPosting.html" xlink:title="&lt;TABLE&gt;">
<polygon fill="none" stroke="black" points="138.27,-74 50.27,-74 50.27,0 138.27,0 138.27,-74"/>
<polygon fill="#dddddd" stroke="transparent" points="51.27,-1 51.27,-73 137.27,-73 137.27,-1 51.27,-1"/>
<polygon fill="none" stroke="black" points="51.27,-1 51.27,-73 137.27,-73 137.27,-1 51.27,-1"/>
<text text-anchor="start" x="60.77" y="-55.8" font-family="Times,serif" font-size="14.00">BlogPosting</text>
<text text-anchor="start" x="84.27" y="-40.8" font-family="Times,serif" font-size="14.00">(id)</text>
<text text-anchor="start" x="57.77" y="-25.8" font-family="Times,serif" font-size="14.00">(articleBody)</text>
<text text-anchor="start" x="57.27" y="-10.8" font-family="Times,serif" font-size="14.00">(dateCreated)</text>
</a>
</g>
</g>
<!-- Blog&#45;&gt;BlogPosting -->
<g id="edge3" class="edge">
<title>Blog&#45;&gt;BlogPosting</title>
<g id="a_edge3"><a xlink:href="docs/safe.blogPosting.html" xlink:title="blogPosting (safe)">
<path fill="none" stroke="black" d="M123.18,-141.42C80.13,-136.01 19.73,-125.33 5.27,-107 -10.78,-86.66 13.63,-68.89 40.92,-56.48"/>
<polygon fill="black" stroke="black" points="42.42,-59.64 50.23,-52.48 39.66,-53.21 42.42,-59.64"/>
</a>
</g>
<g id="a_edge3&#45;label"><a xlink:href="docs/safe.blogPosting.html" xlink:title="blogPosting (safe)">
<text text-anchor="middle" x="55.27" y="-95.8" font-family="Times,serif" font-size="14.00">blogPosting (safe)</text>
</a>
</g>
</g>
<!-- About -->
<g id="node4" class="node">
<title>About</title>
<g id="a_node4"><a xlink:href="docs/semantic.About.html" xlink:title="About">
<polygon fill="lightgrey" stroke="black" stroke-width="2" points="268.27,-55 214.27,-55 214.27,-19 268.27,-19 268.27,-55"/>
<text text-anchor="middle" x="241.27" y="-33.3" font-family="Times,serif" font-size="14.00">About</text>
</a>
</g>
</g>
<!-- Blog&#45;&gt;About -->
<g id="edge5" class="edge">
<title>Blog&#45;&gt;About</title>
<g id="a_edge5"><a xlink:href="docs/safe.about.html" xlink:title="about (safe)">
<path fill="none" stroke="black" d="M182.51,-124.92C194.41,-107.33 211.39,-82.19 224.05,-63.47"/>
<polygon fill="black" stroke="black" points="226.99,-65.36 229.69,-55.12 221.2,-61.44 226.99,-65.36"/>
</a>
</g>
<g id="a_edge5&#45;label"><a xlink:href="docs/safe.about.html" xlink:title="about (safe)">
<text text-anchor="middle" x="236.77" y="-95.8" font-family="Times,serif" font-size="14.00">about (safe)</text>
</a>
</g>
</g>
<!-- BlogPosting&#45;&gt;Blog -->
<g id="edge6" class="edge">
<title>BlogPosting&#45;&gt;Blog</title>
<g id="a_edge6"><a xlink:href="docs/safe.blog.html" xlink:title="blog (safe)">
<path fill="none" stroke="black" d="M112.01,-74.1C117.93,-85.01 124.91,-96.79 132.27,-107 134.75,-110.45 137.51,-113.92 140.36,-117.29"/>
<polygon fill="black" stroke="black" points="137.86,-119.75 147.1,-124.94 143.11,-115.12 137.86,-119.75"/>
</a>
</g>
<g id="a_edge6&#45;label"><a xlink:href="docs/safe.blog.html" xlink:title="blog (safe)">
<text text-anchor="middle" x="161.77" y="-95.8" font-family="Times,serif" font-size="14.00">blog (safe)</text>
</a>
</g>
</g>
<!-- Index -->
<g id="node3" class="node">
<title>Index</title>
<g id="a_node3"><a xlink:href="docs/semantic.Index.html" xlink:title="Index">
<polygon fill="lightgrey" stroke="black" stroke-width="2" points="195.27,-256 141.27,-256 141.27,-220 195.27,-220 195.27,-256"/>
<text text-anchor="middle" x="168.27" y="-234.3" font-family="Times,serif" font-size="14.00">Index</text>
</a>
</g>
</g>
<!-- Index&#45;&gt;Blog -->
<g id="edge1" class="edge">
<title>Index&#45;&gt;Blog</title>
<g id="a_edge1"><a xlink:href="docs/safe.blog.html" xlink:title="blog (safe)">
<path fill="none" stroke="black" d="M168.27,-219.84C168.27,-208.44 168.27,-193.13 168.27,-179.58"/>
<polygon fill="black" stroke="black" points="171.77,-179.19 168.27,-169.19 164.77,-179.19 171.77,-179.19"/>
</a>
</g>
<g id="a_edge1&#45;label"><a xlink:href="docs/safe.blog.html" xlink:title="blog (safe)">
<text text-anchor="middle" x="197.77" y="-190.8" font-family="Times,serif" font-size="14.00">blog (safe)</text>
</a>
</g>
</g>
<!-- About&#45;&gt;Blog -->
<g id="edge2" class="edge">
<title>About&#45;&gt;Blog</title>
<g id="a_edge2"><a xlink:href="docs/safe.blog.html" xlink:title="blog (safe)">
<path fill="none" stroke="black" d="M259.83,-55.25C273.1,-69.72 286.75,-90.59 275.27,-107 263.29,-124.11 242.97,-133.74 223.24,-139.15"/>
<polygon fill="black" stroke="black" points="222.23,-135.8 213.33,-141.55 223.88,-142.6 222.23,-135.8"/>
</a>
</g>
<g id="a_edge2&#45;label"><a xlink:href="docs/safe.blog.html" xlink:title="blog (safe)">
<text text-anchor="middle" x="308.77" y="-95.8" font-family="Times,serif" font-size="14.00">blog (safe)</text>
</a>
</g>
</g>
</g>
</svg>
