<?xml version="1.0" encoding="UTF-8" standalone="no"?>
<!DOCTYPE svg PUBLIC "-//W3C//DTD SVG 1.1//EN"
 "http://www.w3.org/Graphics/SVG/1.1/DTD/svg11.dtd">
<!-- Generated by graphviz version 2.44.1 (20200629.0846)
 -->
<!-- Title: application_state_diagram Pages: 1 -->
<svg width="422pt" height="283pt"
 viewBox="0.00 0.00 422.08 283.00" xmlns="http://www.w3.org/2000/svg" xmlns:xlink="http://www.w3.org/1999/xlink">
<g id="graph0" class="graph" transform="scale(1 1) rotate(0) translate(4 279)">
<title>application_state_diagram</title>
<g id="a_graph0"><a xlink:href="index.html" xlink:title="ALPS example">
<polygon fill="white" stroke="transparent" points="-4,4 -4,-279 418.08,-279 418.08,4 -4,4"/>
<text text-anchor="middle" x="207.04" y="-7.8" font-family="Helvetica,sans-Serif" font-size="14.00">ALPS example</text>
</a>
</g>
<!-- Blog -->
<g id="node1" class="node">
<title>Blog</title>
<g id="a_node1"><a xlink:href="docs/semantic.Blog.html" xlink:title="&lt;TABLE&gt;">
<polygon fill="none" stroke="black" points="247.08,-190 157.08,-190 157.08,-146 247.08,-146 247.08,-190"/>
<polygon fill="#dddddd" stroke="transparent" points="158.08,-147 158.08,-189 246.08,-189 246.08,-147 158.08,-147"/>
<polygon fill="none" stroke="black" points="158.08,-147 158.08,-189 246.08,-189 246.08,-147 158.08,-147"/>
<text text-anchor="start" x="188.58" y="-171.8" font-family="Times,serif" font-size="14.00">Blog</text>
<text text-anchor="start" x="164.08" y="-156.8" font-family="Times,serif" font-size="14.00">(BlogPosting)</text>
</a>
</g>
</g>
<!-- Blog&#45;&gt;Blog -->
<g id="edge4" class="edge">
<title>Blog&#45;&gt;Blog</title>
<g id="a_edge4"><a xlink:href="docs/unsafe.post.html" xlink:title="post (unsafe)">
<path fill="none" stroke="black" d="M247.1,-176.43C257.47,-175.71 265.08,-172.9 265.08,-168 265.08,-164.86 261.96,-162.58 256.99,-161.16"/>
<polygon fill="black" stroke="black" points="257.53,-157.7 247.1,-159.57 256.42,-164.61 257.53,-157.7"/>
</a>
</g>
<g id="a_edge4&#45;label"><a xlink:href="docs/unsafe.post.html" xlink:title="post (unsafe)">
<text text-anchor="middle" x="295.58" y="-164.9" font-family="Times,serif" font-size="12.00">post (unsafe)</text>
</a>
</g>
</g>
<!-- BlogPosting -->
<g id="node2" class="node">
<title>BlogPosting</title>
<g id="a_node2"><a xlink:href="docs/semantic.BlogPosting.html" xlink:title="&lt;TABLE&gt;">
<polygon fill="none" stroke="black" points="116.08,-97 28.08,-97 28.08,-23 116.08,-23 116.08,-97"/>
<polygon fill="#dddddd" stroke="transparent" points="29.08,-24 29.08,-96 115.08,-96 115.08,-24 29.08,-24"/>
<polygon fill="none" stroke="black" points="29.08,-24 29.08,-96 115.08,-96 115.08,-24 29.08,-24"/>
<text text-anchor="start" x="38.58" y="-78.8" font-family="Times,serif" font-size="14.00">BlogPosting</text>
<text text-anchor="start" x="62.08" y="-63.8" font-family="Times,serif" font-size="14.00">(id)</text>
<text text-anchor="start" x="35.58" y="-48.8" font-family="Times,serif" font-size="14.00">(articleBody)</text>
<text text-anchor="start" x="35.08" y="-33.8" font-family="Times,serif" font-size="14.00">(dateCreated)</text>
</a>
</g>
</g>
<!-- Blog&#45;&gt;BlogPosting -->
<g id="edge3" class="edge">
<title>Blog&#45;&gt;BlogPosting</title>
<g id="a_edge3"><a xlink:href="docs/safe.blogPosting.html" xlink:title="blogPosting, item (safe)">
<path fill="none" stroke="black" d="M156.69,-164.51C104.59,-160.58 23.89,-150.9 5.08,-128 -6.12,-114.36 3.84,-100.39 19.19,-88.75"/>
<polygon fill="black" stroke="black" points="21.4,-91.47 27.62,-82.89 17.41,-85.72 21.4,-91.47"/>
</a>
</g>
<g id="a_edge3&#45;label"><a xlink:href="docs/safe.blogPosting.html" xlink:title="blogPosting, item (safe)">
<text text-anchor="middle" x="61.08" y="-118.4" font-family="Times,serif" font-size="12.00">blogPosting, item (safe)</text>
</a>
</g>
</g>
<!-- About -->
<g id="node4" class="node">
<title>About</title>
<g id="a_node4"><a xlink:href="docs/semantic.About.html" xlink:title="About">
<polygon fill="lightgrey" stroke="black" stroke-width="2" points="331.08,-78 277.08,-78 277.08,-42 331.08,-42 331.08,-78"/>
<text text-anchor="middle" x="304.08" y="-56.3" font-family="Times,serif" font-size="14.00">About</text>
</a>
</g>
</g>
<!-- Blog&#45;&gt;About -->
<g id="edge5" class="edge">
<title>Blog&#45;&gt;About</title>
<g id="a_edge5"><a xlink:href="docs/safe.about.html" xlink:title="about (safe)">
<path fill="none" stroke="black" d="M224.92,-145.83C230.91,-140.13 237.31,-133.9 243.08,-128 256.48,-114.31 270.92,-98.49 282.4,-85.66"/>
<polygon fill="black" stroke="black" points="285.09,-87.9 289.12,-78.11 279.86,-83.25 285.09,-87.9"/>
</a>
</g>
<g id="a_edge5&#45;label"><a xlink:href="docs/safe.about.html" xlink:title="about (safe)">
<text text-anchor="middle" x="283.08" y="-118.4" font-family="Times,serif" font-size="12.00">about (safe)</text>
</a>
</g>
</g>
<!-- BlogPosting&#45;&gt;Blog -->
<g id="edge6" class="edge">
<title>BlogPosting&#45;&gt;Blog</title>
<g id="a_edge6"><a xlink:href="docs/safe.blog.html" xlink:title="blog, collection (safe)">
<path fill="none" stroke="black" d="M103.28,-97.28C113.22,-107.8 124.62,-118.9 136.08,-128 141.48,-132.28 147.38,-136.42 153.38,-140.31"/>
<polygon fill="black" stroke="black" points="151.84,-143.48 162.18,-145.81 155.55,-137.54 151.84,-143.48"/>
</a>
</g>
<g id="a_edge6&#45;label"><a xlink:href="docs/safe.blog.html" xlink:title="blog, collection (safe)">
<text text-anchor="middle" x="187.58" y="-118.4" font-family="Times,serif" font-size="12.00">blog, collection (safe)</text>
</a>
</g>
</g>
<!-- Index -->
<g id="node3" class="node">
<title>Index</title>
<g id="a_node3"><a xlink:href="docs/semantic.Index.html" xlink:title="Index">
<polygon fill="lightgrey" stroke="black" stroke-width="2" points="229.08,-275 175.08,-275 175.08,-239 229.08,-239 229.08,-275"/>
<text text-anchor="middle" x="202.08" y="-253.3" font-family="Times,serif" font-size="14.00">Index</text>
</a>
</g>
</g>
<!-- Index&#45;&gt;Blog -->
<g id="edge1" class="edge">
<title>Index&#45;&gt;Blog</title>
<g id="a_edge1"><a xlink:href="docs/safe.start.html" xlink:title="start (safe)">
<path fill="none" stroke="black" d="M202.08,-238.81C202.08,-227.9 202.08,-213.45 202.08,-200.53"/>
<polygon fill="black" stroke="black" points="205.58,-200.15 202.08,-190.15 198.58,-200.15 205.58,-200.15"/>
</a>
</g>
<g id="a_edge1&#45;label"><a xlink:href="docs/safe.start.html" xlink:title="start (safe)">
<text text-anchor="middle" x="226.58" y="-211.4" font-family="Times,serif" font-size="12.00">start (safe)</text>
</a>
</g>
</g>
<!-- About&#45;&gt;Blog -->
<g id="edge2" class="edge">
<title>About&#45;&gt;Blog</title>
<g id="a_edge2"><a xlink:href="docs/safe.backToBlog.html" xlink:title="backToBlog (safe)">
<path fill="none" stroke="black" d="M316.08,-78.14C324.59,-92.62 332.77,-113.29 322.08,-128 307.21,-148.47 281.33,-158.41 257.41,-163.15"/>
<polygon fill="black" stroke="black" points="256.57,-159.74 247.31,-164.88 257.76,-166.64 256.57,-159.74"/>
</a>
</g>
<g id="a_edge2&#45;label"><a xlink:href="docs/safe.backToBlog.html" xlink:title="backToBlog (safe)">
<text text-anchor="middle" x="370.08" y="-118.4" font-family="Times,serif" font-size="12.00">backToBlog (safe)</text>
</a>
</g>
</g>
</g>
</svg>
