<?xml version="1.0" encoding="UTF-8" standalone="no"?>
<!DOCTYPE svg PUBLIC "-//W3C//DTD SVG 1.1//EN"
 "http://www.w3.org/Graphics/SVG/1.1/DTD/svg11.dtd">
<!-- Generated by graphviz version 9.0.0 (20230911.1827)
 -->
<!-- Title: application_state_diagram Pages: 1 -->
<svg width="594pt" height="584pt"
 viewBox="0.00 0.00 593.70 583.88" xmlns="http://www.w3.org/2000/svg" xmlns:xlink="http://www.w3.org/1999/xlink">
<g id="graph0" class="graph" transform="scale(1 1) rotate(0) translate(4 579.88)">
<title>application_state_diagram</title>
<g id="a_graph0"><a xlink:href="index.html" xlink:title="MVC ToDo List" target="_parent">
<polygon fill="white" stroke="none" points="-4,4 -4,-579.88 589.7,-579.88 589.7,4 -4,4"/>
<text text-anchor="middle" x="292.85" y="-558.58" font-family="Helvetica,sans-Serif" font-size="14.00">MVC ToDo List</text>
</a>
</g>
<!-- TodoItem -->
<g id="node1" class="node">
<title>TodoItem</title>
<g id="a_node1"><a xlink:href="#TodoItem" xlink:title="&lt;TABLE&gt;" target="_parent">
<polygon fill="lightgray" stroke="black" stroke-width="2" points="365.89,-552.88 287.01,-552.88 287.01,-474 365.89,-474 365.89,-552.88"/>
<text text-anchor="start" x="299.45" y="-533.14" font-family="Times,serif" font-size="14.00">TodoItem</text>
<text text-anchor="start" x="316.7" y="-516.64" font-family="Times,serif" font-size="14.00">(id)</text>
<text text-anchor="start" x="311.45" y="-500.14" font-family="Times,serif" font-size="14.00">(title)</text>
<text text-anchor="start" x="293.45" y="-483.64" font-family="Times,serif" font-size="14.00">(completed)</text>
</a>
</g>
</g>
<!-- TodoItem&#45;&gt;TodoItem -->
<g id="edge7" class="edge">
<title>TodoItem&#45;&gt;TodoItem</title>
<path fill="none" stroke="black" d="M366.18,-528.16C376.29,-527.19 383.89,-522.28 383.89,-513.44 383.89,-508.19 381.21,-504.33 376.92,-501.85"/>
<polygon fill="black" stroke="black" points="378.21,-498.58 367.63,-499.15 376.25,-505.3 378.21,-498.58"/>
<g id="a_edge7_0"><a xlink:href="#clearCompleted" xlink:title="clearCompleted (idempotent)">
<text text-anchor="start" x="387.89" y="-529.59" font-family="Times,serif" font-size="13.00">clearCompleted (idempotent)</text>
</a>
</g>
<g id="a_edge7_1"><a xlink:href="#edit" xlink:title="edit (idempotent)">
<text text-anchor="start" x="387.89" y="-508.59" font-family="Times,serif" font-size="13.00">edit (idempotent)</text>
</a>
</g>
<g id="a_edge7_2"><a xlink:href="#markCompleted" xlink:title="markCompleted (idempotent)">
<text text-anchor="start" x="387.89" y="-487.59" font-family="Times,serif" font-size="13.00">markCompleted (idempotent)</text>
</a>
</g>
</g>
<!-- TodoList -->
<g id="node2" class="node">
<title>TodoList</title>
<g id="a_node2"><a xlink:href="#TodoList" xlink:title="&lt;TABLE&gt;" target="_parent">
<polygon fill="lightgray" stroke="black" stroke-width="2" points="168.89,-358.94 90.01,-358.94 90.01,-280.06 168.89,-280.06 168.89,-358.94"/>
<text text-anchor="start" x="104.7" y="-339.2" font-family="Times,serif" font-size="14.00">TodoList</text>
<text text-anchor="start" x="119.7" y="-322.7" font-family="Times,serif" font-size="14.00">(id)</text>
<text text-anchor="start" x="114.45" y="-306.2" font-family="Times,serif" font-size="14.00">(title)</text>
<text text-anchor="start" x="96.45" y="-289.7" font-family="Times,serif" font-size="14.00">(completed)</text>
</a>
</g>
</g>
<!-- TodoItem&#45;&gt;TodoList -->
<g id="edge8" class="edge">
<title>TodoItem&#45;&gt;TodoList</title>
<path fill="none" stroke="black" d="M286.88,-512.69C243.38,-510.62 175,-499.98 139.7,-456 120.75,-432.39 118.22,-398.41 120.41,-370.38"/>
<polygon fill="black" stroke="black" points="123.87,-370.99 121.4,-360.68 116.9,-370.27 123.87,-370.99"/>
<g id="a_edge8_3"><a xlink:href="#listAll" xlink:title="listAll (safe)">
<text text-anchor="start" x="144.45" y="-439.65" font-family="Times,serif" font-size="13.00">listAll (safe)</text>
</a>
</g>
<g id="a_edge8_4"><a xlink:href="#remove" xlink:title="remove (idempotent)">
<text text-anchor="start" x="144.45" y="-418.65" font-family="Times,serif" font-size="13.00">remove (idempotent)</text>
</a>
</g>
</g>
<!-- Related -->
<g id="node4" class="node">
<title>Related</title>
<g id="a_node4"><a xlink:href="#Related" xlink:title="Related" target="_parent">
<polygon fill="lightgray" stroke="black" stroke-width="2" points="294.07,-123 236.82,-123 236.82,-87 294.07,-87 294.07,-123"/>
<text text-anchor="middle" x="265.45" y="-99.95" font-family="Times,serif" font-size="14.00">Related</text>
</a>
</g>
</g>
<!-- TodoItem&#45;&gt;Related -->
<g id="edge6" class="edge goRelated">
<title>TodoItem&#45;&gt;Related</title>
<g id="a_edge6"><a xlink:href="#goRelated" xlink:title="goRelated (safe)" target="_parent">
<path fill="none" stroke="black" stroke-width="1.5" d="M353.46,-473.59C356.32,-467.9 358.79,-461.95 360.45,-456 363.37,-445.49 377.27,-166.55 359.45,-141 347.46,-123.81 325.97,-115.05 306.56,-110.59"/>
<polygon fill="black" stroke="black" stroke-width="1.5" points="307.25,-107.16 296.77,-108.71 305.93,-114.03 307.25,-107.16"/>
</a>
</g>
<g id="a_edge6&#45;label"><a xlink:href="#goRelated" xlink:title="goRelated (safe)" target="_parent">
<text text-anchor="start" x="367.45" y="-314.65" font-family="Times,serif" font-size="13.00">goRelated (safe)</text>
</a>
</g>
</g>
<!-- TodoList&#45;&gt;TodoItem -->
<g id="edge11" class="edge">
<title>TodoList&#45;&gt;TodoItem</title>
<path fill="none" stroke="black" d="M169.15,-342.38C196.76,-358.96 233.18,-383.67 259.45,-412 274.93,-428.7 273.19,-436.97 285.7,-456 287.47,-458.7 289.32,-461.45 291.21,-464.21"/>
<polygon fill="black" stroke="black" points="288.28,-466.13 296.86,-472.34 294.02,-462.13 288.28,-466.13"/>
<g id="a_edge11_5"><a xlink:href="#add" xlink:title="add (unsafe)">
<text text-anchor="start" x="289.45" y="-439.65" font-family="Times,serif" font-size="13.00">add (unsafe)</text>
</a>
</g>
<g id="a_edge11_6"><a xlink:href="#read" xlink:title="read (safe)">
<text text-anchor="start" x="289.45" y="-418.65" font-family="Times,serif" font-size="13.00">read (safe)</text>
</a>
</g>
</g>
<!-- TodoList&#45;&gt;TodoList -->
<g id="edge12" class="edge">
<title>TodoList&#45;&gt;TodoList</title>
<path fill="none" stroke="black" d="M169.18,-340.71C179.29,-339.32 186.89,-332.25 186.89,-319.5 186.89,-311.73 184.07,-306.07 179.58,-302.52"/>
<polygon fill="black" stroke="black" points="181.16,-299.39 170.58,-298.86 178.52,-305.87 181.16,-299.39"/>
<g id="a_edge12_7"><a xlink:href="#goFirst" xlink:title="goFirst (safe)">
<text text-anchor="start" x="190.89" y="-377.65" font-family="Times,serif" font-size="13.00">goFirst (safe)</text>
</a>
</g>
<g id="a_edge12_8"><a xlink:href="#goLast" xlink:title="goLast (safe)">
<text text-anchor="start" x="190.89" y="-356.65" font-family="Times,serif" font-size="13.00">goLast (safe)</text>
</a>
</g>
<g id="a_edge12_9"><a xlink:href="#goNext" xlink:title="goNext (safe)">
<text text-anchor="start" x="190.89" y="-335.65" font-family="Times,serif" font-size="13.00">goNext (safe)</text>
</a>
</g>
<g id="a_edge12_10"><a xlink:href="#goPrevious" xlink:title="goPrevious (safe)">
<text text-anchor="start" x="190.89" y="-314.65" font-family="Times,serif" font-size="13.00">goPrevious (safe)</text>
</a>
</g>
<g id="a_edge12_11"><a xlink:href="#listActive" xlink:title="listActive (safe)">
<text text-anchor="start" x="190.89" y="-293.65" font-family="Times,serif" font-size="13.00">listActive (safe)</text>
</a>
</g>
<g id="a_edge12_12"><a xlink:href="#listAll" xlink:title="listAll (safe)">
<text text-anchor="start" x="190.89" y="-272.65" font-family="Times,serif" font-size="13.00">listAll (safe)</text>
</a>
</g>
<g id="a_edge12_13"><a xlink:href="#listCompleted" xlink:title="listCompleted (safe)">
<text text-anchor="start" x="190.89" y="-251.65" font-family="Times,serif" font-size="13.00">listCompleted (safe)</text>
</a>
</g>
</g>
<!-- Home -->
<g id="node3" class="node">
<title>Home</title>
<g id="a_node3"><a xlink:href="#Home" xlink:title="Home" target="_parent">
<polygon fill="lightgray" stroke="black" stroke-width="2" points="137.45,-36 83.45,-36 83.45,0 137.45,0 137.45,-36"/>
<text text-anchor="middle" x="110.45" y="-12.95" font-family="Times,serif" font-size="14.00">Home</text>
</a>
</g>
</g>
<!-- TodoList&#45;&gt;Home -->
<g id="edge9" class="edge goHome">
<title>TodoList&#45;&gt;Home</title>
<g id="a_edge9"><a xlink:href="#goHome" xlink:title="goHome (safe)" target="_parent">
<path fill="none" stroke="black" stroke-width="1.5" d="M118.49,-279.65C114.48,-263.51 110.43,-244.49 108.45,-227 101.27,-163.67 104.94,-88.81 107.91,-48.41"/>
<polygon fill="black" stroke="black" stroke-width="1.5" points="111.39,-48.84 108.68,-38.59 104.41,-48.29 111.39,-48.84"/>
</a>
</g>
<g id="a_edge9&#45;label"><a xlink:href="#goHome" xlink:title="goHome (safe)" target="_parent">
<text text-anchor="start" x="106.45" y="-100.15" font-family="Times,serif" font-size="13.00">goHome (safe)</text>
</a>
</g>
</g>
<!-- TodoList&#45;&gt;Related -->
<g id="edge10" class="edge goRelated">
<title>TodoList&#45;&gt;Related</title>
<g id="a_edge10"><a xlink:href="#goRelated" xlink:title="goRelated (safe)" target="_parent">
<path fill="none" stroke="black" stroke-width="1.5" d="M169.29,-298.58C196.22,-282.94 230.08,-258.53 248.45,-227 264.8,-198.93 267.67,-161.15 267.34,-135.32"/>
<polygon fill="black" stroke="black" stroke-width="1.5" points="270.85,-135.5 267.02,-125.62 263.85,-135.73 270.85,-135.5"/>
</a>
</g>
<g id="a_edge10&#45;label"><a xlink:href="#goRelated" xlink:title="goRelated (safe)" target="_parent">
<text text-anchor="start" x="266.45" y="-179.15" font-family="Times,serif" font-size="13.00">goRelated (safe)</text>
</a>
</g>
</g>
<!-- Home&#45;&gt;TodoList -->
<g id="edge2" class="edge listAll">
<title>Home&#45;&gt;TodoList</title>
<g id="a_edge2"><a xlink:href="#listAll" xlink:title="listAll (safe)" target="_parent">
<path fill="none" stroke="black" stroke-width="1.5" d="M83.15,-27.98C57.75,-37.95 21.43,-56.77 4.95,-87 -2.71,-101.05 0.47,-107.64 4.95,-123 21.14,-178.56 58.43,-233.39 88,-270.78"/>
<polygon fill="black" stroke="black" stroke-width="1.5" points="84.92,-272.53 93.91,-278.13 90.37,-268.15 84.92,-272.53"/>
</a>
</g>
<g id="a_edge2&#45;label"><a xlink:href="#listAll" xlink:title="listAll (safe)" target="_parent">
<text text-anchor="start" x="5.45" y="-100.15" font-family="Times,serif" font-size="13.00">listAll (safe)</text>
</a>
</g>
</g>
<!-- Home&#45;&gt;Related -->
<g id="edge1" class="edge goRelated">
<title>Home&#45;&gt;Related</title>
<g id="a_edge1"><a xlink:href="#goRelated" xlink:title="goRelated (safe)" target="_parent">
<path fill="none" stroke="black" stroke-width="1.5" d="M137.77,-21.54C163.94,-25.13 203.48,-33.71 231.45,-54 239.48,-59.83 246.22,-68.17 251.52,-76.38"/>
<polygon fill="black" stroke="black" stroke-width="1.5" points="248.44,-78.04 256.51,-84.91 254.48,-74.51 248.44,-78.04"/>
</a>
</g>
<g id="a_edge1&#45;label"><a xlink:href="#goRelated" xlink:title="goRelated (safe)" target="_parent">
<text text-anchor="start" x="244.45" y="-56.65" font-family="Times,serif" font-size="13.00">goRelated (safe)</text>
</a>
</g>
</g>
<!-- Related&#45;&gt;TodoItem -->
<g id="edge4" class="edge">
<title>Related&#45;&gt;TodoItem</title>
<path fill="none" stroke="black" d="M294.51,-108.98C320.93,-112.85 360.03,-121.59 388.45,-141 436.38,-173.74 448.92,-189.99 467.45,-245 488.58,-307.76 495.42,-333.97 467.45,-394 448.66,-434.31 408.66,-465.78 376.04,-486.12"/>
<polygon fill="black" stroke="black" points="374.24,-483.13 367.49,-491.29 377.86,-489.12 374.24,-483.13"/>
<g id="a_edge4_14"><a xlink:href="#add" xlink:title="add (unsafe)">
<text text-anchor="start" x="489.45" y="-335.65" font-family="Times,serif" font-size="13.00">add (unsafe)</text>
</a>
</g>
<g id="a_edge4_15"><a xlink:href="#edit" xlink:title="edit (idempotent)">
<text text-anchor="start" x="489.45" y="-314.65" font-family="Times,serif" font-size="13.00">edit (idempotent)</text>
</a>
</g>
<g id="a_edge4_16"><a xlink:href="#read" xlink:title="read (safe)">
<text text-anchor="start" x="489.45" y="-293.65" font-family="Times,serif" font-size="13.00">read (safe)</text>
</a>
</g>
</g>
<!-- Related&#45;&gt;TodoList -->
<g id="edge5" class="edge">
<title>Related&#45;&gt;TodoList</title>
<path fill="none" stroke="black" d="M236.64,-111.43C198.53,-118.91 135.37,-132.41 128.7,-141 100.92,-176.78 105.29,-229.99 114.05,-268.82"/>
<polygon fill="black" stroke="black" points="110.61,-269.51 116.38,-278.4 117.41,-267.85 110.61,-269.51"/>
<g id="a_edge5_17"><a xlink:href="#listActive" xlink:title="listActive (safe)">
<text text-anchor="start" x="133.45" y="-210.65" font-family="Times,serif" font-size="13.00">listActive (safe)</text>
</a>
</g>
<g id="a_edge5_18"><a xlink:href="#listAll" xlink:title="listAll (safe)">
<text text-anchor="start" x="133.45" y="-189.65" font-family="Times,serif" font-size="13.00">listAll (safe)</text>
</a>
</g>
<g id="a_edge5_19"><a xlink:href="#listCompleted" xlink:title="listCompleted (safe)">
<text text-anchor="start" x="133.45" y="-168.65" font-family="Times,serif" font-size="13.00">listCompleted (safe)</text>
</a>
</g>
<g id="a_edge5_20"><a xlink:href="#remove" xlink:title="remove (idempotent)">
<text text-anchor="start" x="133.45" y="-147.65" font-family="Times,serif" font-size="13.00">remove (idempotent)</text>
</a>
</g>
</g>
<!-- Related&#45;&gt;Home -->
<g id="edge3" class="edge goHome">
<title>Related&#45;&gt;Home</title>
<g id="a_edge3"><a xlink:href="#goHome" xlink:title="goHome (safe)" target="_parent">
<path fill="none" stroke="black" stroke-width="1.5" d="M236.67,-100.6C211.42,-96.48 174.67,-87.61 147.95,-69 139.43,-63.07 132.05,-54.59 126.14,-46.3"/>
<polygon fill="black" stroke="black" stroke-width="1.5" points="129.11,-44.45 120.7,-38 123.25,-48.28 129.11,-44.45"/>
</a>
</g>
<g id="a_edge3&#45;label"><a xlink:href="#goHome" xlink:title="goHome (safe)" target="_parent">
<text text-anchor="start" x="148.45" y="-56.65" font-family="Times,serif" font-size="13.00">goHome (safe)</text>
</a>
</g>
</g>
</g>
</svg>
