<?xml version="1.0" encoding="UTF-8" standalone="no"?>
<!DOCTYPE svg PUBLIC "-//W3C//DTD SVG 1.1//EN"
 "http://www.w3.org/Graphics/SVG/1.1/DTD/svg11.dtd">
<!-- Generated by graphviz version 2.47.0 (20210316.0004)
 -->
<!-- Title: application_state_diagram Pages: 1 -->
<svg width="972pt" height="563pt"
 viewBox="0.00 0.00 972.36 563.00" xmlns="http://www.w3.org/2000/svg" xmlns:xlink="http://www.w3.org/1999/xlink">
<g id="graph0" class="graph" transform="scale(1 1) rotate(0) translate(4 559)">
<title>application_state_diagram</title>
<g id="a_graph0"><a xlink:href="index.html" xlink:title="MVC ToDo List" target="_parent">
<polygon fill="white" stroke="transparent" points="-4,4 -4,-559 968.36,-559 968.36,4 -4,4"/>
<text text-anchor="middle" x="482.18" y="-539.8" font-family="Helvetica,sans-Serif" font-size="14.00">MVC ToDo List</text>
</a>
</g>
<!-- Blog -->
<g id="node1" class="node">
<title>Blog</title>
<g id="a_node1"><a xlink:href="docs/semantic.Blog.html" xlink:title="&lt;TABLE&gt;" target="_parent">
<polygon fill="lightgray" stroke="black" stroke-width="2" points="274.36,-517 186.36,-517 186.36,-475 274.36,-475 274.36,-517"/>
<text text-anchor="start" x="216.86" y="-499.8" font-family="Times,serif" font-size="14.00">Blog</text>
<text text-anchor="start" x="192.36" y="-484.8" font-family="Times,serif" font-size="14.00">(BlogPosting)</text>
</a>
</g>
</g>
<!-- Blog&#45;&gt;Blog -->
<g id="edge3" class="edge">
<title>Blog&#45;&gt;Blog</title>
<g id="a_edge3"><a xlink:href="docs/unsafe.post.html" xlink:title="post (unsafe)" target="_parent">
<path fill="none" stroke="black" d="M274.39,-509.6C284.73,-508.48 292.36,-503.95 292.36,-496 292.36,-490.91 289.23,-487.22 284.26,-484.93"/>
<polygon fill="black" stroke="black" points="284.94,-481.49 274.39,-482.4 283.21,-488.27 284.94,-481.49"/>
</a>
</g>
<g id="a_edge3&#45;label"><a xlink:href="docs/unsafe.post.html" xlink:title="post (unsafe)" target="_parent">
<text text-anchor="middle" x="327.36" y="-492.6" font-family="Times,serif" font-size="13.00">post (unsafe)</text>
</a>
</g>
</g>
<!-- BlogPosting -->
<g id="node2" class="node">
<title>BlogPosting</title>
<g id="a_node2"><a xlink:href="docs/semantic.BlogPosting.html" xlink:title="&lt;TABLE&gt;" target="_parent">
<polygon fill="lightgray" stroke="black" stroke-width="2" points="127.36,-347 41.36,-347 41.36,-275 127.36,-275 127.36,-347"/>
<text text-anchor="start" x="50.86" y="-329.8" font-family="Times,serif" font-size="14.00">BlogPosting</text>
<text text-anchor="start" x="74.36" y="-314.8" font-family="Times,serif" font-size="14.00">(id)</text>
<text text-anchor="start" x="47.86" y="-299.8" font-family="Times,serif" font-size="14.00">(articleBody)</text>
<text text-anchor="start" x="47.36" y="-284.8" font-family="Times,serif" font-size="14.00">(dateCreated)</text>
</a>
</g>
</g>
<!-- Blog&#45;&gt;BlogPosting -->
<g id="edge4" class="edge">
<title>Blog&#45;&gt;BlogPosting</title>
<g id="a_edge4"><a xlink:href="docs/safe.blogPosting.html" xlink:title="blogPosting, item (safe)" target="_parent">
<path fill="none" stroke="black" d="M185.9,-490.75C127.81,-484.18 30.92,-469.34 9.36,-442 -12.09,-414.79 8.99,-380.76 34.2,-354.35"/>
<polygon fill="black" stroke="black" points="36.82,-356.67 41.39,-347.11 31.86,-351.74 36.82,-356.67"/>
</a>
</g>
<g id="a_edge4&#45;label"><a xlink:href="docs/safe.blogPosting.html" xlink:title="blogPosting, item (safe)" target="_parent">
<text text-anchor="middle" x="73.36" y="-417.6" font-family="Times,serif" font-size="13.00">blogPosting, item (safe)</text>
</a>
</g>
</g>
<!-- About -->
<g id="node5" class="node">
<title>About</title>
<g id="a_node5"><a xlink:href="docs/semantic.About.html" xlink:title="About" target="_parent">
<polygon fill="lightgray" stroke="black" stroke-width="2" points="370.36,-329 316.36,-329 316.36,-293 370.36,-293 370.36,-329"/>
<text text-anchor="middle" x="343.36" y="-307.3" font-family="Times,serif" font-size="14.00">About</text>
</a>
</g>
</g>
<!-- Blog&#45;&gt;About -->
<g id="edge2" class="edge">
<title>Blog&#45;&gt;About</title>
<g id="a_edge2"><a xlink:href="docs/safe.about.html" xlink:title="about (safe)" target="_parent">
<path fill="none" stroke="black" d="M251.6,-474.59C260.6,-465.23 270.74,-453.63 278.36,-442 289.6,-424.87 288.39,-418.42 297.36,-400 307.62,-378.95 319.94,-355.46 329.25,-338.05"/>
<polygon fill="black" stroke="black" points="332.44,-339.52 334.08,-329.05 326.27,-336.21 332.44,-339.52"/>
</a>
</g>
<g id="a_edge2&#45;label"><a xlink:href="docs/safe.about.html" xlink:title="about (safe)" target="_parent">
<text text-anchor="middle" x="329.36" y="-417.6" font-family="Times,serif" font-size="13.00">about (safe)</text>
</a>
</g>
</g>
<!-- BlogPosting&#45;&gt;Blog -->
<g id="edge5" class="edge">
<title>BlogPosting&#45;&gt;Blog</title>
<g id="a_edge5"><a xlink:href="docs/safe.blog.html" xlink:title="blog, collection (safe)" target="_parent">
<path fill="none" stroke="black" d="M106.99,-347.42C116.77,-363.26 128.08,-382.31 137.36,-400 146.89,-418.14 143.37,-426.16 156.36,-442 164.67,-452.12 175.35,-461.24 186,-468.95"/>
<polygon fill="black" stroke="black" points="184.27,-472.01 194.48,-474.82 188.25,-466.26 184.27,-472.01"/>
</a>
</g>
<g id="a_edge5&#45;label"><a xlink:href="docs/safe.blog.html" xlink:title="blog, collection (safe)" target="_parent">
<text text-anchor="middle" x="215.36" y="-417.6" font-family="Times,serif" font-size="13.00">blog, collection (safe)</text>
</a>
</g>
</g>
<!-- todoItem -->
<g id="node3" class="node">
<title>todoItem</title>
<g id="a_node3"><a xlink:href="docs/semantic.todoItem.html" xlink:title="&lt;TABLE&gt;" target="_parent">
<polygon fill="lightgray" stroke="black" stroke-width="2" points="742.86,-532 663.86,-532 663.86,-460 742.86,-460 742.86,-532"/>
<text text-anchor="start" x="678.86" y="-514.8" font-family="Times,serif" font-size="14.00">todoItem</text>
<text text-anchor="start" x="693.86" y="-499.8" font-family="Times,serif" font-size="14.00">(id)</text>
<text text-anchor="start" x="688.36" y="-484.8" font-family="Times,serif" font-size="14.00">(title)</text>
<text text-anchor="start" x="670.36" y="-469.8" font-family="Times,serif" font-size="14.00">(completed)</text>
</a>
</g>
</g>
<!-- todoItem&#45;&gt;todoItem -->
<g id="edge12" class="edge">
<title>todoItem&#45;&gt;todoItem</title>
<path fill="none" stroke="black" d="M742.87,-509.73C753.13,-508.89 760.86,-504.31 760.86,-496 760.86,-490.68 757.69,-486.88 752.71,-484.62"/>
<polygon fill="black" stroke="black" points="753.41,-481.19 742.87,-482.27 751.78,-488 753.41,-481.19"/>
<g id="a_edge12_0"><a xlink:href="docs/idempotent.clearCompleted.html" xlink:title="&lt;TABLE&gt;">
<text text-anchor="start" x="764.86" y="-512.6" font-family="Times,serif" font-size="13.00">clearCompleted (idempotent)</text>
</a>
</g>
<g id="a_edge12_1"><a xlink:href="docs/idempotent.edit.html" xlink:title="&lt;TABLE&gt;">
<text text-anchor="start" x="764.86" y="-492.6" font-family="Times,serif" font-size="13.00">edit (idempotent)</text>
</a>
</g>
<g id="a_edge12_2"><a xlink:href="docs/idempotent.markCompleted.html" xlink:title="&lt;TABLE&gt;">
<text text-anchor="start" x="764.86" y="-472.6" font-family="Times,serif" font-size="13.00">markCompleted (idempotent)</text>
</a>
</g>
</g>
<!-- todoList -->
<g id="node4" class="node">
<title>todoList</title>
<g id="a_node4"><a xlink:href="docs/semantic.todoList.html" xlink:title="&lt;TABLE&gt;" target="_parent">
<polygon fill="lightgray" stroke="black" stroke-width="2" points="546.86,-347 467.86,-347 467.86,-275 546.86,-275 546.86,-347"/>
<text text-anchor="start" x="484.86" y="-329.8" font-family="Times,serif" font-size="14.00">todoList</text>
<text text-anchor="start" x="497.86" y="-314.8" font-family="Times,serif" font-size="14.00">(id)</text>
<text text-anchor="start" x="492.36" y="-299.8" font-family="Times,serif" font-size="14.00">(title)</text>
<text text-anchor="start" x="474.36" y="-284.8" font-family="Times,serif" font-size="14.00">(completed)</text>
</a>
</g>
</g>
<!-- todoItem&#45;&gt;todoList -->
<g id="edge13" class="edge">
<title>todoItem&#45;&gt;todoList</title>
<path fill="none" stroke="black" d="M663.51,-489.41C613.5,-481.51 531.98,-465.37 513.36,-442 494.71,-418.57 493.76,-384.55 497.19,-357.18"/>
<polygon fill="black" stroke="black" points="500.69,-357.46 498.69,-347.06 493.76,-356.44 500.69,-357.46"/>
<g id="a_edge13_3"><a xlink:href="docs/safe.listAll.html" xlink:title="&lt;TABLE&gt;">
<text text-anchor="start" x="517.36" y="-427.6" font-family="Times,serif" font-size="13.00">listAll (safe)</text>
</a>
</g>
<g id="a_edge13_4"><a xlink:href="docs/idempotent.remove.html" xlink:title="&lt;TABLE&gt;">
<text text-anchor="start" x="517.36" y="-407.6" font-family="Times,serif" font-size="13.00">remove (idempotent)</text>
</a>
</g>
</g>
<!-- related -->
<g id="node7" class="node">
<title>related</title>
<g id="a_node7"><a xlink:href="docs/semantic.related.html" xlink:title="related" target="_parent">
<polygon fill="lightgray" stroke="black" stroke-width="2" points="670.36,-122 616.36,-122 616.36,-86 670.36,-86 670.36,-122"/>
<text text-anchor="middle" x="643.36" y="-100.3" font-family="Times,serif" font-size="14.00">related</text>
</a>
</g>
</g>
<!-- todoItem&#45;&gt;related -->
<g id="edge11" class="edge">
<title>todoItem&#45;&gt;related</title>
<g id="a_edge11"><a xlink:href="docs/safe.goRelated.html" xlink:title="goRelated (safe)" target="_parent">
<path fill="none" stroke="black" d="M730.49,-459.92C733.72,-454.2 736.52,-448.13 738.36,-442 741.33,-432.14 755.53,-166.04 737.36,-140 724.58,-121.67 700.99,-112.92 680.65,-108.76"/>
<polygon fill="black" stroke="black" points="681.13,-105.29 670.68,-107.01 679.93,-112.18 681.13,-105.29"/>
</a>
</g>
<g id="a_edge11&#45;label"><a xlink:href="docs/safe.goRelated.html" xlink:title="goRelated (safe)" target="_parent">
<text text-anchor="middle" x="790.86" y="-307.6" font-family="Times,serif" font-size="13.00">goRelated (safe)</text>
</a>
</g>
</g>
<!-- todoList&#45;&gt;todoItem -->
<g id="edge16" class="edge">
<title>todoList&#45;&gt;todoItem</title>
<path fill="none" stroke="black" d="M546.89,-334.7C573.12,-350.89 607.38,-374.29 633.36,-400 649.67,-416.13 649.79,-423.51 663.36,-442 665.68,-445.15 668.08,-448.4 670.51,-451.66"/>
<polygon fill="black" stroke="black" points="667.76,-453.83 676.55,-459.75 673.37,-449.64 667.76,-453.83"/>
<g id="a_edge16_5"><a xlink:href="docs/unsafe.add.html" xlink:title="&lt;TABLE&gt;">
<text text-anchor="start" x="667.86" y="-427.6" font-family="Times,serif" font-size="13.00">add (unsafe)</text>
</a>
</g>
<g id="a_edge16_6"><a xlink:href="docs/safe.read.html" xlink:title="&lt;TABLE&gt;">
<text text-anchor="start" x="667.86" y="-407.6" font-family="Times,serif" font-size="13.00">read (safe)</text>
</a>
</g>
</g>
<!-- todoList&#45;&gt;todoList -->
<g id="edge17" class="edge">
<title>todoList&#45;&gt;todoList</title>
<path fill="none" stroke="black" d="M546.87,-331.41C557.13,-330.16 564.86,-323.35 564.86,-311 564.86,-302.89 561.53,-297.18 556.34,-293.85"/>
<polygon fill="black" stroke="black" points="557.47,-290.53 546.87,-290.59 555.19,-297.15 557.47,-290.53"/>
<g id="a_edge17_7"><a xlink:href="docs/safe.goFirst.html" xlink:title="&lt;TABLE&gt;">
<text text-anchor="start" x="569.36" y="-367.6" font-family="Times,serif" font-size="13.00">goFirst (safe)</text>
</a>
</g>
<g id="a_edge17_8"><a xlink:href="docs/safe.goLast.html" xlink:title="&lt;TABLE&gt;">
<text text-anchor="start" x="569.36" y="-347.6" font-family="Times,serif" font-size="13.00">goLast (safe)</text>
</a>
</g>
<g id="a_edge17_9"><a xlink:href="docs/safe.goNext.html" xlink:title="&lt;TABLE&gt;">
<text text-anchor="start" x="569.36" y="-327.6" font-family="Times,serif" font-size="13.00">goNext (safe)</text>
</a>
</g>
<g id="a_edge17_10"><a xlink:href="docs/safe.goPrevious.html" xlink:title="&lt;TABLE&gt;">
<text text-anchor="start" x="569.36" y="-307.6" font-family="Times,serif" font-size="13.00">goPrevious (safe)</text>
</a>
</g>
<g id="a_edge17_11"><a xlink:href="docs/safe.listActive.html" xlink:title="&lt;TABLE&gt;">
<text text-anchor="start" x="569.36" y="-287.6" font-family="Times,serif" font-size="13.00">listActive (safe)</text>
</a>
</g>
<g id="a_edge17_12"><a xlink:href="docs/safe.listAll.html" xlink:title="&lt;TABLE&gt;">
<text text-anchor="start" x="569.36" y="-267.6" font-family="Times,serif" font-size="13.00">listAll (safe)</text>
</a>
</g>
<g id="a_edge17_13"><a xlink:href="docs/safe.listCompleted.html" xlink:title="&lt;TABLE&gt;">
<text text-anchor="start" x="569.36" y="-247.6" font-family="Times,serif" font-size="13.00">listCompleted (safe)</text>
</a>
</g>
</g>
<!-- home -->
<g id="node6" class="node">
<title>home</title>
<g id="a_node6"><a xlink:href="docs/semantic.home.html" xlink:title="home" target="_parent">
<polygon fill="lightgray" stroke="black" stroke-width="2" points="515.36,-36 461.36,-36 461.36,0 515.36,0 515.36,-36"/>
<text text-anchor="middle" x="488.36" y="-14.3" font-family="Times,serif" font-size="14.00">home</text>
</a>
</g>
</g>
<!-- todoList&#45;&gt;home -->
<g id="edge14" class="edge">
<title>todoList&#45;&gt;home</title>
<g id="a_edge14"><a xlink:href="docs/safe.goHome.html" xlink:title="goHome (safe)" target="_parent">
<path fill="none" stroke="black" d="M496.97,-274.8C492.77,-258.84 488.44,-239.63 486.36,-222 479,-159.45 482.89,-85.31 485.91,-46.24"/>
<polygon fill="black" stroke="black" points="489.41,-46.44 486.73,-36.19 482.43,-45.87 489.41,-46.44"/>
</a>
</g>
<g id="a_edge14&#45;label"><a xlink:href="docs/safe.goHome.html" xlink:title="goHome (safe)" target="_parent">
<text text-anchor="middle" x="524.36" y="-100.6" font-family="Times,serif" font-size="13.00">goHome (safe)</text>
</a>
</g>
</g>
<!-- todoList&#45;&gt;related -->
<g id="edge15" class="edge">
<title>todoList&#45;&gt;related</title>
<g id="a_edge15"><a xlink:href="docs/safe.goRelated.html" xlink:title="goRelated (safe)" target="_parent">
<path fill="none" stroke="black" d="M547.15,-291.18C574.04,-276.29 607.9,-252.87 626.36,-222 642.7,-194.69 645.49,-157.54 645.14,-132.49"/>
<polygon fill="black" stroke="black" points="648.63,-132.12 644.82,-122.23 641.64,-132.34 648.63,-132.12"/>
</a>
</g>
<g id="a_edge15&#45;label"><a xlink:href="docs/safe.goRelated.html" xlink:title="goRelated (safe)" target="_parent">
<text text-anchor="middle" x="688.86" y="-177.6" font-family="Times,serif" font-size="13.00">goRelated (safe)</text>
</a>
</g>
</g>
<!-- About&#45;&gt;Blog -->
<g id="edge1" class="edge">
<title>About&#45;&gt;Blog</title>
<g id="a_edge1"><a xlink:href="docs/safe.backToBlog.html" xlink:title="backToBlog (safe)" target="_parent">
<path fill="none" stroke="black" d="M353.47,-329.24C367.58,-355.83 388.96,-407.39 365.36,-442 347.29,-468.52 313.74,-481.77 284.61,-488.39"/>
<polygon fill="black" stroke="black" points="283.61,-485.02 274.53,-490.47 285.03,-491.88 283.61,-485.02"/>
</a>
</g>
<g id="a_edge1&#45;label"><a xlink:href="docs/safe.backToBlog.html" xlink:title="backToBlog (safe)" target="_parent">
<text text-anchor="middle" x="426.36" y="-417.6" font-family="Times,serif" font-size="13.00">backToBlog (safe)</text>
</a>
</g>
</g>
<!-- home&#45;&gt;todoList -->
<g id="edge7" class="edge">
<title>home&#45;&gt;todoList</title>
<g id="a_edge7"><a xlink:href="docs/safe.listAll.html" xlink:title="listAll (safe)" target="_parent">
<path fill="none" stroke="black" d="M460.95,-27.69C435.45,-37.41 398.96,-55.87 382.36,-86 374.64,-100.01 377.74,-106.68 382.36,-122 399.07,-177.29 437.96,-231.22 467.96,-267.03"/>
<polygon fill="black" stroke="black" points="465.45,-269.49 474.6,-274.84 470.79,-264.96 465.45,-269.49"/>
</a>
</g>
<g id="a_edge7&#45;label"><a xlink:href="docs/safe.listAll.html" xlink:title="listAll (safe)" target="_parent">
<text text-anchor="middle" x="416.36" y="-100.6" font-family="Times,serif" font-size="13.00">listAll (safe)</text>
</a>
</g>
</g>
<!-- home&#45;&gt;related -->
<g id="edge6" class="edge">
<title>home&#45;&gt;related</title>
<g id="a_edge6"><a xlink:href="docs/safe.goRelated.html" xlink:title="goRelated (safe)" target="_parent">
<path fill="none" stroke="black" d="M515.65,-21.6C541.79,-25.24 581.3,-33.84 609.36,-54 617.64,-59.94 624.58,-68.56 629.98,-76.91"/>
<polygon fill="black" stroke="black" points="627.11,-78.94 635.24,-85.74 633.13,-75.35 627.11,-78.94"/>
</a>
</g>
<g id="a_edge6&#45;label"><a xlink:href="docs/safe.goRelated.html" xlink:title="goRelated (safe)" target="_parent">
<text text-anchor="middle" x="666.86" y="-57.6" font-family="Times,serif" font-size="13.00">goRelated (safe)</text>
</a>
</g>
</g>
<!-- related&#45;&gt;todoItem -->
<g id="edge9" class="edge">
<title>related&#45;&gt;todoItem</title>
<path fill="none" stroke="black" d="M670.82,-107.88C697.19,-111.73 737.21,-120.49 766.36,-140 813.44,-171.5 826.78,-186.5 845.36,-240 866.07,-299.62 872.78,-325.15 845.36,-382 826.1,-421.95 785.09,-452.13 752.07,-471.21"/>
<polygon fill="black" stroke="black" points="750.01,-468.35 742.99,-476.29 753.43,-474.46 750.01,-468.35"/>
<g id="a_edge9_14"><a xlink:href="docs/unsafe.add.html" xlink:title="&lt;TABLE&gt;">
<text text-anchor="start" x="867.86" y="-327.6" font-family="Times,serif" font-size="13.00">add (unsafe)</text>
</a>
</g>
<g id="a_edge9_15"><a xlink:href="docs/idempotent.edit.html" xlink:title="&lt;TABLE&gt;">
<text text-anchor="start" x="867.86" y="-307.6" font-family="Times,serif" font-size="13.00">edit (idempotent)</text>
</a>
</g>
<g id="a_edge9_16"><a xlink:href="docs/safe.read.html" xlink:title="&lt;TABLE&gt;">
<text text-anchor="start" x="867.86" y="-287.6" font-family="Times,serif" font-size="13.00">read (safe)</text>
</a>
</g>
</g>
<!-- related&#45;&gt;todoList -->
<g id="edge10" class="edge">
<title>related&#45;&gt;todoList</title>
<path fill="none" stroke="black" d="M616.1,-110.12C578.12,-117.52 513.14,-131.28 506.36,-140 479.23,-174.94 484.21,-227.25 493.01,-264.61"/>
<polygon fill="black" stroke="black" points="489.72,-265.89 495.57,-274.73 496.51,-264.17 489.72,-265.89"/>
<g id="a_edge10_17"><a xlink:href="docs/safe.listActive.html" xlink:title="&lt;TABLE&gt;">
<text text-anchor="start" x="510.36" y="-207.6" font-family="Times,serif" font-size="13.00">listActive (safe)</text>
</a>
</g>
<g id="a_edge10_18"><a xlink:href="docs/safe.listAll.html" xlink:title="&lt;TABLE&gt;">
<text text-anchor="start" x="510.36" y="-187.6" font-family="Times,serif" font-size="13.00">listAll (safe)</text>
</a>
</g>
<g id="a_edge10_19"><a xlink:href="docs/safe.listCompleted.html" xlink:title="&lt;TABLE&gt;">
<text text-anchor="start" x="510.36" y="-167.6" font-family="Times,serif" font-size="13.00">listCompleted (safe)</text>
</a>
</g>
<g id="a_edge10_20"><a xlink:href="docs/idempotent.remove.html" xlink:title="&lt;TABLE&gt;">
<text text-anchor="start" x="510.36" y="-147.6" font-family="Times,serif" font-size="13.00">remove (idempotent)</text>
</a>
</g>
</g>
<!-- related&#45;&gt;home -->
<g id="edge8" class="edge">
<title>related&#45;&gt;home</title>
<g id="a_edge8"><a xlink:href="docs/safe.goHome.html" xlink:title="goHome (safe)" target="_parent">
<path fill="none" stroke="black" d="M615.96,-99.84C590.58,-95.83 552.76,-86.99 525.36,-68 516.65,-61.96 509.12,-53.22 503.18,-44.78"/>
<polygon fill="black" stroke="black" points="505.98,-42.67 497.57,-36.23 500.13,-46.51 505.98,-42.67"/>
</a>
</g>
<g id="a_edge8&#45;label"><a xlink:href="docs/safe.goHome.html" xlink:title="goHome (safe)" target="_parent">
<text text-anchor="middle" x="565.36" y="-57.6" font-family="Times,serif" font-size="13.00">goHome (safe)</text>
</a>
</g>
</g>
</g>
</svg>
