<?xml version="1.0" encoding="UTF-8" standalone="no"?>
<!DOCTYPE svg PUBLIC "-//W3C//DTD SVG 1.1//EN"
 "http://www.w3.org/Graphics/SVG/1.1/DTD/svg11.dtd">
<!-- Generated by graphviz version 8.1.0 (20230707.0739)
 -->
<!-- Title: application_state_diagram Pages: 1 -->
<svg width="492pt" height="584pt"
 viewBox="0.00 0.00 491.61 583.88" xmlns="http://www.w3.org/2000/svg" xmlns:xlink="http://www.w3.org/1999/xlink">
<g id="graph0" class="graph" transform="scale(1 1) rotate(0) translate(4 579.88)">
<title>application_state_diagram</title>
<g id="a_graph0"><a xlink:href="index.html" xlink:title="MVC ToDo List" target="_parent">
<polygon fill="white" stroke="none" points="-4,4 -4,-579.88 487.61,-579.88 487.61,4 -4,4"/>
<text text-anchor="middle" x="241.8" y="-558.58" font-family="Helvetica,sans-Serif" font-size="14.00">MVC ToDo List</text>
</a>
</g>
<!-- TodoItem -->
<g id="node1" class="node">
<title>TodoItem</title>
<g id="a_node1"><a xlink:href="docs/semantic.TodoItem.html" xlink:title="&lt;TABLE&gt;" target="_parent">
<polygon fill="lightgray" stroke="black" stroke-width="2" points="300.11,-552.88 221.23,-552.88 221.23,-474 300.11,-474 300.11,-552.88"/>
<text text-anchor="start" x="233.67" y="-533.14" font-family="Times,serif" font-size="14.00">TodoItem</text>
<text text-anchor="start" x="250.92" y="-516.64" font-family="Times,serif" font-size="14.00">(id)</text>
<text text-anchor="start" x="245.67" y="-500.14" font-family="Times,serif" font-size="14.00">(title)</text>
<text text-anchor="start" x="227.67" y="-483.64" font-family="Times,serif" font-size="14.00">(completed)</text>
</a>
</g>
</g>
<!-- TodoItem&#45;&gt;TodoItem -->
<g id="edge7" class="edge">
<title>TodoItem&#45;&gt;TodoItem</title>
<path fill="none" stroke="black" d="M300.4,-528.16C310.52,-527.19 318.11,-522.28 318.11,-513.44 318.11,-508.05 315.29,-504.12 310.8,-501.66"/>
<polygon fill="black" stroke="black" points="311.98,-498.07 301.4,-498.72 310.07,-504.81 311.98,-498.07"/>
<g id="a_edge7_0"><a xlink:href="docs/idempotent.clearCompleted.html" xlink:title="clearCompleted (idempotent)">
<text text-anchor="start" x="322.11" y="-529.59" font-family="Times,serif" font-size="13.00">clearCompleted (idempotent)</text>
</a>
</g>
<g id="a_edge7_1"><a xlink:href="docs/idempotent.edit.html" xlink:title="edit (idempotent)">
<text text-anchor="start" x="322.11" y="-508.59" font-family="Times,serif" font-size="13.00">edit (idempotent)</text>
</a>
</g>
<g id="a_edge7_2"><a xlink:href="docs/idempotent.markCompleted.html" xlink:title="markCompleted (idempotent)">
<text text-anchor="start" x="322.11" y="-487.59" font-family="Times,serif" font-size="13.00">markCompleted (idempotent)</text>
</a>
</g>
</g>
<!-- TodoList -->
<g id="node2" class="node">
<title>TodoList</title>
<g id="a_node2"><a xlink:href="docs/semantic.TodoList.html" xlink:title="&lt;TABLE&gt;" target="_parent">
<polygon fill="lightgray" stroke="black" stroke-width="2" points="122.11,-358.94 43.23,-358.94 43.23,-280.06 122.11,-280.06 122.11,-358.94"/>
<text text-anchor="start" x="57.92" y="-339.2" font-family="Times,serif" font-size="14.00">TodoList</text>
<text text-anchor="start" x="72.92" y="-322.7" font-family="Times,serif" font-size="14.00">(id)</text>
<text text-anchor="start" x="67.67" y="-306.2" font-family="Times,serif" font-size="14.00">(title)</text>
<text text-anchor="start" x="49.67" y="-289.7" font-family="Times,serif" font-size="14.00">(completed)</text>
</a>
</g>
</g>
<!-- TodoItem&#45;&gt;TodoList -->
<g id="edge8" class="edge">
<title>TodoItem&#45;&gt;TodoList</title>
<path fill="none" stroke="black" d="M220.87,-513.19C176.84,-511.6 107.64,-501.41 73.92,-456 55.85,-431.66 58.14,-397.59 64.89,-369.71"/>
<polygon fill="black" stroke="black" points="68.46,-370.92 67.67,-360.35 61.7,-369.11 68.46,-370.92"/>
<g id="a_edge8_3"><a xlink:href="docs/safe.listAll.html" xlink:title="listAll (safe)">
<text text-anchor="start" x="78.67" y="-439.65" font-family="Times,serif" font-size="13.00">listAll (safe)</text>
</a>
</g>
<g id="a_edge8_4"><a xlink:href="docs/idempotent.remove.html" xlink:title="remove (idempotent)">
<text text-anchor="start" x="78.67" y="-418.65" font-family="Times,serif" font-size="13.00">remove (idempotent)</text>
</a>
</g>
</g>
<!-- Related -->
<g id="node4" class="node">
<title>Related</title>
<g id="a_node4"><a xlink:href="docs/semantic.Related.html" xlink:title="Related" target="_parent">
<polygon fill="lightgray" stroke="black" stroke-width="2" points="254.29,-123 197.04,-123 197.04,-87 254.29,-87 254.29,-123"/>
<text text-anchor="middle" x="225.67" y="-99.95" font-family="Times,serif" font-size="14.00">Related</text>
</a>
</g>
</g>
<!-- TodoItem&#45;&gt;Related -->
<g id="edge6" class="edge">
<title>TodoItem&#45;&gt;Related</title>
<g id="a_edge6"><a xlink:href="docs/safe.goRelated.html" xlink:title="goRelated" target="_parent">
<path fill="none" stroke="black" d="M285.17,-473.71C287.84,-467.96 290.14,-461.96 291.67,-456 296.98,-435.3 320.32,-194.12 288.67,-141 283.05,-131.57 273.88,-124.49 264.25,-119.26"/>
<polygon fill="black" stroke="black" points="266.12,-115.79 255.59,-114.63 263.1,-122.11 266.12,-115.79"/>
</a>
</g>
<g id="a_edge6&#45;label"><a xlink:href="docs/safe.goRelated.html" xlink:title="goRelated" target="_parent">
<text text-anchor="start" x="304.67" y="-314.65" font-family="Times,serif" font-size="13.00">goRelated</text>
</a>
</g>
</g>
<!-- TodoList&#45;&gt;TodoItem -->
<g id="edge11" class="edge">
<title>TodoList&#45;&gt;TodoItem</title>
<path fill="none" stroke="black" d="M122.49,-347.27C145.29,-363.99 173.32,-387.03 193.67,-412 207.64,-429.15 204.93,-437.41 216.92,-456 218.8,-458.92 220.79,-461.87 222.85,-464.82"/>
<polygon fill="black" stroke="black" points="220.49,-466.53 229.17,-472.6 226.17,-462.44 220.49,-466.53"/>
<g id="a_edge11_5"><a xlink:href="docs/unsafe.add.html" xlink:title="add (unsafe)">
<text text-anchor="start" x="220.67" y="-439.65" font-family="Times,serif" font-size="13.00">add (unsafe)</text>
</a>
</g>
<g id="a_edge11_6"><a xlink:href="docs/safe.read.html" xlink:title="read (safe)">
<text text-anchor="start" x="220.67" y="-418.65" font-family="Times,serif" font-size="13.00">read (safe)</text>
</a>
</g>
</g>
<!-- TodoList&#45;&gt;TodoList -->
<g id="edge12" class="edge">
<title>TodoList&#45;&gt;TodoList</title>
<path fill="none" stroke="black" d="M122.4,-340.71C132.52,-339.32 140.11,-332.25 140.11,-319.5 140.11,-311.53 137.14,-305.78 132.45,-302.25"/>
<polygon fill="black" stroke="black" points="133.99,-298.7 123.4,-298.29 131.42,-305.21 133.99,-298.7"/>
<g id="a_edge12_7"><a xlink:href="docs/safe.goFirst.html" xlink:title="goFirst (safe)">
<text text-anchor="start" x="144.11" y="-377.65" font-family="Times,serif" font-size="13.00">goFirst (safe)</text>
</a>
</g>
<g id="a_edge12_8"><a xlink:href="docs/safe.goLast.html" xlink:title="goLast (safe)">
<text text-anchor="start" x="144.11" y="-356.65" font-family="Times,serif" font-size="13.00">goLast (safe)</text>
</a>
</g>
<g id="a_edge12_9"><a xlink:href="docs/safe.goNext.html" xlink:title="goNext (safe)">
<text text-anchor="start" x="144.11" y="-335.65" font-family="Times,serif" font-size="13.00">goNext (safe)</text>
</a>
</g>
<g id="a_edge12_10"><a xlink:href="docs/safe.goPrevious.html" xlink:title="goPrevious (safe)">
<text text-anchor="start" x="144.11" y="-314.65" font-family="Times,serif" font-size="13.00">goPrevious (safe)</text>
</a>
</g>
<g id="a_edge12_11"><a xlink:href="docs/safe.listActive.html" xlink:title="listActive (safe)">
<text text-anchor="start" x="144.11" y="-293.65" font-family="Times,serif" font-size="13.00">listActive (safe)</text>
</a>
</g>
<g id="a_edge12_12"><a xlink:href="docs/safe.listAll.html" xlink:title="listAll (safe)">
<text text-anchor="start" x="144.11" y="-272.65" font-family="Times,serif" font-size="13.00">listAll (safe)</text>
</a>
</g>
<g id="a_edge12_13"><a xlink:href="docs/safe.listCompleted.html" xlink:title="listCompleted (safe)">
<text text-anchor="start" x="144.11" y="-251.65" font-family="Times,serif" font-size="13.00">listCompleted (safe)</text>
</a>
</g>
</g>
<!-- Home -->
<g id="node3" class="node">
<title>Home</title>
<g id="a_node3"><a xlink:href="docs/semantic.Home.html" xlink:title="Home" target="_parent">
<polygon fill="lightgray" stroke="black" stroke-width="2" points="102.67,-36 48.67,-36 48.67,0 102.67,0 102.67,-36"/>
<text text-anchor="middle" x="75.67" y="-12.95" font-family="Times,serif" font-size="14.00">Home</text>
</a>
</g>
</g>
<!-- TodoList&#45;&gt;Home -->
<g id="edge9" class="edge">
<title>TodoList&#45;&gt;Home</title>
<g id="a_edge9"><a xlink:href="docs/safe.goHome.html" xlink:title="goHome" target="_parent">
<path fill="none" stroke="black" d="M79.05,-279.8C77.7,-263.52 76.33,-244.35 75.67,-227 73.21,-162.63 74.18,-86.97 74.99,-47.01"/>
<polygon fill="black" stroke="black" points="78.51,-47.34 75.22,-37.27 71.51,-47.19 78.51,-47.34"/>
</a>
</g>
<g id="a_edge9&#45;label"><a xlink:href="docs/safe.goHome.html" xlink:title="goHome" target="_parent">
<text text-anchor="start" x="74.67" y="-100.15" font-family="Times,serif" font-size="13.00">goHome</text>
</a>
</g>
</g>
<!-- TodoList&#45;&gt;Related -->
<g id="edge10" class="edge">
<title>TodoList&#45;&gt;Related</title>
<g id="a_edge10"><a xlink:href="docs/safe.goRelated.html" xlink:title="goRelated" target="_parent">
<path fill="none" stroke="black" d="M122.48,-302C152.92,-287.13 193.05,-262.19 213.67,-227 230.23,-198.73 231.12,-160.25 229.26,-134.34"/>
<polygon fill="black" stroke="black" points="232.65,-134.04 228.25,-124.41 225.68,-134.68 232.65,-134.04"/>
</a>
</g>
<g id="a_edge10&#45;label"><a xlink:href="docs/safe.goRelated.html" xlink:title="goRelated" target="_parent">
<text text-anchor="start" x="229.67" y="-179.15" font-family="Times,serif" font-size="13.00">goRelated</text>
</a>
</g>
</g>
<!-- Home&#45;&gt;TodoList -->
<g id="edge2" class="edge">
<title>Home&#45;&gt;TodoList</title>
<g id="a_edge2"><a xlink:href="docs/safe.listAll.html" xlink:title="listAll" target="_parent">
<path fill="none" stroke="black" d="M48.5,-36.22C32.24,-48.23 13,-65.87 3.92,-87 -2.4,-101.7 0.88,-107.29 3.92,-123 14.06,-175.49 38.28,-231.75 57.2,-270.38"/>
<polygon fill="black" stroke="black" points="54.3,-271.41 61.89,-278.81 60.57,-268.29 54.3,-271.41"/>
</a>
</g>
<g id="a_edge2&#45;label"><a xlink:href="docs/safe.listAll.html" xlink:title="listAll" target="_parent">
<text text-anchor="start" x="4.67" y="-100.15" font-family="Times,serif" font-size="13.00">listAll</text>
</a>
</g>
</g>
<!-- Home&#45;&gt;Related -->
<g id="edge1" class="edge">
<title>Home&#45;&gt;Related</title>
<g id="a_edge1"><a xlink:href="docs/safe.goRelated.html" xlink:title="goRelated" target="_parent">
<path fill="none" stroke="black" d="M102.95,-28.13C120.06,-34.36 142.28,-43.4 160.67,-54 173.42,-61.35 186.47,-70.92 197.5,-79.71"/>
<polygon fill="black" stroke="black" points="194.91,-82.93 204.87,-86.54 199.33,-77.51 194.91,-82.93"/>
</a>
</g>
<g id="a_edge1&#45;label"><a xlink:href="docs/safe.goRelated.html" xlink:title="goRelated" target="_parent">
<text text-anchor="start" x="182.67" y="-56.65" font-family="Times,serif" font-size="13.00">goRelated</text>
</a>
</g>
</g>
<!-- Related&#45;&gt;TodoItem -->
<g id="edge4" class="edge">
<title>Related&#45;&gt;TodoItem</title>
<path fill="none" stroke="black" d="M254.75,-110.61C275.15,-115.19 301.86,-124.09 319.67,-141 356.19,-175.68 354.46,-195.68 364.67,-245 378.1,-309.85 385.12,-331.01 364.67,-394 354.47,-425.41 330.78,-453.53 308.58,-474.47"/>
<polygon fill="black" stroke="black" points="306.52,-471.53 301.49,-480.86 311.24,-476.7 306.52,-471.53"/>
<g id="a_edge4_14"><a xlink:href="docs/unsafe.add.html" xlink:title="add (unsafe)">
<text text-anchor="start" x="380.67" y="-335.65" font-family="Times,serif" font-size="13.00">add (unsafe)</text>
</a>
</g>
<g id="a_edge4_15"><a xlink:href="docs/idempotent.edit.html" xlink:title="edit (idempotent)">
<text text-anchor="start" x="380.67" y="-314.65" font-family="Times,serif" font-size="13.00">edit (idempotent)</text>
</a>
</g>
<g id="a_edge4_16"><a xlink:href="docs/safe.read.html" xlink:title="read (safe)">
<text text-anchor="start" x="380.67" y="-293.65" font-family="Times,serif" font-size="13.00">read (safe)</text>
</a>
</g>
</g>
<!-- Related&#45;&gt;TodoList -->
<g id="edge5" class="edge">
<title>Related&#45;&gt;TodoList</title>
<path fill="none" stroke="black" d="M196.59,-109.75C161.87,-114.88 106.83,-125.27 93.92,-141 78.4,-159.91 77.78,-223.4 79.56,-269.05"/>
<polygon fill="black" stroke="black" points="76.11,-269.1 80.05,-278.94 83.1,-268.79 76.11,-269.1"/>
<g id="a_edge5_17"><a xlink:href="docs/safe.listActive.html" xlink:title="listActive (safe)">
<text text-anchor="start" x="98.67" y="-210.65" font-family="Times,serif" font-size="13.00">listActive (safe)</text>
</a>
</g>
<g id="a_edge5_18"><a xlink:href="docs/safe.listAll.html" xlink:title="listAll (safe)">
<text text-anchor="start" x="98.67" y="-189.65" font-family="Times,serif" font-size="13.00">listAll (safe)</text>
</a>
</g>
<g id="a_edge5_19"><a xlink:href="docs/safe.listCompleted.html" xlink:title="listCompleted (safe)">
<text text-anchor="start" x="98.67" y="-168.65" font-family="Times,serif" font-size="13.00">listCompleted (safe)</text>
</a>
</g>
<g id="a_edge5_20"><a xlink:href="docs/idempotent.remove.html" xlink:title="remove (idempotent)">
<text text-anchor="start" x="98.67" y="-147.65" font-family="Times,serif" font-size="13.00">remove (idempotent)</text>
</a>
</g>
</g>
<!-- Related&#45;&gt;Home -->
<g id="edge3" class="edge">
<title>Related&#45;&gt;Home</title>
<g id="a_edge3"><a xlink:href="docs/safe.goHome.html" xlink:title="goHome" target="_parent">
<path fill="none" stroke="black" d="M196.94,-100.55C172.21,-96.42 136.57,-87.56 110.92,-69 102.42,-62.85 95.23,-54 89.6,-45.44"/>
<polygon fill="black" stroke="black" points="92.1,-43.82 83.93,-37.08 86.12,-47.44 92.1,-43.82"/>
</a>
</g>
<g id="a_edge3&#45;label"><a xlink:href="docs/safe.goHome.html" xlink:title="goHome" target="_parent">
<text text-anchor="start" x="111.67" y="-56.65" font-family="Times,serif" font-size="13.00">goHome</text>
</a>
</g>
</g>
</g>
</svg>
