<?xml version="1.0" encoding="UTF-8" standalone="no"?>
<!DOCTYPE svg PUBLIC "-//W3C//DTD SVG 1.1//EN"
 "http://www.w3.org/Graphics/SVG/1.1/DTD/svg11.dtd">
<!-- Generated by graphviz version 7.1.0 (20230121.1956)
 -->
<!-- Title: application_state_diagram Pages: 1 -->
<svg width="595pt" height="563pt"
 viewBox="0.00 0.00 595.02 563.00" xmlns="http://www.w3.org/2000/svg" xmlns:xlink="http://www.w3.org/1999/xlink">
<g id="graph0" class="graph" transform="scale(1 1) rotate(0) translate(4 559)">
<title>application_state_diagram</title>
<g id="a_graph0"><a xlink:href="index.html" xlink:title="MVC ToDo List" target="_parent">
<polygon fill="white" stroke="none" points="-4,4 -4,-559 591.02,-559 591.02,4 -4,4"/>
<text text-anchor="middle" x="293.51" y="-539.8" font-family="Helvetica,sans-Serif" font-size="14.00">MVC ToDo List</text>
</a>
</g>
<!-- TodoItem -->
<g id="node1" class="node">
<title>TodoItem</title>
<g id="a_node1"><a xlink:href="docs/semantic.TodoItem.html" xlink:title="&lt;TABLE&gt;" target="_parent">
<polygon fill="lightgray" stroke="black" stroke-width="2" points="366.52,-532 287.52,-532 287.52,-460 366.52,-460 366.52,-532"/>
<text text-anchor="start" x="300.02" y="-514.8" font-family="Times,serif" font-size="14.00">TodoItem</text>
<text text-anchor="start" x="317.52" y="-499.8" font-family="Times,serif" font-size="14.00">(id)</text>
<text text-anchor="start" x="312.02" y="-484.8" font-family="Times,serif" font-size="14.00">(title)</text>
<text text-anchor="start" x="294.02" y="-469.8" font-family="Times,serif" font-size="14.00">(completed)</text>
</a>
</g>
</g>
<!-- TodoItem&#45;&gt;TodoItem -->
<g id="edge7" class="edge">
<title>TodoItem&#45;&gt;TodoItem</title>
<path fill="none" stroke="black" d="M366.79,-509.89C376.92,-508.98 384.52,-504.35 384.52,-496 384.52,-491.04 381.84,-487.4 377.54,-485.06"/>
<polygon fill="black" stroke="black" points="378.82,-481.78 368.25,-482.51 376.96,-488.53 378.82,-481.78"/>
<g id="a_edge7_0"><a xlink:href="docs/idempotent.clearCompleted.html" xlink:title="clearCompleted (idempotent)">
<text text-anchor="start" x="388.52" y="-512.6" font-family="Times,serif" font-size="13.00">clearCompleted (idempotent)</text>
</a>
</g>
<g id="a_edge7_1"><a xlink:href="docs/idempotent.edit.html" xlink:title="edit (idempotent)">
<text text-anchor="start" x="388.52" y="-492.6" font-family="Times,serif" font-size="13.00">edit (idempotent)</text>
</a>
</g>
<g id="a_edge7_2"><a xlink:href="docs/idempotent.markCompleted.html" xlink:title="markCompleted (idempotent)">
<text text-anchor="start" x="388.52" y="-472.6" font-family="Times,serif" font-size="13.00">markCompleted (idempotent)</text>
</a>
</g>
</g>
<!-- TodoList -->
<g id="node2" class="node">
<title>TodoList</title>
<g id="a_node2"><a xlink:href="docs/semantic.TodoList.html" xlink:title="&lt;TABLE&gt;" target="_parent">
<polygon fill="lightgray" stroke="black" stroke-width="2" points="169.52,-347 90.52,-347 90.52,-275 169.52,-275 169.52,-347"/>
<text text-anchor="start" x="105.52" y="-329.8" font-family="Times,serif" font-size="14.00">TodoList</text>
<text text-anchor="start" x="120.52" y="-314.8" font-family="Times,serif" font-size="14.00">(id)</text>
<text text-anchor="start" x="115.02" y="-299.8" font-family="Times,serif" font-size="14.00">(title)</text>
<text text-anchor="start" x="97.02" y="-284.8" font-family="Times,serif" font-size="14.00">(completed)</text>
</a>
</g>
</g>
<!-- TodoItem&#45;&gt;TodoList -->
<g id="edge8" class="edge">
<title>TodoItem&#45;&gt;TodoList</title>
<path fill="none" stroke="black" d="M287.05,-489.09C237.86,-480.95 158.55,-464.66 140.02,-442 121.33,-419.16 119.08,-385.87 121.38,-358.69"/>
<polygon fill="black" stroke="black" points="124.83,-359.29 122.44,-348.97 117.87,-358.53 124.83,-359.29"/>
<g id="a_edge8_3"><a xlink:href="docs/safe.listAll.html" xlink:title="listAll (safe)">
<text text-anchor="start" x="144.02" y="-427.6" font-family="Times,serif" font-size="13.00">listAll (safe)</text>
</a>
</g>
<g id="a_edge8_4"><a xlink:href="docs/idempotent.remove.html" xlink:title="remove (idempotent)">
<text text-anchor="start" x="144.02" y="-407.6" font-family="Times,serif" font-size="13.00">remove (idempotent)</text>
</a>
</g>
</g>
<!-- Related -->
<g id="node4" class="node">
<title>Related</title>
<g id="a_node4"><a xlink:href="docs/semantic.Related.html" xlink:title="Related" target="_parent">
<polygon fill="lightgray" stroke="black" stroke-width="2" points="295.02,-122 237.02,-122 237.02,-86 295.02,-86 295.02,-122"/>
<text text-anchor="middle" x="266.02" y="-100.3" font-family="Times,serif" font-size="14.00">Related</text>
</a>
</g>
</g>
<!-- TodoItem&#45;&gt;Related -->
<g id="edge6" class="edge">
<title>TodoItem&#45;&gt;Related</title>
<g id="a_edge6"><a xlink:href="docs/safe.goRelated.html" xlink:title="goRelated (safe)" target="_parent">
<path fill="none" stroke="black" d="M353.53,-459.55C356.61,-453.92 359.26,-447.98 361.02,-442 363.93,-432.07 377.87,-165.59 360.02,-140 347.86,-122.57 325.93,-113.8 306.31,-109.4"/>
<polygon fill="black" stroke="black" points="307.08,-105.99 296.6,-107.56 305.77,-112.86 307.08,-105.99"/>
</a>
</g>
<g id="a_edge6&#45;label"><a xlink:href="docs/safe.goRelated.html" xlink:title="goRelated (safe)" target="_parent">
<text text-anchor="start" x="368.02" y="-307.6" font-family="Times,serif" font-size="13.00">goRelated (safe)</text>
</a>
</g>
</g>
<!-- TodoList&#45;&gt;TodoItem -->
<g id="edge11" class="edge">
<title>TodoList&#45;&gt;TodoItem</title>
<path fill="none" stroke="black" d="M169.92,-333.05C197.45,-348.91 233.69,-372.57 260.02,-400 275.22,-415.84 273.51,-423.96 286.02,-442 287.98,-444.82 290.03,-447.7 292.13,-450.59"/>
<polygon fill="black" stroke="black" points="289.26,-452.59 298.03,-458.53 294.87,-448.41 289.26,-452.59"/>
<g id="a_edge11_5"><a xlink:href="docs/unsafe.add.html" xlink:title="add (unsafe)">
<text text-anchor="start" x="290.52" y="-427.6" font-family="Times,serif" font-size="13.00">add (unsafe)</text>
</a>
</g>
<g id="a_edge11_6"><a xlink:href="docs/safe.read.html" xlink:title="read (safe)">
<text text-anchor="start" x="290.52" y="-407.6" font-family="Times,serif" font-size="13.00">read (safe)</text>
</a>
</g>
</g>
<!-- TodoList&#45;&gt;TodoList -->
<g id="edge12" class="edge">
<title>TodoList&#45;&gt;TodoList</title>
<path fill="none" stroke="black" d="M169.79,-331.38C179.92,-330.04 187.52,-323.25 187.52,-311 187.52,-303.54 184.69,-298.1 180.2,-294.69"/>
<polygon fill="black" stroke="black" points="181.79,-291.55 171.2,-291.17 179.24,-298.07 181.79,-291.55"/>
<g id="a_edge12_7"><a xlink:href="docs/safe.goFirst.html" xlink:title="goFirst (safe)">
<text text-anchor="start" x="192.02" y="-367.6" font-family="Times,serif" font-size="13.00">goFirst (safe)</text>
</a>
</g>
<g id="a_edge12_8"><a xlink:href="docs/safe.goLast.html" xlink:title="goLast (safe)">
<text text-anchor="start" x="192.02" y="-347.6" font-family="Times,serif" font-size="13.00">goLast (safe)</text>
</a>
</g>
<g id="a_edge12_9"><a xlink:href="docs/safe.goNext.html" xlink:title="goNext (safe)">
<text text-anchor="start" x="192.02" y="-327.6" font-family="Times,serif" font-size="13.00">goNext (safe)</text>
</a>
</g>
<g id="a_edge12_10"><a xlink:href="docs/safe.goPrevious.html" xlink:title="goPrevious (safe)">
<text text-anchor="start" x="192.02" y="-307.6" font-family="Times,serif" font-size="13.00">goPrevious (safe)</text>
</a>
</g>
<g id="a_edge12_11"><a xlink:href="docs/safe.listActive.html" xlink:title="listActive (safe)">
<text text-anchor="start" x="192.02" y="-287.6" font-family="Times,serif" font-size="13.00">listActive (safe)</text>
</a>
</g>
<g id="a_edge12_12"><a xlink:href="docs/safe.listAll.html" xlink:title="listAll (safe)">
<text text-anchor="start" x="192.02" y="-267.6" font-family="Times,serif" font-size="13.00">listAll (safe)</text>
</a>
</g>
<g id="a_edge12_13"><a xlink:href="docs/safe.listCompleted.html" xlink:title="listCompleted (safe)">
<text text-anchor="start" x="192.02" y="-247.6" font-family="Times,serif" font-size="13.00">listCompleted (safe)</text>
</a>
</g>
</g>
<!-- Home -->
<g id="node3" class="node">
<title>Home</title>
<g id="a_node3"><a xlink:href="docs/semantic.Home.html" xlink:title="Home" target="_parent">
<polygon fill="lightgray" stroke="black" stroke-width="2" points="138.02,-36 84.02,-36 84.02,0 138.02,0 138.02,-36"/>
<text text-anchor="middle" x="111.02" y="-14.3" font-family="Times,serif" font-size="14.00">Home</text>
</a>
</g>
</g>
<!-- TodoList&#45;&gt;Home -->
<g id="edge9" class="edge">
<title>TodoList&#45;&gt;Home</title>
<g id="a_edge9"><a xlink:href="docs/safe.goHome.html" xlink:title="goHome (safe)" target="_parent">
<path fill="none" stroke="black" d="M119.62,-274.8C115.43,-258.84 111.09,-239.63 109.02,-222 101.75,-160.28 105.45,-87.27 108.45,-47.81"/>
<polygon fill="black" stroke="black" points="111.93,-48.22 109.24,-37.97 104.95,-47.65 111.93,-48.22"/>
</a>
</g>
<g id="a_edge9&#45;label"><a xlink:href="docs/safe.goHome.html" xlink:title="goHome (safe)" target="_parent">
<text text-anchor="start" x="107.02" y="-100.6" font-family="Times,serif" font-size="13.00">goHome (safe)</text>
</a>
</g>
</g>
<!-- TodoList&#45;&gt;Related -->
<g id="edge10" class="edge">
<title>TodoList&#45;&gt;Related</title>
<g id="a_edge10"><a xlink:href="docs/safe.goRelated.html" xlink:title="goRelated (safe)" target="_parent">
<path fill="none" stroke="black" d="M169.8,-291.18C196.69,-276.29 230.55,-252.87 249.02,-222 265.14,-195.06 268.06,-158.54 267.81,-133.51"/>
<polygon fill="black" stroke="black" points="271.31,-133.64 267.51,-123.75 264.32,-133.85 271.31,-133.64"/>
</a>
</g>
<g id="a_edge10&#45;label"><a xlink:href="docs/safe.goRelated.html" xlink:title="goRelated (safe)" target="_parent">
<text text-anchor="start" x="267.02" y="-177.6" font-family="Times,serif" font-size="13.00">goRelated (safe)</text>
</a>
</g>
</g>
<!-- Home&#45;&gt;TodoList -->
<g id="edge2" class="edge">
<title>Home&#45;&gt;TodoList</title>
<g id="a_edge2"><a xlink:href="docs/safe.listAll.html" xlink:title="listAll (safe)" target="_parent">
<path fill="none" stroke="black" d="M83.61,-27.69C58.1,-37.41 21.62,-55.87 5.02,-86 -2.7,-100.01 0.39,-106.68 5.02,-122 21.53,-176.65 59.72,-229.97 89.57,-265.79"/>
<polygon fill="black" stroke="black" points="86.85,-267.99 95.98,-273.35 92.18,-263.46 86.85,-267.99"/>
</a>
</g>
<g id="a_edge2&#45;label"><a xlink:href="docs/safe.listAll.html" xlink:title="listAll (safe)" target="_parent">
<text text-anchor="start" x="5.02" y="-100.6" font-family="Times,serif" font-size="13.00">listAll (safe)</text>
</a>
</g>
</g>
<!-- Home&#45;&gt;Related -->
<g id="edge1" class="edge">
<title>Home&#45;&gt;Related</title>
<g id="a_edge1"><a xlink:href="docs/safe.goRelated.html" xlink:title="goRelated (safe)" target="_parent">
<path fill="none" stroke="black" d="M138.3,-21.6C164.44,-25.24 203.95,-33.84 232.02,-54 240.03,-59.75 246.79,-68.01 252.11,-76.11"/>
<polygon fill="black" stroke="black" points="248.96,-77.67 257.11,-84.44 254.97,-74.06 248.96,-77.67"/>
</a>
</g>
<g id="a_edge1&#45;label"><a xlink:href="docs/safe.goRelated.html" xlink:title="goRelated (safe)" target="_parent">
<text text-anchor="start" x="245.02" y="-57.6" font-family="Times,serif" font-size="13.00">goRelated (safe)</text>
</a>
</g>
</g>
<!-- Related&#45;&gt;TodoItem -->
<g id="edge4" class="edge">
<title>Related&#45;&gt;TodoItem</title>
<path fill="none" stroke="black" d="M295.5,-108.19C321.86,-112.18 360.6,-120.99 389.02,-140 436.09,-171.5 449.43,-186.5 468.02,-240 488.72,-299.62 495.33,-325.11 468.02,-382 449.13,-421.34 409.14,-451.29 376.55,-470.44"/>
<polygon fill="black" stroke="black" points="374.99,-467.31 368.02,-475.29 378.44,-473.39 374.99,-467.31"/>
<g id="a_edge4_14"><a xlink:href="docs/unsafe.add.html" xlink:title="add (unsafe)">
<text text-anchor="start" x="490.52" y="-327.6" font-family="Times,serif" font-size="13.00">add (unsafe)</text>
</a>
</g>
<g id="a_edge4_15"><a xlink:href="docs/idempotent.edit.html" xlink:title="edit (idempotent)">
<text text-anchor="start" x="490.52" y="-307.6" font-family="Times,serif" font-size="13.00">edit (idempotent)</text>
</a>
</g>
<g id="a_edge4_16"><a xlink:href="docs/safe.read.html" xlink:title="read (safe)">
<text text-anchor="start" x="490.52" y="-287.6" font-family="Times,serif" font-size="13.00">read (safe)</text>
</a>
</g>
</g>
<!-- Related&#45;&gt;TodoList -->
<g id="edge5" class="edge">
<title>Related&#45;&gt;TodoList</title>
<path fill="none" stroke="black" d="M236.83,-110.49C198.62,-117.97 135.68,-131.42 129.02,-140 102.11,-174.64 106.78,-226.36 115.44,-263.65"/>
<polygon fill="black" stroke="black" points="112.02,-264.41 117.85,-273.26 118.81,-262.71 112.02,-264.41"/>
<g id="a_edge5_17"><a xlink:href="docs/safe.listActive.html" xlink:title="listActive (safe)">
<text text-anchor="start" x="133.02" y="-207.6" font-family="Times,serif" font-size="13.00">listActive (safe)</text>
</a>
</g>
<g id="a_edge5_18"><a xlink:href="docs/safe.listAll.html" xlink:title="listAll (safe)">
<text text-anchor="start" x="133.02" y="-187.6" font-family="Times,serif" font-size="13.00">listAll (safe)</text>
</a>
</g>
<g id="a_edge5_19"><a xlink:href="docs/safe.listCompleted.html" xlink:title="listCompleted (safe)">
<text text-anchor="start" x="133.02" y="-167.6" font-family="Times,serif" font-size="13.00">listCompleted (safe)</text>
</a>
</g>
<g id="a_edge5_20"><a xlink:href="docs/idempotent.remove.html" xlink:title="remove (idempotent)">
<text text-anchor="start" x="133.02" y="-147.6" font-family="Times,serif" font-size="13.00">remove (idempotent)</text>
</a>
</g>
</g>
<!-- Related&#45;&gt;Home -->
<g id="edge3" class="edge">
<title>Related&#45;&gt;Home</title>
<g id="a_edge3"><a xlink:href="docs/safe.goHome.html" xlink:title="goHome (safe)" target="_parent">
<path fill="none" stroke="black" d="M236.63,-99.53C211.3,-95.37 174.71,-86.51 148.02,-68 139.58,-62.15 132.25,-53.77 126.4,-45.58"/>
<polygon fill="black" stroke="black" points="129.49,-43.91 121.05,-37.5 123.65,-47.77 129.49,-43.91"/>
</a>
</g>
<g id="a_edge3&#45;label"><a xlink:href="docs/safe.goHome.html" xlink:title="goHome (safe)" target="_parent">
<text text-anchor="start" x="148.02" y="-57.6" font-family="Times,serif" font-size="13.00">goHome (safe)</text>
</a>
</g>
</g>
</g>
</svg>
