<?xml version="1.0" encoding="UTF-8" standalone="no"?>
<!DOCTYPE svg PUBLIC "-//W3C//DTD SVG 1.1//EN"
 "http://www.w3.org/Graphics/SVG/1.1/DTD/svg11.dtd">
<!-- Generated by graphviz version 2.46.1 (20210213.1702)
 -->
<!-- Title: application_state_diagram Pages: 1 -->
<svg width="733pt" height="553pt"
 viewBox="0.00 0.00 732.50 553.00" xmlns="http://www.w3.org/2000/svg" xmlns:xlink="http://www.w3.org/1999/xlink">
<g id="graph0" class="graph" transform="scale(1 1) rotate(0) translate(4 549)">
<title>application_state_diagram</title>
<g id="a_graph0"><a xlink:href="index.html" xlink:title="MVC ToDo List" target="_parent">
<polygon fill="white" stroke="transparent" points="-4,4 -4,-549 728.5,-549 728.5,4 -4,4"/>
<text text-anchor="middle" x="362.25" y="-529.8" font-family="Helvetica,sans-Serif" font-size="14.00">MVC ToDo List</text>
</a>
</g>
<!-- todoList -->
<g id="node1" class="node">
<title>todoList</title>
<g id="a_node1"><a xlink:href="docs/semantic.todoList.html" xlink:title="&lt;TABLE&gt;" target="_parent">
<polygon fill="lightgray" stroke="black" stroke-width="2" points="401,-487 322,-487 322,-415 401,-415 401,-487"/>
<text text-anchor="start" x="339" y="-469.8" font-family="Times,serif" font-size="14.00">todoList</text>
<text text-anchor="start" x="352" y="-454.8" font-family="Times,serif" font-size="14.00">(id)</text>
<text text-anchor="start" x="346.5" y="-439.8" font-family="Times,serif" font-size="14.00">(title)</text>
<text text-anchor="start" x="328.5" y="-424.8" font-family="Times,serif" font-size="14.00">(completed)</text>
</a>
</g>
</g>
<!-- todoList&#45;&gt;todoList -->
<g id="edge7" class="edge">
<title>todoList&#45;&gt;todoList</title>
<path fill="none" stroke="black" d="M401.01,-471.41C411.26,-470.16 419,-463.35 419,-451 419,-442.89 415.67,-437.18 410.48,-433.85"/>
<polygon fill="black" stroke="black" points="411.6,-430.53 401.01,-430.59 409.32,-437.15 411.6,-430.53"/>
<g id="a_edge7_0"><a xlink:href="docs/safe.listAll.html" xlink:title="&lt;TABLE&gt;">
<text text-anchor="start" x="423.5" y="-507.6" font-family="Times,serif" font-size="13.00">listAll (safe)</text>
</a>
</g>
<g id="a_edge7_1"><a xlink:href="docs/safe.listActive.html" xlink:title="&lt;TABLE&gt;">
<text text-anchor="start" x="423.5" y="-487.6" font-family="Times,serif" font-size="13.00">listActive (safe)</text>
</a>
</g>
<g id="a_edge7_2"><a xlink:href="docs/safe.listCompleted.html" xlink:title="&lt;TABLE&gt;">
<text text-anchor="start" x="423.5" y="-467.6" font-family="Times,serif" font-size="13.00">listCompleted (safe)</text>
</a>
</g>
<g id="a_edge7_3"><a xlink:href="docs/safe.goFirst.html" xlink:title="&lt;TABLE&gt;">
<text text-anchor="start" x="423.5" y="-447.6" font-family="Times,serif" font-size="13.00">goFirst (safe)</text>
</a>
</g>
<g id="a_edge7_4"><a xlink:href="docs/safe.goNext.html" xlink:title="&lt;TABLE&gt;">
<text text-anchor="start" x="423.5" y="-427.6" font-family="Times,serif" font-size="13.00">goNext (safe)</text>
</a>
</g>
<g id="a_edge7_5"><a xlink:href="docs/safe.goPrevious.html" xlink:title="&lt;TABLE&gt;">
<text text-anchor="start" x="423.5" y="-407.6" font-family="Times,serif" font-size="13.00">goPrevious (safe)</text>
</a>
</g>
<g id="a_edge7_6"><a xlink:href="docs/safe.goLast.html" xlink:title="&lt;TABLE&gt;">
<text text-anchor="start" x="423.5" y="-387.6" font-family="Times,serif" font-size="13.00">goLast (safe)</text>
</a>
</g>
</g>
<!-- todoItem -->
<g id="node2" class="node">
<title>todoItem</title>
<g id="a_node2"><a xlink:href="docs/semantic.todoItem.html" xlink:title="&lt;TABLE&gt;" target="_parent">
<polygon fill="lightgray" stroke="black" stroke-width="2" points="79,-297 0,-297 0,-225 79,-225 79,-297"/>
<text text-anchor="start" x="15" y="-279.8" font-family="Times,serif" font-size="14.00">todoItem</text>
<text text-anchor="start" x="30" y="-264.8" font-family="Times,serif" font-size="14.00">(id)</text>
<text text-anchor="start" x="24.5" y="-249.8" font-family="Times,serif" font-size="14.00">(title)</text>
<text text-anchor="start" x="6.5" y="-234.8" font-family="Times,serif" font-size="14.00">(completed)</text>
</a>
</g>
</g>
<!-- todoList&#45;&gt;todoItem -->
<g id="edge6" class="edge">
<title>todoList&#45;&gt;todoItem</title>
<path fill="none" stroke="black" d="M321.98,-450.54C257.35,-449.14 129.37,-436.42 60.5,-362 46.92,-347.32 41.22,-326.18 39.11,-307.11"/>
<polygon fill="black" stroke="black" points="42.59,-306.76 38.29,-297.08 35.61,-307.33 42.59,-306.76"/>
<g id="a_edge6_7"><a xlink:href="docs/safe.read.html" xlink:title="&lt;TABLE&gt;">
<text text-anchor="start" x="65" y="-347.6" font-family="Times,serif" font-size="13.00">read (safe)</text>
</a>
</g>
<g id="a_edge6_8"><a xlink:href="docs/unsafe.add.html" xlink:title="&lt;TABLE&gt;">
<text text-anchor="start" x="65" y="-327.6" font-family="Times,serif" font-size="13.00">add (unsafe)</text>
</a>
</g>
</g>
<!-- home -->
<g id="node3" class="node">
<title>home</title>
<g id="a_node3"><a xlink:href="docs/semantic.home.html" xlink:title="home" target="_parent">
<polygon fill="lightgray" stroke="black" stroke-width="2" points="531.5,-36 477.5,-36 477.5,0 531.5,0 531.5,-36"/>
<text text-anchor="middle" x="504.5" y="-14.3" font-family="Times,serif" font-size="14.00">home</text>
</a>
</g>
</g>
<!-- todoList&#45;&gt;home -->
<g id="edge8" class="edge">
<title>todoList&#45;&gt;home</title>
<g id="a_edge8"><a xlink:href="docs/safe.goHome.html" xlink:title="goHome (safe)" target="_parent">
<path fill="none" stroke="black" d="M401.02,-427.98C440.93,-403.23 500.18,-358.95 525.5,-302 536.25,-277.82 537.06,-118.1 521.5,-54 520.81,-51.17 519.87,-48.3 518.79,-45.48"/>
<polygon fill="black" stroke="black" points="521.95,-43.97 514.69,-36.25 515.55,-46.81 521.95,-43.97"/>
</a>
</g>
<g id="a_edge8&#45;label"><a xlink:href="docs/safe.goHome.html" xlink:title="goHome (safe)" target="_parent">
<text text-anchor="middle" x="572.5" y="-167.6" font-family="Times,serif" font-size="13.00">goHome (safe)</text>
</a>
</g>
</g>
<!-- related -->
<g id="node4" class="node">
<title>related</title>
<g id="a_node4"><a xlink:href="docs/semantic.related.html" xlink:title="related" target="_parent">
<polygon fill="lightgray" stroke="black" stroke-width="2" points="334.5,-122 280.5,-122 280.5,-86 334.5,-86 334.5,-122"/>
<text text-anchor="middle" x="307.5" y="-100.3" font-family="Times,serif" font-size="14.00">related</text>
</a>
</g>
</g>
<!-- todoList&#45;&gt;related -->
<g id="edge9" class="edge">
<title>todoList&#45;&gt;related</title>
<g id="a_edge9"><a xlink:href="docs/safe.goRelated.html" xlink:title="goRelated (safe)" target="_parent">
<path fill="none" stroke="black" d="M342.04,-414.79C327.08,-385.57 307.62,-342.42 299.5,-302 287.53,-242.44 296,-170.78 302.33,-132.42"/>
<polygon fill="black" stroke="black" points="305.86,-132.53 304.11,-122.08 298.96,-131.34 305.86,-132.53"/>
</a>
</g>
<g id="a_edge9&#45;label"><a xlink:href="docs/safe.goRelated.html" xlink:title="goRelated (safe)" target="_parent">
<text text-anchor="middle" x="344" y="-257.6" font-family="Times,serif" font-size="13.00">goRelated (safe)</text>
</a>
</g>
</g>
<!-- todoItem&#45;&gt;todoList -->
<g id="edge10" class="edge">
<title>todoItem&#45;&gt;todoList</title>
<path fill="none" stroke="black" d="M79.36,-281.3C97.66,-291.31 118.93,-304.65 135.5,-320 152.33,-335.59 147.75,-347.46 165.5,-362 209.18,-397.78 269.73,-422.01 311.93,-435.84"/>
<polygon fill="black" stroke="black" points="311.11,-439.26 321.7,-438.97 313.24,-432.59 311.11,-439.26"/>
<g id="a_edge10_9"><a xlink:href="docs/safe.listAll.html" xlink:title="&lt;TABLE&gt;">
<text text-anchor="start" x="169.5" y="-347.6" font-family="Times,serif" font-size="13.00">listAll (safe)</text>
</a>
</g>
<g id="a_edge10_10"><a xlink:href="docs/idempotent.remove.html" xlink:title="&lt;TABLE&gt;">
<text text-anchor="start" x="169.5" y="-327.6" font-family="Times,serif" font-size="13.00">remove (idempotent)</text>
</a>
</g>
</g>
<!-- todoItem&#45;&gt;todoItem -->
<g id="edge11" class="edge">
<title>todoItem&#45;&gt;todoItem</title>
<path fill="none" stroke="black" d="M79.01,-275.85C89.26,-274.93 97,-269.98 97,-261 97,-255.24 93.83,-251.15 88.85,-248.7"/>
<polygon fill="black" stroke="black" points="89.56,-245.27 79.01,-246.15 87.81,-252.05 89.56,-245.27"/>
<g id="a_edge11_11"><a xlink:href="docs/idempotent.edit.html" xlink:title="&lt;TABLE&gt;">
<text text-anchor="start" x="101" y="-277.6" font-family="Times,serif" font-size="13.00">edit (idempotent)</text>
</a>
</g>
<g id="a_edge11_12"><a xlink:href="docs/idempotent.markCompleted.html" xlink:title="&lt;TABLE&gt;">
<text text-anchor="start" x="101" y="-257.6" font-family="Times,serif" font-size="13.00">markCompleted (idempotent)</text>
</a>
</g>
<g id="a_edge11_13"><a xlink:href="docs/idempotent.clearCompleted.html" xlink:title="&lt;TABLE&gt;">
<text text-anchor="start" x="101" y="-237.6" font-family="Times,serif" font-size="13.00">clearCompleted (idempotent)</text>
</a>
</g>
</g>
<!-- todoItem&#45;&gt;related -->
<g id="edge12" class="edge">
<title>todoItem&#45;&gt;related</title>
<g id="a_edge12"><a xlink:href="docs/safe.goRelated.html" xlink:title="goRelated (safe)" target="_parent">
<path fill="none" stroke="black" d="M31.13,-224.91C27.01,-198.17 26.68,-162.27 47.5,-140 76.96,-108.48 205.21,-104.45 269.9,-104.48"/>
<polygon fill="black" stroke="black" points="270.07,-107.98 280.08,-104.52 270.1,-100.98 270.07,-107.98"/>
</a>
</g>
<g id="a_edge12&#45;label"><a xlink:href="docs/safe.goRelated.html" xlink:title="goRelated (safe)" target="_parent">
<text text-anchor="middle" x="92" y="-167.6" font-family="Times,serif" font-size="13.00">goRelated (safe)</text>
</a>
</g>
</g>
<!-- home&#45;&gt;todoList -->
<g id="edge1" class="edge">
<title>home&#45;&gt;todoList</title>
<g id="a_edge1"><a xlink:href="docs/safe.listAll.html" xlink:title="listAll (safe)" target="_parent">
<path fill="none" stroke="black" d="M531.8,-26.78C548.69,-32.48 570.19,-41.44 586.5,-54 643.71,-98.05 667.72,-131.21 653.5,-202 638.31,-277.58 641.66,-308.14 586.5,-362 538.07,-409.29 461.29,-431.93 411.14,-442.2"/>
<polygon fill="black" stroke="black" points="410.32,-438.8 401.17,-444.15 411.66,-445.67 410.32,-438.8"/>
</a>
</g>
<g id="a_edge1&#45;label"><a xlink:href="docs/safe.listAll.html" xlink:title="listAll (safe)" target="_parent">
<text text-anchor="middle" x="690.5" y="-167.6" font-family="Times,serif" font-size="13.00">listAll (safe)</text>
</a>
</g>
</g>
<!-- home&#45;&gt;related -->
<g id="edge2" class="edge">
<title>home&#45;&gt;related</title>
<g id="a_edge2"><a xlink:href="docs/safe.goRelated.html" xlink:title="goRelated (safe)" target="_parent">
<path fill="none" stroke="black" d="M477.4,-32.5C456.57,-42.7 426.97,-56.8 400.5,-68 382.17,-75.75 361.48,-83.62 344.27,-89.94"/>
<polygon fill="black" stroke="black" points="342.79,-86.75 334.59,-93.46 345.18,-93.33 342.79,-86.75"/>
</a>
</g>
<g id="a_edge2&#45;label"><a xlink:href="docs/safe.goRelated.html" xlink:title="goRelated (safe)" target="_parent">
<text text-anchor="middle" x="473" y="-57.6" font-family="Times,serif" font-size="13.00">goRelated (safe)</text>
</a>
</g>
</g>
<!-- related&#45;&gt;todoList -->
<g id="edge4" class="edge">
<title>related&#45;&gt;todoList</title>
<path fill="none" stroke="black" d="M325.73,-122.01C346.53,-142.8 379.37,-180.15 392.5,-220 412.98,-282.17 394.99,-358.05 379.1,-405.21"/>
<polygon fill="black" stroke="black" points="375.74,-404.22 375.76,-414.82 382.35,-406.52 375.74,-404.22"/>
<g id="a_edge4_14"><a xlink:href="docs/safe.listAll.html" xlink:title="&lt;TABLE&gt;">
<text text-anchor="start" x="405.5" y="-287.6" font-family="Times,serif" font-size="13.00">listAll (safe)</text>
</a>
</g>
<g id="a_edge4_15"><a xlink:href="docs/safe.listActive.html" xlink:title="&lt;TABLE&gt;">
<text text-anchor="start" x="405.5" y="-267.6" font-family="Times,serif" font-size="13.00">listActive (safe)</text>
</a>
</g>
<g id="a_edge4_16"><a xlink:href="docs/safe.listCompleted.html" xlink:title="&lt;TABLE&gt;">
<text text-anchor="start" x="405.5" y="-247.6" font-family="Times,serif" font-size="13.00">listCompleted (safe)</text>
</a>
</g>
<g id="a_edge4_17"><a xlink:href="docs/idempotent.remove.html" xlink:title="&lt;TABLE&gt;">
<text text-anchor="start" x="405.5" y="-227.6" font-family="Times,serif" font-size="13.00">remove (idempotent)</text>
</a>
</g>
</g>
<!-- related&#45;&gt;todoItem -->
<g id="edge5" class="edge">
<title>related&#45;&gt;todoItem</title>
<path fill="none" stroke="black" d="M280.32,-107.49C253.79,-111.05 213.32,-119.62 184.5,-140 156.91,-159.51 165.51,-179.28 140.5,-202 125.08,-216.01 105.71,-228.14 88.07,-237.63"/>
<polygon fill="black" stroke="black" points="86.27,-234.62 79.03,-242.35 89.51,-240.82 86.27,-234.62"/>
<g id="a_edge5_18"><a xlink:href="docs/safe.read.html" xlink:title="&lt;TABLE&gt;">
<text text-anchor="start" x="189" y="-187.6" font-family="Times,serif" font-size="13.00">read (safe)</text>
</a>
</g>
<g id="a_edge5_19"><a xlink:href="docs/unsafe.add.html" xlink:title="&lt;TABLE&gt;">
<text text-anchor="start" x="189" y="-167.6" font-family="Times,serif" font-size="13.00">add (unsafe)</text>
</a>
</g>
<g id="a_edge5_20"><a xlink:href="docs/idempotent.edit.html" xlink:title="&lt;TABLE&gt;">
<text text-anchor="start" x="189" y="-147.6" font-family="Times,serif" font-size="13.00">edit (idempotent)</text>
</a>
</g>
</g>
<!-- related&#45;&gt;home -->
<g id="edge3" class="edge">
<title>related&#45;&gt;home</title>
<g id="a_edge3"><a xlink:href="docs/safe.goHome.html" xlink:title="goHome (safe)" target="_parent">
<path fill="none" stroke="black" d="M306.11,-85.81C306.23,-75.25 308.31,-62.21 316.5,-54 337.14,-33.31 418.33,-24.52 467.01,-21.05"/>
<polygon fill="black" stroke="black" points="467.42,-24.53 477.16,-20.37 466.95,-17.55 467.42,-24.53"/>
</a>
</g>
<g id="a_edge3&#45;label"><a xlink:href="docs/safe.goHome.html" xlink:title="goHome (safe)" target="_parent">
<text text-anchor="middle" x="356.5" y="-57.6" font-family="Times,serif" font-size="13.00">goHome (safe)</text>
</a>
</g>
</g>
</g>
</svg>
