<?xml version="1.0" encoding="UTF-8" standalone="no"?>
<!DOCTYPE svg PUBLIC "-//W3C//DTD SVG 1.1//EN"
 "http://www.w3.org/Graphics/SVG/1.1/DTD/svg11.dtd">
<!-- Generated by graphviz version 9.0.0 (20230911.1827)
 -->
<!-- Title: application_state_diagram Pages: 1 -->
<svg width="492pt" height="584pt"
 viewBox="0.00 0.00 491.61 583.88" xmlns="http://www.w3.org/2000/svg" xmlns:xlink="http://www.w3.org/1999/xlink">
<g id="graph0" class="graph" transform="scale(1 1) rotate(0) translate(4 579.88)">
<title>application_state_diagram</title>
<g id="a_graph0"><a xlink:href="index.html" xlink:title="MVC ToDo List" target="_parent">
<polygon fill="white" stroke="none" points="-4,4 -4,-579.88 487.61,-579.88 487.61,4 -4,4"/>
<text text-anchor="middle" x="241.8" y="-558.58" font-family="Helvetica,sans-Serif" font-size="14.00">MVC ToDo List</text>
</a>
</g>
<!-- TodoItem -->
<g id="node1" class="node">
<title>TodoItem</title>
<g id="a_node1"><a xlink:href="#TodoItem" xlink:title="&lt;TABLE&gt;" target="_parent">
<polygon fill="lightgray" stroke="black" stroke-width="2" points="300.11,-552.88 221.23,-552.88 221.23,-474 300.11,-474 300.11,-552.88"/>
<text text-anchor="start" x="233.67" y="-533.14" font-family="Times,serif" font-size="14.00">TodoItem</text>
<text text-anchor="start" x="250.92" y="-516.64" font-family="Times,serif" font-size="14.00">(id)</text>
<text text-anchor="start" x="245.67" y="-500.14" font-family="Times,serif" font-size="14.00">(title)</text>
<text text-anchor="start" x="227.67" y="-483.64" font-family="Times,serif" font-size="14.00">(completed)</text>
</a>
</g>
</g>
<!-- TodoItem&#45;&gt;TodoItem -->
<g id="edge7" class="edge">
<title>TodoItem&#45;&gt;TodoItem</title>
<path fill="none" stroke="black" d="M300.4,-528.16C310.52,-527.19 318.11,-522.28 318.11,-513.44 318.11,-508.19 315.43,-504.33 311.14,-501.85"/>
<polygon fill="black" stroke="black" points="312.43,-498.58 301.85,-499.15 310.48,-505.3 312.43,-498.58"/>
<g id="a_edge7_0"><a xlink:href="#clearCompleted" xlink:title="clearCompleted (idempotent)">
<text text-anchor="start" x="322.11" y="-529.59" font-family="Times,serif" font-size="13.00">clearCompleted (idempotent)</text>
</a>
</g>
<g id="a_edge7_1"><a xlink:href="#edit" xlink:title="edit (idempotent)">
<text text-anchor="start" x="322.11" y="-508.59" font-family="Times,serif" font-size="13.00">edit (idempotent)</text>
</a>
</g>
<g id="a_edge7_2"><a xlink:href="#markCompleted" xlink:title="markCompleted (idempotent)">
<text text-anchor="start" x="322.11" y="-487.59" font-family="Times,serif" font-size="13.00">markCompleted (idempotent)</text>
</a>
</g>
</g>
<!-- TodoList -->
<g id="node2" class="node">
<title>TodoList</title>
<g id="a_node2"><a xlink:href="#TodoList" xlink:title="&lt;TABLE&gt;" target="_parent">
<polygon fill="lightgray" stroke="black" stroke-width="2" points="122.11,-358.94 43.23,-358.94 43.23,-280.06 122.11,-280.06 122.11,-358.94"/>
<text text-anchor="start" x="57.92" y="-339.2" font-family="Times,serif" font-size="14.00">TodoList</text>
<text text-anchor="start" x="72.92" y="-322.7" font-family="Times,serif" font-size="14.00">(id)</text>
<text text-anchor="start" x="67.67" y="-306.2" font-family="Times,serif" font-size="14.00">(title)</text>
<text text-anchor="start" x="49.67" y="-289.7" font-family="Times,serif" font-size="14.00">(completed)</text>
</a>
</g>
</g>
<!-- TodoItem&#45;&gt;TodoList -->
<g id="edge8" class="edge">
<title>TodoItem&#45;&gt;TodoList</title>
<path fill="none" stroke="black" d="M220.87,-513.19C176.84,-511.6 107.64,-501.41 73.92,-456 56.01,-431.88 58.1,-398.19 64.72,-370.44"/>
<polygon fill="black" stroke="black" points="68.09,-371.38 67.28,-360.82 61.32,-369.58 68.09,-371.38"/>
<g id="a_edge8_3"><a xlink:href="#listAll" xlink:title="listAll (safe)">
<text text-anchor="start" x="78.67" y="-439.65" font-family="Times,serif" font-size="13.00">listAll (safe)</text>
</a>
</g>
<g id="a_edge8_4"><a xlink:href="#remove" xlink:title="remove (idempotent)">
<text text-anchor="start" x="78.67" y="-418.65" font-family="Times,serif" font-size="13.00">remove (idempotent)</text>
</a>
</g>
</g>
<!-- Related -->
<g id="node4" class="node">
<title>Related</title>
<g id="a_node4"><a xlink:href="#Related" xlink:title="Related" target="_parent">
<polygon fill="lightgray" stroke="black" stroke-width="2" points="254.29,-123 197.04,-123 197.04,-87 254.29,-87 254.29,-123"/>
<text text-anchor="middle" x="225.67" y="-99.95" font-family="Times,serif" font-size="14.00">Related</text>
</a>
</g>
</g>
<!-- TodoItem&#45;&gt;Related -->
<g id="edge6" class="edge goRelated">
<title>TodoItem&#45;&gt;Related</title>
<g id="a_edge6"><a xlink:href="#goRelated" xlink:title="goRelated" target="_parent">
<path fill="none" stroke="black" stroke-width="1.5" d="M285.17,-473.71C287.84,-467.96 290.14,-461.96 291.67,-456 296.98,-435.3 320.32,-194.12 288.67,-141 283.28,-131.96 274.64,-125.08 265.46,-119.92"/>
<polygon fill="black" stroke="black" stroke-width="1.5" points="267.16,-116.86 256.63,-115.62 264.09,-123.15 267.16,-116.86"/>
</a>
</g>
<g id="a_edge6&#45;label"><a xlink:href="#goRelated" xlink:title="goRelated" target="_parent">
<text text-anchor="start" x="304.67" y="-314.65" font-family="Times,serif" font-size="13.00">goRelated</text>
</a>
</g>
</g>
<!-- TodoList&#45;&gt;TodoItem -->
<g id="edge11" class="edge">
<title>TodoList&#45;&gt;TodoItem</title>
<path fill="none" stroke="black" d="M122.49,-347.27C145.29,-363.99 173.32,-387.03 193.67,-412 207.64,-429.15 204.93,-437.41 216.92,-456 218.68,-458.74 220.54,-461.5 222.47,-464.27"/>
<polygon fill="black" stroke="black" points="219.61,-466.3 228.29,-472.38 225.3,-462.21 219.61,-466.3"/>
<g id="a_edge11_5"><a xlink:href="#add" xlink:title="add (unsafe)">
<text text-anchor="start" x="220.67" y="-439.65" font-family="Times,serif" font-size="13.00">add (unsafe)</text>
</a>
</g>
<g id="a_edge11_6"><a xlink:href="#read" xlink:title="read (safe)">
<text text-anchor="start" x="220.67" y="-418.65" font-family="Times,serif" font-size="13.00">read (safe)</text>
</a>
</g>
</g>
<!-- TodoList&#45;&gt;TodoList -->
<g id="edge12" class="edge">
<title>TodoList&#45;&gt;TodoList</title>
<path fill="none" stroke="black" d="M122.4,-340.71C132.52,-339.32 140.11,-332.25 140.11,-319.5 140.11,-311.73 137.29,-306.07 132.8,-302.52"/>
<polygon fill="black" stroke="black" points="134.38,-299.39 123.8,-298.86 131.74,-305.87 134.38,-299.39"/>
<g id="a_edge12_7"><a xlink:href="#goFirst" xlink:title="goFirst (safe)">
<text text-anchor="start" x="144.11" y="-377.65" font-family="Times,serif" font-size="13.00">goFirst (safe)</text>
</a>
</g>
<g id="a_edge12_8"><a xlink:href="#goLast" xlink:title="goLast (safe)">
<text text-anchor="start" x="144.11" y="-356.65" font-family="Times,serif" font-size="13.00">goLast (safe)</text>
</a>
</g>
<g id="a_edge12_9"><a xlink:href="#goNext" xlink:title="goNext (safe)">
<text text-anchor="start" x="144.11" y="-335.65" font-family="Times,serif" font-size="13.00">goNext (safe)</text>
</a>
</g>
<g id="a_edge12_10"><a xlink:href="#goPrevious" xlink:title="goPrevious (safe)">
<text text-anchor="start" x="144.11" y="-314.65" font-family="Times,serif" font-size="13.00">goPrevious (safe)</text>
</a>
</g>
<g id="a_edge12_11"><a xlink:href="#listActive" xlink:title="listActive (safe)">
<text text-anchor="start" x="144.11" y="-293.65" font-family="Times,serif" font-size="13.00">listActive (safe)</text>
</a>
</g>
<g id="a_edge12_12"><a xlink:href="#listAll" xlink:title="listAll (safe)">
<text text-anchor="start" x="144.11" y="-272.65" font-family="Times,serif" font-size="13.00">listAll (safe)</text>
</a>
</g>
<g id="a_edge12_13"><a xlink:href="#listCompleted" xlink:title="listCompleted (safe)">
<text text-anchor="start" x="144.11" y="-251.65" font-family="Times,serif" font-size="13.00">listCompleted (safe)</text>
</a>
</g>
</g>
<!-- Home -->
<g id="node3" class="node">
<title>Home</title>
<g id="a_node3"><a xlink:href="#Home" xlink:title="Home" target="_parent">
<polygon fill="lightgray" stroke="black" stroke-width="2" points="102.67,-36 48.67,-36 48.67,0 102.67,0 102.67,-36"/>
<text text-anchor="middle" x="75.67" y="-12.95" font-family="Times,serif" font-size="14.00">Home</text>
</a>
</g>
</g>
<!-- TodoList&#45;&gt;Home -->
<g id="edge9" class="edge goHome">
<title>TodoList&#45;&gt;Home</title>
<g id="a_edge9"><a xlink:href="#goHome" xlink:title="goHome" target="_parent">
<path fill="none" stroke="black" stroke-width="1.5" d="M79.05,-279.8C77.7,-263.52 76.33,-244.35 75.67,-227 73.24,-163.32 74.16,-88.59 74.97,-48.31"/>
<polygon fill="black" stroke="black" stroke-width="1.5" points="78.46,-48.61 75.18,-38.54 71.46,-48.46 78.46,-48.61"/>
</a>
</g>
<g id="a_edge9&#45;label"><a xlink:href="#goHome" xlink:title="goHome" target="_parent">
<text text-anchor="start" x="74.67" y="-100.15" font-family="Times,serif" font-size="13.00">goHome</text>
</a>
</g>
</g>
<!-- TodoList&#45;&gt;Related -->
<g id="edge10" class="edge goRelated">
<title>TodoList&#45;&gt;Related</title>
<g id="a_edge10"><a xlink:href="#goRelated" xlink:title="goRelated" target="_parent">
<path fill="none" stroke="black" stroke-width="1.5" d="M122.48,-302C152.92,-287.13 193.05,-262.19 213.67,-227 230.01,-199.11 231.1,-161.29 229.33,-135.4"/>
<polygon fill="black" stroke="black" stroke-width="1.5" points="232.84,-135.31 228.45,-125.67 225.86,-135.94 232.84,-135.31"/>
</a>
</g>
<g id="a_edge10&#45;label"><a xlink:href="#goRelated" xlink:title="goRelated" target="_parent">
<text text-anchor="start" x="229.67" y="-179.15" font-family="Times,serif" font-size="13.00">goRelated</text>
</a>
</g>
</g>
<!-- Home&#45;&gt;TodoList -->
<g id="edge2" class="edge listAll">
<title>Home&#45;&gt;TodoList</title>
<g id="a_edge2"><a xlink:href="#listAll" xlink:title="listAll" target="_parent">
<path fill="none" stroke="black" stroke-width="1.5" d="M48.5,-36.22C32.24,-48.23 13,-65.87 3.92,-87 -2.4,-101.7 0.88,-107.29 3.92,-123 13.93,-174.83 37.67,-230.32 56.48,-268.9"/>
<polygon fill="black" stroke="black" stroke-width="1.5" points="53.3,-270.37 60.88,-277.77 59.57,-267.26 53.3,-270.37"/>
</a>
</g>
<g id="a_edge2&#45;label"><a xlink:href="#listAll" xlink:title="listAll" target="_parent">
<text text-anchor="start" x="4.67" y="-100.15" font-family="Times,serif" font-size="13.00">listAll</text>
</a>
</g>
</g>
<!-- Home&#45;&gt;Related -->
<g id="edge1" class="edge goRelated">
<title>Home&#45;&gt;Related</title>
<g id="a_edge1"><a xlink:href="#goRelated" xlink:title="goRelated" target="_parent">
<path fill="none" stroke="black" stroke-width="1.5" d="M102.95,-28.13C120.06,-34.36 142.28,-43.4 160.67,-54 173.04,-61.13 185.69,-70.35 196.51,-78.93"/>
<polygon fill="black" stroke="black" stroke-width="1.5" points="194.14,-81.51 204.11,-85.11 198.56,-76.08 194.14,-81.51"/>
</a>
</g>
<g id="a_edge1&#45;label"><a xlink:href="#goRelated" xlink:title="goRelated" target="_parent">
<text text-anchor="start" x="182.67" y="-56.65" font-family="Times,serif" font-size="13.00">goRelated</text>
</a>
</g>
</g>
<!-- Related&#45;&gt;TodoItem -->
<g id="edge4" class="edge">
<title>Related&#45;&gt;TodoItem</title>
<path fill="none" stroke="black" d="M254.75,-110.61C275.15,-115.19 301.86,-124.09 319.67,-141 356.19,-175.68 354.46,-195.68 364.67,-245 378.1,-309.85 385.12,-331.01 364.67,-394 354.52,-425.27 330.99,-453.28 308.87,-474.2"/>
<polygon fill="black" stroke="black" points="306.63,-471.51 301.61,-480.84 311.35,-476.67 306.63,-471.51"/>
<g id="a_edge4_14"><a xlink:href="#add" xlink:title="add (unsafe)">
<text text-anchor="start" x="380.67" y="-335.65" font-family="Times,serif" font-size="13.00">add (unsafe)</text>
</a>
</g>
<g id="a_edge4_15"><a xlink:href="#edit" xlink:title="edit (idempotent)">
<text text-anchor="start" x="380.67" y="-314.65" font-family="Times,serif" font-size="13.00">edit (idempotent)</text>
</a>
</g>
<g id="a_edge4_16"><a xlink:href="#read" xlink:title="read (safe)">
<text text-anchor="start" x="380.67" y="-293.65" font-family="Times,serif" font-size="13.00">read (safe)</text>
</a>
</g>
</g>
<!-- Related&#45;&gt;TodoList -->
<g id="edge5" class="edge">
<title>Related&#45;&gt;TodoList</title>
<path fill="none" stroke="black" d="M196.59,-109.75C161.87,-114.88 106.83,-125.27 93.92,-141 78.47,-159.83 77.79,-222.86 79.54,-268.47"/>
<polygon fill="black" stroke="black" points="76.04,-268.59 79.98,-278.43 83.04,-268.28 76.04,-268.59"/>
<g id="a_edge5_17"><a xlink:href="#listActive" xlink:title="listActive (safe)">
<text text-anchor="start" x="98.67" y="-210.65" font-family="Times,serif" font-size="13.00">listActive (safe)</text>
</a>
</g>
<g id="a_edge5_18"><a xlink:href="#listAll" xlink:title="listAll (safe)">
<text text-anchor="start" x="98.67" y="-189.65" font-family="Times,serif" font-size="13.00">listAll (safe)</text>
</a>
</g>
<g id="a_edge5_19"><a xlink:href="#listCompleted" xlink:title="listCompleted (safe)">
<text text-anchor="start" x="98.67" y="-168.65" font-family="Times,serif" font-size="13.00">listCompleted (safe)</text>
</a>
</g>
<g id="a_edge5_20"><a xlink:href="#remove" xlink:title="remove (idempotent)">
<text text-anchor="start" x="98.67" y="-147.65" font-family="Times,serif" font-size="13.00">remove (idempotent)</text>
</a>
</g>
</g>
<!-- Related&#45;&gt;Home -->
<g id="edge3" class="edge goHome">
<title>Related&#45;&gt;Home</title>
<g id="a_edge3"><a xlink:href="#goHome" xlink:title="goHome" target="_parent">
<path fill="none" stroke="black" stroke-width="1.5" d="M196.94,-100.55C172.21,-96.42 136.57,-87.56 110.92,-69 102.69,-63.05 95.69,-54.56 90.15,-46.27"/>
<polygon fill="black" stroke="black" stroke-width="1.5" points="93.31,-44.73 85.11,-38.02 87.33,-48.38 93.31,-44.73"/>
</a>
</g>
<g id="a_edge3&#45;label"><a xlink:href="#goHome" xlink:title="goHome" target="_parent">
<text text-anchor="start" x="111.67" y="-56.65" font-family="Times,serif" font-size="13.00">goHome</text>
</a>
</g>
</g>
</g>
</svg>
