<?xml version="1.0" encoding="UTF-8" standalone="no"?>
<!DOCTYPE svg PUBLIC "-//W3C//DTD SVG 1.1//EN"
 "http://www.w3.org/Graphics/SVG/1.1/DTD/svg11.dtd">
<!-- Generated by graphviz version 2.49.3 (20211023.0002)
 -->
<!-- Title: application_state_diagram Pages: 1 -->
<svg width="581pt" height="563pt"
 viewBox="0.00 0.00 580.97 563.00" xmlns="http://www.w3.org/2000/svg" xmlns:xlink="http://www.w3.org/1999/xlink">
<g id="graph0" class="graph" transform="scale(1 1) rotate(0) translate(4 559)">
<title>application_state_diagram</title>
<g id="a_graph0"><a xlink:href="index.html" xlink:title="MVC ToDo List" target="_parent">
<polygon fill="white" stroke="transparent" points="-4,4 -4,-559 576.97,-559 576.97,4 -4,4"/>
<text text-anchor="middle" x="286.49" y="-539.8" font-family="Helvetica,sans-Serif" font-size="14.00">MVC ToDo List</text>
</a>
</g>
<!-- TodoItem -->
<g id="node1" class="node">
<title>TodoItem</title>
<g id="a_node1"><a xlink:href="docs/semantic.TodoItem.html" xlink:title="&lt;TABLE&gt;" target="_parent">
<polygon fill="lightgray" stroke="black" stroke-width="2" points="360.97,-532 280.97,-532 280.97,-460 360.97,-460 360.97,-532"/>
<text text-anchor="start" x="293.47" y="-514.8" font-family="Times,serif" font-size="14.00">TodoItem</text>
<text text-anchor="start" x="310.47" y="-499.8" font-family="Times,serif" font-size="14.00">(id)</text>
<text text-anchor="start" x="304.97" y="-484.8" font-family="Times,serif" font-size="14.00">(title)</text>
<text text-anchor="start" x="286.97" y="-469.8" font-family="Times,serif" font-size="14.00">(completed)</text>
</a>
</g>
</g>
<!-- TodoItem&#45;&gt;TodoItem -->
<g id="edge7" class="edge">
<title>TodoItem&#45;&gt;TodoItem</title>
<path fill="none" stroke="black" d="M361.09,-509.71C371.3,-508.81 378.97,-504.24 378.97,-496 378.97,-490.72 375.83,-486.95 370.88,-484.68"/>
<polygon fill="black" stroke="black" points="371.64,-481.27 361.09,-482.29 369.97,-488.07 371.64,-481.27"/>
<g id="a_edge7_0"><a xlink:href="docs/idempotent.clearCompleted.html" xlink:title="&lt;TABLE&gt;">
<text text-anchor="start" x="383.47" y="-512.6" font-family="Times,serif" font-size="13.00">clearCompleted (idempotent)</text>
</a>
</g>
<g id="a_edge7_1"><a xlink:href="docs/idempotent.edit.html" xlink:title="&lt;TABLE&gt;">
<text text-anchor="start" x="383.47" y="-492.6" font-family="Times,serif" font-size="13.00">edit (idempotent)</text>
</a>
</g>
<g id="a_edge7_2"><a xlink:href="docs/idempotent.markCompleted.html" xlink:title="&lt;TABLE&gt;">
<text text-anchor="start" x="383.47" y="-472.6" font-family="Times,serif" font-size="13.00">markCompleted (idempotent)</text>
</a>
</g>
</g>
<!-- TodoList -->
<g id="node2" class="node">
<title>TodoList</title>
<g id="a_node2"><a xlink:href="docs/semantic.TodoList.html" xlink:title="&lt;TABLE&gt;" target="_parent">
<polygon fill="lightgray" stroke="black" stroke-width="2" points="167.97,-347 87.97,-347 87.97,-275 167.97,-275 167.97,-347"/>
<text text-anchor="start" x="102.47" y="-329.8" font-family="Times,serif" font-size="14.00">TodoList</text>
<text text-anchor="start" x="117.47" y="-314.8" font-family="Times,serif" font-size="14.00">(id)</text>
<text text-anchor="start" x="111.97" y="-299.8" font-family="Times,serif" font-size="14.00">(title)</text>
<text text-anchor="start" x="93.97" y="-284.8" font-family="Times,serif" font-size="14.00">(completed)</text>
</a>
</g>
</g>
<!-- TodoItem&#45;&gt;TodoList -->
<g id="edge8" class="edge">
<title>TodoItem&#45;&gt;TodoList</title>
<path fill="none" stroke="black" d="M280.77,-488.88C232.27,-480.61 155,-464.3 136.97,-442 118.12,-418.68 116.38,-384.65 119.08,-357.26"/>
<polygon fill="black" stroke="black" points="122.58,-357.47 120.31,-347.12 115.63,-356.63 122.58,-357.47"/>
<g id="a_edge8_3"><a xlink:href="docs/safe.listAll.html" xlink:title="&lt;TABLE&gt;">
<text text-anchor="start" x="140.97" y="-427.6" font-family="Times,serif" font-size="13.00">listAll (safe)</text>
</a>
</g>
<g id="a_edge8_4"><a xlink:href="docs/idempotent.remove.html" xlink:title="&lt;TABLE&gt;">
<text text-anchor="start" x="140.97" y="-407.6" font-family="Times,serif" font-size="13.00">remove (idempotent)</text>
</a>
</g>
</g>
<!-- Related -->
<g id="node4" class="node">
<title>Related</title>
<g id="a_node4"><a xlink:href="docs/semantic.Related.html" xlink:title="Related" target="_parent">
<polygon fill="lightgray" stroke="black" stroke-width="2" points="291.47,-122 232.47,-122 232.47,-86 291.47,-86 291.47,-122"/>
<text text-anchor="middle" x="261.97" y="-100.3" font-family="Times,serif" font-size="14.00">Related</text>
</a>
</g>
</g>
<!-- TodoItem&#45;&gt;Related -->
<g id="edge6" class="edge">
<title>TodoItem&#45;&gt;Related</title>
<g id="a_edge6"><a xlink:href="docs/safe.goRelated.html" xlink:title="goRelated (safe)" target="_parent">
<path fill="none" stroke="black" d="M346.56,-459.78C349.61,-454.07 352.24,-448.04 353.97,-442 356.82,-432.03 370.45,-165.34 352.97,-140 341.32,-123.11 320.3,-114.37 301.4,-109.84"/>
<polygon fill="black" stroke="black" points="301.98,-106.39 291.48,-107.79 300.56,-113.24 301.98,-106.39"/>
</a>
</g>
<g id="a_edge6&#45;label"><a xlink:href="docs/safe.goRelated.html" xlink:title="goRelated (safe)" target="_parent">
<text text-anchor="start" x="360.97" y="-307.6" font-family="Times,serif" font-size="13.00">goRelated (safe)</text>
</a>
</g>
</g>
<!-- TodoList&#45;&gt;TodoItem -->
<g id="edge11" class="edge">
<title>TodoList&#45;&gt;TodoItem</title>
<path fill="none" stroke="black" d="M168.09,-333.92C194.82,-349.85 229.57,-373.25 254.97,-400 270.09,-415.92 268.57,-423.89 280.97,-442 283.18,-445.23 285.51,-448.53 287.88,-451.82"/>
<polygon fill="black" stroke="black" points="285.11,-453.97 293.83,-459.98 290.76,-449.84 285.11,-453.97"/>
<g id="a_edge11_5"><a xlink:href="docs/unsafe.add.html" xlink:title="&lt;TABLE&gt;">
<text text-anchor="start" x="285.47" y="-427.6" font-family="Times,serif" font-size="13.00">add (unsafe)</text>
</a>
</g>
<g id="a_edge11_6"><a xlink:href="docs/safe.read.html" xlink:title="&lt;TABLE&gt;">
<text text-anchor="start" x="285.47" y="-407.6" font-family="Times,serif" font-size="13.00">read (safe)</text>
</a>
</g>
</g>
<!-- TodoList&#45;&gt;TodoList -->
<g id="edge12" class="edge">
<title>TodoList&#45;&gt;TodoList</title>
<path fill="none" stroke="black" d="M168.09,-331.38C178.3,-330.04 185.97,-323.25 185.97,-311 185.97,-303.15 182.83,-297.55 177.88,-294.18"/>
<polygon fill="black" stroke="black" points="178.69,-290.75 168.09,-290.62 176.29,-297.33 178.69,-290.75"/>
<g id="a_edge12_7"><a xlink:href="docs/safe.goFirst.html" xlink:title="&lt;TABLE&gt;">
<text text-anchor="start" x="189.97" y="-367.6" font-family="Times,serif" font-size="13.00">goFirst (safe)</text>
</a>
</g>
<g id="a_edge12_8"><a xlink:href="docs/safe.goLast.html" xlink:title="&lt;TABLE&gt;">
<text text-anchor="start" x="189.97" y="-347.6" font-family="Times,serif" font-size="13.00">goLast (safe)</text>
</a>
</g>
<g id="a_edge12_9"><a xlink:href="docs/safe.goNext.html" xlink:title="&lt;TABLE&gt;">
<text text-anchor="start" x="189.97" y="-327.6" font-family="Times,serif" font-size="13.00">goNext (safe)</text>
</a>
</g>
<g id="a_edge12_10"><a xlink:href="docs/safe.goPrevious.html" xlink:title="&lt;TABLE&gt;">
<text text-anchor="start" x="189.97" y="-307.6" font-family="Times,serif" font-size="13.00">goPrevious (safe)</text>
</a>
</g>
<g id="a_edge12_11"><a xlink:href="docs/safe.listActive.html" xlink:title="&lt;TABLE&gt;">
<text text-anchor="start" x="189.97" y="-287.6" font-family="Times,serif" font-size="13.00">listActive (safe)</text>
</a>
</g>
<g id="a_edge12_12"><a xlink:href="docs/safe.listAll.html" xlink:title="&lt;TABLE&gt;">
<text text-anchor="start" x="189.97" y="-267.6" font-family="Times,serif" font-size="13.00">listAll (safe)</text>
</a>
</g>
<g id="a_edge12_13"><a xlink:href="docs/safe.listCompleted.html" xlink:title="&lt;TABLE&gt;">
<text text-anchor="start" x="189.97" y="-247.6" font-family="Times,serif" font-size="13.00">listCompleted (safe)</text>
</a>
</g>
</g>
<!-- Home -->
<g id="node3" class="node">
<title>Home</title>
<g id="a_node3"><a xlink:href="docs/semantic.Home.html" xlink:title="Home" target="_parent">
<polygon fill="lightgray" stroke="black" stroke-width="2" points="135.97,-36 81.97,-36 81.97,0 135.97,0 135.97,-36"/>
<text text-anchor="middle" x="108.97" y="-14.3" font-family="Times,serif" font-size="14.00">Home</text>
</a>
</g>
</g>
<!-- TodoList&#45;&gt;Home -->
<g id="edge9" class="edge">
<title>TodoList&#45;&gt;Home</title>
<g id="a_edge9"><a xlink:href="docs/safe.goHome.html" xlink:title="goHome (safe)" target="_parent">
<path fill="none" stroke="black" d="M117.58,-274.8C113.38,-258.84 109.05,-239.63 106.97,-222 99.61,-159.45 103.5,-85.31 106.52,-46.24"/>
<polygon fill="black" stroke="black" points="110.02,-46.44 107.34,-36.19 103.04,-45.87 110.02,-46.44"/>
</a>
</g>
<g id="a_edge9&#45;label"><a xlink:href="docs/safe.goHome.html" xlink:title="goHome (safe)" target="_parent">
<text text-anchor="start" x="104.97" y="-100.6" font-family="Times,serif" font-size="13.00">goHome (safe)</text>
</a>
</g>
</g>
<!-- TodoList&#45;&gt;Related -->
<g id="edge10" class="edge">
<title>TodoList&#45;&gt;Related</title>
<g id="a_edge10"><a xlink:href="docs/safe.goRelated.html" xlink:title="goRelated (safe)" target="_parent">
<path fill="none" stroke="black" d="M168.23,-290.38C194.49,-275.39 227.09,-252.17 244.97,-222 261.2,-194.62 264.01,-157.49 263.7,-132.46"/>
<polygon fill="black" stroke="black" points="267.19,-132.1 263.39,-122.21 260.19,-132.31 267.19,-132.1"/>
</a>
</g>
<g id="a_edge10&#45;label"><a xlink:href="docs/safe.goRelated.html" xlink:title="goRelated (safe)" target="_parent">
<text text-anchor="start" x="262.97" y="-177.6" font-family="Times,serif" font-size="13.00">goRelated (safe)</text>
</a>
</g>
</g>
<!-- Home&#45;&gt;TodoList -->
<g id="edge2" class="edge">
<title>Home&#45;&gt;TodoList</title>
<g id="a_edge2"><a xlink:href="docs/safe.listAll.html" xlink:title="listAll (safe)" target="_parent">
<path fill="none" stroke="black" d="M81.59,-28.03C56.57,-37.9 21.12,-56.4 4.97,-86 -2.69,-100.05 0.4,-106.67 4.97,-122 21.39,-177.08 59.66,-231.04 89.19,-266.92"/>
<polygon fill="black" stroke="black" points="86.63,-269.31 95.72,-274.74 92,-264.82 86.63,-269.31"/>
</a>
</g>
<g id="a_edge2&#45;label"><a xlink:href="docs/safe.listAll.html" xlink:title="listAll (safe)" target="_parent">
<text text-anchor="start" x="4.97" y="-100.6" font-family="Times,serif" font-size="13.00">listAll (safe)</text>
</a>
</g>
</g>
<!-- Home&#45;&gt;Related -->
<g id="edge1" class="edge">
<title>Home&#45;&gt;Related</title>
<g id="a_edge1"><a xlink:href="docs/safe.goRelated.html" xlink:title="goRelated (safe)" target="_parent">
<path fill="none" stroke="black" d="M136.3,-21.78C162.01,-25.53 200.56,-34.21 227.97,-54 236.24,-59.96 243.17,-68.58 248.58,-76.93"/>
<polygon fill="black" stroke="black" points="245.71,-78.96 253.83,-85.75 251.72,-75.37 245.71,-78.96"/>
</a>
</g>
<g id="a_edge1&#45;label"><a xlink:href="docs/safe.goRelated.html" xlink:title="goRelated (safe)" target="_parent">
<text text-anchor="start" x="240.97" y="-57.6" font-family="Times,serif" font-size="13.00">goRelated (safe)</text>
</a>
</g>
</g>
<!-- Related&#45;&gt;TodoItem -->
<g id="edge4" class="edge">
<title>Related&#45;&gt;TodoItem</title>
<path fill="none" stroke="black" d="M291.58,-108.34C317.34,-112.42 354.7,-121.25 381.97,-140 427.97,-171.63 440.15,-187.1 457.97,-240 478.12,-299.81 484.89,-324.91 457.97,-382 439.83,-420.49 401.42,-450.32 369.88,-469.65"/>
<polygon fill="black" stroke="black" points="367.99,-466.7 361.19,-474.82 371.57,-472.71 367.99,-466.7"/>
<g id="a_edge4_14"><a xlink:href="docs/unsafe.add.html" xlink:title="&lt;TABLE&gt;">
<text text-anchor="start" x="478.97" y="-327.6" font-family="Times,serif" font-size="13.00">add (unsafe)</text>
</a>
</g>
<g id="a_edge4_15"><a xlink:href="docs/idempotent.edit.html" xlink:title="&lt;TABLE&gt;">
<text text-anchor="start" x="478.97" y="-307.6" font-family="Times,serif" font-size="13.00">edit (idempotent)</text>
</a>
</g>
<g id="a_edge4_16"><a xlink:href="docs/safe.read.html" xlink:title="&lt;TABLE&gt;">
<text text-anchor="start" x="478.97" y="-287.6" font-family="Times,serif" font-size="13.00">read (safe)</text>
</a>
</g>
</g>
<!-- Related&#45;&gt;TodoList -->
<g id="edge5" class="edge">
<title>Related&#45;&gt;TodoList</title>
<path fill="none" stroke="black" d="M232.25,-110.71C194.51,-118.27 133.47,-131.6 126.97,-140 99.9,-174.99 104.87,-227.29 113.65,-264.64"/>
<polygon fill="black" stroke="black" points="110.36,-265.91 116.2,-274.75 117.15,-264.19 110.36,-265.91"/>
<g id="a_edge5_17"><a xlink:href="docs/safe.listActive.html" xlink:title="&lt;TABLE&gt;">
<text text-anchor="start" x="130.97" y="-207.6" font-family="Times,serif" font-size="13.00">listActive (safe)</text>
</a>
</g>
<g id="a_edge5_18"><a xlink:href="docs/safe.listAll.html" xlink:title="&lt;TABLE&gt;">
<text text-anchor="start" x="130.97" y="-187.6" font-family="Times,serif" font-size="13.00">listAll (safe)</text>
</a>
</g>
<g id="a_edge5_19"><a xlink:href="docs/safe.listCompleted.html" xlink:title="&lt;TABLE&gt;">
<text text-anchor="start" x="130.97" y="-167.6" font-family="Times,serif" font-size="13.00">listCompleted (safe)</text>
</a>
</g>
<g id="a_edge5_20"><a xlink:href="docs/idempotent.remove.html" xlink:title="&lt;TABLE&gt;">
<text text-anchor="start" x="130.97" y="-147.6" font-family="Times,serif" font-size="13.00">remove (idempotent)</text>
</a>
</g>
</g>
<!-- Related&#45;&gt;Home -->
<g id="edge3" class="edge">
<title>Related&#45;&gt;Home</title>
<g id="a_edge3"><a xlink:href="docs/safe.goHome.html" xlink:title="goHome (safe)" target="_parent">
<path fill="none" stroke="black" d="M232.09,-99.25C207.24,-94.95 171.86,-86.04 145.97,-68 137.27,-61.94 129.75,-53.19 123.8,-44.76"/>
<polygon fill="black" stroke="black" points="126.6,-42.65 118.19,-36.21 120.75,-46.49 126.6,-42.65"/>
</a>
</g>
<g id="a_edge3&#45;label"><a xlink:href="docs/safe.goHome.html" xlink:title="goHome (safe)" target="_parent">
<text text-anchor="start" x="145.97" y="-57.6" font-family="Times,serif" font-size="13.00">goHome (safe)</text>
</a>
</g>
</g>
</g>
</svg>
