<?xml version="1.0" encoding="UTF-8" standalone="no"?>
<!DOCTYPE svg PUBLIC "-//W3C//DTD SVG 1.1//EN"
 "http://www.w3.org/Graphics/SVG/1.1/DTD/svg11.dtd">
<!-- Generated by graphviz version 8.1.0 (20230707.0739)
 -->
<!-- Title: application_state_diagram Pages: 1 -->
<svg width="594pt" height="584pt"
 viewBox="0.00 0.00 593.70 583.88" xmlns="http://www.w3.org/2000/svg" xmlns:xlink="http://www.w3.org/1999/xlink">
<g id="graph0" class="graph" transform="scale(1 1) rotate(0) translate(4 579.88)">
<title>application_state_diagram</title>
<g id="a_graph0"><a xlink:href="index.html" xlink:title="MVC ToDo List" target="_parent">
<polygon fill="white" stroke="none" points="-4,4 -4,-579.88 589.7,-579.88 589.7,4 -4,4"/>
<text text-anchor="middle" x="292.85" y="-558.58" font-family="Helvetica,sans-Serif" font-size="14.00">MVC ToDo List</text>
</a>
</g>
<!-- TodoItem -->
<g id="node1" class="node">
<title>TodoItem</title>
<g id="a_node1"><a xlink:href="docs/semantic.TodoItem.html" xlink:title="&lt;TABLE&gt;" target="_parent">
<polygon fill="lightgray" stroke="black" stroke-width="2" points="365.89,-552.88 287.01,-552.88 287.01,-474 365.89,-474 365.89,-552.88"/>
<text text-anchor="start" x="299.45" y="-533.14" font-family="Times,serif" font-size="14.00">TodoItem</text>
<text text-anchor="start" x="316.7" y="-516.64" font-family="Times,serif" font-size="14.00">(id)</text>
<text text-anchor="start" x="311.45" y="-500.14" font-family="Times,serif" font-size="14.00">(title)</text>
<text text-anchor="start" x="293.45" y="-483.64" font-family="Times,serif" font-size="14.00">(completed)</text>
</a>
</g>
</g>
<!-- TodoItem&#45;&gt;TodoItem -->
<g id="edge7" class="edge">
<title>TodoItem&#45;&gt;TodoItem</title>
<path fill="none" stroke="black" d="M366.18,-528.16C376.29,-527.19 383.89,-522.28 383.89,-513.44 383.89,-508.05 381.07,-504.12 376.58,-501.66"/>
<polygon fill="black" stroke="black" points="377.75,-498.07 367.18,-498.72 375.85,-504.81 377.75,-498.07"/>
<g id="a_edge7_0"><a xlink:href="docs/idempotent.clearCompleted.html" xlink:title="clearCompleted (idempotent)">
<text text-anchor="start" x="387.89" y="-529.59" font-family="Times,serif" font-size="13.00">clearCompleted (idempotent)</text>
</a>
</g>
<g id="a_edge7_1"><a xlink:href="docs/idempotent.edit.html" xlink:title="edit (idempotent)">
<text text-anchor="start" x="387.89" y="-508.59" font-family="Times,serif" font-size="13.00">edit (idempotent)</text>
</a>
</g>
<g id="a_edge7_2"><a xlink:href="docs/idempotent.markCompleted.html" xlink:title="markCompleted (idempotent)">
<text text-anchor="start" x="387.89" y="-487.59" font-family="Times,serif" font-size="13.00">markCompleted (idempotent)</text>
</a>
</g>
</g>
<!-- TodoList -->
<g id="node2" class="node">
<title>TodoList</title>
<g id="a_node2"><a xlink:href="docs/semantic.TodoList.html" xlink:title="&lt;TABLE&gt;" target="_parent">
<polygon fill="lightgray" stroke="black" stroke-width="2" points="168.89,-358.94 90.01,-358.94 90.01,-280.06 168.89,-280.06 168.89,-358.94"/>
<text text-anchor="start" x="104.7" y="-339.2" font-family="Times,serif" font-size="14.00">TodoList</text>
<text text-anchor="start" x="119.7" y="-322.7" font-family="Times,serif" font-size="14.00">(id)</text>
<text text-anchor="start" x="114.45" y="-306.2" font-family="Times,serif" font-size="14.00">(title)</text>
<text text-anchor="start" x="96.45" y="-289.7" font-family="Times,serif" font-size="14.00">(completed)</text>
</a>
</g>
</g>
<!-- TodoItem&#45;&gt;TodoList -->
<g id="edge8" class="edge">
<title>TodoItem&#45;&gt;TodoList</title>
<path fill="none" stroke="black" d="M286.88,-512.69C243.38,-510.62 175,-499.98 139.7,-456 120.66,-432.29 118.2,-398.1 120.44,-370.01"/>
<polygon fill="black" stroke="black" points="124.01,-370.48 121.56,-360.18 117.05,-369.76 124.01,-370.48"/>
<g id="a_edge8_3"><a xlink:href="docs/safe.listAll.html" xlink:title="listAll (safe)">
<text text-anchor="start" x="144.45" y="-439.65" font-family="Times,serif" font-size="13.00">listAll (safe)</text>
</a>
</g>
<g id="a_edge8_4"><a xlink:href="docs/idempotent.remove.html" xlink:title="remove (idempotent)">
<text text-anchor="start" x="144.45" y="-418.65" font-family="Times,serif" font-size="13.00">remove (idempotent)</text>
</a>
</g>
</g>
<!-- Related -->
<g id="node4" class="node">
<title>Related</title>
<g id="a_node4"><a xlink:href="docs/semantic.Related.html" xlink:title="Related" target="_parent">
<polygon fill="lightgray" stroke="black" stroke-width="2" points="294.07,-123 236.82,-123 236.82,-87 294.07,-87 294.07,-123"/>
<text text-anchor="middle" x="265.45" y="-99.95" font-family="Times,serif" font-size="14.00">Related</text>
</a>
</g>
</g>
<!-- TodoItem&#45;&gt;Related -->
<g id="edge6" class="edge">
<title>TodoItem&#45;&gt;Related</title>
<g id="a_edge6"><a xlink:href="docs/safe.goRelated.html" xlink:title="goRelated (safe)" target="_parent">
<path fill="none" stroke="black" d="M353.46,-473.59C356.32,-467.9 358.79,-461.95 360.45,-456 363.37,-445.49 377.27,-166.55 359.45,-141 347.18,-123.41 324.95,-114.64 305.19,-110.28"/>
<polygon fill="black" stroke="black" points="306.02,-106.69 295.54,-108.28 304.73,-113.57 306.02,-106.69"/>
</a>
</g>
<g id="a_edge6&#45;label"><a xlink:href="docs/safe.goRelated.html" xlink:title="goRelated (safe)" target="_parent">
<text text-anchor="start" x="367.45" y="-314.65" font-family="Times,serif" font-size="13.00">goRelated (safe)</text>
</a>
</g>
</g>
<!-- TodoList&#45;&gt;TodoItem -->
<g id="edge11" class="edge">
<title>TodoList&#45;&gt;TodoItem</title>
<path fill="none" stroke="black" d="M169.15,-342.38C196.76,-358.96 233.18,-383.67 259.45,-412 274.93,-428.7 273.19,-436.97 285.7,-456 287.59,-458.88 289.57,-461.81 291.58,-464.76"/>
<polygon fill="black" stroke="black" points="289.14,-466.37 297.72,-472.58 294.88,-462.37 289.14,-466.37"/>
<g id="a_edge11_5"><a xlink:href="docs/unsafe.add.html" xlink:title="add (unsafe)">
<text text-anchor="start" x="289.45" y="-439.65" font-family="Times,serif" font-size="13.00">add (unsafe)</text>
</a>
</g>
<g id="a_edge11_6"><a xlink:href="docs/safe.read.html" xlink:title="read (safe)">
<text text-anchor="start" x="289.45" y="-418.65" font-family="Times,serif" font-size="13.00">read (safe)</text>
</a>
</g>
</g>
<!-- TodoList&#45;&gt;TodoList -->
<g id="edge12" class="edge">
<title>TodoList&#45;&gt;TodoList</title>
<path fill="none" stroke="black" d="M169.18,-340.71C179.29,-339.32 186.89,-332.25 186.89,-319.5 186.89,-311.53 183.92,-305.78 179.23,-302.25"/>
<polygon fill="black" stroke="black" points="180.77,-298.7 170.18,-298.29 178.2,-305.21 180.77,-298.7"/>
<g id="a_edge12_7"><a xlink:href="docs/safe.goFirst.html" xlink:title="goFirst (safe)">
<text text-anchor="start" x="190.89" y="-377.65" font-family="Times,serif" font-size="13.00">goFirst (safe)</text>
</a>
</g>
<g id="a_edge12_8"><a xlink:href="docs/safe.goLast.html" xlink:title="goLast (safe)">
<text text-anchor="start" x="190.89" y="-356.65" font-family="Times,serif" font-size="13.00">goLast (safe)</text>
</a>
</g>
<g id="a_edge12_9"><a xlink:href="docs/safe.goNext.html" xlink:title="goNext (safe)">
<text text-anchor="start" x="190.89" y="-335.65" font-family="Times,serif" font-size="13.00">goNext (safe)</text>
</a>
</g>
<g id="a_edge12_10"><a xlink:href="docs/safe.goPrevious.html" xlink:title="goPrevious (safe)">
<text text-anchor="start" x="190.89" y="-314.65" font-family="Times,serif" font-size="13.00">goPrevious (safe)</text>
</a>
</g>
<g id="a_edge12_11"><a xlink:href="docs/safe.listActive.html" xlink:title="listActive (safe)">
<text text-anchor="start" x="190.89" y="-293.65" font-family="Times,serif" font-size="13.00">listActive (safe)</text>
</a>
</g>
<g id="a_edge12_12"><a xlink:href="docs/safe.listAll.html" xlink:title="listAll (safe)">
<text text-anchor="start" x="190.89" y="-272.65" font-family="Times,serif" font-size="13.00">listAll (safe)</text>
</a>
</g>
<g id="a_edge12_13"><a xlink:href="docs/safe.listCompleted.html" xlink:title="listCompleted (safe)">
<text text-anchor="start" x="190.89" y="-251.65" font-family="Times,serif" font-size="13.00">listCompleted (safe)</text>
</a>
</g>
</g>
<!-- Home -->
<g id="node3" class="node">
<title>Home</title>
<g id="a_node3"><a xlink:href="docs/semantic.Home.html" xlink:title="Home" target="_parent">
<polygon fill="lightgray" stroke="black" stroke-width="2" points="137.45,-36 83.45,-36 83.45,0 137.45,0 137.45,-36"/>
<text text-anchor="middle" x="110.45" y="-12.95" font-family="Times,serif" font-size="14.00">Home</text>
</a>
</g>
</g>
<!-- TodoList&#45;&gt;Home -->
<g id="edge9" class="edge">
<title>TodoList&#45;&gt;Home</title>
<g id="a_edge9"><a xlink:href="docs/safe.goHome.html" xlink:title="goHome (safe)" target="_parent">
<path fill="none" stroke="black" d="M118.49,-279.65C114.48,-263.51 110.43,-244.49 108.45,-227 101.2,-162.99 105.02,-87.19 108.01,-47.11"/>
<polygon fill="black" stroke="black" points="111.56,-47.58 108.86,-37.33 104.58,-47.03 111.56,-47.58"/>
</a>
</g>
<g id="a_edge9&#45;label"><a xlink:href="docs/safe.goHome.html" xlink:title="goHome (safe)" target="_parent">
<text text-anchor="start" x="106.45" y="-100.15" font-family="Times,serif" font-size="13.00">goHome (safe)</text>
</a>
</g>
</g>
<!-- TodoList&#45;&gt;Related -->
<g id="edge10" class="edge">
<title>TodoList&#45;&gt;Related</title>
<g id="a_edge10"><a xlink:href="docs/safe.goRelated.html" xlink:title="goRelated (safe)" target="_parent">
<path fill="none" stroke="black" d="M169.29,-298.58C196.22,-282.94 230.08,-258.53 248.45,-227 265.02,-198.55 267.75,-160.11 267.32,-134.26"/>
<polygon fill="black" stroke="black" points="270.79,-134.22 266.95,-124.35 263.79,-134.46 270.79,-134.22"/>
</a>
</g>
<g id="a_edge10&#45;label"><a xlink:href="docs/safe.goRelated.html" xlink:title="goRelated (safe)" target="_parent">
<text text-anchor="start" x="266.45" y="-179.15" font-family="Times,serif" font-size="13.00">goRelated (safe)</text>
</a>
</g>
</g>
<!-- Home&#45;&gt;TodoList -->
<g id="edge2" class="edge">
<title>Home&#45;&gt;TodoList</title>
<g id="a_edge2"><a xlink:href="docs/safe.listAll.html" xlink:title="listAll (safe)" target="_parent">
<path fill="none" stroke="black" d="M83.15,-27.98C57.75,-37.95 21.43,-56.77 4.95,-87 -2.71,-101.05 0.47,-107.64 4.95,-123 21.27,-179.03 59.06,-234.32 88.75,-271.73"/>
<polygon fill="black" stroke="black" points="86.34,-273.31 95.34,-278.9 91.79,-268.92 86.34,-273.31"/>
</a>
</g>
<g id="a_edge2&#45;label"><a xlink:href="docs/safe.listAll.html" xlink:title="listAll (safe)" target="_parent">
<text text-anchor="start" x="5.45" y="-100.15" font-family="Times,serif" font-size="13.00">listAll (safe)</text>
</a>
</g>
</g>
<!-- Home&#45;&gt;Related -->
<g id="edge1" class="edge">
<title>Home&#45;&gt;Related</title>
<g id="a_edge1"><a xlink:href="docs/safe.goRelated.html" xlink:title="goRelated (safe)" target="_parent">
<path fill="none" stroke="black" d="M137.77,-21.54C163.94,-25.13 203.48,-33.71 231.45,-54 239.84,-60.09 246.82,-68.93 252.23,-77.49"/>
<polygon fill="black" stroke="black" points="249.62,-78.96 257.66,-85.87 255.68,-75.46 249.62,-78.96"/>
</a>
</g>
<g id="a_edge1&#45;label"><a xlink:href="docs/safe.goRelated.html" xlink:title="goRelated (safe)" target="_parent">
<text text-anchor="start" x="244.45" y="-56.65" font-family="Times,serif" font-size="13.00">goRelated (safe)</text>
</a>
</g>
</g>
<!-- Related&#45;&gt;TodoItem -->
<g id="edge4" class="edge">
<title>Related&#45;&gt;TodoItem</title>
<path fill="none" stroke="black" d="M294.51,-108.98C320.93,-112.85 360.03,-121.59 388.45,-141 436.38,-173.74 448.92,-189.99 467.45,-245 488.58,-307.76 495.42,-333.97 467.45,-394 448.5,-434.66 407.97,-466.33 375.2,-486.65"/>
<polygon fill="black" stroke="black" points="373.95,-483.92 367.19,-492.08 377.56,-489.91 373.95,-483.92"/>
<g id="a_edge4_14"><a xlink:href="docs/unsafe.add.html" xlink:title="add (unsafe)">
<text text-anchor="start" x="489.45" y="-335.65" font-family="Times,serif" font-size="13.00">add (unsafe)</text>
</a>
</g>
<g id="a_edge4_15"><a xlink:href="docs/idempotent.edit.html" xlink:title="edit (idempotent)">
<text text-anchor="start" x="489.45" y="-314.65" font-family="Times,serif" font-size="13.00">edit (idempotent)</text>
</a>
</g>
<g id="a_edge4_16"><a xlink:href="docs/safe.read.html" xlink:title="read (safe)">
<text text-anchor="start" x="489.45" y="-293.65" font-family="Times,serif" font-size="13.00">read (safe)</text>
</a>
</g>
</g>
<!-- Related&#45;&gt;TodoList -->
<g id="edge5" class="edge">
<title>Related&#45;&gt;TodoList</title>
<path fill="none" stroke="black" d="M236.64,-111.43C198.53,-118.91 135.37,-132.41 128.7,-141 100.8,-176.93 105.33,-230.45 114.16,-269.32"/>
<polygon fill="black" stroke="black" points="110.96,-269.99 116.74,-278.87 117.76,-268.32 110.96,-269.99"/>
<g id="a_edge5_17"><a xlink:href="docs/safe.listActive.html" xlink:title="listActive (safe)">
<text text-anchor="start" x="133.45" y="-210.65" font-family="Times,serif" font-size="13.00">listActive (safe)</text>
</a>
</g>
<g id="a_edge5_18"><a xlink:href="docs/safe.listAll.html" xlink:title="listAll (safe)">
<text text-anchor="start" x="133.45" y="-189.65" font-family="Times,serif" font-size="13.00">listAll (safe)</text>
</a>
</g>
<g id="a_edge5_19"><a xlink:href="docs/safe.listCompleted.html" xlink:title="listCompleted (safe)">
<text text-anchor="start" x="133.45" y="-168.65" font-family="Times,serif" font-size="13.00">listCompleted (safe)</text>
</a>
</g>
<g id="a_edge5_20"><a xlink:href="docs/idempotent.remove.html" xlink:title="remove (idempotent)">
<text text-anchor="start" x="133.45" y="-147.65" font-family="Times,serif" font-size="13.00">remove (idempotent)</text>
</a>
</g>
</g>
<!-- Related&#45;&gt;Home -->
<g id="edge3" class="edge">
<title>Related&#45;&gt;Home</title>
<g id="a_edge3"><a xlink:href="docs/safe.goHome.html" xlink:title="goHome (safe)" target="_parent">
<path fill="none" stroke="black" d="M236.67,-100.6C211.42,-96.48 174.67,-87.61 147.95,-69 139.06,-62.81 131.39,-53.83 125.36,-45.2"/>
<polygon fill="black" stroke="black" points="127.84,-43.59 119.46,-37.1 121.96,-47.39 127.84,-43.59"/>
</a>
</g>
<g id="a_edge3&#45;label"><a xlink:href="docs/safe.goHome.html" xlink:title="goHome (safe)" target="_parent">
<text text-anchor="start" x="148.45" y="-56.65" font-family="Times,serif" font-size="13.00">goHome (safe)</text>
</a>
</g>
</g>
</g>
</svg>
