<?xml version="1.0" encoding="UTF-8" standalone="no"?>
<!DOCTYPE svg PUBLIC "-//W3C//DTD SVG 1.1//EN"
 "http://www.w3.org/Graphics/SVG/1.1/DTD/svg11.dtd">
<!-- Generated by graphviz version 7.1.0 (20230121.1956)
 -->
<!-- Title: application_state_diagram Pages: 1 -->
<svg width="492pt" height="563pt"
 viewBox="0.00 0.00 492.48 563.00" xmlns="http://www.w3.org/2000/svg" xmlns:xlink="http://www.w3.org/1999/xlink">
<g id="graph0" class="graph" transform="scale(1 1) rotate(0) translate(4 559)">
<title>application_state_diagram</title>
<g id="a_graph0"><a xlink:href="index.html" xlink:title="MVC ToDo List" target="_parent">
<polygon fill="white" stroke="none" points="-4,4 -4,-559 488.48,-559 488.48,4 -4,4"/>
<text text-anchor="middle" x="242.24" y="-539.8" font-family="Helvetica,sans-Serif" font-size="14.00">MVC ToDo List</text>
</a>
</g>
<!-- TodoItem -->
<g id="node1" class="node">
<title>TodoItem</title>
<g id="a_node1"><a xlink:href="docs/semantic.TodoItem.html" xlink:title="&lt;TABLE&gt;" target="_parent">
<polygon fill="lightgray" stroke="black" stroke-width="2" points="300.48,-532 221.48,-532 221.48,-460 300.48,-460 300.48,-532"/>
<text text-anchor="start" x="233.98" y="-514.8" font-family="Times,serif" font-size="14.00">TodoItem</text>
<text text-anchor="start" x="251.48" y="-499.8" font-family="Times,serif" font-size="14.00">(id)</text>
<text text-anchor="start" x="245.98" y="-484.8" font-family="Times,serif" font-size="14.00">(title)</text>
<text text-anchor="start" x="227.98" y="-469.8" font-family="Times,serif" font-size="14.00">(completed)</text>
</a>
</g>
</g>
<!-- TodoItem&#45;&gt;TodoItem -->
<g id="edge7" class="edge">
<title>TodoItem&#45;&gt;TodoItem</title>
<path fill="none" stroke="black" d="M300.76,-509.89C310.88,-508.98 318.48,-504.35 318.48,-496 318.48,-491.04 315.8,-487.4 311.51,-485.06"/>
<polygon fill="black" stroke="black" points="312.79,-481.78 302.22,-482.51 310.93,-488.53 312.79,-481.78"/>
<g id="a_edge7_0"><a xlink:href="docs/idempotent.clearCompleted.html" xlink:title="clearCompleted (idempotent)">
<text text-anchor="start" x="322.48" y="-512.6" font-family="Times,serif" font-size="13.00">clearCompleted (idempotent)</text>
</a>
</g>
<g id="a_edge7_1"><a xlink:href="docs/idempotent.edit.html" xlink:title="edit (idempotent)">
<text text-anchor="start" x="322.48" y="-492.6" font-family="Times,serif" font-size="13.00">edit (idempotent)</text>
</a>
</g>
<g id="a_edge7_2"><a xlink:href="docs/idempotent.markCompleted.html" xlink:title="markCompleted (idempotent)">
<text text-anchor="start" x="322.48" y="-472.6" font-family="Times,serif" font-size="13.00">markCompleted (idempotent)</text>
</a>
</g>
</g>
<!-- TodoList -->
<g id="node2" class="node">
<title>TodoList</title>
<g id="a_node2"><a xlink:href="docs/semantic.TodoList.html" xlink:title="&lt;TABLE&gt;" target="_parent">
<polygon fill="lightgray" stroke="black" stroke-width="2" points="122.48,-347 43.48,-347 43.48,-275 122.48,-275 122.48,-347"/>
<text text-anchor="start" x="58.48" y="-329.8" font-family="Times,serif" font-size="14.00">TodoList</text>
<text text-anchor="start" x="73.48" y="-314.8" font-family="Times,serif" font-size="14.00">(id)</text>
<text text-anchor="start" x="67.98" y="-299.8" font-family="Times,serif" font-size="14.00">(title)</text>
<text text-anchor="start" x="49.98" y="-284.8" font-family="Times,serif" font-size="14.00">(completed)</text>
</a>
</g>
</g>
<!-- TodoItem&#45;&gt;TodoList -->
<g id="edge8" class="edge">
<title>TodoItem&#45;&gt;TodoList</title>
<path fill="none" stroke="black" d="M221.17,-489.38C171.71,-481.49 91.69,-465.42 73.98,-442 56.18,-418.45 58.87,-385.12 65.78,-358.1"/>
<polygon fill="black" stroke="black" points="69.06,-359.37 68.42,-348.8 62.33,-357.46 69.06,-359.37"/>
<g id="a_edge8_3"><a xlink:href="docs/safe.listAll.html" xlink:title="listAll (safe)">
<text text-anchor="start" x="77.98" y="-427.6" font-family="Times,serif" font-size="13.00">listAll (safe)</text>
</a>
</g>
<g id="a_edge8_4"><a xlink:href="docs/idempotent.remove.html" xlink:title="remove (idempotent)">
<text text-anchor="start" x="77.98" y="-407.6" font-family="Times,serif" font-size="13.00">remove (idempotent)</text>
</a>
</g>
</g>
<!-- Related -->
<g id="node4" class="node">
<title>Related</title>
<g id="a_node4"><a xlink:href="docs/semantic.Related.html" xlink:title="Related" target="_parent">
<polygon fill="lightgray" stroke="black" stroke-width="2" points="254.98,-122 196.98,-122 196.98,-86 254.98,-86 254.98,-122"/>
<text text-anchor="middle" x="225.98" y="-100.3" font-family="Times,serif" font-size="14.00">Related</text>
</a>
</g>
</g>
<!-- TodoItem&#45;&gt;Related -->
<g id="edge6" class="edge">
<title>TodoItem&#45;&gt;Related</title>
<g id="a_edge6"><a xlink:href="docs/safe.goRelated.html" xlink:title="goRelated" target="_parent">
<path fill="none" stroke="black" d="M285.03,-459.64C287.89,-453.95 290.37,-447.97 291.98,-442 297.28,-422.46 320.71,-193.22 288.98,-140 283.53,-130.84 274.72,-123.91 265.41,-118.72"/>
<polygon fill="black" stroke="black" points="267.12,-115.66 256.59,-114.43 264.05,-121.96 267.12,-115.66"/>
</a>
</g>
<g id="a_edge6&#45;label"><a xlink:href="docs/safe.goRelated.html" xlink:title="goRelated" target="_parent">
<text text-anchor="start" x="304.98" y="-307.6" font-family="Times,serif" font-size="13.00">goRelated</text>
</a>
</g>
</g>
<!-- TodoList&#45;&gt;TodoItem -->
<g id="edge11" class="edge">
<title>TodoList&#45;&gt;TodoItem</title>
<path fill="none" stroke="black" d="M122.73,-337.58C145.5,-353.6 173.53,-375.75 193.98,-400 207.71,-416.27 205.02,-424.4 216.98,-442 218.91,-444.83 220.95,-447.68 223.05,-450.53"/>
<polygon fill="black" stroke="black" points="220.17,-452.52 229.04,-458.31 225.72,-448.25 220.17,-452.52"/>
<g id="a_edge11_5"><a xlink:href="docs/unsafe.add.html" xlink:title="add (unsafe)">
<text text-anchor="start" x="221.48" y="-427.6" font-family="Times,serif" font-size="13.00">add (unsafe)</text>
</a>
</g>
<g id="a_edge11_6"><a xlink:href="docs/safe.read.html" xlink:title="read (safe)">
<text text-anchor="start" x="221.48" y="-407.6" font-family="Times,serif" font-size="13.00">read (safe)</text>
</a>
</g>
</g>
<!-- TodoList&#45;&gt;TodoList -->
<g id="edge12" class="edge">
<title>TodoList&#45;&gt;TodoList</title>
<path fill="none" stroke="black" d="M122.76,-331.38C132.88,-330.04 140.48,-323.25 140.48,-311 140.48,-303.54 137.66,-298.1 133.16,-294.69"/>
<polygon fill="black" stroke="black" points="134.75,-291.55 124.17,-291.17 132.21,-298.07 134.75,-291.55"/>
<g id="a_edge12_7"><a xlink:href="docs/safe.goFirst.html" xlink:title="goFirst (safe)">
<text text-anchor="start" x="144.98" y="-367.6" font-family="Times,serif" font-size="13.00">goFirst (safe)</text>
</a>
</g>
<g id="a_edge12_8"><a xlink:href="docs/safe.goLast.html" xlink:title="goLast (safe)">
<text text-anchor="start" x="144.98" y="-347.6" font-family="Times,serif" font-size="13.00">goLast (safe)</text>
</a>
</g>
<g id="a_edge12_9"><a xlink:href="docs/safe.goNext.html" xlink:title="goNext (safe)">
<text text-anchor="start" x="144.98" y="-327.6" font-family="Times,serif" font-size="13.00">goNext (safe)</text>
</a>
</g>
<g id="a_edge12_10"><a xlink:href="docs/safe.goPrevious.html" xlink:title="goPrevious (safe)">
<text text-anchor="start" x="144.98" y="-307.6" font-family="Times,serif" font-size="13.00">goPrevious (safe)</text>
</a>
</g>
<g id="a_edge12_11"><a xlink:href="docs/safe.listActive.html" xlink:title="listActive (safe)">
<text text-anchor="start" x="144.98" y="-287.6" font-family="Times,serif" font-size="13.00">listActive (safe)</text>
</a>
</g>
<g id="a_edge12_12"><a xlink:href="docs/safe.listAll.html" xlink:title="listAll (safe)">
<text text-anchor="start" x="144.98" y="-267.6" font-family="Times,serif" font-size="13.00">listAll (safe)</text>
</a>
</g>
<g id="a_edge12_13"><a xlink:href="docs/safe.listCompleted.html" xlink:title="listCompleted (safe)">
<text text-anchor="start" x="144.98" y="-247.6" font-family="Times,serif" font-size="13.00">listCompleted (safe)</text>
</a>
</g>
</g>
<!-- Home -->
<g id="node3" class="node">
<title>Home</title>
<g id="a_node3"><a xlink:href="docs/semantic.Home.html" xlink:title="Home" target="_parent">
<polygon fill="lightgray" stroke="black" stroke-width="2" points="102.98,-36 48.98,-36 48.98,0 102.98,0 102.98,-36"/>
<text text-anchor="middle" x="75.98" y="-14.3" font-family="Times,serif" font-size="14.00">Home</text>
</a>
</g>
</g>
<!-- TodoList&#45;&gt;Home -->
<g id="edge9" class="edge">
<title>TodoList&#45;&gt;Home</title>
<g id="a_edge9"><a xlink:href="docs/safe.goHome.html" xlink:title="goHome" target="_parent">
<path fill="none" stroke="black" d="M79.55,-274.92C78.14,-258.82 76.68,-239.46 75.98,-222 73.52,-159.9 74.45,-87.03 75.27,-47.7"/>
<polygon fill="black" stroke="black" points="78.76,-47.98 75.49,-37.9 71.76,-47.82 78.76,-47.98"/>
</a>
</g>
<g id="a_edge9&#45;label"><a xlink:href="docs/safe.goHome.html" xlink:title="goHome" target="_parent">
<text text-anchor="start" x="74.98" y="-100.6" font-family="Times,serif" font-size="13.00">goHome</text>
</a>
</g>
</g>
<!-- TodoList&#45;&gt;Related -->
<g id="edge10" class="edge">
<title>TodoList&#45;&gt;Related</title>
<g id="a_edge10"><a xlink:href="docs/safe.goRelated.html" xlink:title="goRelated" target="_parent">
<path fill="none" stroke="black" d="M122.73,-294.5C153.13,-280.42 193.25,-256.53 213.98,-222 230.06,-195.22 231.21,-158.67 229.53,-133.59"/>
<polygon fill="black" stroke="black" points="233.03,-133.45 228.66,-123.8 226.06,-134.06 233.03,-133.45"/>
</a>
</g>
<g id="a_edge10&#45;label"><a xlink:href="docs/safe.goRelated.html" xlink:title="goRelated" target="_parent">
<text text-anchor="start" x="229.98" y="-177.6" font-family="Times,serif" font-size="13.00">goRelated</text>
</a>
</g>
</g>
<!-- Home&#45;&gt;TodoList -->
<g id="edge2" class="edge">
<title>Home&#45;&gt;TodoList</title>
<g id="a_edge2"><a xlink:href="docs/safe.listAll.html" xlink:title="listAll" target="_parent">
<path fill="none" stroke="black" d="M48.74,-35.85C32.42,-47.65 13.12,-65.02 3.98,-86 -2.4,-100.67 0.82,-106.32 3.98,-122 14.27,-173.07 38.84,-227.56 57.87,-264.65"/>
<polygon fill="black" stroke="black" points="54.65,-266.04 62.37,-273.29 60.85,-262.8 54.65,-266.04"/>
</a>
</g>
<g id="a_edge2&#45;label"><a xlink:href="docs/safe.listAll.html" xlink:title="listAll" target="_parent">
<text text-anchor="start" x="3.98" y="-100.6" font-family="Times,serif" font-size="13.00">listAll</text>
</a>
</g>
</g>
<!-- Home&#45;&gt;Related -->
<g id="edge1" class="edge">
<title>Home&#45;&gt;Related</title>
<g id="a_edge1"><a xlink:href="docs/safe.goRelated.html" xlink:title="goRelated" target="_parent">
<path fill="none" stroke="black" d="M103.23,-28.19C120.32,-34.45 142.55,-43.49 160.98,-54 173.33,-61.04 186,-70.11 196.84,-78.53"/>
<polygon fill="black" stroke="black" points="194.66,-81.26 204.66,-84.75 199.01,-75.78 194.66,-81.26"/>
</a>
</g>
<g id="a_edge1&#45;label"><a xlink:href="docs/safe.goRelated.html" xlink:title="goRelated" target="_parent">
<text text-anchor="start" x="180.98" y="-57.6" font-family="Times,serif" font-size="13.00">goRelated</text>
</a>
</g>
</g>
<!-- Related&#45;&gt;TodoItem -->
<g id="edge4" class="edge">
<title>Related&#45;&gt;TodoItem</title>
<path fill="none" stroke="black" d="M255.43,-109.79C275.74,-114.44 302.18,-123.34 319.98,-140 355.57,-173.3 354.76,-192.35 364.98,-240 378.23,-301.71 384.94,-322.13 364.98,-382 354.9,-412.26 331.53,-438.91 309.5,-458.72"/>
<polygon fill="black" stroke="black" points="307.23,-456.05 301.97,-465.25 311.82,-461.34 307.23,-456.05"/>
<g id="a_edge4_14"><a xlink:href="docs/unsafe.add.html" xlink:title="add (unsafe)">
<text text-anchor="start" x="381.48" y="-327.6" font-family="Times,serif" font-size="13.00">add (unsafe)</text>
</a>
</g>
<g id="a_edge4_15"><a xlink:href="docs/idempotent.edit.html" xlink:title="edit (idempotent)">
<text text-anchor="start" x="381.48" y="-307.6" font-family="Times,serif" font-size="13.00">edit (idempotent)</text>
</a>
</g>
<g id="a_edge4_16"><a xlink:href="docs/safe.read.html" xlink:title="read (safe)">
<text text-anchor="start" x="381.48" y="-287.6" font-family="Times,serif" font-size="13.00">read (safe)</text>
</a>
</g>
</g>
<!-- Related&#45;&gt;TodoList -->
<g id="edge5" class="edge">
<title>Related&#45;&gt;TodoList</title>
<path fill="none" stroke="black" d="M196.55,-108.79C161.75,-113.93 106.9,-124.3 93.98,-140 79.03,-158.19 78.42,-219.55 80.1,-263.32"/>
<polygon fill="black" stroke="black" points="76.59,-263.24 80.53,-273.08 83.59,-262.93 76.59,-263.24"/>
<g id="a_edge5_17"><a xlink:href="docs/safe.listActive.html" xlink:title="listActive (safe)">
<text text-anchor="start" x="97.98" y="-207.6" font-family="Times,serif" font-size="13.00">listActive (safe)</text>
</a>
</g>
<g id="a_edge5_18"><a xlink:href="docs/safe.listAll.html" xlink:title="listAll (safe)">
<text text-anchor="start" x="97.98" y="-187.6" font-family="Times,serif" font-size="13.00">listAll (safe)</text>
</a>
</g>
<g id="a_edge5_19"><a xlink:href="docs/safe.listCompleted.html" xlink:title="listCompleted (safe)">
<text text-anchor="start" x="97.98" y="-167.6" font-family="Times,serif" font-size="13.00">listCompleted (safe)</text>
</a>
</g>
<g id="a_edge5_20"><a xlink:href="docs/idempotent.remove.html" xlink:title="remove (idempotent)">
<text text-anchor="start" x="97.98" y="-147.6" font-family="Times,serif" font-size="13.00">remove (idempotent)</text>
</a>
</g>
</g>
<!-- Related&#45;&gt;Home -->
<g id="edge3" class="edge">
<title>Related&#45;&gt;Home</title>
<g id="a_edge3"><a xlink:href="docs/safe.goHome.html" xlink:title="goHome" target="_parent">
<path fill="none" stroke="black" d="M196.73,-99.45C171.99,-95.26 136.58,-86.39 110.98,-68 102.9,-62.19 95.98,-53.92 90.48,-45.82"/>
<polygon fill="black" stroke="black" points="93.56,-44.14 85.3,-37.49 87.62,-47.83 93.56,-44.14"/>
</a>
</g>
<g id="a_edge3&#45;label"><a xlink:href="docs/safe.goHome.html" xlink:title="goHome" target="_parent">
<text text-anchor="start" x="110.98" y="-57.6" font-family="Times,serif" font-size="13.00">goHome</text>
</a>
</g>
</g>
</g>
</svg>
