<?xml version="1.0" encoding="UTF-8" standalone="no"?>
<!DOCTYPE svg PUBLIC "-//W3C//DTD SVG 1.1//EN"
 "http://www.w3.org/Graphics/SVG/1.1/DTD/svg11.dtd">
<!-- Generated by graphviz version 2.47.1 (20210417.1919)
 -->
<!-- Title: application_state_diagram Pages: 1 -->
<svg width="1090pt" height="563pt"
 viewBox="0.00 0.00 1090.09 563.00" xmlns="http://www.w3.org/2000/svg" xmlns:xlink="http://www.w3.org/1999/xlink">
<g id="graph0" class="graph" transform="scale(1 1) rotate(0) translate(4 559)">
<title>application_state_diagram</title>
<g id="a_graph0"><a xlink:href="index.html" xlink:title="MVC ToDo List" target="_parent">
<polygon fill="white" stroke="transparent" points="-4,4 -4,-559 1086.09,-559 1086.09,4 -4,4"/>
<text text-anchor="middle" x="541.05" y="-539.8" font-family="Helvetica,sans-Serif" font-size="14.00">MVC ToDo List</text>
</a>
</g>
<!-- Blog -->
<g id="node1" class="node">
<title>Blog</title>
<g id="a_node1"><a xlink:href="docs/semantic.Blog.html" xlink:title="&lt;TABLE&gt;" target="_parent">
<polygon fill="lightgray" stroke="black" stroke-width="2" points="297.09,-517 209.09,-517 209.09,-475 297.09,-475 297.09,-517"/>
<text text-anchor="start" x="239.59" y="-499.8" font-family="Times,serif" font-size="14.00">Blog</text>
<text text-anchor="start" x="215.09" y="-484.8" font-family="Times,serif" font-size="14.00">(BlogPosting)</text>
</a>
</g>
</g>
<!-- Blog&#45;&gt;Blog -->
<g id="edge3" class="edge">
<title>Blog&#45;&gt;Blog</title>
<g id="a_edge3"><a xlink:href="docs/unsafe.doPost.html" xlink:title="doPost (unsafe)" target="_parent">
<path fill="none" stroke="black" d="M297.11,-509.6C307.46,-508.48 315.09,-503.95 315.09,-496 315.09,-490.91 311.96,-487.22 306.99,-484.93"/>
<polygon fill="black" stroke="black" points="307.67,-481.49 297.11,-482.4 305.93,-488.27 307.67,-481.49"/>
</a>
</g>
<g id="a_edge3&#45;label"><a xlink:href="docs/unsafe.doPost.html" xlink:title="doPost (unsafe)" target="_parent">
<text text-anchor="start" x="315.09" y="-492.6" font-family="Times,serif" font-size="13.00">doPost (unsafe)</text>
</a>
</g>
</g>
<!-- BlogPosting -->
<g id="node2" class="node">
<title>BlogPosting</title>
<g id="a_node2"><a xlink:href="docs/semantic.BlogPosting.html" xlink:title="&lt;TABLE&gt;" target="_parent">
<polygon fill="lightgray" stroke="black" stroke-width="2" points="135.09,-347 49.09,-347 49.09,-275 135.09,-275 135.09,-347"/>
<text text-anchor="start" x="58.59" y="-329.8" font-family="Times,serif" font-size="14.00">BlogPosting</text>
<text text-anchor="start" x="82.09" y="-314.8" font-family="Times,serif" font-size="14.00">(id)</text>
<text text-anchor="start" x="55.59" y="-299.8" font-family="Times,serif" font-size="14.00">(articleBody)</text>
<text text-anchor="start" x="55.09" y="-284.8" font-family="Times,serif" font-size="14.00">(dateCreated)</text>
</a>
</g>
</g>
<!-- Blog&#45;&gt;BlogPosting -->
<g id="edge4" class="edge">
<title>Blog&#45;&gt;BlogPosting</title>
<g id="a_edge4"><a xlink:href="docs/safe.goBlogPosting.html" xlink:title="goBlogPosting, item (safe)" target="_parent">
<path fill="none" stroke="black" d="M208.87,-491.88C145.49,-486.39 33.71,-472.54 9.09,-442 -14.2,-413.1 12.06,-377.39 41.05,-350.71"/>
<polygon fill="black" stroke="black" points="43.69,-353.04 48.85,-343.78 39.05,-347.8 43.69,-353.04"/>
</a>
</g>
<g id="a_edge4&#45;label"><a xlink:href="docs/safe.goBlogPosting.html" xlink:title="goBlogPosting, item (safe)" target="_parent">
<text text-anchor="start" x="9.09" y="-417.6" font-family="Times,serif" font-size="13.00">goBlogPosting, item (safe)</text>
</a>
</g>
</g>
<!-- About -->
<g id="node5" class="node">
<title>About</title>
<g id="a_node5"><a xlink:href="docs/semantic.About.html" xlink:title="About" target="_parent">
<polygon fill="lightgray" stroke="black" stroke-width="2" points="428.09,-329 374.09,-329 374.09,-293 428.09,-293 428.09,-329"/>
<text text-anchor="middle" x="401.09" y="-307.3" font-family="Times,serif" font-size="14.00">About</text>
</a>
</g>
</g>
<!-- Blog&#45;&gt;About -->
<g id="edge2" class="edge">
<title>Blog&#45;&gt;About</title>
<g id="a_edge2"><a xlink:href="docs/safe.goAbout.html" xlink:title="goAbout, about (safe)" target="_parent">
<path fill="none" stroke="black" d="M278.34,-474.9C288.8,-465.67 300.47,-454.1 309.09,-442 320.98,-425.31 317.23,-417.37 328.09,-400 342.38,-377.14 362.04,-353.78 377.37,-336.87"/>
<polygon fill="black" stroke="black" points="380.3,-338.85 384.5,-329.12 375.15,-334.11 380.3,-338.85"/>
</a>
</g>
<g id="a_edge2&#45;label"><a xlink:href="docs/safe.goAbout.html" xlink:title="goAbout, about (safe)" target="_parent">
<text text-anchor="start" x="328.09" y="-417.6" font-family="Times,serif" font-size="13.00">goAbout, about (safe)</text>
</a>
</g>
</g>
<!-- BlogPosting&#45;&gt;Blog -->
<g id="edge5" class="edge">
<title>BlogPosting&#45;&gt;Blog</title>
<g id="a_edge5"><a xlink:href="docs/safe.goBlog.html" xlink:title="goBlog, collection (safe)" target="_parent">
<path fill="none" stroke="black" d="M118.54,-347.01C129.87,-362.78 142.83,-381.89 153.09,-400 163.19,-417.83 158.77,-426.44 172.09,-442 181.06,-452.48 192.61,-461.68 204.15,-469.36"/>
<polygon fill="black" stroke="black" points="202.62,-472.53 212.94,-474.92 206.36,-466.62 202.62,-472.53"/>
</a>
</g>
<g id="a_edge5&#45;label"><a xlink:href="docs/safe.goBlog.html" xlink:title="goBlog, collection (safe)" target="_parent">
<text text-anchor="start" x="172.09" y="-417.6" font-family="Times,serif" font-size="13.00">goBlog, collection (safe)</text>
</a>
</g>
</g>
<!-- todoItem -->
<g id="node3" class="node">
<title>todoItem</title>
<g id="a_node3"><a xlink:href="docs/semantic.todoItem.html" xlink:title="&lt;TABLE&gt;" target="_parent">
<polygon fill="lightgray" stroke="black" stroke-width="2" points="860.59,-532 781.59,-532 781.59,-460 860.59,-460 860.59,-532"/>
<text text-anchor="start" x="796.59" y="-514.8" font-family="Times,serif" font-size="14.00">todoItem</text>
<text text-anchor="start" x="811.59" y="-499.8" font-family="Times,serif" font-size="14.00">(id)</text>
<text text-anchor="start" x="806.09" y="-484.8" font-family="Times,serif" font-size="14.00">(title)</text>
<text text-anchor="start" x="788.09" y="-469.8" font-family="Times,serif" font-size="14.00">(completed)</text>
</a>
</g>
</g>
<!-- todoItem&#45;&gt;todoItem -->
<g id="edge12" class="edge">
<title>todoItem&#45;&gt;todoItem</title>
<path fill="none" stroke="black" d="M860.6,-509.73C870.85,-508.89 878.59,-504.31 878.59,-496 878.59,-490.68 875.42,-486.88 870.44,-484.62"/>
<polygon fill="black" stroke="black" points="871.14,-481.19 860.6,-482.27 869.51,-488 871.14,-481.19"/>
<g id="a_edge12_0"><a xlink:href="docs/idempotent.clearCompleted.html" xlink:title="&lt;TABLE&gt;">
<text text-anchor="start" x="882.59" y="-512.6" font-family="Times,serif" font-size="13.00">clearCompleted (idempotent)</text>
</a>
</g>
<g id="a_edge12_1"><a xlink:href="docs/idempotent.edit.html" xlink:title="&lt;TABLE&gt;">
<text text-anchor="start" x="882.59" y="-492.6" font-family="Times,serif" font-size="13.00">edit (idempotent)</text>
</a>
</g>
<g id="a_edge12_2"><a xlink:href="docs/idempotent.markCompleted.html" xlink:title="&lt;TABLE&gt;">
<text text-anchor="start" x="882.59" y="-472.6" font-family="Times,serif" font-size="13.00">markCompleted (idempotent)</text>
</a>
</g>
</g>
<!-- todoList -->
<g id="node4" class="node">
<title>todoList</title>
<g id="a_node4"><a xlink:href="docs/semantic.todoList.html" xlink:title="&lt;TABLE&gt;" target="_parent">
<polygon fill="lightgray" stroke="black" stroke-width="2" points="664.59,-347 585.59,-347 585.59,-275 664.59,-275 664.59,-347"/>
<text text-anchor="start" x="602.59" y="-329.8" font-family="Times,serif" font-size="14.00">todoList</text>
<text text-anchor="start" x="615.59" y="-314.8" font-family="Times,serif" font-size="14.00">(id)</text>
<text text-anchor="start" x="610.09" y="-299.8" font-family="Times,serif" font-size="14.00">(title)</text>
<text text-anchor="start" x="592.09" y="-284.8" font-family="Times,serif" font-size="14.00">(completed)</text>
</a>
</g>
</g>
<!-- todoItem&#45;&gt;todoList -->
<g id="edge13" class="edge">
<title>todoItem&#45;&gt;todoList</title>
<path fill="none" stroke="black" d="M781.24,-489.41C731.22,-481.51 649.7,-465.37 631.09,-442 612.43,-418.57 611.49,-384.55 614.92,-357.18"/>
<polygon fill="black" stroke="black" points="618.41,-357.46 616.42,-347.06 611.49,-356.44 618.41,-357.46"/>
<g id="a_edge13_3"><a xlink:href="docs/safe.listAll.html" xlink:title="&lt;TABLE&gt;">
<text text-anchor="start" x="635.09" y="-427.6" font-family="Times,serif" font-size="13.00">listAll (safe)</text>
</a>
</g>
<g id="a_edge13_4"><a xlink:href="docs/idempotent.remove.html" xlink:title="&lt;TABLE&gt;">
<text text-anchor="start" x="635.09" y="-407.6" font-family="Times,serif" font-size="13.00">remove (idempotent)</text>
</a>
</g>
</g>
<!-- related -->
<g id="node7" class="node">
<title>related</title>
<g id="a_node7"><a xlink:href="docs/semantic.related.html" xlink:title="related" target="_parent">
<polygon fill="lightgray" stroke="black" stroke-width="2" points="788.09,-122 734.09,-122 734.09,-86 788.09,-86 788.09,-122"/>
<text text-anchor="middle" x="761.09" y="-100.3" font-family="Times,serif" font-size="14.00">related</text>
</a>
</g>
</g>
<!-- todoItem&#45;&gt;related -->
<g id="edge11" class="edge">
<title>todoItem&#45;&gt;related</title>
<g id="a_edge11"><a xlink:href="docs/safe.goRelated.html" xlink:title="goRelated (safe)" target="_parent">
<path fill="none" stroke="black" d="M848.21,-459.92C851.45,-454.2 854.25,-448.13 856.09,-442 859.05,-432.14 873.25,-166.04 855.09,-140 842.31,-121.67 818.72,-112.92 798.37,-108.76"/>
<polygon fill="black" stroke="black" points="798.86,-105.29 788.41,-107.01 797.65,-112.18 798.86,-105.29"/>
</a>
</g>
<g id="a_edge11&#45;label"><a xlink:href="docs/safe.goRelated.html" xlink:title="goRelated (safe)" target="_parent">
<text text-anchor="start" x="864.09" y="-307.6" font-family="Times,serif" font-size="13.00">goRelated (safe)</text>
</a>
</g>
</g>
<!-- todoList&#45;&gt;todoItem -->
<g id="edge16" class="edge">
<title>todoList&#45;&gt;todoItem</title>
<path fill="none" stroke="black" d="M664.61,-334.7C690.85,-350.89 725.11,-374.29 751.09,-400 767.4,-416.13 767.51,-423.51 781.09,-442 783.4,-445.15 785.81,-448.4 788.23,-451.66"/>
<polygon fill="black" stroke="black" points="785.49,-453.83 794.28,-459.75 791.1,-449.64 785.49,-453.83"/>
<g id="a_edge16_5"><a xlink:href="docs/unsafe.add.html" xlink:title="&lt;TABLE&gt;">
<text text-anchor="start" x="785.59" y="-427.6" font-family="Times,serif" font-size="13.00">add (unsafe)</text>
</a>
</g>
<g id="a_edge16_6"><a xlink:href="docs/safe.read.html" xlink:title="&lt;TABLE&gt;">
<text text-anchor="start" x="785.59" y="-407.6" font-family="Times,serif" font-size="13.00">read (safe)</text>
</a>
</g>
</g>
<!-- todoList&#45;&gt;todoList -->
<g id="edge17" class="edge">
<title>todoList&#45;&gt;todoList</title>
<path fill="none" stroke="black" d="M664.6,-331.41C674.85,-330.16 682.59,-323.35 682.59,-311 682.59,-302.89 679.26,-297.18 674.07,-293.85"/>
<polygon fill="black" stroke="black" points="675.19,-290.53 664.6,-290.59 672.91,-297.15 675.19,-290.53"/>
<g id="a_edge17_7"><a xlink:href="docs/safe.goFirst.html" xlink:title="&lt;TABLE&gt;">
<text text-anchor="start" x="687.09" y="-367.6" font-family="Times,serif" font-size="13.00">goFirst (safe)</text>
</a>
</g>
<g id="a_edge17_8"><a xlink:href="docs/safe.goLast.html" xlink:title="&lt;TABLE&gt;">
<text text-anchor="start" x="687.09" y="-347.6" font-family="Times,serif" font-size="13.00">goLast (safe)</text>
</a>
</g>
<g id="a_edge17_9"><a xlink:href="docs/safe.goNext.html" xlink:title="&lt;TABLE&gt;">
<text text-anchor="start" x="687.09" y="-327.6" font-family="Times,serif" font-size="13.00">goNext (safe)</text>
</a>
</g>
<g id="a_edge17_10"><a xlink:href="docs/safe.goPrevious.html" xlink:title="&lt;TABLE&gt;">
<text text-anchor="start" x="687.09" y="-307.6" font-family="Times,serif" font-size="13.00">goPrevious (safe)</text>
</a>
</g>
<g id="a_edge17_11"><a xlink:href="docs/safe.listActive.html" xlink:title="&lt;TABLE&gt;">
<text text-anchor="start" x="687.09" y="-287.6" font-family="Times,serif" font-size="13.00">listActive (safe)</text>
</a>
</g>
<g id="a_edge17_12"><a xlink:href="docs/safe.listAll.html" xlink:title="&lt;TABLE&gt;">
<text text-anchor="start" x="687.09" y="-267.6" font-family="Times,serif" font-size="13.00">listAll (safe)</text>
</a>
</g>
<g id="a_edge17_13"><a xlink:href="docs/safe.listCompleted.html" xlink:title="&lt;TABLE&gt;">
<text text-anchor="start" x="687.09" y="-247.6" font-family="Times,serif" font-size="13.00">listCompleted (safe)</text>
</a>
</g>
</g>
<!-- home -->
<g id="node6" class="node">
<title>home</title>
<g id="a_node6"><a xlink:href="docs/semantic.home.html" xlink:title="home" target="_parent">
<polygon fill="lightgray" stroke="black" stroke-width="2" points="633.09,-36 579.09,-36 579.09,0 633.09,0 633.09,-36"/>
<text text-anchor="middle" x="606.09" y="-14.3" font-family="Times,serif" font-size="14.00">home</text>
</a>
</g>
</g>
<!-- todoList&#45;&gt;home -->
<g id="edge14" class="edge">
<title>todoList&#45;&gt;home</title>
<g id="a_edge14"><a xlink:href="docs/safe.goHome.html" xlink:title="goHome (safe)" target="_parent">
<path fill="none" stroke="black" d="M614.69,-274.8C610.5,-258.84 606.16,-239.63 604.09,-222 596.73,-159.45 600.62,-85.31 603.64,-46.24"/>
<polygon fill="black" stroke="black" points="607.14,-46.44 604.46,-36.19 600.16,-45.87 607.14,-46.44"/>
</a>
</g>
<g id="a_edge14&#45;label"><a xlink:href="docs/safe.goHome.html" xlink:title="goHome (safe)" target="_parent">
<text text-anchor="start" x="602.09" y="-100.6" font-family="Times,serif" font-size="13.00">goHome (safe)</text>
</a>
</g>
</g>
<!-- todoList&#45;&gt;related -->
<g id="edge15" class="edge">
<title>todoList&#45;&gt;related</title>
<g id="a_edge15"><a xlink:href="docs/safe.goRelated.html" xlink:title="goRelated (safe)" target="_parent">
<path fill="none" stroke="black" d="M664.87,-291.18C691.76,-276.29 725.62,-252.87 744.09,-222 760.43,-194.69 763.21,-157.54 762.87,-132.49"/>
<polygon fill="black" stroke="black" points="766.36,-132.12 762.54,-122.23 759.36,-132.34 766.36,-132.12"/>
</a>
</g>
<g id="a_edge15&#45;label"><a xlink:href="docs/safe.goRelated.html" xlink:title="goRelated (safe)" target="_parent">
<text text-anchor="start" x="762.09" y="-177.6" font-family="Times,serif" font-size="13.00">goRelated (safe)</text>
</a>
</g>
</g>
<!-- About&#45;&gt;Blog -->
<g id="edge1" class="edge">
<title>About&#45;&gt;Blog</title>
<g id="a_edge1"><a xlink:href="docs/safe.goBlog.html" xlink:title="goBlog, collection (safe)" target="_parent">
<path fill="none" stroke="black" d="M417.32,-329.14C440.37,-355.59 476.94,-406.97 450.09,-442 432.77,-464.6 359.5,-479.72 307.39,-487.84"/>
<polygon fill="black" stroke="black" points="306.64,-484.41 297.27,-489.37 307.68,-491.33 306.64,-484.41"/>
</a>
</g>
<g id="a_edge1&#45;label"><a xlink:href="docs/safe.goBlog.html" xlink:title="goBlog, collection (safe)" target="_parent">
<text text-anchor="start" x="460.09" y="-417.6" font-family="Times,serif" font-size="13.00">goBlog, collection (safe)</text>
</a>
</g>
</g>
<!-- home&#45;&gt;todoList -->
<g id="edge7" class="edge">
<title>home&#45;&gt;todoList</title>
<g id="a_edge7"><a xlink:href="docs/safe.listAll.html" xlink:title="listAll (safe)" target="_parent">
<path fill="none" stroke="black" d="M578.68,-27.69C553.18,-37.41 516.69,-55.87 500.09,-86 492.37,-100.01 495.46,-106.68 500.09,-122 516.79,-177.29 555.68,-231.22 585.68,-267.03"/>
<polygon fill="black" stroke="black" points="583.18,-269.49 592.32,-274.84 588.51,-264.96 583.18,-269.49"/>
</a>
</g>
<g id="a_edge7&#45;label"><a xlink:href="docs/safe.listAll.html" xlink:title="listAll (safe)" target="_parent">
<text text-anchor="start" x="500.09" y="-100.6" font-family="Times,serif" font-size="13.00">listAll (safe)</text>
</a>
</g>
</g>
<!-- home&#45;&gt;related -->
<g id="edge6" class="edge">
<title>home&#45;&gt;related</title>
<g id="a_edge6"><a xlink:href="docs/safe.goRelated.html" xlink:title="goRelated (safe)" target="_parent">
<path fill="none" stroke="black" d="M633.37,-21.6C659.51,-25.24 699.03,-33.84 727.09,-54 735.37,-59.94 742.3,-68.56 747.71,-76.91"/>
<polygon fill="black" stroke="black" points="744.84,-78.94 752.96,-85.74 750.85,-75.35 744.84,-78.94"/>
</a>
</g>
<g id="a_edge6&#45;label"><a xlink:href="docs/safe.goRelated.html" xlink:title="goRelated (safe)" target="_parent">
<text text-anchor="start" x="740.09" y="-57.6" font-family="Times,serif" font-size="13.00">goRelated (safe)</text>
</a>
</g>
</g>
<!-- related&#45;&gt;todoItem -->
<g id="edge9" class="edge">
<title>related&#45;&gt;todoItem</title>
<path fill="none" stroke="black" d="M788.55,-107.88C814.92,-111.73 854.94,-120.49 884.09,-140 931.16,-171.5 944.51,-186.5 963.09,-240 983.8,-299.62 990.5,-325.15 963.09,-382 943.83,-421.95 902.81,-452.13 869.79,-471.21"/>
<polygon fill="black" stroke="black" points="867.73,-468.35 860.72,-476.29 871.15,-474.46 867.73,-468.35"/>
<g id="a_edge9_14"><a xlink:href="docs/unsafe.add.html" xlink:title="&lt;TABLE&gt;">
<text text-anchor="start" x="985.59" y="-327.6" font-family="Times,serif" font-size="13.00">add (unsafe)</text>
</a>
</g>
<g id="a_edge9_15"><a xlink:href="docs/idempotent.edit.html" xlink:title="&lt;TABLE&gt;">
<text text-anchor="start" x="985.59" y="-307.6" font-family="Times,serif" font-size="13.00">edit (idempotent)</text>
</a>
</g>
<g id="a_edge9_16"><a xlink:href="docs/safe.read.html" xlink:title="&lt;TABLE&gt;">
<text text-anchor="start" x="985.59" y="-287.6" font-family="Times,serif" font-size="13.00">read (safe)</text>
</a>
</g>
</g>
<!-- related&#45;&gt;todoList -->
<g id="edge10" class="edge">
<title>related&#45;&gt;todoList</title>
<path fill="none" stroke="black" d="M733.83,-110.12C695.84,-117.52 630.87,-131.28 624.09,-140 596.95,-174.94 601.94,-227.25 610.73,-264.61"/>
<polygon fill="black" stroke="black" points="607.45,-265.89 613.29,-274.73 614.23,-264.17 607.45,-265.89"/>
<g id="a_edge10_17"><a xlink:href="docs/safe.listActive.html" xlink:title="&lt;TABLE&gt;">
<text text-anchor="start" x="628.09" y="-207.6" font-family="Times,serif" font-size="13.00">listActive (safe)</text>
</a>
</g>
<g id="a_edge10_18"><a xlink:href="docs/safe.listAll.html" xlink:title="&lt;TABLE&gt;">
<text text-anchor="start" x="628.09" y="-187.6" font-family="Times,serif" font-size="13.00">listAll (safe)</text>
</a>
</g>
<g id="a_edge10_19"><a xlink:href="docs/safe.listCompleted.html" xlink:title="&lt;TABLE&gt;">
<text text-anchor="start" x="628.09" y="-167.6" font-family="Times,serif" font-size="13.00">listCompleted (safe)</text>
</a>
</g>
<g id="a_edge10_20"><a xlink:href="docs/idempotent.remove.html" xlink:title="&lt;TABLE&gt;">
<text text-anchor="start" x="628.09" y="-147.6" font-family="Times,serif" font-size="13.00">remove (idempotent)</text>
</a>
</g>
</g>
<!-- related&#45;&gt;home -->
<g id="edge8" class="edge">
<title>related&#45;&gt;home</title>
<g id="a_edge8"><a xlink:href="docs/safe.goHome.html" xlink:title="goHome (safe)" target="_parent">
<path fill="none" stroke="black" d="M733.68,-99.84C708.31,-95.83 670.49,-86.99 643.09,-68 634.38,-61.96 626.85,-53.22 620.9,-44.78"/>
<polygon fill="black" stroke="black" points="623.7,-42.67 615.29,-36.23 617.85,-46.51 623.7,-42.67"/>
</a>
</g>
<g id="a_edge8&#45;label"><a xlink:href="docs/safe.goHome.html" xlink:title="goHome (safe)" target="_parent">
<text text-anchor="start" x="643.09" y="-57.6" font-family="Times,serif" font-size="13.00">goHome (safe)</text>
</a>
</g>
</g>
</g>
</svg>
