<?xml version="1.0" encoding="UTF-8" standalone="no"?>
<!DOCTYPE svg PUBLIC "-//W3C//DTD SVG 1.1//EN"
 "http://www.w3.org/Graphics/SVG/1.1/DTD/svg11.dtd">
<!-- Generated by graphviz version 2.46.0 (20210118.1747)
 -->
<!-- Title: application_state_diagram Pages: 1 -->
<svg width="733pt" height="553pt"
 viewBox="0.00 0.00 732.50 553.00" xmlns="http://www.w3.org/2000/svg" xmlns:xlink="http://www.w3.org/1999/xlink">
<g id="graph0" class="graph" transform="scale(1 1) rotate(0) translate(4 549)">
<title>application_state_diagram</title>
<g id="a_graph0"><a xlink:href="index.html" xlink:title="MVC ToDo List" target="_parent">
<polygon fill="white" stroke="transparent" points="-4,4 -4,-549 728.5,-549 728.5,4 -4,4"/>
<text text-anchor="middle" x="362.25" y="-7.8" font-family="Helvetica,sans-Serif" font-size="14.00">MVC ToDo List</text>
</a>
</g>
<!-- todoList -->
<g id="node1" class="node">
<title>todoList</title>
<g id="a_node1"><a xlink:href="docs/semantic.todoList.html" xlink:title="&lt;TABLE&gt;" target="_parent">
<polygon fill="lightgray" stroke="black" stroke-width="2" points="401,-510 322,-510 322,-438 401,-438 401,-510"/>
<text text-anchor="start" x="339" y="-492.8" font-family="Times,serif" font-size="14.00">todoList</text>
<text text-anchor="start" x="352" y="-477.8" font-family="Times,serif" font-size="14.00">(id)</text>
<text text-anchor="start" x="346.5" y="-462.8" font-family="Times,serif" font-size="14.00">(title)</text>
<text text-anchor="start" x="328.5" y="-447.8" font-family="Times,serif" font-size="14.00">(completed)</text>
</a>
</g>
</g>
<!-- todoList&#45;&gt;todoList -->
<g id="edge7" class="edge">
<title>todoList&#45;&gt;todoList</title>
<path fill="none" stroke="black" d="M401.01,-494.41C411.26,-493.16 419,-486.35 419,-474 419,-465.89 415.67,-460.18 410.48,-456.85"/>
<polygon fill="black" stroke="black" points="411.6,-453.53 401.01,-453.59 409.32,-460.15 411.6,-453.53"/>
<g id="a_edge7_0"><a xlink:href="docs/safe.listAll.html" xlink:title="&lt;TABLE&gt;">
<text text-anchor="start" x="423.5" y="-530.6" font-family="Times,serif" font-size="13.00">listAll (safe)</text>
</a>
</g>
<g id="a_edge7_1"><a xlink:href="docs/safe.listActive.html" xlink:title="&lt;TABLE&gt;">
<text text-anchor="start" x="423.5" y="-510.6" font-family="Times,serif" font-size="13.00">listActive (safe)</text>
</a>
</g>
<g id="a_edge7_2"><a xlink:href="docs/safe.listCompleted.html" xlink:title="&lt;TABLE&gt;">
<text text-anchor="start" x="423.5" y="-490.6" font-family="Times,serif" font-size="13.00">listCompleted (safe)</text>
</a>
</g>
<g id="a_edge7_3"><a xlink:href="docs/safe.goFirst.html" xlink:title="&lt;TABLE&gt;">
<text text-anchor="start" x="423.5" y="-470.6" font-family="Times,serif" font-size="13.00">goFirst (safe)</text>
</a>
</g>
<g id="a_edge7_4"><a xlink:href="docs/safe.goNext.html" xlink:title="&lt;TABLE&gt;">
<text text-anchor="start" x="423.5" y="-450.6" font-family="Times,serif" font-size="13.00">goNext (safe)</text>
</a>
</g>
<g id="a_edge7_5"><a xlink:href="docs/safe.goPrevious.html" xlink:title="&lt;TABLE&gt;">
<text text-anchor="start" x="423.5" y="-430.6" font-family="Times,serif" font-size="13.00">goPrevious (safe)</text>
</a>
</g>
<g id="a_edge7_6"><a xlink:href="docs/safe.goLast.html" xlink:title="&lt;TABLE&gt;">
<text text-anchor="start" x="423.5" y="-410.6" font-family="Times,serif" font-size="13.00">goLast (safe)</text>
</a>
</g>
</g>
<!-- todoItem -->
<g id="node2" class="node">
<title>todoItem</title>
<g id="a_node2"><a xlink:href="docs/semantic.todoItem.html" xlink:title="&lt;TABLE&gt;" target="_parent">
<polygon fill="lightgray" stroke="black" stroke-width="2" points="79,-320 0,-320 0,-248 79,-248 79,-320"/>
<text text-anchor="start" x="15" y="-302.8" font-family="Times,serif" font-size="14.00">todoItem</text>
<text text-anchor="start" x="30" y="-287.8" font-family="Times,serif" font-size="14.00">(id)</text>
<text text-anchor="start" x="24.5" y="-272.8" font-family="Times,serif" font-size="14.00">(title)</text>
<text text-anchor="start" x="6.5" y="-257.8" font-family="Times,serif" font-size="14.00">(completed)</text>
</a>
</g>
</g>
<!-- todoList&#45;&gt;todoItem -->
<g id="edge6" class="edge">
<title>todoList&#45;&gt;todoItem</title>
<path fill="none" stroke="black" d="M321.98,-473.54C257.35,-472.14 129.37,-459.42 60.5,-385 46.92,-370.32 41.22,-349.18 39.11,-330.11"/>
<polygon fill="black" stroke="black" points="42.59,-329.76 38.29,-320.08 35.61,-330.33 42.59,-329.76"/>
<g id="a_edge6_7"><a xlink:href="docs/safe.read.html" xlink:title="&lt;TABLE&gt;">
<text text-anchor="start" x="65" y="-370.6" font-family="Times,serif" font-size="13.00">read (safe)</text>
</a>
</g>
<g id="a_edge6_8"><a xlink:href="docs/unsafe.add.html" xlink:title="&lt;TABLE&gt;">
<text text-anchor="start" x="65" y="-350.6" font-family="Times,serif" font-size="13.00">add (unsafe)</text>
</a>
</g>
</g>
<!-- home -->
<g id="node3" class="node">
<title>home</title>
<g id="a_node3"><a xlink:href="docs/semantic.home.html" xlink:title="home" target="_parent">
<polygon fill="lightgray" stroke="black" stroke-width="2" points="531.5,-59 477.5,-59 477.5,-23 531.5,-23 531.5,-59"/>
<text text-anchor="middle" x="504.5" y="-37.3" font-family="Times,serif" font-size="14.00">home</text>
</a>
</g>
</g>
<!-- todoList&#45;&gt;home -->
<g id="edge8" class="edge">
<title>todoList&#45;&gt;home</title>
<g id="a_edge8"><a xlink:href="docs/safe.goHome.html" xlink:title="goHome (safe)" target="_parent">
<path fill="none" stroke="black" d="M401.02,-450.98C440.93,-426.23 500.18,-381.95 525.5,-325 536.25,-300.82 537.06,-141.1 521.5,-77 520.81,-74.17 519.87,-71.3 518.79,-68.48"/>
<polygon fill="black" stroke="black" points="521.95,-66.97 514.69,-59.25 515.55,-69.81 521.95,-66.97"/>
</a>
</g>
<g id="a_edge8&#45;label"><a xlink:href="docs/safe.goHome.html" xlink:title="goHome (safe)" target="_parent">
<text text-anchor="middle" x="572.5" y="-190.6" font-family="Times,serif" font-size="13.00">goHome (safe)</text>
</a>
</g>
</g>
<!-- related -->
<g id="node4" class="node">
<title>related</title>
<g id="a_node4"><a xlink:href="docs/semantic.related.html" xlink:title="related" target="_parent">
<polygon fill="lightgray" stroke="black" stroke-width="2" points="334.5,-145 280.5,-145 280.5,-109 334.5,-109 334.5,-145"/>
<text text-anchor="middle" x="307.5" y="-123.3" font-family="Times,serif" font-size="14.00">related</text>
</a>
</g>
</g>
<!-- todoList&#45;&gt;related -->
<g id="edge9" class="edge">
<title>todoList&#45;&gt;related</title>
<g id="a_edge9"><a xlink:href="docs/safe.goRelated.html" xlink:title="goRelated (safe)" target="_parent">
<path fill="none" stroke="black" d="M342.04,-437.79C327.08,-408.57 307.62,-365.42 299.5,-325 287.53,-265.44 296,-193.78 302.33,-155.42"/>
<polygon fill="black" stroke="black" points="305.86,-155.53 304.11,-145.08 298.96,-154.34 305.86,-155.53"/>
</a>
</g>
<g id="a_edge9&#45;label"><a xlink:href="docs/safe.goRelated.html" xlink:title="goRelated (safe)" target="_parent">
<text text-anchor="middle" x="344" y="-280.6" font-family="Times,serif" font-size="13.00">goRelated (safe)</text>
</a>
</g>
</g>
<!-- todoItem&#45;&gt;todoList -->
<g id="edge10" class="edge">
<title>todoItem&#45;&gt;todoList</title>
<path fill="none" stroke="black" d="M79.36,-304.3C97.66,-314.31 118.93,-327.65 135.5,-343 152.33,-358.59 147.75,-370.46 165.5,-385 209.18,-420.78 269.73,-445.01 311.93,-458.84"/>
<polygon fill="black" stroke="black" points="311.11,-462.26 321.7,-461.97 313.24,-455.59 311.11,-462.26"/>
<g id="a_edge10_9"><a xlink:href="docs/safe.listAll.html" xlink:title="&lt;TABLE&gt;">
<text text-anchor="start" x="169.5" y="-370.6" font-family="Times,serif" font-size="13.00">listAll (safe)</text>
</a>
</g>
<g id="a_edge10_10"><a xlink:href="docs/idempotent.remove.html" xlink:title="&lt;TABLE&gt;">
<text text-anchor="start" x="169.5" y="-350.6" font-family="Times,serif" font-size="13.00">remove (idempotent)</text>
</a>
</g>
</g>
<!-- todoItem&#45;&gt;todoItem -->
<g id="edge11" class="edge">
<title>todoItem&#45;&gt;todoItem</title>
<path fill="none" stroke="black" d="M79.01,-298.85C89.26,-297.93 97,-292.98 97,-284 97,-278.24 93.83,-274.15 88.85,-271.7"/>
<polygon fill="black" stroke="black" points="89.56,-268.27 79.01,-269.15 87.81,-275.05 89.56,-268.27"/>
<g id="a_edge11_11"><a xlink:href="docs/idempotent.edit.html" xlink:title="&lt;TABLE&gt;">
<text text-anchor="start" x="101" y="-300.6" font-family="Times,serif" font-size="13.00">edit (idempotent)</text>
</a>
</g>
<g id="a_edge11_12"><a xlink:href="docs/idempotent.markCompleted.html" xlink:title="&lt;TABLE&gt;">
<text text-anchor="start" x="101" y="-280.6" font-family="Times,serif" font-size="13.00">markCompleted (idempotent)</text>
</a>
</g>
<g id="a_edge11_13"><a xlink:href="docs/idempotent.clearCompleted.html" xlink:title="&lt;TABLE&gt;">
<text text-anchor="start" x="101" y="-260.6" font-family="Times,serif" font-size="13.00">clearCompleted (idempotent)</text>
</a>
</g>
</g>
<!-- todoItem&#45;&gt;related -->
<g id="edge12" class="edge">
<title>todoItem&#45;&gt;related</title>
<g id="a_edge12"><a xlink:href="docs/safe.goRelated.html" xlink:title="goRelated (safe)" target="_parent">
<path fill="none" stroke="black" d="M31.13,-247.91C27.01,-221.17 26.68,-185.27 47.5,-163 76.96,-131.48 205.21,-127.45 269.9,-127.48"/>
<polygon fill="black" stroke="black" points="270.07,-130.98 280.08,-127.52 270.1,-123.98 270.07,-130.98"/>
</a>
</g>
<g id="a_edge12&#45;label"><a xlink:href="docs/safe.goRelated.html" xlink:title="goRelated (safe)" target="_parent">
<text text-anchor="middle" x="92" y="-190.6" font-family="Times,serif" font-size="13.00">goRelated (safe)</text>
</a>
</g>
</g>
<!-- home&#45;&gt;todoList -->
<g id="edge1" class="edge">
<title>home&#45;&gt;todoList</title>
<g id="a_edge1"><a xlink:href="docs/safe.listAll.html" xlink:title="listAll (safe)" target="_parent">
<path fill="none" stroke="black" d="M531.8,-49.78C548.69,-55.48 570.19,-64.44 586.5,-77 643.71,-121.05 667.72,-154.21 653.5,-225 638.31,-300.58 641.66,-331.14 586.5,-385 538.07,-432.29 461.29,-454.93 411.14,-465.2"/>
<polygon fill="black" stroke="black" points="410.32,-461.8 401.17,-467.15 411.66,-468.67 410.32,-461.8"/>
</a>
</g>
<g id="a_edge1&#45;label"><a xlink:href="docs/safe.listAll.html" xlink:title="listAll (safe)" target="_parent">
<text text-anchor="middle" x="690.5" y="-190.6" font-family="Times,serif" font-size="13.00">listAll (safe)</text>
</a>
</g>
</g>
<!-- home&#45;&gt;related -->
<g id="edge2" class="edge">
<title>home&#45;&gt;related</title>
<g id="a_edge2"><a xlink:href="docs/safe.goRelated.html" xlink:title="goRelated (safe)" target="_parent">
<path fill="none" stroke="black" d="M477.4,-55.5C456.57,-65.7 426.97,-79.8 400.5,-91 382.17,-98.75 361.48,-106.62 344.27,-112.94"/>
<polygon fill="black" stroke="black" points="342.79,-109.75 334.59,-116.46 345.18,-116.33 342.79,-109.75"/>
</a>
</g>
<g id="a_edge2&#45;label"><a xlink:href="docs/safe.goRelated.html" xlink:title="goRelated (safe)" target="_parent">
<text text-anchor="middle" x="473" y="-80.6" font-family="Times,serif" font-size="13.00">goRelated (safe)</text>
</a>
</g>
</g>
<!-- related&#45;&gt;todoList -->
<g id="edge4" class="edge">
<title>related&#45;&gt;todoList</title>
<path fill="none" stroke="black" d="M325.73,-145.01C346.53,-165.8 379.37,-203.15 392.5,-243 412.98,-305.17 394.99,-381.05 379.1,-428.21"/>
<polygon fill="black" stroke="black" points="375.74,-427.22 375.76,-437.82 382.35,-429.52 375.74,-427.22"/>
<g id="a_edge4_14"><a xlink:href="docs/safe.listAll.html" xlink:title="&lt;TABLE&gt;">
<text text-anchor="start" x="405.5" y="-310.6" font-family="Times,serif" font-size="13.00">listAll (safe)</text>
</a>
</g>
<g id="a_edge4_15"><a xlink:href="docs/safe.listActive.html" xlink:title="&lt;TABLE&gt;">
<text text-anchor="start" x="405.5" y="-290.6" font-family="Times,serif" font-size="13.00">listActive (safe)</text>
</a>
</g>
<g id="a_edge4_16"><a xlink:href="docs/safe.listCompleted.html" xlink:title="&lt;TABLE&gt;">
<text text-anchor="start" x="405.5" y="-270.6" font-family="Times,serif" font-size="13.00">listCompleted (safe)</text>
</a>
</g>
<g id="a_edge4_17"><a xlink:href="docs/idempotent.remove.html" xlink:title="&lt;TABLE&gt;">
<text text-anchor="start" x="405.5" y="-250.6" font-family="Times,serif" font-size="13.00">remove (idempotent)</text>
</a>
</g>
</g>
<!-- related&#45;&gt;todoItem -->
<g id="edge5" class="edge">
<title>related&#45;&gt;todoItem</title>
<path fill="none" stroke="black" d="M280.32,-130.49C253.79,-134.05 213.32,-142.62 184.5,-163 156.91,-182.51 165.51,-202.28 140.5,-225 125.08,-239.01 105.71,-251.14 88.07,-260.63"/>
<polygon fill="black" stroke="black" points="86.27,-257.62 79.03,-265.35 89.51,-263.82 86.27,-257.62"/>
<g id="a_edge5_18"><a xlink:href="docs/safe.read.html" xlink:title="&lt;TABLE&gt;">
<text text-anchor="start" x="189" y="-210.6" font-family="Times,serif" font-size="13.00">read (safe)</text>
</a>
</g>
<g id="a_edge5_19"><a xlink:href="docs/unsafe.add.html" xlink:title="&lt;TABLE&gt;">
<text text-anchor="start" x="189" y="-190.6" font-family="Times,serif" font-size="13.00">add (unsafe)</text>
</a>
</g>
<g id="a_edge5_20"><a xlink:href="docs/idempotent.edit.html" xlink:title="&lt;TABLE&gt;">
<text text-anchor="start" x="189" y="-170.6" font-family="Times,serif" font-size="13.00">edit (idempotent)</text>
</a>
</g>
</g>
<!-- related&#45;&gt;home -->
<g id="edge3" class="edge">
<title>related&#45;&gt;home</title>
<g id="a_edge3"><a xlink:href="docs/safe.goHome.html" xlink:title="goHome (safe)" target="_parent">
<path fill="none" stroke="black" d="M306.11,-108.81C306.23,-98.25 308.31,-85.21 316.5,-77 337.14,-56.31 418.33,-47.52 467.01,-44.05"/>
<polygon fill="black" stroke="black" points="467.42,-47.53 477.16,-43.37 466.95,-40.55 467.42,-47.53"/>
</a>
</g>
<g id="a_edge3&#45;label"><a xlink:href="docs/safe.goHome.html" xlink:title="goHome (safe)" target="_parent">
<text text-anchor="middle" x="356.5" y="-80.6" font-family="Times,serif" font-size="13.00">goHome (safe)</text>
</a>
</g>
</g>
</g>
</svg>
